%TF.GenerationSoftware,KiCad,Pcbnew,4.0.5+dfsg1-4*%
%TF.CreationDate,2020-02-08T14:12:35-08:00*%
%TF.ProjectId,SpangSimple,5370616E6753696D706C652E6B696361,rev?*%
%TF.FileFunction,Copper,L2,Bot,Signal*%
%FSLAX46Y46*%
G04 Gerber Fmt 4.6, Leading zero omitted, Abs format (unit mm)*
G04 Created by KiCad (PCBNEW 4.0.5+dfsg1-4) date Sat Feb  8 14:12:35 2020*
%MOMM*%
%LPD*%
G01*
G04 APERTURE LIST*
%ADD10C,0.100000*%
%ADD11R,1.500000X0.797560*%
%ADD12C,16.500000*%
%ADD13C,0.600000*%
%ADD14C,1.000000*%
%ADD15C,0.500000*%
%ADD16C,0.750000*%
%ADD17C,4.000000*%
%ADD18C,0.250000*%
%ADD19C,0.254000*%
G04 APERTURE END LIST*
D10*
G36*
X168138695Y-103036543D02*
X167219457Y-102117305D01*
X168280117Y-101056645D01*
X169199355Y-101975883D01*
X168138695Y-103036543D01*
X168138695Y-103036543D01*
G37*
G36*
X170047883Y-101127355D02*
X169128645Y-100208117D01*
X170189305Y-99147457D01*
X171108543Y-100066695D01*
X170047883Y-101127355D01*
X170047883Y-101127355D01*
G37*
G36*
X137609010Y-114216117D02*
X138316117Y-113509010D01*
X139023224Y-114216117D01*
X138316117Y-114923224D01*
X137609010Y-114216117D01*
X137609010Y-114216117D01*
G37*
G36*
X139376776Y-115983883D02*
X140083883Y-115276776D01*
X140790990Y-115983883D01*
X140083883Y-116690990D01*
X139376776Y-115983883D01*
X139376776Y-115983883D01*
G37*
G36*
X150074822Y-83358006D02*
X149802041Y-84107468D01*
X148392502Y-83594438D01*
X148665283Y-82844976D01*
X150074822Y-83358006D01*
X150074822Y-83358006D01*
G37*
G36*
X148007498Y-82605562D02*
X147734717Y-83355024D01*
X146325178Y-82841994D01*
X146597959Y-82092532D01*
X148007498Y-82605562D01*
X148007498Y-82605562D01*
G37*
D11*
X141400000Y-90000000D03*
X143600000Y-90000000D03*
D10*
G36*
X138991890Y-99911338D02*
X140736193Y-95118906D01*
X144494964Y-96486986D01*
X142750661Y-101279418D01*
X138991890Y-99911338D01*
X138991890Y-99911338D01*
G37*
G36*
X161168636Y-107983014D02*
X162912939Y-103190582D01*
X166671710Y-104558662D01*
X164927407Y-109351094D01*
X161168636Y-107983014D01*
X161168636Y-107983014D01*
G37*
D12*
X152831800Y-102235000D03*
D10*
G36*
X144263883Y-113229721D02*
X144900279Y-113866117D01*
X144051751Y-114714645D01*
X143415355Y-114078249D01*
X144263883Y-113229721D01*
X144263883Y-113229721D01*
G37*
G36*
X142708249Y-114785355D02*
X143344645Y-115421751D01*
X142496117Y-116270279D01*
X141859721Y-115633883D01*
X142708249Y-114785355D01*
X142708249Y-114785355D01*
G37*
D13*
X158672000Y-111252000D03*
X170180000Y-100076000D03*
X155626000Y-113030000D03*
D14*
X144157817Y-113972183D02*
X144546725Y-114361091D01*
X152770090Y-114361091D02*
X154547790Y-112583391D01*
X144546725Y-114361091D02*
X152770090Y-114361091D01*
X158672000Y-111252000D02*
X155879181Y-111252000D01*
X155879181Y-111252000D02*
X154547790Y-112583391D01*
X141743427Y-98199162D02*
X141743427Y-106842737D01*
X141743427Y-106842737D02*
X140083883Y-108502281D01*
X140083883Y-108502281D02*
X140083883Y-115983883D01*
D15*
X141743427Y-98199162D02*
X141743427Y-101012815D01*
D16*
X138316117Y-114216117D02*
X138740380Y-114640380D01*
X138740380Y-114640380D02*
X138740380Y-116165202D01*
X138740380Y-116165202D02*
X139844378Y-117269200D01*
X152736240Y-117269200D02*
X155626000Y-114379440D01*
X139844378Y-117269200D02*
X152736240Y-117269200D01*
X155626000Y-114379440D02*
X155626000Y-113030000D01*
X141400000Y-90000000D02*
X141400000Y-91148780D01*
X138277600Y-97827200D02*
X138277600Y-100736400D01*
X140141200Y-106848800D02*
X138970000Y-108020000D01*
X138970000Y-108020000D02*
X138970000Y-111010000D01*
X141400000Y-91148780D02*
X138904800Y-93643980D01*
X138904800Y-93643980D02*
X138904800Y-97200000D01*
X138904800Y-97200000D02*
X138277600Y-97827200D01*
X138277600Y-100736400D02*
X140141200Y-102600000D01*
X140141200Y-102600000D02*
X140141200Y-106848800D01*
X137400000Y-112580000D02*
X137400000Y-113300000D01*
X138970000Y-111010000D02*
X137400000Y-112580000D01*
X137400000Y-113300000D02*
X138316117Y-114216117D01*
D15*
X149233662Y-83476222D02*
X149889526Y-84132086D01*
X149889526Y-84132086D02*
X149932086Y-84132086D01*
X152500000Y-86700000D02*
X152500000Y-88600000D01*
X149932086Y-84132086D02*
X152500000Y-86700000D01*
X152500000Y-88600000D02*
X151951981Y-89148019D01*
X151951981Y-89148019D02*
X142487439Y-89148019D01*
X141635458Y-90000000D02*
X141400000Y-90000000D01*
X142487439Y-89148019D02*
X141635458Y-90000000D01*
X146264600Y-91414600D02*
X153900000Y-91414600D01*
X153900000Y-91414600D02*
X157614600Y-91414600D01*
X151900000Y-82200000D02*
X153900000Y-84200000D01*
X153900000Y-84200000D02*
X153900000Y-91414600D01*
X147166338Y-82723778D02*
X147690116Y-82200000D01*
X147690116Y-82200000D02*
X151900000Y-82200000D01*
X143600000Y-90000000D02*
X144850000Y-90000000D01*
X144850000Y-90000000D02*
X146264600Y-91414600D01*
X157614600Y-91414600D02*
X164355775Y-98155775D01*
X164355775Y-98155775D02*
X164355775Y-98192963D01*
X164355775Y-98192963D02*
X168209406Y-102046594D01*
X167447406Y-101284594D02*
X168209406Y-102046594D01*
D14*
X142602183Y-115527817D02*
X142602183Y-112464617D01*
X142602183Y-112464617D02*
X152831800Y-102235000D01*
X152831800Y-104868200D02*
X152831800Y-102235000D01*
D17*
X152831800Y-102235000D02*
X152831800Y-103131800D01*
X152831800Y-102235000D02*
X152831800Y-107768200D01*
X152831800Y-107768200D02*
X152700000Y-107900000D01*
D18*
X152831800Y-102235000D02*
X152831800Y-104878400D01*
D15*
X152831800Y-102235000D02*
X152831800Y-102250200D01*
D19*
G36*
X142598110Y-90995211D02*
X142850000Y-91046220D01*
X144350000Y-91046220D01*
X144585317Y-91001942D01*
X144594472Y-90996051D01*
X145638808Y-92040387D01*
X145638810Y-92040390D01*
X145812326Y-92156329D01*
X145925926Y-92232234D01*
X146264600Y-92299601D01*
X146264605Y-92299600D01*
X157248020Y-92299600D01*
X163655101Y-98706680D01*
X163729985Y-98818753D01*
X166684150Y-101772917D01*
X166626563Y-101857199D01*
X166572079Y-102108361D01*
X166619603Y-102360932D01*
X166761648Y-102575114D01*
X167680886Y-103494352D01*
X167878589Y-103629437D01*
X168129751Y-103683921D01*
X168382322Y-103636397D01*
X168596504Y-103494352D01*
X169657164Y-102433692D01*
X169792249Y-102235989D01*
X169846733Y-101984827D01*
X169799209Y-101732256D01*
X169780386Y-101703874D01*
X169921574Y-101762356D01*
X170174193Y-101762355D01*
X170407582Y-101665682D01*
X170645293Y-101427971D01*
X170564058Y-101571340D01*
X169473683Y-102820146D01*
X168401349Y-103649346D01*
X167587450Y-104198368D01*
X167510952Y-104275543D01*
X167428931Y-104346830D01*
X167417431Y-104369891D01*
X167399293Y-104388189D01*
X167358151Y-104488763D01*
X167313214Y-104578873D01*
X167318980Y-104543830D01*
X167262214Y-104293174D01*
X167112401Y-104084352D01*
X166893147Y-103950267D01*
X163134376Y-102582187D01*
X162898107Y-102543312D01*
X162647451Y-102600078D01*
X162438629Y-102749891D01*
X162304544Y-102969144D01*
X160560241Y-107761576D01*
X160521366Y-107997846D01*
X160578132Y-108248502D01*
X160727945Y-108457324D01*
X160947199Y-108591409D01*
X164037848Y-109716313D01*
X163544375Y-109826443D01*
X162833603Y-109884955D01*
X162733994Y-109913435D01*
X162632233Y-109932915D01*
X162222298Y-110099264D01*
X162194111Y-110117806D01*
X162161754Y-110127342D01*
X162083280Y-110190711D01*
X161999004Y-110246148D01*
X161980060Y-110274063D01*
X161953812Y-110295258D01*
X161356512Y-111011433D01*
X161051258Y-111317343D01*
X160781940Y-111568693D01*
X160462531Y-111822261D01*
X160093534Y-112062669D01*
X160055679Y-112099655D01*
X160010142Y-112126622D01*
X159663137Y-112437794D01*
X159083276Y-112954085D01*
X158777346Y-113219981D01*
X157541129Y-114182922D01*
X156395742Y-115048779D01*
X156346254Y-115084525D01*
X156559118Y-114765950D01*
X156636000Y-114379440D01*
X156636000Y-113030000D01*
X156559118Y-112643490D01*
X156340178Y-112315822D01*
X156012510Y-112096882D01*
X155626000Y-112020000D01*
X155239490Y-112096882D01*
X154911822Y-112315822D01*
X154692882Y-112643490D01*
X154616000Y-113030000D01*
X154616000Y-113961084D01*
X152317884Y-116259200D01*
X143452312Y-116259200D01*
X143511711Y-116170303D01*
X143802454Y-115879560D01*
X143937539Y-115681857D01*
X143992023Y-115430695D01*
X143976773Y-115349645D01*
X144178061Y-115349645D01*
X144411450Y-115252972D01*
X144722972Y-114941450D01*
X144722972Y-114716943D01*
X144157817Y-114151788D01*
X144143675Y-114165931D01*
X143964070Y-113986326D01*
X143978212Y-113972183D01*
X144337422Y-113972183D01*
X144902577Y-114537338D01*
X145127084Y-114537338D01*
X145438606Y-114225816D01*
X145535279Y-113992427D01*
X145535279Y-113739808D01*
X145438607Y-113506419D01*
X145233150Y-113300962D01*
X145008643Y-113300962D01*
X144337422Y-113972183D01*
X143978212Y-113972183D01*
X143964070Y-113958041D01*
X144143675Y-113778436D01*
X144157817Y-113792578D01*
X144829038Y-113121357D01*
X144829038Y-112896850D01*
X144623581Y-112691393D01*
X144390192Y-112594721D01*
X144137573Y-112594721D01*
X144034529Y-112637403D01*
X147351020Y-109320912D01*
X147792281Y-109762944D01*
X151056711Y-111118454D01*
X154591382Y-111121538D01*
X157858173Y-109771728D01*
X160359744Y-107274519D01*
X161715254Y-104010089D01*
X161718338Y-100475418D01*
X160368528Y-97208627D01*
X157871319Y-94707056D01*
X154606889Y-93351546D01*
X151072218Y-93348462D01*
X147805427Y-94698272D01*
X145303856Y-97195481D01*
X143948346Y-100459911D01*
X143945262Y-103994582D01*
X145295072Y-107261373D01*
X145747289Y-107714379D01*
X141799617Y-111662051D01*
X141553580Y-112030271D01*
X141467183Y-112464617D01*
X141467183Y-115110803D01*
X141401912Y-115176074D01*
X141266827Y-115373777D01*
X141236465Y-115513740D01*
X141218883Y-115496158D01*
X141218883Y-108972413D01*
X142545993Y-107645303D01*
X142792031Y-107277082D01*
X142878427Y-106842737D01*
X142878427Y-101901112D01*
X143016149Y-101869922D01*
X143224971Y-101720109D01*
X143359056Y-101500856D01*
X145103359Y-96708424D01*
X145142234Y-96472154D01*
X145085468Y-96221498D01*
X144935655Y-96012676D01*
X144716401Y-95878591D01*
X140957630Y-94510511D01*
X140721361Y-94471636D01*
X140470705Y-94528402D01*
X140261883Y-94678215D01*
X140127798Y-94897468D01*
X139914800Y-95482675D01*
X139914800Y-94062336D01*
X142114178Y-91862958D01*
X142333118Y-91535290D01*
X142410000Y-91148780D01*
X142410000Y-90986059D01*
X142499978Y-90928160D01*
X142598110Y-90995211D01*
X142598110Y-90995211D01*
G37*
X142598110Y-90995211D02*
X142850000Y-91046220D01*
X144350000Y-91046220D01*
X144585317Y-91001942D01*
X144594472Y-90996051D01*
X145638808Y-92040387D01*
X145638810Y-92040390D01*
X145812326Y-92156329D01*
X145925926Y-92232234D01*
X146264600Y-92299601D01*
X146264605Y-92299600D01*
X157248020Y-92299600D01*
X163655101Y-98706680D01*
X163729985Y-98818753D01*
X166684150Y-101772917D01*
X166626563Y-101857199D01*
X166572079Y-102108361D01*
X166619603Y-102360932D01*
X166761648Y-102575114D01*
X167680886Y-103494352D01*
X167878589Y-103629437D01*
X168129751Y-103683921D01*
X168382322Y-103636397D01*
X168596504Y-103494352D01*
X169657164Y-102433692D01*
X169792249Y-102235989D01*
X169846733Y-101984827D01*
X169799209Y-101732256D01*
X169780386Y-101703874D01*
X169921574Y-101762356D01*
X170174193Y-101762355D01*
X170407582Y-101665682D01*
X170645293Y-101427971D01*
X170564058Y-101571340D01*
X169473683Y-102820146D01*
X168401349Y-103649346D01*
X167587450Y-104198368D01*
X167510952Y-104275543D01*
X167428931Y-104346830D01*
X167417431Y-104369891D01*
X167399293Y-104388189D01*
X167358151Y-104488763D01*
X167313214Y-104578873D01*
X167318980Y-104543830D01*
X167262214Y-104293174D01*
X167112401Y-104084352D01*
X166893147Y-103950267D01*
X163134376Y-102582187D01*
X162898107Y-102543312D01*
X162647451Y-102600078D01*
X162438629Y-102749891D01*
X162304544Y-102969144D01*
X160560241Y-107761576D01*
X160521366Y-107997846D01*
X160578132Y-108248502D01*
X160727945Y-108457324D01*
X160947199Y-108591409D01*
X164037848Y-109716313D01*
X163544375Y-109826443D01*
X162833603Y-109884955D01*
X162733994Y-109913435D01*
X162632233Y-109932915D01*
X162222298Y-110099264D01*
X162194111Y-110117806D01*
X162161754Y-110127342D01*
X162083280Y-110190711D01*
X161999004Y-110246148D01*
X161980060Y-110274063D01*
X161953812Y-110295258D01*
X161356512Y-111011433D01*
X161051258Y-111317343D01*
X160781940Y-111568693D01*
X160462531Y-111822261D01*
X160093534Y-112062669D01*
X160055679Y-112099655D01*
X160010142Y-112126622D01*
X159663137Y-112437794D01*
X159083276Y-112954085D01*
X158777346Y-113219981D01*
X157541129Y-114182922D01*
X156395742Y-115048779D01*
X156346254Y-115084525D01*
X156559118Y-114765950D01*
X156636000Y-114379440D01*
X156636000Y-113030000D01*
X156559118Y-112643490D01*
X156340178Y-112315822D01*
X156012510Y-112096882D01*
X155626000Y-112020000D01*
X155239490Y-112096882D01*
X154911822Y-112315822D01*
X154692882Y-112643490D01*
X154616000Y-113030000D01*
X154616000Y-113961084D01*
X152317884Y-116259200D01*
X143452312Y-116259200D01*
X143511711Y-116170303D01*
X143802454Y-115879560D01*
X143937539Y-115681857D01*
X143992023Y-115430695D01*
X143976773Y-115349645D01*
X144178061Y-115349645D01*
X144411450Y-115252972D01*
X144722972Y-114941450D01*
X144722972Y-114716943D01*
X144157817Y-114151788D01*
X144143675Y-114165931D01*
X143964070Y-113986326D01*
X143978212Y-113972183D01*
X144337422Y-113972183D01*
X144902577Y-114537338D01*
X145127084Y-114537338D01*
X145438606Y-114225816D01*
X145535279Y-113992427D01*
X145535279Y-113739808D01*
X145438607Y-113506419D01*
X145233150Y-113300962D01*
X145008643Y-113300962D01*
X144337422Y-113972183D01*
X143978212Y-113972183D01*
X143964070Y-113958041D01*
X144143675Y-113778436D01*
X144157817Y-113792578D01*
X144829038Y-113121357D01*
X144829038Y-112896850D01*
X144623581Y-112691393D01*
X144390192Y-112594721D01*
X144137573Y-112594721D01*
X144034529Y-112637403D01*
X147351020Y-109320912D01*
X147792281Y-109762944D01*
X151056711Y-111118454D01*
X154591382Y-111121538D01*
X157858173Y-109771728D01*
X160359744Y-107274519D01*
X161715254Y-104010089D01*
X161718338Y-100475418D01*
X160368528Y-97208627D01*
X157871319Y-94707056D01*
X154606889Y-93351546D01*
X151072218Y-93348462D01*
X147805427Y-94698272D01*
X145303856Y-97195481D01*
X143948346Y-100459911D01*
X143945262Y-103994582D01*
X145295072Y-107261373D01*
X145747289Y-107714379D01*
X141799617Y-111662051D01*
X141553580Y-112030271D01*
X141467183Y-112464617D01*
X141467183Y-115110803D01*
X141401912Y-115176074D01*
X141266827Y-115373777D01*
X141236465Y-115513740D01*
X141218883Y-115496158D01*
X141218883Y-108972413D01*
X142545993Y-107645303D01*
X142792031Y-107277082D01*
X142878427Y-106842737D01*
X142878427Y-101901112D01*
X143016149Y-101869922D01*
X143224971Y-101720109D01*
X143359056Y-101500856D01*
X145103359Y-96708424D01*
X145142234Y-96472154D01*
X145085468Y-96221498D01*
X144935655Y-96012676D01*
X144716401Y-95878591D01*
X140957630Y-94510511D01*
X140721361Y-94471636D01*
X140470705Y-94528402D01*
X140261883Y-94678215D01*
X140127798Y-94897468D01*
X139914800Y-95482675D01*
X139914800Y-94062336D01*
X142114178Y-91862958D01*
X142333118Y-91535290D01*
X142410000Y-91148780D01*
X142410000Y-90986059D01*
X142499978Y-90928160D01*
X142598110Y-90995211D01*
G36*
X154608893Y-82779052D02*
X155948421Y-83558133D01*
X157791821Y-85100966D01*
X157794349Y-85102349D01*
X157796174Y-85104579D01*
X159264388Y-86312922D01*
X160525148Y-87543979D01*
X161226374Y-88678634D01*
X161290046Y-88746994D01*
X161345116Y-88822470D01*
X162455951Y-89845153D01*
X163338706Y-90705424D01*
X164769005Y-92308305D01*
X165397312Y-93147656D01*
X165475762Y-93218127D01*
X165548032Y-93294918D01*
X166195539Y-93756563D01*
X167191913Y-94600648D01*
X168086316Y-95359601D01*
X168112681Y-95374255D01*
X168133414Y-95396163D01*
X169479563Y-96350270D01*
X170498655Y-97268811D01*
X171218237Y-98527250D01*
X171385648Y-99445774D01*
X171299993Y-99360119D01*
X171075486Y-99360119D01*
X170298199Y-100137406D01*
X170312342Y-100151548D01*
X170132736Y-100331154D01*
X170118594Y-100317011D01*
X170104452Y-100331154D01*
X169924847Y-100151549D01*
X169938989Y-100137406D01*
X169232412Y-99430830D01*
X169007906Y-99430830D01*
X168590318Y-99848418D01*
X168493645Y-100081807D01*
X168493644Y-100334426D01*
X168549971Y-100470412D01*
X168540223Y-100463751D01*
X168289061Y-100409267D01*
X168036490Y-100456791D01*
X167937098Y-100522707D01*
X166441110Y-99026718D01*
X169412018Y-99026718D01*
X169412018Y-99251224D01*
X170118594Y-99957801D01*
X170895881Y-99180514D01*
X170895881Y-98956007D01*
X170727631Y-98787758D01*
X170549003Y-98609129D01*
X170315614Y-98512456D01*
X170062995Y-98512457D01*
X169829606Y-98609130D01*
X169412018Y-99026718D01*
X166441110Y-99026718D01*
X165056448Y-97642056D01*
X164981565Y-97529985D01*
X164981562Y-97529983D01*
X158240390Y-90788810D01*
X158140558Y-90722105D01*
X157953275Y-90596967D01*
X157882908Y-90582970D01*
X157614600Y-90529599D01*
X157614595Y-90529600D01*
X154785000Y-90529600D01*
X154785000Y-84200005D01*
X154785001Y-84200000D01*
X154717633Y-83861325D01*
X154672255Y-83793412D01*
X154525790Y-83574210D01*
X154525787Y-83574208D01*
X153390806Y-82439227D01*
X154608893Y-82779052D01*
X154608893Y-82779052D01*
G37*
X154608893Y-82779052D02*
X155948421Y-83558133D01*
X157791821Y-85100966D01*
X157794349Y-85102349D01*
X157796174Y-85104579D01*
X159264388Y-86312922D01*
X160525148Y-87543979D01*
X161226374Y-88678634D01*
X161290046Y-88746994D01*
X161345116Y-88822470D01*
X162455951Y-89845153D01*
X163338706Y-90705424D01*
X164769005Y-92308305D01*
X165397312Y-93147656D01*
X165475762Y-93218127D01*
X165548032Y-93294918D01*
X166195539Y-93756563D01*
X167191913Y-94600648D01*
X168086316Y-95359601D01*
X168112681Y-95374255D01*
X168133414Y-95396163D01*
X169479563Y-96350270D01*
X170498655Y-97268811D01*
X171218237Y-98527250D01*
X171385648Y-99445774D01*
X171299993Y-99360119D01*
X171075486Y-99360119D01*
X170298199Y-100137406D01*
X170312342Y-100151548D01*
X170132736Y-100331154D01*
X170118594Y-100317011D01*
X170104452Y-100331154D01*
X169924847Y-100151549D01*
X169938989Y-100137406D01*
X169232412Y-99430830D01*
X169007906Y-99430830D01*
X168590318Y-99848418D01*
X168493645Y-100081807D01*
X168493644Y-100334426D01*
X168549971Y-100470412D01*
X168540223Y-100463751D01*
X168289061Y-100409267D01*
X168036490Y-100456791D01*
X167937098Y-100522707D01*
X166441110Y-99026718D01*
X169412018Y-99026718D01*
X169412018Y-99251224D01*
X170118594Y-99957801D01*
X170895881Y-99180514D01*
X170895881Y-98956007D01*
X170727631Y-98787758D01*
X170549003Y-98609129D01*
X170315614Y-98512456D01*
X170062995Y-98512457D01*
X169829606Y-98609130D01*
X169412018Y-99026718D01*
X166441110Y-99026718D01*
X165056448Y-97642056D01*
X164981565Y-97529985D01*
X164981562Y-97529983D01*
X158240390Y-90788810D01*
X158140558Y-90722105D01*
X157953275Y-90596967D01*
X157882908Y-90582970D01*
X157614600Y-90529599D01*
X157614595Y-90529600D01*
X154785000Y-90529600D01*
X154785000Y-84200005D01*
X154785001Y-84200000D01*
X154717633Y-83861325D01*
X154672255Y-83793412D01*
X154525790Y-83574210D01*
X154525787Y-83574208D01*
X153390806Y-82439227D01*
X154608893Y-82779052D01*
M02*
