%TF.GenerationSoftware,KiCad,Pcbnew,4.0.5+dfsg1-4*%
%TF.CreationDate,2020-02-08T14:12:35-08:00*%
%TF.ProjectId,SpangSimple,5370616E6753696D706C652E6B696361,rev?*%
%TF.FileFunction,Soldermask,Top*%
%FSLAX46Y46*%
G04 Gerber Fmt 4.6, Leading zero omitted, Abs format (unit mm)*
G04 Created by KiCad (PCBNEW 4.0.5+dfsg1-4) date Sat Feb  8 14:12:35 2020*
%MOMM*%
%LPD*%
G01*
G04 APERTURE LIST*
%ADD10C,0.100000*%
%ADD11C,0.010000*%
%ADD12R,2.400000X1.598880*%
G04 APERTURE END LIST*
D10*
D11*
G36*
X141325600Y-84203260D02*
X141303202Y-84244662D01*
X141243911Y-84336962D01*
X141159577Y-84461833D01*
X141140850Y-84488955D01*
X141044096Y-84631603D01*
X140961621Y-84758585D01*
X140909930Y-84844428D01*
X140907137Y-84849678D01*
X140853204Y-84997696D01*
X140809561Y-85201791D01*
X140780959Y-85433553D01*
X140772075Y-85657395D01*
X140788468Y-85850110D01*
X140840472Y-86020876D01*
X140937631Y-86186317D01*
X141089487Y-86363059D01*
X141282975Y-86547478D01*
X141402745Y-86650056D01*
X141525921Y-86742366D01*
X141667155Y-86833149D01*
X141841103Y-86931150D01*
X142062418Y-87045111D01*
X142345753Y-87183774D01*
X142365026Y-87193061D01*
X142602638Y-87306754D01*
X142814496Y-87406738D01*
X142988737Y-87487530D01*
X143113504Y-87543645D01*
X143176935Y-87569600D01*
X143181809Y-87570734D01*
X143221180Y-87602546D01*
X143288036Y-87681891D01*
X143364792Y-87784630D01*
X143433860Y-87886623D01*
X143477652Y-87963733D01*
X143484600Y-87986313D01*
X143456358Y-88030022D01*
X143382468Y-88113150D01*
X143283517Y-88213172D01*
X143177337Y-88308435D01*
X143072435Y-88380189D01*
X142945095Y-88440713D01*
X142771605Y-88502289D01*
X142653973Y-88539201D01*
X142265280Y-88637119D01*
X141842637Y-88706728D01*
X141722640Y-88720077D01*
X141497558Y-88740521D01*
X141333532Y-88749432D01*
X141207642Y-88746081D01*
X141096968Y-88729739D01*
X140978590Y-88699675D01*
X140965767Y-88695979D01*
X140827261Y-88648894D01*
X140715143Y-88588982D01*
X140603712Y-88498745D01*
X140467266Y-88360683D01*
X140456691Y-88349393D01*
X140333476Y-88219461D01*
X140250309Y-88141837D01*
X140189890Y-88106546D01*
X140134916Y-88103612D01*
X140068085Y-88123059D01*
X140065620Y-88123917D01*
X139937877Y-88208333D01*
X139870840Y-88349399D01*
X139865360Y-88543887D01*
X139905234Y-88733600D01*
X139947257Y-88899339D01*
X139952779Y-89008076D01*
X139916674Y-89081443D01*
X139833813Y-89141078D01*
X139805021Y-89156464D01*
X139713002Y-89197680D01*
X139565061Y-89256814D01*
X139377441Y-89328074D01*
X139166384Y-89405669D01*
X138948132Y-89483807D01*
X138738930Y-89556696D01*
X138555018Y-89618546D01*
X138412639Y-89663563D01*
X138328037Y-89685957D01*
X138316025Y-89687400D01*
X138290900Y-89677892D01*
X138271452Y-89641978D01*
X138256246Y-89568571D01*
X138243844Y-89446586D01*
X138232813Y-89264937D01*
X138221716Y-89012538D01*
X138218720Y-88935984D01*
X138189788Y-88184567D01*
X138335888Y-87753140D01*
X138554438Y-87212311D01*
X138844743Y-86660459D01*
X139197772Y-86111913D01*
X139604498Y-85581000D01*
X139949767Y-85191982D01*
X140148591Y-84990353D01*
X140330603Y-84828072D01*
X140524576Y-84682042D01*
X140759282Y-84529169D01*
X140828184Y-84486877D01*
X141008117Y-84378679D01*
X141159058Y-84290390D01*
X141268026Y-84229412D01*
X141322041Y-84203145D01*
X141325600Y-84203260D01*
X141325600Y-84203260D01*
G37*
X141325600Y-84203260D02*
X141303202Y-84244662D01*
X141243911Y-84336962D01*
X141159577Y-84461833D01*
X141140850Y-84488955D01*
X141044096Y-84631603D01*
X140961621Y-84758585D01*
X140909930Y-84844428D01*
X140907137Y-84849678D01*
X140853204Y-84997696D01*
X140809561Y-85201791D01*
X140780959Y-85433553D01*
X140772075Y-85657395D01*
X140788468Y-85850110D01*
X140840472Y-86020876D01*
X140937631Y-86186317D01*
X141089487Y-86363059D01*
X141282975Y-86547478D01*
X141402745Y-86650056D01*
X141525921Y-86742366D01*
X141667155Y-86833149D01*
X141841103Y-86931150D01*
X142062418Y-87045111D01*
X142345753Y-87183774D01*
X142365026Y-87193061D01*
X142602638Y-87306754D01*
X142814496Y-87406738D01*
X142988737Y-87487530D01*
X143113504Y-87543645D01*
X143176935Y-87569600D01*
X143181809Y-87570734D01*
X143221180Y-87602546D01*
X143288036Y-87681891D01*
X143364792Y-87784630D01*
X143433860Y-87886623D01*
X143477652Y-87963733D01*
X143484600Y-87986313D01*
X143456358Y-88030022D01*
X143382468Y-88113150D01*
X143283517Y-88213172D01*
X143177337Y-88308435D01*
X143072435Y-88380189D01*
X142945095Y-88440713D01*
X142771605Y-88502289D01*
X142653973Y-88539201D01*
X142265280Y-88637119D01*
X141842637Y-88706728D01*
X141722640Y-88720077D01*
X141497558Y-88740521D01*
X141333532Y-88749432D01*
X141207642Y-88746081D01*
X141096968Y-88729739D01*
X140978590Y-88699675D01*
X140965767Y-88695979D01*
X140827261Y-88648894D01*
X140715143Y-88588982D01*
X140603712Y-88498745D01*
X140467266Y-88360683D01*
X140456691Y-88349393D01*
X140333476Y-88219461D01*
X140250309Y-88141837D01*
X140189890Y-88106546D01*
X140134916Y-88103612D01*
X140068085Y-88123059D01*
X140065620Y-88123917D01*
X139937877Y-88208333D01*
X139870840Y-88349399D01*
X139865360Y-88543887D01*
X139905234Y-88733600D01*
X139947257Y-88899339D01*
X139952779Y-89008076D01*
X139916674Y-89081443D01*
X139833813Y-89141078D01*
X139805021Y-89156464D01*
X139713002Y-89197680D01*
X139565061Y-89256814D01*
X139377441Y-89328074D01*
X139166384Y-89405669D01*
X138948132Y-89483807D01*
X138738930Y-89556696D01*
X138555018Y-89618546D01*
X138412639Y-89663563D01*
X138328037Y-89685957D01*
X138316025Y-89687400D01*
X138290900Y-89677892D01*
X138271452Y-89641978D01*
X138256246Y-89568571D01*
X138243844Y-89446586D01*
X138232813Y-89264937D01*
X138221716Y-89012538D01*
X138218720Y-88935984D01*
X138189788Y-88184567D01*
X138335888Y-87753140D01*
X138554438Y-87212311D01*
X138844743Y-86660459D01*
X139197772Y-86111913D01*
X139604498Y-85581000D01*
X139949767Y-85191982D01*
X140148591Y-84990353D01*
X140330603Y-84828072D01*
X140524576Y-84682042D01*
X140759282Y-84529169D01*
X140828184Y-84486877D01*
X141008117Y-84378679D01*
X141159058Y-84290390D01*
X141268026Y-84229412D01*
X141322041Y-84203145D01*
X141325600Y-84203260D01*
G36*
X144375386Y-83037170D02*
X144621715Y-83057824D01*
X144911019Y-83097743D01*
X145255002Y-83157194D01*
X145665367Y-83236443D01*
X145828917Y-83269326D01*
X146169749Y-83338810D01*
X146443079Y-83396461D01*
X146664480Y-83446792D01*
X146849523Y-83494318D01*
X147013780Y-83543552D01*
X147172823Y-83599009D01*
X147342225Y-83665203D01*
X147537556Y-83746647D01*
X147669139Y-83802769D01*
X147898724Y-83902116D01*
X148087739Y-83987958D01*
X148251849Y-84069539D01*
X148406716Y-84156106D01*
X148568007Y-84256903D01*
X148751384Y-84381175D01*
X148972512Y-84538167D01*
X149224802Y-84720934D01*
X149735255Y-85105068D01*
X150171905Y-85461864D01*
X150539395Y-85795832D01*
X150842372Y-86111482D01*
X151085479Y-86413325D01*
X151273362Y-86705870D01*
X151278398Y-86714917D01*
X151409583Y-86965232D01*
X151494317Y-87170942D01*
X151535746Y-87356061D01*
X151537014Y-87544602D01*
X151501269Y-87760581D01*
X151444449Y-87982537D01*
X151389411Y-88169437D01*
X151336854Y-88329242D01*
X151293647Y-88442043D01*
X151271435Y-88483910D01*
X151200248Y-88516461D01*
X151065512Y-88535301D01*
X150887196Y-88540615D01*
X150685271Y-88532593D01*
X150479705Y-88511420D01*
X150290467Y-88477286D01*
X150279100Y-88474597D01*
X150165227Y-88455275D01*
X149981997Y-88433873D01*
X149744653Y-88411729D01*
X149468435Y-88390181D01*
X149168585Y-88370567D01*
X148966767Y-88359413D01*
X148623474Y-88343334D01*
X148314687Y-88332611D01*
X148021130Y-88327280D01*
X147723526Y-88327378D01*
X147402596Y-88332941D01*
X147039063Y-88344005D01*
X146613651Y-88360609D01*
X146532600Y-88364035D01*
X146172315Y-88378993D01*
X145815225Y-88393066D01*
X145476506Y-88405712D01*
X145171338Y-88416387D01*
X144914899Y-88424548D01*
X144722368Y-88429652D01*
X144671364Y-88430641D01*
X144185961Y-88438567D01*
X144184530Y-88036400D01*
X144181685Y-87842406D01*
X144171629Y-87709545D01*
X144149603Y-87614318D01*
X144110846Y-87533227D01*
X144069871Y-87470347D01*
X143971819Y-87364926D01*
X143809093Y-87240741D01*
X143578428Y-87095836D01*
X143276559Y-86928254D01*
X142900222Y-86736041D01*
X142602824Y-86591565D01*
X142258281Y-86414653D01*
X141989338Y-86247675D01*
X141788461Y-86084537D01*
X141648115Y-85919144D01*
X141562460Y-85750165D01*
X141510457Y-85492631D01*
X141539084Y-85246148D01*
X141644363Y-85018641D01*
X141822315Y-84818039D01*
X142068962Y-84652268D01*
X142128162Y-84623067D01*
X142373738Y-84535031D01*
X142656653Y-84485535D01*
X142987047Y-84474129D01*
X143375055Y-84500363D01*
X143751813Y-84550982D01*
X143980342Y-84584336D01*
X144186144Y-84609297D01*
X144351481Y-84624090D01*
X144458617Y-84626936D01*
X144482063Y-84624124D01*
X144566074Y-84573388D01*
X144581531Y-84487072D01*
X144531920Y-84374077D01*
X144420729Y-84243304D01*
X144288934Y-84131223D01*
X144214113Y-84076915D01*
X144144599Y-84036467D01*
X144064656Y-84005958D01*
X143958543Y-83981469D01*
X143810523Y-83959078D01*
X143604856Y-83934866D01*
X143421100Y-83915047D01*
X143158833Y-83888812D01*
X142896252Y-83865514D01*
X142658164Y-83847158D01*
X142469378Y-83835749D01*
X142412882Y-83833570D01*
X142081997Y-83824234D01*
X142497549Y-83604664D01*
X142724497Y-83492187D01*
X142990163Y-83371777D01*
X143252836Y-83261948D01*
X143378767Y-83213551D01*
X143585764Y-83141876D01*
X143777222Y-83088134D01*
X143964842Y-83052591D01*
X144160329Y-83035514D01*
X144375386Y-83037170D01*
X144375386Y-83037170D01*
G37*
X144375386Y-83037170D02*
X144621715Y-83057824D01*
X144911019Y-83097743D01*
X145255002Y-83157194D01*
X145665367Y-83236443D01*
X145828917Y-83269326D01*
X146169749Y-83338810D01*
X146443079Y-83396461D01*
X146664480Y-83446792D01*
X146849523Y-83494318D01*
X147013780Y-83543552D01*
X147172823Y-83599009D01*
X147342225Y-83665203D01*
X147537556Y-83746647D01*
X147669139Y-83802769D01*
X147898724Y-83902116D01*
X148087739Y-83987958D01*
X148251849Y-84069539D01*
X148406716Y-84156106D01*
X148568007Y-84256903D01*
X148751384Y-84381175D01*
X148972512Y-84538167D01*
X149224802Y-84720934D01*
X149735255Y-85105068D01*
X150171905Y-85461864D01*
X150539395Y-85795832D01*
X150842372Y-86111482D01*
X151085479Y-86413325D01*
X151273362Y-86705870D01*
X151278398Y-86714917D01*
X151409583Y-86965232D01*
X151494317Y-87170942D01*
X151535746Y-87356061D01*
X151537014Y-87544602D01*
X151501269Y-87760581D01*
X151444449Y-87982537D01*
X151389411Y-88169437D01*
X151336854Y-88329242D01*
X151293647Y-88442043D01*
X151271435Y-88483910D01*
X151200248Y-88516461D01*
X151065512Y-88535301D01*
X150887196Y-88540615D01*
X150685271Y-88532593D01*
X150479705Y-88511420D01*
X150290467Y-88477286D01*
X150279100Y-88474597D01*
X150165227Y-88455275D01*
X149981997Y-88433873D01*
X149744653Y-88411729D01*
X149468435Y-88390181D01*
X149168585Y-88370567D01*
X148966767Y-88359413D01*
X148623474Y-88343334D01*
X148314687Y-88332611D01*
X148021130Y-88327280D01*
X147723526Y-88327378D01*
X147402596Y-88332941D01*
X147039063Y-88344005D01*
X146613651Y-88360609D01*
X146532600Y-88364035D01*
X146172315Y-88378993D01*
X145815225Y-88393066D01*
X145476506Y-88405712D01*
X145171338Y-88416387D01*
X144914899Y-88424548D01*
X144722368Y-88429652D01*
X144671364Y-88430641D01*
X144185961Y-88438567D01*
X144184530Y-88036400D01*
X144181685Y-87842406D01*
X144171629Y-87709545D01*
X144149603Y-87614318D01*
X144110846Y-87533227D01*
X144069871Y-87470347D01*
X143971819Y-87364926D01*
X143809093Y-87240741D01*
X143578428Y-87095836D01*
X143276559Y-86928254D01*
X142900222Y-86736041D01*
X142602824Y-86591565D01*
X142258281Y-86414653D01*
X141989338Y-86247675D01*
X141788461Y-86084537D01*
X141648115Y-85919144D01*
X141562460Y-85750165D01*
X141510457Y-85492631D01*
X141539084Y-85246148D01*
X141644363Y-85018641D01*
X141822315Y-84818039D01*
X142068962Y-84652268D01*
X142128162Y-84623067D01*
X142373738Y-84535031D01*
X142656653Y-84485535D01*
X142987047Y-84474129D01*
X143375055Y-84500363D01*
X143751813Y-84550982D01*
X143980342Y-84584336D01*
X144186144Y-84609297D01*
X144351481Y-84624090D01*
X144458617Y-84626936D01*
X144482063Y-84624124D01*
X144566074Y-84573388D01*
X144581531Y-84487072D01*
X144531920Y-84374077D01*
X144420729Y-84243304D01*
X144288934Y-84131223D01*
X144214113Y-84076915D01*
X144144599Y-84036467D01*
X144064656Y-84005958D01*
X143958543Y-83981469D01*
X143810523Y-83959078D01*
X143604856Y-83934866D01*
X143421100Y-83915047D01*
X143158833Y-83888812D01*
X142896252Y-83865514D01*
X142658164Y-83847158D01*
X142469378Y-83835749D01*
X142412882Y-83833570D01*
X142081997Y-83824234D01*
X142497549Y-83604664D01*
X142724497Y-83492187D01*
X142990163Y-83371777D01*
X143252836Y-83261948D01*
X143378767Y-83213551D01*
X143585764Y-83141876D01*
X143777222Y-83088134D01*
X143964842Y-83052591D01*
X144160329Y-83035514D01*
X144375386Y-83037170D01*
D12*
X153848000Y-106172000D03*
X157148000Y-106172000D03*
X154356000Y-107848400D03*
X157656000Y-107848400D03*
X154991000Y-109575600D03*
X158291000Y-109575600D03*
X155372000Y-111252000D03*
X158672000Y-111252000D03*
X155626000Y-113030000D03*
X158926000Y-113030000D03*
M02*
