%TF.GenerationSoftware,KiCad,Pcbnew,4.0.5+dfsg1-4*%
%TF.CreationDate,2020-02-08T14:12:35-08:00*%
%TF.ProjectId,SpangSimple,5370616E6753696D706C652E6B696361,rev?*%
%TF.FileFunction,Legend,Bot*%
%FSLAX46Y46*%
G04 Gerber Fmt 4.6, Leading zero omitted, Abs format (unit mm)*
G04 Created by KiCad (PCBNEW 4.0.5+dfsg1-4) date Sat Feb  8 14:12:35 2020*
%MOMM*%
%LPD*%
G01*
G04 APERTURE LIST*
%ADD10C,0.100000*%
%ADD11C,0.200000*%
%ADD12C,0.300000*%
%ADD13C,0.187500*%
%ADD14C,0.150000*%
G04 APERTURE END LIST*
D10*
D11*
X164980449Y-95200000D02*
G75*
G03X164980449Y-95200000I-1780449J0D01*
G01*
D12*
X162519163Y-95023223D02*
X162418147Y-95023223D01*
X162216117Y-95124239D01*
X162115101Y-95225254D01*
X162014086Y-95427284D01*
X162014086Y-95629315D01*
X162064593Y-95780837D01*
X162216117Y-96033376D01*
X162367639Y-96184899D01*
X162620178Y-96336422D01*
X162771700Y-96386930D01*
X162973731Y-96386929D01*
X163175762Y-96285914D01*
X163276777Y-96184899D01*
X163377792Y-95982868D01*
X163377792Y-95881852D01*
X163579823Y-93962563D02*
X163478807Y-93962563D01*
X163276777Y-94063579D01*
X163175762Y-94164594D01*
X163074746Y-94366624D01*
X163074746Y-94568655D01*
X163125254Y-94720177D01*
X163276777Y-94972716D01*
X163428299Y-95124238D01*
X163680838Y-95275762D01*
X163832360Y-95326269D01*
X164034391Y-95326269D01*
X164236422Y-95225254D01*
X164337437Y-95124239D01*
X164438452Y-94922208D01*
X164438452Y-94821192D01*
D13*
X160578823Y-91730568D02*
X161008138Y-91654807D01*
X160881870Y-92033614D02*
X161412200Y-91503284D01*
X161210169Y-91301253D01*
X161134408Y-91276000D01*
X161083900Y-91275999D01*
X161008138Y-91301253D01*
X160932377Y-91377015D01*
X160907123Y-91452776D01*
X160907123Y-91503284D01*
X160932377Y-91579045D01*
X161134408Y-91781076D01*
X160629331Y-91225493D02*
X160452555Y-91048716D01*
X160099001Y-91250746D02*
X160351540Y-91503284D01*
X160881870Y-90972954D01*
X160629331Y-90720416D01*
X159871717Y-91023462D02*
X160402047Y-90493132D01*
X159846464Y-90695162D01*
X160048494Y-90139579D01*
X159518164Y-90669909D01*
X159694940Y-89786025D02*
X159593925Y-89685010D01*
X159518164Y-89659756D01*
X159417148Y-89659756D01*
X159290879Y-89735517D01*
X159114103Y-89912294D01*
X159038341Y-90038563D01*
X159038342Y-90139578D01*
X159063595Y-90215340D01*
X159164610Y-90316355D01*
X159240372Y-90341608D01*
X159341387Y-90341609D01*
X159467656Y-90265848D01*
X159644433Y-90089071D01*
X159720194Y-89962802D01*
X159720194Y-89861786D01*
X159694940Y-89786025D01*
X159316133Y-89407218D02*
X158609026Y-89760771D01*
X158962580Y-89053664D01*
X158533265Y-89129427D02*
X158356489Y-88952650D01*
X158002935Y-89154680D02*
X158255474Y-89407218D01*
X158785804Y-88876888D01*
X158533265Y-88624350D01*
X157472605Y-88068766D02*
X157371590Y-88018258D01*
X157321082Y-88018258D01*
X157245321Y-88043512D01*
X157169559Y-88119274D01*
X157144305Y-88195034D01*
X157144306Y-88245542D01*
X157169559Y-88321304D01*
X157371590Y-88523335D01*
X157901920Y-87993005D01*
X157725143Y-87816228D01*
X157649382Y-87790974D01*
X157598875Y-87790974D01*
X157523112Y-87816227D01*
X157472605Y-87866735D01*
X157447352Y-87942497D01*
X157447352Y-87993004D01*
X157472605Y-88068766D01*
X157649382Y-88245543D01*
X157018037Y-87866735D02*
X156765498Y-87614197D01*
X156917021Y-88068766D02*
X157270574Y-87361659D01*
X156563467Y-87715212D01*
X156992782Y-87083867D02*
X156689737Y-86780822D01*
X156310930Y-87462675D02*
X156841260Y-86932345D01*
X156588721Y-86679806D02*
X156285676Y-86376760D01*
X155906869Y-87058613D02*
X156437199Y-86528283D01*
X155856361Y-86452522D02*
X155679584Y-86275745D01*
X155326031Y-86477775D02*
X155578569Y-86730314D01*
X156108899Y-86199984D01*
X155856361Y-85947445D01*
X154795700Y-85947445D02*
X155225015Y-85871684D01*
X155098747Y-86250491D02*
X155629077Y-85720161D01*
X155427046Y-85518130D01*
X155351285Y-85492877D01*
X155300777Y-85492876D01*
X155225015Y-85518130D01*
X155149254Y-85593892D01*
X155124000Y-85669653D01*
X155124000Y-85720161D01*
X155149254Y-85795922D01*
X155351285Y-85997953D01*
X154719939Y-85366607D02*
X154467401Y-85619146D01*
X155174507Y-85265592D02*
X154719939Y-85366607D01*
X154820954Y-84912039D01*
X160787167Y-92734408D02*
X160130568Y-93138469D01*
X160408361Y-92658646D01*
X159928537Y-92936438D01*
X160332599Y-92279839D01*
X159600238Y-92608139D02*
X160130568Y-92077809D01*
X159878030Y-92330347D02*
X159574984Y-92027301D01*
X159297192Y-92305093D02*
X159827522Y-91774763D01*
X159322446Y-91774764D02*
X159145670Y-91597987D01*
X158792116Y-91800017D02*
X159044655Y-92052555D01*
X159574985Y-91522225D01*
X159322446Y-91269687D01*
X158564832Y-91572733D02*
X159095162Y-91042403D01*
X158261786Y-91269687D01*
X158792116Y-90739357D01*
X157605187Y-90613088D02*
X158135517Y-90082758D01*
X157302141Y-90310042D01*
X157832471Y-89779712D01*
X157478918Y-89426159D02*
X157377903Y-89325143D01*
X157302142Y-89299890D01*
X157201126Y-89299890D01*
X157074857Y-89375651D01*
X156898081Y-89552428D01*
X156822319Y-89678697D01*
X156822320Y-89779712D01*
X156847573Y-89855474D01*
X156948588Y-89956489D01*
X157024350Y-89981742D01*
X157125365Y-89981743D01*
X157251634Y-89905981D01*
X157428411Y-89729205D01*
X157504172Y-89602936D01*
X157504172Y-89501920D01*
X157478918Y-89426159D01*
X157100111Y-89047352D02*
X156797065Y-88744306D01*
X156418258Y-89426159D02*
X156948589Y-88895829D01*
X155685897Y-88693798D02*
X156216227Y-88163468D01*
X155433359Y-88441260D02*
X155963689Y-87910930D01*
X155130313Y-88138214D01*
X155660643Y-87607884D01*
X155004044Y-86951285D02*
X154574729Y-87380600D01*
X154498968Y-87405853D01*
X154448460Y-87405853D01*
X154372698Y-87380599D01*
X154271683Y-87279584D01*
X154246430Y-87203822D01*
X154246429Y-87153314D01*
X154271683Y-87077554D01*
X154700998Y-86648239D01*
X153968638Y-86926031D02*
X153867622Y-86875523D01*
X153741354Y-86749255D01*
X153716100Y-86673492D01*
X153716100Y-86622985D01*
X153741353Y-86547224D01*
X153791861Y-86496716D01*
X153867623Y-86471462D01*
X153918130Y-86471462D01*
X153993892Y-86496716D01*
X154120161Y-86572478D01*
X154195922Y-86597731D01*
X154246430Y-86597731D01*
X154322192Y-86572477D01*
X154372699Y-86521970D01*
X154397953Y-86446208D01*
X154397953Y-86395700D01*
X154372699Y-86319940D01*
X154246429Y-86193670D01*
X154145414Y-86143162D01*
X153690846Y-86143163D02*
X153514069Y-85966386D01*
X153160516Y-86168417D02*
X153413054Y-86420955D01*
X153943384Y-85890625D01*
X153690846Y-85638086D01*
X166485120Y-96237531D02*
X166535627Y-96237531D01*
X166636643Y-96187024D01*
X166687151Y-96136516D01*
X166737658Y-96035500D01*
X166737658Y-95934486D01*
X166712404Y-95858724D01*
X166636643Y-95732455D01*
X166560881Y-95656693D01*
X166434612Y-95580932D01*
X166358851Y-95555679D01*
X166257836Y-95555678D01*
X166156821Y-95606186D01*
X166106313Y-95656694D01*
X166055805Y-95757709D01*
X166055805Y-95808216D01*
X165954790Y-96767861D02*
X166005297Y-96767861D01*
X166106313Y-96717354D01*
X166156821Y-96666846D01*
X166207328Y-96565830D01*
X166207328Y-96464816D01*
X166182074Y-96389054D01*
X166106313Y-96262785D01*
X166030551Y-96187023D01*
X165904282Y-96111262D01*
X165828521Y-96086009D01*
X165727506Y-96086008D01*
X165626491Y-96136516D01*
X165575983Y-96187024D01*
X165525475Y-96288039D01*
X165525475Y-96338546D01*
X165247683Y-97272938D02*
X164995145Y-97525476D01*
X165449713Y-97373954D02*
X164742606Y-97020400D01*
X165096160Y-97727507D01*
X164641591Y-97474969D02*
X164439561Y-97676999D01*
X164389054Y-97373953D02*
X164843622Y-97828522D01*
X164868875Y-97904283D01*
X164843622Y-97980045D01*
X164793114Y-98030553D01*
X164338546Y-97778014D02*
X164136515Y-97980045D01*
X164086008Y-97676998D02*
X164540577Y-98131567D01*
X164565830Y-98207329D01*
X164540577Y-98283090D01*
X164490069Y-98333598D01*
X164313293Y-98510374D02*
X163959739Y-98156821D01*
X164060755Y-98257836D02*
X163984992Y-98232582D01*
X163934485Y-98232582D01*
X163858724Y-98257836D01*
X163808216Y-98308344D01*
X163934485Y-98788166D02*
X163934484Y-98838674D01*
X163984993Y-98838674D01*
X163984992Y-98788166D01*
X163934485Y-98788166D01*
X163984993Y-98838674D01*
X168271828Y-96357487D02*
X168221320Y-96458503D01*
X168095052Y-96584771D01*
X168019289Y-96610025D01*
X167968782Y-96610025D01*
X167893021Y-96584772D01*
X167842513Y-96534264D01*
X167817259Y-96458502D01*
X167817259Y-96407995D01*
X167842513Y-96332233D01*
X167918275Y-96205964D01*
X167943528Y-96130203D01*
X167943528Y-96079695D01*
X167918274Y-96003933D01*
X167867767Y-95953426D01*
X167792005Y-95928172D01*
X167741497Y-95928172D01*
X167665737Y-95953426D01*
X167539467Y-96079696D01*
X167488959Y-96180711D01*
X167766752Y-96913071D02*
X167236422Y-96382741D01*
X167539467Y-97140356D02*
X167261675Y-96862564D01*
X167236421Y-96786802D01*
X167261675Y-96711041D01*
X167337437Y-96635279D01*
X167413198Y-96610026D01*
X167463706Y-96610025D01*
X167059645Y-97620178D02*
X166781853Y-97342386D01*
X166756599Y-97266624D01*
X166781853Y-97190863D01*
X166882868Y-97089848D01*
X166958630Y-97064593D01*
X167034391Y-97594924D02*
X167110153Y-97569670D01*
X167236422Y-97443401D01*
X167261675Y-97367639D01*
X167236422Y-97291878D01*
X167185914Y-97241370D01*
X167110153Y-97216117D01*
X167034391Y-97241370D01*
X166908122Y-97367639D01*
X166832360Y-97392893D01*
X166807107Y-97872715D02*
X166453554Y-97519162D01*
X166554569Y-97620177D02*
X166478807Y-97594924D01*
X166428300Y-97594924D01*
X166352538Y-97620178D01*
X166302031Y-97670685D01*
X166251522Y-98377792D02*
X166327285Y-98352538D01*
X166428300Y-98251523D01*
X166453553Y-98175761D01*
X166428300Y-98100000D01*
X166226269Y-97897970D01*
X166150508Y-97872715D01*
X166074746Y-97897970D01*
X165973731Y-97998985D01*
X165948477Y-98074746D01*
X165973731Y-98150508D01*
X166024238Y-98201015D01*
X166327285Y-97998985D01*
X165897970Y-98478807D02*
X165645431Y-98731345D01*
X166100000Y-98579823D02*
X165392893Y-98226269D01*
X165746447Y-98933376D01*
X165493909Y-99185914D02*
X165519162Y-99110152D01*
X165493909Y-99034391D01*
X165039341Y-98579822D01*
X165291879Y-99387944D02*
X164938325Y-99034391D01*
X164761549Y-98857614D02*
X164812056Y-98857614D01*
X164812056Y-98908121D01*
X164761548Y-98908122D01*
X164761549Y-98857614D01*
X164812056Y-98908121D01*
X165039341Y-99640482D02*
X164509010Y-99110152D01*
X164786802Y-99488959D02*
X164837310Y-99842513D01*
X164483756Y-99488960D02*
X164887817Y-99488959D01*
X164382740Y-100246574D02*
X164458503Y-100221320D01*
X164559518Y-100120305D01*
X164584771Y-100044543D01*
X164559518Y-99968782D01*
X164357487Y-99766752D01*
X164281726Y-99741497D01*
X164205964Y-99766752D01*
X164104949Y-99867767D01*
X164079695Y-99943528D01*
X164104949Y-100019290D01*
X164155456Y-100069797D01*
X164458503Y-99867767D01*
X168038231Y-97790641D02*
X168391784Y-98144195D01*
X167962469Y-97462341D02*
X168467546Y-97714880D01*
X168139246Y-98043179D01*
X168063485Y-98371478D02*
X168063484Y-98421986D01*
X168113992Y-98421986D01*
X168113992Y-98371478D01*
X168063485Y-98371478D01*
X168113992Y-98421986D01*
X167230108Y-98245210D02*
X167179601Y-98295718D01*
X167154347Y-98371479D01*
X167154347Y-98421986D01*
X167179601Y-98497748D01*
X167255362Y-98624017D01*
X167381631Y-98750286D01*
X167507901Y-98826048D01*
X167583662Y-98851301D01*
X167634169Y-98851301D01*
X167709931Y-98826048D01*
X167760438Y-98775540D01*
X167785692Y-98699778D01*
X167785692Y-98649271D01*
X167760439Y-98573509D01*
X167684677Y-98447240D01*
X167558408Y-98320971D01*
X167432139Y-98245210D01*
X167356377Y-98219956D01*
X167305870Y-98219956D01*
X167230108Y-98245210D01*
X166952316Y-99583662D02*
X166421986Y-99053332D01*
X166346225Y-99482647D02*
X166699778Y-99836201D01*
X166396732Y-99533154D02*
X166346224Y-99533155D01*
X166270463Y-99558409D01*
X166194702Y-99634170D01*
X166169447Y-99709932D01*
X166194702Y-99785693D01*
X166472494Y-100063485D01*
X165942164Y-99886709D02*
X165740133Y-100088739D01*
X165689626Y-99785693D02*
X166144195Y-100240261D01*
X166169447Y-100316023D01*
X166144195Y-100391784D01*
X166093687Y-100442292D01*
X165866403Y-100568560D02*
X165866402Y-100619068D01*
X165916911Y-100619068D01*
X165916910Y-100568560D01*
X165866403Y-100568560D01*
X165916911Y-100619068D01*
D12*
X137771428Y-113007143D02*
X136628571Y-113007143D01*
X137200000Y-113578571D02*
X137200000Y-112435714D01*
X151471428Y-84407143D02*
X150328571Y-84407143D01*
X150900000Y-84978571D02*
X150900000Y-83835714D01*
X145671428Y-82507143D02*
X144528571Y-82507143D01*
X140171428Y-90507143D02*
X139028571Y-90507143D01*
X139600000Y-91078571D02*
X139600000Y-89935714D01*
X145971428Y-90007143D02*
X144828571Y-90007143D01*
D11*
X140912381Y-93992381D02*
X140912381Y-92992381D01*
X140483809Y-93992381D02*
X140483809Y-93468571D01*
X140531428Y-93373333D01*
X140626666Y-93325714D01*
X140769524Y-93325714D01*
X140864762Y-93373333D01*
X140912381Y-93420952D01*
X140007619Y-93992381D02*
X140007619Y-93325714D01*
X140007619Y-92992381D02*
X140055238Y-93040000D01*
X140007619Y-93087619D01*
X139960000Y-93040000D01*
X140007619Y-92992381D01*
X140007619Y-93087619D01*
X138340952Y-93944762D02*
X138436190Y-93992381D01*
X138626667Y-93992381D01*
X138721905Y-93944762D01*
X138769524Y-93897143D01*
X138817143Y-93801905D01*
X138817143Y-93516190D01*
X138769524Y-93420952D01*
X138721905Y-93373333D01*
X138626667Y-93325714D01*
X138436190Y-93325714D01*
X138340952Y-93373333D01*
X137912381Y-93992381D02*
X137912381Y-92992381D01*
X137483809Y-93992381D02*
X137483809Y-93468571D01*
X137531428Y-93373333D01*
X137626666Y-93325714D01*
X137769524Y-93325714D01*
X137864762Y-93373333D01*
X137912381Y-93420952D01*
X136579047Y-93992381D02*
X136579047Y-93468571D01*
X136626666Y-93373333D01*
X136721904Y-93325714D01*
X136912381Y-93325714D01*
X137007619Y-93373333D01*
X136579047Y-93944762D02*
X136674285Y-93992381D01*
X136912381Y-93992381D01*
X137007619Y-93944762D01*
X137055238Y-93849524D01*
X137055238Y-93754286D01*
X137007619Y-93659048D01*
X136912381Y-93611429D01*
X136674285Y-93611429D01*
X136579047Y-93563810D01*
X136245714Y-93325714D02*
X135864762Y-93325714D01*
X136102857Y-92992381D02*
X136102857Y-93849524D01*
X136055238Y-93944762D01*
X135960000Y-93992381D01*
X135864762Y-93992381D01*
D12*
X145310001Y-110332143D02*
X145167144Y-110403571D01*
X144881429Y-110403571D01*
X144738572Y-110332143D01*
X144667144Y-110189286D01*
X144667144Y-110117857D01*
X144738572Y-109975000D01*
X144881429Y-109903571D01*
X145095715Y-109903571D01*
X145238572Y-109832143D01*
X145310001Y-109689286D01*
X145310001Y-109617857D01*
X145238572Y-109475000D01*
X145095715Y-109403571D01*
X144881429Y-109403571D01*
X144738572Y-109475000D01*
X144024286Y-110403571D02*
X144024286Y-109403571D01*
X144024286Y-108903571D02*
X144095715Y-108975000D01*
X144024286Y-109046429D01*
X143952858Y-108975000D01*
X144024286Y-108903571D01*
X144024286Y-109046429D01*
X143310000Y-109403571D02*
X143310000Y-110403571D01*
X143310000Y-109546429D02*
X143238572Y-109475000D01*
X143095714Y-109403571D01*
X142881429Y-109403571D01*
X142738572Y-109475000D01*
X142667143Y-109617857D01*
X142667143Y-110403571D01*
X141310000Y-110332143D02*
X141452857Y-110403571D01*
X141738571Y-110403571D01*
X141881429Y-110332143D01*
X141952857Y-110260714D01*
X142024286Y-110117857D01*
X142024286Y-109689286D01*
X141952857Y-109546429D01*
X141881429Y-109475000D01*
X141738571Y-109403571D01*
X141452857Y-109403571D01*
X141310000Y-109475000D01*
X140667143Y-110403571D02*
X140667143Y-109403571D01*
X140667143Y-108903571D02*
X140738572Y-108975000D01*
X140667143Y-109046429D01*
X140595715Y-108975000D01*
X140667143Y-108903571D01*
X140667143Y-109046429D01*
X140167143Y-109403571D02*
X139595714Y-109403571D01*
X139952857Y-108903571D02*
X139952857Y-110189286D01*
X139881429Y-110332143D01*
X139738571Y-110403571D01*
X139595714Y-110403571D01*
X139238571Y-109403571D02*
X138881428Y-110403571D01*
X138524286Y-109403571D02*
X138881428Y-110403571D01*
X139024286Y-110760714D01*
X139095714Y-110832143D01*
X139238571Y-110903571D01*
X146952859Y-112953571D02*
X146952859Y-112167857D01*
X147024288Y-112025000D01*
X147167145Y-111953571D01*
X147452859Y-111953571D01*
X147595716Y-112025000D01*
X146952859Y-112882143D02*
X147095716Y-112953571D01*
X147452859Y-112953571D01*
X147595716Y-112882143D01*
X147667145Y-112739286D01*
X147667145Y-112596429D01*
X147595716Y-112453571D01*
X147452859Y-112382143D01*
X147095716Y-112382143D01*
X146952859Y-112310714D01*
X146310002Y-112882143D02*
X146167145Y-112953571D01*
X145881430Y-112953571D01*
X145738573Y-112882143D01*
X145667145Y-112739286D01*
X145667145Y-112667857D01*
X145738573Y-112525000D01*
X145881430Y-112453571D01*
X146095716Y-112453571D01*
X146238573Y-112382143D01*
X146310002Y-112239286D01*
X146310002Y-112167857D01*
X146238573Y-112025000D01*
X146095716Y-111953571D01*
X145881430Y-111953571D01*
X145738573Y-112025000D01*
X145095716Y-112882143D02*
X144952859Y-112953571D01*
X144667144Y-112953571D01*
X144524287Y-112882143D01*
X144452859Y-112739286D01*
X144452859Y-112667857D01*
X144524287Y-112525000D01*
X144667144Y-112453571D01*
X144881430Y-112453571D01*
X145024287Y-112382143D01*
X145095716Y-112239286D01*
X145095716Y-112167857D01*
X145024287Y-112025000D01*
X144881430Y-111953571D01*
X144667144Y-111953571D01*
X144524287Y-112025000D01*
X143167144Y-112953571D02*
X143167144Y-112167857D01*
X143238573Y-112025000D01*
X143381430Y-111953571D01*
X143667144Y-111953571D01*
X143810001Y-112025000D01*
X143167144Y-112882143D02*
X143310001Y-112953571D01*
X143667144Y-112953571D01*
X143810001Y-112882143D01*
X143881430Y-112739286D01*
X143881430Y-112596429D01*
X143810001Y-112453571D01*
X143667144Y-112382143D01*
X143310001Y-112382143D01*
X143167144Y-112310714D01*
X142524287Y-112882143D02*
X142381430Y-112953571D01*
X142095715Y-112953571D01*
X141952858Y-112882143D01*
X141881430Y-112739286D01*
X141881430Y-112667857D01*
X141952858Y-112525000D01*
X142095715Y-112453571D01*
X142310001Y-112453571D01*
X142452858Y-112382143D01*
X142524287Y-112239286D01*
X142524287Y-112167857D01*
X142452858Y-112025000D01*
X142310001Y-111953571D01*
X142095715Y-111953571D01*
X141952858Y-112025000D01*
X141310001Y-112882143D02*
X141167144Y-112953571D01*
X140881429Y-112953571D01*
X140738572Y-112882143D01*
X140667144Y-112739286D01*
X140667144Y-112667857D01*
X140738572Y-112525000D01*
X140881429Y-112453571D01*
X141095715Y-112453571D01*
X141238572Y-112382143D01*
X141310001Y-112239286D01*
X141310001Y-112167857D01*
X141238572Y-112025000D01*
X141095715Y-111953571D01*
X140881429Y-111953571D01*
X140738572Y-112025000D01*
X140024286Y-112953571D02*
X140024286Y-111953571D01*
X140024286Y-111453571D02*
X140095715Y-111525000D01*
X140024286Y-111596429D01*
X139952858Y-111525000D01*
X140024286Y-111453571D01*
X140024286Y-111596429D01*
X139310000Y-111953571D02*
X139310000Y-112953571D01*
X139310000Y-112096429D02*
X139238572Y-112025000D01*
X139095714Y-111953571D01*
X138881429Y-111953571D01*
X138738572Y-112025000D01*
X138667143Y-112167857D01*
X138667143Y-112953571D01*
X155628571Y-113578571D02*
X155628571Y-114792857D01*
X155700000Y-114935714D01*
X155771428Y-115007143D01*
X155914285Y-115078571D01*
X156128571Y-115078571D01*
X156271428Y-115007143D01*
X155628571Y-114507143D02*
X155771428Y-114578571D01*
X156057142Y-114578571D01*
X156200000Y-114507143D01*
X156271428Y-114435714D01*
X156342857Y-114292857D01*
X156342857Y-113864286D01*
X156271428Y-113721429D01*
X156200000Y-113650000D01*
X156057142Y-113578571D01*
X155771428Y-113578571D01*
X155628571Y-113650000D01*
X154914285Y-114578571D02*
X154914285Y-113578571D01*
X154914285Y-113864286D02*
X154842857Y-113721429D01*
X154771428Y-113650000D01*
X154628571Y-113578571D01*
X154485714Y-113578571D01*
X153342857Y-114578571D02*
X153342857Y-113792857D01*
X153414286Y-113650000D01*
X153557143Y-113578571D01*
X153842857Y-113578571D01*
X153985714Y-113650000D01*
X153342857Y-114507143D02*
X153485714Y-114578571D01*
X153842857Y-114578571D01*
X153985714Y-114507143D01*
X154057143Y-114364286D01*
X154057143Y-114221429D01*
X153985714Y-114078571D01*
X153842857Y-114007143D01*
X153485714Y-114007143D01*
X153342857Y-113935714D01*
X152628571Y-113578571D02*
X152628571Y-114578571D01*
X152628571Y-113721429D02*
X152557143Y-113650000D01*
X152414285Y-113578571D01*
X152200000Y-113578571D01*
X152057143Y-113650000D01*
X151985714Y-113792857D01*
X151985714Y-114578571D01*
X151485714Y-113578571D02*
X150914285Y-113578571D01*
X151271428Y-113078571D02*
X151271428Y-114364286D01*
X151200000Y-114507143D01*
X151057142Y-114578571D01*
X150914285Y-114578571D01*
X149568571Y-116028571D02*
X149568571Y-117314286D01*
X149640000Y-117457143D01*
X149782857Y-117528571D01*
X149854285Y-117528571D01*
X149568571Y-115528571D02*
X149640000Y-115600000D01*
X149568571Y-115671429D01*
X149497143Y-115600000D01*
X149568571Y-115528571D01*
X149568571Y-115671429D01*
X148282857Y-116957143D02*
X148425714Y-117028571D01*
X148711428Y-117028571D01*
X148854285Y-116957143D01*
X148925714Y-116814286D01*
X148925714Y-116242857D01*
X148854285Y-116100000D01*
X148711428Y-116028571D01*
X148425714Y-116028571D01*
X148282857Y-116100000D01*
X148211428Y-116242857D01*
X148211428Y-116385714D01*
X148925714Y-116528571D01*
X147568571Y-117028571D02*
X147568571Y-116028571D01*
X147568571Y-116314286D02*
X147497143Y-116171429D01*
X147425714Y-116100000D01*
X147282857Y-116028571D01*
X147140000Y-116028571D01*
X145997143Y-116028571D02*
X145997143Y-117242857D01*
X146068572Y-117385714D01*
X146140000Y-117457143D01*
X146282857Y-117528571D01*
X146497143Y-117528571D01*
X146640000Y-117457143D01*
X145997143Y-116957143D02*
X146140000Y-117028571D01*
X146425714Y-117028571D01*
X146568572Y-116957143D01*
X146640000Y-116885714D01*
X146711429Y-116742857D01*
X146711429Y-116314286D01*
X146640000Y-116171429D01*
X146568572Y-116100000D01*
X146425714Y-116028571D01*
X146140000Y-116028571D01*
X145997143Y-116100000D01*
X144711429Y-116957143D02*
X144854286Y-117028571D01*
X145140000Y-117028571D01*
X145282857Y-116957143D01*
X145354286Y-116814286D01*
X145354286Y-116242857D01*
X145282857Y-116100000D01*
X145140000Y-116028571D01*
X144854286Y-116028571D01*
X144711429Y-116100000D01*
X144640000Y-116242857D01*
X144640000Y-116385714D01*
X145354286Y-116528571D01*
D14*
X168969546Y-100049017D02*
X168121017Y-100897546D01*
X169358454Y-102134983D02*
X170206983Y-101286454D01*
X138846447Y-113615076D02*
X140331371Y-115100000D01*
X137715076Y-114746447D02*
X139200000Y-116231371D01*
X147354449Y-82206947D02*
X149139865Y-82856785D01*
X146978227Y-83240609D02*
X148763643Y-83890447D01*
X148012061Y-83031596D02*
X148434923Y-83185505D01*
X147879572Y-83249418D02*
X148050582Y-82779572D01*
X147965077Y-83014495D02*
X148114495Y-83334923D01*
X148114495Y-83334923D02*
X148285505Y-82865077D01*
X148285505Y-82865077D02*
X147965077Y-83014495D01*
X143600000Y-90550000D02*
X141700000Y-90550000D01*
X143600000Y-89450000D02*
X141700000Y-89450000D01*
X142700000Y-90000000D02*
X142250000Y-90000000D01*
X142750000Y-89750000D02*
X142750000Y-90250000D01*
X142750000Y-90000000D02*
X142500000Y-89750000D01*
X142500000Y-89750000D02*
X142500000Y-90250000D01*
X142500000Y-90250000D02*
X142750000Y-90000000D01*
X162881675Y-102235000D02*
G75*
G03X162881675Y-102235000I-10049875J0D01*
G01*
X143503744Y-115580850D02*
X144210850Y-114873744D01*
X143256256Y-113919150D02*
X142549150Y-114626256D01*
X166697969Y-103837732D02*
X167270390Y-103736717D01*
X167102030Y-104241794D02*
X167809137Y-103534687D01*
X167539763Y-103265312D01*
X167438747Y-103231641D01*
X167371404Y-103231641D01*
X167270389Y-103265312D01*
X167169374Y-103366328D01*
X167135702Y-103467343D01*
X167135702Y-103534686D01*
X167169374Y-103635701D01*
X167438748Y-103905076D01*
X166024534Y-103164297D02*
X166428595Y-103568359D01*
X166226565Y-103366328D02*
X166933672Y-102659222D01*
X166900000Y-102827580D01*
X166900000Y-102962267D01*
X166933672Y-103063282D01*
X150538859Y-83077542D02*
X150880879Y-82137850D01*
X150657143Y-82056417D01*
X150506614Y-82052303D01*
X150384546Y-82109225D01*
X150307225Y-82182432D01*
X150197332Y-82345135D01*
X150148471Y-82479377D01*
X150128072Y-82674653D01*
X150140246Y-82780434D01*
X150197167Y-82902502D01*
X150315123Y-82996109D01*
X150538859Y-83077542D01*
X150030681Y-81828403D02*
X149404219Y-81600389D01*
X149464925Y-82686662D01*
X143187295Y-92001781D02*
X143187295Y-91001781D01*
X142949200Y-91001781D01*
X142806342Y-91049400D01*
X142711104Y-91144638D01*
X142663485Y-91239876D01*
X142615866Y-91430352D01*
X142615866Y-91573210D01*
X142663485Y-91763686D01*
X142711104Y-91858924D01*
X142806342Y-91954162D01*
X142949200Y-92001781D01*
X143187295Y-92001781D01*
X142044438Y-91430352D02*
X142139676Y-91382733D01*
X142187295Y-91335114D01*
X142234914Y-91239876D01*
X142234914Y-91192257D01*
X142187295Y-91097019D01*
X142139676Y-91049400D01*
X142044438Y-91001781D01*
X141853961Y-91001781D01*
X141758723Y-91049400D01*
X141711104Y-91097019D01*
X141663485Y-91192257D01*
X141663485Y-91239876D01*
X141711104Y-91335114D01*
X141758723Y-91382733D01*
X141853961Y-91430352D01*
X142044438Y-91430352D01*
X142139676Y-91477971D01*
X142187295Y-91525590D01*
X142234914Y-91620829D01*
X142234914Y-91811305D01*
X142187295Y-91906543D01*
X142139676Y-91954162D01*
X142044438Y-92001781D01*
X141853961Y-92001781D01*
X141758723Y-91954162D01*
X141711104Y-91906543D01*
X141663485Y-91811305D01*
X141663485Y-91620829D01*
X141711104Y-91525590D01*
X141758723Y-91477971D01*
X141853961Y-91430352D01*
X153765570Y-101966764D02*
X153615041Y-101962651D01*
X153554007Y-101991112D01*
X153476687Y-102064320D01*
X153427827Y-102198562D01*
X153440001Y-102304343D01*
X153468461Y-102365377D01*
X153541669Y-102442697D01*
X153899648Y-102572991D01*
X154241668Y-101633298D01*
X153928436Y-101519291D01*
X153822655Y-101531465D01*
X153761621Y-101559926D01*
X153684301Y-101633134D01*
X153651728Y-101722628D01*
X153663901Y-101828409D01*
X153692362Y-101889443D01*
X153765570Y-101966764D01*
X154078801Y-102080771D01*
X153436217Y-101340138D02*
X152899249Y-101144698D01*
X152825713Y-102182111D02*
X153167734Y-101242418D01*
X151751778Y-101791230D02*
X152288746Y-101986671D01*
X152020262Y-101888951D02*
X152362283Y-100949258D01*
X152402917Y-101116073D01*
X152459838Y-101238141D01*
X152533046Y-101315461D01*
M02*
