%TF.GenerationSoftware,KiCad,Pcbnew,4.0.5+dfsg1-4*%
%TF.CreationDate,2020-02-08T14:12:35-08:00*%
%TF.ProjectId,SpangSimple,5370616E6753696D706C652E6B696361,rev?*%
%TF.FileFunction,Copper,L1,Top,Signal*%
%FSLAX46Y46*%
G04 Gerber Fmt 4.6, Leading zero omitted, Abs format (unit mm)*
G04 Created by KiCad (PCBNEW 4.0.5+dfsg1-4) date Sat Feb  8 14:12:35 2020*
%MOMM*%
%LPD*%
G01*
G04 APERTURE LIST*
%ADD10C,0.100000*%
%ADD11C,0.010000*%
%ADD12R,2.000000X1.198880*%
%ADD13C,0.600000*%
%ADD14C,0.500000*%
%ADD15C,1.000000*%
G04 APERTURE END LIST*
D10*
D11*
G36*
X148566025Y-81372533D02*
X148994131Y-81389396D01*
X149094990Y-81394768D01*
X149365058Y-81410508D01*
X149590856Y-81426444D01*
X149789857Y-81445198D01*
X149979535Y-81469395D01*
X150177364Y-81501658D01*
X150400819Y-81544611D01*
X150667373Y-81600878D01*
X150994500Y-81673083D01*
X151088667Y-81694127D01*
X151455981Y-81779379D01*
X151860151Y-81878379D01*
X152274238Y-81984182D01*
X152671298Y-82089842D01*
X153024391Y-82188415D01*
X153160526Y-82228241D01*
X153469925Y-82321157D01*
X153715047Y-82397618D01*
X153912980Y-82464588D01*
X154080811Y-82529032D01*
X154235627Y-82597912D01*
X154394516Y-82678193D01*
X154574565Y-82776838D01*
X154748026Y-82875199D01*
X155399739Y-83264831D01*
X156095411Y-83714029D01*
X156825897Y-84216415D01*
X157582053Y-84765614D01*
X158354734Y-85355249D01*
X158729834Y-85651586D01*
X159108092Y-85957751D01*
X159430321Y-86228914D01*
X159709979Y-86478442D01*
X159960526Y-86719702D01*
X160195423Y-86966060D01*
X160428131Y-87230883D01*
X160672108Y-87527537D01*
X160865364Y-87772261D01*
X161064231Y-88024734D01*
X161242920Y-88244680D01*
X161413521Y-88445254D01*
X161588122Y-88639609D01*
X161778811Y-88840899D01*
X161997677Y-89062278D01*
X162256809Y-89316899D01*
X162510183Y-89561992D01*
X162953346Y-89988905D01*
X163340040Y-90361818D01*
X163674899Y-90685341D01*
X163962558Y-90964081D01*
X164207649Y-91202648D01*
X164414806Y-91405651D01*
X164588663Y-91577699D01*
X164733854Y-91723400D01*
X164855011Y-91847364D01*
X164956770Y-91954199D01*
X165043764Y-92048515D01*
X165120625Y-92134920D01*
X165191989Y-92218023D01*
X165249167Y-92286350D01*
X165405820Y-92478256D01*
X165566891Y-92680711D01*
X165711176Y-92866808D01*
X165799500Y-92984770D01*
X165872528Y-93079076D01*
X165955571Y-93172481D01*
X166057577Y-93272712D01*
X166187493Y-93387494D01*
X166354266Y-93524552D01*
X166566844Y-93691613D01*
X166834174Y-93896402D01*
X167006000Y-94026568D01*
X167281889Y-94239274D01*
X167604745Y-94495295D01*
X167958483Y-94781439D01*
X168327018Y-95084517D01*
X168694266Y-95391336D01*
X169044140Y-95688707D01*
X169252907Y-95869187D01*
X169648943Y-96216886D01*
X169985743Y-96519147D01*
X170270205Y-96783392D01*
X170509229Y-97017044D01*
X170709713Y-97227527D01*
X170878558Y-97422265D01*
X171022663Y-97608679D01*
X171148927Y-97794195D01*
X171264249Y-97986235D01*
X171327886Y-98101750D01*
X171405757Y-98251467D01*
X171463367Y-98378873D01*
X171506909Y-98505280D01*
X171542576Y-98652002D01*
X171576564Y-98840352D01*
X171614549Y-99088143D01*
X171706736Y-99711834D01*
X171597312Y-100219834D01*
X171545677Y-100443190D01*
X171490514Y-100637787D01*
X171424581Y-100818614D01*
X171340634Y-101000661D01*
X171231432Y-101198917D01*
X171089730Y-101428373D01*
X170908286Y-101704018D01*
X170809267Y-101850770D01*
X170644434Y-102089346D01*
X170499713Y-102285728D01*
X170358243Y-102459531D01*
X170203162Y-102630369D01*
X170017608Y-102817856D01*
X169789232Y-103037330D01*
X169484031Y-103315210D01*
X169146502Y-103602859D01*
X168793496Y-103887216D01*
X168441864Y-104155223D01*
X168108458Y-104393819D01*
X167810128Y-104589945D01*
X167701871Y-104655044D01*
X167664291Y-104630928D01*
X167572879Y-104552007D01*
X167433299Y-104423711D01*
X167251216Y-104251470D01*
X167032296Y-104040716D01*
X166782202Y-103796880D01*
X166506601Y-103525393D01*
X166211157Y-103231686D01*
X166072038Y-103092508D01*
X165329062Y-102351196D01*
X164638700Y-101669673D01*
X163997260Y-101044499D01*
X163401050Y-100472232D01*
X162846378Y-99949431D01*
X162329552Y-99472655D01*
X161846879Y-99038464D01*
X161394668Y-98643415D01*
X160969227Y-98284069D01*
X160566863Y-97956985D01*
X160532916Y-97930011D01*
X159407167Y-97037188D01*
X156867167Y-95701926D01*
X155618334Y-95325237D01*
X155275612Y-95222680D01*
X154978387Y-95136169D01*
X154710783Y-95061945D01*
X154456923Y-94996252D01*
X154200933Y-94935329D01*
X153926938Y-94875418D01*
X153619060Y-94812762D01*
X153261425Y-94743600D01*
X152838157Y-94664176D01*
X152782000Y-94653739D01*
X151934820Y-94502802D01*
X151152371Y-94377436D01*
X150419233Y-94275930D01*
X149719988Y-94196574D01*
X149039215Y-94137658D01*
X148361494Y-94097473D01*
X147671405Y-94074308D01*
X147532667Y-94071604D01*
X147173945Y-94065795D01*
X146881697Y-94062748D01*
X146637751Y-94063368D01*
X146423935Y-94068556D01*
X146222077Y-94079214D01*
X146014005Y-94096246D01*
X145781545Y-94120555D01*
X145506527Y-94153042D01*
X145246667Y-94185152D01*
X144894189Y-94230033D01*
X144605114Y-94270011D01*
X144358660Y-94309205D01*
X144134044Y-94351733D01*
X143910485Y-94401714D01*
X143667201Y-94463266D01*
X143383410Y-94540509D01*
X143213392Y-94588113D01*
X142892581Y-94679545D01*
X142633452Y-94757158D01*
X142415797Y-94828638D01*
X142219407Y-94901668D01*
X142024072Y-94983932D01*
X141809586Y-95083115D01*
X141555738Y-95206898D01*
X141456559Y-95256111D01*
X140718834Y-95656257D01*
X140044701Y-96093838D01*
X139416772Y-96581577D01*
X138817659Y-97132195D01*
X138625730Y-97327349D01*
X138028834Y-97948531D01*
X137665353Y-97790225D01*
X137187723Y-97536756D01*
X136756666Y-97213377D01*
X136373400Y-96821673D01*
X136039141Y-96363229D01*
X135755107Y-95839628D01*
X135522515Y-95252455D01*
X135401076Y-94843500D01*
X135339196Y-94598452D01*
X135297863Y-94403271D01*
X135273019Y-94226810D01*
X135260609Y-94037923D01*
X135256573Y-93805465D01*
X135256394Y-93732835D01*
X135256000Y-93172503D01*
X135513082Y-92528614D01*
X135607799Y-92296362D01*
X135700242Y-92078554D01*
X135782440Y-91893353D01*
X135846421Y-91758923D01*
X135871013Y-91713113D01*
X136072367Y-91420523D01*
X136319558Y-91157199D01*
X136627379Y-90908704D01*
X136846474Y-90761263D01*
X137037118Y-90637744D01*
X137215536Y-90517814D01*
X137361909Y-90415067D01*
X137456415Y-90343096D01*
X137457334Y-90342323D01*
X137605500Y-90217284D01*
X137609318Y-89334225D01*
X137610784Y-88994855D01*
X138298645Y-88994855D01*
X138299336Y-89270913D01*
X138302672Y-89474937D01*
X138309746Y-89619546D01*
X138321652Y-89717360D01*
X138339481Y-89780998D01*
X138364328Y-89823077D01*
X138371065Y-89830939D01*
X138436701Y-89891986D01*
X138474024Y-89911667D01*
X138521098Y-89897797D01*
X138635370Y-89859063D01*
X138804557Y-89799781D01*
X139016377Y-89724267D01*
X139258548Y-89636835D01*
X139324713Y-89612776D01*
X139573102Y-89521441D01*
X139794282Y-89438432D01*
X139975910Y-89368519D01*
X140105643Y-89316470D01*
X140171137Y-89287057D01*
X140176043Y-89283783D01*
X140180508Y-89231807D01*
X140166632Y-89118203D01*
X140137289Y-88963308D01*
X140119670Y-88884979D01*
X140032755Y-88516277D01*
X140123760Y-88388472D01*
X140204955Y-88303675D01*
X140285993Y-88261656D01*
X140296903Y-88260667D01*
X140362526Y-88289321D01*
X140467176Y-88365807D01*
X140592269Y-88475912D01*
X140643270Y-88525584D01*
X140794935Y-88664473D01*
X140957825Y-88792907D01*
X141101282Y-88887089D01*
X141126034Y-88900271D01*
X141197607Y-88935290D01*
X141262901Y-88961290D01*
X141332780Y-88977728D01*
X141418108Y-88984061D01*
X141529748Y-88979745D01*
X141678567Y-88964238D01*
X141875427Y-88936996D01*
X142131192Y-88897475D01*
X142456727Y-88845134D01*
X142558500Y-88828651D01*
X142800123Y-88781147D01*
X142993896Y-88718563D01*
X143163709Y-88627871D01*
X143333453Y-88496047D01*
X143527018Y-88310063D01*
X143546918Y-88289716D01*
X143731002Y-88100803D01*
X143570009Y-87922603D01*
X143496592Y-87851643D01*
X143397532Y-87776472D01*
X143262377Y-87690864D01*
X143080674Y-87588598D01*
X142841973Y-87463448D01*
X142560425Y-87321445D01*
X142277060Y-87179192D01*
X142056734Y-87065179D01*
X141886133Y-86971057D01*
X141751947Y-86888475D01*
X141640861Y-86809083D01*
X141539564Y-86724529D01*
X141434743Y-86626465D01*
X141402825Y-86595327D01*
X141180006Y-86353290D01*
X141030414Y-86133449D01*
X140948723Y-85926416D01*
X140928667Y-85759630D01*
X140943937Y-85653558D01*
X140985227Y-85493381D01*
X141045753Y-85303049D01*
X141100556Y-85152679D01*
X141272445Y-84707669D01*
X141679924Y-84425540D01*
X141855982Y-84304933D01*
X141987312Y-84222631D01*
X142098697Y-84168606D01*
X142214921Y-84132826D01*
X142360770Y-84105262D01*
X142534618Y-84079649D01*
X142762022Y-84051367D01*
X142962124Y-84038007D01*
X143167797Y-84039008D01*
X143411914Y-84053809D01*
X143520224Y-84062815D01*
X143754030Y-84085098D01*
X143924255Y-84107653D01*
X144051860Y-84135318D01*
X144157808Y-84172930D01*
X144263060Y-84225324D01*
X144290320Y-84240508D01*
X144430874Y-84333843D01*
X144551567Y-84438130D01*
X144608839Y-84506221D01*
X144663045Y-84596243D01*
X144671611Y-84647301D01*
X144635295Y-84691249D01*
X144613673Y-84709552D01*
X144561725Y-84743515D01*
X144497150Y-84757225D01*
X144397321Y-84751492D01*
X144239611Y-84727129D01*
X144219644Y-84723674D01*
X143780004Y-84662914D01*
X143353874Y-84633879D01*
X142961110Y-84637013D01*
X142621563Y-84672756D01*
X142549235Y-84686437D01*
X142360268Y-84729540D01*
X142227980Y-84772410D01*
X142125330Y-84827458D01*
X142025281Y-84907094D01*
X141981777Y-84946890D01*
X141850861Y-85086510D01*
X141767553Y-85229134D01*
X141714048Y-85386185D01*
X141666604Y-85640303D01*
X141683297Y-85856361D01*
X141767016Y-86054759D01*
X141819968Y-86133810D01*
X141869988Y-86192000D01*
X141940930Y-86254690D01*
X142041621Y-86327437D01*
X142180889Y-86415796D01*
X142367562Y-86525326D01*
X142610467Y-86661584D01*
X142918431Y-86830126D01*
X142973994Y-86860276D01*
X143283686Y-87028903D01*
X143528029Y-87164222D01*
X143716573Y-87272409D01*
X143858867Y-87359636D01*
X143964460Y-87432079D01*
X144042902Y-87495911D01*
X144103742Y-87557306D01*
X144156529Y-87622439D01*
X144160028Y-87627108D01*
X144246511Y-87756041D01*
X144296046Y-87874498D01*
X144311664Y-88005794D01*
X144296395Y-88173240D01*
X144257771Y-88378800D01*
X144232700Y-88517114D01*
X144221860Y-88617603D01*
X144226904Y-88656979D01*
X144273036Y-88657539D01*
X144395169Y-88654416D01*
X144584734Y-88647947D01*
X144833160Y-88638469D01*
X145131878Y-88626318D01*
X145472318Y-88611830D01*
X145845909Y-88595342D01*
X146162161Y-88580972D01*
X146874260Y-88551420D01*
X147511744Y-88532171D01*
X148084064Y-88523472D01*
X148600671Y-88525569D01*
X149071016Y-88538707D01*
X149504551Y-88563132D01*
X149910727Y-88599090D01*
X150298996Y-88646827D01*
X150623000Y-88697017D01*
X150839138Y-88733160D01*
X151022722Y-88763070D01*
X151159007Y-88784407D01*
X151233251Y-88794833D01*
X151242496Y-88795336D01*
X151262726Y-88757786D01*
X151312462Y-88661369D01*
X151383106Y-88522826D01*
X151430152Y-88430000D01*
X151612147Y-88070167D01*
X151600800Y-87628224D01*
X151593950Y-87425251D01*
X151581109Y-87278228D01*
X151555318Y-87158445D01*
X151509618Y-87037192D01*
X151437048Y-86885757D01*
X151405826Y-86823890D01*
X151244753Y-86557589D01*
X151021443Y-86273662D01*
X150732843Y-85969151D01*
X150375901Y-85641099D01*
X149947563Y-85286546D01*
X149444775Y-84902534D01*
X149353908Y-84835741D01*
X149071896Y-84630788D01*
X148842411Y-84468057D01*
X148650619Y-84338473D01*
X148481689Y-84232961D01*
X148320788Y-84142449D01*
X148153083Y-84057860D01*
X147963742Y-83970122D01*
X147872241Y-83929282D01*
X147583383Y-83805588D01*
X147342555Y-83713743D01*
X147123458Y-83645051D01*
X146899797Y-83590815D01*
X146770667Y-83565006D01*
X146556514Y-83524403D01*
X146286912Y-83473013D01*
X145989538Y-83416126D01*
X145692068Y-83359032D01*
X145543000Y-83330337D01*
X145169253Y-83259084D01*
X144854357Y-83203800D01*
X144585256Y-83166568D01*
X144348892Y-83149470D01*
X144132209Y-83154588D01*
X143922149Y-83184005D01*
X143705656Y-83239804D01*
X143469672Y-83324067D01*
X143201140Y-83438877D01*
X142887003Y-83586315D01*
X142514205Y-83768465D01*
X142379426Y-83834898D01*
X141903375Y-84073771D01*
X141496289Y-84287957D01*
X141148383Y-84483860D01*
X140849869Y-84667883D01*
X140590961Y-84846429D01*
X140361873Y-85025902D01*
X140152818Y-85212705D01*
X139954010Y-85413241D01*
X139933274Y-85435415D01*
X139617863Y-85805849D01*
X139307353Y-86228937D01*
X139014848Y-86683229D01*
X138753446Y-87147277D01*
X138536248Y-87599633D01*
X138401571Y-87943167D01*
X138364205Y-88058245D01*
X138337151Y-88165176D01*
X138318755Y-88280876D01*
X138307360Y-88422259D01*
X138301311Y-88606238D01*
X138298954Y-88849727D01*
X138298645Y-88994855D01*
X137610784Y-88994855D01*
X137613135Y-88451167D01*
X137839601Y-87752667D01*
X137919149Y-87511400D01*
X137988859Y-87314298D01*
X138057508Y-87142769D01*
X138133871Y-86978220D01*
X138226722Y-86802060D01*
X138344836Y-86595696D01*
X138496989Y-86340537D01*
X138538926Y-86271000D01*
X138758631Y-85907763D01*
X138941863Y-85607725D01*
X139095670Y-85361460D01*
X139227099Y-85159543D01*
X139343198Y-84992549D01*
X139451015Y-84851050D01*
X139557597Y-84725622D01*
X139669992Y-84606838D01*
X139795248Y-84485274D01*
X139940412Y-84351503D01*
X140044531Y-84257374D01*
X140249763Y-84075623D01*
X140435506Y-83919939D01*
X140618641Y-83778084D01*
X140816051Y-83637821D01*
X141044615Y-83486912D01*
X141321216Y-83313121D01*
X141491239Y-83208664D01*
X141752140Y-83049938D01*
X141969772Y-82920475D01*
X142159832Y-82812675D01*
X142338018Y-82718940D01*
X142520030Y-82631671D01*
X142721564Y-82543271D01*
X142958319Y-82446140D01*
X143245993Y-82332679D01*
X143523239Y-82225088D01*
X143877438Y-82089007D01*
X144169320Y-81979719D01*
X144415009Y-81892158D01*
X144630629Y-81821257D01*
X144832306Y-81761949D01*
X145036164Y-81709166D01*
X145258328Y-81657840D01*
X145479500Y-81610336D01*
X145763277Y-81552137D01*
X146003243Y-81507360D01*
X146221404Y-81473319D01*
X146439764Y-81447329D01*
X146680328Y-81426704D01*
X146965104Y-81408759D01*
X147253490Y-81393845D01*
X147729612Y-81374774D01*
X148155821Y-81367664D01*
X148566025Y-81372533D01*
X148566025Y-81372533D01*
G37*
X148566025Y-81372533D02*
X148994131Y-81389396D01*
X149094990Y-81394768D01*
X149365058Y-81410508D01*
X149590856Y-81426444D01*
X149789857Y-81445198D01*
X149979535Y-81469395D01*
X150177364Y-81501658D01*
X150400819Y-81544611D01*
X150667373Y-81600878D01*
X150994500Y-81673083D01*
X151088667Y-81694127D01*
X151455981Y-81779379D01*
X151860151Y-81878379D01*
X152274238Y-81984182D01*
X152671298Y-82089842D01*
X153024391Y-82188415D01*
X153160526Y-82228241D01*
X153469925Y-82321157D01*
X153715047Y-82397618D01*
X153912980Y-82464588D01*
X154080811Y-82529032D01*
X154235627Y-82597912D01*
X154394516Y-82678193D01*
X154574565Y-82776838D01*
X154748026Y-82875199D01*
X155399739Y-83264831D01*
X156095411Y-83714029D01*
X156825897Y-84216415D01*
X157582053Y-84765614D01*
X158354734Y-85355249D01*
X158729834Y-85651586D01*
X159108092Y-85957751D01*
X159430321Y-86228914D01*
X159709979Y-86478442D01*
X159960526Y-86719702D01*
X160195423Y-86966060D01*
X160428131Y-87230883D01*
X160672108Y-87527537D01*
X160865364Y-87772261D01*
X161064231Y-88024734D01*
X161242920Y-88244680D01*
X161413521Y-88445254D01*
X161588122Y-88639609D01*
X161778811Y-88840899D01*
X161997677Y-89062278D01*
X162256809Y-89316899D01*
X162510183Y-89561992D01*
X162953346Y-89988905D01*
X163340040Y-90361818D01*
X163674899Y-90685341D01*
X163962558Y-90964081D01*
X164207649Y-91202648D01*
X164414806Y-91405651D01*
X164588663Y-91577699D01*
X164733854Y-91723400D01*
X164855011Y-91847364D01*
X164956770Y-91954199D01*
X165043764Y-92048515D01*
X165120625Y-92134920D01*
X165191989Y-92218023D01*
X165249167Y-92286350D01*
X165405820Y-92478256D01*
X165566891Y-92680711D01*
X165711176Y-92866808D01*
X165799500Y-92984770D01*
X165872528Y-93079076D01*
X165955571Y-93172481D01*
X166057577Y-93272712D01*
X166187493Y-93387494D01*
X166354266Y-93524552D01*
X166566844Y-93691613D01*
X166834174Y-93896402D01*
X167006000Y-94026568D01*
X167281889Y-94239274D01*
X167604745Y-94495295D01*
X167958483Y-94781439D01*
X168327018Y-95084517D01*
X168694266Y-95391336D01*
X169044140Y-95688707D01*
X169252907Y-95869187D01*
X169648943Y-96216886D01*
X169985743Y-96519147D01*
X170270205Y-96783392D01*
X170509229Y-97017044D01*
X170709713Y-97227527D01*
X170878558Y-97422265D01*
X171022663Y-97608679D01*
X171148927Y-97794195D01*
X171264249Y-97986235D01*
X171327886Y-98101750D01*
X171405757Y-98251467D01*
X171463367Y-98378873D01*
X171506909Y-98505280D01*
X171542576Y-98652002D01*
X171576564Y-98840352D01*
X171614549Y-99088143D01*
X171706736Y-99711834D01*
X171597312Y-100219834D01*
X171545677Y-100443190D01*
X171490514Y-100637787D01*
X171424581Y-100818614D01*
X171340634Y-101000661D01*
X171231432Y-101198917D01*
X171089730Y-101428373D01*
X170908286Y-101704018D01*
X170809267Y-101850770D01*
X170644434Y-102089346D01*
X170499713Y-102285728D01*
X170358243Y-102459531D01*
X170203162Y-102630369D01*
X170017608Y-102817856D01*
X169789232Y-103037330D01*
X169484031Y-103315210D01*
X169146502Y-103602859D01*
X168793496Y-103887216D01*
X168441864Y-104155223D01*
X168108458Y-104393819D01*
X167810128Y-104589945D01*
X167701871Y-104655044D01*
X167664291Y-104630928D01*
X167572879Y-104552007D01*
X167433299Y-104423711D01*
X167251216Y-104251470D01*
X167032296Y-104040716D01*
X166782202Y-103796880D01*
X166506601Y-103525393D01*
X166211157Y-103231686D01*
X166072038Y-103092508D01*
X165329062Y-102351196D01*
X164638700Y-101669673D01*
X163997260Y-101044499D01*
X163401050Y-100472232D01*
X162846378Y-99949431D01*
X162329552Y-99472655D01*
X161846879Y-99038464D01*
X161394668Y-98643415D01*
X160969227Y-98284069D01*
X160566863Y-97956985D01*
X160532916Y-97930011D01*
X159407167Y-97037188D01*
X156867167Y-95701926D01*
X155618334Y-95325237D01*
X155275612Y-95222680D01*
X154978387Y-95136169D01*
X154710783Y-95061945D01*
X154456923Y-94996252D01*
X154200933Y-94935329D01*
X153926938Y-94875418D01*
X153619060Y-94812762D01*
X153261425Y-94743600D01*
X152838157Y-94664176D01*
X152782000Y-94653739D01*
X151934820Y-94502802D01*
X151152371Y-94377436D01*
X150419233Y-94275930D01*
X149719988Y-94196574D01*
X149039215Y-94137658D01*
X148361494Y-94097473D01*
X147671405Y-94074308D01*
X147532667Y-94071604D01*
X147173945Y-94065795D01*
X146881697Y-94062748D01*
X146637751Y-94063368D01*
X146423935Y-94068556D01*
X146222077Y-94079214D01*
X146014005Y-94096246D01*
X145781545Y-94120555D01*
X145506527Y-94153042D01*
X145246667Y-94185152D01*
X144894189Y-94230033D01*
X144605114Y-94270011D01*
X144358660Y-94309205D01*
X144134044Y-94351733D01*
X143910485Y-94401714D01*
X143667201Y-94463266D01*
X143383410Y-94540509D01*
X143213392Y-94588113D01*
X142892581Y-94679545D01*
X142633452Y-94757158D01*
X142415797Y-94828638D01*
X142219407Y-94901668D01*
X142024072Y-94983932D01*
X141809586Y-95083115D01*
X141555738Y-95206898D01*
X141456559Y-95256111D01*
X140718834Y-95656257D01*
X140044701Y-96093838D01*
X139416772Y-96581577D01*
X138817659Y-97132195D01*
X138625730Y-97327349D01*
X138028834Y-97948531D01*
X137665353Y-97790225D01*
X137187723Y-97536756D01*
X136756666Y-97213377D01*
X136373400Y-96821673D01*
X136039141Y-96363229D01*
X135755107Y-95839628D01*
X135522515Y-95252455D01*
X135401076Y-94843500D01*
X135339196Y-94598452D01*
X135297863Y-94403271D01*
X135273019Y-94226810D01*
X135260609Y-94037923D01*
X135256573Y-93805465D01*
X135256394Y-93732835D01*
X135256000Y-93172503D01*
X135513082Y-92528614D01*
X135607799Y-92296362D01*
X135700242Y-92078554D01*
X135782440Y-91893353D01*
X135846421Y-91758923D01*
X135871013Y-91713113D01*
X136072367Y-91420523D01*
X136319558Y-91157199D01*
X136627379Y-90908704D01*
X136846474Y-90761263D01*
X137037118Y-90637744D01*
X137215536Y-90517814D01*
X137361909Y-90415067D01*
X137456415Y-90343096D01*
X137457334Y-90342323D01*
X137605500Y-90217284D01*
X137609318Y-89334225D01*
X137610784Y-88994855D01*
X138298645Y-88994855D01*
X138299336Y-89270913D01*
X138302672Y-89474937D01*
X138309746Y-89619546D01*
X138321652Y-89717360D01*
X138339481Y-89780998D01*
X138364328Y-89823077D01*
X138371065Y-89830939D01*
X138436701Y-89891986D01*
X138474024Y-89911667D01*
X138521098Y-89897797D01*
X138635370Y-89859063D01*
X138804557Y-89799781D01*
X139016377Y-89724267D01*
X139258548Y-89636835D01*
X139324713Y-89612776D01*
X139573102Y-89521441D01*
X139794282Y-89438432D01*
X139975910Y-89368519D01*
X140105643Y-89316470D01*
X140171137Y-89287057D01*
X140176043Y-89283783D01*
X140180508Y-89231807D01*
X140166632Y-89118203D01*
X140137289Y-88963308D01*
X140119670Y-88884979D01*
X140032755Y-88516277D01*
X140123760Y-88388472D01*
X140204955Y-88303675D01*
X140285993Y-88261656D01*
X140296903Y-88260667D01*
X140362526Y-88289321D01*
X140467176Y-88365807D01*
X140592269Y-88475912D01*
X140643270Y-88525584D01*
X140794935Y-88664473D01*
X140957825Y-88792907D01*
X141101282Y-88887089D01*
X141126034Y-88900271D01*
X141197607Y-88935290D01*
X141262901Y-88961290D01*
X141332780Y-88977728D01*
X141418108Y-88984061D01*
X141529748Y-88979745D01*
X141678567Y-88964238D01*
X141875427Y-88936996D01*
X142131192Y-88897475D01*
X142456727Y-88845134D01*
X142558500Y-88828651D01*
X142800123Y-88781147D01*
X142993896Y-88718563D01*
X143163709Y-88627871D01*
X143333453Y-88496047D01*
X143527018Y-88310063D01*
X143546918Y-88289716D01*
X143731002Y-88100803D01*
X143570009Y-87922603D01*
X143496592Y-87851643D01*
X143397532Y-87776472D01*
X143262377Y-87690864D01*
X143080674Y-87588598D01*
X142841973Y-87463448D01*
X142560425Y-87321445D01*
X142277060Y-87179192D01*
X142056734Y-87065179D01*
X141886133Y-86971057D01*
X141751947Y-86888475D01*
X141640861Y-86809083D01*
X141539564Y-86724529D01*
X141434743Y-86626465D01*
X141402825Y-86595327D01*
X141180006Y-86353290D01*
X141030414Y-86133449D01*
X140948723Y-85926416D01*
X140928667Y-85759630D01*
X140943937Y-85653558D01*
X140985227Y-85493381D01*
X141045753Y-85303049D01*
X141100556Y-85152679D01*
X141272445Y-84707669D01*
X141679924Y-84425540D01*
X141855982Y-84304933D01*
X141987312Y-84222631D01*
X142098697Y-84168606D01*
X142214921Y-84132826D01*
X142360770Y-84105262D01*
X142534618Y-84079649D01*
X142762022Y-84051367D01*
X142962124Y-84038007D01*
X143167797Y-84039008D01*
X143411914Y-84053809D01*
X143520224Y-84062815D01*
X143754030Y-84085098D01*
X143924255Y-84107653D01*
X144051860Y-84135318D01*
X144157808Y-84172930D01*
X144263060Y-84225324D01*
X144290320Y-84240508D01*
X144430874Y-84333843D01*
X144551567Y-84438130D01*
X144608839Y-84506221D01*
X144663045Y-84596243D01*
X144671611Y-84647301D01*
X144635295Y-84691249D01*
X144613673Y-84709552D01*
X144561725Y-84743515D01*
X144497150Y-84757225D01*
X144397321Y-84751492D01*
X144239611Y-84727129D01*
X144219644Y-84723674D01*
X143780004Y-84662914D01*
X143353874Y-84633879D01*
X142961110Y-84637013D01*
X142621563Y-84672756D01*
X142549235Y-84686437D01*
X142360268Y-84729540D01*
X142227980Y-84772410D01*
X142125330Y-84827458D01*
X142025281Y-84907094D01*
X141981777Y-84946890D01*
X141850861Y-85086510D01*
X141767553Y-85229134D01*
X141714048Y-85386185D01*
X141666604Y-85640303D01*
X141683297Y-85856361D01*
X141767016Y-86054759D01*
X141819968Y-86133810D01*
X141869988Y-86192000D01*
X141940930Y-86254690D01*
X142041621Y-86327437D01*
X142180889Y-86415796D01*
X142367562Y-86525326D01*
X142610467Y-86661584D01*
X142918431Y-86830126D01*
X142973994Y-86860276D01*
X143283686Y-87028903D01*
X143528029Y-87164222D01*
X143716573Y-87272409D01*
X143858867Y-87359636D01*
X143964460Y-87432079D01*
X144042902Y-87495911D01*
X144103742Y-87557306D01*
X144156529Y-87622439D01*
X144160028Y-87627108D01*
X144246511Y-87756041D01*
X144296046Y-87874498D01*
X144311664Y-88005794D01*
X144296395Y-88173240D01*
X144257771Y-88378800D01*
X144232700Y-88517114D01*
X144221860Y-88617603D01*
X144226904Y-88656979D01*
X144273036Y-88657539D01*
X144395169Y-88654416D01*
X144584734Y-88647947D01*
X144833160Y-88638469D01*
X145131878Y-88626318D01*
X145472318Y-88611830D01*
X145845909Y-88595342D01*
X146162161Y-88580972D01*
X146874260Y-88551420D01*
X147511744Y-88532171D01*
X148084064Y-88523472D01*
X148600671Y-88525569D01*
X149071016Y-88538707D01*
X149504551Y-88563132D01*
X149910727Y-88599090D01*
X150298996Y-88646827D01*
X150623000Y-88697017D01*
X150839138Y-88733160D01*
X151022722Y-88763070D01*
X151159007Y-88784407D01*
X151233251Y-88794833D01*
X151242496Y-88795336D01*
X151262726Y-88757786D01*
X151312462Y-88661369D01*
X151383106Y-88522826D01*
X151430152Y-88430000D01*
X151612147Y-88070167D01*
X151600800Y-87628224D01*
X151593950Y-87425251D01*
X151581109Y-87278228D01*
X151555318Y-87158445D01*
X151509618Y-87037192D01*
X151437048Y-86885757D01*
X151405826Y-86823890D01*
X151244753Y-86557589D01*
X151021443Y-86273662D01*
X150732843Y-85969151D01*
X150375901Y-85641099D01*
X149947563Y-85286546D01*
X149444775Y-84902534D01*
X149353908Y-84835741D01*
X149071896Y-84630788D01*
X148842411Y-84468057D01*
X148650619Y-84338473D01*
X148481689Y-84232961D01*
X148320788Y-84142449D01*
X148153083Y-84057860D01*
X147963742Y-83970122D01*
X147872241Y-83929282D01*
X147583383Y-83805588D01*
X147342555Y-83713743D01*
X147123458Y-83645051D01*
X146899797Y-83590815D01*
X146770667Y-83565006D01*
X146556514Y-83524403D01*
X146286912Y-83473013D01*
X145989538Y-83416126D01*
X145692068Y-83359032D01*
X145543000Y-83330337D01*
X145169253Y-83259084D01*
X144854357Y-83203800D01*
X144585256Y-83166568D01*
X144348892Y-83149470D01*
X144132209Y-83154588D01*
X143922149Y-83184005D01*
X143705656Y-83239804D01*
X143469672Y-83324067D01*
X143201140Y-83438877D01*
X142887003Y-83586315D01*
X142514205Y-83768465D01*
X142379426Y-83834898D01*
X141903375Y-84073771D01*
X141496289Y-84287957D01*
X141148383Y-84483860D01*
X140849869Y-84667883D01*
X140590961Y-84846429D01*
X140361873Y-85025902D01*
X140152818Y-85212705D01*
X139954010Y-85413241D01*
X139933274Y-85435415D01*
X139617863Y-85805849D01*
X139307353Y-86228937D01*
X139014848Y-86683229D01*
X138753446Y-87147277D01*
X138536248Y-87599633D01*
X138401571Y-87943167D01*
X138364205Y-88058245D01*
X138337151Y-88165176D01*
X138318755Y-88280876D01*
X138307360Y-88422259D01*
X138301311Y-88606238D01*
X138298954Y-88849727D01*
X138298645Y-88994855D01*
X137610784Y-88994855D01*
X137613135Y-88451167D01*
X137839601Y-87752667D01*
X137919149Y-87511400D01*
X137988859Y-87314298D01*
X138057508Y-87142769D01*
X138133871Y-86978220D01*
X138226722Y-86802060D01*
X138344836Y-86595696D01*
X138496989Y-86340537D01*
X138538926Y-86271000D01*
X138758631Y-85907763D01*
X138941863Y-85607725D01*
X139095670Y-85361460D01*
X139227099Y-85159543D01*
X139343198Y-84992549D01*
X139451015Y-84851050D01*
X139557597Y-84725622D01*
X139669992Y-84606838D01*
X139795248Y-84485274D01*
X139940412Y-84351503D01*
X140044531Y-84257374D01*
X140249763Y-84075623D01*
X140435506Y-83919939D01*
X140618641Y-83778084D01*
X140816051Y-83637821D01*
X141044615Y-83486912D01*
X141321216Y-83313121D01*
X141491239Y-83208664D01*
X141752140Y-83049938D01*
X141969772Y-82920475D01*
X142159832Y-82812675D01*
X142338018Y-82718940D01*
X142520030Y-82631671D01*
X142721564Y-82543271D01*
X142958319Y-82446140D01*
X143245993Y-82332679D01*
X143523239Y-82225088D01*
X143877438Y-82089007D01*
X144169320Y-81979719D01*
X144415009Y-81892158D01*
X144630629Y-81821257D01*
X144832306Y-81761949D01*
X145036164Y-81709166D01*
X145258328Y-81657840D01*
X145479500Y-81610336D01*
X145763277Y-81552137D01*
X146003243Y-81507360D01*
X146221404Y-81473319D01*
X146439764Y-81447329D01*
X146680328Y-81426704D01*
X146965104Y-81408759D01*
X147253490Y-81393845D01*
X147729612Y-81374774D01*
X148155821Y-81367664D01*
X148566025Y-81372533D01*
D12*
X153848000Y-106172000D03*
X157148000Y-106172000D03*
X154356000Y-107848400D03*
X157656000Y-107848400D03*
X154991000Y-109575600D03*
X158291000Y-109575600D03*
X155372000Y-111252000D03*
X158672000Y-111252000D03*
X155626000Y-113030000D03*
X158926000Y-113030000D03*
D13*
X158672000Y-111252000D03*
X170180000Y-100076000D03*
X155626000Y-113030000D03*
D14*
X169356594Y-100950206D02*
X169356594Y-100899406D01*
X169356594Y-100899406D02*
X170180000Y-100076000D01*
D15*
X157402000Y-107848400D02*
X158741600Y-107848400D01*
X157402000Y-107848400D02*
X157402000Y-106426000D01*
X157402000Y-106426000D02*
X157148000Y-106172000D01*
X158291000Y-109575600D02*
X158291000Y-108737400D01*
X158291000Y-108737400D02*
X157402000Y-107848400D01*
X158672000Y-111252000D02*
X158672000Y-109956600D01*
X158672000Y-109956600D02*
X158291000Y-109575600D01*
X158926000Y-113030000D02*
X158926000Y-111506000D01*
X158926000Y-111506000D02*
X158672000Y-111252000D01*
X169356594Y-99375406D02*
X169356594Y-100950206D01*
X169356594Y-100950206D02*
X168296600Y-102010200D01*
X168296600Y-102010200D02*
X165688000Y-102010200D01*
X165688000Y-102010200D02*
X162356800Y-98679000D01*
X161793199Y-101092000D02*
X161793199Y-98633001D01*
X159258000Y-106680000D02*
X161793199Y-104144801D01*
X161793199Y-104144801D02*
X161793199Y-101092000D01*
X159258000Y-107332000D02*
X159258000Y-106680000D01*
X158741600Y-107848400D02*
X159258000Y-107332000D01*
X161793199Y-98633001D02*
X162356800Y-98069400D01*
X162356800Y-98069400D02*
X162356800Y-98679000D01*
X162356800Y-98679000D02*
X162306000Y-98729800D01*
X154102000Y-107848400D02*
X154102000Y-106426000D01*
X154102000Y-106426000D02*
X153848000Y-106172000D01*
X154991000Y-109575600D02*
X154991000Y-108737400D01*
X154991000Y-108737400D02*
X154102000Y-107848400D01*
X155372000Y-111252000D02*
X155372000Y-109956600D01*
X155372000Y-109956600D02*
X154991000Y-109575600D01*
X155626000Y-113030000D02*
X155626000Y-111506000D01*
X155626000Y-111506000D02*
X155372000Y-111252000D01*
M02*
