%TF.GenerationSoftware,KiCad,Pcbnew,4.0.5+dfsg1-4*%
%TF.CreationDate,2020-02-08T14:12:35-08:00*%
%TF.ProjectId,SpangSimple,5370616E6753696D706C652E6B696361,rev?*%
%TF.FileFunction,Soldermask,Bot*%
%FSLAX46Y46*%
G04 Gerber Fmt 4.6, Leading zero omitted, Abs format (unit mm)*
G04 Created by KiCad (PCBNEW 4.0.5+dfsg1-4) date Sat Feb  8 14:12:35 2020*
%MOMM*%
%LPD*%
G01*
G04 APERTURE LIST*
%ADD10C,0.100000*%
%ADD11R,1.900000X1.197560*%
%ADD12C,16.900000*%
%ADD13C,0.254000*%
G04 APERTURE END LIST*
D10*
G36*
X168138695Y-103319386D02*
X166936614Y-102117305D01*
X168280117Y-100773802D01*
X169482198Y-101975883D01*
X168138695Y-103319386D01*
X168138695Y-103319386D01*
G37*
G36*
X170047883Y-101410198D02*
X168845802Y-100208117D01*
X170189305Y-98864614D01*
X171391386Y-100066695D01*
X170047883Y-101410198D01*
X170047883Y-101410198D01*
G37*
G36*
X137326168Y-114216117D02*
X138316117Y-113226168D01*
X139306066Y-114216117D01*
X138316117Y-115206066D01*
X137326168Y-114216117D01*
X137326168Y-114216117D01*
G37*
G36*
X139093934Y-115983883D02*
X140083883Y-114993934D01*
X141073832Y-115983883D01*
X140083883Y-116973832D01*
X139093934Y-115983883D01*
X139093934Y-115983883D01*
G37*
G36*
X150331165Y-83238472D02*
X149921575Y-84363810D01*
X148136159Y-83713972D01*
X148545749Y-82588634D01*
X150331165Y-83238472D01*
X150331165Y-83238472D01*
G37*
G36*
X148263841Y-82486028D02*
X147854251Y-83611366D01*
X146068835Y-82961528D01*
X146478425Y-81836190D01*
X148263841Y-82486028D01*
X148263841Y-82486028D01*
G37*
D11*
X141400000Y-90000000D03*
X143600000Y-90000000D03*
D10*
G36*
X138735548Y-100030872D02*
X140616659Y-94862563D01*
X144751306Y-96367452D01*
X142870195Y-101535761D01*
X138735548Y-100030872D01*
X138735548Y-100030872D01*
G37*
G36*
X160912294Y-108102548D02*
X162793405Y-102934239D01*
X166928052Y-104439128D01*
X165046941Y-109607437D01*
X160912294Y-108102548D01*
X160912294Y-108102548D01*
G37*
D12*
X152831800Y-102235000D03*
D10*
G36*
X144263883Y-112946878D02*
X145183122Y-113866117D01*
X144051751Y-114997488D01*
X143132512Y-114078249D01*
X144263883Y-112946878D01*
X144263883Y-112946878D01*
G37*
G36*
X142708249Y-114502512D02*
X143627488Y-115421751D01*
X142496117Y-116553122D01*
X141576878Y-115633883D01*
X142708249Y-114502512D01*
X142708249Y-114502512D01*
G37*
D13*
G36*
X141021235Y-84635013D02*
X140771235Y-85295013D01*
X140769092Y-85301137D01*
X140679092Y-85581137D01*
X140673110Y-85625287D01*
X140683110Y-85865287D01*
X140689517Y-85900161D01*
X140769517Y-86140161D01*
X140790138Y-86178463D01*
X141010138Y-86458463D01*
X141020197Y-86469803D01*
X141270197Y-86719803D01*
X141272799Y-86722331D01*
X141452799Y-86892331D01*
X141473440Y-86908161D01*
X141733440Y-87068161D01*
X141738796Y-87071279D01*
X142138796Y-87291279D01*
X142145266Y-87294600D01*
X142809823Y-87612000D01*
X143100836Y-87786608D01*
X143284779Y-87915368D01*
X143420832Y-88069562D01*
X143371467Y-88118927D01*
X143192799Y-88287669D01*
X143190197Y-88290197D01*
X143061252Y-88419142D01*
X142928834Y-88498593D01*
X142800537Y-88562742D01*
X142589457Y-88636161D01*
X142401161Y-88664405D01*
X142401045Y-88664423D01*
X141871663Y-88744330D01*
X141522291Y-88794240D01*
X141320859Y-88821708D01*
X141160270Y-88797620D01*
X141015779Y-88721124D01*
X140840226Y-88601009D01*
X140627690Y-88398134D01*
X140623010Y-88393883D01*
X140403010Y-88203883D01*
X140379765Y-88187941D01*
X140229765Y-88107941D01*
X140181459Y-88093518D01*
X140122833Y-88102083D01*
X140022833Y-88142083D01*
X139968400Y-88183800D01*
X139909241Y-88262678D01*
X139800138Y-88401537D01*
X139777479Y-88446571D01*
X139777182Y-88512321D01*
X139825930Y-88697563D01*
X139903949Y-89126669D01*
X139904918Y-89138292D01*
X139417732Y-89310240D01*
X139417351Y-89310375D01*
X138381154Y-89679802D01*
X138316664Y-89523950D01*
X138307032Y-88801550D01*
X138326484Y-88286088D01*
X138391602Y-87988405D01*
X138566193Y-87571326D01*
X138763019Y-87148151D01*
X139057865Y-86627256D01*
X139570270Y-85878357D01*
X139882433Y-85527173D01*
X140089803Y-85319803D01*
X140094175Y-85315206D01*
X140275515Y-85114777D01*
X140562528Y-84904301D01*
X140995828Y-84618717D01*
X141061582Y-84582275D01*
X141021235Y-84635013D01*
X141021235Y-84635013D01*
G37*
X141021235Y-84635013D02*
X140771235Y-85295013D01*
X140769092Y-85301137D01*
X140679092Y-85581137D01*
X140673110Y-85625287D01*
X140683110Y-85865287D01*
X140689517Y-85900161D01*
X140769517Y-86140161D01*
X140790138Y-86178463D01*
X141010138Y-86458463D01*
X141020197Y-86469803D01*
X141270197Y-86719803D01*
X141272799Y-86722331D01*
X141452799Y-86892331D01*
X141473440Y-86908161D01*
X141733440Y-87068161D01*
X141738796Y-87071279D01*
X142138796Y-87291279D01*
X142145266Y-87294600D01*
X142809823Y-87612000D01*
X143100836Y-87786608D01*
X143284779Y-87915368D01*
X143420832Y-88069562D01*
X143371467Y-88118927D01*
X143192799Y-88287669D01*
X143190197Y-88290197D01*
X143061252Y-88419142D01*
X142928834Y-88498593D01*
X142800537Y-88562742D01*
X142589457Y-88636161D01*
X142401161Y-88664405D01*
X142401045Y-88664423D01*
X141871663Y-88744330D01*
X141522291Y-88794240D01*
X141320859Y-88821708D01*
X141160270Y-88797620D01*
X141015779Y-88721124D01*
X140840226Y-88601009D01*
X140627690Y-88398134D01*
X140623010Y-88393883D01*
X140403010Y-88203883D01*
X140379765Y-88187941D01*
X140229765Y-88107941D01*
X140181459Y-88093518D01*
X140122833Y-88102083D01*
X140022833Y-88142083D01*
X139968400Y-88183800D01*
X139909241Y-88262678D01*
X139800138Y-88401537D01*
X139777479Y-88446571D01*
X139777182Y-88512321D01*
X139825930Y-88697563D01*
X139903949Y-89126669D01*
X139904918Y-89138292D01*
X139417732Y-89310240D01*
X139417351Y-89310375D01*
X138381154Y-89679802D01*
X138316664Y-89523950D01*
X138307032Y-88801550D01*
X138326484Y-88286088D01*
X138391602Y-87988405D01*
X138566193Y-87571326D01*
X138763019Y-87148151D01*
X139057865Y-86627256D01*
X139570270Y-85878357D01*
X139882433Y-85527173D01*
X140089803Y-85319803D01*
X140094175Y-85315206D01*
X140275515Y-85114777D01*
X140562528Y-84904301D01*
X140995828Y-84618717D01*
X141061582Y-84582275D01*
X141021235Y-84635013D01*
G36*
X145106157Y-83374814D02*
X146032027Y-83583881D01*
X146037529Y-83584996D01*
X146915212Y-83742782D01*
X148012358Y-84173804D01*
X148947304Y-84764296D01*
X149541709Y-85220006D01*
X150284231Y-85814023D01*
X150793401Y-86342777D01*
X151130900Y-86786347D01*
X151295354Y-87133528D01*
X151323262Y-87468425D01*
X151351454Y-88032262D01*
X151048897Y-88620567D01*
X150619311Y-88554477D01*
X150619072Y-88554440D01*
X149829072Y-88434440D01*
X149819194Y-88433333D01*
X148579194Y-88343333D01*
X148572539Y-88343025D01*
X148072539Y-88333025D01*
X148065949Y-88333065D01*
X147125949Y-88363065D01*
X147124127Y-88363136D01*
X146044127Y-88413136D01*
X146043812Y-88413151D01*
X145224555Y-88453115D01*
X144695211Y-88473090D01*
X144694601Y-88473115D01*
X144240009Y-88492459D01*
X144255164Y-88401527D01*
X144285068Y-88232071D01*
X144285886Y-88226785D01*
X144305886Y-88076785D01*
X144307000Y-88060000D01*
X144307000Y-87940000D01*
X144303748Y-87911443D01*
X144273748Y-87781443D01*
X144266352Y-87759096D01*
X144196352Y-87599096D01*
X144183344Y-87576183D01*
X144083344Y-87436183D01*
X144059336Y-87410830D01*
X143909336Y-87290830D01*
X143903239Y-87286245D01*
X143733239Y-87166245D01*
X143720814Y-87158507D01*
X143501461Y-87038860D01*
X143092135Y-86809238D01*
X143089765Y-86807941D01*
X142641271Y-86568744D01*
X142138477Y-86282842D01*
X141933817Y-86136656D01*
X141932290Y-86135582D01*
X141821275Y-86058725D01*
X141752589Y-85959512D01*
X141684800Y-85790039D01*
X141668102Y-85606370D01*
X141712921Y-85373311D01*
X141764100Y-85228305D01*
X141839155Y-85119893D01*
X141967739Y-84982123D01*
X142080414Y-84886783D01*
X142193681Y-84830150D01*
X142384643Y-84784682D01*
X142565347Y-84756150D01*
X142905433Y-84727000D01*
X143138017Y-84727000D01*
X143451182Y-84736786D01*
X143813394Y-84775944D01*
X144260479Y-84845491D01*
X144289740Y-84846626D01*
X144419740Y-84836626D01*
X144466796Y-84823592D01*
X144526796Y-84793592D01*
X144553630Y-84775577D01*
X144633630Y-84705577D01*
X144664226Y-84665510D01*
X144677000Y-84610000D01*
X144677000Y-84560000D01*
X144655670Y-84489553D01*
X144595670Y-84399553D01*
X144577041Y-84377519D01*
X144407041Y-84217519D01*
X144387310Y-84202304D01*
X144147310Y-84052304D01*
X144126279Y-84041732D01*
X143896279Y-83951732D01*
X143862637Y-83943630D01*
X143462637Y-83903630D01*
X143462041Y-83903572D01*
X143252041Y-83883572D01*
X143243847Y-83883058D01*
X142913847Y-83873058D01*
X142902755Y-83873207D01*
X142552755Y-83893207D01*
X142542039Y-83894276D01*
X142290693Y-83930183D01*
X142485388Y-83834288D01*
X142923970Y-83624965D01*
X143307160Y-83448108D01*
X143814590Y-83275773D01*
X144293835Y-83247582D01*
X145106157Y-83374814D01*
X145106157Y-83374814D01*
G37*
X145106157Y-83374814D02*
X146032027Y-83583881D01*
X146037529Y-83584996D01*
X146915212Y-83742782D01*
X148012358Y-84173804D01*
X148947304Y-84764296D01*
X149541709Y-85220006D01*
X150284231Y-85814023D01*
X150793401Y-86342777D01*
X151130900Y-86786347D01*
X151295354Y-87133528D01*
X151323262Y-87468425D01*
X151351454Y-88032262D01*
X151048897Y-88620567D01*
X150619311Y-88554477D01*
X150619072Y-88554440D01*
X149829072Y-88434440D01*
X149819194Y-88433333D01*
X148579194Y-88343333D01*
X148572539Y-88343025D01*
X148072539Y-88333025D01*
X148065949Y-88333065D01*
X147125949Y-88363065D01*
X147124127Y-88363136D01*
X146044127Y-88413136D01*
X146043812Y-88413151D01*
X145224555Y-88453115D01*
X144695211Y-88473090D01*
X144694601Y-88473115D01*
X144240009Y-88492459D01*
X144255164Y-88401527D01*
X144285068Y-88232071D01*
X144285886Y-88226785D01*
X144305886Y-88076785D01*
X144307000Y-88060000D01*
X144307000Y-87940000D01*
X144303748Y-87911443D01*
X144273748Y-87781443D01*
X144266352Y-87759096D01*
X144196352Y-87599096D01*
X144183344Y-87576183D01*
X144083344Y-87436183D01*
X144059336Y-87410830D01*
X143909336Y-87290830D01*
X143903239Y-87286245D01*
X143733239Y-87166245D01*
X143720814Y-87158507D01*
X143501461Y-87038860D01*
X143092135Y-86809238D01*
X143089765Y-86807941D01*
X142641271Y-86568744D01*
X142138477Y-86282842D01*
X141933817Y-86136656D01*
X141932290Y-86135582D01*
X141821275Y-86058725D01*
X141752589Y-85959512D01*
X141684800Y-85790039D01*
X141668102Y-85606370D01*
X141712921Y-85373311D01*
X141764100Y-85228305D01*
X141839155Y-85119893D01*
X141967739Y-84982123D01*
X142080414Y-84886783D01*
X142193681Y-84830150D01*
X142384643Y-84784682D01*
X142565347Y-84756150D01*
X142905433Y-84727000D01*
X143138017Y-84727000D01*
X143451182Y-84736786D01*
X143813394Y-84775944D01*
X144260479Y-84845491D01*
X144289740Y-84846626D01*
X144419740Y-84836626D01*
X144466796Y-84823592D01*
X144526796Y-84793592D01*
X144553630Y-84775577D01*
X144633630Y-84705577D01*
X144664226Y-84665510D01*
X144677000Y-84610000D01*
X144677000Y-84560000D01*
X144655670Y-84489553D01*
X144595670Y-84399553D01*
X144577041Y-84377519D01*
X144407041Y-84217519D01*
X144387310Y-84202304D01*
X144147310Y-84052304D01*
X144126279Y-84041732D01*
X143896279Y-83951732D01*
X143862637Y-83943630D01*
X143462637Y-83903630D01*
X143462041Y-83903572D01*
X143252041Y-83883572D01*
X143243847Y-83883058D01*
X142913847Y-83873058D01*
X142902755Y-83873207D01*
X142552755Y-83893207D01*
X142542039Y-83894276D01*
X142290693Y-83930183D01*
X142485388Y-83834288D01*
X142923970Y-83624965D01*
X143307160Y-83448108D01*
X143814590Y-83275773D01*
X144293835Y-83247582D01*
X145106157Y-83374814D01*
M02*
