G04 #@! TF.FileFunction,Legend,Bot*
%FSLAX46Y46*%
G04 Gerber Fmt 4.6, Leading zero omitted, Abs format (unit mm)*
G04 Created by KiCad (PCBNEW 4.0.5+dfsg1-4) date Sat Aug 24 03:06:04 2019*
%MOMM*%
%LPD*%
G01*
G04 APERTURE LIST*
%ADD10C,0.100000*%
%ADD11C,0.120000*%
%ADD12C,0.150000*%
%ADD13C,0.076200*%
G04 APERTURE END LIST*
D10*
D11*
X149983370Y-113863828D02*
X150640979Y-113206218D01*
X152217828Y-111629370D02*
X151560218Y-112286979D01*
X152217828Y-111629370D02*
X153745178Y-113156721D01*
X149983370Y-113863828D02*
X151015746Y-114896203D01*
D12*
X155027790Y-112506940D02*
X157257163Y-112679848D01*
X143027448Y-105296406D02*
X155027790Y-112506940D01*
X141828152Y-103409163D02*
X143027448Y-105296406D01*
X160516612Y-111138423D02*
X162061726Y-108566921D01*
X141658931Y-99807585D02*
X143204045Y-97236083D01*
X157257163Y-112679848D02*
X160516612Y-111138423D01*
X141658931Y-99807585D02*
X141828152Y-103409163D01*
X159328381Y-91758327D02*
X167557925Y-95536502D01*
X152128913Y-86265817D02*
X159328381Y-91758327D01*
X143204045Y-97236083D02*
X146294274Y-92093079D01*
X165151955Y-103423917D02*
X162061726Y-108566921D01*
X168242183Y-98280913D02*
X165151955Y-103423917D01*
X167557925Y-95536502D02*
X168242183Y-98280913D01*
X149384502Y-86950075D02*
X152128913Y-86265817D01*
X146294274Y-92093079D02*
X149384502Y-86950075D01*
X164227875Y-100330000D02*
G75*
G03X164227875Y-100330000I-10049875J0D01*
G01*
X148608240Y-112021071D02*
X148608240Y-113435285D01*
X148608240Y-113435285D02*
X144224178Y-117819347D01*
X144224178Y-117819347D02*
X137704653Y-111299822D01*
X137704653Y-111299822D02*
X142795822Y-106208653D01*
X142795822Y-106208653D02*
X148608240Y-112021071D01*
X150230884Y-83991609D02*
X151686369Y-85212906D01*
X149523818Y-84834258D02*
X150979302Y-86055555D01*
X150566791Y-84991442D02*
X150911511Y-85280697D01*
X150367792Y-85150814D02*
X150689186Y-84767792D01*
X150528489Y-84959303D02*
X150559303Y-85311511D01*
X150559303Y-85311511D02*
X150880697Y-84928489D01*
X150880697Y-84928489D02*
X150528489Y-84959303D01*
X168271744Y-102938850D02*
X168978850Y-102231744D01*
X168024256Y-101277150D02*
X167317150Y-101984256D01*
X139708000Y-91353000D02*
X140708000Y-91353000D01*
X140708000Y-90003000D02*
X139708000Y-90003000D01*
X142187504Y-89058849D02*
X144064112Y-88761624D01*
X142359582Y-90145306D02*
X144236190Y-89848081D01*
X143162462Y-89461287D02*
X143606922Y-89390891D01*
X143152187Y-89716031D02*
X143073969Y-89222187D01*
X143113078Y-89469109D02*
X143399109Y-89676922D01*
X143399109Y-89676922D02*
X143320891Y-89183078D01*
X143320891Y-89183078D02*
X143113078Y-89469109D01*
D13*
X147066000Y-118110000D02*
X147066000Y-116840000D01*
X147066000Y-116840000D02*
X152146000Y-116840000D01*
X152146000Y-116840000D02*
X152146000Y-118110000D01*
X152146000Y-118110000D02*
X147066000Y-118110000D01*
X147066000Y-118110000D02*
X152146000Y-116840000D01*
X152146000Y-116840000D02*
X152146000Y-118110000D01*
X152146000Y-118110000D02*
X147066000Y-116840000D01*
D12*
X136322936Y-116040577D02*
X136842552Y-115740577D01*
X137222936Y-117599423D02*
X136322936Y-116040577D01*
X137396142Y-117499423D02*
X137222936Y-117599423D01*
X137742552Y-117299423D02*
X137396142Y-117499423D01*
X136192552Y-114614744D02*
X136452359Y-114464744D01*
X138442552Y-118511858D02*
X136192552Y-114614744D01*
X138702359Y-118361858D02*
X138442552Y-118511858D01*
X140347808Y-117411858D02*
X139828192Y-117711858D01*
X138097808Y-113514744D02*
X137578192Y-113814744D01*
X141560243Y-116711858D02*
X139310243Y-112814744D01*
X155145796Y-100244863D02*
X154998818Y-100212104D01*
X154933474Y-100228396D01*
X154843606Y-100285506D01*
X154770029Y-100407958D01*
X154761795Y-100514119D01*
X154778087Y-100579462D01*
X154835196Y-100669330D01*
X155161737Y-100865536D01*
X155676775Y-100008368D01*
X155391052Y-99836689D01*
X155284891Y-99828455D01*
X155219548Y-99844747D01*
X155129680Y-99901856D01*
X155080629Y-99983491D01*
X155072395Y-100089651D01*
X155088687Y-100154994D01*
X155145796Y-100244863D01*
X155431519Y-100416543D01*
X154942060Y-99566907D02*
X154452250Y-99272599D01*
X154182117Y-100276921D02*
X154697155Y-99419753D01*
X153202497Y-99688305D02*
X153692307Y-99982613D01*
X153447402Y-99835459D02*
X153962440Y-98978292D01*
X153970498Y-99149796D01*
X154003082Y-99280482D01*
X154060191Y-99370350D01*
X137850571Y-100758667D02*
X137850571Y-100425333D01*
X138374381Y-100425333D02*
X137374381Y-100425333D01*
X137374381Y-100901524D01*
X138374381Y-101806286D02*
X138374381Y-101234857D01*
X138374381Y-101520571D02*
X137374381Y-101520571D01*
X137517238Y-101425333D01*
X137612476Y-101330095D01*
X137660095Y-101234857D01*
X170363732Y-100532031D02*
X170262717Y-99959610D01*
X170767794Y-100127970D02*
X170060687Y-99420863D01*
X169791312Y-99690237D01*
X169757641Y-99791253D01*
X169757641Y-99858596D01*
X169791312Y-99959611D01*
X169892328Y-100060626D01*
X169993343Y-100094298D01*
X170060686Y-100094298D01*
X170161701Y-100060626D01*
X170431076Y-99791252D01*
X169690297Y-101205466D02*
X170094359Y-100801405D01*
X169892328Y-101003435D02*
X169185222Y-100296328D01*
X169353580Y-100330000D01*
X169488267Y-100330000D01*
X169589282Y-100296328D01*
X138036666Y-92562381D02*
X138370000Y-92086190D01*
X138608095Y-92562381D02*
X138608095Y-91562381D01*
X138227142Y-91562381D01*
X138131904Y-91610000D01*
X138084285Y-91657619D01*
X138036666Y-91752857D01*
X138036666Y-91895714D01*
X138084285Y-91990952D01*
X138131904Y-92038571D01*
X138227142Y-92086190D01*
X138608095Y-92086190D01*
X137655714Y-91657619D02*
X137608095Y-91610000D01*
X137512857Y-91562381D01*
X137274761Y-91562381D01*
X137179523Y-91610000D01*
X137131904Y-91657619D01*
X137084285Y-91752857D01*
X137084285Y-91848095D01*
X137131904Y-91990952D01*
X137703333Y-92562381D01*
X137084285Y-92562381D01*
M02*
