G04 #@! TF.FileFunction,Copper,L2,Bot,Signal*
%FSLAX46Y46*%
G04 Gerber Fmt 4.6, Leading zero omitted, Abs format (unit mm)*
G04 Created by KiCad (PCBNEW 4.0.5+dfsg1-4) date Sun Sep 22 01:50:27 2019*
%MOMM*%
%LPD*%
G01*
G04 APERTURE LIST*
%ADD10C,0.100000*%
%ADD11C,0.787400*%
%ADD12R,2.029460X2.651760*%
%ADD13R,1.200000X0.900000*%
%ADD14C,16.500000*%
%ADD15C,0.600000*%
%ADD16C,0.250000*%
%ADD17C,0.254000*%
G04 APERTURE END LIST*
D10*
D11*
X147066000Y-116840000D03*
X148336000Y-116840000D03*
X149606000Y-116840000D03*
X150876000Y-116840000D03*
X152146000Y-116840000D03*
X152146000Y-118110000D03*
X150876000Y-118110000D03*
X149606000Y-118110000D03*
X148336000Y-118110000D03*
X147066000Y-118110000D03*
D10*
G36*
X153617899Y-113354710D02*
X153052213Y-113920396D01*
X152415817Y-113284000D01*
X152981503Y-112718314D01*
X153617899Y-113354710D01*
X153617899Y-113354710D01*
G37*
G36*
X152274396Y-114698213D02*
X151708710Y-115263899D01*
X151072314Y-114627503D01*
X151638000Y-114061817D01*
X152274396Y-114698213D01*
X152274396Y-114698213D01*
G37*
G36*
X151531934Y-112612248D02*
X150966248Y-113177934D01*
X150329852Y-112541538D01*
X150895538Y-111975852D01*
X151531934Y-112612248D01*
X151531934Y-112612248D01*
G37*
D12*
X139954000Y-102923340D03*
X139954000Y-98752660D03*
D10*
G36*
X148608239Y-112728178D02*
X147052605Y-114283812D01*
X146628341Y-113859548D01*
X148183975Y-112303914D01*
X148608239Y-112728178D01*
X148608239Y-112728178D01*
G37*
G36*
X145779812Y-115556605D02*
X144224178Y-117112239D01*
X143799914Y-116687975D01*
X145355548Y-115132341D01*
X145779812Y-115556605D01*
X145779812Y-115556605D01*
G37*
G36*
X147710214Y-111830153D02*
X146154580Y-113385787D01*
X145730316Y-112961523D01*
X147285950Y-111405889D01*
X147710214Y-111830153D01*
X147710214Y-111830153D01*
G37*
G36*
X144881787Y-114658580D02*
X143326153Y-116214214D01*
X142901889Y-115789950D01*
X144457523Y-114234316D01*
X144881787Y-114658580D01*
X144881787Y-114658580D01*
G37*
G36*
X146812188Y-110932127D02*
X145256554Y-112487761D01*
X144832290Y-112063497D01*
X146387924Y-110507863D01*
X146812188Y-110932127D01*
X146812188Y-110932127D01*
G37*
G36*
X143983761Y-113760554D02*
X142428127Y-115316188D01*
X142003863Y-114891924D01*
X143559497Y-113336290D01*
X143983761Y-113760554D01*
X143983761Y-113760554D01*
G37*
G36*
X145914163Y-110034101D02*
X144358529Y-111589735D01*
X143934265Y-111165471D01*
X145489899Y-109609837D01*
X145914163Y-110034101D01*
X145914163Y-110034101D01*
G37*
G36*
X143085735Y-112862529D02*
X141530101Y-114418163D01*
X141105837Y-113993899D01*
X142661471Y-112438265D01*
X143085735Y-112862529D01*
X143085735Y-112862529D01*
G37*
G36*
X145016137Y-109136076D02*
X143460503Y-110691710D01*
X143036239Y-110267446D01*
X144591873Y-108711812D01*
X145016137Y-109136076D01*
X145016137Y-109136076D01*
G37*
G36*
X142187710Y-111964503D02*
X140632076Y-113520137D01*
X140207812Y-113095873D01*
X141763446Y-111540239D01*
X142187710Y-111964503D01*
X142187710Y-111964503D01*
G37*
G36*
X144118111Y-108238050D02*
X142562477Y-109793684D01*
X142138213Y-109369420D01*
X143693847Y-107813786D01*
X144118111Y-108238050D01*
X144118111Y-108238050D01*
G37*
G36*
X141289684Y-111066477D02*
X139734050Y-112622111D01*
X139309786Y-112197847D01*
X140865420Y-110642213D01*
X141289684Y-111066477D01*
X141289684Y-111066477D01*
G37*
G36*
X143220086Y-107340025D02*
X141664452Y-108895659D01*
X141240188Y-108471395D01*
X142795822Y-106915761D01*
X143220086Y-107340025D01*
X143220086Y-107340025D01*
G37*
G36*
X140391659Y-110168452D02*
X138836025Y-111724086D01*
X138411761Y-111299822D01*
X139967395Y-109744188D01*
X140391659Y-110168452D01*
X140391659Y-110168452D01*
G37*
G36*
X151855811Y-85552489D02*
X151343149Y-86163455D01*
X150732183Y-85650793D01*
X151244845Y-85039827D01*
X151855811Y-85552489D01*
X151855811Y-85552489D01*
G37*
G36*
X150707817Y-84589207D02*
X150195155Y-85200173D01*
X149584189Y-84687511D01*
X150096851Y-84076545D01*
X150707817Y-84589207D01*
X150707817Y-84589207D01*
G37*
G36*
X142828438Y-90003469D02*
X142703672Y-89215729D01*
X143491412Y-89090963D01*
X143616178Y-89878703D01*
X142828438Y-90003469D01*
X142828438Y-90003469D01*
G37*
G36*
X144308588Y-89769037D02*
X144183822Y-88981297D01*
X144971562Y-88856531D01*
X145096328Y-89644271D01*
X144308588Y-89769037D01*
X144308588Y-89769037D01*
G37*
G36*
X141465387Y-116997564D02*
X140556061Y-117522564D01*
X139856061Y-116310128D01*
X140765387Y-115785128D01*
X141465387Y-116997564D01*
X141465387Y-116997564D01*
G37*
G36*
X139665387Y-113879872D02*
X138756061Y-114404872D01*
X138056061Y-113192436D01*
X138965387Y-112667436D01*
X139665387Y-113879872D01*
X139665387Y-113879872D01*
G37*
G36*
X139819939Y-117947564D02*
X138910613Y-118472564D01*
X138210613Y-117260128D01*
X139119939Y-116735128D01*
X139819939Y-117947564D01*
X139819939Y-117947564D01*
G37*
G36*
X138019939Y-114829872D02*
X137110613Y-115354872D01*
X136410613Y-114142436D01*
X137319939Y-113617436D01*
X138019939Y-114829872D01*
X138019939Y-114829872D01*
G37*
G36*
X169031883Y-100587721D02*
X169668279Y-101224117D01*
X168819751Y-102072645D01*
X168183355Y-101436249D01*
X169031883Y-100587721D01*
X169031883Y-100587721D01*
G37*
G36*
X167476249Y-102143355D02*
X168112645Y-102779751D01*
X167264117Y-103628279D01*
X166627721Y-102991883D01*
X167476249Y-102143355D01*
X167476249Y-102143355D01*
G37*
D13*
X141308000Y-90678000D03*
X139108000Y-90678000D03*
D10*
G36*
X142364354Y-96206560D02*
X144991048Y-91835007D01*
X147133966Y-93122602D01*
X144507272Y-97494155D01*
X142364354Y-96206560D01*
X142364354Y-96206560D01*
G37*
G36*
X161222034Y-107537398D02*
X163848728Y-103165845D01*
X165991646Y-104453440D01*
X163364952Y-108824993D01*
X161222034Y-107537398D01*
X161222034Y-107537398D01*
G37*
D14*
X154178000Y-100330000D03*
D15*
X150490000Y-109220000D03*
X150870000Y-110040000D03*
X150310000Y-110850000D03*
X149830000Y-111610000D03*
X149430000Y-113210000D03*
X167370183Y-102885817D03*
X139108000Y-90678000D03*
X158229300Y-109474000D03*
X151673355Y-114662858D03*
X150361768Y-115798232D03*
X137215276Y-114486154D03*
X147618290Y-113293863D03*
X156718000Y-114300000D03*
X147066000Y-116840000D03*
X143891838Y-115224265D03*
X149606000Y-116840000D03*
X142993812Y-114326239D03*
X152320000Y-115480000D03*
X152146000Y-118110000D03*
D16*
X158424999Y-91104999D02*
X156770000Y-89450000D01*
X156770000Y-89450000D02*
X152921641Y-85601641D01*
X149145001Y-91104999D02*
X150800000Y-89450000D01*
X150800000Y-89450000D02*
X156770000Y-89450000D01*
X145781738Y-91104999D02*
X149145001Y-91104999D01*
X152921641Y-85601641D02*
X151293997Y-85601641D01*
X158606001Y-91104999D02*
X158424999Y-91104999D01*
X143159925Y-89547216D02*
X143299689Y-89547216D01*
X143299689Y-89547216D02*
X144215384Y-88631521D01*
X144215384Y-88631521D02*
X145064766Y-88631521D01*
X145064766Y-88631521D02*
X145781738Y-89348493D01*
X145781738Y-89348493D02*
X145781738Y-91104999D01*
X153016858Y-113319355D02*
X153016858Y-115563142D01*
X153016858Y-115563142D02*
X152458701Y-116121299D01*
X152458701Y-116121299D02*
X151037926Y-116121299D01*
X151037926Y-116121299D02*
X150876000Y-116283225D01*
X150876000Y-116283225D02*
X150876000Y-116840000D01*
X144749160Y-92137577D02*
X144749160Y-94664581D01*
X145781738Y-91104999D02*
X144749160Y-92137577D01*
X143291975Y-93789016D02*
X139954000Y-97126991D01*
X143291975Y-93789016D02*
X143398062Y-93682929D01*
X143398062Y-93682929D02*
X143767508Y-93682929D01*
X143767508Y-93682929D02*
X144749160Y-94664581D01*
X153016858Y-113319355D02*
X158750645Y-113319355D01*
X158750645Y-113319355D02*
X162450000Y-109620000D01*
X162450000Y-109620000D02*
X162450000Y-107152259D01*
X162450000Y-107152259D02*
X163606840Y-105995419D01*
X158606001Y-91104999D02*
X165064025Y-97563023D01*
X165064025Y-97563023D02*
X165064025Y-102675975D01*
X165064025Y-102675975D02*
X165060000Y-102680000D01*
X165060000Y-102680000D02*
X165060000Y-104542259D01*
X165060000Y-104542259D02*
X163606840Y-105995419D01*
X139954000Y-97126991D02*
X139954000Y-98752660D01*
X161910000Y-106730000D02*
X163610000Y-105030000D01*
X161910000Y-107119109D02*
X161910000Y-106730000D01*
X151747786Y-111760000D02*
X151747786Y-102760214D01*
X151747786Y-102760214D02*
X154178000Y-100330000D01*
X150930893Y-112576893D02*
X151747786Y-111760000D01*
X150490000Y-109220000D02*
X150190001Y-108920001D01*
X150190001Y-108920001D02*
X149840001Y-108920001D01*
X144770000Y-107840000D02*
X144080000Y-107150000D01*
X149840001Y-108920001D02*
X148760000Y-107840000D01*
X148760000Y-107840000D02*
X144770000Y-107840000D01*
X144080000Y-107150000D02*
X143510111Y-107150000D01*
X143510111Y-107150000D02*
X142754401Y-107905710D01*
X142754401Y-107905710D02*
X142230137Y-107905710D01*
X148470000Y-108270000D02*
X144186161Y-108270000D01*
X144186161Y-108270000D02*
X143652426Y-108803735D01*
X143652426Y-108803735D02*
X143128162Y-108803735D01*
X150240000Y-110040000D02*
X148470000Y-108270000D01*
X150870000Y-110040000D02*
X150240000Y-110040000D01*
X150310000Y-110850000D02*
X148313234Y-108853234D01*
X148313234Y-108853234D02*
X144874715Y-108853234D01*
X144874715Y-108853234D02*
X144026188Y-109701761D01*
X149830000Y-111610000D02*
X147971259Y-109751259D01*
X147971259Y-109751259D02*
X145772741Y-109751259D01*
X145772741Y-109751259D02*
X144924214Y-110599786D01*
X148040000Y-110720000D02*
X147124315Y-110720000D01*
X147124315Y-110720000D02*
X146346503Y-111497812D01*
X146346503Y-111497812D02*
X145822239Y-111497812D01*
X149430000Y-112110000D02*
X148040000Y-110720000D01*
X149430000Y-113210000D02*
X149430000Y-112110000D01*
X168678330Y-100540918D02*
X168872948Y-100540918D01*
X168872948Y-100540918D02*
X168925817Y-100593787D01*
X168925817Y-100593787D02*
X168925817Y-101330183D01*
X150146003Y-84638359D02*
X152775771Y-84638359D01*
X152775771Y-84638359D02*
X168678330Y-100540918D01*
X141308000Y-90678000D02*
X143274859Y-90678000D01*
X143274859Y-90678000D02*
X144640075Y-89312784D01*
X145206797Y-114472797D02*
X139954000Y-109220000D01*
X139954000Y-109220000D02*
X139954000Y-102923340D01*
X144789863Y-116122290D02*
X144789863Y-115210140D01*
X144789863Y-115210140D02*
X145206797Y-114793206D01*
X145206797Y-114793206D02*
X145206797Y-114472797D01*
X167759091Y-103274725D02*
X167759091Y-103279091D01*
X153230000Y-83000000D02*
X147660000Y-83000000D01*
X155850000Y-85620000D02*
X153230000Y-83000000D01*
X155850000Y-85900000D02*
X155850000Y-85620000D01*
X170470000Y-100520000D02*
X155850000Y-85900000D01*
X170470000Y-101520000D02*
X170470000Y-100520000D01*
X169920000Y-102070000D02*
X170470000Y-101520000D01*
X169920000Y-102080000D02*
X169920000Y-102070000D01*
X167759091Y-103279091D02*
X168006585Y-103526585D01*
X168006585Y-103526585D02*
X168030000Y-103550000D01*
X167370183Y-102885817D02*
X167370183Y-103622213D01*
X167370183Y-103622213D02*
X167377071Y-103629101D01*
X167377071Y-103629101D02*
X167904069Y-103629101D01*
X167904069Y-103629101D02*
X168006585Y-103526585D01*
X168030000Y-103550000D02*
X168450000Y-103550000D01*
X168450000Y-103550000D02*
X169920000Y-102080000D01*
X148336000Y-116840000D02*
X149377768Y-115798232D01*
X149377768Y-115798232D02*
X150361768Y-115798232D01*
X148021058Y-113696631D02*
X148906631Y-113696631D01*
X151284447Y-114273950D02*
X151673355Y-114662858D01*
X148906631Y-113696631D02*
X149483950Y-114273950D01*
X149483950Y-114273950D02*
X151284447Y-114273950D01*
X137798421Y-115446421D02*
X139015276Y-116663276D01*
X139015276Y-116663276D02*
X139015276Y-117603846D01*
X137215276Y-114486154D02*
X137798421Y-115069299D01*
X137798421Y-115069299D02*
X137798421Y-115446421D01*
X139458000Y-90678000D02*
X139458000Y-92698000D01*
X139458000Y-92698000D02*
X137414000Y-94742000D01*
X148021058Y-113696631D02*
X147618290Y-113293863D01*
X156718000Y-114371046D02*
X156718000Y-114300000D01*
X138860724Y-113536154D02*
X138860724Y-112014000D01*
X139401710Y-110734137D02*
X139401710Y-111473014D01*
X139401710Y-111473014D02*
X138860724Y-112014000D01*
X138860724Y-113536154D02*
X138860724Y-114853846D01*
X138860724Y-114853846D02*
X140660724Y-116653846D01*
X143229443Y-115886660D02*
X143891838Y-115224265D01*
X142540051Y-114780000D02*
X142993812Y-114326239D01*
X150430000Y-114840000D02*
X151078909Y-115488909D01*
X151078909Y-115488909D02*
X152311091Y-115488909D01*
X152311091Y-115488909D02*
X152320000Y-115480000D01*
X142095786Y-113428214D02*
X141247259Y-114276741D01*
X141247259Y-114276741D02*
X141247259Y-114453534D01*
X141247259Y-114453534D02*
X144130974Y-117337249D01*
X144130974Y-117337249D02*
X144867705Y-117337249D01*
X144867705Y-117337249D02*
X147364954Y-114840000D01*
X147364954Y-114840000D02*
X150430000Y-114840000D01*
D17*
G36*
X137261761Y-114312669D02*
X137279082Y-114302669D01*
X137406082Y-114522639D01*
X137388761Y-114532639D01*
X137913386Y-115441316D01*
X138130243Y-115499423D01*
X138228053Y-115442952D01*
X138321732Y-115388866D01*
X138323323Y-115391247D01*
X139037569Y-116105493D01*
X138911827Y-116122047D01*
X138693053Y-116248357D01*
X138595243Y-116304827D01*
X138537136Y-116521684D01*
X139061761Y-117430361D01*
X139079082Y-117420361D01*
X139206082Y-117640331D01*
X139188761Y-117650331D01*
X139713386Y-118559008D01*
X139930243Y-118617115D01*
X140028053Y-118560644D01*
X140246827Y-118434335D01*
X140400611Y-118233919D01*
X140423398Y-118148874D01*
X140636133Y-118165033D01*
X140879781Y-118083263D01*
X141257262Y-117865324D01*
X141243520Y-117885452D01*
X141217412Y-117946744D01*
X141179711Y-118001671D01*
X141055089Y-118292227D01*
X140454523Y-118916198D01*
X139562027Y-119615894D01*
X139052523Y-119878313D01*
X138397420Y-120023951D01*
X137627863Y-120069314D01*
X137083787Y-120009597D01*
X136943022Y-119921237D01*
X136897705Y-119853626D01*
X136939782Y-119646241D01*
X136987791Y-119529047D01*
X137194941Y-119384569D01*
X137209871Y-119369030D01*
X137229039Y-119359179D01*
X137713508Y-118974496D01*
X137742342Y-118940495D01*
X137779041Y-118915179D01*
X138102019Y-118582483D01*
X138105553Y-118577021D01*
X138110837Y-118573228D01*
X138175427Y-118469184D01*
X138423841Y-118899451D01*
X138624257Y-119053235D01*
X138868268Y-119118618D01*
X139118725Y-119085645D01*
X139337499Y-118959335D01*
X139435309Y-118902865D01*
X139493416Y-118686008D01*
X138968791Y-117777331D01*
X138951470Y-117787331D01*
X138824470Y-117567361D01*
X138841791Y-117557361D01*
X138317166Y-116648684D01*
X138191950Y-116615132D01*
X138040772Y-116211824D01*
X138008170Y-116159239D01*
X137987409Y-116100949D01*
X137685921Y-115596287D01*
X137693416Y-115568316D01*
X137168791Y-114659639D01*
X137151470Y-114669639D01*
X137024470Y-114449669D01*
X137041791Y-114439669D01*
X137031791Y-114422348D01*
X137251761Y-114295348D01*
X137261761Y-114312669D01*
X137261761Y-114312669D01*
G37*
X137261761Y-114312669D02*
X137279082Y-114302669D01*
X137406082Y-114522639D01*
X137388761Y-114532639D01*
X137913386Y-115441316D01*
X138130243Y-115499423D01*
X138228053Y-115442952D01*
X138321732Y-115388866D01*
X138323323Y-115391247D01*
X139037569Y-116105493D01*
X138911827Y-116122047D01*
X138693053Y-116248357D01*
X138595243Y-116304827D01*
X138537136Y-116521684D01*
X139061761Y-117430361D01*
X139079082Y-117420361D01*
X139206082Y-117640331D01*
X139188761Y-117650331D01*
X139713386Y-118559008D01*
X139930243Y-118617115D01*
X140028053Y-118560644D01*
X140246827Y-118434335D01*
X140400611Y-118233919D01*
X140423398Y-118148874D01*
X140636133Y-118165033D01*
X140879781Y-118083263D01*
X141257262Y-117865324D01*
X141243520Y-117885452D01*
X141217412Y-117946744D01*
X141179711Y-118001671D01*
X141055089Y-118292227D01*
X140454523Y-118916198D01*
X139562027Y-119615894D01*
X139052523Y-119878313D01*
X138397420Y-120023951D01*
X137627863Y-120069314D01*
X137083787Y-120009597D01*
X136943022Y-119921237D01*
X136897705Y-119853626D01*
X136939782Y-119646241D01*
X136987791Y-119529047D01*
X137194941Y-119384569D01*
X137209871Y-119369030D01*
X137229039Y-119359179D01*
X137713508Y-118974496D01*
X137742342Y-118940495D01*
X137779041Y-118915179D01*
X138102019Y-118582483D01*
X138105553Y-118577021D01*
X138110837Y-118573228D01*
X138175427Y-118469184D01*
X138423841Y-118899451D01*
X138624257Y-119053235D01*
X138868268Y-119118618D01*
X139118725Y-119085645D01*
X139337499Y-118959335D01*
X139435309Y-118902865D01*
X139493416Y-118686008D01*
X138968791Y-117777331D01*
X138951470Y-117787331D01*
X138824470Y-117567361D01*
X138841791Y-117557361D01*
X138317166Y-116648684D01*
X138191950Y-116615132D01*
X138040772Y-116211824D01*
X138008170Y-116159239D01*
X137987409Y-116100949D01*
X137685921Y-115596287D01*
X137693416Y-115568316D01*
X137168791Y-114659639D01*
X137151470Y-114669639D01*
X137024470Y-114449669D01*
X137041791Y-114439669D01*
X137031791Y-114422348D01*
X137251761Y-114295348D01*
X137261761Y-114312669D01*
G36*
X148529748Y-116825858D02*
X148515605Y-116840000D01*
X148529748Y-116854143D01*
X148350143Y-117033748D01*
X148336000Y-117019605D01*
X148321858Y-117033748D01*
X148142253Y-116854143D01*
X148156395Y-116840000D01*
X148142253Y-116825858D01*
X148321858Y-116646253D01*
X148336000Y-116660395D01*
X148350143Y-116646253D01*
X148529748Y-116825858D01*
X148529748Y-116825858D01*
G37*
X148529748Y-116825858D02*
X148515605Y-116840000D01*
X148529748Y-116854143D01*
X148350143Y-117033748D01*
X148336000Y-117019605D01*
X148321858Y-117033748D01*
X148142253Y-116854143D01*
X148156395Y-116840000D01*
X148142253Y-116825858D01*
X148321858Y-116646253D01*
X148336000Y-116660395D01*
X148350143Y-116646253D01*
X148529748Y-116825858D01*
G36*
X157541129Y-114182922D02*
X156395742Y-115048779D01*
X155518313Y-115682548D01*
X154747949Y-116145966D01*
X154720681Y-116170760D01*
X154687522Y-116186850D01*
X154546445Y-116293680D01*
X154546496Y-116235156D01*
X154374781Y-115819573D01*
X154057100Y-115501337D01*
X153776858Y-115384971D01*
X153776858Y-114111369D01*
X153808872Y-114079355D01*
X157674087Y-114079355D01*
X157541129Y-114182922D01*
X157541129Y-114182922D01*
G37*
X157541129Y-114182922D02*
X156395742Y-115048779D01*
X155518313Y-115682548D01*
X154747949Y-116145966D01*
X154720681Y-116170760D01*
X154687522Y-116186850D01*
X154546445Y-116293680D01*
X154546496Y-116235156D01*
X154374781Y-115819573D01*
X154057100Y-115501337D01*
X153776858Y-115384971D01*
X153776858Y-114111369D01*
X153808872Y-114079355D01*
X157674087Y-114079355D01*
X157541129Y-114182922D01*
G36*
X150307526Y-115792328D02*
X150189708Y-115968656D01*
X150189472Y-115968419D01*
X149811519Y-115811479D01*
X149402277Y-115811122D01*
X149024050Y-115967402D01*
X148868609Y-116122572D01*
X148845219Y-115923054D01*
X148455557Y-115797983D01*
X148047693Y-115831549D01*
X147826781Y-115923054D01*
X147803387Y-116122603D01*
X147649472Y-115968419D01*
X147410547Y-115869209D01*
X147679756Y-115600000D01*
X150115198Y-115600000D01*
X150307526Y-115792328D01*
X150307526Y-115792328D01*
G37*
X150307526Y-115792328D02*
X150189708Y-115968656D01*
X150189472Y-115968419D01*
X149811519Y-115811479D01*
X149402277Y-115811122D01*
X149024050Y-115967402D01*
X148868609Y-116122572D01*
X148845219Y-115923054D01*
X148455557Y-115797983D01*
X148047693Y-115831549D01*
X147826781Y-115923054D01*
X147803387Y-116122603D01*
X147649472Y-115968419D01*
X147410547Y-115869209D01*
X147679756Y-115600000D01*
X150115198Y-115600000D01*
X150307526Y-115792328D01*
G36*
X140782379Y-108929204D02*
X141206643Y-109353468D01*
X141404346Y-109488553D01*
X141519640Y-109513563D01*
X141538359Y-109613047D01*
X141680404Y-109827229D01*
X142104668Y-110251493D01*
X142302371Y-110386578D01*
X142417666Y-110411589D01*
X142436385Y-110511073D01*
X142578430Y-110725255D01*
X143002694Y-111149519D01*
X143200397Y-111284604D01*
X143315692Y-111309615D01*
X143334411Y-111409098D01*
X143476456Y-111623280D01*
X143900720Y-112047544D01*
X144098423Y-112182629D01*
X144213717Y-112207639D01*
X144232436Y-112307124D01*
X144374481Y-112521306D01*
X144798745Y-112945570D01*
X144996448Y-113080655D01*
X145111743Y-113105666D01*
X145130462Y-113205150D01*
X145272507Y-113419332D01*
X145696771Y-113843596D01*
X145894474Y-113978681D01*
X145999835Y-114001537D01*
X146090014Y-114219247D01*
X146189404Y-114318638D01*
X146413910Y-114318638D01*
X147438685Y-113293863D01*
X147424543Y-113279721D01*
X147604148Y-113100116D01*
X147618290Y-113114258D01*
X147632433Y-113100116D01*
X147812038Y-113279721D01*
X147797895Y-113293863D01*
X148256984Y-113752952D01*
X148481491Y-113752952D01*
X148595545Y-113638898D01*
X148636883Y-113738943D01*
X148899673Y-114002192D01*
X149087055Y-114080000D01*
X148077379Y-114080000D01*
X148077379Y-113932557D01*
X147618290Y-113473468D01*
X146593515Y-114498243D01*
X146593515Y-114536637D01*
X146134489Y-114995664D01*
X145961029Y-114822204D01*
X145966797Y-114793206D01*
X145966797Y-114472797D01*
X145908945Y-114181958D01*
X145744198Y-113935396D01*
X140714000Y-108905198D01*
X140714000Y-108826099D01*
X140782379Y-108929204D01*
X140782379Y-108929204D01*
G37*
X140782379Y-108929204D02*
X141206643Y-109353468D01*
X141404346Y-109488553D01*
X141519640Y-109513563D01*
X141538359Y-109613047D01*
X141680404Y-109827229D01*
X142104668Y-110251493D01*
X142302371Y-110386578D01*
X142417666Y-110411589D01*
X142436385Y-110511073D01*
X142578430Y-110725255D01*
X143002694Y-111149519D01*
X143200397Y-111284604D01*
X143315692Y-111309615D01*
X143334411Y-111409098D01*
X143476456Y-111623280D01*
X143900720Y-112047544D01*
X144098423Y-112182629D01*
X144213717Y-112207639D01*
X144232436Y-112307124D01*
X144374481Y-112521306D01*
X144798745Y-112945570D01*
X144996448Y-113080655D01*
X145111743Y-113105666D01*
X145130462Y-113205150D01*
X145272507Y-113419332D01*
X145696771Y-113843596D01*
X145894474Y-113978681D01*
X145999835Y-114001537D01*
X146090014Y-114219247D01*
X146189404Y-114318638D01*
X146413910Y-114318638D01*
X147438685Y-113293863D01*
X147424543Y-113279721D01*
X147604148Y-113100116D01*
X147618290Y-113114258D01*
X147632433Y-113100116D01*
X147812038Y-113279721D01*
X147797895Y-113293863D01*
X148256984Y-113752952D01*
X148481491Y-113752952D01*
X148595545Y-113638898D01*
X148636883Y-113738943D01*
X148899673Y-114002192D01*
X149087055Y-114080000D01*
X148077379Y-114080000D01*
X148077379Y-113932557D01*
X147618290Y-113473468D01*
X146593515Y-114498243D01*
X146593515Y-114536637D01*
X146134489Y-114995664D01*
X145961029Y-114822204D01*
X145966797Y-114793206D01*
X145966797Y-114472797D01*
X145908945Y-114181958D01*
X145744198Y-113935396D01*
X140714000Y-108905198D01*
X140714000Y-108826099D01*
X140782379Y-108929204D01*
G36*
X150508439Y-113635743D02*
X150706142Y-113770828D01*
X150957304Y-113825312D01*
X151108200Y-113796919D01*
X151108200Y-113918098D01*
X151673355Y-114483253D01*
X151687498Y-114469111D01*
X151867103Y-114648716D01*
X151855606Y-114660212D01*
X151791057Y-114686883D01*
X151748958Y-114728909D01*
X151531516Y-114728909D01*
X151479608Y-114677001D01*
X151493750Y-114662858D01*
X150928595Y-114097703D01*
X150704088Y-114097703D01*
X150673380Y-114128412D01*
X150430000Y-114080000D01*
X149772871Y-114080000D01*
X149958943Y-114003117D01*
X150222192Y-113740327D01*
X150336864Y-113464168D01*
X150508439Y-113635743D01*
X150508439Y-113635743D01*
G37*
X150508439Y-113635743D02*
X150706142Y-113770828D01*
X150957304Y-113825312D01*
X151108200Y-113796919D01*
X151108200Y-113918098D01*
X151673355Y-114483253D01*
X151687498Y-114469111D01*
X151867103Y-114648716D01*
X151855606Y-114660212D01*
X151791057Y-114686883D01*
X151748958Y-114728909D01*
X151531516Y-114728909D01*
X151479608Y-114677001D01*
X151493750Y-114662858D01*
X150928595Y-114097703D01*
X150704088Y-114097703D01*
X150673380Y-114128412D01*
X150430000Y-114080000D01*
X149772871Y-114080000D01*
X149958943Y-114003117D01*
X150222192Y-113740327D01*
X150336864Y-113464168D01*
X150508439Y-113635743D01*
G36*
X145435670Y-81319230D02*
X145537188Y-81395427D01*
X145637181Y-81473643D01*
X145643875Y-81475504D01*
X145649430Y-81479673D01*
X145772372Y-81511219D01*
X145894692Y-81545218D01*
X151447441Y-81961091D01*
X151520092Y-81952213D01*
X151593165Y-81956446D01*
X151651468Y-81936159D01*
X151712741Y-81928672D01*
X151776468Y-81892666D01*
X151845595Y-81868613D01*
X151891694Y-81827562D01*
X151945440Y-81797195D01*
X151990536Y-81739543D01*
X152045198Y-81690867D01*
X152072080Y-81635296D01*
X152110112Y-81586675D01*
X152125308Y-81532002D01*
X152216105Y-81800690D01*
X152248252Y-81856547D01*
X152268341Y-81917785D01*
X152314269Y-81971253D01*
X152349425Y-82032338D01*
X152400501Y-82071642D01*
X152442495Y-82120530D01*
X152505382Y-82152349D01*
X152561243Y-82195335D01*
X152623475Y-82212101D01*
X152680979Y-82241197D01*
X154608893Y-82779052D01*
X155948421Y-83558133D01*
X157791821Y-85100966D01*
X157794349Y-85102349D01*
X157796174Y-85104579D01*
X159264388Y-86312922D01*
X160525148Y-87543979D01*
X161226374Y-88678634D01*
X161290046Y-88746994D01*
X161345116Y-88822470D01*
X162455951Y-89845153D01*
X163338706Y-90705424D01*
X164769005Y-92308305D01*
X165397312Y-93147656D01*
X165475762Y-93218127D01*
X165548032Y-93294918D01*
X166195539Y-93756563D01*
X167191913Y-94600648D01*
X168086316Y-95359601D01*
X168112681Y-95374255D01*
X168133414Y-95396163D01*
X169479563Y-96350270D01*
X170498655Y-97268811D01*
X171218237Y-98527250D01*
X171392780Y-99484905D01*
X171059283Y-100697332D01*
X170564058Y-101571340D01*
X169473683Y-102820146D01*
X168401349Y-103649346D01*
X167587450Y-104198368D01*
X167510952Y-104275543D01*
X167428931Y-104346830D01*
X167417431Y-104369891D01*
X167399293Y-104388189D01*
X167358151Y-104488763D01*
X167309654Y-104586012D01*
X167307854Y-104611715D01*
X167298098Y-104635565D01*
X167298576Y-104744237D01*
X167290987Y-104852633D01*
X167299161Y-104877069D01*
X167299274Y-104902836D01*
X167341299Y-105003047D01*
X167375771Y-105106103D01*
X167614581Y-105524017D01*
X167746816Y-105927186D01*
X167807852Y-106394271D01*
X167677763Y-106880594D01*
X167224914Y-107710810D01*
X166738396Y-108312745D01*
X166171455Y-108769672D01*
X165372520Y-109209081D01*
X164541208Y-109603976D01*
X163544375Y-109826443D01*
X163162685Y-109857864D01*
X163210000Y-109620000D01*
X163210000Y-109446143D01*
X163256006Y-109463201D01*
X163512888Y-109455305D01*
X163746460Y-109348090D01*
X163919916Y-109158449D01*
X166546610Y-104786896D01*
X166629854Y-104562386D01*
X166621958Y-104305504D01*
X166514743Y-104071932D01*
X166325102Y-103898476D01*
X166055767Y-103736643D01*
X166698962Y-103736643D01*
X166698962Y-103961150D01*
X166904419Y-104166607D01*
X167137808Y-104263279D01*
X167390427Y-104263279D01*
X167623816Y-104166606D01*
X167935338Y-103855084D01*
X167935338Y-103630577D01*
X167370183Y-103065422D01*
X166698962Y-103736643D01*
X166055767Y-103736643D01*
X165820000Y-103594980D01*
X165820000Y-102865573D01*
X165992721Y-102865573D01*
X165992721Y-103118192D01*
X166089393Y-103351581D01*
X166294850Y-103557038D01*
X166519357Y-103557038D01*
X167190578Y-102885817D01*
X166625423Y-102320662D01*
X166400916Y-102320662D01*
X166089394Y-102632184D01*
X165992721Y-102865573D01*
X165820000Y-102865573D01*
X165820000Y-102696210D01*
X165824025Y-102675975D01*
X165824025Y-98761415D01*
X167883298Y-100820688D01*
X167725546Y-100978440D01*
X167590461Y-101176143D01*
X167535977Y-101427305D01*
X167551227Y-101508355D01*
X167349939Y-101508355D01*
X167116550Y-101605028D01*
X166805028Y-101916550D01*
X166805028Y-102141057D01*
X167370183Y-102706212D01*
X167384326Y-102692070D01*
X167563931Y-102871675D01*
X167549788Y-102885817D01*
X168114943Y-103450972D01*
X168339450Y-103450972D01*
X168650972Y-103139450D01*
X168747645Y-102906061D01*
X168747645Y-102706321D01*
X168810807Y-102720023D01*
X169063378Y-102672499D01*
X169277560Y-102530454D01*
X170126088Y-101681926D01*
X170261173Y-101484223D01*
X170315657Y-101233061D01*
X170268133Y-100980490D01*
X170126088Y-100766308D01*
X169557964Y-100198184D01*
X169463218Y-100056386D01*
X169410349Y-100003517D01*
X169163787Y-99838770D01*
X169022974Y-99810760D01*
X153313172Y-84100958D01*
X153066610Y-83936211D01*
X152775771Y-83878359D01*
X150867900Y-83878359D01*
X150513018Y-83580577D01*
X150304293Y-83463237D01*
X150049339Y-83430851D01*
X149801871Y-83500207D01*
X149600883Y-83660378D01*
X149088221Y-84271344D01*
X148970881Y-84480069D01*
X148938495Y-84735023D01*
X149007851Y-84982491D01*
X149168022Y-85183479D01*
X149778988Y-85696141D01*
X149987713Y-85813481D01*
X150123606Y-85830743D01*
X150155845Y-85945773D01*
X150316016Y-86146761D01*
X150926982Y-86659423D01*
X151135707Y-86776763D01*
X151390661Y-86809149D01*
X151638129Y-86739793D01*
X151839117Y-86579622D01*
X152022025Y-86361641D01*
X152606839Y-86361641D01*
X154935197Y-88690000D01*
X150800000Y-88690000D01*
X150509161Y-88747852D01*
X150262599Y-88912599D01*
X148830199Y-90344999D01*
X146541738Y-90344999D01*
X146541738Y-89348493D01*
X146483886Y-89057654D01*
X146319139Y-88811092D01*
X145602167Y-88094120D01*
X145355605Y-87929373D01*
X145064766Y-87871521D01*
X144215384Y-87871521D01*
X143924544Y-87929373D01*
X143677983Y-88094120D01*
X143307526Y-88464577D01*
X142602390Y-88576260D01*
X142376897Y-88656805D01*
X142185189Y-88827974D01*
X142075180Y-89060242D01*
X142064203Y-89317011D01*
X142112504Y-89621973D01*
X141908000Y-89580560D01*
X140708000Y-89580560D01*
X140472683Y-89624838D01*
X140256559Y-89763910D01*
X140210031Y-89832006D01*
X140067698Y-89689673D01*
X139834309Y-89593000D01*
X139393750Y-89593000D01*
X139235000Y-89751750D01*
X139235000Y-90551000D01*
X139255000Y-90551000D01*
X139255000Y-90805000D01*
X139235000Y-90805000D01*
X139235000Y-91604250D01*
X139393750Y-91763000D01*
X139834309Y-91763000D01*
X140067698Y-91666327D01*
X140208936Y-91525090D01*
X140243910Y-91579441D01*
X140456110Y-91724431D01*
X140708000Y-91775440D01*
X141908000Y-91775440D01*
X142143317Y-91731162D01*
X142359441Y-91592090D01*
X142464726Y-91438000D01*
X143274859Y-91438000D01*
X143565698Y-91380148D01*
X143812260Y-91215401D01*
X144658541Y-90369120D01*
X145021738Y-90311595D01*
X145021738Y-90790197D01*
X144211759Y-91600176D01*
X144047012Y-91846738D01*
X143989160Y-92137577D01*
X143989160Y-92245357D01*
X143582034Y-92922929D01*
X143398062Y-92922929D01*
X143107223Y-92980781D01*
X142860661Y-93145528D01*
X139416599Y-96589590D01*
X139289812Y-96779340D01*
X138939270Y-96779340D01*
X138703953Y-96823618D01*
X138487829Y-96962690D01*
X138342839Y-97174890D01*
X138291830Y-97426780D01*
X138291830Y-100078540D01*
X138336108Y-100313857D01*
X138475180Y-100529981D01*
X138687380Y-100674971D01*
X138939270Y-100725980D01*
X140968730Y-100725980D01*
X141204047Y-100681702D01*
X141420171Y-100542630D01*
X141565161Y-100330430D01*
X141616170Y-100078540D01*
X141616170Y-97426780D01*
X141571892Y-97191463D01*
X141432820Y-96975339D01*
X141282894Y-96872899D01*
X141755201Y-96400592D01*
X141841257Y-96588068D01*
X142030898Y-96761524D01*
X144173816Y-98049119D01*
X144398326Y-98132363D01*
X144655208Y-98124467D01*
X144888780Y-98017252D01*
X145062236Y-97827611D01*
X147688930Y-93456058D01*
X147772174Y-93231548D01*
X147764278Y-92974666D01*
X147657063Y-92741094D01*
X147467422Y-92567638D01*
X146298034Y-91864999D01*
X149145001Y-91864999D01*
X149435840Y-91807147D01*
X149682402Y-91642400D01*
X151114802Y-90210000D01*
X156455198Y-90210000D01*
X157887598Y-91642400D01*
X158134160Y-91807147D01*
X158257976Y-91831776D01*
X164304025Y-97877825D01*
X164304025Y-102659765D01*
X164300000Y-102680000D01*
X164300000Y-102681672D01*
X164182184Y-102610881D01*
X163957674Y-102527637D01*
X163700792Y-102535533D01*
X163467220Y-102642748D01*
X163293764Y-102832389D01*
X160667070Y-107203942D01*
X160583826Y-107428452D01*
X160591722Y-107685334D01*
X160698937Y-107918906D01*
X160888578Y-108092362D01*
X161690000Y-108573905D01*
X161690000Y-109305198D01*
X158435843Y-112559355D01*
X153738162Y-112559355D01*
X153439312Y-112260505D01*
X153241609Y-112125420D01*
X152990447Y-112070936D01*
X152737876Y-112118460D01*
X152523694Y-112260505D01*
X152176730Y-112607469D01*
X152144802Y-112437786D01*
X152285187Y-112297401D01*
X152449934Y-112050839D01*
X152507786Y-111760000D01*
X152507786Y-109213546D01*
X155937582Y-109216538D01*
X159204373Y-107866728D01*
X161705944Y-105369519D01*
X163061454Y-102105089D01*
X163064538Y-98570418D01*
X161714728Y-95303627D01*
X159217519Y-92802056D01*
X155953089Y-91446546D01*
X152418418Y-91443462D01*
X149151627Y-92793272D01*
X146650056Y-95290481D01*
X145294546Y-98554911D01*
X145291462Y-102089582D01*
X146641272Y-105356373D01*
X148361894Y-107080000D01*
X145084802Y-107080000D01*
X144617401Y-106612599D01*
X144370839Y-106447852D01*
X144080000Y-106390000D01*
X143510111Y-106390000D01*
X143234435Y-106444836D01*
X143055928Y-106322867D01*
X142804766Y-106268383D01*
X142552195Y-106315907D01*
X142338013Y-106457952D01*
X140782379Y-108013586D01*
X140714000Y-108113662D01*
X140714000Y-104896660D01*
X140968730Y-104896660D01*
X141204047Y-104852382D01*
X141420171Y-104713310D01*
X141565161Y-104501110D01*
X141616170Y-104249220D01*
X141616170Y-101597460D01*
X141571892Y-101362143D01*
X141432820Y-101146019D01*
X141220620Y-101001029D01*
X140968730Y-100950020D01*
X138939270Y-100950020D01*
X138703953Y-100994298D01*
X138487829Y-101133370D01*
X138342839Y-101345570D01*
X138291830Y-101597460D01*
X138291830Y-103374626D01*
X138283578Y-103361407D01*
X138274799Y-103355139D01*
X138268806Y-103346170D01*
X138255454Y-103337248D01*
X138245937Y-103324338D01*
X138153755Y-103268719D01*
X138066055Y-103206105D01*
X138055545Y-103203674D01*
X138046576Y-103197681D01*
X138030825Y-103194548D01*
X138017092Y-103186262D01*
X137910646Y-103170154D01*
X137805658Y-103145867D01*
X137134854Y-103125077D01*
X137054655Y-103138461D01*
X136973548Y-103139265D01*
X136859493Y-102905924D01*
X136804297Y-102833466D01*
X136758687Y-102754628D01*
X136140318Y-102050768D01*
X135409947Y-101198675D01*
X135304093Y-100883670D01*
X135322686Y-100831151D01*
X135913934Y-100583730D01*
X137132339Y-100175831D01*
X137195989Y-100139438D01*
X137265102Y-100114965D01*
X137310882Y-100073746D01*
X137364364Y-100043167D01*
X137409241Y-99985187D01*
X137463728Y-99936129D01*
X137836397Y-99437083D01*
X137877708Y-99350477D01*
X137928443Y-99269038D01*
X138226578Y-98478881D01*
X138243994Y-98373928D01*
X138269852Y-98270728D01*
X138265731Y-98242932D01*
X138270331Y-98215212D01*
X138246259Y-98111588D01*
X138230656Y-98006344D01*
X138216211Y-97982240D01*
X138209853Y-97954871D01*
X138147956Y-97868344D01*
X138093267Y-97777086D01*
X138070699Y-97760346D01*
X138054350Y-97737491D01*
X137964046Y-97681234D01*
X137878603Y-97617854D01*
X137371982Y-97378192D01*
X136681063Y-96852498D01*
X136237843Y-96279209D01*
X135718053Y-95144328D01*
X135509121Y-94462352D01*
X135463252Y-93233806D01*
X135463230Y-92623530D01*
X135533766Y-92395320D01*
X135806305Y-92013702D01*
X135810620Y-92004139D01*
X135818045Y-91996728D01*
X136084171Y-91599294D01*
X136558316Y-91155424D01*
X136869178Y-90963750D01*
X137873000Y-90963750D01*
X137873000Y-91254310D01*
X137969673Y-91487699D01*
X138148302Y-91666327D01*
X138381691Y-91763000D01*
X138822250Y-91763000D01*
X138981000Y-91604250D01*
X138981000Y-90805000D01*
X138031750Y-90805000D01*
X137873000Y-90963750D01*
X136869178Y-90963750D01*
X137448306Y-90606667D01*
X137506781Y-90552314D01*
X137573159Y-90507962D01*
X137603746Y-90462185D01*
X137644072Y-90424702D01*
X137677296Y-90352110D01*
X137721648Y-90285732D01*
X137732389Y-90231735D01*
X137755301Y-90181673D01*
X137758216Y-90101895D01*
X137758256Y-90101690D01*
X137873000Y-90101690D01*
X137873000Y-90392250D01*
X138031750Y-90551000D01*
X138981000Y-90551000D01*
X138981000Y-89751750D01*
X138822250Y-89593000D01*
X138381691Y-89593000D01*
X138148302Y-89689673D01*
X137969673Y-89868301D01*
X137873000Y-90101690D01*
X137758256Y-90101690D01*
X137773791Y-90023594D01*
X137773791Y-89566134D01*
X137764392Y-89518882D01*
X137767122Y-89470785D01*
X137638540Y-88556032D01*
X138069174Y-87078308D01*
X138819604Y-85837262D01*
X139614246Y-84621124D01*
X142096873Y-82807107D01*
X145101070Y-81570204D01*
X145206119Y-81500335D01*
X145312716Y-81432802D01*
X145317172Y-81426472D01*
X145323615Y-81422187D01*
X145393932Y-81317433D01*
X145411589Y-81292352D01*
X145435670Y-81319230D01*
X145435670Y-81319230D01*
G37*
X145435670Y-81319230D02*
X145537188Y-81395427D01*
X145637181Y-81473643D01*
X145643875Y-81475504D01*
X145649430Y-81479673D01*
X145772372Y-81511219D01*
X145894692Y-81545218D01*
X151447441Y-81961091D01*
X151520092Y-81952213D01*
X151593165Y-81956446D01*
X151651468Y-81936159D01*
X151712741Y-81928672D01*
X151776468Y-81892666D01*
X151845595Y-81868613D01*
X151891694Y-81827562D01*
X151945440Y-81797195D01*
X151990536Y-81739543D01*
X152045198Y-81690867D01*
X152072080Y-81635296D01*
X152110112Y-81586675D01*
X152125308Y-81532002D01*
X152216105Y-81800690D01*
X152248252Y-81856547D01*
X152268341Y-81917785D01*
X152314269Y-81971253D01*
X152349425Y-82032338D01*
X152400501Y-82071642D01*
X152442495Y-82120530D01*
X152505382Y-82152349D01*
X152561243Y-82195335D01*
X152623475Y-82212101D01*
X152680979Y-82241197D01*
X154608893Y-82779052D01*
X155948421Y-83558133D01*
X157791821Y-85100966D01*
X157794349Y-85102349D01*
X157796174Y-85104579D01*
X159264388Y-86312922D01*
X160525148Y-87543979D01*
X161226374Y-88678634D01*
X161290046Y-88746994D01*
X161345116Y-88822470D01*
X162455951Y-89845153D01*
X163338706Y-90705424D01*
X164769005Y-92308305D01*
X165397312Y-93147656D01*
X165475762Y-93218127D01*
X165548032Y-93294918D01*
X166195539Y-93756563D01*
X167191913Y-94600648D01*
X168086316Y-95359601D01*
X168112681Y-95374255D01*
X168133414Y-95396163D01*
X169479563Y-96350270D01*
X170498655Y-97268811D01*
X171218237Y-98527250D01*
X171392780Y-99484905D01*
X171059283Y-100697332D01*
X170564058Y-101571340D01*
X169473683Y-102820146D01*
X168401349Y-103649346D01*
X167587450Y-104198368D01*
X167510952Y-104275543D01*
X167428931Y-104346830D01*
X167417431Y-104369891D01*
X167399293Y-104388189D01*
X167358151Y-104488763D01*
X167309654Y-104586012D01*
X167307854Y-104611715D01*
X167298098Y-104635565D01*
X167298576Y-104744237D01*
X167290987Y-104852633D01*
X167299161Y-104877069D01*
X167299274Y-104902836D01*
X167341299Y-105003047D01*
X167375771Y-105106103D01*
X167614581Y-105524017D01*
X167746816Y-105927186D01*
X167807852Y-106394271D01*
X167677763Y-106880594D01*
X167224914Y-107710810D01*
X166738396Y-108312745D01*
X166171455Y-108769672D01*
X165372520Y-109209081D01*
X164541208Y-109603976D01*
X163544375Y-109826443D01*
X163162685Y-109857864D01*
X163210000Y-109620000D01*
X163210000Y-109446143D01*
X163256006Y-109463201D01*
X163512888Y-109455305D01*
X163746460Y-109348090D01*
X163919916Y-109158449D01*
X166546610Y-104786896D01*
X166629854Y-104562386D01*
X166621958Y-104305504D01*
X166514743Y-104071932D01*
X166325102Y-103898476D01*
X166055767Y-103736643D01*
X166698962Y-103736643D01*
X166698962Y-103961150D01*
X166904419Y-104166607D01*
X167137808Y-104263279D01*
X167390427Y-104263279D01*
X167623816Y-104166606D01*
X167935338Y-103855084D01*
X167935338Y-103630577D01*
X167370183Y-103065422D01*
X166698962Y-103736643D01*
X166055767Y-103736643D01*
X165820000Y-103594980D01*
X165820000Y-102865573D01*
X165992721Y-102865573D01*
X165992721Y-103118192D01*
X166089393Y-103351581D01*
X166294850Y-103557038D01*
X166519357Y-103557038D01*
X167190578Y-102885817D01*
X166625423Y-102320662D01*
X166400916Y-102320662D01*
X166089394Y-102632184D01*
X165992721Y-102865573D01*
X165820000Y-102865573D01*
X165820000Y-102696210D01*
X165824025Y-102675975D01*
X165824025Y-98761415D01*
X167883298Y-100820688D01*
X167725546Y-100978440D01*
X167590461Y-101176143D01*
X167535977Y-101427305D01*
X167551227Y-101508355D01*
X167349939Y-101508355D01*
X167116550Y-101605028D01*
X166805028Y-101916550D01*
X166805028Y-102141057D01*
X167370183Y-102706212D01*
X167384326Y-102692070D01*
X167563931Y-102871675D01*
X167549788Y-102885817D01*
X168114943Y-103450972D01*
X168339450Y-103450972D01*
X168650972Y-103139450D01*
X168747645Y-102906061D01*
X168747645Y-102706321D01*
X168810807Y-102720023D01*
X169063378Y-102672499D01*
X169277560Y-102530454D01*
X170126088Y-101681926D01*
X170261173Y-101484223D01*
X170315657Y-101233061D01*
X170268133Y-100980490D01*
X170126088Y-100766308D01*
X169557964Y-100198184D01*
X169463218Y-100056386D01*
X169410349Y-100003517D01*
X169163787Y-99838770D01*
X169022974Y-99810760D01*
X153313172Y-84100958D01*
X153066610Y-83936211D01*
X152775771Y-83878359D01*
X150867900Y-83878359D01*
X150513018Y-83580577D01*
X150304293Y-83463237D01*
X150049339Y-83430851D01*
X149801871Y-83500207D01*
X149600883Y-83660378D01*
X149088221Y-84271344D01*
X148970881Y-84480069D01*
X148938495Y-84735023D01*
X149007851Y-84982491D01*
X149168022Y-85183479D01*
X149778988Y-85696141D01*
X149987713Y-85813481D01*
X150123606Y-85830743D01*
X150155845Y-85945773D01*
X150316016Y-86146761D01*
X150926982Y-86659423D01*
X151135707Y-86776763D01*
X151390661Y-86809149D01*
X151638129Y-86739793D01*
X151839117Y-86579622D01*
X152022025Y-86361641D01*
X152606839Y-86361641D01*
X154935197Y-88690000D01*
X150800000Y-88690000D01*
X150509161Y-88747852D01*
X150262599Y-88912599D01*
X148830199Y-90344999D01*
X146541738Y-90344999D01*
X146541738Y-89348493D01*
X146483886Y-89057654D01*
X146319139Y-88811092D01*
X145602167Y-88094120D01*
X145355605Y-87929373D01*
X145064766Y-87871521D01*
X144215384Y-87871521D01*
X143924544Y-87929373D01*
X143677983Y-88094120D01*
X143307526Y-88464577D01*
X142602390Y-88576260D01*
X142376897Y-88656805D01*
X142185189Y-88827974D01*
X142075180Y-89060242D01*
X142064203Y-89317011D01*
X142112504Y-89621973D01*
X141908000Y-89580560D01*
X140708000Y-89580560D01*
X140472683Y-89624838D01*
X140256559Y-89763910D01*
X140210031Y-89832006D01*
X140067698Y-89689673D01*
X139834309Y-89593000D01*
X139393750Y-89593000D01*
X139235000Y-89751750D01*
X139235000Y-90551000D01*
X139255000Y-90551000D01*
X139255000Y-90805000D01*
X139235000Y-90805000D01*
X139235000Y-91604250D01*
X139393750Y-91763000D01*
X139834309Y-91763000D01*
X140067698Y-91666327D01*
X140208936Y-91525090D01*
X140243910Y-91579441D01*
X140456110Y-91724431D01*
X140708000Y-91775440D01*
X141908000Y-91775440D01*
X142143317Y-91731162D01*
X142359441Y-91592090D01*
X142464726Y-91438000D01*
X143274859Y-91438000D01*
X143565698Y-91380148D01*
X143812260Y-91215401D01*
X144658541Y-90369120D01*
X145021738Y-90311595D01*
X145021738Y-90790197D01*
X144211759Y-91600176D01*
X144047012Y-91846738D01*
X143989160Y-92137577D01*
X143989160Y-92245357D01*
X143582034Y-92922929D01*
X143398062Y-92922929D01*
X143107223Y-92980781D01*
X142860661Y-93145528D01*
X139416599Y-96589590D01*
X139289812Y-96779340D01*
X138939270Y-96779340D01*
X138703953Y-96823618D01*
X138487829Y-96962690D01*
X138342839Y-97174890D01*
X138291830Y-97426780D01*
X138291830Y-100078540D01*
X138336108Y-100313857D01*
X138475180Y-100529981D01*
X138687380Y-100674971D01*
X138939270Y-100725980D01*
X140968730Y-100725980D01*
X141204047Y-100681702D01*
X141420171Y-100542630D01*
X141565161Y-100330430D01*
X141616170Y-100078540D01*
X141616170Y-97426780D01*
X141571892Y-97191463D01*
X141432820Y-96975339D01*
X141282894Y-96872899D01*
X141755201Y-96400592D01*
X141841257Y-96588068D01*
X142030898Y-96761524D01*
X144173816Y-98049119D01*
X144398326Y-98132363D01*
X144655208Y-98124467D01*
X144888780Y-98017252D01*
X145062236Y-97827611D01*
X147688930Y-93456058D01*
X147772174Y-93231548D01*
X147764278Y-92974666D01*
X147657063Y-92741094D01*
X147467422Y-92567638D01*
X146298034Y-91864999D01*
X149145001Y-91864999D01*
X149435840Y-91807147D01*
X149682402Y-91642400D01*
X151114802Y-90210000D01*
X156455198Y-90210000D01*
X157887598Y-91642400D01*
X158134160Y-91807147D01*
X158257976Y-91831776D01*
X164304025Y-97877825D01*
X164304025Y-102659765D01*
X164300000Y-102680000D01*
X164300000Y-102681672D01*
X164182184Y-102610881D01*
X163957674Y-102527637D01*
X163700792Y-102535533D01*
X163467220Y-102642748D01*
X163293764Y-102832389D01*
X160667070Y-107203942D01*
X160583826Y-107428452D01*
X160591722Y-107685334D01*
X160698937Y-107918906D01*
X160888578Y-108092362D01*
X161690000Y-108573905D01*
X161690000Y-109305198D01*
X158435843Y-112559355D01*
X153738162Y-112559355D01*
X153439312Y-112260505D01*
X153241609Y-112125420D01*
X152990447Y-112070936D01*
X152737876Y-112118460D01*
X152523694Y-112260505D01*
X152176730Y-112607469D01*
X152144802Y-112437786D01*
X152285187Y-112297401D01*
X152449934Y-112050839D01*
X152507786Y-111760000D01*
X152507786Y-109213546D01*
X155937582Y-109216538D01*
X159204373Y-107866728D01*
X161705944Y-105369519D01*
X163061454Y-102105089D01*
X163064538Y-98570418D01*
X161714728Y-95303627D01*
X159217519Y-92802056D01*
X155953089Y-91446546D01*
X152418418Y-91443462D01*
X149151627Y-92793272D01*
X146650056Y-95290481D01*
X145294546Y-98554911D01*
X145291462Y-102089582D01*
X146641272Y-105356373D01*
X148361894Y-107080000D01*
X145084802Y-107080000D01*
X144617401Y-106612599D01*
X144370839Y-106447852D01*
X144080000Y-106390000D01*
X143510111Y-106390000D01*
X143234435Y-106444836D01*
X143055928Y-106322867D01*
X142804766Y-106268383D01*
X142552195Y-106315907D01*
X142338013Y-106457952D01*
X140782379Y-108013586D01*
X140714000Y-108113662D01*
X140714000Y-104896660D01*
X140968730Y-104896660D01*
X141204047Y-104852382D01*
X141420171Y-104713310D01*
X141565161Y-104501110D01*
X141616170Y-104249220D01*
X141616170Y-101597460D01*
X141571892Y-101362143D01*
X141432820Y-101146019D01*
X141220620Y-101001029D01*
X140968730Y-100950020D01*
X138939270Y-100950020D01*
X138703953Y-100994298D01*
X138487829Y-101133370D01*
X138342839Y-101345570D01*
X138291830Y-101597460D01*
X138291830Y-103374626D01*
X138283578Y-103361407D01*
X138274799Y-103355139D01*
X138268806Y-103346170D01*
X138255454Y-103337248D01*
X138245937Y-103324338D01*
X138153755Y-103268719D01*
X138066055Y-103206105D01*
X138055545Y-103203674D01*
X138046576Y-103197681D01*
X138030825Y-103194548D01*
X138017092Y-103186262D01*
X137910646Y-103170154D01*
X137805658Y-103145867D01*
X137134854Y-103125077D01*
X137054655Y-103138461D01*
X136973548Y-103139265D01*
X136859493Y-102905924D01*
X136804297Y-102833466D01*
X136758687Y-102754628D01*
X136140318Y-102050768D01*
X135409947Y-101198675D01*
X135304093Y-100883670D01*
X135322686Y-100831151D01*
X135913934Y-100583730D01*
X137132339Y-100175831D01*
X137195989Y-100139438D01*
X137265102Y-100114965D01*
X137310882Y-100073746D01*
X137364364Y-100043167D01*
X137409241Y-99985187D01*
X137463728Y-99936129D01*
X137836397Y-99437083D01*
X137877708Y-99350477D01*
X137928443Y-99269038D01*
X138226578Y-98478881D01*
X138243994Y-98373928D01*
X138269852Y-98270728D01*
X138265731Y-98242932D01*
X138270331Y-98215212D01*
X138246259Y-98111588D01*
X138230656Y-98006344D01*
X138216211Y-97982240D01*
X138209853Y-97954871D01*
X138147956Y-97868344D01*
X138093267Y-97777086D01*
X138070699Y-97760346D01*
X138054350Y-97737491D01*
X137964046Y-97681234D01*
X137878603Y-97617854D01*
X137371982Y-97378192D01*
X136681063Y-96852498D01*
X136237843Y-96279209D01*
X135718053Y-95144328D01*
X135509121Y-94462352D01*
X135463252Y-93233806D01*
X135463230Y-92623530D01*
X135533766Y-92395320D01*
X135806305Y-92013702D01*
X135810620Y-92004139D01*
X135818045Y-91996728D01*
X136084171Y-91599294D01*
X136558316Y-91155424D01*
X136869178Y-90963750D01*
X137873000Y-90963750D01*
X137873000Y-91254310D01*
X137969673Y-91487699D01*
X138148302Y-91666327D01*
X138381691Y-91763000D01*
X138822250Y-91763000D01*
X138981000Y-91604250D01*
X138981000Y-90805000D01*
X138031750Y-90805000D01*
X137873000Y-90963750D01*
X136869178Y-90963750D01*
X137448306Y-90606667D01*
X137506781Y-90552314D01*
X137573159Y-90507962D01*
X137603746Y-90462185D01*
X137644072Y-90424702D01*
X137677296Y-90352110D01*
X137721648Y-90285732D01*
X137732389Y-90231735D01*
X137755301Y-90181673D01*
X137758216Y-90101895D01*
X137758256Y-90101690D01*
X137873000Y-90101690D01*
X137873000Y-90392250D01*
X138031750Y-90551000D01*
X138981000Y-90551000D01*
X138981000Y-89751750D01*
X138822250Y-89593000D01*
X138381691Y-89593000D01*
X138148302Y-89689673D01*
X137969673Y-89868301D01*
X137873000Y-90101690D01*
X137758256Y-90101690D01*
X137773791Y-90023594D01*
X137773791Y-89566134D01*
X137764392Y-89518882D01*
X137767122Y-89470785D01*
X137638540Y-88556032D01*
X138069174Y-87078308D01*
X138819604Y-85837262D01*
X139614246Y-84621124D01*
X142096873Y-82807107D01*
X145101070Y-81570204D01*
X145206119Y-81500335D01*
X145312716Y-81432802D01*
X145317172Y-81426472D01*
X145323615Y-81422187D01*
X145393932Y-81317433D01*
X145411589Y-81292352D01*
X145435670Y-81319230D01*
M02*
