G04 #@! TF.FileFunction,Copper,L2,Bot,Signal*
%FSLAX46Y46*%
G04 Gerber Fmt 4.6, Leading zero omitted, Abs format (unit mm)*
G04 Created by KiCad (PCBNEW 4.0.5+dfsg1-4) date Sat Aug 24 03:06:04 2019*
%MOMM*%
%LPD*%
G01*
G04 APERTURE LIST*
%ADD10C,0.100000*%
%ADD11C,17.800000*%
%ADD12R,2.029460X2.651760*%
%ADD13R,0.500000X0.900000*%
%ADD14C,0.787400*%
%ADD15C,0.990600*%
%ADD16C,0.600000*%
%ADD17C,0.250000*%
G04 APERTURE END LIST*
D10*
G36*
X153617899Y-113354710D02*
X153052213Y-113920396D01*
X152415817Y-113284000D01*
X152981503Y-112718314D01*
X153617899Y-113354710D01*
X153617899Y-113354710D01*
G37*
G36*
X152274396Y-114698213D02*
X151708710Y-115263899D01*
X151072314Y-114627503D01*
X151638000Y-114061817D01*
X152274396Y-114698213D01*
X152274396Y-114698213D01*
G37*
G36*
X151531934Y-112612248D02*
X150966248Y-113177934D01*
X150329852Y-112541538D01*
X150895538Y-111975852D01*
X151531934Y-112612248D01*
X151531934Y-112612248D01*
G37*
G36*
X140907169Y-95330995D02*
X143533863Y-90959442D01*
X145676781Y-92247037D01*
X143050087Y-96618590D01*
X140907169Y-95330995D01*
X140907169Y-95330995D01*
G37*
G36*
X162679219Y-108412963D02*
X165305913Y-104041410D01*
X167448831Y-105329005D01*
X164822137Y-109700558D01*
X162679219Y-108412963D01*
X162679219Y-108412963D01*
G37*
D11*
X154178000Y-100330000D03*
D12*
X139954000Y-102923340D03*
X139954000Y-98752660D03*
D10*
G36*
X148608239Y-112728178D02*
X147052605Y-114283812D01*
X146628341Y-113859548D01*
X148183975Y-112303914D01*
X148608239Y-112728178D01*
X148608239Y-112728178D01*
G37*
G36*
X145779812Y-115556605D02*
X144224178Y-117112239D01*
X143799914Y-116687975D01*
X145355548Y-115132341D01*
X145779812Y-115556605D01*
X145779812Y-115556605D01*
G37*
G36*
X147710214Y-111830153D02*
X146154580Y-113385787D01*
X145730316Y-112961523D01*
X147285950Y-111405889D01*
X147710214Y-111830153D01*
X147710214Y-111830153D01*
G37*
G36*
X144881787Y-114658580D02*
X143326153Y-116214214D01*
X142901889Y-115789950D01*
X144457523Y-114234316D01*
X144881787Y-114658580D01*
X144881787Y-114658580D01*
G37*
G36*
X146812188Y-110932127D02*
X145256554Y-112487761D01*
X144832290Y-112063497D01*
X146387924Y-110507863D01*
X146812188Y-110932127D01*
X146812188Y-110932127D01*
G37*
G36*
X143983761Y-113760554D02*
X142428127Y-115316188D01*
X142003863Y-114891924D01*
X143559497Y-113336290D01*
X143983761Y-113760554D01*
X143983761Y-113760554D01*
G37*
G36*
X145914163Y-110034101D02*
X144358529Y-111589735D01*
X143934265Y-111165471D01*
X145489899Y-109609837D01*
X145914163Y-110034101D01*
X145914163Y-110034101D01*
G37*
G36*
X143085735Y-112862529D02*
X141530101Y-114418163D01*
X141105837Y-113993899D01*
X142661471Y-112438265D01*
X143085735Y-112862529D01*
X143085735Y-112862529D01*
G37*
G36*
X145016137Y-109136076D02*
X143460503Y-110691710D01*
X143036239Y-110267446D01*
X144591873Y-108711812D01*
X145016137Y-109136076D01*
X145016137Y-109136076D01*
G37*
G36*
X142187710Y-111964503D02*
X140632076Y-113520137D01*
X140207812Y-113095873D01*
X141763446Y-111540239D01*
X142187710Y-111964503D01*
X142187710Y-111964503D01*
G37*
G36*
X144118111Y-108238050D02*
X142562477Y-109793684D01*
X142138213Y-109369420D01*
X143693847Y-107813786D01*
X144118111Y-108238050D01*
X144118111Y-108238050D01*
G37*
G36*
X141289684Y-111066477D02*
X139734050Y-112622111D01*
X139309786Y-112197847D01*
X140865420Y-110642213D01*
X141289684Y-111066477D01*
X141289684Y-111066477D01*
G37*
G36*
X143220086Y-107340025D02*
X141664452Y-108895659D01*
X141240188Y-108471395D01*
X142795822Y-106915761D01*
X143220086Y-107340025D01*
X143220086Y-107340025D01*
G37*
G36*
X140391659Y-110168452D02*
X138836025Y-111724086D01*
X138411761Y-111299822D01*
X139967395Y-109744188D01*
X140391659Y-110168452D01*
X140391659Y-110168452D01*
G37*
G36*
X151855811Y-85552489D02*
X151343149Y-86163455D01*
X150732183Y-85650793D01*
X151244845Y-85039827D01*
X151855811Y-85552489D01*
X151855811Y-85552489D01*
G37*
G36*
X150707817Y-84589207D02*
X150195155Y-85200173D01*
X149584189Y-84687511D01*
X150096851Y-84076545D01*
X150707817Y-84589207D01*
X150707817Y-84589207D01*
G37*
G36*
X168536909Y-101082695D02*
X169173305Y-101719091D01*
X168819751Y-102072645D01*
X168183355Y-101436249D01*
X168536909Y-101082695D01*
X168536909Y-101082695D01*
G37*
G36*
X167476249Y-102143355D02*
X168112645Y-102779751D01*
X167759091Y-103133305D01*
X167122695Y-102496909D01*
X167476249Y-102143355D01*
X167476249Y-102143355D01*
G37*
D13*
X140958000Y-90678000D03*
X139458000Y-90678000D03*
D10*
G36*
X144431562Y-88856531D02*
X144556328Y-89644271D01*
X143768588Y-89769037D01*
X143643822Y-88981297D01*
X144431562Y-88856531D01*
X144431562Y-88856531D01*
G37*
G36*
X142951412Y-89090963D02*
X143076178Y-89878703D01*
X142288438Y-90003469D01*
X142163672Y-89215729D01*
X142951412Y-89090963D01*
X142951412Y-89090963D01*
G37*
D14*
X147066000Y-116840000D03*
X148336000Y-116840000D03*
X149606000Y-116840000D03*
X150876000Y-116840000D03*
X152146000Y-116840000D03*
X152146000Y-118110000D03*
X150876000Y-118110000D03*
X149606000Y-118110000D03*
X148336000Y-118110000D03*
X147066000Y-118110000D03*
D15*
X153416000Y-116459000D03*
D10*
G36*
X141465387Y-116997564D02*
X140556061Y-117522564D01*
X139856061Y-116310128D01*
X140765387Y-115785128D01*
X141465387Y-116997564D01*
X141465387Y-116997564D01*
G37*
G36*
X139665387Y-113879872D02*
X138756061Y-114404872D01*
X138056061Y-113192436D01*
X138965387Y-112667436D01*
X139665387Y-113879872D01*
X139665387Y-113879872D01*
G37*
G36*
X139819939Y-117947564D02*
X138910613Y-118472564D01*
X138210613Y-117260128D01*
X139119939Y-116735128D01*
X139819939Y-117947564D01*
X139819939Y-117947564D01*
G37*
G36*
X138019939Y-114829872D02*
X137110613Y-115354872D01*
X136410613Y-114142436D01*
X137319939Y-113617436D01*
X138019939Y-114829872D01*
X138019939Y-114829872D01*
G37*
D16*
X142230137Y-107905710D03*
X144018000Y-107950000D03*
X145288000Y-108458000D03*
X146558000Y-108966000D03*
X149860000Y-111760000D03*
X137215276Y-114486154D03*
X147618290Y-113293863D03*
X137414000Y-94742000D03*
X167617670Y-102638330D03*
X156718000Y-114300000D03*
X148021058Y-115001058D03*
X149098000Y-115824000D03*
X143891838Y-115224265D03*
X150876000Y-116840000D03*
X149606000Y-118110000D03*
X143004442Y-117482558D03*
D17*
X156780000Y-91104999D02*
X152060000Y-86384999D01*
X151563997Y-85888996D02*
X152060000Y-86384999D01*
X144100075Y-89312784D02*
X144100075Y-90453912D01*
X144100075Y-90453912D02*
X143291975Y-91262012D01*
X143291975Y-91262012D02*
X143291975Y-93789016D01*
X145975992Y-91104999D02*
X156780000Y-91104999D01*
X156780000Y-91104999D02*
X158606001Y-91104999D01*
X153016858Y-113319355D02*
X153016858Y-115461142D01*
X153016858Y-115461142D02*
X152356701Y-116121299D01*
X152356701Y-116121299D02*
X151427299Y-116121299D01*
X151427299Y-116121299D02*
X150114000Y-114808000D01*
X150114000Y-114808000D02*
X149098000Y-114808000D01*
X149098000Y-114808000D02*
X147066000Y-116840000D01*
X153016858Y-113319355D02*
X158615654Y-113319355D01*
X158615654Y-113319355D02*
X165064025Y-106870984D01*
X143291975Y-93789016D02*
X145975992Y-91104999D01*
X158606001Y-91104999D02*
X165064025Y-97563023D01*
X165064025Y-97563023D02*
X165064025Y-104343980D01*
X165064025Y-104343980D02*
X165064025Y-106870984D01*
X143291975Y-93789016D02*
X139954000Y-97126991D01*
X139954000Y-97126991D02*
X139954000Y-98752660D01*
X151747786Y-111760000D02*
X151747786Y-102760214D01*
X151747786Y-102760214D02*
X154178000Y-100330000D01*
X150930893Y-112576893D02*
X151747786Y-111760000D01*
X143128162Y-108803735D02*
X143164265Y-108803735D01*
X143164265Y-108803735D02*
X144018000Y-107950000D01*
X144018000Y-107950000D02*
X143981897Y-107950000D01*
X145288000Y-108458000D02*
X145269949Y-108458000D01*
X145269949Y-108458000D02*
X144026188Y-109701761D01*
X146558000Y-108966000D02*
X144924214Y-110599786D01*
X144924214Y-110599786D02*
X146050000Y-109474000D01*
X149860000Y-111760000D02*
X148732863Y-110632863D01*
X148732863Y-110632863D02*
X146687188Y-110632863D01*
X146687188Y-110632863D02*
X146670766Y-110649285D01*
X146670766Y-110649285D02*
X145822239Y-111497812D01*
X150146003Y-84638359D02*
X152775771Y-84638359D01*
X152775771Y-84638359D02*
X168678330Y-100540918D01*
X168678330Y-100540918D02*
X168678330Y-101577670D01*
X140958000Y-90678000D02*
X142088784Y-89547216D01*
X142088784Y-89547216D02*
X142619925Y-89547216D01*
X145206797Y-114472797D02*
X139954000Y-109220000D01*
X139954000Y-109220000D02*
X139954000Y-102923340D01*
X144789863Y-116122290D02*
X144789863Y-115210140D01*
X144789863Y-115210140D02*
X145206797Y-114793206D01*
X145206797Y-114793206D02*
X145206797Y-114472797D01*
X137798421Y-115446421D02*
X139015276Y-116663276D01*
X139015276Y-116663276D02*
X139015276Y-116695556D01*
X139015276Y-116695556D02*
X139015276Y-117603846D01*
X137215276Y-114486154D02*
X137798421Y-115069299D01*
X137798421Y-115069299D02*
X137798421Y-115446421D01*
X149606000Y-116840000D02*
X148336000Y-118110000D01*
X139458000Y-90678000D02*
X139458000Y-92698000D01*
X139458000Y-92698000D02*
X137414000Y-94742000D01*
X152146000Y-116840000D02*
X152585301Y-117279301D01*
X152585301Y-117279301D02*
X153809745Y-117279301D01*
X153809745Y-117279301D02*
X156718000Y-114371046D01*
X156718000Y-114371046D02*
X156718000Y-114300000D01*
X148021058Y-114300000D02*
X148021058Y-113696631D01*
X148021058Y-115001058D02*
X148021058Y-114300000D01*
X148021058Y-114300000D02*
X148047108Y-114273950D01*
X148047108Y-114273950D02*
X151284447Y-114273950D01*
X151284447Y-114273950D02*
X151673355Y-114662858D01*
X148021058Y-113696631D02*
X147618290Y-113293863D01*
X149606000Y-116840000D02*
X149606000Y-116332000D01*
X149606000Y-116332000D02*
X149098000Y-115824000D01*
X138860724Y-113536154D02*
X138860724Y-112014000D01*
X139401710Y-110734137D02*
X139401710Y-111473014D01*
X139401710Y-111473014D02*
X138860724Y-112014000D01*
X138860724Y-113536154D02*
X138860724Y-114853846D01*
X138860724Y-114853846D02*
X140660724Y-116653846D01*
X142993812Y-114326239D02*
X142145285Y-115174766D01*
X142145285Y-115174766D02*
X142145285Y-115492982D01*
X143004442Y-116352139D02*
X143004442Y-117482558D01*
X142145285Y-115492982D02*
X143004442Y-116352139D01*
X142240000Y-117602000D02*
X142240000Y-116224107D01*
X142240000Y-116224107D02*
X141247259Y-115231366D01*
X141247259Y-115231366D02*
X141247259Y-114276741D01*
X141247259Y-114276741D02*
X142095786Y-113428214D01*
X147066000Y-118110000D02*
X146050000Y-117094000D01*
X146050000Y-117094000D02*
X145034000Y-117094000D01*
X145034000Y-117094000D02*
X144018000Y-118110000D01*
X144018000Y-118110000D02*
X142748000Y-118110000D01*
X142748000Y-118110000D02*
X142240000Y-117602000D01*
X141224000Y-114300000D02*
X141247259Y-114276741D01*
M02*
