G04 #@! TF.FileFunction,Soldermask,Bot*
%FSLAX46Y46*%
G04 Gerber Fmt 4.6, Leading zero omitted, Abs format (unit mm)*
G04 Created by KiCad (PCBNEW 4.0.5+dfsg1-4) date Sun Sep 22 01:50:27 2019*
%MOMM*%
%LPD*%
G01*
G04 APERTURE LIST*
%ADD10C,0.100000*%
%ADD11C,0.200000*%
%ADD12C,1.390600*%
%ADD13C,1.187400*%
%ADD14R,2.429460X3.051760*%
%ADD15R,1.600000X1.300000*%
%ADD16C,16.900000*%
%ADD17C,0.254000*%
G04 APERTURE END LIST*
D10*
D11*
X146400000Y-86000000D02*
X145100000Y-85200000D01*
X144700000Y-85900000D02*
X146400000Y-86000000D01*
X145100000Y-85200000D02*
X144700000Y-85900000D01*
D12*
X153416000Y-118491000D03*
X153416000Y-116459000D03*
X145796000Y-117475000D03*
D13*
X147066000Y-116840000D03*
X148336000Y-116840000D03*
X149606000Y-116840000D03*
X150876000Y-116840000D03*
X152146000Y-116840000D03*
X152146000Y-118110000D03*
X150876000Y-118110000D03*
X149606000Y-118110000D03*
X148336000Y-118110000D03*
X147066000Y-118110000D03*
D10*
G36*
X153900741Y-113354710D02*
X153052213Y-114203238D01*
X152132975Y-113284000D01*
X152981503Y-112435472D01*
X153900741Y-113354710D01*
X153900741Y-113354710D01*
G37*
G36*
X152557238Y-114698213D02*
X151708710Y-115546741D01*
X150789472Y-114627503D01*
X151638000Y-113778975D01*
X152557238Y-114698213D01*
X152557238Y-114698213D01*
G37*
G36*
X151814776Y-112612248D02*
X150966248Y-113460776D01*
X150047010Y-112541538D01*
X150895538Y-111693010D01*
X151814776Y-112612248D01*
X151814776Y-112612248D01*
G37*
D14*
X139954000Y-102923340D03*
X139954000Y-98752660D03*
D10*
G36*
X148891082Y-112728178D02*
X147052605Y-114566655D01*
X146345498Y-113859548D01*
X148183975Y-112021071D01*
X148891082Y-112728178D01*
X148891082Y-112728178D01*
G37*
G36*
X146062655Y-115556605D02*
X144224178Y-117395082D01*
X143517071Y-116687975D01*
X145355548Y-114849498D01*
X146062655Y-115556605D01*
X146062655Y-115556605D01*
G37*
G36*
X147993057Y-111830153D02*
X146154580Y-113668630D01*
X145447473Y-112961523D01*
X147285950Y-111123046D01*
X147993057Y-111830153D01*
X147993057Y-111830153D01*
G37*
G36*
X145164630Y-114658580D02*
X143326153Y-116497057D01*
X142619046Y-115789950D01*
X144457523Y-113951473D01*
X145164630Y-114658580D01*
X145164630Y-114658580D01*
G37*
G36*
X147095031Y-110932127D02*
X145256554Y-112770604D01*
X144549447Y-112063497D01*
X146387924Y-110225020D01*
X147095031Y-110932127D01*
X147095031Y-110932127D01*
G37*
G36*
X144266604Y-113760554D02*
X142428127Y-115599031D01*
X141721020Y-114891924D01*
X143559497Y-113053447D01*
X144266604Y-113760554D01*
X144266604Y-113760554D01*
G37*
G36*
X146197006Y-110034101D02*
X144358529Y-111872578D01*
X143651422Y-111165471D01*
X145489899Y-109326994D01*
X146197006Y-110034101D01*
X146197006Y-110034101D01*
G37*
G36*
X143368578Y-112862529D02*
X141530101Y-114701006D01*
X140822994Y-113993899D01*
X142661471Y-112155422D01*
X143368578Y-112862529D01*
X143368578Y-112862529D01*
G37*
G36*
X145298980Y-109136076D02*
X143460503Y-110974553D01*
X142753396Y-110267446D01*
X144591873Y-108428969D01*
X145298980Y-109136076D01*
X145298980Y-109136076D01*
G37*
G36*
X142470553Y-111964503D02*
X140632076Y-113802980D01*
X139924969Y-113095873D01*
X141763446Y-111257396D01*
X142470553Y-111964503D01*
X142470553Y-111964503D01*
G37*
G36*
X144400954Y-108238050D02*
X142562477Y-110076527D01*
X141855370Y-109369420D01*
X143693847Y-107530943D01*
X144400954Y-108238050D01*
X144400954Y-108238050D01*
G37*
G36*
X141572527Y-111066477D02*
X139734050Y-112904954D01*
X139026943Y-112197847D01*
X140865420Y-110359370D01*
X141572527Y-111066477D01*
X141572527Y-111066477D01*
G37*
G36*
X143502929Y-107340025D02*
X141664452Y-109178502D01*
X140957345Y-108471395D01*
X142795822Y-106632918D01*
X143502929Y-107340025D01*
X143502929Y-107340025D01*
G37*
G36*
X140674502Y-110168452D02*
X138836025Y-112006929D01*
X138128918Y-111299822D01*
X139967395Y-109461345D01*
X140674502Y-110168452D01*
X140674502Y-110168452D01*
G37*
G36*
X152137577Y-85527837D02*
X151367801Y-86445221D01*
X150450417Y-85675445D01*
X151220193Y-84758061D01*
X152137577Y-85527837D01*
X152137577Y-85527837D01*
G37*
G36*
X150989583Y-84564555D02*
X150219807Y-85481939D01*
X149302423Y-84712163D01*
X150072199Y-83794779D01*
X150989583Y-84564555D01*
X150989583Y-84564555D01*
G37*
G36*
X142662187Y-90232294D02*
X142474847Y-89049478D01*
X143657663Y-88862138D01*
X143845003Y-90044954D01*
X142662187Y-90232294D01*
X142662187Y-90232294D01*
G37*
G36*
X144142337Y-89997862D02*
X143954997Y-88815046D01*
X145137813Y-88627706D01*
X145325153Y-89810522D01*
X144142337Y-89997862D01*
X144142337Y-89997862D01*
G37*
G36*
X141738592Y-117070769D02*
X140482856Y-117795769D01*
X139582856Y-116236923D01*
X140838592Y-115511923D01*
X141738592Y-117070769D01*
X141738592Y-117070769D01*
G37*
G36*
X139938592Y-113953077D02*
X138682856Y-114678077D01*
X137782856Y-113119231D01*
X139038592Y-112394231D01*
X139938592Y-113953077D01*
X139938592Y-113953077D01*
G37*
G36*
X140093144Y-118020769D02*
X138837408Y-118745769D01*
X137937408Y-117186923D01*
X139193144Y-116461923D01*
X140093144Y-118020769D01*
X140093144Y-118020769D01*
G37*
G36*
X138293144Y-114903077D02*
X137037408Y-115628077D01*
X136137408Y-114069231D01*
X137393144Y-113344231D01*
X138293144Y-114903077D01*
X138293144Y-114903077D01*
G37*
G36*
X169031883Y-100304878D02*
X169951122Y-101224117D01*
X168819751Y-102355488D01*
X167900512Y-101436249D01*
X169031883Y-100304878D01*
X169031883Y-100304878D01*
G37*
G36*
X167476249Y-101860512D02*
X168395488Y-102779751D01*
X167264117Y-103911122D01*
X166344878Y-102991883D01*
X167476249Y-101860512D01*
X167476249Y-101860512D01*
G37*
D15*
X141308000Y-90678000D03*
X139108000Y-90678000D03*
D10*
G36*
X142089913Y-96274986D02*
X144922622Y-91560566D01*
X147408407Y-93054176D01*
X144575698Y-97768596D01*
X142089913Y-96274986D01*
X142089913Y-96274986D01*
G37*
G36*
X160947593Y-107605824D02*
X163780302Y-102891404D01*
X166266087Y-104385014D01*
X163433378Y-109099434D01*
X160947593Y-107605824D01*
X160947593Y-107605824D01*
G37*
D16*
X154178000Y-100330000D03*
D17*
G36*
X141021235Y-84635013D02*
X140771235Y-85295013D01*
X140769092Y-85301137D01*
X140679092Y-85581137D01*
X140673110Y-85625287D01*
X140683110Y-85865287D01*
X140689517Y-85900161D01*
X140769517Y-86140161D01*
X140790138Y-86178463D01*
X141010138Y-86458463D01*
X141020197Y-86469803D01*
X141270197Y-86719803D01*
X141272799Y-86722331D01*
X141452799Y-86892331D01*
X141473440Y-86908161D01*
X141733440Y-87068161D01*
X141738796Y-87071279D01*
X142138796Y-87291279D01*
X142145266Y-87294600D01*
X142809823Y-87612000D01*
X143100836Y-87786608D01*
X143284779Y-87915368D01*
X143420832Y-88069562D01*
X143371467Y-88118927D01*
X143192799Y-88287669D01*
X143190197Y-88290197D01*
X143061252Y-88419142D01*
X142928834Y-88498593D01*
X142800537Y-88562742D01*
X142589457Y-88636161D01*
X142401161Y-88664405D01*
X142401045Y-88664423D01*
X141871663Y-88744330D01*
X141522291Y-88794240D01*
X141320859Y-88821708D01*
X141160270Y-88797620D01*
X141015779Y-88721124D01*
X140840226Y-88601009D01*
X140627690Y-88398134D01*
X140623010Y-88393883D01*
X140403010Y-88203883D01*
X140379765Y-88187941D01*
X140229765Y-88107941D01*
X140181459Y-88093518D01*
X140122833Y-88102083D01*
X140022833Y-88142083D01*
X139968400Y-88183800D01*
X139909241Y-88262678D01*
X139800138Y-88401537D01*
X139777479Y-88446571D01*
X139777182Y-88512321D01*
X139825930Y-88697563D01*
X139903949Y-89126669D01*
X139904918Y-89138292D01*
X139417732Y-89310240D01*
X139417351Y-89310375D01*
X138381154Y-89679802D01*
X138316664Y-89523950D01*
X138307032Y-88801550D01*
X138326484Y-88286088D01*
X138391602Y-87988405D01*
X138566193Y-87571326D01*
X138763019Y-87148151D01*
X139057865Y-86627256D01*
X139570270Y-85878357D01*
X139882433Y-85527173D01*
X140089803Y-85319803D01*
X140094175Y-85315206D01*
X140275515Y-85114777D01*
X140562528Y-84904301D01*
X140995828Y-84618717D01*
X141061582Y-84582275D01*
X141021235Y-84635013D01*
X141021235Y-84635013D01*
G37*
X141021235Y-84635013D02*
X140771235Y-85295013D01*
X140769092Y-85301137D01*
X140679092Y-85581137D01*
X140673110Y-85625287D01*
X140683110Y-85865287D01*
X140689517Y-85900161D01*
X140769517Y-86140161D01*
X140790138Y-86178463D01*
X141010138Y-86458463D01*
X141020197Y-86469803D01*
X141270197Y-86719803D01*
X141272799Y-86722331D01*
X141452799Y-86892331D01*
X141473440Y-86908161D01*
X141733440Y-87068161D01*
X141738796Y-87071279D01*
X142138796Y-87291279D01*
X142145266Y-87294600D01*
X142809823Y-87612000D01*
X143100836Y-87786608D01*
X143284779Y-87915368D01*
X143420832Y-88069562D01*
X143371467Y-88118927D01*
X143192799Y-88287669D01*
X143190197Y-88290197D01*
X143061252Y-88419142D01*
X142928834Y-88498593D01*
X142800537Y-88562742D01*
X142589457Y-88636161D01*
X142401161Y-88664405D01*
X142401045Y-88664423D01*
X141871663Y-88744330D01*
X141522291Y-88794240D01*
X141320859Y-88821708D01*
X141160270Y-88797620D01*
X141015779Y-88721124D01*
X140840226Y-88601009D01*
X140627690Y-88398134D01*
X140623010Y-88393883D01*
X140403010Y-88203883D01*
X140379765Y-88187941D01*
X140229765Y-88107941D01*
X140181459Y-88093518D01*
X140122833Y-88102083D01*
X140022833Y-88142083D01*
X139968400Y-88183800D01*
X139909241Y-88262678D01*
X139800138Y-88401537D01*
X139777479Y-88446571D01*
X139777182Y-88512321D01*
X139825930Y-88697563D01*
X139903949Y-89126669D01*
X139904918Y-89138292D01*
X139417732Y-89310240D01*
X139417351Y-89310375D01*
X138381154Y-89679802D01*
X138316664Y-89523950D01*
X138307032Y-88801550D01*
X138326484Y-88286088D01*
X138391602Y-87988405D01*
X138566193Y-87571326D01*
X138763019Y-87148151D01*
X139057865Y-86627256D01*
X139570270Y-85878357D01*
X139882433Y-85527173D01*
X140089803Y-85319803D01*
X140094175Y-85315206D01*
X140275515Y-85114777D01*
X140562528Y-84904301D01*
X140995828Y-84618717D01*
X141061582Y-84582275D01*
X141021235Y-84635013D01*
G36*
X145106157Y-83374814D02*
X146032027Y-83583881D01*
X146037529Y-83584996D01*
X146915212Y-83742782D01*
X148012358Y-84173804D01*
X148947304Y-84764296D01*
X149541709Y-85220006D01*
X150284231Y-85814023D01*
X150793401Y-86342777D01*
X151130900Y-86786347D01*
X151295354Y-87133528D01*
X151323262Y-87468425D01*
X151351454Y-88032262D01*
X151048897Y-88620567D01*
X150619311Y-88554477D01*
X150619072Y-88554440D01*
X149829072Y-88434440D01*
X149819194Y-88433333D01*
X148579194Y-88343333D01*
X148572539Y-88343025D01*
X148072539Y-88333025D01*
X148065949Y-88333065D01*
X147125949Y-88363065D01*
X147124127Y-88363136D01*
X146044127Y-88413136D01*
X146043812Y-88413151D01*
X145224555Y-88453115D01*
X144695211Y-88473090D01*
X144694601Y-88473115D01*
X144240009Y-88492459D01*
X144255164Y-88401527D01*
X144285068Y-88232071D01*
X144285886Y-88226785D01*
X144305886Y-88076785D01*
X144307000Y-88060000D01*
X144307000Y-87940000D01*
X144303748Y-87911443D01*
X144273748Y-87781443D01*
X144266352Y-87759096D01*
X144196352Y-87599096D01*
X144183344Y-87576183D01*
X144083344Y-87436183D01*
X144059336Y-87410830D01*
X143909336Y-87290830D01*
X143903239Y-87286245D01*
X143733239Y-87166245D01*
X143720814Y-87158507D01*
X143501461Y-87038860D01*
X143092135Y-86809238D01*
X143089765Y-86807941D01*
X142641271Y-86568744D01*
X142138477Y-86282842D01*
X141933817Y-86136656D01*
X141932290Y-86135582D01*
X141821275Y-86058725D01*
X141752589Y-85959512D01*
X141684800Y-85790039D01*
X141668102Y-85606370D01*
X141712921Y-85373311D01*
X141764100Y-85228305D01*
X141839155Y-85119893D01*
X141967739Y-84982123D01*
X142080414Y-84886783D01*
X142193681Y-84830150D01*
X142384643Y-84784682D01*
X142565347Y-84756150D01*
X142905433Y-84727000D01*
X143138017Y-84727000D01*
X143451182Y-84736786D01*
X143813394Y-84775944D01*
X144260479Y-84845491D01*
X144289740Y-84846626D01*
X144419740Y-84836626D01*
X144466796Y-84823592D01*
X144526796Y-84793592D01*
X144553630Y-84775577D01*
X144633630Y-84705577D01*
X144664226Y-84665510D01*
X144677000Y-84610000D01*
X144677000Y-84560000D01*
X144655670Y-84489553D01*
X144595670Y-84399553D01*
X144577041Y-84377519D01*
X144407041Y-84217519D01*
X144387310Y-84202304D01*
X144147310Y-84052304D01*
X144126279Y-84041732D01*
X143896279Y-83951732D01*
X143862637Y-83943630D01*
X143462637Y-83903630D01*
X143462041Y-83903572D01*
X143252041Y-83883572D01*
X143243847Y-83883058D01*
X142913847Y-83873058D01*
X142902755Y-83873207D01*
X142552755Y-83893207D01*
X142542039Y-83894276D01*
X142290693Y-83930183D01*
X142485388Y-83834288D01*
X142923970Y-83624965D01*
X143307160Y-83448108D01*
X143814590Y-83275773D01*
X144293835Y-83247582D01*
X145106157Y-83374814D01*
X145106157Y-83374814D01*
G37*
X145106157Y-83374814D02*
X146032027Y-83583881D01*
X146037529Y-83584996D01*
X146915212Y-83742782D01*
X148012358Y-84173804D01*
X148947304Y-84764296D01*
X149541709Y-85220006D01*
X150284231Y-85814023D01*
X150793401Y-86342777D01*
X151130900Y-86786347D01*
X151295354Y-87133528D01*
X151323262Y-87468425D01*
X151351454Y-88032262D01*
X151048897Y-88620567D01*
X150619311Y-88554477D01*
X150619072Y-88554440D01*
X149829072Y-88434440D01*
X149819194Y-88433333D01*
X148579194Y-88343333D01*
X148572539Y-88343025D01*
X148072539Y-88333025D01*
X148065949Y-88333065D01*
X147125949Y-88363065D01*
X147124127Y-88363136D01*
X146044127Y-88413136D01*
X146043812Y-88413151D01*
X145224555Y-88453115D01*
X144695211Y-88473090D01*
X144694601Y-88473115D01*
X144240009Y-88492459D01*
X144255164Y-88401527D01*
X144285068Y-88232071D01*
X144285886Y-88226785D01*
X144305886Y-88076785D01*
X144307000Y-88060000D01*
X144307000Y-87940000D01*
X144303748Y-87911443D01*
X144273748Y-87781443D01*
X144266352Y-87759096D01*
X144196352Y-87599096D01*
X144183344Y-87576183D01*
X144083344Y-87436183D01*
X144059336Y-87410830D01*
X143909336Y-87290830D01*
X143903239Y-87286245D01*
X143733239Y-87166245D01*
X143720814Y-87158507D01*
X143501461Y-87038860D01*
X143092135Y-86809238D01*
X143089765Y-86807941D01*
X142641271Y-86568744D01*
X142138477Y-86282842D01*
X141933817Y-86136656D01*
X141932290Y-86135582D01*
X141821275Y-86058725D01*
X141752589Y-85959512D01*
X141684800Y-85790039D01*
X141668102Y-85606370D01*
X141712921Y-85373311D01*
X141764100Y-85228305D01*
X141839155Y-85119893D01*
X141967739Y-84982123D01*
X142080414Y-84886783D01*
X142193681Y-84830150D01*
X142384643Y-84784682D01*
X142565347Y-84756150D01*
X142905433Y-84727000D01*
X143138017Y-84727000D01*
X143451182Y-84736786D01*
X143813394Y-84775944D01*
X144260479Y-84845491D01*
X144289740Y-84846626D01*
X144419740Y-84836626D01*
X144466796Y-84823592D01*
X144526796Y-84793592D01*
X144553630Y-84775577D01*
X144633630Y-84705577D01*
X144664226Y-84665510D01*
X144677000Y-84610000D01*
X144677000Y-84560000D01*
X144655670Y-84489553D01*
X144595670Y-84399553D01*
X144577041Y-84377519D01*
X144407041Y-84217519D01*
X144387310Y-84202304D01*
X144147310Y-84052304D01*
X144126279Y-84041732D01*
X143896279Y-83951732D01*
X143862637Y-83943630D01*
X143462637Y-83903630D01*
X143462041Y-83903572D01*
X143252041Y-83883572D01*
X143243847Y-83883058D01*
X142913847Y-83873058D01*
X142902755Y-83873207D01*
X142552755Y-83893207D01*
X142542039Y-83894276D01*
X142290693Y-83930183D01*
X142485388Y-83834288D01*
X142923970Y-83624965D01*
X143307160Y-83448108D01*
X143814590Y-83275773D01*
X144293835Y-83247582D01*
X145106157Y-83374814D01*
M02*
