G04 #@! TF.FileFunction,Copper,L1,Top,Signal*
%FSLAX46Y46*%
G04 Gerber Fmt 4.6, Leading zero omitted, Abs format (unit mm)*
G04 Created by KiCad (PCBNEW 4.0.5+dfsg1-4) date Sat Aug 24 03:06:04 2019*
%MOMM*%
%LPD*%
G01*
G04 APERTURE LIST*
%ADD10C,0.100000*%
%ADD11C,0.010000*%
%ADD12R,0.797560X0.797560*%
%ADD13C,0.990600*%
%ADD14C,0.600000*%
%ADD15C,0.250000*%
G04 APERTURE END LIST*
D10*
D11*
G36*
X147217942Y-112710459D02*
X147391278Y-112759054D01*
X147668986Y-112879115D01*
X147970212Y-113048691D01*
X148266269Y-113250639D01*
X148426475Y-113377671D01*
X148634820Y-113553350D01*
X148390160Y-113653483D01*
X148037273Y-113786974D01*
X147620237Y-113926103D01*
X147158746Y-114064705D01*
X146672491Y-114196612D01*
X146583852Y-114219169D01*
X146335143Y-114280742D01*
X146136330Y-114325706D01*
X145964212Y-114357050D01*
X145795592Y-114377764D01*
X145607270Y-114390838D01*
X145376048Y-114399263D01*
X145144519Y-114404665D01*
X144859737Y-114408034D01*
X144568267Y-114406956D01*
X144295240Y-114401832D01*
X144065790Y-114393058D01*
X143954500Y-114385801D01*
X143583603Y-114349998D01*
X143288353Y-114309348D01*
X143059784Y-114262051D01*
X142888934Y-114206309D01*
X142781589Y-114150415D01*
X142624679Y-114047233D01*
X142684058Y-113849932D01*
X142725463Y-113728527D01*
X142763405Y-113643531D01*
X142777469Y-113623827D01*
X142832856Y-113604302D01*
X142949626Y-113578094D01*
X143105285Y-113550082D01*
X143150167Y-113542980D01*
X143347915Y-113508838D01*
X143546959Y-113468384D01*
X143705712Y-113430103D01*
X143711794Y-113428412D01*
X143844829Y-113402106D01*
X144035576Y-113378451D01*
X144257079Y-113360262D01*
X144452627Y-113351105D01*
X144698300Y-113340770D01*
X144898920Y-113322141D01*
X145087525Y-113289868D01*
X145297154Y-113238604D01*
X145495624Y-113182253D01*
X145754117Y-113099229D01*
X145992998Y-113009245D01*
X146187550Y-112922033D01*
X146267236Y-112878450D01*
X146572881Y-112739386D01*
X146891979Y-112683155D01*
X147217942Y-112710459D01*
X147217942Y-112710459D01*
G37*
X147217942Y-112710459D02*
X147391278Y-112759054D01*
X147668986Y-112879115D01*
X147970212Y-113048691D01*
X148266269Y-113250639D01*
X148426475Y-113377671D01*
X148634820Y-113553350D01*
X148390160Y-113653483D01*
X148037273Y-113786974D01*
X147620237Y-113926103D01*
X147158746Y-114064705D01*
X146672491Y-114196612D01*
X146583852Y-114219169D01*
X146335143Y-114280742D01*
X146136330Y-114325706D01*
X145964212Y-114357050D01*
X145795592Y-114377764D01*
X145607270Y-114390838D01*
X145376048Y-114399263D01*
X145144519Y-114404665D01*
X144859737Y-114408034D01*
X144568267Y-114406956D01*
X144295240Y-114401832D01*
X144065790Y-114393058D01*
X143954500Y-114385801D01*
X143583603Y-114349998D01*
X143288353Y-114309348D01*
X143059784Y-114262051D01*
X142888934Y-114206309D01*
X142781589Y-114150415D01*
X142624679Y-114047233D01*
X142684058Y-113849932D01*
X142725463Y-113728527D01*
X142763405Y-113643531D01*
X142777469Y-113623827D01*
X142832856Y-113604302D01*
X142949626Y-113578094D01*
X143105285Y-113550082D01*
X143150167Y-113542980D01*
X143347915Y-113508838D01*
X143546959Y-113468384D01*
X143705712Y-113430103D01*
X143711794Y-113428412D01*
X143844829Y-113402106D01*
X144035576Y-113378451D01*
X144257079Y-113360262D01*
X144452627Y-113351105D01*
X144698300Y-113340770D01*
X144898920Y-113322141D01*
X145087525Y-113289868D01*
X145297154Y-113238604D01*
X145495624Y-113182253D01*
X145754117Y-113099229D01*
X145992998Y-113009245D01*
X146187550Y-112922033D01*
X146267236Y-112878450D01*
X146572881Y-112739386D01*
X146891979Y-112683155D01*
X147217942Y-112710459D01*
G36*
X150086202Y-107611334D02*
X150055613Y-107906070D01*
X149992975Y-108218594D01*
X149894725Y-108560581D01*
X149757303Y-108943705D01*
X149577147Y-109379642D01*
X149480009Y-109598763D01*
X149372148Y-109832694D01*
X149281739Y-110011128D01*
X149194044Y-110156876D01*
X149094328Y-110292750D01*
X148967854Y-110441562D01*
X148855142Y-110566044D01*
X148641560Y-110786222D01*
X148389769Y-111024541D01*
X148108284Y-111274660D01*
X147805616Y-111530238D01*
X147490279Y-111784935D01*
X147170786Y-112032411D01*
X146855651Y-112266326D01*
X146553385Y-112480337D01*
X146272503Y-112668107D01*
X146021517Y-112823293D01*
X145808940Y-112939556D01*
X145643285Y-113010555D01*
X145546107Y-113030578D01*
X145414054Y-113038070D01*
X145303482Y-113055406D01*
X145299783Y-113056369D01*
X145221800Y-113056713D01*
X145166631Y-112993857D01*
X145153448Y-112966831D01*
X145113898Y-112897093D01*
X145061302Y-112868367D01*
X144966493Y-112869914D01*
X144908832Y-112876783D01*
X144316303Y-112946243D01*
X143791724Y-112992498D01*
X143321608Y-113015495D01*
X142892466Y-113015180D01*
X142490807Y-112991496D01*
X142103144Y-112944391D01*
X141715986Y-112873809D01*
X141668500Y-112863668D01*
X141283119Y-112775974D01*
X140963548Y-112692284D01*
X140691625Y-112605788D01*
X140449186Y-112509680D01*
X140218069Y-112397152D01*
X139980109Y-112261395D01*
X139854678Y-112183808D01*
X139647355Y-112050839D01*
X139491880Y-111942460D01*
X139367413Y-111839840D01*
X139253115Y-111724152D01*
X139128146Y-111576567D01*
X138992074Y-111404425D01*
X138630599Y-110941208D01*
X138654822Y-110652279D01*
X138699682Y-110400457D01*
X138795204Y-110173476D01*
X138950504Y-109956479D01*
X139174701Y-109734612D01*
X139265021Y-109658073D01*
X139652539Y-109391027D01*
X140101357Y-109176929D01*
X140612789Y-109015418D01*
X141188150Y-108906134D01*
X141828754Y-108848718D01*
X142255491Y-108839008D01*
X142927148Y-108839000D01*
X143504324Y-109046278D01*
X143747971Y-109136294D01*
X143997563Y-109232798D01*
X144225485Y-109324860D01*
X144404122Y-109401547D01*
X144420167Y-109408845D01*
X144623146Y-109491540D01*
X144853200Y-109563456D01*
X145130988Y-109630409D01*
X145393834Y-109682878D01*
X145611228Y-109723072D01*
X145784396Y-109752306D01*
X145932453Y-109771494D01*
X146074515Y-109781554D01*
X146229696Y-109783402D01*
X146417111Y-109777952D01*
X146655876Y-109766122D01*
X146875500Y-109753875D01*
X147722167Y-109706126D01*
X148420667Y-109308968D01*
X149119167Y-108911809D01*
X149477539Y-108477620D01*
X149617370Y-108300688D01*
X149740294Y-108131229D01*
X149833832Y-107987405D01*
X149885504Y-107887379D01*
X149887948Y-107880299D01*
X149928690Y-107751329D01*
X149981565Y-107582335D01*
X150025175Y-107442000D01*
X150110365Y-107166834D01*
X150086202Y-107611334D01*
X150086202Y-107611334D01*
G37*
X150086202Y-107611334D02*
X150055613Y-107906070D01*
X149992975Y-108218594D01*
X149894725Y-108560581D01*
X149757303Y-108943705D01*
X149577147Y-109379642D01*
X149480009Y-109598763D01*
X149372148Y-109832694D01*
X149281739Y-110011128D01*
X149194044Y-110156876D01*
X149094328Y-110292750D01*
X148967854Y-110441562D01*
X148855142Y-110566044D01*
X148641560Y-110786222D01*
X148389769Y-111024541D01*
X148108284Y-111274660D01*
X147805616Y-111530238D01*
X147490279Y-111784935D01*
X147170786Y-112032411D01*
X146855651Y-112266326D01*
X146553385Y-112480337D01*
X146272503Y-112668107D01*
X146021517Y-112823293D01*
X145808940Y-112939556D01*
X145643285Y-113010555D01*
X145546107Y-113030578D01*
X145414054Y-113038070D01*
X145303482Y-113055406D01*
X145299783Y-113056369D01*
X145221800Y-113056713D01*
X145166631Y-112993857D01*
X145153448Y-112966831D01*
X145113898Y-112897093D01*
X145061302Y-112868367D01*
X144966493Y-112869914D01*
X144908832Y-112876783D01*
X144316303Y-112946243D01*
X143791724Y-112992498D01*
X143321608Y-113015495D01*
X142892466Y-113015180D01*
X142490807Y-112991496D01*
X142103144Y-112944391D01*
X141715986Y-112873809D01*
X141668500Y-112863668D01*
X141283119Y-112775974D01*
X140963548Y-112692284D01*
X140691625Y-112605788D01*
X140449186Y-112509680D01*
X140218069Y-112397152D01*
X139980109Y-112261395D01*
X139854678Y-112183808D01*
X139647355Y-112050839D01*
X139491880Y-111942460D01*
X139367413Y-111839840D01*
X139253115Y-111724152D01*
X139128146Y-111576567D01*
X138992074Y-111404425D01*
X138630599Y-110941208D01*
X138654822Y-110652279D01*
X138699682Y-110400457D01*
X138795204Y-110173476D01*
X138950504Y-109956479D01*
X139174701Y-109734612D01*
X139265021Y-109658073D01*
X139652539Y-109391027D01*
X140101357Y-109176929D01*
X140612789Y-109015418D01*
X141188150Y-108906134D01*
X141828754Y-108848718D01*
X142255491Y-108839008D01*
X142927148Y-108839000D01*
X143504324Y-109046278D01*
X143747971Y-109136294D01*
X143997563Y-109232798D01*
X144225485Y-109324860D01*
X144404122Y-109401547D01*
X144420167Y-109408845D01*
X144623146Y-109491540D01*
X144853200Y-109563456D01*
X145130988Y-109630409D01*
X145393834Y-109682878D01*
X145611228Y-109723072D01*
X145784396Y-109752306D01*
X145932453Y-109771494D01*
X146074515Y-109781554D01*
X146229696Y-109783402D01*
X146417111Y-109777952D01*
X146655876Y-109766122D01*
X146875500Y-109753875D01*
X147722167Y-109706126D01*
X148420667Y-109308968D01*
X149119167Y-108911809D01*
X149477539Y-108477620D01*
X149617370Y-108300688D01*
X149740294Y-108131229D01*
X149833832Y-107987405D01*
X149885504Y-107887379D01*
X149887948Y-107880299D01*
X149928690Y-107751329D01*
X149981565Y-107582335D01*
X150025175Y-107442000D01*
X150110365Y-107166834D01*
X150086202Y-107611334D01*
G36*
X162245201Y-105133566D02*
X162212511Y-105244560D01*
X162156615Y-105402935D01*
X162083167Y-105593729D01*
X161997821Y-105801976D01*
X161906231Y-106012710D01*
X161861311Y-106111211D01*
X161799355Y-106254084D01*
X161714938Y-106462476D01*
X161613591Y-106721998D01*
X161500844Y-107018264D01*
X161382226Y-107336886D01*
X161263270Y-107663477D01*
X161243840Y-107717558D01*
X160809047Y-108930315D01*
X160928421Y-109297407D01*
X160992867Y-109479658D01*
X161060842Y-109646247D01*
X161120671Y-109769281D01*
X161137543Y-109796919D01*
X161264326Y-109948828D01*
X161422408Y-110088654D01*
X161586257Y-110196780D01*
X161730338Y-110253585D01*
X161732393Y-110253979D01*
X161833184Y-110281480D01*
X161874836Y-110330463D01*
X161882667Y-110419351D01*
X161874466Y-110483883D01*
X161843851Y-110554094D01*
X161781803Y-110642247D01*
X161679302Y-110760610D01*
X161527329Y-110921448D01*
X161469917Y-110980663D01*
X161270585Y-111181274D01*
X161044121Y-111402544D01*
X160820176Y-111615816D01*
X160650096Y-111772897D01*
X160482134Y-111923600D01*
X160361242Y-112026223D01*
X160272083Y-112089903D01*
X160199319Y-112123780D01*
X160127613Y-112136990D01*
X160041629Y-112138670D01*
X160036263Y-112138611D01*
X159876770Y-112126223D01*
X159725134Y-112098044D01*
X159683424Y-112085694D01*
X159594392Y-112046635D01*
X159523528Y-111991031D01*
X159467136Y-111908153D01*
X159421522Y-111787272D01*
X159382991Y-111617659D01*
X159347847Y-111388583D01*
X159312395Y-111089315D01*
X159299846Y-110971869D01*
X159209556Y-110219908D01*
X159101453Y-109527607D01*
X158970935Y-108870994D01*
X158813397Y-108226100D01*
X158685247Y-107771063D01*
X158628520Y-107575744D01*
X158581970Y-107408555D01*
X158550332Y-107286993D01*
X158538341Y-107228556D01*
X158538334Y-107228071D01*
X158579950Y-107202549D01*
X158704666Y-107192196D01*
X158866417Y-107194943D01*
X159020485Y-107199402D01*
X159134997Y-107193101D01*
X159236538Y-107168955D01*
X159351693Y-107119879D01*
X159507046Y-107038790D01*
X159560066Y-107010090D01*
X160037885Y-106746898D01*
X160447497Y-106511745D01*
X160798076Y-106298303D01*
X161098795Y-106100248D01*
X161358828Y-105911252D01*
X161587347Y-105724990D01*
X161793525Y-105535135D01*
X161983248Y-105338947D01*
X162096321Y-105219514D01*
X162186726Y-105131111D01*
X162240590Y-105086999D01*
X162249033Y-105084921D01*
X162245201Y-105133566D01*
X162245201Y-105133566D01*
G37*
X162245201Y-105133566D02*
X162212511Y-105244560D01*
X162156615Y-105402935D01*
X162083167Y-105593729D01*
X161997821Y-105801976D01*
X161906231Y-106012710D01*
X161861311Y-106111211D01*
X161799355Y-106254084D01*
X161714938Y-106462476D01*
X161613591Y-106721998D01*
X161500844Y-107018264D01*
X161382226Y-107336886D01*
X161263270Y-107663477D01*
X161243840Y-107717558D01*
X160809047Y-108930315D01*
X160928421Y-109297407D01*
X160992867Y-109479658D01*
X161060842Y-109646247D01*
X161120671Y-109769281D01*
X161137543Y-109796919D01*
X161264326Y-109948828D01*
X161422408Y-110088654D01*
X161586257Y-110196780D01*
X161730338Y-110253585D01*
X161732393Y-110253979D01*
X161833184Y-110281480D01*
X161874836Y-110330463D01*
X161882667Y-110419351D01*
X161874466Y-110483883D01*
X161843851Y-110554094D01*
X161781803Y-110642247D01*
X161679302Y-110760610D01*
X161527329Y-110921448D01*
X161469917Y-110980663D01*
X161270585Y-111181274D01*
X161044121Y-111402544D01*
X160820176Y-111615816D01*
X160650096Y-111772897D01*
X160482134Y-111923600D01*
X160361242Y-112026223D01*
X160272083Y-112089903D01*
X160199319Y-112123780D01*
X160127613Y-112136990D01*
X160041629Y-112138670D01*
X160036263Y-112138611D01*
X159876770Y-112126223D01*
X159725134Y-112098044D01*
X159683424Y-112085694D01*
X159594392Y-112046635D01*
X159523528Y-111991031D01*
X159467136Y-111908153D01*
X159421522Y-111787272D01*
X159382991Y-111617659D01*
X159347847Y-111388583D01*
X159312395Y-111089315D01*
X159299846Y-110971869D01*
X159209556Y-110219908D01*
X159101453Y-109527607D01*
X158970935Y-108870994D01*
X158813397Y-108226100D01*
X158685247Y-107771063D01*
X158628520Y-107575744D01*
X158581970Y-107408555D01*
X158550332Y-107286993D01*
X158538341Y-107228556D01*
X158538334Y-107228071D01*
X158579950Y-107202549D01*
X158704666Y-107192196D01*
X158866417Y-107194943D01*
X159020485Y-107199402D01*
X159134997Y-107193101D01*
X159236538Y-107168955D01*
X159351693Y-107119879D01*
X159507046Y-107038790D01*
X159560066Y-107010090D01*
X160037885Y-106746898D01*
X160447497Y-106511745D01*
X160798076Y-106298303D01*
X161098795Y-106100248D01*
X161358828Y-105911252D01*
X161587347Y-105724990D01*
X161793525Y-105535135D01*
X161983248Y-105338947D01*
X162096321Y-105219514D01*
X162186726Y-105131111D01*
X162240590Y-105086999D01*
X162249033Y-105084921D01*
X162245201Y-105133566D01*
G36*
X165029993Y-106307937D02*
X165375167Y-106320167D01*
X165388123Y-106595334D01*
X165385938Y-106770659D01*
X165368482Y-106987506D01*
X165339304Y-107204848D01*
X165331572Y-107249155D01*
X165273133Y-107501905D01*
X165193957Y-107711452D01*
X165086484Y-107881575D01*
X164943151Y-108016049D01*
X164756397Y-108118653D01*
X164518661Y-108193164D01*
X164222380Y-108243359D01*
X163859995Y-108273014D01*
X163423942Y-108285908D01*
X163253626Y-108287157D01*
X163031804Y-108286334D01*
X162877201Y-108280726D01*
X162772404Y-108267927D01*
X162699999Y-108245531D01*
X162642571Y-108211136D01*
X162629209Y-108200928D01*
X162535817Y-108084079D01*
X162517667Y-107989261D01*
X162535574Y-107896958D01*
X162595001Y-107866776D01*
X162704505Y-107896687D01*
X162771972Y-107928991D01*
X162826731Y-107954621D01*
X162875020Y-107961532D01*
X162931511Y-107942311D01*
X163010876Y-107889545D01*
X163127784Y-107795820D01*
X163267287Y-107678705D01*
X163641039Y-107360599D01*
X163959475Y-107083541D01*
X164220440Y-106849519D01*
X164421782Y-106660523D01*
X164561347Y-106518543D01*
X164636981Y-106425569D01*
X164648993Y-106402131D01*
X164670739Y-106349828D01*
X164705073Y-106319091D01*
X164770924Y-106305238D01*
X164887223Y-106303589D01*
X165029993Y-106307937D01*
X165029993Y-106307937D01*
G37*
X165029993Y-106307937D02*
X165375167Y-106320167D01*
X165388123Y-106595334D01*
X165385938Y-106770659D01*
X165368482Y-106987506D01*
X165339304Y-107204848D01*
X165331572Y-107249155D01*
X165273133Y-107501905D01*
X165193957Y-107711452D01*
X165086484Y-107881575D01*
X164943151Y-108016049D01*
X164756397Y-108118653D01*
X164518661Y-108193164D01*
X164222380Y-108243359D01*
X163859995Y-108273014D01*
X163423942Y-108285908D01*
X163253626Y-108287157D01*
X163031804Y-108286334D01*
X162877201Y-108280726D01*
X162772404Y-108267927D01*
X162699999Y-108245531D01*
X162642571Y-108211136D01*
X162629209Y-108200928D01*
X162535817Y-108084079D01*
X162517667Y-107989261D01*
X162535574Y-107896958D01*
X162595001Y-107866776D01*
X162704505Y-107896687D01*
X162771972Y-107928991D01*
X162826731Y-107954621D01*
X162875020Y-107961532D01*
X162931511Y-107942311D01*
X163010876Y-107889545D01*
X163127784Y-107795820D01*
X163267287Y-107678705D01*
X163641039Y-107360599D01*
X163959475Y-107083541D01*
X164220440Y-106849519D01*
X164421782Y-106660523D01*
X164561347Y-106518543D01*
X164636981Y-106425569D01*
X164648993Y-106402131D01*
X164670739Y-106349828D01*
X164705073Y-106319091D01*
X164770924Y-106305238D01*
X164887223Y-106303589D01*
X165029993Y-106307937D01*
G36*
X150115805Y-104580474D02*
X150269141Y-104594782D01*
X150337756Y-104602278D01*
X150621682Y-104650576D01*
X150902769Y-104735111D01*
X151095099Y-104811290D01*
X151283665Y-104889913D01*
X151523465Y-104987639D01*
X151786683Y-105093244D01*
X152045504Y-105195505D01*
X152103441Y-105218134D01*
X152349853Y-105313317D01*
X152537340Y-105378933D01*
X152686165Y-105415378D01*
X152816587Y-105423051D01*
X152948869Y-105402349D01*
X153103272Y-105353670D01*
X153300058Y-105277413D01*
X153385145Y-105243298D01*
X153691167Y-105120600D01*
X153915179Y-105339383D01*
X154028674Y-105452044D01*
X154089168Y-105522448D01*
X154104571Y-105567144D01*
X154082796Y-105602680D01*
X154053204Y-105628095D01*
X153980514Y-105672045D01*
X153848805Y-105738017D01*
X153677675Y-105816604D01*
X153511692Y-105888034D01*
X153296451Y-105974747D01*
X153128552Y-106032264D01*
X152978883Y-106067766D01*
X152818330Y-106088433D01*
X152654000Y-106099568D01*
X152450814Y-106103489D01*
X152196356Y-106098186D01*
X151923381Y-106084810D01*
X151668914Y-106064926D01*
X151432292Y-106040999D01*
X151262461Y-106019499D01*
X151141817Y-105996095D01*
X151052755Y-105966461D01*
X150977669Y-105926267D01*
X150907984Y-105877851D01*
X150799680Y-105776536D01*
X150657257Y-105608989D01*
X150487203Y-105383270D01*
X150337532Y-105169037D01*
X150207715Y-104975740D01*
X150097857Y-104808069D01*
X150015511Y-104677888D01*
X149968228Y-104597062D01*
X149960118Y-104576104D01*
X150006058Y-104573781D01*
X150115805Y-104580474D01*
X150115805Y-104580474D01*
G37*
X150115805Y-104580474D02*
X150269141Y-104594782D01*
X150337756Y-104602278D01*
X150621682Y-104650576D01*
X150902769Y-104735111D01*
X151095099Y-104811290D01*
X151283665Y-104889913D01*
X151523465Y-104987639D01*
X151786683Y-105093244D01*
X152045504Y-105195505D01*
X152103441Y-105218134D01*
X152349853Y-105313317D01*
X152537340Y-105378933D01*
X152686165Y-105415378D01*
X152816587Y-105423051D01*
X152948869Y-105402349D01*
X153103272Y-105353670D01*
X153300058Y-105277413D01*
X153385145Y-105243298D01*
X153691167Y-105120600D01*
X153915179Y-105339383D01*
X154028674Y-105452044D01*
X154089168Y-105522448D01*
X154104571Y-105567144D01*
X154082796Y-105602680D01*
X154053204Y-105628095D01*
X153980514Y-105672045D01*
X153848805Y-105738017D01*
X153677675Y-105816604D01*
X153511692Y-105888034D01*
X153296451Y-105974747D01*
X153128552Y-106032264D01*
X152978883Y-106067766D01*
X152818330Y-106088433D01*
X152654000Y-106099568D01*
X152450814Y-106103489D01*
X152196356Y-106098186D01*
X151923381Y-106084810D01*
X151668914Y-106064926D01*
X151432292Y-106040999D01*
X151262461Y-106019499D01*
X151141817Y-105996095D01*
X151052755Y-105966461D01*
X150977669Y-105926267D01*
X150907984Y-105877851D01*
X150799680Y-105776536D01*
X150657257Y-105608989D01*
X150487203Y-105383270D01*
X150337532Y-105169037D01*
X150207715Y-104975740D01*
X150097857Y-104808069D01*
X150015511Y-104677888D01*
X149968228Y-104597062D01*
X149960118Y-104576104D01*
X150006058Y-104573781D01*
X150115805Y-104580474D01*
G36*
X148438025Y-81334533D02*
X148866131Y-81351396D01*
X148966990Y-81356768D01*
X149237058Y-81372508D01*
X149462856Y-81388444D01*
X149661857Y-81407198D01*
X149851535Y-81431395D01*
X150049364Y-81463658D01*
X150272819Y-81506611D01*
X150539373Y-81562878D01*
X150866500Y-81635083D01*
X150960667Y-81656127D01*
X151327981Y-81741379D01*
X151732151Y-81840379D01*
X152146238Y-81946182D01*
X152543298Y-82051842D01*
X152896391Y-82150415D01*
X153032526Y-82190241D01*
X153341925Y-82283157D01*
X153587047Y-82359618D01*
X153784980Y-82426588D01*
X153952811Y-82491032D01*
X154107627Y-82559912D01*
X154266516Y-82640193D01*
X154446565Y-82738838D01*
X154620026Y-82837199D01*
X155271739Y-83226831D01*
X155967411Y-83676029D01*
X156697897Y-84178415D01*
X157454053Y-84727614D01*
X158226734Y-85317249D01*
X158601834Y-85613586D01*
X158980092Y-85919751D01*
X159302321Y-86190914D01*
X159581979Y-86440442D01*
X159832526Y-86681702D01*
X160067423Y-86928060D01*
X160300131Y-87192883D01*
X160544108Y-87489537D01*
X160737364Y-87734261D01*
X160936231Y-87986734D01*
X161114920Y-88206680D01*
X161285521Y-88407254D01*
X161460122Y-88601609D01*
X161650811Y-88802899D01*
X161869677Y-89024278D01*
X162128809Y-89278899D01*
X162382183Y-89523992D01*
X162825346Y-89950905D01*
X163212040Y-90323818D01*
X163546899Y-90647341D01*
X163834558Y-90926081D01*
X164079649Y-91164648D01*
X164286806Y-91367651D01*
X164460663Y-91539699D01*
X164605854Y-91685400D01*
X164727011Y-91809364D01*
X164828770Y-91916199D01*
X164915764Y-92010515D01*
X164992625Y-92096920D01*
X165063989Y-92180023D01*
X165121167Y-92248350D01*
X165277820Y-92440256D01*
X165438891Y-92642711D01*
X165583176Y-92828808D01*
X165671500Y-92946770D01*
X165744528Y-93041076D01*
X165827571Y-93134481D01*
X165929577Y-93234712D01*
X166059493Y-93349494D01*
X166226266Y-93486552D01*
X166438844Y-93653613D01*
X166706174Y-93858402D01*
X166878000Y-93988568D01*
X167153889Y-94201274D01*
X167476745Y-94457295D01*
X167830483Y-94743439D01*
X168199018Y-95046517D01*
X168566266Y-95353336D01*
X168916140Y-95650707D01*
X169124907Y-95831187D01*
X169520943Y-96178886D01*
X169857743Y-96481147D01*
X170142205Y-96745392D01*
X170381229Y-96979044D01*
X170581713Y-97189527D01*
X170750558Y-97384265D01*
X170894663Y-97570679D01*
X171020927Y-97756195D01*
X171136249Y-97948235D01*
X171199886Y-98063750D01*
X171277757Y-98213467D01*
X171335367Y-98340873D01*
X171378909Y-98467280D01*
X171414576Y-98614002D01*
X171448564Y-98802352D01*
X171486549Y-99050143D01*
X171578736Y-99673834D01*
X171469312Y-100181834D01*
X171417677Y-100405190D01*
X171362514Y-100599787D01*
X171296581Y-100780614D01*
X171212634Y-100962661D01*
X171103432Y-101160917D01*
X170961730Y-101390373D01*
X170780286Y-101666018D01*
X170681267Y-101812770D01*
X170516434Y-102051346D01*
X170371713Y-102247728D01*
X170230243Y-102421531D01*
X170075162Y-102592369D01*
X169889608Y-102779856D01*
X169661232Y-102999330D01*
X169356031Y-103277210D01*
X169018502Y-103564859D01*
X168665496Y-103849216D01*
X168313864Y-104117223D01*
X167980458Y-104355819D01*
X167682128Y-104551945D01*
X167573871Y-104617044D01*
X167536291Y-104592928D01*
X167444879Y-104514007D01*
X167305299Y-104385711D01*
X167123216Y-104213470D01*
X166904296Y-104002716D01*
X166654202Y-103758880D01*
X166378601Y-103487393D01*
X166083157Y-103193686D01*
X165944038Y-103054508D01*
X165201062Y-102313196D01*
X164510700Y-101631673D01*
X163869260Y-101006499D01*
X163273050Y-100434232D01*
X162718378Y-99911431D01*
X162201552Y-99434655D01*
X161718879Y-99000464D01*
X161266668Y-98605415D01*
X160841227Y-98246069D01*
X160438863Y-97918985D01*
X160404916Y-97892011D01*
X159279167Y-96999188D01*
X156739167Y-95663926D01*
X155490334Y-95287237D01*
X155147612Y-95184680D01*
X154850387Y-95098169D01*
X154582783Y-95023945D01*
X154328923Y-94958252D01*
X154072933Y-94897329D01*
X153798938Y-94837418D01*
X153491060Y-94774762D01*
X153133425Y-94705600D01*
X152710157Y-94626176D01*
X152654000Y-94615739D01*
X151806820Y-94464802D01*
X151024371Y-94339436D01*
X150291233Y-94237930D01*
X149591988Y-94158574D01*
X148911215Y-94099658D01*
X148233494Y-94059473D01*
X147543405Y-94036308D01*
X147404667Y-94033604D01*
X147045945Y-94027795D01*
X146753697Y-94024748D01*
X146509751Y-94025368D01*
X146295935Y-94030556D01*
X146094077Y-94041214D01*
X145886005Y-94058246D01*
X145653545Y-94082555D01*
X145378527Y-94115042D01*
X145118667Y-94147152D01*
X144766189Y-94192033D01*
X144477114Y-94232011D01*
X144230660Y-94271205D01*
X144006044Y-94313733D01*
X143782485Y-94363714D01*
X143539201Y-94425266D01*
X143255410Y-94502509D01*
X143085392Y-94550113D01*
X142764581Y-94641545D01*
X142505452Y-94719158D01*
X142287797Y-94790638D01*
X142091407Y-94863668D01*
X141896072Y-94945932D01*
X141681586Y-95045115D01*
X141427738Y-95168898D01*
X141328559Y-95218111D01*
X140590834Y-95618257D01*
X139916701Y-96055838D01*
X139288772Y-96543577D01*
X138689659Y-97094195D01*
X138497730Y-97289349D01*
X137900834Y-97910531D01*
X137537353Y-97752225D01*
X137059723Y-97498756D01*
X136628666Y-97175377D01*
X136245400Y-96783673D01*
X135911141Y-96325229D01*
X135627107Y-95801628D01*
X135394515Y-95214455D01*
X135273076Y-94805500D01*
X135211196Y-94560452D01*
X135169863Y-94365271D01*
X135145019Y-94188810D01*
X135132609Y-93999923D01*
X135128573Y-93767465D01*
X135128394Y-93694835D01*
X135128000Y-93134503D01*
X135385082Y-92490614D01*
X135479799Y-92258362D01*
X135572242Y-92040554D01*
X135654440Y-91855353D01*
X135718421Y-91720923D01*
X135743013Y-91675113D01*
X135944367Y-91382523D01*
X136191558Y-91119199D01*
X136499379Y-90870704D01*
X136718474Y-90723263D01*
X136909118Y-90599744D01*
X137087536Y-90479814D01*
X137233909Y-90377067D01*
X137328415Y-90305096D01*
X137329334Y-90304323D01*
X137477500Y-90179284D01*
X137481318Y-89296225D01*
X137482784Y-88956855D01*
X138170645Y-88956855D01*
X138171336Y-89232913D01*
X138174672Y-89436937D01*
X138181746Y-89581546D01*
X138193652Y-89679360D01*
X138211481Y-89742998D01*
X138236328Y-89785077D01*
X138243065Y-89792939D01*
X138308701Y-89853986D01*
X138346024Y-89873667D01*
X138393098Y-89859797D01*
X138507370Y-89821063D01*
X138676557Y-89761781D01*
X138888377Y-89686267D01*
X139130548Y-89598835D01*
X139196713Y-89574776D01*
X139445102Y-89483441D01*
X139666282Y-89400432D01*
X139847910Y-89330519D01*
X139977643Y-89278470D01*
X140043137Y-89249057D01*
X140048043Y-89245783D01*
X140052508Y-89193807D01*
X140038632Y-89080203D01*
X140009289Y-88925308D01*
X139991670Y-88846979D01*
X139904755Y-88478277D01*
X139995760Y-88350472D01*
X140076955Y-88265675D01*
X140157993Y-88223656D01*
X140168903Y-88222667D01*
X140234526Y-88251321D01*
X140339176Y-88327807D01*
X140464269Y-88437912D01*
X140515270Y-88487584D01*
X140666935Y-88626473D01*
X140829825Y-88754907D01*
X140973282Y-88849089D01*
X140998034Y-88862271D01*
X141069607Y-88897290D01*
X141134901Y-88923290D01*
X141204780Y-88939728D01*
X141290108Y-88946061D01*
X141401748Y-88941745D01*
X141550567Y-88926238D01*
X141747427Y-88898996D01*
X142003192Y-88859475D01*
X142328727Y-88807134D01*
X142430500Y-88790651D01*
X142672123Y-88743147D01*
X142865896Y-88680563D01*
X143035709Y-88589871D01*
X143205453Y-88458047D01*
X143399018Y-88272063D01*
X143418918Y-88251716D01*
X143603002Y-88062803D01*
X143442009Y-87884603D01*
X143368592Y-87813643D01*
X143269532Y-87738472D01*
X143134377Y-87652864D01*
X142952674Y-87550598D01*
X142713973Y-87425448D01*
X142432425Y-87283445D01*
X142149060Y-87141192D01*
X141928734Y-87027179D01*
X141758133Y-86933057D01*
X141623947Y-86850475D01*
X141512861Y-86771083D01*
X141411564Y-86686529D01*
X141306743Y-86588465D01*
X141274825Y-86557327D01*
X141052006Y-86315290D01*
X140902414Y-86095449D01*
X140820723Y-85888416D01*
X140800667Y-85721630D01*
X140815937Y-85615558D01*
X140857227Y-85455381D01*
X140917753Y-85265049D01*
X140972556Y-85114679D01*
X141144445Y-84669669D01*
X141551924Y-84387540D01*
X141727982Y-84266933D01*
X141859312Y-84184631D01*
X141970697Y-84130606D01*
X142086921Y-84094826D01*
X142232770Y-84067262D01*
X142406618Y-84041649D01*
X142634022Y-84013367D01*
X142834124Y-84000007D01*
X143039797Y-84001008D01*
X143283914Y-84015809D01*
X143392224Y-84024815D01*
X143626030Y-84047098D01*
X143796255Y-84069653D01*
X143923860Y-84097318D01*
X144029808Y-84134930D01*
X144135060Y-84187324D01*
X144162320Y-84202508D01*
X144302874Y-84295843D01*
X144423567Y-84400130D01*
X144480839Y-84468221D01*
X144535045Y-84558243D01*
X144543611Y-84609301D01*
X144507295Y-84653249D01*
X144485673Y-84671552D01*
X144433725Y-84705515D01*
X144369150Y-84719225D01*
X144269321Y-84713492D01*
X144111611Y-84689129D01*
X144091644Y-84685674D01*
X143652004Y-84624914D01*
X143225874Y-84595879D01*
X142833110Y-84599013D01*
X142493563Y-84634756D01*
X142421235Y-84648437D01*
X142232268Y-84691540D01*
X142099980Y-84734410D01*
X141997330Y-84789458D01*
X141897281Y-84869094D01*
X141853777Y-84908890D01*
X141722861Y-85048510D01*
X141639553Y-85191134D01*
X141586048Y-85348185D01*
X141538604Y-85602303D01*
X141555297Y-85818361D01*
X141639016Y-86016759D01*
X141691968Y-86095810D01*
X141741988Y-86154000D01*
X141812930Y-86216690D01*
X141913621Y-86289437D01*
X142052889Y-86377796D01*
X142239562Y-86487326D01*
X142482467Y-86623584D01*
X142790431Y-86792126D01*
X142845994Y-86822276D01*
X143155686Y-86990903D01*
X143400029Y-87126222D01*
X143588573Y-87234409D01*
X143730867Y-87321636D01*
X143836460Y-87394079D01*
X143914902Y-87457911D01*
X143975742Y-87519306D01*
X144028529Y-87584439D01*
X144032028Y-87589108D01*
X144118511Y-87718041D01*
X144168046Y-87836498D01*
X144183664Y-87967794D01*
X144168395Y-88135240D01*
X144129771Y-88340800D01*
X144104700Y-88479114D01*
X144093860Y-88579603D01*
X144098904Y-88618979D01*
X144145036Y-88619539D01*
X144267169Y-88616416D01*
X144456734Y-88609947D01*
X144705160Y-88600469D01*
X145003878Y-88588318D01*
X145344318Y-88573830D01*
X145717909Y-88557342D01*
X146034161Y-88542972D01*
X146746260Y-88513420D01*
X147383744Y-88494171D01*
X147956064Y-88485472D01*
X148472671Y-88487569D01*
X148943016Y-88500707D01*
X149376551Y-88525132D01*
X149782727Y-88561090D01*
X150170996Y-88608827D01*
X150495000Y-88659017D01*
X150711138Y-88695160D01*
X150894722Y-88725070D01*
X151031007Y-88746407D01*
X151105251Y-88756833D01*
X151114496Y-88757336D01*
X151134726Y-88719786D01*
X151184462Y-88623369D01*
X151255106Y-88484826D01*
X151302152Y-88392000D01*
X151484147Y-88032167D01*
X151472800Y-87590224D01*
X151465950Y-87387251D01*
X151453109Y-87240228D01*
X151427318Y-87120445D01*
X151381618Y-86999192D01*
X151309048Y-86847757D01*
X151277826Y-86785890D01*
X151116753Y-86519589D01*
X150893443Y-86235662D01*
X150604843Y-85931151D01*
X150247901Y-85603099D01*
X149819563Y-85248546D01*
X149316775Y-84864534D01*
X149225908Y-84797741D01*
X148943896Y-84592788D01*
X148714411Y-84430057D01*
X148522619Y-84300473D01*
X148353689Y-84194961D01*
X148192788Y-84104449D01*
X148025083Y-84019860D01*
X147835742Y-83932122D01*
X147744241Y-83891282D01*
X147455383Y-83767588D01*
X147214555Y-83675743D01*
X146995458Y-83607051D01*
X146771797Y-83552815D01*
X146642667Y-83527006D01*
X146428514Y-83486403D01*
X146158912Y-83435013D01*
X145861538Y-83378126D01*
X145564068Y-83321032D01*
X145415000Y-83292337D01*
X145041253Y-83221084D01*
X144726357Y-83165800D01*
X144457256Y-83128568D01*
X144220892Y-83111470D01*
X144004209Y-83116588D01*
X143794149Y-83146005D01*
X143577656Y-83201804D01*
X143341672Y-83286067D01*
X143073140Y-83400877D01*
X142759003Y-83548315D01*
X142386205Y-83730465D01*
X142251426Y-83796898D01*
X141775375Y-84035771D01*
X141368289Y-84249957D01*
X141020383Y-84445860D01*
X140721869Y-84629883D01*
X140462961Y-84808429D01*
X140233873Y-84987902D01*
X140024818Y-85174705D01*
X139826010Y-85375241D01*
X139805274Y-85397415D01*
X139489863Y-85767849D01*
X139179353Y-86190937D01*
X138886848Y-86645229D01*
X138625446Y-87109277D01*
X138408248Y-87561633D01*
X138273571Y-87905167D01*
X138236205Y-88020245D01*
X138209151Y-88127176D01*
X138190755Y-88242876D01*
X138179360Y-88384259D01*
X138173311Y-88568238D01*
X138170954Y-88811727D01*
X138170645Y-88956855D01*
X137482784Y-88956855D01*
X137485135Y-88413167D01*
X137711601Y-87714667D01*
X137791149Y-87473400D01*
X137860859Y-87276298D01*
X137929508Y-87104769D01*
X138005871Y-86940220D01*
X138098722Y-86764060D01*
X138216836Y-86557696D01*
X138368989Y-86302537D01*
X138410926Y-86233000D01*
X138630631Y-85869763D01*
X138813863Y-85569725D01*
X138967670Y-85323460D01*
X139099099Y-85121543D01*
X139215198Y-84954549D01*
X139323015Y-84813050D01*
X139429597Y-84687622D01*
X139541992Y-84568838D01*
X139667248Y-84447274D01*
X139812412Y-84313503D01*
X139916531Y-84219374D01*
X140121763Y-84037623D01*
X140307506Y-83881939D01*
X140490641Y-83740084D01*
X140688051Y-83599821D01*
X140916615Y-83448912D01*
X141193216Y-83275121D01*
X141363239Y-83170664D01*
X141624140Y-83011938D01*
X141841772Y-82882475D01*
X142031832Y-82774675D01*
X142210018Y-82680940D01*
X142392030Y-82593671D01*
X142593564Y-82505271D01*
X142830319Y-82408140D01*
X143117993Y-82294679D01*
X143395239Y-82187088D01*
X143749438Y-82051007D01*
X144041320Y-81941719D01*
X144287009Y-81854158D01*
X144502629Y-81783257D01*
X144704306Y-81723949D01*
X144908164Y-81671166D01*
X145130328Y-81619840D01*
X145351500Y-81572336D01*
X145635277Y-81514137D01*
X145875243Y-81469360D01*
X146093404Y-81435319D01*
X146311764Y-81409329D01*
X146552328Y-81388704D01*
X146837104Y-81370759D01*
X147125490Y-81355845D01*
X147601612Y-81336774D01*
X148027821Y-81329664D01*
X148438025Y-81334533D01*
X148438025Y-81334533D01*
G37*
X148438025Y-81334533D02*
X148866131Y-81351396D01*
X148966990Y-81356768D01*
X149237058Y-81372508D01*
X149462856Y-81388444D01*
X149661857Y-81407198D01*
X149851535Y-81431395D01*
X150049364Y-81463658D01*
X150272819Y-81506611D01*
X150539373Y-81562878D01*
X150866500Y-81635083D01*
X150960667Y-81656127D01*
X151327981Y-81741379D01*
X151732151Y-81840379D01*
X152146238Y-81946182D01*
X152543298Y-82051842D01*
X152896391Y-82150415D01*
X153032526Y-82190241D01*
X153341925Y-82283157D01*
X153587047Y-82359618D01*
X153784980Y-82426588D01*
X153952811Y-82491032D01*
X154107627Y-82559912D01*
X154266516Y-82640193D01*
X154446565Y-82738838D01*
X154620026Y-82837199D01*
X155271739Y-83226831D01*
X155967411Y-83676029D01*
X156697897Y-84178415D01*
X157454053Y-84727614D01*
X158226734Y-85317249D01*
X158601834Y-85613586D01*
X158980092Y-85919751D01*
X159302321Y-86190914D01*
X159581979Y-86440442D01*
X159832526Y-86681702D01*
X160067423Y-86928060D01*
X160300131Y-87192883D01*
X160544108Y-87489537D01*
X160737364Y-87734261D01*
X160936231Y-87986734D01*
X161114920Y-88206680D01*
X161285521Y-88407254D01*
X161460122Y-88601609D01*
X161650811Y-88802899D01*
X161869677Y-89024278D01*
X162128809Y-89278899D01*
X162382183Y-89523992D01*
X162825346Y-89950905D01*
X163212040Y-90323818D01*
X163546899Y-90647341D01*
X163834558Y-90926081D01*
X164079649Y-91164648D01*
X164286806Y-91367651D01*
X164460663Y-91539699D01*
X164605854Y-91685400D01*
X164727011Y-91809364D01*
X164828770Y-91916199D01*
X164915764Y-92010515D01*
X164992625Y-92096920D01*
X165063989Y-92180023D01*
X165121167Y-92248350D01*
X165277820Y-92440256D01*
X165438891Y-92642711D01*
X165583176Y-92828808D01*
X165671500Y-92946770D01*
X165744528Y-93041076D01*
X165827571Y-93134481D01*
X165929577Y-93234712D01*
X166059493Y-93349494D01*
X166226266Y-93486552D01*
X166438844Y-93653613D01*
X166706174Y-93858402D01*
X166878000Y-93988568D01*
X167153889Y-94201274D01*
X167476745Y-94457295D01*
X167830483Y-94743439D01*
X168199018Y-95046517D01*
X168566266Y-95353336D01*
X168916140Y-95650707D01*
X169124907Y-95831187D01*
X169520943Y-96178886D01*
X169857743Y-96481147D01*
X170142205Y-96745392D01*
X170381229Y-96979044D01*
X170581713Y-97189527D01*
X170750558Y-97384265D01*
X170894663Y-97570679D01*
X171020927Y-97756195D01*
X171136249Y-97948235D01*
X171199886Y-98063750D01*
X171277757Y-98213467D01*
X171335367Y-98340873D01*
X171378909Y-98467280D01*
X171414576Y-98614002D01*
X171448564Y-98802352D01*
X171486549Y-99050143D01*
X171578736Y-99673834D01*
X171469312Y-100181834D01*
X171417677Y-100405190D01*
X171362514Y-100599787D01*
X171296581Y-100780614D01*
X171212634Y-100962661D01*
X171103432Y-101160917D01*
X170961730Y-101390373D01*
X170780286Y-101666018D01*
X170681267Y-101812770D01*
X170516434Y-102051346D01*
X170371713Y-102247728D01*
X170230243Y-102421531D01*
X170075162Y-102592369D01*
X169889608Y-102779856D01*
X169661232Y-102999330D01*
X169356031Y-103277210D01*
X169018502Y-103564859D01*
X168665496Y-103849216D01*
X168313864Y-104117223D01*
X167980458Y-104355819D01*
X167682128Y-104551945D01*
X167573871Y-104617044D01*
X167536291Y-104592928D01*
X167444879Y-104514007D01*
X167305299Y-104385711D01*
X167123216Y-104213470D01*
X166904296Y-104002716D01*
X166654202Y-103758880D01*
X166378601Y-103487393D01*
X166083157Y-103193686D01*
X165944038Y-103054508D01*
X165201062Y-102313196D01*
X164510700Y-101631673D01*
X163869260Y-101006499D01*
X163273050Y-100434232D01*
X162718378Y-99911431D01*
X162201552Y-99434655D01*
X161718879Y-99000464D01*
X161266668Y-98605415D01*
X160841227Y-98246069D01*
X160438863Y-97918985D01*
X160404916Y-97892011D01*
X159279167Y-96999188D01*
X156739167Y-95663926D01*
X155490334Y-95287237D01*
X155147612Y-95184680D01*
X154850387Y-95098169D01*
X154582783Y-95023945D01*
X154328923Y-94958252D01*
X154072933Y-94897329D01*
X153798938Y-94837418D01*
X153491060Y-94774762D01*
X153133425Y-94705600D01*
X152710157Y-94626176D01*
X152654000Y-94615739D01*
X151806820Y-94464802D01*
X151024371Y-94339436D01*
X150291233Y-94237930D01*
X149591988Y-94158574D01*
X148911215Y-94099658D01*
X148233494Y-94059473D01*
X147543405Y-94036308D01*
X147404667Y-94033604D01*
X147045945Y-94027795D01*
X146753697Y-94024748D01*
X146509751Y-94025368D01*
X146295935Y-94030556D01*
X146094077Y-94041214D01*
X145886005Y-94058246D01*
X145653545Y-94082555D01*
X145378527Y-94115042D01*
X145118667Y-94147152D01*
X144766189Y-94192033D01*
X144477114Y-94232011D01*
X144230660Y-94271205D01*
X144006044Y-94313733D01*
X143782485Y-94363714D01*
X143539201Y-94425266D01*
X143255410Y-94502509D01*
X143085392Y-94550113D01*
X142764581Y-94641545D01*
X142505452Y-94719158D01*
X142287797Y-94790638D01*
X142091407Y-94863668D01*
X141896072Y-94945932D01*
X141681586Y-95045115D01*
X141427738Y-95168898D01*
X141328559Y-95218111D01*
X140590834Y-95618257D01*
X139916701Y-96055838D01*
X139288772Y-96543577D01*
X138689659Y-97094195D01*
X138497730Y-97289349D01*
X137900834Y-97910531D01*
X137537353Y-97752225D01*
X137059723Y-97498756D01*
X136628666Y-97175377D01*
X136245400Y-96783673D01*
X135911141Y-96325229D01*
X135627107Y-95801628D01*
X135394515Y-95214455D01*
X135273076Y-94805500D01*
X135211196Y-94560452D01*
X135169863Y-94365271D01*
X135145019Y-94188810D01*
X135132609Y-93999923D01*
X135128573Y-93767465D01*
X135128394Y-93694835D01*
X135128000Y-93134503D01*
X135385082Y-92490614D01*
X135479799Y-92258362D01*
X135572242Y-92040554D01*
X135654440Y-91855353D01*
X135718421Y-91720923D01*
X135743013Y-91675113D01*
X135944367Y-91382523D01*
X136191558Y-91119199D01*
X136499379Y-90870704D01*
X136718474Y-90723263D01*
X136909118Y-90599744D01*
X137087536Y-90479814D01*
X137233909Y-90377067D01*
X137328415Y-90305096D01*
X137329334Y-90304323D01*
X137477500Y-90179284D01*
X137481318Y-89296225D01*
X137482784Y-88956855D01*
X138170645Y-88956855D01*
X138171336Y-89232913D01*
X138174672Y-89436937D01*
X138181746Y-89581546D01*
X138193652Y-89679360D01*
X138211481Y-89742998D01*
X138236328Y-89785077D01*
X138243065Y-89792939D01*
X138308701Y-89853986D01*
X138346024Y-89873667D01*
X138393098Y-89859797D01*
X138507370Y-89821063D01*
X138676557Y-89761781D01*
X138888377Y-89686267D01*
X139130548Y-89598835D01*
X139196713Y-89574776D01*
X139445102Y-89483441D01*
X139666282Y-89400432D01*
X139847910Y-89330519D01*
X139977643Y-89278470D01*
X140043137Y-89249057D01*
X140048043Y-89245783D01*
X140052508Y-89193807D01*
X140038632Y-89080203D01*
X140009289Y-88925308D01*
X139991670Y-88846979D01*
X139904755Y-88478277D01*
X139995760Y-88350472D01*
X140076955Y-88265675D01*
X140157993Y-88223656D01*
X140168903Y-88222667D01*
X140234526Y-88251321D01*
X140339176Y-88327807D01*
X140464269Y-88437912D01*
X140515270Y-88487584D01*
X140666935Y-88626473D01*
X140829825Y-88754907D01*
X140973282Y-88849089D01*
X140998034Y-88862271D01*
X141069607Y-88897290D01*
X141134901Y-88923290D01*
X141204780Y-88939728D01*
X141290108Y-88946061D01*
X141401748Y-88941745D01*
X141550567Y-88926238D01*
X141747427Y-88898996D01*
X142003192Y-88859475D01*
X142328727Y-88807134D01*
X142430500Y-88790651D01*
X142672123Y-88743147D01*
X142865896Y-88680563D01*
X143035709Y-88589871D01*
X143205453Y-88458047D01*
X143399018Y-88272063D01*
X143418918Y-88251716D01*
X143603002Y-88062803D01*
X143442009Y-87884603D01*
X143368592Y-87813643D01*
X143269532Y-87738472D01*
X143134377Y-87652864D01*
X142952674Y-87550598D01*
X142713973Y-87425448D01*
X142432425Y-87283445D01*
X142149060Y-87141192D01*
X141928734Y-87027179D01*
X141758133Y-86933057D01*
X141623947Y-86850475D01*
X141512861Y-86771083D01*
X141411564Y-86686529D01*
X141306743Y-86588465D01*
X141274825Y-86557327D01*
X141052006Y-86315290D01*
X140902414Y-86095449D01*
X140820723Y-85888416D01*
X140800667Y-85721630D01*
X140815937Y-85615558D01*
X140857227Y-85455381D01*
X140917753Y-85265049D01*
X140972556Y-85114679D01*
X141144445Y-84669669D01*
X141551924Y-84387540D01*
X141727982Y-84266933D01*
X141859312Y-84184631D01*
X141970697Y-84130606D01*
X142086921Y-84094826D01*
X142232770Y-84067262D01*
X142406618Y-84041649D01*
X142634022Y-84013367D01*
X142834124Y-84000007D01*
X143039797Y-84001008D01*
X143283914Y-84015809D01*
X143392224Y-84024815D01*
X143626030Y-84047098D01*
X143796255Y-84069653D01*
X143923860Y-84097318D01*
X144029808Y-84134930D01*
X144135060Y-84187324D01*
X144162320Y-84202508D01*
X144302874Y-84295843D01*
X144423567Y-84400130D01*
X144480839Y-84468221D01*
X144535045Y-84558243D01*
X144543611Y-84609301D01*
X144507295Y-84653249D01*
X144485673Y-84671552D01*
X144433725Y-84705515D01*
X144369150Y-84719225D01*
X144269321Y-84713492D01*
X144111611Y-84689129D01*
X144091644Y-84685674D01*
X143652004Y-84624914D01*
X143225874Y-84595879D01*
X142833110Y-84599013D01*
X142493563Y-84634756D01*
X142421235Y-84648437D01*
X142232268Y-84691540D01*
X142099980Y-84734410D01*
X141997330Y-84789458D01*
X141897281Y-84869094D01*
X141853777Y-84908890D01*
X141722861Y-85048510D01*
X141639553Y-85191134D01*
X141586048Y-85348185D01*
X141538604Y-85602303D01*
X141555297Y-85818361D01*
X141639016Y-86016759D01*
X141691968Y-86095810D01*
X141741988Y-86154000D01*
X141812930Y-86216690D01*
X141913621Y-86289437D01*
X142052889Y-86377796D01*
X142239562Y-86487326D01*
X142482467Y-86623584D01*
X142790431Y-86792126D01*
X142845994Y-86822276D01*
X143155686Y-86990903D01*
X143400029Y-87126222D01*
X143588573Y-87234409D01*
X143730867Y-87321636D01*
X143836460Y-87394079D01*
X143914902Y-87457911D01*
X143975742Y-87519306D01*
X144028529Y-87584439D01*
X144032028Y-87589108D01*
X144118511Y-87718041D01*
X144168046Y-87836498D01*
X144183664Y-87967794D01*
X144168395Y-88135240D01*
X144129771Y-88340800D01*
X144104700Y-88479114D01*
X144093860Y-88579603D01*
X144098904Y-88618979D01*
X144145036Y-88619539D01*
X144267169Y-88616416D01*
X144456734Y-88609947D01*
X144705160Y-88600469D01*
X145003878Y-88588318D01*
X145344318Y-88573830D01*
X145717909Y-88557342D01*
X146034161Y-88542972D01*
X146746260Y-88513420D01*
X147383744Y-88494171D01*
X147956064Y-88485472D01*
X148472671Y-88487569D01*
X148943016Y-88500707D01*
X149376551Y-88525132D01*
X149782727Y-88561090D01*
X150170996Y-88608827D01*
X150495000Y-88659017D01*
X150711138Y-88695160D01*
X150894722Y-88725070D01*
X151031007Y-88746407D01*
X151105251Y-88756833D01*
X151114496Y-88757336D01*
X151134726Y-88719786D01*
X151184462Y-88623369D01*
X151255106Y-88484826D01*
X151302152Y-88392000D01*
X151484147Y-88032167D01*
X151472800Y-87590224D01*
X151465950Y-87387251D01*
X151453109Y-87240228D01*
X151427318Y-87120445D01*
X151381618Y-86999192D01*
X151309048Y-86847757D01*
X151277826Y-86785890D01*
X151116753Y-86519589D01*
X150893443Y-86235662D01*
X150604843Y-85931151D01*
X150247901Y-85603099D01*
X149819563Y-85248546D01*
X149316775Y-84864534D01*
X149225908Y-84797741D01*
X148943896Y-84592788D01*
X148714411Y-84430057D01*
X148522619Y-84300473D01*
X148353689Y-84194961D01*
X148192788Y-84104449D01*
X148025083Y-84019860D01*
X147835742Y-83932122D01*
X147744241Y-83891282D01*
X147455383Y-83767588D01*
X147214555Y-83675743D01*
X146995458Y-83607051D01*
X146771797Y-83552815D01*
X146642667Y-83527006D01*
X146428514Y-83486403D01*
X146158912Y-83435013D01*
X145861538Y-83378126D01*
X145564068Y-83321032D01*
X145415000Y-83292337D01*
X145041253Y-83221084D01*
X144726357Y-83165800D01*
X144457256Y-83128568D01*
X144220892Y-83111470D01*
X144004209Y-83116588D01*
X143794149Y-83146005D01*
X143577656Y-83201804D01*
X143341672Y-83286067D01*
X143073140Y-83400877D01*
X142759003Y-83548315D01*
X142386205Y-83730465D01*
X142251426Y-83796898D01*
X141775375Y-84035771D01*
X141368289Y-84249957D01*
X141020383Y-84445860D01*
X140721869Y-84629883D01*
X140462961Y-84808429D01*
X140233873Y-84987902D01*
X140024818Y-85174705D01*
X139826010Y-85375241D01*
X139805274Y-85397415D01*
X139489863Y-85767849D01*
X139179353Y-86190937D01*
X138886848Y-86645229D01*
X138625446Y-87109277D01*
X138408248Y-87561633D01*
X138273571Y-87905167D01*
X138236205Y-88020245D01*
X138209151Y-88127176D01*
X138190755Y-88242876D01*
X138179360Y-88384259D01*
X138173311Y-88568238D01*
X138170954Y-88811727D01*
X138170645Y-88956855D01*
X137482784Y-88956855D01*
X137485135Y-88413167D01*
X137711601Y-87714667D01*
X137791149Y-87473400D01*
X137860859Y-87276298D01*
X137929508Y-87104769D01*
X138005871Y-86940220D01*
X138098722Y-86764060D01*
X138216836Y-86557696D01*
X138368989Y-86302537D01*
X138410926Y-86233000D01*
X138630631Y-85869763D01*
X138813863Y-85569725D01*
X138967670Y-85323460D01*
X139099099Y-85121543D01*
X139215198Y-84954549D01*
X139323015Y-84813050D01*
X139429597Y-84687622D01*
X139541992Y-84568838D01*
X139667248Y-84447274D01*
X139812412Y-84313503D01*
X139916531Y-84219374D01*
X140121763Y-84037623D01*
X140307506Y-83881939D01*
X140490641Y-83740084D01*
X140688051Y-83599821D01*
X140916615Y-83448912D01*
X141193216Y-83275121D01*
X141363239Y-83170664D01*
X141624140Y-83011938D01*
X141841772Y-82882475D01*
X142031832Y-82774675D01*
X142210018Y-82680940D01*
X142392030Y-82593671D01*
X142593564Y-82505271D01*
X142830319Y-82408140D01*
X143117993Y-82294679D01*
X143395239Y-82187088D01*
X143749438Y-82051007D01*
X144041320Y-81941719D01*
X144287009Y-81854158D01*
X144502629Y-81783257D01*
X144704306Y-81723949D01*
X144908164Y-81671166D01*
X145130328Y-81619840D01*
X145351500Y-81572336D01*
X145635277Y-81514137D01*
X145875243Y-81469360D01*
X146093404Y-81435319D01*
X146311764Y-81409329D01*
X146552328Y-81388704D01*
X146837104Y-81370759D01*
X147125490Y-81355845D01*
X147601612Y-81336774D01*
X148027821Y-81329664D01*
X148438025Y-81334533D01*
G36*
X142211371Y-101266045D02*
X142332701Y-101299389D01*
X142370478Y-101329024D01*
X142430880Y-101386965D01*
X142537653Y-101476518D01*
X142668819Y-101579322D01*
X142682578Y-101589736D01*
X142917898Y-101774119D01*
X143083243Y-101922296D01*
X143181740Y-102040773D01*
X143216515Y-102136061D01*
X143190695Y-102214667D01*
X143107406Y-102283100D01*
X143033750Y-102320807D01*
X142880185Y-102376546D01*
X142744635Y-102401158D01*
X142648172Y-102392554D01*
X142613945Y-102362443D01*
X142566080Y-102341777D01*
X142459219Y-102362696D01*
X142304698Y-102419642D01*
X142113850Y-102507062D01*
X141898012Y-102619400D01*
X141668517Y-102751101D01*
X141436700Y-102896609D01*
X141221338Y-103044966D01*
X141066742Y-103151762D01*
X140867615Y-103281942D01*
X140652919Y-103416856D01*
X140501671Y-103508405D01*
X140300593Y-103631584D01*
X140100285Y-103760930D01*
X139926926Y-103879195D01*
X139827000Y-103952856D01*
X139605837Y-104108593D01*
X139399016Y-104221504D01*
X139217193Y-104288180D01*
X139071022Y-104305211D01*
X138971161Y-104269189D01*
X138944425Y-104235250D01*
X138912920Y-104160748D01*
X138864243Y-104029122D01*
X138804593Y-103859004D01*
X138740168Y-103669026D01*
X138677165Y-103477822D01*
X138621782Y-103304024D01*
X138580216Y-103166264D01*
X138558667Y-103083176D01*
X138557000Y-103070523D01*
X138590287Y-103013126D01*
X138671281Y-102947881D01*
X138679833Y-102942696D01*
X138783009Y-102884112D01*
X138946113Y-102794417D01*
X139158460Y-102679272D01*
X139409363Y-102544335D01*
X139688137Y-102395266D01*
X139984094Y-102237724D01*
X140286549Y-102077367D01*
X140584814Y-101919856D01*
X140868205Y-101770849D01*
X141126034Y-101636005D01*
X141347616Y-101520985D01*
X141522264Y-101431446D01*
X141639292Y-101373048D01*
X141676785Y-101355578D01*
X141860743Y-101295007D01*
X142046495Y-101264874D01*
X142211371Y-101266045D01*
X142211371Y-101266045D01*
G37*
X142211371Y-101266045D02*
X142332701Y-101299389D01*
X142370478Y-101329024D01*
X142430880Y-101386965D01*
X142537653Y-101476518D01*
X142668819Y-101579322D01*
X142682578Y-101589736D01*
X142917898Y-101774119D01*
X143083243Y-101922296D01*
X143181740Y-102040773D01*
X143216515Y-102136061D01*
X143190695Y-102214667D01*
X143107406Y-102283100D01*
X143033750Y-102320807D01*
X142880185Y-102376546D01*
X142744635Y-102401158D01*
X142648172Y-102392554D01*
X142613945Y-102362443D01*
X142566080Y-102341777D01*
X142459219Y-102362696D01*
X142304698Y-102419642D01*
X142113850Y-102507062D01*
X141898012Y-102619400D01*
X141668517Y-102751101D01*
X141436700Y-102896609D01*
X141221338Y-103044966D01*
X141066742Y-103151762D01*
X140867615Y-103281942D01*
X140652919Y-103416856D01*
X140501671Y-103508405D01*
X140300593Y-103631584D01*
X140100285Y-103760930D01*
X139926926Y-103879195D01*
X139827000Y-103952856D01*
X139605837Y-104108593D01*
X139399016Y-104221504D01*
X139217193Y-104288180D01*
X139071022Y-104305211D01*
X138971161Y-104269189D01*
X138944425Y-104235250D01*
X138912920Y-104160748D01*
X138864243Y-104029122D01*
X138804593Y-103859004D01*
X138740168Y-103669026D01*
X138677165Y-103477822D01*
X138621782Y-103304024D01*
X138580216Y-103166264D01*
X138558667Y-103083176D01*
X138557000Y-103070523D01*
X138590287Y-103013126D01*
X138671281Y-102947881D01*
X138679833Y-102942696D01*
X138783009Y-102884112D01*
X138946113Y-102794417D01*
X139158460Y-102679272D01*
X139409363Y-102544335D01*
X139688137Y-102395266D01*
X139984094Y-102237724D01*
X140286549Y-102077367D01*
X140584814Y-101919856D01*
X140868205Y-101770849D01*
X141126034Y-101636005D01*
X141347616Y-101520985D01*
X141522264Y-101431446D01*
X141639292Y-101373048D01*
X141676785Y-101355578D01*
X141860743Y-101295007D01*
X142046495Y-101264874D01*
X142211371Y-101266045D01*
G36*
X150640113Y-100788752D02*
X150715972Y-100808141D01*
X150819935Y-100850872D01*
X150965148Y-100921952D01*
X151164755Y-101026384D01*
X151289744Y-101093036D01*
X151519951Y-101213068D01*
X151804989Y-101356889D01*
X152122502Y-101513499D01*
X152450130Y-101671901D01*
X152765515Y-101821095D01*
X152844500Y-101857831D01*
X153106551Y-101980164D01*
X153344203Y-102092928D01*
X153546219Y-102190645D01*
X153701365Y-102267834D01*
X153798402Y-102319018D01*
X153825475Y-102336184D01*
X153849967Y-102400934D01*
X153870270Y-102537111D01*
X153884714Y-102731511D01*
X153888975Y-102838298D01*
X153893535Y-103042510D01*
X153891340Y-103175900D01*
X153880884Y-103252148D01*
X153860661Y-103284936D01*
X153839334Y-103289322D01*
X153766582Y-103279770D01*
X153639504Y-103258907D01*
X153500667Y-103234008D01*
X153307663Y-103187261D01*
X153093754Y-103119449D01*
X152950334Y-103063991D01*
X152603819Y-102916606D01*
X152304250Y-102795292D01*
X152028978Y-102692278D01*
X151755356Y-102599796D01*
X151460736Y-102510075D01*
X151122469Y-102415346D01*
X150838322Y-102339453D01*
X150552849Y-102264756D01*
X150293070Y-102197822D01*
X150070625Y-102141566D01*
X149897152Y-102098904D01*
X149784292Y-102072750D01*
X149745126Y-102065667D01*
X149705701Y-102026142D01*
X149690727Y-101913185D01*
X149690667Y-101903352D01*
X149707734Y-101781049D01*
X149765821Y-101646980D01*
X149865547Y-101490602D01*
X150055645Y-101228630D01*
X150213629Y-101034844D01*
X150346190Y-100902182D01*
X150460024Y-100823582D01*
X150520121Y-100799977D01*
X150579211Y-100787699D01*
X150640113Y-100788752D01*
X150640113Y-100788752D01*
G37*
X150640113Y-100788752D02*
X150715972Y-100808141D01*
X150819935Y-100850872D01*
X150965148Y-100921952D01*
X151164755Y-101026384D01*
X151289744Y-101093036D01*
X151519951Y-101213068D01*
X151804989Y-101356889D01*
X152122502Y-101513499D01*
X152450130Y-101671901D01*
X152765515Y-101821095D01*
X152844500Y-101857831D01*
X153106551Y-101980164D01*
X153344203Y-102092928D01*
X153546219Y-102190645D01*
X153701365Y-102267834D01*
X153798402Y-102319018D01*
X153825475Y-102336184D01*
X153849967Y-102400934D01*
X153870270Y-102537111D01*
X153884714Y-102731511D01*
X153888975Y-102838298D01*
X153893535Y-103042510D01*
X153891340Y-103175900D01*
X153880884Y-103252148D01*
X153860661Y-103284936D01*
X153839334Y-103289322D01*
X153766582Y-103279770D01*
X153639504Y-103258907D01*
X153500667Y-103234008D01*
X153307663Y-103187261D01*
X153093754Y-103119449D01*
X152950334Y-103063991D01*
X152603819Y-102916606D01*
X152304250Y-102795292D01*
X152028978Y-102692278D01*
X151755356Y-102599796D01*
X151460736Y-102510075D01*
X151122469Y-102415346D01*
X150838322Y-102339453D01*
X150552849Y-102264756D01*
X150293070Y-102197822D01*
X150070625Y-102141566D01*
X149897152Y-102098904D01*
X149784292Y-102072750D01*
X149745126Y-102065667D01*
X149705701Y-102026142D01*
X149690727Y-101913185D01*
X149690667Y-101903352D01*
X149707734Y-101781049D01*
X149765821Y-101646980D01*
X149865547Y-101490602D01*
X150055645Y-101228630D01*
X150213629Y-101034844D01*
X150346190Y-100902182D01*
X150460024Y-100823582D01*
X150520121Y-100799977D01*
X150579211Y-100787699D01*
X150640113Y-100788752D01*
G36*
X145507584Y-100002587D02*
X145612304Y-100266628D01*
X145687505Y-100469430D01*
X145736890Y-100627633D01*
X145764160Y-100757876D01*
X145773017Y-100876798D01*
X145767162Y-101001039D01*
X145754661Y-101113167D01*
X145731310Y-101272906D01*
X145700375Y-101379222D01*
X145646262Y-101462977D01*
X145553380Y-101555037D01*
X145513270Y-101590981D01*
X145237106Y-101807881D01*
X144933535Y-101997420D01*
X144626848Y-102146376D01*
X144341334Y-102241526D01*
X144302177Y-102250270D01*
X144132265Y-102286004D01*
X143982572Y-102318531D01*
X143882838Y-102341376D01*
X143876194Y-102343020D01*
X143791456Y-102346512D01*
X143726947Y-102292881D01*
X143698245Y-102249314D01*
X143588679Y-102073542D01*
X143460227Y-101876168D01*
X143323443Y-101672447D01*
X143188879Y-101477634D01*
X143067087Y-101306984D01*
X142968620Y-101175752D01*
X142904029Y-101099194D01*
X142899917Y-101095204D01*
X142826865Y-101018524D01*
X142791065Y-100964728D01*
X142790334Y-100960318D01*
X142826617Y-100923862D01*
X142928224Y-100856512D01*
X143084284Y-100764299D01*
X143283931Y-100653256D01*
X143516297Y-100529412D01*
X143770513Y-100398800D01*
X144035712Y-100267451D01*
X144060334Y-100255516D01*
X144296380Y-100135173D01*
X144543827Y-99998754D01*
X144772724Y-99863328D01*
X144947544Y-99749867D01*
X145305589Y-99500238D01*
X145507584Y-100002587D01*
X145507584Y-100002587D01*
G37*
X145507584Y-100002587D02*
X145612304Y-100266628D01*
X145687505Y-100469430D01*
X145736890Y-100627633D01*
X145764160Y-100757876D01*
X145773017Y-100876798D01*
X145767162Y-101001039D01*
X145754661Y-101113167D01*
X145731310Y-101272906D01*
X145700375Y-101379222D01*
X145646262Y-101462977D01*
X145553380Y-101555037D01*
X145513270Y-101590981D01*
X145237106Y-101807881D01*
X144933535Y-101997420D01*
X144626848Y-102146376D01*
X144341334Y-102241526D01*
X144302177Y-102250270D01*
X144132265Y-102286004D01*
X143982572Y-102318531D01*
X143882838Y-102341376D01*
X143876194Y-102343020D01*
X143791456Y-102346512D01*
X143726947Y-102292881D01*
X143698245Y-102249314D01*
X143588679Y-102073542D01*
X143460227Y-101876168D01*
X143323443Y-101672447D01*
X143188879Y-101477634D01*
X143067087Y-101306984D01*
X142968620Y-101175752D01*
X142904029Y-101099194D01*
X142899917Y-101095204D01*
X142826865Y-101018524D01*
X142791065Y-100964728D01*
X142790334Y-100960318D01*
X142826617Y-100923862D01*
X142928224Y-100856512D01*
X143084284Y-100764299D01*
X143283931Y-100653256D01*
X143516297Y-100529412D01*
X143770513Y-100398800D01*
X144035712Y-100267451D01*
X144060334Y-100255516D01*
X144296380Y-100135173D01*
X144543827Y-99998754D01*
X144772724Y-99863328D01*
X144947544Y-99749867D01*
X145305589Y-99500238D01*
X145507584Y-100002587D01*
G36*
X148370496Y-98798165D02*
X148526076Y-98894307D01*
X148695876Y-99040557D01*
X148865328Y-99225610D01*
X148907482Y-99278620D01*
X149080425Y-99484867D01*
X149284966Y-99693128D01*
X149534240Y-99915704D01*
X149841383Y-100164894D01*
X149915145Y-100222284D01*
X150241192Y-100474401D01*
X150097859Y-100624451D01*
X149985298Y-100756487D01*
X149872343Y-100910421D01*
X149836902Y-100965000D01*
X149763039Y-101076783D01*
X149653278Y-101233296D01*
X149523478Y-101412269D01*
X149411413Y-101562543D01*
X149259827Y-101756075D01*
X149140571Y-101890356D01*
X149041072Y-101977919D01*
X148948760Y-102031292D01*
X148935612Y-102036782D01*
X148698384Y-102107315D01*
X148454039Y-102125925D01*
X148179366Y-102092898D01*
X147990553Y-102048470D01*
X147639183Y-101930550D01*
X147320696Y-101777337D01*
X147048458Y-101597487D01*
X146835835Y-101399650D01*
X146709412Y-101219000D01*
X146682143Y-101131098D01*
X146655323Y-100983659D01*
X146633066Y-100801732D01*
X146624830Y-100704184D01*
X146626432Y-100304835D01*
X146693435Y-99956171D01*
X146828217Y-99652341D01*
X147033155Y-99387493D01*
X147230331Y-99213955D01*
X147380254Y-99114683D01*
X147567595Y-99011993D01*
X147770255Y-98915709D01*
X147966136Y-98835657D01*
X148133137Y-98781660D01*
X148243706Y-98763439D01*
X148370496Y-98798165D01*
X148370496Y-98798165D01*
G37*
X148370496Y-98798165D02*
X148526076Y-98894307D01*
X148695876Y-99040557D01*
X148865328Y-99225610D01*
X148907482Y-99278620D01*
X149080425Y-99484867D01*
X149284966Y-99693128D01*
X149534240Y-99915704D01*
X149841383Y-100164894D01*
X149915145Y-100222284D01*
X150241192Y-100474401D01*
X150097859Y-100624451D01*
X149985298Y-100756487D01*
X149872343Y-100910421D01*
X149836902Y-100965000D01*
X149763039Y-101076783D01*
X149653278Y-101233296D01*
X149523478Y-101412269D01*
X149411413Y-101562543D01*
X149259827Y-101756075D01*
X149140571Y-101890356D01*
X149041072Y-101977919D01*
X148948760Y-102031292D01*
X148935612Y-102036782D01*
X148698384Y-102107315D01*
X148454039Y-102125925D01*
X148179366Y-102092898D01*
X147990553Y-102048470D01*
X147639183Y-101930550D01*
X147320696Y-101777337D01*
X147048458Y-101597487D01*
X146835835Y-101399650D01*
X146709412Y-101219000D01*
X146682143Y-101131098D01*
X146655323Y-100983659D01*
X146633066Y-100801732D01*
X146624830Y-100704184D01*
X146626432Y-100304835D01*
X146693435Y-99956171D01*
X146828217Y-99652341D01*
X147033155Y-99387493D01*
X147230331Y-99213955D01*
X147380254Y-99114683D01*
X147567595Y-99011993D01*
X147770255Y-98915709D01*
X147966136Y-98835657D01*
X148133137Y-98781660D01*
X148243706Y-98763439D01*
X148370496Y-98798165D01*
D12*
X154952700Y-106172000D03*
X156451300Y-106172000D03*
X155968700Y-107696000D03*
X157467300Y-107696000D03*
X156730700Y-109474000D03*
X158229300Y-109474000D03*
X156984700Y-110998000D03*
X158483300Y-110998000D03*
X157238700Y-112776000D03*
X158737300Y-112776000D03*
D13*
X153416000Y-116459000D03*
D14*
X142230137Y-107905710D03*
X144018000Y-107950000D03*
X145288000Y-108458000D03*
X146558000Y-108966000D03*
X149860000Y-111760000D03*
X137215276Y-114486154D03*
X147618290Y-113293863D03*
X137414000Y-94742000D03*
X167617670Y-102638330D03*
X156718000Y-114300000D03*
X148021058Y-115001058D03*
X149098000Y-115824000D03*
X143891838Y-115224265D03*
X150876000Y-116840000D03*
X149606000Y-118110000D03*
X143004442Y-117482558D03*
D15*
X145288000Y-113792000D02*
X143778036Y-113792000D01*
X154952700Y-106172000D02*
X154952700Y-105523220D01*
X154952700Y-105523220D02*
X153569480Y-104140000D01*
X153569480Y-104140000D02*
X145995847Y-104140000D01*
X145995847Y-104140000D02*
X143201847Y-106934000D01*
X143201847Y-106934000D02*
X142230137Y-107905710D01*
X155968700Y-107683300D02*
X153023710Y-107683300D01*
X153023710Y-107683300D02*
X150554400Y-105213990D01*
X150554400Y-105213990D02*
X146754010Y-105213990D01*
X146754010Y-105213990D02*
X144317999Y-107650001D01*
X144317999Y-107650001D02*
X144018000Y-107950000D01*
X155968700Y-107696000D02*
X155968700Y-107683300D01*
X145288000Y-108458000D02*
X148082000Y-105664000D01*
X148082000Y-105664000D02*
X150114000Y-105664000D01*
X150114000Y-105664000D02*
X150622000Y-106172000D01*
X150622000Y-106172000D02*
X150876000Y-106172000D01*
X150876000Y-106172000D02*
X154178000Y-109474000D01*
X154178000Y-109474000D02*
X156730700Y-109474000D01*
X156730700Y-109474000D02*
X156081920Y-109474000D01*
X150435599Y-106622009D02*
X148901991Y-106622009D01*
X148901991Y-106622009D02*
X146558000Y-108966000D01*
X156984700Y-110998000D02*
X155065590Y-110998000D01*
X155065590Y-110998000D02*
X150689600Y-106622010D01*
X150689600Y-106622010D02*
X150435599Y-106622009D01*
X150876000Y-112776000D02*
X149860000Y-111760000D01*
X157238700Y-112776000D02*
X150876000Y-112776000D01*
X147618290Y-113293863D02*
X146670143Y-114242010D01*
X146670143Y-114242010D02*
X137459420Y-114242010D01*
X137459420Y-114242010D02*
X137215276Y-114486154D01*
X158750000Y-92710000D02*
X158750000Y-93770660D01*
X158750000Y-93770660D02*
X167617670Y-102638330D01*
X141224000Y-92710000D02*
X158750000Y-92710000D01*
X139192000Y-94742000D02*
X141224000Y-92710000D01*
X137414000Y-94742000D02*
X139192000Y-94742000D01*
X158483300Y-110998000D02*
X158483300Y-111646780D01*
X158483300Y-111646780D02*
X158408299Y-111721781D01*
X155152961Y-111721781D02*
X154566179Y-111134999D01*
X158408299Y-111721781D02*
X155152961Y-111721781D01*
X154566179Y-111134999D02*
X149559999Y-111134999D01*
X149559999Y-111134999D02*
X147618290Y-113076708D01*
X147618290Y-113076708D02*
X147618290Y-113293863D01*
X156451300Y-106172000D02*
X156451300Y-105523220D01*
X156451300Y-105523220D02*
X159336190Y-102638330D01*
X159336190Y-102638330D02*
X167617670Y-102638330D01*
X156451300Y-106172000D02*
X157100080Y-106172000D01*
X157467300Y-106539220D02*
X157467300Y-107047220D01*
X157100080Y-106172000D02*
X157467300Y-106539220D01*
X157467300Y-107047220D02*
X157467300Y-107696000D01*
X158229300Y-109474000D02*
X158229300Y-108458000D01*
X158229300Y-108458000D02*
X157467300Y-107696000D01*
X158483300Y-110998000D02*
X158483300Y-109728000D01*
X158483300Y-109728000D02*
X158229300Y-109474000D01*
X158737300Y-112776000D02*
X158737300Y-111252000D01*
X158737300Y-111252000D02*
X158483300Y-110998000D01*
X156718000Y-114300000D02*
X157017999Y-114000001D01*
X157017999Y-114000001D02*
X158162079Y-114000001D01*
X158162079Y-114000001D02*
X158737300Y-113424780D01*
X158737300Y-113424780D02*
X158737300Y-112776000D01*
X149098000Y-115824000D02*
X148844000Y-115824000D01*
X148844000Y-115824000D02*
X148021058Y-115001058D01*
X150876000Y-116840000D02*
X145507573Y-116840000D01*
X145507573Y-116840000D02*
X143891838Y-115224265D01*
X143004442Y-117482558D02*
X143631884Y-118110000D01*
X143631884Y-118110000D02*
X149606000Y-118110000D01*
M02*
