G04 #@! TF.FileFunction,Profile,NP*
%FSLAX46Y46*%
G04 Gerber Fmt 4.6, Leading zero omitted, Abs format (unit mm)*
G04 Created by KiCad (PCBNEW 4.0.5+dfsg1-4) date Sat Aug 24 03:06:04 2019*
%MOMM*%
%LPD*%
G01*
G04 APERTURE LIST*
%ADD10C,0.100000*%
G04 APERTURE END LIST*
D10*
X137784438Y-103830542D02*
X138057727Y-104412761D01*
X138057727Y-104412761D02*
X138629151Y-105348474D01*
X138629151Y-105348474D02*
X139175730Y-105847521D01*
X139175730Y-105847521D02*
X139262684Y-105993077D01*
X139262684Y-105993077D02*
X139026662Y-106377757D01*
X139026662Y-106377757D02*
X138678838Y-106668867D01*
X138678838Y-106668867D02*
X138442816Y-107063946D01*
X138442816Y-107063946D02*
X138132260Y-107937276D01*
X138132260Y-107937276D02*
X137933503Y-108706640D01*
X137933503Y-108706640D02*
X137846549Y-109247273D01*
X137846549Y-109247273D02*
X137834130Y-109964652D01*
X137834130Y-109964652D02*
X137871398Y-110338938D01*
X137871398Y-110338938D02*
X137486308Y-110598858D01*
X137486308Y-110598858D02*
X136790662Y-111129094D01*
X136790662Y-111129094D02*
X136405572Y-111700918D01*
X136405572Y-111700918D02*
X136082594Y-112345520D01*
X136082594Y-112345520D02*
X136020488Y-113135677D01*
X136020488Y-113135677D02*
X136032907Y-114227338D01*
X136032907Y-114227338D02*
X136219240Y-114799163D01*
X136219240Y-114799163D02*
X136467685Y-115121464D01*
X136467685Y-115121464D02*
X136740975Y-115454163D01*
X136740975Y-115454163D02*
X137063953Y-115890827D01*
X137063953Y-115890827D02*
X137399354Y-116452256D01*
X137399354Y-116452256D02*
X137598110Y-116982491D01*
X137598110Y-116982491D02*
X137697483Y-117315189D01*
X137697483Y-117315189D02*
X137747170Y-117741457D01*
X137747170Y-117741457D02*
X137610526Y-118105346D01*
X137610526Y-118105346D02*
X137287548Y-118438042D01*
X137287548Y-118438042D02*
X136803079Y-118822725D01*
X136803079Y-118822725D02*
X136430412Y-119082644D01*
X136430412Y-119082644D02*
X136281344Y-119446532D01*
X136281344Y-119446532D02*
X136169544Y-119997563D01*
X136169544Y-119997563D02*
X136455256Y-120423831D01*
X136455256Y-120423831D02*
X136852768Y-120673355D01*
X136852768Y-120673355D02*
X137610526Y-120756525D01*
X137610526Y-120756525D02*
X138492506Y-120704535D01*
X138492506Y-120704535D02*
X139287530Y-120527791D01*
X139287530Y-120527791D02*
X139933488Y-120195092D01*
X139933488Y-120195092D02*
X140914845Y-119425730D01*
X140914845Y-119425730D02*
X141635336Y-118677160D01*
X141635336Y-118677160D02*
X141809248Y-118271686D01*
X141809248Y-118271686D02*
X141908622Y-118126130D01*
X141908622Y-118126130D02*
X142504889Y-118406844D01*
X142504889Y-118406844D02*
X143200536Y-118739540D01*
X143200536Y-118739540D02*
X144268850Y-118989064D01*
X144268850Y-118989064D02*
X145598032Y-119155412D01*
X145598032Y-119155412D02*
X146840256Y-119196992D01*
X146840256Y-119196992D02*
X147660126Y-119145012D01*
X147660126Y-119145012D02*
X148778127Y-119020251D01*
X148778127Y-119020251D02*
X149809175Y-118781124D01*
X149809175Y-118781124D02*
X150343332Y-118614773D01*
X150343332Y-118614773D02*
X150442702Y-118874695D01*
X150442702Y-118874695D02*
X150877480Y-119550487D01*
X150877480Y-119550487D02*
X151424060Y-119893582D01*
X151424060Y-119893582D02*
X152094861Y-120226278D01*
X152094861Y-120226278D02*
X152902308Y-120455007D01*
X152902308Y-120455007D02*
X153660066Y-120465397D01*
X153660066Y-120465397D02*
X154380556Y-120247063D01*
X154380556Y-120247063D02*
X154914714Y-119924762D01*
X154914714Y-119924762D02*
X155473714Y-119540082D01*
X155473714Y-119540082D02*
X155784271Y-118989050D01*
X155784271Y-118989050D02*
X155995448Y-118604369D01*
X155995448Y-118604369D02*
X155983028Y-118292467D01*
X155983028Y-118292467D02*
X155771851Y-118042943D01*
X155771851Y-118042943D02*
X155535828Y-117814212D01*
X155535828Y-117814212D02*
X155188006Y-117533499D01*
X155188006Y-117533499D02*
X154951983Y-117294371D01*
X154951983Y-117294371D02*
X154840183Y-116930485D01*
X154840183Y-116930485D02*
X155101050Y-116732945D01*
X155101050Y-116732945D02*
X155896074Y-116254693D01*
X155896074Y-116254693D02*
X156802898Y-115599692D01*
X156802898Y-115599692D02*
X157958168Y-114726362D01*
X157958168Y-114726362D02*
X159212815Y-113749065D01*
X159212815Y-113749065D02*
X159535794Y-113468351D01*
X159535794Y-113468351D02*
X160119640Y-112948511D01*
X160119640Y-112948511D02*
X160467463Y-112636605D01*
X160467463Y-112636605D02*
X160863322Y-112378696D01*
X160863322Y-112378696D02*
X161229295Y-112088163D01*
X161229295Y-112088163D02*
X161527529Y-111809825D01*
X161527529Y-111809825D02*
X161862989Y-111473646D01*
X161862989Y-111473646D02*
X162479868Y-110733995D01*
X162479868Y-110733995D02*
X162889803Y-110567646D01*
X162889803Y-110567646D02*
X163647560Y-110505266D01*
X163647560Y-110505266D02*
X164765572Y-110255755D01*
X164765572Y-110255755D02*
X165684818Y-109819088D01*
X165684818Y-109819088D02*
X166554376Y-109340837D01*
X166554376Y-109340837D02*
X167225177Y-108800203D01*
X167225177Y-108800203D02*
X167796601Y-108093220D01*
X167796601Y-108093220D02*
X168318336Y-107136716D01*
X168318336Y-107136716D02*
X168504668Y-106440131D01*
X168504668Y-106440131D02*
X168417718Y-105774735D01*
X168417718Y-105774735D02*
X168243806Y-105244499D01*
X168243806Y-105244499D02*
X167970517Y-104766246D01*
X167970517Y-104766246D02*
X168802807Y-104204818D01*
X168802807Y-104204818D02*
X169945655Y-103321092D01*
X169945655Y-103321092D02*
X171125770Y-101969507D01*
X171125770Y-101969507D02*
X171697194Y-100961018D01*
X171697194Y-100961018D02*
X172094706Y-99515862D01*
X172094706Y-99515862D02*
X171871105Y-98289040D01*
X171871105Y-98289040D02*
X171038814Y-96833490D01*
X171038814Y-96833490D02*
X169908388Y-95814600D01*
X169908388Y-95814600D02*
X168529518Y-94837301D01*
X168529518Y-94837301D02*
X167635115Y-94078348D01*
X167635115Y-94078348D02*
X166616491Y-93215414D01*
X166616491Y-93215414D02*
X165945690Y-92737161D01*
X165945690Y-92737161D02*
X165299729Y-91874224D01*
X165299729Y-91874224D02*
X163833903Y-90231530D01*
X163833903Y-90231530D02*
X162927079Y-89347802D01*
X162927079Y-89347802D02*
X161809076Y-88318519D01*
X161809076Y-88318519D02*
X161063740Y-87112490D01*
X161063740Y-87112490D02*
X159722137Y-85802493D01*
X159722137Y-85802493D02*
X158231467Y-84575670D01*
X158231467Y-84575670D02*
X156343285Y-82995357D01*
X156343285Y-82995357D02*
X154877459Y-82142820D01*
X154877459Y-82142820D02*
X152865053Y-81581393D01*
X152865053Y-81581393D02*
X152017415Y-79073040D01*
X152017415Y-79073040D02*
X151879364Y-78840599D01*
X151879364Y-78840599D02*
X151671347Y-78593400D01*
X151671347Y-78593400D02*
X151400949Y-78341271D01*
X151400949Y-78341271D02*
X151075756Y-78094038D01*
X151075756Y-78094038D02*
X150703350Y-77861529D01*
X150703350Y-77861529D02*
X150291318Y-77653570D01*
X150291318Y-77653570D02*
X149847244Y-77479988D01*
X149847244Y-77479988D02*
X149378712Y-77350610D01*
X149378712Y-77350610D02*
X149137645Y-77305568D01*
X149137645Y-77305568D02*
X148893308Y-77275263D01*
X148893308Y-77275263D02*
X148646648Y-77260922D01*
X148646648Y-77260922D02*
X148398615Y-77263774D01*
X148398615Y-77263774D02*
X148150156Y-77285047D01*
X148150156Y-77285047D02*
X147902219Y-77325969D01*
X147902219Y-77325969D02*
X147655752Y-77387770D01*
X147655752Y-77387770D02*
X147411703Y-77471677D01*
X147411703Y-77471677D02*
X147171021Y-77578918D01*
X147171021Y-77578918D02*
X146934654Y-77710722D01*
X146934654Y-77710722D02*
X146703549Y-77868318D01*
X146703549Y-77868318D02*
X146478655Y-78052934D01*
X146478655Y-78052934D02*
X146260920Y-78265798D01*
X146260920Y-78265798D02*
X146051291Y-78508138D01*
X146051291Y-78508138D02*
X145850718Y-78781183D01*
X145850718Y-78781183D02*
X145660147Y-79086161D01*
X145660147Y-79086161D02*
X144840278Y-80936791D01*
X144840278Y-80936791D02*
X141759559Y-82205200D01*
X141759559Y-82205200D02*
X139109186Y-84141786D01*
X139109186Y-84141786D02*
X138239628Y-85472576D01*
X138239628Y-85472576D02*
X137436614Y-86800585D01*
X137436614Y-86800585D02*
X136939725Y-88505660D01*
X136939725Y-88505660D02*
X137088791Y-89566134D01*
X137088791Y-89566134D02*
X137088791Y-90023594D01*
X137088791Y-90023594D02*
X136140325Y-90608407D01*
X136140325Y-90608407D02*
X135558692Y-91152902D01*
X135558692Y-91152902D02*
X135248865Y-91615599D01*
X135248865Y-91615599D02*
X134912000Y-92087290D01*
X134912000Y-92087290D02*
X134778226Y-92520094D01*
X134778226Y-92520094D02*
X134778252Y-93246601D01*
X134778252Y-93246601D02*
X134827939Y-94577390D01*
X134827939Y-94577390D02*
X135076384Y-95388342D01*
X135076384Y-95388342D02*
X135647808Y-96635957D01*
X135647808Y-96635957D02*
X136194387Y-97342939D01*
X136194387Y-97342939D02*
X137014256Y-97966747D01*
X137014256Y-97966747D02*
X137585680Y-98237064D01*
X137585680Y-98237064D02*
X137287546Y-99027221D01*
X137287546Y-99027221D02*
X136914877Y-99526266D01*
X136914877Y-99526266D02*
X135672652Y-99942139D01*
X135672652Y-99942139D02*
X134778250Y-100316423D01*
X134778250Y-100316423D02*
X134579495Y-100877851D01*
X134579495Y-100877851D02*
X134803095Y-101543246D01*
X134803095Y-101543246D02*
X135622963Y-102499751D01*
X135622963Y-102499751D02*
X136244076Y-103206734D01*
X136244076Y-103206734D02*
X136467677Y-103664192D01*
X136467677Y-103664192D02*
X136616743Y-103913715D01*
X136616743Y-103913715D02*
X137113634Y-103809748D01*
X137113634Y-103809748D02*
X137784438Y-103830538D01*
X137784438Y-103830538D02*
X137784438Y-103830542D01*
X145908592Y-80820544D02*
X146368216Y-79645706D01*
X146368216Y-79645706D02*
X147250195Y-78574836D01*
X147250195Y-78574836D02*
X147945842Y-78179757D01*
X147945842Y-78179757D02*
X149287444Y-78158964D01*
X149287444Y-78158964D02*
X150219113Y-78720391D01*
X150219113Y-78720391D02*
X150790537Y-79458564D01*
X150790537Y-79458564D02*
X151411650Y-80654196D01*
X151411650Y-80654196D02*
X151498600Y-81278004D01*
X151498600Y-81278004D02*
X145945852Y-80862131D01*
X145945852Y-80862131D02*
X145908592Y-80820544D01*
X145908592Y-80820544D02*
X145908592Y-80820544D01*
M02*
