G04 #@! TF.FileFunction,Soldermask,Top*
%FSLAX46Y46*%
G04 Gerber Fmt 4.6, Leading zero omitted, Abs format (unit mm)*
G04 Created by KiCad (PCBNEW 4.0.5+dfsg1-4) date Sat Aug 24 03:06:04 2019*
%MOMM*%
%LPD*%
G01*
G04 APERTURE LIST*
%ADD10C,0.100000*%
%ADD11C,0.010000*%
%ADD12R,1.197560X1.197560*%
%ADD13C,1.390600*%
G04 APERTURE END LIST*
D10*
D11*
G36*
X141224000Y-84304860D02*
X141201602Y-84346262D01*
X141142311Y-84438562D01*
X141057977Y-84563433D01*
X141039250Y-84590555D01*
X140942496Y-84733203D01*
X140860021Y-84860185D01*
X140808330Y-84946028D01*
X140805537Y-84951278D01*
X140751604Y-85099296D01*
X140707961Y-85303391D01*
X140679359Y-85535153D01*
X140670475Y-85758995D01*
X140686868Y-85951710D01*
X140738872Y-86122476D01*
X140836031Y-86287917D01*
X140987887Y-86464659D01*
X141181375Y-86649078D01*
X141301145Y-86751656D01*
X141424321Y-86843966D01*
X141565555Y-86934749D01*
X141739503Y-87032750D01*
X141960818Y-87146711D01*
X142244153Y-87285374D01*
X142263426Y-87294661D01*
X142501038Y-87408354D01*
X142712896Y-87508338D01*
X142887137Y-87589130D01*
X143011904Y-87645245D01*
X143075335Y-87671200D01*
X143080209Y-87672334D01*
X143119580Y-87704146D01*
X143186436Y-87783491D01*
X143263192Y-87886230D01*
X143332260Y-87988223D01*
X143376052Y-88065333D01*
X143383000Y-88087913D01*
X143354758Y-88131622D01*
X143280868Y-88214750D01*
X143181917Y-88314772D01*
X143075737Y-88410035D01*
X142970835Y-88481789D01*
X142843495Y-88542313D01*
X142670005Y-88603889D01*
X142552373Y-88640801D01*
X142163680Y-88738719D01*
X141741037Y-88808328D01*
X141621040Y-88821677D01*
X141395958Y-88842121D01*
X141231932Y-88851032D01*
X141106042Y-88847681D01*
X140995368Y-88831339D01*
X140876990Y-88801275D01*
X140864167Y-88797579D01*
X140725661Y-88750494D01*
X140613543Y-88690582D01*
X140502112Y-88600345D01*
X140365666Y-88462283D01*
X140355091Y-88450993D01*
X140231876Y-88321061D01*
X140148709Y-88243437D01*
X140088290Y-88208146D01*
X140033316Y-88205212D01*
X139966485Y-88224659D01*
X139964020Y-88225517D01*
X139836277Y-88309933D01*
X139769240Y-88450999D01*
X139763760Y-88645487D01*
X139803634Y-88835200D01*
X139845657Y-89000939D01*
X139851179Y-89109676D01*
X139815074Y-89183043D01*
X139732213Y-89242678D01*
X139703421Y-89258064D01*
X139611402Y-89299280D01*
X139463461Y-89358414D01*
X139275841Y-89429674D01*
X139064784Y-89507269D01*
X138846532Y-89585407D01*
X138637330Y-89658296D01*
X138453418Y-89720146D01*
X138311039Y-89765163D01*
X138226437Y-89787557D01*
X138214425Y-89789000D01*
X138189300Y-89779492D01*
X138169852Y-89743578D01*
X138154646Y-89670171D01*
X138142244Y-89548186D01*
X138131213Y-89366537D01*
X138120116Y-89114138D01*
X138117120Y-89037584D01*
X138088188Y-88286167D01*
X138234288Y-87854740D01*
X138452838Y-87313911D01*
X138743143Y-86762059D01*
X139096172Y-86213513D01*
X139502898Y-85682600D01*
X139848167Y-85293582D01*
X140046991Y-85091953D01*
X140229003Y-84929672D01*
X140422976Y-84783642D01*
X140657682Y-84630769D01*
X140726584Y-84588477D01*
X140906517Y-84480279D01*
X141057458Y-84391990D01*
X141166426Y-84331012D01*
X141220441Y-84304745D01*
X141224000Y-84304860D01*
X141224000Y-84304860D01*
G37*
X141224000Y-84304860D02*
X141201602Y-84346262D01*
X141142311Y-84438562D01*
X141057977Y-84563433D01*
X141039250Y-84590555D01*
X140942496Y-84733203D01*
X140860021Y-84860185D01*
X140808330Y-84946028D01*
X140805537Y-84951278D01*
X140751604Y-85099296D01*
X140707961Y-85303391D01*
X140679359Y-85535153D01*
X140670475Y-85758995D01*
X140686868Y-85951710D01*
X140738872Y-86122476D01*
X140836031Y-86287917D01*
X140987887Y-86464659D01*
X141181375Y-86649078D01*
X141301145Y-86751656D01*
X141424321Y-86843966D01*
X141565555Y-86934749D01*
X141739503Y-87032750D01*
X141960818Y-87146711D01*
X142244153Y-87285374D01*
X142263426Y-87294661D01*
X142501038Y-87408354D01*
X142712896Y-87508338D01*
X142887137Y-87589130D01*
X143011904Y-87645245D01*
X143075335Y-87671200D01*
X143080209Y-87672334D01*
X143119580Y-87704146D01*
X143186436Y-87783491D01*
X143263192Y-87886230D01*
X143332260Y-87988223D01*
X143376052Y-88065333D01*
X143383000Y-88087913D01*
X143354758Y-88131622D01*
X143280868Y-88214750D01*
X143181917Y-88314772D01*
X143075737Y-88410035D01*
X142970835Y-88481789D01*
X142843495Y-88542313D01*
X142670005Y-88603889D01*
X142552373Y-88640801D01*
X142163680Y-88738719D01*
X141741037Y-88808328D01*
X141621040Y-88821677D01*
X141395958Y-88842121D01*
X141231932Y-88851032D01*
X141106042Y-88847681D01*
X140995368Y-88831339D01*
X140876990Y-88801275D01*
X140864167Y-88797579D01*
X140725661Y-88750494D01*
X140613543Y-88690582D01*
X140502112Y-88600345D01*
X140365666Y-88462283D01*
X140355091Y-88450993D01*
X140231876Y-88321061D01*
X140148709Y-88243437D01*
X140088290Y-88208146D01*
X140033316Y-88205212D01*
X139966485Y-88224659D01*
X139964020Y-88225517D01*
X139836277Y-88309933D01*
X139769240Y-88450999D01*
X139763760Y-88645487D01*
X139803634Y-88835200D01*
X139845657Y-89000939D01*
X139851179Y-89109676D01*
X139815074Y-89183043D01*
X139732213Y-89242678D01*
X139703421Y-89258064D01*
X139611402Y-89299280D01*
X139463461Y-89358414D01*
X139275841Y-89429674D01*
X139064784Y-89507269D01*
X138846532Y-89585407D01*
X138637330Y-89658296D01*
X138453418Y-89720146D01*
X138311039Y-89765163D01*
X138226437Y-89787557D01*
X138214425Y-89789000D01*
X138189300Y-89779492D01*
X138169852Y-89743578D01*
X138154646Y-89670171D01*
X138142244Y-89548186D01*
X138131213Y-89366537D01*
X138120116Y-89114138D01*
X138117120Y-89037584D01*
X138088188Y-88286167D01*
X138234288Y-87854740D01*
X138452838Y-87313911D01*
X138743143Y-86762059D01*
X139096172Y-86213513D01*
X139502898Y-85682600D01*
X139848167Y-85293582D01*
X140046991Y-85091953D01*
X140229003Y-84929672D01*
X140422976Y-84783642D01*
X140657682Y-84630769D01*
X140726584Y-84588477D01*
X140906517Y-84480279D01*
X141057458Y-84391990D01*
X141166426Y-84331012D01*
X141220441Y-84304745D01*
X141224000Y-84304860D01*
G36*
X144273786Y-83138770D02*
X144520115Y-83159424D01*
X144809419Y-83199343D01*
X145153402Y-83258794D01*
X145563767Y-83338043D01*
X145727317Y-83370926D01*
X146068149Y-83440410D01*
X146341479Y-83498061D01*
X146562880Y-83548392D01*
X146747923Y-83595918D01*
X146912180Y-83645152D01*
X147071223Y-83700609D01*
X147240625Y-83766803D01*
X147435956Y-83848247D01*
X147567539Y-83904369D01*
X147797124Y-84003716D01*
X147986139Y-84089558D01*
X148150249Y-84171139D01*
X148305116Y-84257706D01*
X148466407Y-84358503D01*
X148649784Y-84482775D01*
X148870912Y-84639767D01*
X149123202Y-84822534D01*
X149633655Y-85206668D01*
X150070305Y-85563464D01*
X150437795Y-85897432D01*
X150740772Y-86213082D01*
X150983879Y-86514925D01*
X151171762Y-86807470D01*
X151176798Y-86816517D01*
X151307983Y-87066832D01*
X151392717Y-87272542D01*
X151434146Y-87457661D01*
X151435414Y-87646202D01*
X151399669Y-87862181D01*
X151342849Y-88084137D01*
X151287811Y-88271037D01*
X151235254Y-88430842D01*
X151192047Y-88543643D01*
X151169835Y-88585510D01*
X151098648Y-88618061D01*
X150963912Y-88636901D01*
X150785596Y-88642215D01*
X150583671Y-88634193D01*
X150378105Y-88613020D01*
X150188867Y-88578886D01*
X150177500Y-88576197D01*
X150063627Y-88556875D01*
X149880397Y-88535473D01*
X149643053Y-88513329D01*
X149366835Y-88491781D01*
X149066985Y-88472167D01*
X148865167Y-88461013D01*
X148521874Y-88444934D01*
X148213087Y-88434211D01*
X147919530Y-88428880D01*
X147621926Y-88428978D01*
X147300996Y-88434541D01*
X146937463Y-88445605D01*
X146512051Y-88462209D01*
X146431000Y-88465635D01*
X146070715Y-88480593D01*
X145713625Y-88494666D01*
X145374906Y-88507312D01*
X145069738Y-88517987D01*
X144813299Y-88526148D01*
X144620768Y-88531252D01*
X144569764Y-88532241D01*
X144084361Y-88540167D01*
X144082930Y-88138000D01*
X144080085Y-87944006D01*
X144070029Y-87811145D01*
X144048003Y-87715918D01*
X144009246Y-87634827D01*
X143968271Y-87571947D01*
X143870219Y-87466526D01*
X143707493Y-87342341D01*
X143476828Y-87197436D01*
X143174959Y-87029854D01*
X142798622Y-86837641D01*
X142501224Y-86693165D01*
X142156681Y-86516253D01*
X141887738Y-86349275D01*
X141686861Y-86186137D01*
X141546515Y-86020744D01*
X141460860Y-85851765D01*
X141408857Y-85594231D01*
X141437484Y-85347748D01*
X141542763Y-85120241D01*
X141720715Y-84919639D01*
X141967362Y-84753868D01*
X142026562Y-84724667D01*
X142272138Y-84636631D01*
X142555053Y-84587135D01*
X142885447Y-84575729D01*
X143273455Y-84601963D01*
X143650213Y-84652582D01*
X143878742Y-84685936D01*
X144084544Y-84710897D01*
X144249881Y-84725690D01*
X144357017Y-84728536D01*
X144380463Y-84725724D01*
X144464474Y-84674988D01*
X144479931Y-84588672D01*
X144430320Y-84475677D01*
X144319129Y-84344904D01*
X144187334Y-84232823D01*
X144112513Y-84178515D01*
X144042999Y-84138067D01*
X143963056Y-84107558D01*
X143856943Y-84083069D01*
X143708923Y-84060678D01*
X143503256Y-84036466D01*
X143319500Y-84016647D01*
X143057233Y-83990412D01*
X142794652Y-83967114D01*
X142556564Y-83948758D01*
X142367778Y-83937349D01*
X142311282Y-83935170D01*
X141980397Y-83925834D01*
X142395949Y-83706264D01*
X142622897Y-83593787D01*
X142888563Y-83473377D01*
X143151236Y-83363548D01*
X143277167Y-83315151D01*
X143484164Y-83243476D01*
X143675622Y-83189734D01*
X143863242Y-83154191D01*
X144058729Y-83137114D01*
X144273786Y-83138770D01*
X144273786Y-83138770D01*
G37*
X144273786Y-83138770D02*
X144520115Y-83159424D01*
X144809419Y-83199343D01*
X145153402Y-83258794D01*
X145563767Y-83338043D01*
X145727317Y-83370926D01*
X146068149Y-83440410D01*
X146341479Y-83498061D01*
X146562880Y-83548392D01*
X146747923Y-83595918D01*
X146912180Y-83645152D01*
X147071223Y-83700609D01*
X147240625Y-83766803D01*
X147435956Y-83848247D01*
X147567539Y-83904369D01*
X147797124Y-84003716D01*
X147986139Y-84089558D01*
X148150249Y-84171139D01*
X148305116Y-84257706D01*
X148466407Y-84358503D01*
X148649784Y-84482775D01*
X148870912Y-84639767D01*
X149123202Y-84822534D01*
X149633655Y-85206668D01*
X150070305Y-85563464D01*
X150437795Y-85897432D01*
X150740772Y-86213082D01*
X150983879Y-86514925D01*
X151171762Y-86807470D01*
X151176798Y-86816517D01*
X151307983Y-87066832D01*
X151392717Y-87272542D01*
X151434146Y-87457661D01*
X151435414Y-87646202D01*
X151399669Y-87862181D01*
X151342849Y-88084137D01*
X151287811Y-88271037D01*
X151235254Y-88430842D01*
X151192047Y-88543643D01*
X151169835Y-88585510D01*
X151098648Y-88618061D01*
X150963912Y-88636901D01*
X150785596Y-88642215D01*
X150583671Y-88634193D01*
X150378105Y-88613020D01*
X150188867Y-88578886D01*
X150177500Y-88576197D01*
X150063627Y-88556875D01*
X149880397Y-88535473D01*
X149643053Y-88513329D01*
X149366835Y-88491781D01*
X149066985Y-88472167D01*
X148865167Y-88461013D01*
X148521874Y-88444934D01*
X148213087Y-88434211D01*
X147919530Y-88428880D01*
X147621926Y-88428978D01*
X147300996Y-88434541D01*
X146937463Y-88445605D01*
X146512051Y-88462209D01*
X146431000Y-88465635D01*
X146070715Y-88480593D01*
X145713625Y-88494666D01*
X145374906Y-88507312D01*
X145069738Y-88517987D01*
X144813299Y-88526148D01*
X144620768Y-88531252D01*
X144569764Y-88532241D01*
X144084361Y-88540167D01*
X144082930Y-88138000D01*
X144080085Y-87944006D01*
X144070029Y-87811145D01*
X144048003Y-87715918D01*
X144009246Y-87634827D01*
X143968271Y-87571947D01*
X143870219Y-87466526D01*
X143707493Y-87342341D01*
X143476828Y-87197436D01*
X143174959Y-87029854D01*
X142798622Y-86837641D01*
X142501224Y-86693165D01*
X142156681Y-86516253D01*
X141887738Y-86349275D01*
X141686861Y-86186137D01*
X141546515Y-86020744D01*
X141460860Y-85851765D01*
X141408857Y-85594231D01*
X141437484Y-85347748D01*
X141542763Y-85120241D01*
X141720715Y-84919639D01*
X141967362Y-84753868D01*
X142026562Y-84724667D01*
X142272138Y-84636631D01*
X142555053Y-84587135D01*
X142885447Y-84575729D01*
X143273455Y-84601963D01*
X143650213Y-84652582D01*
X143878742Y-84685936D01*
X144084544Y-84710897D01*
X144249881Y-84725690D01*
X144357017Y-84728536D01*
X144380463Y-84725724D01*
X144464474Y-84674988D01*
X144479931Y-84588672D01*
X144430320Y-84475677D01*
X144319129Y-84344904D01*
X144187334Y-84232823D01*
X144112513Y-84178515D01*
X144042999Y-84138067D01*
X143963056Y-84107558D01*
X143856943Y-84083069D01*
X143708923Y-84060678D01*
X143503256Y-84036466D01*
X143319500Y-84016647D01*
X143057233Y-83990412D01*
X142794652Y-83967114D01*
X142556564Y-83948758D01*
X142367778Y-83937349D01*
X142311282Y-83935170D01*
X141980397Y-83925834D01*
X142395949Y-83706264D01*
X142622897Y-83593787D01*
X142888563Y-83473377D01*
X143151236Y-83363548D01*
X143277167Y-83315151D01*
X143484164Y-83243476D01*
X143675622Y-83189734D01*
X143863242Y-83154191D01*
X144058729Y-83137114D01*
X144273786Y-83138770D01*
D12*
X154952700Y-106172000D03*
X156451300Y-106172000D03*
X155968700Y-107696000D03*
X157467300Y-107696000D03*
X156730700Y-109474000D03*
X158229300Y-109474000D03*
X156984700Y-110998000D03*
X158483300Y-110998000D03*
X157238700Y-112776000D03*
X158737300Y-112776000D03*
D13*
X153416000Y-116459000D03*
M02*
