G04 #@! TF.FileFunction,Legend,Bot*
%FSLAX46Y46*%
G04 Gerber Fmt 4.6, Leading zero omitted, Abs format (unit mm)*
G04 Created by KiCad (PCBNEW 4.0.5+dfsg1-4) date Sun Sep 22 01:55:02 2019*
%MOMM*%
%LPD*%
G01*
G04 APERTURE LIST*
%ADD10C,0.100000*%
%ADD11C,0.300000*%
%ADD12C,0.120000*%
%ADD13C,0.150000*%
%ADD14C,0.010000*%
G04 APERTURE END LIST*
D10*
D11*
X120991429Y-121688572D02*
X119920000Y-121688572D01*
X119705714Y-121760000D01*
X119562857Y-121902857D01*
X119491429Y-122117143D01*
X119491429Y-122260000D01*
X119491429Y-120260000D02*
X119491429Y-120974286D01*
X120991429Y-120974286D01*
X119634286Y-118902857D02*
X119562857Y-118974286D01*
X119491429Y-119188572D01*
X119491429Y-119331429D01*
X119562857Y-119545714D01*
X119705714Y-119688572D01*
X119848571Y-119760000D01*
X120134286Y-119831429D01*
X120348571Y-119831429D01*
X120634286Y-119760000D01*
X120777143Y-119688572D01*
X120920000Y-119545714D01*
X120991429Y-119331429D01*
X120991429Y-119188572D01*
X120920000Y-118974286D01*
X120848571Y-118902857D01*
X120991429Y-117831429D02*
X119920000Y-117831429D01*
X119705714Y-117902857D01*
X119562857Y-118045714D01*
X119491429Y-118260000D01*
X119491429Y-118402857D01*
X119491429Y-116402857D02*
X119491429Y-117117143D01*
X120991429Y-117117143D01*
X119634286Y-115045714D02*
X119562857Y-115117143D01*
X119491429Y-115331429D01*
X119491429Y-115474286D01*
X119562857Y-115688571D01*
X119705714Y-115831429D01*
X119848571Y-115902857D01*
X120134286Y-115974286D01*
X120348571Y-115974286D01*
X120634286Y-115902857D01*
X120777143Y-115831429D01*
X120920000Y-115688571D01*
X120991429Y-115474286D01*
X120991429Y-115331429D01*
X120920000Y-115117143D01*
X120848571Y-115045714D01*
X120991429Y-113974286D02*
X119920000Y-113974286D01*
X119705714Y-114045714D01*
X119562857Y-114188571D01*
X119491429Y-114402857D01*
X119491429Y-114545714D01*
X119491429Y-112545714D02*
X119491429Y-113260000D01*
X120991429Y-113260000D01*
X119634286Y-111188571D02*
X119562857Y-111260000D01*
X119491429Y-111474286D01*
X119491429Y-111617143D01*
X119562857Y-111831428D01*
X119705714Y-111974286D01*
X119848571Y-112045714D01*
X120134286Y-112117143D01*
X120348571Y-112117143D01*
X120634286Y-112045714D01*
X120777143Y-111974286D01*
X120920000Y-111831428D01*
X120991429Y-111617143D01*
X120991429Y-111474286D01*
X120920000Y-111260000D01*
X120848571Y-111188571D01*
X120991429Y-110117143D02*
X119920000Y-110117143D01*
X119705714Y-110188571D01*
X119562857Y-110331428D01*
X119491429Y-110545714D01*
X119491429Y-110688571D01*
X119491429Y-108688571D02*
X119491429Y-109402857D01*
X120991429Y-109402857D01*
X119634286Y-107331428D02*
X119562857Y-107402857D01*
X119491429Y-107617143D01*
X119491429Y-107760000D01*
X119562857Y-107974285D01*
X119705714Y-108117143D01*
X119848571Y-108188571D01*
X120134286Y-108260000D01*
X120348571Y-108260000D01*
X120634286Y-108188571D01*
X120777143Y-108117143D01*
X120920000Y-107974285D01*
X120991429Y-107760000D01*
X120991429Y-107617143D01*
X120920000Y-107402857D01*
X120848571Y-107331428D01*
D12*
X160429000Y-113884000D02*
X160429000Y-114519000D01*
X161064000Y-113884000D02*
X160429000Y-113884000D01*
D13*
X144470000Y-109610000D02*
X143770000Y-109610000D01*
X143770000Y-110810000D02*
X144470000Y-110810000D01*
X158616000Y-102296000D02*
X158616000Y-101596000D01*
X157416000Y-101596000D02*
X157416000Y-102296000D01*
D12*
X151950000Y-122800000D02*
X151020000Y-122800000D01*
X148790000Y-122800000D02*
X149720000Y-122800000D01*
X148790000Y-122800000D02*
X148790000Y-120640000D01*
X151950000Y-122800000D02*
X151950000Y-121340000D01*
D13*
X158891000Y-96770000D02*
X158891000Y-95570000D01*
X157141000Y-95570000D02*
X157141000Y-96770000D01*
X156605000Y-96770000D02*
X156605000Y-95570000D01*
X154855000Y-95570000D02*
X154855000Y-96770000D01*
X154319000Y-96770000D02*
X154319000Y-95570000D01*
X152569000Y-95570000D02*
X152569000Y-96770000D01*
X152033000Y-96769999D02*
X152033000Y-95569999D01*
X150283000Y-95569999D02*
X150283000Y-96769999D01*
X149747000Y-96769999D02*
X149747000Y-95569999D01*
X147997000Y-95569999D02*
X147997000Y-96769999D01*
X147461000Y-96770000D02*
X147461000Y-95570000D01*
X145711000Y-95570000D02*
X145711000Y-96770000D01*
X147235000Y-106746000D02*
X147235000Y-107946000D01*
X148985000Y-107946000D02*
X148985000Y-106746000D01*
X149521000Y-106746001D02*
X149521000Y-107946001D01*
X151271000Y-107946001D02*
X151271000Y-106746001D01*
X153557000Y-107880000D02*
X153557000Y-106680000D01*
X151807000Y-106680000D02*
X151807000Y-107880000D01*
X155784000Y-98060000D02*
X156784000Y-99060000D01*
X156784000Y-99060000D02*
X156784000Y-105260000D01*
X156784000Y-105260000D02*
X147564000Y-105260000D01*
X147564000Y-105260000D02*
X147564000Y-98060000D01*
X147564000Y-98060000D02*
X155784000Y-98060000D01*
D14*
G36*
X136341662Y-108116374D02*
X136237314Y-108160146D01*
X136092548Y-108226433D01*
X135919363Y-108309781D01*
X135774922Y-108381786D01*
X135572358Y-108483452D01*
X135374268Y-108581444D01*
X135197337Y-108667610D01*
X135058250Y-108733794D01*
X134999598Y-108760659D01*
X134816803Y-108853890D01*
X134597108Y-108984530D01*
X134357184Y-109141029D01*
X134113701Y-109311839D01*
X133883331Y-109485412D01*
X133682745Y-109650199D01*
X133577952Y-109745475D01*
X133255795Y-110075101D01*
X132994804Y-110389899D01*
X132788377Y-110701012D01*
X132629918Y-111019587D01*
X132512825Y-111356770D01*
X132441022Y-111665643D01*
X132401712Y-111874286D01*
X132213784Y-111873000D01*
X132058994Y-111859899D01*
X131935835Y-111816164D01*
X131830813Y-111731549D01*
X131730437Y-111595813D01*
X131641965Y-111438857D01*
X131592876Y-111325910D01*
X131566055Y-111205422D01*
X131555927Y-111048994D01*
X131555334Y-110997457D01*
X131557321Y-110850101D01*
X131569510Y-110748932D01*
X131598941Y-110667633D01*
X131652654Y-110579889D01*
X131676024Y-110546289D01*
X131742733Y-110448067D01*
X131770773Y-110390114D01*
X131764752Y-110354442D01*
X131732588Y-110325475D01*
X131655677Y-110286144D01*
X131573749Y-110287912D01*
X131468836Y-110334063D01*
X131378705Y-110390143D01*
X131154270Y-110573983D01*
X130974435Y-110792556D01*
X130840736Y-111035717D01*
X130754707Y-111293321D01*
X130717884Y-111555223D01*
X130731802Y-111811277D01*
X130797996Y-112051339D01*
X130918002Y-112265263D01*
X131070792Y-112425032D01*
X131255752Y-112563189D01*
X131418072Y-112650489D01*
X131578090Y-112694547D01*
X131756148Y-112702982D01*
X131806096Y-112700402D01*
X132054677Y-112663458D01*
X132248692Y-112587109D01*
X132396996Y-112467227D01*
X132449496Y-112400429D01*
X132527074Y-112265659D01*
X132549823Y-112169003D01*
X132518505Y-112114092D01*
X132433882Y-112104559D01*
X132389274Y-112113245D01*
X132321874Y-112145259D01*
X132315606Y-112199100D01*
X132316321Y-112201420D01*
X132304965Y-112269713D01*
X132248583Y-112358253D01*
X132162931Y-112447638D01*
X132063765Y-112518466D01*
X132055119Y-112523060D01*
X131905111Y-112565886D01*
X131721716Y-112567088D01*
X131528919Y-112529486D01*
X131350701Y-112455899D01*
X131317712Y-112436352D01*
X131118488Y-112272115D01*
X130977475Y-112073708D01*
X130894497Y-111850062D01*
X130869381Y-111610112D01*
X130901953Y-111362789D01*
X130992038Y-111117026D01*
X131139462Y-110881757D01*
X131344051Y-110665914D01*
X131352369Y-110658714D01*
X131436787Y-110586143D01*
X131407916Y-110676857D01*
X131388520Y-110791399D01*
X131382603Y-110951068D01*
X131389011Y-111129911D01*
X131406590Y-111301975D01*
X131434183Y-111441307D01*
X131443197Y-111469935D01*
X131473019Y-111570202D01*
X131483868Y-111641585D01*
X131480991Y-111657510D01*
X131490736Y-111708049D01*
X131565328Y-111780868D01*
X131701558Y-111873045D01*
X131747209Y-111900129D01*
X131844115Y-111960026D01*
X131911077Y-112008360D01*
X131929095Y-112027155D01*
X131970045Y-112043669D01*
X132060844Y-112052842D01*
X132179170Y-112054930D01*
X132302698Y-112050187D01*
X132409105Y-112038866D01*
X132476069Y-112021222D01*
X132476651Y-112020915D01*
X132518582Y-111974889D01*
X132547602Y-111881280D01*
X132565625Y-111752335D01*
X132590252Y-111575089D01*
X132622797Y-111431111D01*
X132659537Y-111333144D01*
X132696753Y-111293932D01*
X132699553Y-111293714D01*
X132718115Y-111267739D01*
X132713706Y-111248254D01*
X132719788Y-111187743D01*
X132758032Y-111081472D01*
X132820860Y-110944402D01*
X132900691Y-110791493D01*
X132989946Y-110637707D01*
X133081043Y-110498005D01*
X133122696Y-110441000D01*
X133456671Y-110054193D01*
X133847913Y-109687540D01*
X134281392Y-109354923D01*
X134348143Y-109309483D01*
X134475354Y-109230921D01*
X134654958Y-109129090D01*
X134873346Y-109010896D01*
X135116909Y-108883242D01*
X135372037Y-108753034D01*
X135625122Y-108627177D01*
X135862555Y-108512575D01*
X136070728Y-108416133D01*
X136236030Y-108344756D01*
X136293977Y-108322222D01*
X136389240Y-108287235D01*
X136353063Y-108429761D01*
X136321980Y-108519052D01*
X136288355Y-108568676D01*
X136278967Y-108572286D01*
X136259251Y-108588257D01*
X136265145Y-108596384D01*
X136258149Y-108635482D01*
X136222134Y-108724142D01*
X136164035Y-108848886D01*
X136090787Y-108996237D01*
X136009325Y-109152717D01*
X135926584Y-109304850D01*
X135849499Y-109439158D01*
X135785006Y-109542162D01*
X135761299Y-109575555D01*
X135707616Y-109668079D01*
X135715112Y-109726068D01*
X135785290Y-109750849D01*
X135919651Y-109743749D01*
X135947075Y-109739764D01*
X136063959Y-109728386D01*
X136226071Y-109721250D01*
X136406144Y-109719327D01*
X136489000Y-109720494D01*
X136657621Y-109724294D01*
X136810778Y-109727536D01*
X136926043Y-109729755D01*
X136964913Y-109730368D01*
X137088304Y-109743103D01*
X137259074Y-109775478D01*
X137456407Y-109822300D01*
X137659492Y-109878377D01*
X137847514Y-109938518D01*
X137946625Y-109975263D01*
X138178042Y-110074734D01*
X138434150Y-110197013D01*
X138697087Y-110332518D01*
X138948993Y-110471667D01*
X139172006Y-110604877D01*
X139348265Y-110722566D01*
X139371145Y-110739474D01*
X139529620Y-110865364D01*
X139705687Y-111015410D01*
X139866590Y-111161502D01*
X139898467Y-111192033D01*
X140013943Y-111306150D01*
X140074235Y-111374580D01*
X140077306Y-111401050D01*
X140021118Y-111389290D01*
X139903634Y-111343028D01*
X139832435Y-111312890D01*
X139741593Y-111280273D01*
X139681634Y-111270069D01*
X139672488Y-111273131D01*
X139632190Y-111270803D01*
X139603838Y-111252671D01*
X139563193Y-111231127D01*
X139555143Y-111239286D01*
X139532701Y-111242190D01*
X139498637Y-111219419D01*
X139431285Y-111192169D01*
X139317983Y-111171047D01*
X139185260Y-111158521D01*
X139059647Y-111157061D01*
X138967671Y-111169136D01*
X138965500Y-111169799D01*
X138911792Y-111204351D01*
X138902000Y-111227515D01*
X138922562Y-111267026D01*
X138976125Y-111346870D01*
X139050505Y-111450591D01*
X139133520Y-111561735D01*
X139212985Y-111663846D01*
X139276716Y-111740468D01*
X139300275Y-111765429D01*
X139373609Y-111854762D01*
X139466646Y-111997098D01*
X139571608Y-112178272D01*
X139680717Y-112384121D01*
X139786197Y-112600478D01*
X139880268Y-112813181D01*
X139894215Y-112847093D01*
X139961543Y-113034009D01*
X140029953Y-113260837D01*
X140095335Y-113509654D01*
X140153576Y-113762541D01*
X140200563Y-114001574D01*
X140232184Y-114208832D01*
X140244326Y-114366395D01*
X140244348Y-114372937D01*
X140244124Y-114505000D01*
X140187407Y-114396224D01*
X140133644Y-114303269D01*
X140084288Y-114232938D01*
X140032081Y-114152475D01*
X140015368Y-114114929D01*
X139977019Y-114061308D01*
X139951357Y-114051429D01*
X139908736Y-114027562D01*
X139828609Y-113963503D01*
X139724599Y-113870559D01*
X139663057Y-113812105D01*
X139546042Y-113700754D01*
X139440569Y-113604141D01*
X139362855Y-113536967D01*
X139340552Y-113519761D01*
X139282557Y-113460856D01*
X139264857Y-113415832D01*
X139233501Y-113377976D01*
X139155357Y-113372532D01*
X139045857Y-113380143D01*
X139050815Y-113657146D01*
X139037845Y-113895837D01*
X138993834Y-114119752D01*
X138923968Y-114308033D01*
X138865088Y-114404104D01*
X138830622Y-114444594D01*
X138807910Y-114448504D01*
X138789227Y-114405392D01*
X138766845Y-114304820D01*
X138757673Y-114258961D01*
X138716599Y-114108389D01*
X138652837Y-113934004D01*
X138583294Y-113779999D01*
X138467583Y-113578171D01*
X138355667Y-113428569D01*
X138252180Y-113333814D01*
X138161759Y-113296526D01*
X138089039Y-113319327D01*
X138038657Y-113404839D01*
X138024573Y-113464097D01*
X137985840Y-113611044D01*
X137917748Y-113795314D01*
X137830746Y-113993551D01*
X137735282Y-114182398D01*
X137641804Y-114338498D01*
X137618691Y-114371414D01*
X137463736Y-114557914D01*
X137278579Y-114743011D01*
X137086278Y-114905259D01*
X136930771Y-115011334D01*
X136833008Y-115071968D01*
X136789716Y-115112281D01*
X136790876Y-115145232D01*
X136809744Y-115167867D01*
X136853208Y-115198756D01*
X136902044Y-115189828D01*
X136972289Y-115144677D01*
X137050151Y-115093823D01*
X137102036Y-115068173D01*
X137106668Y-115067429D01*
X137147547Y-115046019D01*
X137221754Y-114991718D01*
X137264352Y-114957177D01*
X137369899Y-114869691D01*
X137471795Y-114786470D01*
X137496381Y-114766677D01*
X137581485Y-114680693D01*
X137662391Y-114571936D01*
X137674591Y-114551833D01*
X137726861Y-114472926D01*
X137766664Y-114432723D01*
X137775811Y-114431605D01*
X137797820Y-114405917D01*
X137843135Y-114328221D01*
X137904767Y-114212457D01*
X137975730Y-114072564D01*
X138049037Y-113922484D01*
X138117701Y-113776154D01*
X138174735Y-113647514D01*
X138200872Y-113583578D01*
X138221608Y-113539271D01*
X138244320Y-113532951D01*
X138280612Y-113572112D01*
X138342092Y-113664248D01*
X138353645Y-113682231D01*
X138521758Y-114004776D01*
X138618248Y-114337188D01*
X138637071Y-114475163D01*
X138651854Y-114597006D01*
X138669101Y-114686529D01*
X138683728Y-114722370D01*
X138736830Y-114715382D01*
X138815650Y-114656040D01*
X138908993Y-114554473D01*
X138988787Y-114446385D01*
X139110263Y-114266003D01*
X139132921Y-114675787D01*
X139145124Y-114896905D01*
X139159091Y-115150613D01*
X139172627Y-115397041D01*
X139178879Y-115511103D01*
X139186942Y-115767043D01*
X139177214Y-115966920D01*
X139146296Y-116125799D01*
X139090786Y-116258749D01*
X139007284Y-116380837D01*
X138973578Y-116420659D01*
X138792594Y-116584537D01*
X138561492Y-116718354D01*
X138271122Y-116827205D01*
X138212453Y-116844371D01*
X137956255Y-116897752D01*
X137645599Y-116931853D01*
X137295896Y-116947019D01*
X136922556Y-116943598D01*
X136540989Y-116921934D01*
X136166603Y-116882377D01*
X135814810Y-116825270D01*
X135636285Y-116786447D01*
X135402614Y-116725788D01*
X135153315Y-116653638D01*
X134905796Y-116575692D01*
X134677460Y-116497646D01*
X134485712Y-116425193D01*
X134352739Y-116366454D01*
X134225580Y-116307956D01*
X134146037Y-116286365D01*
X134101312Y-116298373D01*
X134098739Y-116300804D01*
X134081672Y-116345961D01*
X134121357Y-116389229D01*
X134172545Y-116440876D01*
X134184857Y-116469871D01*
X134217277Y-116496242D01*
X134305048Y-116538136D01*
X134433935Y-116590472D01*
X134589703Y-116648171D01*
X134758118Y-116706150D01*
X134924946Y-116759330D01*
X135075951Y-116802630D01*
X135196172Y-116830831D01*
X135259896Y-116844130D01*
X135363176Y-116866749D01*
X135413886Y-116878083D01*
X135570879Y-116911750D01*
X135746909Y-116946970D01*
X135916644Y-116978908D01*
X136054753Y-117002726D01*
X136108000Y-117010606D01*
X136186856Y-117020946D01*
X136312873Y-117037494D01*
X136461257Y-117056994D01*
X136489000Y-117060642D01*
X136598253Y-117070957D01*
X136746978Y-117079553D01*
X136919691Y-117086176D01*
X137100913Y-117090576D01*
X137275160Y-117092500D01*
X137426952Y-117091698D01*
X137540807Y-117087917D01*
X137601244Y-117080906D01*
X137605979Y-117078796D01*
X137643197Y-117073194D01*
X137734431Y-117063993D01*
X137861329Y-117053011D01*
X137886000Y-117051029D01*
X138059904Y-117030681D01*
X138230812Y-116999469D01*
X138381754Y-116961694D01*
X138495760Y-116921656D01*
X138555860Y-116883655D01*
X138557868Y-116880772D01*
X138609152Y-116849690D01*
X138640756Y-116845429D01*
X138713683Y-116822462D01*
X138817541Y-116763537D01*
X138931551Y-116683615D01*
X139034937Y-116597659D01*
X139106921Y-116520630D01*
X139119880Y-116500404D01*
X139168757Y-116434378D01*
X139210752Y-116410000D01*
X139239966Y-116391538D01*
X139272270Y-116329843D01*
X139311552Y-116215456D01*
X139358622Y-116050304D01*
X139379720Y-115992729D01*
X139401969Y-116000053D01*
X139415628Y-116022202D01*
X139436735Y-116093784D01*
X139450252Y-116203013D01*
X139452232Y-116247743D01*
X139458338Y-116349452D01*
X139476858Y-116395914D01*
X139516232Y-116404344D01*
X139528269Y-116402844D01*
X139578508Y-116373421D01*
X139630895Y-116294016D01*
X139691818Y-116154666D01*
X139698518Y-116137332D01*
X139745630Y-116004074D01*
X139774134Y-115887973D01*
X139787920Y-115762756D01*
X139790879Y-115602150D01*
X139790460Y-115568053D01*
X139646005Y-115568053D01*
X139624543Y-115844897D01*
X139610408Y-115936684D01*
X139582526Y-116098367D01*
X139509417Y-115954827D01*
X139458036Y-115862714D01*
X139415434Y-115801114D01*
X139404609Y-115790753D01*
X139390179Y-115748084D01*
X139376171Y-115648999D01*
X139364453Y-115509639D01*
X139358414Y-115391610D01*
X139345249Y-115111943D01*
X139327970Y-114840762D01*
X139308015Y-114597055D01*
X139286825Y-114399810D01*
X139278856Y-114341714D01*
X139259913Y-114214714D01*
X139394529Y-114405214D01*
X139466965Y-114503242D01*
X139523824Y-114572010D01*
X139551215Y-114595740D01*
X139569630Y-114626925D01*
X139578518Y-114686454D01*
X139571390Y-114754500D01*
X139551304Y-114777143D01*
X139523277Y-114808097D01*
X139523888Y-114892550D01*
X139551849Y-115017885D01*
X139586509Y-115121857D01*
X139633159Y-115321310D01*
X139646005Y-115568053D01*
X139790460Y-115568053D01*
X139789874Y-115520475D01*
X139784574Y-115359346D01*
X139775356Y-115220941D01*
X139763735Y-115124437D01*
X139756246Y-115094643D01*
X139748629Y-115055665D01*
X139780142Y-115036845D01*
X139865753Y-115031276D01*
X139893833Y-115031143D01*
X139997664Y-115023740D01*
X140068045Y-115005049D01*
X140081461Y-114994573D01*
X140067394Y-114954707D01*
X140010843Y-114878323D01*
X139922188Y-114778625D01*
X139868292Y-114723390D01*
X139662818Y-114503584D01*
X139510720Y-114303302D01*
X139401461Y-114107692D01*
X139359171Y-114005840D01*
X139317083Y-113912003D01*
X139278844Y-113858667D01*
X139261767Y-113853767D01*
X139235119Y-113848086D01*
X139236466Y-113791308D01*
X139262675Y-113706714D01*
X139279992Y-113680641D01*
X139308529Y-113680337D01*
X139357342Y-113712136D01*
X139435486Y-113782375D01*
X139552017Y-113897389D01*
X139590068Y-113935760D01*
X139739429Y-114092885D01*
X139850271Y-114227807D01*
X139939914Y-114364679D01*
X140025674Y-114527655D01*
X140048372Y-114574958D01*
X140115537Y-114721902D01*
X140168806Y-114848256D01*
X140201395Y-114937352D01*
X140208285Y-114967959D01*
X140238194Y-115026087D01*
X140304163Y-115055243D01*
X140361600Y-115044235D01*
X140378094Y-114997428D01*
X140385874Y-114891970D01*
X140385734Y-114741157D01*
X140378469Y-114558286D01*
X140364872Y-114356650D01*
X140345740Y-114149546D01*
X140321866Y-113950269D01*
X140294045Y-113772114D01*
X140281794Y-113708801D01*
X140115421Y-113085123D01*
X139880261Y-112483455D01*
X139577455Y-111906397D01*
X139311958Y-111498803D01*
X139247664Y-111403668D01*
X139207211Y-111335138D01*
X139199224Y-111310967D01*
X139239196Y-111314571D01*
X139331664Y-111339258D01*
X139461487Y-111379805D01*
X139613525Y-111430992D01*
X139772637Y-111487597D01*
X139923681Y-111544398D01*
X140051518Y-111596174D01*
X140129624Y-111631829D01*
X140286486Y-111701025D01*
X140392223Y-111726919D01*
X140450334Y-111713986D01*
X140464317Y-111666703D01*
X140437675Y-111589544D01*
X140373903Y-111486985D01*
X140276502Y-111363503D01*
X140148972Y-111223573D01*
X139994811Y-111071671D01*
X139817518Y-110912273D01*
X139620594Y-110749854D01*
X139407537Y-110588890D01*
X139204788Y-110448903D01*
X139082240Y-110370991D01*
X138980544Y-110311638D01*
X138916254Y-110280309D01*
X138905430Y-110277714D01*
X138867491Y-110250629D01*
X138865714Y-110239287D01*
X138843910Y-110216727D01*
X138832354Y-110221478D01*
X138782539Y-110216817D01*
X138750711Y-110193813D01*
X138691739Y-110150002D01*
X138666143Y-110140471D01*
X138596287Y-110119610D01*
X138506454Y-110079935D01*
X138421521Y-110034235D01*
X138366367Y-109995299D01*
X138357714Y-109981918D01*
X138328330Y-109954419D01*
X138304517Y-109951143D01*
X138235179Y-109935895D01*
X138124322Y-109896036D01*
X137994832Y-109840389D01*
X137909102Y-109798695D01*
X137821733Y-109763341D01*
X137779728Y-109752069D01*
X137713586Y-109737663D01*
X137602341Y-109711887D01*
X137484482Y-109683784D01*
X137159356Y-109613957D01*
X136893084Y-109576132D01*
X136680813Y-109569427D01*
X136585390Y-109568208D01*
X136532538Y-109556558D01*
X136528628Y-109546591D01*
X136510827Y-109529095D01*
X136445378Y-109521601D01*
X136356400Y-109523341D01*
X136268013Y-109533545D01*
X136204337Y-109551444D01*
X136194837Y-109557238D01*
X136137951Y-109575133D01*
X136063167Y-109571203D01*
X135995729Y-109551468D01*
X135960878Y-109521948D01*
X135965655Y-109502580D01*
X136119687Y-109307946D01*
X136235940Y-109133929D01*
X136329790Y-108953314D01*
X136416610Y-108738887D01*
X136450356Y-108644599D01*
X136515066Y-108429472D01*
X136538166Y-108270890D01*
X136519330Y-108165715D01*
X136458230Y-108110804D01*
X136393594Y-108100572D01*
X136341662Y-108116374D01*
X136341662Y-108116374D01*
G37*
X136341662Y-108116374D02*
X136237314Y-108160146D01*
X136092548Y-108226433D01*
X135919363Y-108309781D01*
X135774922Y-108381786D01*
X135572358Y-108483452D01*
X135374268Y-108581444D01*
X135197337Y-108667610D01*
X135058250Y-108733794D01*
X134999598Y-108760659D01*
X134816803Y-108853890D01*
X134597108Y-108984530D01*
X134357184Y-109141029D01*
X134113701Y-109311839D01*
X133883331Y-109485412D01*
X133682745Y-109650199D01*
X133577952Y-109745475D01*
X133255795Y-110075101D01*
X132994804Y-110389899D01*
X132788377Y-110701012D01*
X132629918Y-111019587D01*
X132512825Y-111356770D01*
X132441022Y-111665643D01*
X132401712Y-111874286D01*
X132213784Y-111873000D01*
X132058994Y-111859899D01*
X131935835Y-111816164D01*
X131830813Y-111731549D01*
X131730437Y-111595813D01*
X131641965Y-111438857D01*
X131592876Y-111325910D01*
X131566055Y-111205422D01*
X131555927Y-111048994D01*
X131555334Y-110997457D01*
X131557321Y-110850101D01*
X131569510Y-110748932D01*
X131598941Y-110667633D01*
X131652654Y-110579889D01*
X131676024Y-110546289D01*
X131742733Y-110448067D01*
X131770773Y-110390114D01*
X131764752Y-110354442D01*
X131732588Y-110325475D01*
X131655677Y-110286144D01*
X131573749Y-110287912D01*
X131468836Y-110334063D01*
X131378705Y-110390143D01*
X131154270Y-110573983D01*
X130974435Y-110792556D01*
X130840736Y-111035717D01*
X130754707Y-111293321D01*
X130717884Y-111555223D01*
X130731802Y-111811277D01*
X130797996Y-112051339D01*
X130918002Y-112265263D01*
X131070792Y-112425032D01*
X131255752Y-112563189D01*
X131418072Y-112650489D01*
X131578090Y-112694547D01*
X131756148Y-112702982D01*
X131806096Y-112700402D01*
X132054677Y-112663458D01*
X132248692Y-112587109D01*
X132396996Y-112467227D01*
X132449496Y-112400429D01*
X132527074Y-112265659D01*
X132549823Y-112169003D01*
X132518505Y-112114092D01*
X132433882Y-112104559D01*
X132389274Y-112113245D01*
X132321874Y-112145259D01*
X132315606Y-112199100D01*
X132316321Y-112201420D01*
X132304965Y-112269713D01*
X132248583Y-112358253D01*
X132162931Y-112447638D01*
X132063765Y-112518466D01*
X132055119Y-112523060D01*
X131905111Y-112565886D01*
X131721716Y-112567088D01*
X131528919Y-112529486D01*
X131350701Y-112455899D01*
X131317712Y-112436352D01*
X131118488Y-112272115D01*
X130977475Y-112073708D01*
X130894497Y-111850062D01*
X130869381Y-111610112D01*
X130901953Y-111362789D01*
X130992038Y-111117026D01*
X131139462Y-110881757D01*
X131344051Y-110665914D01*
X131352369Y-110658714D01*
X131436787Y-110586143D01*
X131407916Y-110676857D01*
X131388520Y-110791399D01*
X131382603Y-110951068D01*
X131389011Y-111129911D01*
X131406590Y-111301975D01*
X131434183Y-111441307D01*
X131443197Y-111469935D01*
X131473019Y-111570202D01*
X131483868Y-111641585D01*
X131480991Y-111657510D01*
X131490736Y-111708049D01*
X131565328Y-111780868D01*
X131701558Y-111873045D01*
X131747209Y-111900129D01*
X131844115Y-111960026D01*
X131911077Y-112008360D01*
X131929095Y-112027155D01*
X131970045Y-112043669D01*
X132060844Y-112052842D01*
X132179170Y-112054930D01*
X132302698Y-112050187D01*
X132409105Y-112038866D01*
X132476069Y-112021222D01*
X132476651Y-112020915D01*
X132518582Y-111974889D01*
X132547602Y-111881280D01*
X132565625Y-111752335D01*
X132590252Y-111575089D01*
X132622797Y-111431111D01*
X132659537Y-111333144D01*
X132696753Y-111293932D01*
X132699553Y-111293714D01*
X132718115Y-111267739D01*
X132713706Y-111248254D01*
X132719788Y-111187743D01*
X132758032Y-111081472D01*
X132820860Y-110944402D01*
X132900691Y-110791493D01*
X132989946Y-110637707D01*
X133081043Y-110498005D01*
X133122696Y-110441000D01*
X133456671Y-110054193D01*
X133847913Y-109687540D01*
X134281392Y-109354923D01*
X134348143Y-109309483D01*
X134475354Y-109230921D01*
X134654958Y-109129090D01*
X134873346Y-109010896D01*
X135116909Y-108883242D01*
X135372037Y-108753034D01*
X135625122Y-108627177D01*
X135862555Y-108512575D01*
X136070728Y-108416133D01*
X136236030Y-108344756D01*
X136293977Y-108322222D01*
X136389240Y-108287235D01*
X136353063Y-108429761D01*
X136321980Y-108519052D01*
X136288355Y-108568676D01*
X136278967Y-108572286D01*
X136259251Y-108588257D01*
X136265145Y-108596384D01*
X136258149Y-108635482D01*
X136222134Y-108724142D01*
X136164035Y-108848886D01*
X136090787Y-108996237D01*
X136009325Y-109152717D01*
X135926584Y-109304850D01*
X135849499Y-109439158D01*
X135785006Y-109542162D01*
X135761299Y-109575555D01*
X135707616Y-109668079D01*
X135715112Y-109726068D01*
X135785290Y-109750849D01*
X135919651Y-109743749D01*
X135947075Y-109739764D01*
X136063959Y-109728386D01*
X136226071Y-109721250D01*
X136406144Y-109719327D01*
X136489000Y-109720494D01*
X136657621Y-109724294D01*
X136810778Y-109727536D01*
X136926043Y-109729755D01*
X136964913Y-109730368D01*
X137088304Y-109743103D01*
X137259074Y-109775478D01*
X137456407Y-109822300D01*
X137659492Y-109878377D01*
X137847514Y-109938518D01*
X137946625Y-109975263D01*
X138178042Y-110074734D01*
X138434150Y-110197013D01*
X138697087Y-110332518D01*
X138948993Y-110471667D01*
X139172006Y-110604877D01*
X139348265Y-110722566D01*
X139371145Y-110739474D01*
X139529620Y-110865364D01*
X139705687Y-111015410D01*
X139866590Y-111161502D01*
X139898467Y-111192033D01*
X140013943Y-111306150D01*
X140074235Y-111374580D01*
X140077306Y-111401050D01*
X140021118Y-111389290D01*
X139903634Y-111343028D01*
X139832435Y-111312890D01*
X139741593Y-111280273D01*
X139681634Y-111270069D01*
X139672488Y-111273131D01*
X139632190Y-111270803D01*
X139603838Y-111252671D01*
X139563193Y-111231127D01*
X139555143Y-111239286D01*
X139532701Y-111242190D01*
X139498637Y-111219419D01*
X139431285Y-111192169D01*
X139317983Y-111171047D01*
X139185260Y-111158521D01*
X139059647Y-111157061D01*
X138967671Y-111169136D01*
X138965500Y-111169799D01*
X138911792Y-111204351D01*
X138902000Y-111227515D01*
X138922562Y-111267026D01*
X138976125Y-111346870D01*
X139050505Y-111450591D01*
X139133520Y-111561735D01*
X139212985Y-111663846D01*
X139276716Y-111740468D01*
X139300275Y-111765429D01*
X139373609Y-111854762D01*
X139466646Y-111997098D01*
X139571608Y-112178272D01*
X139680717Y-112384121D01*
X139786197Y-112600478D01*
X139880268Y-112813181D01*
X139894215Y-112847093D01*
X139961543Y-113034009D01*
X140029953Y-113260837D01*
X140095335Y-113509654D01*
X140153576Y-113762541D01*
X140200563Y-114001574D01*
X140232184Y-114208832D01*
X140244326Y-114366395D01*
X140244348Y-114372937D01*
X140244124Y-114505000D01*
X140187407Y-114396224D01*
X140133644Y-114303269D01*
X140084288Y-114232938D01*
X140032081Y-114152475D01*
X140015368Y-114114929D01*
X139977019Y-114061308D01*
X139951357Y-114051429D01*
X139908736Y-114027562D01*
X139828609Y-113963503D01*
X139724599Y-113870559D01*
X139663057Y-113812105D01*
X139546042Y-113700754D01*
X139440569Y-113604141D01*
X139362855Y-113536967D01*
X139340552Y-113519761D01*
X139282557Y-113460856D01*
X139264857Y-113415832D01*
X139233501Y-113377976D01*
X139155357Y-113372532D01*
X139045857Y-113380143D01*
X139050815Y-113657146D01*
X139037845Y-113895837D01*
X138993834Y-114119752D01*
X138923968Y-114308033D01*
X138865088Y-114404104D01*
X138830622Y-114444594D01*
X138807910Y-114448504D01*
X138789227Y-114405392D01*
X138766845Y-114304820D01*
X138757673Y-114258961D01*
X138716599Y-114108389D01*
X138652837Y-113934004D01*
X138583294Y-113779999D01*
X138467583Y-113578171D01*
X138355667Y-113428569D01*
X138252180Y-113333814D01*
X138161759Y-113296526D01*
X138089039Y-113319327D01*
X138038657Y-113404839D01*
X138024573Y-113464097D01*
X137985840Y-113611044D01*
X137917748Y-113795314D01*
X137830746Y-113993551D01*
X137735282Y-114182398D01*
X137641804Y-114338498D01*
X137618691Y-114371414D01*
X137463736Y-114557914D01*
X137278579Y-114743011D01*
X137086278Y-114905259D01*
X136930771Y-115011334D01*
X136833008Y-115071968D01*
X136789716Y-115112281D01*
X136790876Y-115145232D01*
X136809744Y-115167867D01*
X136853208Y-115198756D01*
X136902044Y-115189828D01*
X136972289Y-115144677D01*
X137050151Y-115093823D01*
X137102036Y-115068173D01*
X137106668Y-115067429D01*
X137147547Y-115046019D01*
X137221754Y-114991718D01*
X137264352Y-114957177D01*
X137369899Y-114869691D01*
X137471795Y-114786470D01*
X137496381Y-114766677D01*
X137581485Y-114680693D01*
X137662391Y-114571936D01*
X137674591Y-114551833D01*
X137726861Y-114472926D01*
X137766664Y-114432723D01*
X137775811Y-114431605D01*
X137797820Y-114405917D01*
X137843135Y-114328221D01*
X137904767Y-114212457D01*
X137975730Y-114072564D01*
X138049037Y-113922484D01*
X138117701Y-113776154D01*
X138174735Y-113647514D01*
X138200872Y-113583578D01*
X138221608Y-113539271D01*
X138244320Y-113532951D01*
X138280612Y-113572112D01*
X138342092Y-113664248D01*
X138353645Y-113682231D01*
X138521758Y-114004776D01*
X138618248Y-114337188D01*
X138637071Y-114475163D01*
X138651854Y-114597006D01*
X138669101Y-114686529D01*
X138683728Y-114722370D01*
X138736830Y-114715382D01*
X138815650Y-114656040D01*
X138908993Y-114554473D01*
X138988787Y-114446385D01*
X139110263Y-114266003D01*
X139132921Y-114675787D01*
X139145124Y-114896905D01*
X139159091Y-115150613D01*
X139172627Y-115397041D01*
X139178879Y-115511103D01*
X139186942Y-115767043D01*
X139177214Y-115966920D01*
X139146296Y-116125799D01*
X139090786Y-116258749D01*
X139007284Y-116380837D01*
X138973578Y-116420659D01*
X138792594Y-116584537D01*
X138561492Y-116718354D01*
X138271122Y-116827205D01*
X138212453Y-116844371D01*
X137956255Y-116897752D01*
X137645599Y-116931853D01*
X137295896Y-116947019D01*
X136922556Y-116943598D01*
X136540989Y-116921934D01*
X136166603Y-116882377D01*
X135814810Y-116825270D01*
X135636285Y-116786447D01*
X135402614Y-116725788D01*
X135153315Y-116653638D01*
X134905796Y-116575692D01*
X134677460Y-116497646D01*
X134485712Y-116425193D01*
X134352739Y-116366454D01*
X134225580Y-116307956D01*
X134146037Y-116286365D01*
X134101312Y-116298373D01*
X134098739Y-116300804D01*
X134081672Y-116345961D01*
X134121357Y-116389229D01*
X134172545Y-116440876D01*
X134184857Y-116469871D01*
X134217277Y-116496242D01*
X134305048Y-116538136D01*
X134433935Y-116590472D01*
X134589703Y-116648171D01*
X134758118Y-116706150D01*
X134924946Y-116759330D01*
X135075951Y-116802630D01*
X135196172Y-116830831D01*
X135259896Y-116844130D01*
X135363176Y-116866749D01*
X135413886Y-116878083D01*
X135570879Y-116911750D01*
X135746909Y-116946970D01*
X135916644Y-116978908D01*
X136054753Y-117002726D01*
X136108000Y-117010606D01*
X136186856Y-117020946D01*
X136312873Y-117037494D01*
X136461257Y-117056994D01*
X136489000Y-117060642D01*
X136598253Y-117070957D01*
X136746978Y-117079553D01*
X136919691Y-117086176D01*
X137100913Y-117090576D01*
X137275160Y-117092500D01*
X137426952Y-117091698D01*
X137540807Y-117087917D01*
X137601244Y-117080906D01*
X137605979Y-117078796D01*
X137643197Y-117073194D01*
X137734431Y-117063993D01*
X137861329Y-117053011D01*
X137886000Y-117051029D01*
X138059904Y-117030681D01*
X138230812Y-116999469D01*
X138381754Y-116961694D01*
X138495760Y-116921656D01*
X138555860Y-116883655D01*
X138557868Y-116880772D01*
X138609152Y-116849690D01*
X138640756Y-116845429D01*
X138713683Y-116822462D01*
X138817541Y-116763537D01*
X138931551Y-116683615D01*
X139034937Y-116597659D01*
X139106921Y-116520630D01*
X139119880Y-116500404D01*
X139168757Y-116434378D01*
X139210752Y-116410000D01*
X139239966Y-116391538D01*
X139272270Y-116329843D01*
X139311552Y-116215456D01*
X139358622Y-116050304D01*
X139379720Y-115992729D01*
X139401969Y-116000053D01*
X139415628Y-116022202D01*
X139436735Y-116093784D01*
X139450252Y-116203013D01*
X139452232Y-116247743D01*
X139458338Y-116349452D01*
X139476858Y-116395914D01*
X139516232Y-116404344D01*
X139528269Y-116402844D01*
X139578508Y-116373421D01*
X139630895Y-116294016D01*
X139691818Y-116154666D01*
X139698518Y-116137332D01*
X139745630Y-116004074D01*
X139774134Y-115887973D01*
X139787920Y-115762756D01*
X139790879Y-115602150D01*
X139790460Y-115568053D01*
X139646005Y-115568053D01*
X139624543Y-115844897D01*
X139610408Y-115936684D01*
X139582526Y-116098367D01*
X139509417Y-115954827D01*
X139458036Y-115862714D01*
X139415434Y-115801114D01*
X139404609Y-115790753D01*
X139390179Y-115748084D01*
X139376171Y-115648999D01*
X139364453Y-115509639D01*
X139358414Y-115391610D01*
X139345249Y-115111943D01*
X139327970Y-114840762D01*
X139308015Y-114597055D01*
X139286825Y-114399810D01*
X139278856Y-114341714D01*
X139259913Y-114214714D01*
X139394529Y-114405214D01*
X139466965Y-114503242D01*
X139523824Y-114572010D01*
X139551215Y-114595740D01*
X139569630Y-114626925D01*
X139578518Y-114686454D01*
X139571390Y-114754500D01*
X139551304Y-114777143D01*
X139523277Y-114808097D01*
X139523888Y-114892550D01*
X139551849Y-115017885D01*
X139586509Y-115121857D01*
X139633159Y-115321310D01*
X139646005Y-115568053D01*
X139790460Y-115568053D01*
X139789874Y-115520475D01*
X139784574Y-115359346D01*
X139775356Y-115220941D01*
X139763735Y-115124437D01*
X139756246Y-115094643D01*
X139748629Y-115055665D01*
X139780142Y-115036845D01*
X139865753Y-115031276D01*
X139893833Y-115031143D01*
X139997664Y-115023740D01*
X140068045Y-115005049D01*
X140081461Y-114994573D01*
X140067394Y-114954707D01*
X140010843Y-114878323D01*
X139922188Y-114778625D01*
X139868292Y-114723390D01*
X139662818Y-114503584D01*
X139510720Y-114303302D01*
X139401461Y-114107692D01*
X139359171Y-114005840D01*
X139317083Y-113912003D01*
X139278844Y-113858667D01*
X139261767Y-113853767D01*
X139235119Y-113848086D01*
X139236466Y-113791308D01*
X139262675Y-113706714D01*
X139279992Y-113680641D01*
X139308529Y-113680337D01*
X139357342Y-113712136D01*
X139435486Y-113782375D01*
X139552017Y-113897389D01*
X139590068Y-113935760D01*
X139739429Y-114092885D01*
X139850271Y-114227807D01*
X139939914Y-114364679D01*
X140025674Y-114527655D01*
X140048372Y-114574958D01*
X140115537Y-114721902D01*
X140168806Y-114848256D01*
X140201395Y-114937352D01*
X140208285Y-114967959D01*
X140238194Y-115026087D01*
X140304163Y-115055243D01*
X140361600Y-115044235D01*
X140378094Y-114997428D01*
X140385874Y-114891970D01*
X140385734Y-114741157D01*
X140378469Y-114558286D01*
X140364872Y-114356650D01*
X140345740Y-114149546D01*
X140321866Y-113950269D01*
X140294045Y-113772114D01*
X140281794Y-113708801D01*
X140115421Y-113085123D01*
X139880261Y-112483455D01*
X139577455Y-111906397D01*
X139311958Y-111498803D01*
X139247664Y-111403668D01*
X139207211Y-111335138D01*
X139199224Y-111310967D01*
X139239196Y-111314571D01*
X139331664Y-111339258D01*
X139461487Y-111379805D01*
X139613525Y-111430992D01*
X139772637Y-111487597D01*
X139923681Y-111544398D01*
X140051518Y-111596174D01*
X140129624Y-111631829D01*
X140286486Y-111701025D01*
X140392223Y-111726919D01*
X140450334Y-111713986D01*
X140464317Y-111666703D01*
X140437675Y-111589544D01*
X140373903Y-111486985D01*
X140276502Y-111363503D01*
X140148972Y-111223573D01*
X139994811Y-111071671D01*
X139817518Y-110912273D01*
X139620594Y-110749854D01*
X139407537Y-110588890D01*
X139204788Y-110448903D01*
X139082240Y-110370991D01*
X138980544Y-110311638D01*
X138916254Y-110280309D01*
X138905430Y-110277714D01*
X138867491Y-110250629D01*
X138865714Y-110239287D01*
X138843910Y-110216727D01*
X138832354Y-110221478D01*
X138782539Y-110216817D01*
X138750711Y-110193813D01*
X138691739Y-110150002D01*
X138666143Y-110140471D01*
X138596287Y-110119610D01*
X138506454Y-110079935D01*
X138421521Y-110034235D01*
X138366367Y-109995299D01*
X138357714Y-109981918D01*
X138328330Y-109954419D01*
X138304517Y-109951143D01*
X138235179Y-109935895D01*
X138124322Y-109896036D01*
X137994832Y-109840389D01*
X137909102Y-109798695D01*
X137821733Y-109763341D01*
X137779728Y-109752069D01*
X137713586Y-109737663D01*
X137602341Y-109711887D01*
X137484482Y-109683784D01*
X137159356Y-109613957D01*
X136893084Y-109576132D01*
X136680813Y-109569427D01*
X136585390Y-109568208D01*
X136532538Y-109556558D01*
X136528628Y-109546591D01*
X136510827Y-109529095D01*
X136445378Y-109521601D01*
X136356400Y-109523341D01*
X136268013Y-109533545D01*
X136204337Y-109551444D01*
X136194837Y-109557238D01*
X136137951Y-109575133D01*
X136063167Y-109571203D01*
X135995729Y-109551468D01*
X135960878Y-109521948D01*
X135965655Y-109502580D01*
X136119687Y-109307946D01*
X136235940Y-109133929D01*
X136329790Y-108953314D01*
X136416610Y-108738887D01*
X136450356Y-108644599D01*
X136515066Y-108429472D01*
X136538166Y-108270890D01*
X136519330Y-108165715D01*
X136458230Y-108110804D01*
X136393594Y-108100572D01*
X136341662Y-108116374D01*
G36*
X132148564Y-112859325D02*
X132107561Y-112949798D01*
X132101893Y-112975291D01*
X132064541Y-113072071D01*
X131986731Y-113206739D01*
X131878671Y-113365221D01*
X131750566Y-113533444D01*
X131612622Y-113697335D01*
X131475044Y-113842821D01*
X131467193Y-113850493D01*
X131375919Y-113942809D01*
X131309778Y-114016514D01*
X131282147Y-114056626D01*
X131282000Y-114057859D01*
X131309969Y-114094901D01*
X131349680Y-114121383D01*
X131424385Y-114129725D01*
X131539616Y-114109092D01*
X131672771Y-114066303D01*
X131801248Y-114008180D01*
X131875249Y-113962775D01*
X131969625Y-113894787D01*
X132032007Y-113849622D01*
X132076297Y-113820986D01*
X132102037Y-113825184D01*
X132117427Y-113874728D01*
X132130668Y-113982126D01*
X132132932Y-114003586D01*
X132178945Y-114380556D01*
X132233659Y-114697237D01*
X132301817Y-114965799D01*
X132388162Y-115198418D01*
X132497436Y-115407264D01*
X132634383Y-115604511D01*
X132803744Y-115802333D01*
X132854898Y-115856643D01*
X132937087Y-115939209D01*
X132998808Y-115995174D01*
X133022620Y-116010857D01*
X133055361Y-116034551D01*
X133128136Y-116098600D01*
X133229252Y-116192458D01*
X133317110Y-116276510D01*
X133475375Y-116422944D01*
X133658034Y-116581712D01*
X133833138Y-116725305D01*
X133885791Y-116766173D01*
X134020009Y-116866740D01*
X134109844Y-116927917D01*
X134167674Y-116955534D01*
X134205876Y-116955421D01*
X134236828Y-116933408D01*
X134238120Y-116932125D01*
X134276683Y-116856329D01*
X134256938Y-116758737D01*
X134177047Y-116632731D01*
X134143628Y-116591429D01*
X134057078Y-116481482D01*
X133976875Y-116368989D01*
X133962211Y-116346500D01*
X133889468Y-116263463D01*
X133817232Y-116230819D01*
X133760929Y-116252371D01*
X133741423Y-116292071D01*
X133737794Y-116387901D01*
X133781966Y-116440167D01*
X133816295Y-116446286D01*
X133871485Y-116470163D01*
X133925313Y-116524611D01*
X133957262Y-116583851D01*
X133952831Y-116617836D01*
X133912348Y-116610246D01*
X133834632Y-116555687D01*
X133728362Y-116463390D01*
X133602220Y-116342585D01*
X133464885Y-116202505D01*
X133325037Y-116052379D01*
X133191359Y-115901439D01*
X133072530Y-115758917D01*
X132977230Y-115634042D01*
X132914140Y-115536047D01*
X132895047Y-115492969D01*
X132867112Y-115419553D01*
X132817646Y-115306400D01*
X132760528Y-115184643D01*
X132708701Y-115068962D01*
X132676799Y-114979996D01*
X132671353Y-114936122D01*
X132671939Y-114935394D01*
X132672052Y-114896530D01*
X132629683Y-114853292D01*
X132570655Y-114825831D01*
X132532924Y-114826908D01*
X132486891Y-114877728D01*
X132487814Y-114962444D01*
X132529462Y-115050283D01*
X132563315Y-115107950D01*
X132610010Y-115198831D01*
X132662276Y-115307074D01*
X132712843Y-115416825D01*
X132754441Y-115512232D01*
X132779801Y-115577442D01*
X132781652Y-115596601D01*
X132778612Y-115593571D01*
X132691969Y-115483461D01*
X132617112Y-115372884D01*
X132566552Y-115281627D01*
X132552000Y-115235210D01*
X132534447Y-115170578D01*
X132490805Y-115077786D01*
X132475844Y-115051360D01*
X132434676Y-114972204D01*
X132421698Y-114926638D01*
X132425859Y-114922286D01*
X132430447Y-114900346D01*
X132415233Y-114876929D01*
X132376414Y-114792442D01*
X132342114Y-114645950D01*
X132313923Y-114447961D01*
X132293428Y-114208982D01*
X132284087Y-114009886D01*
X132276770Y-113839577D01*
X132266954Y-113694794D01*
X132255966Y-113591627D01*
X132245929Y-113547243D01*
X132188167Y-113508387D01*
X132114893Y-113524890D01*
X132048860Y-113590448D01*
X132041060Y-113603985D01*
X131991525Y-113669962D01*
X131914384Y-113746308D01*
X131827583Y-113818504D01*
X131749071Y-113872029D01*
X131696796Y-113892363D01*
X131688365Y-113889318D01*
X131700442Y-113854827D01*
X131749427Y-113782720D01*
X131812088Y-113703941D01*
X131911880Y-113581456D01*
X132011280Y-113453500D01*
X132057473Y-113391106D01*
X132131370Y-113272455D01*
X132196134Y-113140570D01*
X132244963Y-113013566D01*
X132271054Y-112909559D01*
X132267605Y-112846667D01*
X132263805Y-112841576D01*
X132204876Y-112819757D01*
X132148564Y-112859325D01*
X132148564Y-112859325D01*
G37*
X132148564Y-112859325D02*
X132107561Y-112949798D01*
X132101893Y-112975291D01*
X132064541Y-113072071D01*
X131986731Y-113206739D01*
X131878671Y-113365221D01*
X131750566Y-113533444D01*
X131612622Y-113697335D01*
X131475044Y-113842821D01*
X131467193Y-113850493D01*
X131375919Y-113942809D01*
X131309778Y-114016514D01*
X131282147Y-114056626D01*
X131282000Y-114057859D01*
X131309969Y-114094901D01*
X131349680Y-114121383D01*
X131424385Y-114129725D01*
X131539616Y-114109092D01*
X131672771Y-114066303D01*
X131801248Y-114008180D01*
X131875249Y-113962775D01*
X131969625Y-113894787D01*
X132032007Y-113849622D01*
X132076297Y-113820986D01*
X132102037Y-113825184D01*
X132117427Y-113874728D01*
X132130668Y-113982126D01*
X132132932Y-114003586D01*
X132178945Y-114380556D01*
X132233659Y-114697237D01*
X132301817Y-114965799D01*
X132388162Y-115198418D01*
X132497436Y-115407264D01*
X132634383Y-115604511D01*
X132803744Y-115802333D01*
X132854898Y-115856643D01*
X132937087Y-115939209D01*
X132998808Y-115995174D01*
X133022620Y-116010857D01*
X133055361Y-116034551D01*
X133128136Y-116098600D01*
X133229252Y-116192458D01*
X133317110Y-116276510D01*
X133475375Y-116422944D01*
X133658034Y-116581712D01*
X133833138Y-116725305D01*
X133885791Y-116766173D01*
X134020009Y-116866740D01*
X134109844Y-116927917D01*
X134167674Y-116955534D01*
X134205876Y-116955421D01*
X134236828Y-116933408D01*
X134238120Y-116932125D01*
X134276683Y-116856329D01*
X134256938Y-116758737D01*
X134177047Y-116632731D01*
X134143628Y-116591429D01*
X134057078Y-116481482D01*
X133976875Y-116368989D01*
X133962211Y-116346500D01*
X133889468Y-116263463D01*
X133817232Y-116230819D01*
X133760929Y-116252371D01*
X133741423Y-116292071D01*
X133737794Y-116387901D01*
X133781966Y-116440167D01*
X133816295Y-116446286D01*
X133871485Y-116470163D01*
X133925313Y-116524611D01*
X133957262Y-116583851D01*
X133952831Y-116617836D01*
X133912348Y-116610246D01*
X133834632Y-116555687D01*
X133728362Y-116463390D01*
X133602220Y-116342585D01*
X133464885Y-116202505D01*
X133325037Y-116052379D01*
X133191359Y-115901439D01*
X133072530Y-115758917D01*
X132977230Y-115634042D01*
X132914140Y-115536047D01*
X132895047Y-115492969D01*
X132867112Y-115419553D01*
X132817646Y-115306400D01*
X132760528Y-115184643D01*
X132708701Y-115068962D01*
X132676799Y-114979996D01*
X132671353Y-114936122D01*
X132671939Y-114935394D01*
X132672052Y-114896530D01*
X132629683Y-114853292D01*
X132570655Y-114825831D01*
X132532924Y-114826908D01*
X132486891Y-114877728D01*
X132487814Y-114962444D01*
X132529462Y-115050283D01*
X132563315Y-115107950D01*
X132610010Y-115198831D01*
X132662276Y-115307074D01*
X132712843Y-115416825D01*
X132754441Y-115512232D01*
X132779801Y-115577442D01*
X132781652Y-115596601D01*
X132778612Y-115593571D01*
X132691969Y-115483461D01*
X132617112Y-115372884D01*
X132566552Y-115281627D01*
X132552000Y-115235210D01*
X132534447Y-115170578D01*
X132490805Y-115077786D01*
X132475844Y-115051360D01*
X132434676Y-114972204D01*
X132421698Y-114926638D01*
X132425859Y-114922286D01*
X132430447Y-114900346D01*
X132415233Y-114876929D01*
X132376414Y-114792442D01*
X132342114Y-114645950D01*
X132313923Y-114447961D01*
X132293428Y-114208982D01*
X132284087Y-114009886D01*
X132276770Y-113839577D01*
X132266954Y-113694794D01*
X132255966Y-113591627D01*
X132245929Y-113547243D01*
X132188167Y-113508387D01*
X132114893Y-113524890D01*
X132048860Y-113590448D01*
X132041060Y-113603985D01*
X131991525Y-113669962D01*
X131914384Y-113746308D01*
X131827583Y-113818504D01*
X131749071Y-113872029D01*
X131696796Y-113892363D01*
X131688365Y-113889318D01*
X131700442Y-113854827D01*
X131749427Y-113782720D01*
X131812088Y-113703941D01*
X131911880Y-113581456D01*
X132011280Y-113453500D01*
X132057473Y-113391106D01*
X132131370Y-113272455D01*
X132196134Y-113140570D01*
X132244963Y-113013566D01*
X132271054Y-112909559D01*
X132267605Y-112846667D01*
X132263805Y-112841576D01*
X132204876Y-112819757D01*
X132148564Y-112859325D01*
G36*
X138147331Y-114692761D02*
X138107922Y-114739004D01*
X138097449Y-114820290D01*
X138102577Y-114891049D01*
X138116063Y-115088806D01*
X138120231Y-115325115D01*
X138115828Y-115578023D01*
X138103602Y-115825579D01*
X138084302Y-116045830D01*
X138058674Y-116216825D01*
X138057169Y-116224018D01*
X138040485Y-116332134D01*
X138050683Y-116391806D01*
X138072598Y-116413963D01*
X138145005Y-116444048D01*
X138189699Y-116417508D01*
X138192017Y-116413901D01*
X138213447Y-116344646D01*
X138232241Y-116218796D01*
X138248093Y-116049299D01*
X138260697Y-115849105D01*
X138269745Y-115631163D01*
X138274932Y-115408420D01*
X138275951Y-115193826D01*
X138272496Y-115000329D01*
X138264261Y-114840879D01*
X138250939Y-114728423D01*
X138233122Y-114676741D01*
X138187483Y-114674061D01*
X138147331Y-114692761D01*
X138147331Y-114692761D01*
G37*
X138147331Y-114692761D02*
X138107922Y-114739004D01*
X138097449Y-114820290D01*
X138102577Y-114891049D01*
X138116063Y-115088806D01*
X138120231Y-115325115D01*
X138115828Y-115578023D01*
X138103602Y-115825579D01*
X138084302Y-116045830D01*
X138058674Y-116216825D01*
X138057169Y-116224018D01*
X138040485Y-116332134D01*
X138050683Y-116391806D01*
X138072598Y-116413963D01*
X138145005Y-116444048D01*
X138189699Y-116417508D01*
X138192017Y-116413901D01*
X138213447Y-116344646D01*
X138232241Y-116218796D01*
X138248093Y-116049299D01*
X138260697Y-115849105D01*
X138269745Y-115631163D01*
X138274932Y-115408420D01*
X138275951Y-115193826D01*
X138272496Y-115000329D01*
X138264261Y-114840879D01*
X138250939Y-114728423D01*
X138233122Y-114676741D01*
X138187483Y-114674061D01*
X138147331Y-114692761D01*
G36*
X136410398Y-113358466D02*
X136372783Y-113435659D01*
X136332316Y-113568204D01*
X136308227Y-113672284D01*
X136275894Y-113810142D01*
X136244620Y-113915860D01*
X136219507Y-113973149D01*
X136212231Y-113978857D01*
X136189921Y-114010386D01*
X136180572Y-114086252D01*
X136180571Y-114086770D01*
X136164434Y-114184016D01*
X136120800Y-114327868D01*
X136056833Y-114501177D01*
X135979700Y-114686790D01*
X135896565Y-114867555D01*
X135814593Y-115026322D01*
X135740950Y-115145939D01*
X135734205Y-115155243D01*
X135702859Y-115190361D01*
X135683083Y-115181202D01*
X135667101Y-115117076D01*
X135656119Y-115047910D01*
X135568598Y-114680806D01*
X135422995Y-114349485D01*
X135350505Y-114230974D01*
X135277528Y-114115261D01*
X135224254Y-114018536D01*
X135201115Y-113959924D01*
X135200857Y-113956579D01*
X135182451Y-113910972D01*
X135169107Y-113906286D01*
X135140658Y-113874924D01*
X135115952Y-113799219D01*
X135115431Y-113796657D01*
X135074389Y-113691638D01*
X135006639Y-113593346D01*
X134918683Y-113528901D01*
X134843173Y-113534029D01*
X134784273Y-113606207D01*
X134746143Y-113742910D01*
X134744744Y-113752166D01*
X134716239Y-113894733D01*
X134676309Y-114036745D01*
X134664711Y-114069571D01*
X134618945Y-114174121D01*
X134551287Y-114308631D01*
X134469577Y-114459697D01*
X134381657Y-114613912D01*
X134295367Y-114757872D01*
X134218548Y-114878172D01*
X134159041Y-114961404D01*
X134124685Y-114994165D01*
X134123881Y-114994238D01*
X134080610Y-115024247D01*
X134071408Y-115101914D01*
X134095336Y-115211325D01*
X134143160Y-115321429D01*
X134214744Y-115438976D01*
X134302221Y-115544601D01*
X134421179Y-115654603D01*
X134585597Y-115784071D01*
X134742335Y-115902000D01*
X134612561Y-115902000D01*
X134487329Y-115887733D01*
X134322734Y-115850116D01*
X134144971Y-115796923D01*
X133980236Y-115735930D01*
X133862023Y-115679220D01*
X133760891Y-115636303D01*
X133703276Y-115647747D01*
X133692476Y-115712342D01*
X133698172Y-115739340D01*
X133730071Y-115790565D01*
X133804559Y-115844532D01*
X133930512Y-115906262D01*
X134116807Y-115980770D01*
X134141763Y-115990110D01*
X134230875Y-116013459D01*
X134366248Y-116037354D01*
X134531539Y-116060180D01*
X134710406Y-116080320D01*
X134886507Y-116096160D01*
X135043500Y-116106082D01*
X135165043Y-116108472D01*
X135234794Y-116101713D01*
X135241545Y-116098851D01*
X135247873Y-116061793D01*
X135200348Y-116003740D01*
X135110221Y-115935758D01*
X135026962Y-115887753D01*
X134697443Y-115677286D01*
X134405942Y-115408923D01*
X134317139Y-115308008D01*
X134251672Y-115226465D01*
X134221800Y-115179714D01*
X134221143Y-115176437D01*
X134245550Y-115134983D01*
X134306601Y-115067932D01*
X134332350Y-115043290D01*
X134444063Y-114914601D01*
X134561344Y-114736822D01*
X134672144Y-114531266D01*
X134764419Y-114319244D01*
X134800706Y-114214714D01*
X134841944Y-114082752D01*
X134875961Y-113974250D01*
X134895829Y-113911300D01*
X134896548Y-113909053D01*
X134920973Y-113911746D01*
X134971508Y-113970557D01*
X135041188Y-114077005D01*
X135058818Y-114106697D01*
X135197748Y-114362868D01*
X135319061Y-114622417D01*
X135417384Y-114871155D01*
X135487343Y-115094893D01*
X135523564Y-115279441D01*
X135527428Y-115344016D01*
X135537310Y-115431866D01*
X135561254Y-115483074D01*
X135562854Y-115484183D01*
X135617603Y-115485078D01*
X135692074Y-115456015D01*
X135754577Y-115413007D01*
X135774602Y-115377175D01*
X135800013Y-115333477D01*
X135839201Y-115304603D01*
X135930994Y-115234726D01*
X135979960Y-115158786D01*
X135981117Y-115112786D01*
X135994703Y-115073098D01*
X136018424Y-115067429D01*
X136065959Y-115046320D01*
X136071714Y-115029001D01*
X136093944Y-115007330D01*
X136108000Y-115013000D01*
X136127975Y-115062303D01*
X136139214Y-115173055D01*
X136141724Y-115334665D01*
X136135512Y-115536539D01*
X136120588Y-115768084D01*
X136107326Y-115918164D01*
X136092525Y-116093743D01*
X136089058Y-116209351D01*
X136097226Y-116276744D01*
X136117333Y-116307679D01*
X136117334Y-116307680D01*
X136179748Y-116334228D01*
X136230113Y-116308159D01*
X136257771Y-116277215D01*
X136274317Y-116222087D01*
X136287430Y-116109698D01*
X136297120Y-115953287D01*
X136303400Y-115766092D01*
X136306280Y-115561352D01*
X136305771Y-115352306D01*
X136301884Y-115152192D01*
X136294629Y-114974249D01*
X136284018Y-114831716D01*
X136270062Y-114737830D01*
X136256472Y-114706629D01*
X136240990Y-114669944D01*
X136250519Y-114587782D01*
X136286455Y-114450949D01*
X136304023Y-114393271D01*
X136394723Y-114060001D01*
X136451298Y-113756244D01*
X136470857Y-113497531D01*
X136470857Y-113497026D01*
X136462963Y-113385348D01*
X136441634Y-113340428D01*
X136410398Y-113358466D01*
X136410398Y-113358466D01*
G37*
X136410398Y-113358466D02*
X136372783Y-113435659D01*
X136332316Y-113568204D01*
X136308227Y-113672284D01*
X136275894Y-113810142D01*
X136244620Y-113915860D01*
X136219507Y-113973149D01*
X136212231Y-113978857D01*
X136189921Y-114010386D01*
X136180572Y-114086252D01*
X136180571Y-114086770D01*
X136164434Y-114184016D01*
X136120800Y-114327868D01*
X136056833Y-114501177D01*
X135979700Y-114686790D01*
X135896565Y-114867555D01*
X135814593Y-115026322D01*
X135740950Y-115145939D01*
X135734205Y-115155243D01*
X135702859Y-115190361D01*
X135683083Y-115181202D01*
X135667101Y-115117076D01*
X135656119Y-115047910D01*
X135568598Y-114680806D01*
X135422995Y-114349485D01*
X135350505Y-114230974D01*
X135277528Y-114115261D01*
X135224254Y-114018536D01*
X135201115Y-113959924D01*
X135200857Y-113956579D01*
X135182451Y-113910972D01*
X135169107Y-113906286D01*
X135140658Y-113874924D01*
X135115952Y-113799219D01*
X135115431Y-113796657D01*
X135074389Y-113691638D01*
X135006639Y-113593346D01*
X134918683Y-113528901D01*
X134843173Y-113534029D01*
X134784273Y-113606207D01*
X134746143Y-113742910D01*
X134744744Y-113752166D01*
X134716239Y-113894733D01*
X134676309Y-114036745D01*
X134664711Y-114069571D01*
X134618945Y-114174121D01*
X134551287Y-114308631D01*
X134469577Y-114459697D01*
X134381657Y-114613912D01*
X134295367Y-114757872D01*
X134218548Y-114878172D01*
X134159041Y-114961404D01*
X134124685Y-114994165D01*
X134123881Y-114994238D01*
X134080610Y-115024247D01*
X134071408Y-115101914D01*
X134095336Y-115211325D01*
X134143160Y-115321429D01*
X134214744Y-115438976D01*
X134302221Y-115544601D01*
X134421179Y-115654603D01*
X134585597Y-115784071D01*
X134742335Y-115902000D01*
X134612561Y-115902000D01*
X134487329Y-115887733D01*
X134322734Y-115850116D01*
X134144971Y-115796923D01*
X133980236Y-115735930D01*
X133862023Y-115679220D01*
X133760891Y-115636303D01*
X133703276Y-115647747D01*
X133692476Y-115712342D01*
X133698172Y-115739340D01*
X133730071Y-115790565D01*
X133804559Y-115844532D01*
X133930512Y-115906262D01*
X134116807Y-115980770D01*
X134141763Y-115990110D01*
X134230875Y-116013459D01*
X134366248Y-116037354D01*
X134531539Y-116060180D01*
X134710406Y-116080320D01*
X134886507Y-116096160D01*
X135043500Y-116106082D01*
X135165043Y-116108472D01*
X135234794Y-116101713D01*
X135241545Y-116098851D01*
X135247873Y-116061793D01*
X135200348Y-116003740D01*
X135110221Y-115935758D01*
X135026962Y-115887753D01*
X134697443Y-115677286D01*
X134405942Y-115408923D01*
X134317139Y-115308008D01*
X134251672Y-115226465D01*
X134221800Y-115179714D01*
X134221143Y-115176437D01*
X134245550Y-115134983D01*
X134306601Y-115067932D01*
X134332350Y-115043290D01*
X134444063Y-114914601D01*
X134561344Y-114736822D01*
X134672144Y-114531266D01*
X134764419Y-114319244D01*
X134800706Y-114214714D01*
X134841944Y-114082752D01*
X134875961Y-113974250D01*
X134895829Y-113911300D01*
X134896548Y-113909053D01*
X134920973Y-113911746D01*
X134971508Y-113970557D01*
X135041188Y-114077005D01*
X135058818Y-114106697D01*
X135197748Y-114362868D01*
X135319061Y-114622417D01*
X135417384Y-114871155D01*
X135487343Y-115094893D01*
X135523564Y-115279441D01*
X135527428Y-115344016D01*
X135537310Y-115431866D01*
X135561254Y-115483074D01*
X135562854Y-115484183D01*
X135617603Y-115485078D01*
X135692074Y-115456015D01*
X135754577Y-115413007D01*
X135774602Y-115377175D01*
X135800013Y-115333477D01*
X135839201Y-115304603D01*
X135930994Y-115234726D01*
X135979960Y-115158786D01*
X135981117Y-115112786D01*
X135994703Y-115073098D01*
X136018424Y-115067429D01*
X136065959Y-115046320D01*
X136071714Y-115029001D01*
X136093944Y-115007330D01*
X136108000Y-115013000D01*
X136127975Y-115062303D01*
X136139214Y-115173055D01*
X136141724Y-115334665D01*
X136135512Y-115536539D01*
X136120588Y-115768084D01*
X136107326Y-115918164D01*
X136092525Y-116093743D01*
X136089058Y-116209351D01*
X136097226Y-116276744D01*
X136117333Y-116307679D01*
X136117334Y-116307680D01*
X136179748Y-116334228D01*
X136230113Y-116308159D01*
X136257771Y-116277215D01*
X136274317Y-116222087D01*
X136287430Y-116109698D01*
X136297120Y-115953287D01*
X136303400Y-115766092D01*
X136306280Y-115561352D01*
X136305771Y-115352306D01*
X136301884Y-115152192D01*
X136294629Y-114974249D01*
X136284018Y-114831716D01*
X136270062Y-114737830D01*
X136256472Y-114706629D01*
X136240990Y-114669944D01*
X136250519Y-114587782D01*
X136286455Y-114450949D01*
X136304023Y-114393271D01*
X136394723Y-114060001D01*
X136451298Y-113756244D01*
X136470857Y-113497531D01*
X136470857Y-113497026D01*
X136462963Y-113385348D01*
X136441634Y-113340428D01*
X136410398Y-113358466D01*
G36*
X136661470Y-113377006D02*
X136660365Y-113417560D01*
X136670949Y-113513126D01*
X136691175Y-113647453D01*
X136707466Y-113742006D01*
X136731973Y-113925999D01*
X136747288Y-114141830D01*
X136753440Y-114370335D01*
X136750456Y-114592349D01*
X136738364Y-114788708D01*
X136717194Y-114940247D01*
X136705642Y-114985786D01*
X136702384Y-115050422D01*
X136735288Y-115069890D01*
X136785765Y-115046652D01*
X136835225Y-114983171D01*
X136842593Y-114967643D01*
X136860138Y-114887138D01*
X136872026Y-114750139D01*
X136878389Y-114572493D01*
X136879355Y-114370044D01*
X136875056Y-114158640D01*
X136865622Y-113954127D01*
X136851184Y-113772351D01*
X136831870Y-113629158D01*
X136831576Y-113627557D01*
X136797186Y-113487652D01*
X136757355Y-113401875D01*
X136734167Y-113381774D01*
X136676648Y-113371613D01*
X136661470Y-113377006D01*
X136661470Y-113377006D01*
G37*
X136661470Y-113377006D02*
X136660365Y-113417560D01*
X136670949Y-113513126D01*
X136691175Y-113647453D01*
X136707466Y-113742006D01*
X136731973Y-113925999D01*
X136747288Y-114141830D01*
X136753440Y-114370335D01*
X136750456Y-114592349D01*
X136738364Y-114788708D01*
X136717194Y-114940247D01*
X136705642Y-114985786D01*
X136702384Y-115050422D01*
X136735288Y-115069890D01*
X136785765Y-115046652D01*
X136835225Y-114983171D01*
X136842593Y-114967643D01*
X136860138Y-114887138D01*
X136872026Y-114750139D01*
X136878389Y-114572493D01*
X136879355Y-114370044D01*
X136875056Y-114158640D01*
X136865622Y-113954127D01*
X136851184Y-113772351D01*
X136831870Y-113629158D01*
X136831576Y-113627557D01*
X136797186Y-113487652D01*
X136757355Y-113401875D01*
X136734167Y-113381774D01*
X136676648Y-113371613D01*
X136661470Y-113377006D01*
G36*
X173042187Y-72726865D02*
X173051145Y-72850205D01*
X173087873Y-72979386D01*
X173119109Y-73138854D01*
X173142559Y-73393916D01*
X173158340Y-73727555D01*
X173166569Y-74122753D01*
X173167363Y-74562492D01*
X173160838Y-75029754D01*
X173147112Y-75507522D01*
X173126302Y-75978778D01*
X173098523Y-76426504D01*
X173063894Y-76833684D01*
X173061217Y-76860222D01*
X173026964Y-77186508D01*
X172994682Y-77476823D01*
X172966733Y-77711212D01*
X172945482Y-77869719D01*
X172934644Y-77929284D01*
X172886524Y-77934971D01*
X172774999Y-77847934D01*
X172599858Y-77667999D01*
X172572088Y-77637424D01*
X172378139Y-77435137D01*
X172170009Y-77237902D01*
X171987142Y-77082753D01*
X171957228Y-77060147D01*
X171746355Y-76872568D01*
X171639717Y-76711911D01*
X171387678Y-76711911D01*
X171381892Y-76790275D01*
X171352278Y-76786842D01*
X171275092Y-76699120D01*
X171206810Y-76590161D01*
X171197040Y-76513413D01*
X171197328Y-76512935D01*
X171255560Y-76491296D01*
X171325244Y-76544465D01*
X171377190Y-76641932D01*
X171387678Y-76711911D01*
X171639717Y-76711911D01*
X171625303Y-76690197D01*
X171616892Y-76667388D01*
X171505118Y-76448286D01*
X171350099Y-76326884D01*
X171182881Y-76305658D01*
X171069130Y-76336883D01*
X171018477Y-76419935D01*
X171004682Y-76511439D01*
X171035253Y-76743423D01*
X171167143Y-76940056D01*
X171333643Y-77058053D01*
X171440811Y-77127940D01*
X171489814Y-77218165D01*
X171502359Y-77372176D01*
X171502445Y-77395908D01*
X171487932Y-77573632D01*
X171436787Y-77673620D01*
X171393267Y-77704903D01*
X171179461Y-77760540D01*
X170962128Y-77706527D01*
X170833210Y-77620375D01*
X170725968Y-77511625D01*
X170644999Y-77377250D01*
X170581550Y-77193818D01*
X170526870Y-76937901D01*
X170488178Y-76696697D01*
X170454886Y-76489110D01*
X170424005Y-76326364D01*
X170401563Y-76239802D01*
X170399470Y-76235599D01*
X170335977Y-76203570D01*
X170200538Y-76161038D01*
X170032229Y-76117962D01*
X169870122Y-76084305D01*
X169753292Y-76070027D01*
X169749889Y-76070000D01*
X169702037Y-76115658D01*
X169696223Y-76153217D01*
X169743305Y-76231652D01*
X169856974Y-76317428D01*
X169995864Y-76384868D01*
X170107771Y-76408667D01*
X170167248Y-76464265D01*
X170227281Y-76627707D01*
X170286489Y-76893965D01*
X170343493Y-77258011D01*
X170345965Y-77276467D01*
X170422191Y-77542874D01*
X170560834Y-77753985D01*
X170744004Y-77908059D01*
X170953813Y-78003356D01*
X171172371Y-78038136D01*
X171381790Y-78010659D01*
X171564180Y-77919186D01*
X171701653Y-77761976D01*
X171776320Y-77537290D01*
X171784667Y-77416397D01*
X171784667Y-77233188D01*
X171989491Y-77427705D01*
X172118960Y-77561589D01*
X172288094Y-77751372D01*
X172467469Y-77963675D01*
X172533079Y-78044412D01*
X172871844Y-78466601D01*
X172837582Y-78891078D01*
X172818110Y-79112115D01*
X172789765Y-79408123D01*
X172756214Y-79741884D01*
X172721122Y-80076179D01*
X172717932Y-80105778D01*
X172683395Y-80503839D01*
X172657808Y-80960127D01*
X172641383Y-81448863D01*
X172634336Y-81944272D01*
X172636881Y-82420575D01*
X172649233Y-82851997D01*
X172671607Y-83212760D01*
X172690597Y-83389582D01*
X172750531Y-83745503D01*
X172828192Y-84071581D01*
X172916949Y-84347326D01*
X173010172Y-84552249D01*
X173101229Y-84665859D01*
X173104326Y-84667950D01*
X173315064Y-84771843D01*
X173495318Y-84780411D01*
X173588479Y-84746632D01*
X173761624Y-84606898D01*
X173929823Y-84374597D01*
X174083252Y-84069943D01*
X174212088Y-83713155D01*
X174306506Y-83324447D01*
X174321397Y-83238444D01*
X174373372Y-82624254D01*
X174069129Y-82624254D01*
X174029528Y-83130348D01*
X173945978Y-83590895D01*
X173820229Y-83988148D01*
X173654030Y-84304359D01*
X173571751Y-84409667D01*
X173444271Y-84516403D01*
X173339328Y-84514636D01*
X173243227Y-84402780D01*
X173225135Y-84369528D01*
X173169369Y-84230165D01*
X173105594Y-84024114D01*
X173047436Y-83795483D01*
X173046421Y-83790972D01*
X173005965Y-83532184D01*
X172976716Y-83180819D01*
X172958283Y-82756593D01*
X172950274Y-82279221D01*
X172952296Y-81768418D01*
X172963958Y-81243899D01*
X172984867Y-80725378D01*
X173014632Y-80232572D01*
X173052860Y-79785195D01*
X173099159Y-79402962D01*
X173138224Y-79174444D01*
X173178253Y-78976889D01*
X173332890Y-79315556D01*
X173551702Y-79837518D01*
X173734787Y-80374910D01*
X173898210Y-80975169D01*
X173906754Y-81010155D01*
X174009491Y-81546410D01*
X174063033Y-82090359D01*
X174069129Y-82624254D01*
X174373372Y-82624254D01*
X174381508Y-82528121D01*
X174342857Y-81775776D01*
X174207256Y-80990663D01*
X173976518Y-80182035D01*
X173652453Y-79359145D01*
X173496939Y-79027736D01*
X173348305Y-78710743D01*
X173256764Y-78479913D01*
X173218987Y-78326052D01*
X173220997Y-78265736D01*
X173235998Y-78169665D01*
X173259427Y-77980544D01*
X173289113Y-77717714D01*
X173322886Y-77400515D01*
X173358575Y-77048287D01*
X173365320Y-76979748D01*
X173420227Y-76328930D01*
X173456391Y-75699373D01*
X173474260Y-75101932D01*
X173474288Y-74547465D01*
X173456922Y-74046829D01*
X173422616Y-73610881D01*
X173371818Y-73250478D01*
X173304979Y-72976477D01*
X173222550Y-72799735D01*
X173190327Y-72763066D01*
X173089103Y-72696715D01*
X173042187Y-72726865D01*
X173042187Y-72726865D01*
G37*
X173042187Y-72726865D02*
X173051145Y-72850205D01*
X173087873Y-72979386D01*
X173119109Y-73138854D01*
X173142559Y-73393916D01*
X173158340Y-73727555D01*
X173166569Y-74122753D01*
X173167363Y-74562492D01*
X173160838Y-75029754D01*
X173147112Y-75507522D01*
X173126302Y-75978778D01*
X173098523Y-76426504D01*
X173063894Y-76833684D01*
X173061217Y-76860222D01*
X173026964Y-77186508D01*
X172994682Y-77476823D01*
X172966733Y-77711212D01*
X172945482Y-77869719D01*
X172934644Y-77929284D01*
X172886524Y-77934971D01*
X172774999Y-77847934D01*
X172599858Y-77667999D01*
X172572088Y-77637424D01*
X172378139Y-77435137D01*
X172170009Y-77237902D01*
X171987142Y-77082753D01*
X171957228Y-77060147D01*
X171746355Y-76872568D01*
X171639717Y-76711911D01*
X171387678Y-76711911D01*
X171381892Y-76790275D01*
X171352278Y-76786842D01*
X171275092Y-76699120D01*
X171206810Y-76590161D01*
X171197040Y-76513413D01*
X171197328Y-76512935D01*
X171255560Y-76491296D01*
X171325244Y-76544465D01*
X171377190Y-76641932D01*
X171387678Y-76711911D01*
X171639717Y-76711911D01*
X171625303Y-76690197D01*
X171616892Y-76667388D01*
X171505118Y-76448286D01*
X171350099Y-76326884D01*
X171182881Y-76305658D01*
X171069130Y-76336883D01*
X171018477Y-76419935D01*
X171004682Y-76511439D01*
X171035253Y-76743423D01*
X171167143Y-76940056D01*
X171333643Y-77058053D01*
X171440811Y-77127940D01*
X171489814Y-77218165D01*
X171502359Y-77372176D01*
X171502445Y-77395908D01*
X171487932Y-77573632D01*
X171436787Y-77673620D01*
X171393267Y-77704903D01*
X171179461Y-77760540D01*
X170962128Y-77706527D01*
X170833210Y-77620375D01*
X170725968Y-77511625D01*
X170644999Y-77377250D01*
X170581550Y-77193818D01*
X170526870Y-76937901D01*
X170488178Y-76696697D01*
X170454886Y-76489110D01*
X170424005Y-76326364D01*
X170401563Y-76239802D01*
X170399470Y-76235599D01*
X170335977Y-76203570D01*
X170200538Y-76161038D01*
X170032229Y-76117962D01*
X169870122Y-76084305D01*
X169753292Y-76070027D01*
X169749889Y-76070000D01*
X169702037Y-76115658D01*
X169696223Y-76153217D01*
X169743305Y-76231652D01*
X169856974Y-76317428D01*
X169995864Y-76384868D01*
X170107771Y-76408667D01*
X170167248Y-76464265D01*
X170227281Y-76627707D01*
X170286489Y-76893965D01*
X170343493Y-77258011D01*
X170345965Y-77276467D01*
X170422191Y-77542874D01*
X170560834Y-77753985D01*
X170744004Y-77908059D01*
X170953813Y-78003356D01*
X171172371Y-78038136D01*
X171381790Y-78010659D01*
X171564180Y-77919186D01*
X171701653Y-77761976D01*
X171776320Y-77537290D01*
X171784667Y-77416397D01*
X171784667Y-77233188D01*
X171989491Y-77427705D01*
X172118960Y-77561589D01*
X172288094Y-77751372D01*
X172467469Y-77963675D01*
X172533079Y-78044412D01*
X172871844Y-78466601D01*
X172837582Y-78891078D01*
X172818110Y-79112115D01*
X172789765Y-79408123D01*
X172756214Y-79741884D01*
X172721122Y-80076179D01*
X172717932Y-80105778D01*
X172683395Y-80503839D01*
X172657808Y-80960127D01*
X172641383Y-81448863D01*
X172634336Y-81944272D01*
X172636881Y-82420575D01*
X172649233Y-82851997D01*
X172671607Y-83212760D01*
X172690597Y-83389582D01*
X172750531Y-83745503D01*
X172828192Y-84071581D01*
X172916949Y-84347326D01*
X173010172Y-84552249D01*
X173101229Y-84665859D01*
X173104326Y-84667950D01*
X173315064Y-84771843D01*
X173495318Y-84780411D01*
X173588479Y-84746632D01*
X173761624Y-84606898D01*
X173929823Y-84374597D01*
X174083252Y-84069943D01*
X174212088Y-83713155D01*
X174306506Y-83324447D01*
X174321397Y-83238444D01*
X174373372Y-82624254D01*
X174069129Y-82624254D01*
X174029528Y-83130348D01*
X173945978Y-83590895D01*
X173820229Y-83988148D01*
X173654030Y-84304359D01*
X173571751Y-84409667D01*
X173444271Y-84516403D01*
X173339328Y-84514636D01*
X173243227Y-84402780D01*
X173225135Y-84369528D01*
X173169369Y-84230165D01*
X173105594Y-84024114D01*
X173047436Y-83795483D01*
X173046421Y-83790972D01*
X173005965Y-83532184D01*
X172976716Y-83180819D01*
X172958283Y-82756593D01*
X172950274Y-82279221D01*
X172952296Y-81768418D01*
X172963958Y-81243899D01*
X172984867Y-80725378D01*
X173014632Y-80232572D01*
X173052860Y-79785195D01*
X173099159Y-79402962D01*
X173138224Y-79174444D01*
X173178253Y-78976889D01*
X173332890Y-79315556D01*
X173551702Y-79837518D01*
X173734787Y-80374910D01*
X173898210Y-80975169D01*
X173906754Y-81010155D01*
X174009491Y-81546410D01*
X174063033Y-82090359D01*
X174069129Y-82624254D01*
X174373372Y-82624254D01*
X174381508Y-82528121D01*
X174342857Y-81775776D01*
X174207256Y-80990663D01*
X173976518Y-80182035D01*
X173652453Y-79359145D01*
X173496939Y-79027736D01*
X173348305Y-78710743D01*
X173256764Y-78479913D01*
X173218987Y-78326052D01*
X173220997Y-78265736D01*
X173235998Y-78169665D01*
X173259427Y-77980544D01*
X173289113Y-77717714D01*
X173322886Y-77400515D01*
X173358575Y-77048287D01*
X173365320Y-76979748D01*
X173420227Y-76328930D01*
X173456391Y-75699373D01*
X173474260Y-75101932D01*
X173474288Y-74547465D01*
X173456922Y-74046829D01*
X173422616Y-73610881D01*
X173371818Y-73250478D01*
X173304979Y-72976477D01*
X173222550Y-72799735D01*
X173190327Y-72763066D01*
X173089103Y-72696715D01*
X173042187Y-72726865D01*
G36*
X168819141Y-74905920D02*
X168750361Y-74980640D01*
X168754852Y-75068637D01*
X168781201Y-75201145D01*
X168812172Y-75386473D01*
X168823952Y-75464956D01*
X168862894Y-75734800D01*
X168640143Y-75699181D01*
X168468137Y-75688457D01*
X168354363Y-75731588D01*
X168316175Y-75764778D01*
X168243930Y-75909873D01*
X168228486Y-76122119D01*
X168263963Y-76374785D01*
X168344476Y-76641137D01*
X168464142Y-76894440D01*
X168610032Y-77100111D01*
X168656297Y-77162718D01*
X168633043Y-77191121D01*
X168521341Y-77198685D01*
X168470104Y-77198889D01*
X168294470Y-77220428D01*
X168178939Y-77276289D01*
X168172223Y-77283556D01*
X168095926Y-77354218D01*
X168062803Y-77368222D01*
X168005451Y-77332079D01*
X167891189Y-77236931D01*
X167743823Y-77102696D01*
X167731048Y-77090611D01*
X167578110Y-76940625D01*
X167490580Y-76830357D01*
X167450256Y-76723680D01*
X167438932Y-76584465D01*
X167438445Y-76509904D01*
X167425265Y-76394556D01*
X167209481Y-76394556D01*
X167203070Y-76531503D01*
X167174397Y-76565395D01*
X167119096Y-76494763D01*
X167041814Y-76338111D01*
X166971661Y-76148026D01*
X166936372Y-75977829D01*
X166937887Y-75853016D01*
X166978143Y-75799084D01*
X167001000Y-75801425D01*
X167071389Y-75873749D01*
X167138199Y-76021923D01*
X167188547Y-76209292D01*
X167209481Y-76394556D01*
X167425265Y-76394556D01*
X167409861Y-76259758D01*
X167333969Y-76010621D01*
X167225555Y-75798517D01*
X167099408Y-75659468D01*
X167085667Y-75650531D01*
X166955478Y-75626446D01*
X166839752Y-75692765D01*
X166772719Y-75828745D01*
X166770561Y-75841488D01*
X166779368Y-75989746D01*
X166827528Y-76192437D01*
X166900539Y-76404782D01*
X166983899Y-76581997D01*
X167033577Y-76653653D01*
X167094065Y-76737826D01*
X167067591Y-76798203D01*
X167014362Y-76840603D01*
X166847708Y-76898156D01*
X166637830Y-76854494D01*
X166382518Y-76709116D01*
X166359547Y-76692703D01*
X166189590Y-76576628D01*
X166088829Y-76531562D01*
X166040379Y-76555480D01*
X166027358Y-76646355D01*
X166027334Y-76652828D01*
X166079207Y-76813319D01*
X166216677Y-76958925D01*
X166412518Y-77078643D01*
X166639503Y-77161467D01*
X166870407Y-77196394D01*
X167078005Y-77172420D01*
X167185997Y-77121130D01*
X167252417Y-77087259D01*
X167321594Y-77095836D01*
X167418564Y-77158383D01*
X167568362Y-77286423D01*
X167592992Y-77308453D01*
X167888650Y-77573534D01*
X167776436Y-77892801D01*
X167674625Y-78339937D01*
X167669038Y-78801525D01*
X167751952Y-79259503D01*
X167915641Y-79695809D01*
X168152378Y-80092380D01*
X168454439Y-80431155D01*
X168814098Y-80694070D01*
X169016883Y-80792992D01*
X169300581Y-80889159D01*
X169536912Y-80914383D01*
X169765635Y-80869508D01*
X169910014Y-80811902D01*
X170127065Y-80657375D01*
X170263389Y-80435732D01*
X170317873Y-80159890D01*
X170316881Y-80148831D01*
X170017481Y-80148831D01*
X169957173Y-80358768D01*
X169862859Y-80486201D01*
X169688363Y-80563388D01*
X169454623Y-80579782D01*
X169197339Y-80535655D01*
X169045908Y-80479966D01*
X168766047Y-80299452D01*
X168503454Y-80032605D01*
X168275037Y-79705976D01*
X168097706Y-79346121D01*
X167988367Y-78979592D01*
X167963028Y-78779333D01*
X167964413Y-78541451D01*
X167989566Y-78299827D01*
X168032684Y-78082935D01*
X168087959Y-77919251D01*
X168149587Y-77837247D01*
X168155625Y-77834718D01*
X168226981Y-77861202D01*
X168361059Y-77954316D01*
X168541683Y-78099949D01*
X168752677Y-78283991D01*
X168977864Y-78492330D01*
X169201069Y-78710857D01*
X169406115Y-78925459D01*
X169406526Y-78925908D01*
X169715020Y-79302568D01*
X169917702Y-79643566D01*
X170014288Y-79948340D01*
X170017481Y-80148831D01*
X170316881Y-80148831D01*
X170289402Y-79842768D01*
X170176863Y-79497284D01*
X170045337Y-79241889D01*
X169887327Y-79015713D01*
X169663646Y-78747565D01*
X169399203Y-78462847D01*
X169118904Y-78186961D01*
X168847659Y-77945309D01*
X168610376Y-77763292D01*
X168568651Y-77735943D01*
X168424813Y-77632914D01*
X168375013Y-77560893D01*
X168390949Y-77522029D01*
X168470124Y-77494243D01*
X168604714Y-77533000D01*
X168655312Y-77555989D01*
X168824034Y-77615858D01*
X168944626Y-77594407D01*
X169054672Y-77483778D01*
X169064423Y-77470455D01*
X169172363Y-77387278D01*
X169252210Y-77368222D01*
X169361949Y-77330060D01*
X169496868Y-77234788D01*
X169537371Y-77197091D01*
X169641050Y-77081413D01*
X169683285Y-76979158D01*
X169679568Y-76838800D01*
X169668677Y-76760391D01*
X169651218Y-76687527D01*
X169455406Y-76687527D01*
X169420353Y-76928064D01*
X169417729Y-76935083D01*
X169350447Y-77044307D01*
X169246348Y-77079634D01*
X169084291Y-77043782D01*
X168960788Y-76993823D01*
X168768861Y-76851186D01*
X168613073Y-76618727D01*
X168505132Y-76316838D01*
X168472309Y-76142945D01*
X168454619Y-75988398D01*
X168465151Y-75920338D01*
X168514546Y-75913739D01*
X168563807Y-75927770D01*
X168932280Y-76076500D01*
X169206771Y-76256319D01*
X169382679Y-76461804D01*
X169455406Y-76687527D01*
X169651218Y-76687527D01*
X169596398Y-76458750D01*
X169470956Y-76226844D01*
X169292725Y-76043383D01*
X169200099Y-75957281D01*
X169142677Y-75869481D01*
X169108886Y-75747748D01*
X169087156Y-75559850D01*
X169078300Y-75446084D01*
X169047464Y-75167184D01*
X169000573Y-74990113D01*
X168932578Y-74904348D01*
X168838433Y-74899366D01*
X168819141Y-74905920D01*
X168819141Y-74905920D01*
G37*
X168819141Y-74905920D02*
X168750361Y-74980640D01*
X168754852Y-75068637D01*
X168781201Y-75201145D01*
X168812172Y-75386473D01*
X168823952Y-75464956D01*
X168862894Y-75734800D01*
X168640143Y-75699181D01*
X168468137Y-75688457D01*
X168354363Y-75731588D01*
X168316175Y-75764778D01*
X168243930Y-75909873D01*
X168228486Y-76122119D01*
X168263963Y-76374785D01*
X168344476Y-76641137D01*
X168464142Y-76894440D01*
X168610032Y-77100111D01*
X168656297Y-77162718D01*
X168633043Y-77191121D01*
X168521341Y-77198685D01*
X168470104Y-77198889D01*
X168294470Y-77220428D01*
X168178939Y-77276289D01*
X168172223Y-77283556D01*
X168095926Y-77354218D01*
X168062803Y-77368222D01*
X168005451Y-77332079D01*
X167891189Y-77236931D01*
X167743823Y-77102696D01*
X167731048Y-77090611D01*
X167578110Y-76940625D01*
X167490580Y-76830357D01*
X167450256Y-76723680D01*
X167438932Y-76584465D01*
X167438445Y-76509904D01*
X167425265Y-76394556D01*
X167209481Y-76394556D01*
X167203070Y-76531503D01*
X167174397Y-76565395D01*
X167119096Y-76494763D01*
X167041814Y-76338111D01*
X166971661Y-76148026D01*
X166936372Y-75977829D01*
X166937887Y-75853016D01*
X166978143Y-75799084D01*
X167001000Y-75801425D01*
X167071389Y-75873749D01*
X167138199Y-76021923D01*
X167188547Y-76209292D01*
X167209481Y-76394556D01*
X167425265Y-76394556D01*
X167409861Y-76259758D01*
X167333969Y-76010621D01*
X167225555Y-75798517D01*
X167099408Y-75659468D01*
X167085667Y-75650531D01*
X166955478Y-75626446D01*
X166839752Y-75692765D01*
X166772719Y-75828745D01*
X166770561Y-75841488D01*
X166779368Y-75989746D01*
X166827528Y-76192437D01*
X166900539Y-76404782D01*
X166983899Y-76581997D01*
X167033577Y-76653653D01*
X167094065Y-76737826D01*
X167067591Y-76798203D01*
X167014362Y-76840603D01*
X166847708Y-76898156D01*
X166637830Y-76854494D01*
X166382518Y-76709116D01*
X166359547Y-76692703D01*
X166189590Y-76576628D01*
X166088829Y-76531562D01*
X166040379Y-76555480D01*
X166027358Y-76646355D01*
X166027334Y-76652828D01*
X166079207Y-76813319D01*
X166216677Y-76958925D01*
X166412518Y-77078643D01*
X166639503Y-77161467D01*
X166870407Y-77196394D01*
X167078005Y-77172420D01*
X167185997Y-77121130D01*
X167252417Y-77087259D01*
X167321594Y-77095836D01*
X167418564Y-77158383D01*
X167568362Y-77286423D01*
X167592992Y-77308453D01*
X167888650Y-77573534D01*
X167776436Y-77892801D01*
X167674625Y-78339937D01*
X167669038Y-78801525D01*
X167751952Y-79259503D01*
X167915641Y-79695809D01*
X168152378Y-80092380D01*
X168454439Y-80431155D01*
X168814098Y-80694070D01*
X169016883Y-80792992D01*
X169300581Y-80889159D01*
X169536912Y-80914383D01*
X169765635Y-80869508D01*
X169910014Y-80811902D01*
X170127065Y-80657375D01*
X170263389Y-80435732D01*
X170317873Y-80159890D01*
X170316881Y-80148831D01*
X170017481Y-80148831D01*
X169957173Y-80358768D01*
X169862859Y-80486201D01*
X169688363Y-80563388D01*
X169454623Y-80579782D01*
X169197339Y-80535655D01*
X169045908Y-80479966D01*
X168766047Y-80299452D01*
X168503454Y-80032605D01*
X168275037Y-79705976D01*
X168097706Y-79346121D01*
X167988367Y-78979592D01*
X167963028Y-78779333D01*
X167964413Y-78541451D01*
X167989566Y-78299827D01*
X168032684Y-78082935D01*
X168087959Y-77919251D01*
X168149587Y-77837247D01*
X168155625Y-77834718D01*
X168226981Y-77861202D01*
X168361059Y-77954316D01*
X168541683Y-78099949D01*
X168752677Y-78283991D01*
X168977864Y-78492330D01*
X169201069Y-78710857D01*
X169406115Y-78925459D01*
X169406526Y-78925908D01*
X169715020Y-79302568D01*
X169917702Y-79643566D01*
X170014288Y-79948340D01*
X170017481Y-80148831D01*
X170316881Y-80148831D01*
X170289402Y-79842768D01*
X170176863Y-79497284D01*
X170045337Y-79241889D01*
X169887327Y-79015713D01*
X169663646Y-78747565D01*
X169399203Y-78462847D01*
X169118904Y-78186961D01*
X168847659Y-77945309D01*
X168610376Y-77763292D01*
X168568651Y-77735943D01*
X168424813Y-77632914D01*
X168375013Y-77560893D01*
X168390949Y-77522029D01*
X168470124Y-77494243D01*
X168604714Y-77533000D01*
X168655312Y-77555989D01*
X168824034Y-77615858D01*
X168944626Y-77594407D01*
X169054672Y-77483778D01*
X169064423Y-77470455D01*
X169172363Y-77387278D01*
X169252210Y-77368222D01*
X169361949Y-77330060D01*
X169496868Y-77234788D01*
X169537371Y-77197091D01*
X169641050Y-77081413D01*
X169683285Y-76979158D01*
X169679568Y-76838800D01*
X169668677Y-76760391D01*
X169651218Y-76687527D01*
X169455406Y-76687527D01*
X169420353Y-76928064D01*
X169417729Y-76935083D01*
X169350447Y-77044307D01*
X169246348Y-77079634D01*
X169084291Y-77043782D01*
X168960788Y-76993823D01*
X168768861Y-76851186D01*
X168613073Y-76618727D01*
X168505132Y-76316838D01*
X168472309Y-76142945D01*
X168454619Y-75988398D01*
X168465151Y-75920338D01*
X168514546Y-75913739D01*
X168563807Y-75927770D01*
X168932280Y-76076500D01*
X169206771Y-76256319D01*
X169382679Y-76461804D01*
X169455406Y-76687527D01*
X169651218Y-76687527D01*
X169596398Y-76458750D01*
X169470956Y-76226844D01*
X169292725Y-76043383D01*
X169200099Y-75957281D01*
X169142677Y-75869481D01*
X169108886Y-75747748D01*
X169087156Y-75559850D01*
X169078300Y-75446084D01*
X169047464Y-75167184D01*
X169000573Y-74990113D01*
X168932578Y-74904348D01*
X168838433Y-74899366D01*
X168819141Y-74905920D01*
G36*
X111246221Y-76941666D02*
X111600092Y-76800937D01*
X111626000Y-76744000D01*
X111838737Y-76537630D01*
X112134000Y-76490000D01*
X112546741Y-76383632D01*
X112642000Y-76236000D01*
X112867336Y-76076945D01*
X113430254Y-75988477D01*
X113658000Y-75982000D01*
X114309466Y-75951910D01*
X114599071Y-75788846D01*
X114672397Y-75383625D01*
X114674000Y-75220000D01*
X114633878Y-74731400D01*
X114416461Y-74514197D01*
X113876165Y-74459203D01*
X113658000Y-74458000D01*
X113021778Y-74401666D01*
X112667907Y-74260937D01*
X112642000Y-74204000D01*
X112429262Y-73997630D01*
X112134000Y-73950000D01*
X111721258Y-73843632D01*
X111626000Y-73696000D01*
X111400663Y-73536945D01*
X110837745Y-73448477D01*
X110610000Y-73442000D01*
X109973778Y-73498335D01*
X109619907Y-73639064D01*
X109594000Y-73696000D01*
X109381262Y-73902371D01*
X109086000Y-73950000D01*
X108673258Y-74056369D01*
X108578000Y-74204000D01*
X108352663Y-74363056D01*
X107789745Y-74451524D01*
X107562000Y-74458000D01*
X106910533Y-74488091D01*
X106620928Y-74651155D01*
X106547602Y-75056376D01*
X106546000Y-75220000D01*
X108578000Y-75220000D01*
X108657831Y-74662240D01*
X108954865Y-74465862D01*
X109086000Y-74458000D01*
X109457840Y-74577748D01*
X109588759Y-75023299D01*
X109594000Y-75220000D01*
X111626000Y-75220000D01*
X111705831Y-74662240D01*
X112002865Y-74465862D01*
X112134000Y-74458000D01*
X112505840Y-74577748D01*
X112636759Y-75023299D01*
X112642000Y-75220000D01*
X112562168Y-75777761D01*
X112265134Y-75974139D01*
X112134000Y-75982000D01*
X111762159Y-75862253D01*
X111631240Y-75416702D01*
X111626000Y-75220000D01*
X109594000Y-75220000D01*
X109514168Y-75777761D01*
X109217134Y-75974139D01*
X109086000Y-75982000D01*
X108714159Y-75862253D01*
X108583240Y-75416702D01*
X108578000Y-75220000D01*
X106546000Y-75220000D01*
X106586121Y-75708601D01*
X106803538Y-75925804D01*
X107343834Y-75980798D01*
X107562000Y-75982000D01*
X108198221Y-76038335D01*
X108552092Y-76179064D01*
X108578000Y-76236000D01*
X108790737Y-76442371D01*
X109086000Y-76490000D01*
X109498741Y-76596369D01*
X109594000Y-76744000D01*
X109819336Y-76903056D01*
X110382254Y-76991524D01*
X110610000Y-76998000D01*
X111246221Y-76941666D01*
X111246221Y-76941666D01*
G37*
X111246221Y-76941666D02*
X111600092Y-76800937D01*
X111626000Y-76744000D01*
X111838737Y-76537630D01*
X112134000Y-76490000D01*
X112546741Y-76383632D01*
X112642000Y-76236000D01*
X112867336Y-76076945D01*
X113430254Y-75988477D01*
X113658000Y-75982000D01*
X114309466Y-75951910D01*
X114599071Y-75788846D01*
X114672397Y-75383625D01*
X114674000Y-75220000D01*
X114633878Y-74731400D01*
X114416461Y-74514197D01*
X113876165Y-74459203D01*
X113658000Y-74458000D01*
X113021778Y-74401666D01*
X112667907Y-74260937D01*
X112642000Y-74204000D01*
X112429262Y-73997630D01*
X112134000Y-73950000D01*
X111721258Y-73843632D01*
X111626000Y-73696000D01*
X111400663Y-73536945D01*
X110837745Y-73448477D01*
X110610000Y-73442000D01*
X109973778Y-73498335D01*
X109619907Y-73639064D01*
X109594000Y-73696000D01*
X109381262Y-73902371D01*
X109086000Y-73950000D01*
X108673258Y-74056369D01*
X108578000Y-74204000D01*
X108352663Y-74363056D01*
X107789745Y-74451524D01*
X107562000Y-74458000D01*
X106910533Y-74488091D01*
X106620928Y-74651155D01*
X106547602Y-75056376D01*
X106546000Y-75220000D01*
X108578000Y-75220000D01*
X108657831Y-74662240D01*
X108954865Y-74465862D01*
X109086000Y-74458000D01*
X109457840Y-74577748D01*
X109588759Y-75023299D01*
X109594000Y-75220000D01*
X111626000Y-75220000D01*
X111705831Y-74662240D01*
X112002865Y-74465862D01*
X112134000Y-74458000D01*
X112505840Y-74577748D01*
X112636759Y-75023299D01*
X112642000Y-75220000D01*
X112562168Y-75777761D01*
X112265134Y-75974139D01*
X112134000Y-75982000D01*
X111762159Y-75862253D01*
X111631240Y-75416702D01*
X111626000Y-75220000D01*
X109594000Y-75220000D01*
X109514168Y-75777761D01*
X109217134Y-75974139D01*
X109086000Y-75982000D01*
X108714159Y-75862253D01*
X108583240Y-75416702D01*
X108578000Y-75220000D01*
X106546000Y-75220000D01*
X106586121Y-75708601D01*
X106803538Y-75925804D01*
X107343834Y-75980798D01*
X107562000Y-75982000D01*
X108198221Y-76038335D01*
X108552092Y-76179064D01*
X108578000Y-76236000D01*
X108790737Y-76442371D01*
X109086000Y-76490000D01*
X109498741Y-76596369D01*
X109594000Y-76744000D01*
X109819336Y-76903056D01*
X110382254Y-76991524D01*
X110610000Y-76998000D01*
X111246221Y-76941666D01*
G36*
X142578094Y-90112743D02*
X142602700Y-90291681D01*
X142661986Y-90367573D01*
X142663043Y-90367592D01*
X142738409Y-90298786D01*
X142747993Y-90240167D01*
X142815993Y-90127543D01*
X142875418Y-90112743D01*
X142964020Y-90168853D01*
X143000530Y-90354852D01*
X143002843Y-90452542D01*
X142981801Y-90688815D01*
X142912052Y-90786174D01*
X142875418Y-90792341D01*
X142762794Y-90860341D01*
X142747993Y-90919766D01*
X142798022Y-91003753D01*
X142968130Y-91042010D01*
X143130267Y-91047191D01*
X143382229Y-91030515D01*
X143496998Y-90973812D01*
X143512542Y-90919766D01*
X143444542Y-90807142D01*
X143385117Y-90792341D01*
X143296515Y-90736231D01*
X143260005Y-90550232D01*
X143257692Y-90452542D01*
X143278733Y-90216269D01*
X143348483Y-90118910D01*
X143385117Y-90112743D01*
X143497741Y-90180742D01*
X143512542Y-90240167D01*
X143558412Y-90353216D01*
X143597492Y-90367592D01*
X143657138Y-90293773D01*
X143682435Y-90115913D01*
X143682441Y-90112743D01*
X143682441Y-89857893D01*
X142578094Y-89857893D01*
X142578094Y-90112743D01*
X142578094Y-90112743D01*
G37*
X142578094Y-90112743D02*
X142602700Y-90291681D01*
X142661986Y-90367573D01*
X142663043Y-90367592D01*
X142738409Y-90298786D01*
X142747993Y-90240167D01*
X142815993Y-90127543D01*
X142875418Y-90112743D01*
X142964020Y-90168853D01*
X143000530Y-90354852D01*
X143002843Y-90452542D01*
X142981801Y-90688815D01*
X142912052Y-90786174D01*
X142875418Y-90792341D01*
X142762794Y-90860341D01*
X142747993Y-90919766D01*
X142798022Y-91003753D01*
X142968130Y-91042010D01*
X143130267Y-91047191D01*
X143382229Y-91030515D01*
X143496998Y-90973812D01*
X143512542Y-90919766D01*
X143444542Y-90807142D01*
X143385117Y-90792341D01*
X143296515Y-90736231D01*
X143260005Y-90550232D01*
X143257692Y-90452542D01*
X143278733Y-90216269D01*
X143348483Y-90118910D01*
X143385117Y-90112743D01*
X143497741Y-90180742D01*
X143512542Y-90240167D01*
X143558412Y-90353216D01*
X143597492Y-90367592D01*
X143657138Y-90293773D01*
X143682435Y-90115913D01*
X143682441Y-90112743D01*
X143682441Y-89857893D01*
X142578094Y-89857893D01*
X142578094Y-90112743D01*
G36*
X141348401Y-89871112D02*
X141293543Y-89935228D01*
X141268344Y-90086929D01*
X141261526Y-90362901D01*
X141261371Y-90452542D01*
X141265109Y-90763703D01*
X141284258Y-90941845D01*
X141330726Y-91023815D01*
X141416416Y-91046457D01*
X141453512Y-91047191D01*
X141571904Y-91031428D01*
X141617878Y-90953559D01*
X141610088Y-90767711D01*
X141600320Y-90686154D01*
X141578090Y-90475457D01*
X141588534Y-90414151D01*
X141637544Y-90483852D01*
X141654773Y-90516254D01*
X141766531Y-90661710D01*
X141856020Y-90707391D01*
X141968461Y-90639911D01*
X142057267Y-90516254D01*
X142115918Y-90419195D01*
X142134656Y-90448941D01*
X142119373Y-90623877D01*
X142111719Y-90686154D01*
X142091708Y-90912333D01*
X142119996Y-91017092D01*
X142215236Y-91046301D01*
X142258528Y-91047191D01*
X142359069Y-91035623D01*
X142416630Y-90976358D01*
X142443116Y-90832548D01*
X142450432Y-90567350D01*
X142450669Y-90452542D01*
X142446604Y-90140959D01*
X142426892Y-89962533D01*
X142380251Y-89880574D01*
X142295402Y-89858397D01*
X142267842Y-89857893D01*
X142099747Y-89926708D01*
X141996174Y-90112743D01*
X141920488Y-90288824D01*
X141858462Y-90367326D01*
X141856020Y-90367592D01*
X141795803Y-90296554D01*
X141719987Y-90124410D01*
X141715866Y-90112743D01*
X141596474Y-89911868D01*
X141444198Y-89857893D01*
X141348401Y-89871112D01*
X141348401Y-89871112D01*
G37*
X141348401Y-89871112D02*
X141293543Y-89935228D01*
X141268344Y-90086929D01*
X141261526Y-90362901D01*
X141261371Y-90452542D01*
X141265109Y-90763703D01*
X141284258Y-90941845D01*
X141330726Y-91023815D01*
X141416416Y-91046457D01*
X141453512Y-91047191D01*
X141571904Y-91031428D01*
X141617878Y-90953559D01*
X141610088Y-90767711D01*
X141600320Y-90686154D01*
X141578090Y-90475457D01*
X141588534Y-90414151D01*
X141637544Y-90483852D01*
X141654773Y-90516254D01*
X141766531Y-90661710D01*
X141856020Y-90707391D01*
X141968461Y-90639911D01*
X142057267Y-90516254D01*
X142115918Y-90419195D01*
X142134656Y-90448941D01*
X142119373Y-90623877D01*
X142111719Y-90686154D01*
X142091708Y-90912333D01*
X142119996Y-91017092D01*
X142215236Y-91046301D01*
X142258528Y-91047191D01*
X142359069Y-91035623D01*
X142416630Y-90976358D01*
X142443116Y-90832548D01*
X142450432Y-90567350D01*
X142450669Y-90452542D01*
X142446604Y-90140959D01*
X142426892Y-89962533D01*
X142380251Y-89880574D01*
X142295402Y-89858397D01*
X142267842Y-89857893D01*
X142099747Y-89926708D01*
X141996174Y-90112743D01*
X141920488Y-90288824D01*
X141858462Y-90367326D01*
X141856020Y-90367592D01*
X141795803Y-90296554D01*
X141719987Y-90124410D01*
X141715866Y-90112743D01*
X141596474Y-89911868D01*
X141444198Y-89857893D01*
X141348401Y-89871112D01*
G36*
X140233469Y-89869754D02*
X140137311Y-89925507D01*
X140114625Y-90055411D01*
X140114548Y-90070268D01*
X140151949Y-90239776D01*
X140240381Y-90279115D01*
X140326923Y-90197692D01*
X140461988Y-90115023D01*
X140646831Y-90126345D01*
X140799752Y-90218040D01*
X140836622Y-90282642D01*
X140861309Y-90542173D01*
X140763986Y-90720747D01*
X140562901Y-90785796D01*
X140554810Y-90785635D01*
X140425031Y-90768301D01*
X140433110Y-90736081D01*
X140544122Y-90640958D01*
X140517599Y-90535685D01*
X140377419Y-90463145D01*
X140275239Y-90452542D01*
X140095535Y-90466424D01*
X140043694Y-90539466D01*
X140069599Y-90685303D01*
X140145731Y-90878667D01*
X140227471Y-90981327D01*
X140462404Y-91045066D01*
X140736018Y-91007316D01*
X140960873Y-90880427D01*
X140964047Y-90877291D01*
X141117842Y-90626138D01*
X141128884Y-90360923D01*
X141016206Y-90119463D01*
X140798838Y-89939578D01*
X140495814Y-89859085D01*
X140451038Y-89857893D01*
X140233469Y-89869754D01*
X140233469Y-89869754D01*
G37*
X140233469Y-89869754D02*
X140137311Y-89925507D01*
X140114625Y-90055411D01*
X140114548Y-90070268D01*
X140151949Y-90239776D01*
X140240381Y-90279115D01*
X140326923Y-90197692D01*
X140461988Y-90115023D01*
X140646831Y-90126345D01*
X140799752Y-90218040D01*
X140836622Y-90282642D01*
X140861309Y-90542173D01*
X140763986Y-90720747D01*
X140562901Y-90785796D01*
X140554810Y-90785635D01*
X140425031Y-90768301D01*
X140433110Y-90736081D01*
X140544122Y-90640958D01*
X140517599Y-90535685D01*
X140377419Y-90463145D01*
X140275239Y-90452542D01*
X140095535Y-90466424D01*
X140043694Y-90539466D01*
X140069599Y-90685303D01*
X140145731Y-90878667D01*
X140227471Y-90981327D01*
X140462404Y-91045066D01*
X140736018Y-91007316D01*
X140960873Y-90880427D01*
X140964047Y-90877291D01*
X141117842Y-90626138D01*
X141128884Y-90360923D01*
X141016206Y-90119463D01*
X140798838Y-89939578D01*
X140495814Y-89859085D01*
X140451038Y-89857893D01*
X140233469Y-89869754D01*
G36*
X139236010Y-81631361D02*
X138578530Y-81706652D01*
X137972925Y-81867136D01*
X137366515Y-82123222D01*
X137275452Y-82168879D01*
X136777942Y-82434884D01*
X136396988Y-82675511D01*
X136090748Y-82926819D01*
X135817374Y-83224870D01*
X135535024Y-83605725D01*
X135430901Y-83758469D01*
X135168390Y-84155741D01*
X134985403Y-84458139D01*
X134862586Y-84708955D01*
X134780586Y-84951478D01*
X134720048Y-85228999D01*
X134687383Y-85421571D01*
X134661747Y-86110404D01*
X134801906Y-86812022D01*
X135105014Y-87518546D01*
X135568228Y-88222097D01*
X135800165Y-88503743D01*
X136342757Y-89036766D01*
X136903291Y-89415868D01*
X137470777Y-89634032D01*
X137616844Y-89663324D01*
X137809475Y-89702615D01*
X137903913Y-89737638D01*
X137905853Y-89741583D01*
X137852758Y-89817399D01*
X137735953Y-89942843D01*
X137598021Y-90176962D01*
X137570707Y-90451393D01*
X137639382Y-90718597D01*
X137789419Y-90931033D01*
X138006191Y-91041161D01*
X138075752Y-91047191D01*
X138308035Y-90970241D01*
X138488585Y-90770081D01*
X138580575Y-90492746D01*
X138585451Y-90410067D01*
X138561112Y-90289746D01*
X138307910Y-90289746D01*
X138303074Y-90546439D01*
X138294179Y-90586098D01*
X138189843Y-90756656D01*
X138075752Y-90792341D01*
X137918816Y-90716200D01*
X137857326Y-90586098D01*
X137838525Y-90323504D01*
X137909133Y-90122230D01*
X138050697Y-90029442D01*
X138075752Y-90027793D01*
X138225985Y-90101142D01*
X138307910Y-90289746D01*
X138561112Y-90289746D01*
X138524254Y-90107539D01*
X138415552Y-89942843D01*
X138326825Y-89847335D01*
X138323871Y-89796909D01*
X138433368Y-89777555D01*
X138681993Y-89775259D01*
X138734114Y-89775526D01*
X138999992Y-89783659D01*
X139114172Y-89807500D01*
X139094493Y-89851731D01*
X139073913Y-89864697D01*
X138942881Y-90020817D01*
X138964338Y-90242238D01*
X139137347Y-90521282D01*
X139157022Y-90545052D01*
X139388794Y-90820496D01*
X139157022Y-90762325D01*
X138989641Y-90739752D01*
X138929969Y-90807161D01*
X138925251Y-90875673D01*
X138947144Y-90978475D01*
X139040740Y-91029751D01*
X139247908Y-91046409D01*
X139350000Y-91047191D01*
X139633661Y-91028800D01*
X139763306Y-90971527D01*
X139774749Y-90936430D01*
X139717739Y-90816150D01*
X139572943Y-90635970D01*
X139477425Y-90537492D01*
X139302618Y-90344935D01*
X139195723Y-90182612D01*
X139180100Y-90129099D01*
X139222703Y-90053356D01*
X139374186Y-90048021D01*
X139477425Y-90064663D01*
X139689891Y-90076357D01*
X139776323Y-90024077D01*
X139719130Y-89928523D01*
X139638543Y-89875060D01*
X139628297Y-89829747D01*
X139773600Y-89788960D01*
X140080755Y-89751181D01*
X140194816Y-89741085D01*
X140838106Y-89648237D01*
X141494748Y-89484774D01*
X142100909Y-89269364D01*
X142531851Y-89057569D01*
X142899368Y-88780379D01*
X143271362Y-88396126D01*
X143486865Y-88112377D01*
X143190923Y-88112377D01*
X143144898Y-88280550D01*
X142966488Y-88472626D01*
X142701413Y-88671420D01*
X142224063Y-88969437D01*
X141753090Y-89191725D01*
X141251923Y-89347662D01*
X140683990Y-89446624D01*
X140012723Y-89497987D01*
X139427301Y-89510869D01*
X138856516Y-89508197D01*
X138409624Y-89490023D01*
X138041016Y-89452440D01*
X137705083Y-89391542D01*
X137521410Y-89347639D01*
X137178567Y-89250199D01*
X136878337Y-89147604D01*
X136677065Y-89059454D01*
X136655270Y-89046357D01*
X136455601Y-88915529D01*
X136628553Y-88695656D01*
X136752121Y-88474080D01*
X136801505Y-88262302D01*
X136807265Y-88134687D01*
X136842554Y-88125599D01*
X136934384Y-88244548D01*
X136992642Y-88329585D01*
X137301772Y-88696400D01*
X137681872Y-88971677D01*
X138170871Y-89179270D01*
X138488662Y-89270387D01*
X139062499Y-89373646D01*
X139686211Y-89415092D01*
X140317212Y-89397870D01*
X140912914Y-89325126D01*
X141430730Y-89200007D01*
X141828072Y-89025658D01*
X141831695Y-89023429D01*
X142084054Y-88833439D01*
X142373810Y-88566124D01*
X142648413Y-88274714D01*
X142855312Y-88012438D01*
X142899539Y-87941772D01*
X142976036Y-87827721D01*
X143042836Y-87849570D01*
X143117630Y-87945314D01*
X143190923Y-88112377D01*
X143486865Y-88112377D01*
X143602465Y-87960170D01*
X143847308Y-87527869D01*
X143907129Y-87379423D01*
X143984495Y-87105463D01*
X143991087Y-87061786D01*
X142663043Y-87061786D01*
X142655374Y-87176656D01*
X142611265Y-87171468D01*
X142499066Y-87038873D01*
X142484463Y-87020333D01*
X142344342Y-86873964D01*
X142238009Y-86859044D01*
X142187139Y-86891853D01*
X142089163Y-86999703D01*
X142092736Y-87114809D01*
X142204741Y-87289150D01*
X142246975Y-87343614D01*
X142382444Y-87489407D01*
X142483943Y-87508408D01*
X142556553Y-87461924D01*
X142644598Y-87404221D01*
X142649399Y-87469812D01*
X142622460Y-87564914D01*
X142471455Y-87863107D01*
X142215668Y-88184512D01*
X141902618Y-88477037D01*
X141612751Y-88671739D01*
X141371150Y-88777856D01*
X141200914Y-88812444D01*
X141128885Y-88776916D01*
X141181904Y-88672685D01*
X141203322Y-88650190D01*
X141293176Y-88496775D01*
X141303846Y-88434724D01*
X141340242Y-88305824D01*
X140782166Y-88305824D01*
X140732614Y-88396335D01*
X140629375Y-88413746D01*
X140488574Y-88379107D01*
X140454348Y-88328796D01*
X140385542Y-88253430D01*
X140326923Y-88243846D01*
X140223061Y-88197613D01*
X140226704Y-88087370D01*
X140313135Y-87955800D01*
X140457637Y-87845588D01*
X140581772Y-87803734D01*
X140697348Y-87814565D01*
X140755468Y-87923294D01*
X140778038Y-88095184D01*
X140782166Y-88305824D01*
X141340242Y-88305824D01*
X141345361Y-88287698D01*
X141446956Y-88106464D01*
X141574203Y-87936699D01*
X141692675Y-87824078D01*
X141767945Y-87814278D01*
X141769625Y-87816759D01*
X141864824Y-87858657D01*
X141977451Y-87787464D01*
X142016154Y-87718440D01*
X141300445Y-87718440D01*
X141297044Y-87946522D01*
X141176684Y-87725081D01*
X140948746Y-87442353D01*
X140657311Y-87278814D01*
X140346020Y-87258862D01*
X140343608Y-87259339D01*
X140021163Y-87380857D01*
X139835197Y-87598129D01*
X139772057Y-87927375D01*
X139771923Y-87938451D01*
X139769097Y-88286321D01*
X139602023Y-88085773D01*
X139482257Y-87907291D01*
X139434950Y-87771208D01*
X139506964Y-87467217D01*
X139723874Y-87247198D01*
X140086983Y-87110408D01*
X140597594Y-87056104D01*
X140690062Y-87055022D01*
X140957543Y-87063553D01*
X141106584Y-87103826D01*
X141188303Y-87196775D01*
X141220999Y-87272453D01*
X141284964Y-87532199D01*
X141300445Y-87718440D01*
X142016154Y-87718440D01*
X142056902Y-87645770D01*
X142068395Y-87565302D01*
X142013267Y-87369781D01*
X141879218Y-87177898D01*
X141713249Y-87041120D01*
X141562362Y-87010910D01*
X141562152Y-87010977D01*
X141389498Y-86992423D01*
X141305438Y-86929042D01*
X141156806Y-86844678D01*
X140875671Y-86804824D01*
X140677558Y-86800173D01*
X140161999Y-86826372D01*
X139782677Y-86910212D01*
X139512896Y-87061173D01*
X139332217Y-87277986D01*
X139157008Y-87574943D01*
X138902089Y-87265683D01*
X138741262Y-87083703D01*
X138638724Y-87019462D01*
X138552685Y-87053403D01*
X138517765Y-87085828D01*
X138448676Y-87181393D01*
X138463680Y-87288538D01*
X138574924Y-87459201D01*
X138618653Y-87517166D01*
X138789669Y-87724436D01*
X138907389Y-87805476D01*
X139010292Y-87777032D01*
X139078160Y-87717157D01*
X139151594Y-87678470D01*
X139178624Y-87780217D01*
X139180100Y-87848638D01*
X139253852Y-88089253D01*
X139442207Y-88323001D01*
X139695814Y-88498468D01*
X139857202Y-88554067D01*
X140071777Y-88637785D01*
X140301704Y-88781984D01*
X140316480Y-88793606D01*
X140560887Y-88989517D01*
X139891731Y-88992618D01*
X139473671Y-88976923D01*
X139032496Y-88932854D01*
X138680250Y-88873214D01*
X138206827Y-88748552D01*
X137863612Y-88609063D01*
X137611069Y-88432615D01*
X137409662Y-88197079D01*
X137372030Y-88140921D01*
X137184478Y-87697964D01*
X137144235Y-87183785D01*
X137251777Y-86612643D01*
X137314670Y-86427662D01*
X137469031Y-86064720D01*
X137642732Y-85790259D01*
X137872579Y-85567294D01*
X138195378Y-85358835D01*
X138571087Y-85165058D01*
X139073394Y-84950330D01*
X139526711Y-84833865D01*
X139989183Y-84809376D01*
X140518956Y-84870575D01*
X140795438Y-84924530D01*
X141079575Y-84996892D01*
X141302981Y-85094248D01*
X141504560Y-85245754D01*
X141723213Y-85480565D01*
X141993978Y-85822776D01*
X142330183Y-86290814D01*
X142546511Y-86660853D01*
X142650646Y-86947120D01*
X142663043Y-87061786D01*
X143991087Y-87061786D01*
X144031650Y-86793036D01*
X144053316Y-86396568D01*
X144055127Y-85950201D01*
X144049639Y-85759064D01*
X143849315Y-85759064D01*
X143829448Y-85954740D01*
X143746035Y-86029239D01*
X143683782Y-86035151D01*
X143517210Y-86089436D01*
X143306936Y-86224955D01*
X143242835Y-86278528D01*
X142970449Y-86521906D01*
X142777681Y-86257291D01*
X142602140Y-85996299D01*
X142430279Y-85711509D01*
X142414555Y-85683283D01*
X142160489Y-85331033D01*
X141814604Y-84995802D01*
X141427830Y-84718241D01*
X141051096Y-84539001D01*
X140944324Y-84509760D01*
X140674604Y-84457504D01*
X140588795Y-84444771D01*
X139005549Y-84444771D01*
X138951034Y-84501464D01*
X138780448Y-84596364D01*
X138476242Y-84746522D01*
X138437727Y-84765267D01*
X137940076Y-85045539D01*
X137541325Y-85347246D01*
X137422183Y-85464578D01*
X137180656Y-85786726D01*
X136965474Y-86180220D01*
X136803481Y-86585463D01*
X136721523Y-86942855D01*
X136716555Y-87031154D01*
X136716555Y-87256235D01*
X136456784Y-87007358D01*
X136288422Y-86865951D01*
X136119276Y-86790812D01*
X135885575Y-86761692D01*
X135670998Y-86757853D01*
X135345616Y-86743806D01*
X135158944Y-86698340D01*
X135087241Y-86629799D01*
X135060427Y-86490545D01*
X135038707Y-86229002D01*
X135025554Y-85892773D01*
X135023529Y-85756075D01*
X135022273Y-85400454D01*
X135030669Y-85186027D01*
X135056506Y-85084100D01*
X135107573Y-85065975D01*
X135191658Y-85102959D01*
X135199641Y-85107223D01*
X135392019Y-85157720D01*
X135674982Y-85174423D01*
X135830637Y-85167443D01*
X136316153Y-85048339D01*
X136717020Y-84785276D01*
X137017440Y-84389615D01*
X137074318Y-84272854D01*
X137174704Y-84007971D01*
X137197115Y-83791589D01*
X137150293Y-83526105D01*
X137143637Y-83499092D01*
X137058631Y-83219464D01*
X136961191Y-82983105D01*
X136926502Y-82920977D01*
X136856072Y-82774923D01*
X136910533Y-82675461D01*
X136995751Y-82614694D01*
X137225281Y-82476820D01*
X137482229Y-82340044D01*
X137720782Y-82226448D01*
X137895123Y-82158113D01*
X137957749Y-82151038D01*
X137935706Y-82233924D01*
X137834425Y-82388086D01*
X137822093Y-82403976D01*
X137686778Y-82689448D01*
X137651003Y-83028023D01*
X137660207Y-83247256D01*
X137705741Y-83413132D01*
X137814484Y-83575658D01*
X138013319Y-83784842D01*
X138106881Y-83876118D01*
X138398816Y-84128683D01*
X138668746Y-84308449D01*
X138836570Y-84377809D01*
X138961544Y-84409236D01*
X139005549Y-84444771D01*
X140588795Y-84444771D01*
X140459976Y-84425656D01*
X140396235Y-84421104D01*
X140343608Y-84388673D01*
X140435203Y-84285990D01*
X140487736Y-84243174D01*
X140755084Y-83944913D01*
X140953701Y-83556461D01*
X141046419Y-83154568D01*
X141048997Y-83084193D01*
X141016134Y-82813932D01*
X140974255Y-82717382D01*
X140195185Y-82717382D01*
X140123417Y-83006790D01*
X139985693Y-83319580D01*
X139822977Y-83593539D01*
X139666809Y-83717304D01*
X139477741Y-83704239D01*
X139229366Y-83575803D01*
X139016876Y-83393947D01*
X138815434Y-83143444D01*
X138767917Y-83066104D01*
X138654845Y-82857435D01*
X138623720Y-82756732D01*
X138671742Y-82724706D01*
X138743398Y-82722107D01*
X138913512Y-82774706D01*
X139126866Y-82905452D01*
X139182866Y-82949845D01*
X139453517Y-83177583D01*
X139612729Y-82971082D01*
X139745404Y-82771878D01*
X139821545Y-82615920D01*
X139937409Y-82491623D01*
X140035323Y-82467258D01*
X140166121Y-82532372D01*
X140195185Y-82717382D01*
X140974255Y-82717382D01*
X140902445Y-82551831D01*
X140685277Y-82253195D01*
X140547507Y-82094703D01*
X140326923Y-81849573D01*
X140581772Y-81908899D01*
X140803371Y-81977890D01*
X141098011Y-82091155D01*
X141291873Y-82174808D01*
X141548393Y-82301795D01*
X141672463Y-82398571D01*
X141692044Y-82490909D01*
X141677757Y-82530512D01*
X141619822Y-82795529D01*
X141627616Y-83158919D01*
X141699048Y-83563277D01*
X141718025Y-83634293D01*
X141884332Y-83964040D01*
X142151771Y-84217476D01*
X142479329Y-84376823D01*
X142825992Y-84424306D01*
X143150749Y-84342148D01*
X143234741Y-84291698D01*
X143377376Y-84211324D01*
X143462981Y-84254387D01*
X143519744Y-84349612D01*
X143615940Y-84591717D01*
X143712592Y-84933257D01*
X143793418Y-85304593D01*
X143842134Y-85636088D01*
X143849315Y-85759064D01*
X144049639Y-85759064D01*
X144039611Y-85409840D01*
X143994820Y-84986207D01*
X143905241Y-84626687D01*
X143755364Y-84278667D01*
X143529678Y-83889533D01*
X143378671Y-83655683D01*
X142828207Y-82970823D01*
X142152868Y-82386516D01*
X141421595Y-81946457D01*
X141129038Y-81811375D01*
X140876436Y-81724441D01*
X140605083Y-81672639D01*
X140256275Y-81642955D01*
X139998043Y-81630852D01*
X139236010Y-81631361D01*
X139236010Y-81631361D01*
G37*
X139236010Y-81631361D02*
X138578530Y-81706652D01*
X137972925Y-81867136D01*
X137366515Y-82123222D01*
X137275452Y-82168879D01*
X136777942Y-82434884D01*
X136396988Y-82675511D01*
X136090748Y-82926819D01*
X135817374Y-83224870D01*
X135535024Y-83605725D01*
X135430901Y-83758469D01*
X135168390Y-84155741D01*
X134985403Y-84458139D01*
X134862586Y-84708955D01*
X134780586Y-84951478D01*
X134720048Y-85228999D01*
X134687383Y-85421571D01*
X134661747Y-86110404D01*
X134801906Y-86812022D01*
X135105014Y-87518546D01*
X135568228Y-88222097D01*
X135800165Y-88503743D01*
X136342757Y-89036766D01*
X136903291Y-89415868D01*
X137470777Y-89634032D01*
X137616844Y-89663324D01*
X137809475Y-89702615D01*
X137903913Y-89737638D01*
X137905853Y-89741583D01*
X137852758Y-89817399D01*
X137735953Y-89942843D01*
X137598021Y-90176962D01*
X137570707Y-90451393D01*
X137639382Y-90718597D01*
X137789419Y-90931033D01*
X138006191Y-91041161D01*
X138075752Y-91047191D01*
X138308035Y-90970241D01*
X138488585Y-90770081D01*
X138580575Y-90492746D01*
X138585451Y-90410067D01*
X138561112Y-90289746D01*
X138307910Y-90289746D01*
X138303074Y-90546439D01*
X138294179Y-90586098D01*
X138189843Y-90756656D01*
X138075752Y-90792341D01*
X137918816Y-90716200D01*
X137857326Y-90586098D01*
X137838525Y-90323504D01*
X137909133Y-90122230D01*
X138050697Y-90029442D01*
X138075752Y-90027793D01*
X138225985Y-90101142D01*
X138307910Y-90289746D01*
X138561112Y-90289746D01*
X138524254Y-90107539D01*
X138415552Y-89942843D01*
X138326825Y-89847335D01*
X138323871Y-89796909D01*
X138433368Y-89777555D01*
X138681993Y-89775259D01*
X138734114Y-89775526D01*
X138999992Y-89783659D01*
X139114172Y-89807500D01*
X139094493Y-89851731D01*
X139073913Y-89864697D01*
X138942881Y-90020817D01*
X138964338Y-90242238D01*
X139137347Y-90521282D01*
X139157022Y-90545052D01*
X139388794Y-90820496D01*
X139157022Y-90762325D01*
X138989641Y-90739752D01*
X138929969Y-90807161D01*
X138925251Y-90875673D01*
X138947144Y-90978475D01*
X139040740Y-91029751D01*
X139247908Y-91046409D01*
X139350000Y-91047191D01*
X139633661Y-91028800D01*
X139763306Y-90971527D01*
X139774749Y-90936430D01*
X139717739Y-90816150D01*
X139572943Y-90635970D01*
X139477425Y-90537492D01*
X139302618Y-90344935D01*
X139195723Y-90182612D01*
X139180100Y-90129099D01*
X139222703Y-90053356D01*
X139374186Y-90048021D01*
X139477425Y-90064663D01*
X139689891Y-90076357D01*
X139776323Y-90024077D01*
X139719130Y-89928523D01*
X139638543Y-89875060D01*
X139628297Y-89829747D01*
X139773600Y-89788960D01*
X140080755Y-89751181D01*
X140194816Y-89741085D01*
X140838106Y-89648237D01*
X141494748Y-89484774D01*
X142100909Y-89269364D01*
X142531851Y-89057569D01*
X142899368Y-88780379D01*
X143271362Y-88396126D01*
X143486865Y-88112377D01*
X143190923Y-88112377D01*
X143144898Y-88280550D01*
X142966488Y-88472626D01*
X142701413Y-88671420D01*
X142224063Y-88969437D01*
X141753090Y-89191725D01*
X141251923Y-89347662D01*
X140683990Y-89446624D01*
X140012723Y-89497987D01*
X139427301Y-89510869D01*
X138856516Y-89508197D01*
X138409624Y-89490023D01*
X138041016Y-89452440D01*
X137705083Y-89391542D01*
X137521410Y-89347639D01*
X137178567Y-89250199D01*
X136878337Y-89147604D01*
X136677065Y-89059454D01*
X136655270Y-89046357D01*
X136455601Y-88915529D01*
X136628553Y-88695656D01*
X136752121Y-88474080D01*
X136801505Y-88262302D01*
X136807265Y-88134687D01*
X136842554Y-88125599D01*
X136934384Y-88244548D01*
X136992642Y-88329585D01*
X137301772Y-88696400D01*
X137681872Y-88971677D01*
X138170871Y-89179270D01*
X138488662Y-89270387D01*
X139062499Y-89373646D01*
X139686211Y-89415092D01*
X140317212Y-89397870D01*
X140912914Y-89325126D01*
X141430730Y-89200007D01*
X141828072Y-89025658D01*
X141831695Y-89023429D01*
X142084054Y-88833439D01*
X142373810Y-88566124D01*
X142648413Y-88274714D01*
X142855312Y-88012438D01*
X142899539Y-87941772D01*
X142976036Y-87827721D01*
X143042836Y-87849570D01*
X143117630Y-87945314D01*
X143190923Y-88112377D01*
X143486865Y-88112377D01*
X143602465Y-87960170D01*
X143847308Y-87527869D01*
X143907129Y-87379423D01*
X143984495Y-87105463D01*
X143991087Y-87061786D01*
X142663043Y-87061786D01*
X142655374Y-87176656D01*
X142611265Y-87171468D01*
X142499066Y-87038873D01*
X142484463Y-87020333D01*
X142344342Y-86873964D01*
X142238009Y-86859044D01*
X142187139Y-86891853D01*
X142089163Y-86999703D01*
X142092736Y-87114809D01*
X142204741Y-87289150D01*
X142246975Y-87343614D01*
X142382444Y-87489407D01*
X142483943Y-87508408D01*
X142556553Y-87461924D01*
X142644598Y-87404221D01*
X142649399Y-87469812D01*
X142622460Y-87564914D01*
X142471455Y-87863107D01*
X142215668Y-88184512D01*
X141902618Y-88477037D01*
X141612751Y-88671739D01*
X141371150Y-88777856D01*
X141200914Y-88812444D01*
X141128885Y-88776916D01*
X141181904Y-88672685D01*
X141203322Y-88650190D01*
X141293176Y-88496775D01*
X141303846Y-88434724D01*
X141340242Y-88305824D01*
X140782166Y-88305824D01*
X140732614Y-88396335D01*
X140629375Y-88413746D01*
X140488574Y-88379107D01*
X140454348Y-88328796D01*
X140385542Y-88253430D01*
X140326923Y-88243846D01*
X140223061Y-88197613D01*
X140226704Y-88087370D01*
X140313135Y-87955800D01*
X140457637Y-87845588D01*
X140581772Y-87803734D01*
X140697348Y-87814565D01*
X140755468Y-87923294D01*
X140778038Y-88095184D01*
X140782166Y-88305824D01*
X141340242Y-88305824D01*
X141345361Y-88287698D01*
X141446956Y-88106464D01*
X141574203Y-87936699D01*
X141692675Y-87824078D01*
X141767945Y-87814278D01*
X141769625Y-87816759D01*
X141864824Y-87858657D01*
X141977451Y-87787464D01*
X142016154Y-87718440D01*
X141300445Y-87718440D01*
X141297044Y-87946522D01*
X141176684Y-87725081D01*
X140948746Y-87442353D01*
X140657311Y-87278814D01*
X140346020Y-87258862D01*
X140343608Y-87259339D01*
X140021163Y-87380857D01*
X139835197Y-87598129D01*
X139772057Y-87927375D01*
X139771923Y-87938451D01*
X139769097Y-88286321D01*
X139602023Y-88085773D01*
X139482257Y-87907291D01*
X139434950Y-87771208D01*
X139506964Y-87467217D01*
X139723874Y-87247198D01*
X140086983Y-87110408D01*
X140597594Y-87056104D01*
X140690062Y-87055022D01*
X140957543Y-87063553D01*
X141106584Y-87103826D01*
X141188303Y-87196775D01*
X141220999Y-87272453D01*
X141284964Y-87532199D01*
X141300445Y-87718440D01*
X142016154Y-87718440D01*
X142056902Y-87645770D01*
X142068395Y-87565302D01*
X142013267Y-87369781D01*
X141879218Y-87177898D01*
X141713249Y-87041120D01*
X141562362Y-87010910D01*
X141562152Y-87010977D01*
X141389498Y-86992423D01*
X141305438Y-86929042D01*
X141156806Y-86844678D01*
X140875671Y-86804824D01*
X140677558Y-86800173D01*
X140161999Y-86826372D01*
X139782677Y-86910212D01*
X139512896Y-87061173D01*
X139332217Y-87277986D01*
X139157008Y-87574943D01*
X138902089Y-87265683D01*
X138741262Y-87083703D01*
X138638724Y-87019462D01*
X138552685Y-87053403D01*
X138517765Y-87085828D01*
X138448676Y-87181393D01*
X138463680Y-87288538D01*
X138574924Y-87459201D01*
X138618653Y-87517166D01*
X138789669Y-87724436D01*
X138907389Y-87805476D01*
X139010292Y-87777032D01*
X139078160Y-87717157D01*
X139151594Y-87678470D01*
X139178624Y-87780217D01*
X139180100Y-87848638D01*
X139253852Y-88089253D01*
X139442207Y-88323001D01*
X139695814Y-88498468D01*
X139857202Y-88554067D01*
X140071777Y-88637785D01*
X140301704Y-88781984D01*
X140316480Y-88793606D01*
X140560887Y-88989517D01*
X139891731Y-88992618D01*
X139473671Y-88976923D01*
X139032496Y-88932854D01*
X138680250Y-88873214D01*
X138206827Y-88748552D01*
X137863612Y-88609063D01*
X137611069Y-88432615D01*
X137409662Y-88197079D01*
X137372030Y-88140921D01*
X137184478Y-87697964D01*
X137144235Y-87183785D01*
X137251777Y-86612643D01*
X137314670Y-86427662D01*
X137469031Y-86064720D01*
X137642732Y-85790259D01*
X137872579Y-85567294D01*
X138195378Y-85358835D01*
X138571087Y-85165058D01*
X139073394Y-84950330D01*
X139526711Y-84833865D01*
X139989183Y-84809376D01*
X140518956Y-84870575D01*
X140795438Y-84924530D01*
X141079575Y-84996892D01*
X141302981Y-85094248D01*
X141504560Y-85245754D01*
X141723213Y-85480565D01*
X141993978Y-85822776D01*
X142330183Y-86290814D01*
X142546511Y-86660853D01*
X142650646Y-86947120D01*
X142663043Y-87061786D01*
X143991087Y-87061786D01*
X144031650Y-86793036D01*
X144053316Y-86396568D01*
X144055127Y-85950201D01*
X144049639Y-85759064D01*
X143849315Y-85759064D01*
X143829448Y-85954740D01*
X143746035Y-86029239D01*
X143683782Y-86035151D01*
X143517210Y-86089436D01*
X143306936Y-86224955D01*
X143242835Y-86278528D01*
X142970449Y-86521906D01*
X142777681Y-86257291D01*
X142602140Y-85996299D01*
X142430279Y-85711509D01*
X142414555Y-85683283D01*
X142160489Y-85331033D01*
X141814604Y-84995802D01*
X141427830Y-84718241D01*
X141051096Y-84539001D01*
X140944324Y-84509760D01*
X140674604Y-84457504D01*
X140588795Y-84444771D01*
X139005549Y-84444771D01*
X138951034Y-84501464D01*
X138780448Y-84596364D01*
X138476242Y-84746522D01*
X138437727Y-84765267D01*
X137940076Y-85045539D01*
X137541325Y-85347246D01*
X137422183Y-85464578D01*
X137180656Y-85786726D01*
X136965474Y-86180220D01*
X136803481Y-86585463D01*
X136721523Y-86942855D01*
X136716555Y-87031154D01*
X136716555Y-87256235D01*
X136456784Y-87007358D01*
X136288422Y-86865951D01*
X136119276Y-86790812D01*
X135885575Y-86761692D01*
X135670998Y-86757853D01*
X135345616Y-86743806D01*
X135158944Y-86698340D01*
X135087241Y-86629799D01*
X135060427Y-86490545D01*
X135038707Y-86229002D01*
X135025554Y-85892773D01*
X135023529Y-85756075D01*
X135022273Y-85400454D01*
X135030669Y-85186027D01*
X135056506Y-85084100D01*
X135107573Y-85065975D01*
X135191658Y-85102959D01*
X135199641Y-85107223D01*
X135392019Y-85157720D01*
X135674982Y-85174423D01*
X135830637Y-85167443D01*
X136316153Y-85048339D01*
X136717020Y-84785276D01*
X137017440Y-84389615D01*
X137074318Y-84272854D01*
X137174704Y-84007971D01*
X137197115Y-83791589D01*
X137150293Y-83526105D01*
X137143637Y-83499092D01*
X137058631Y-83219464D01*
X136961191Y-82983105D01*
X136926502Y-82920977D01*
X136856072Y-82774923D01*
X136910533Y-82675461D01*
X136995751Y-82614694D01*
X137225281Y-82476820D01*
X137482229Y-82340044D01*
X137720782Y-82226448D01*
X137895123Y-82158113D01*
X137957749Y-82151038D01*
X137935706Y-82233924D01*
X137834425Y-82388086D01*
X137822093Y-82403976D01*
X137686778Y-82689448D01*
X137651003Y-83028023D01*
X137660207Y-83247256D01*
X137705741Y-83413132D01*
X137814484Y-83575658D01*
X138013319Y-83784842D01*
X138106881Y-83876118D01*
X138398816Y-84128683D01*
X138668746Y-84308449D01*
X138836570Y-84377809D01*
X138961544Y-84409236D01*
X139005549Y-84444771D01*
X140588795Y-84444771D01*
X140459976Y-84425656D01*
X140396235Y-84421104D01*
X140343608Y-84388673D01*
X140435203Y-84285990D01*
X140487736Y-84243174D01*
X140755084Y-83944913D01*
X140953701Y-83556461D01*
X141046419Y-83154568D01*
X141048997Y-83084193D01*
X141016134Y-82813932D01*
X140974255Y-82717382D01*
X140195185Y-82717382D01*
X140123417Y-83006790D01*
X139985693Y-83319580D01*
X139822977Y-83593539D01*
X139666809Y-83717304D01*
X139477741Y-83704239D01*
X139229366Y-83575803D01*
X139016876Y-83393947D01*
X138815434Y-83143444D01*
X138767917Y-83066104D01*
X138654845Y-82857435D01*
X138623720Y-82756732D01*
X138671742Y-82724706D01*
X138743398Y-82722107D01*
X138913512Y-82774706D01*
X139126866Y-82905452D01*
X139182866Y-82949845D01*
X139453517Y-83177583D01*
X139612729Y-82971082D01*
X139745404Y-82771878D01*
X139821545Y-82615920D01*
X139937409Y-82491623D01*
X140035323Y-82467258D01*
X140166121Y-82532372D01*
X140195185Y-82717382D01*
X140974255Y-82717382D01*
X140902445Y-82551831D01*
X140685277Y-82253195D01*
X140547507Y-82094703D01*
X140326923Y-81849573D01*
X140581772Y-81908899D01*
X140803371Y-81977890D01*
X141098011Y-82091155D01*
X141291873Y-82174808D01*
X141548393Y-82301795D01*
X141672463Y-82398571D01*
X141692044Y-82490909D01*
X141677757Y-82530512D01*
X141619822Y-82795529D01*
X141627616Y-83158919D01*
X141699048Y-83563277D01*
X141718025Y-83634293D01*
X141884332Y-83964040D01*
X142151771Y-84217476D01*
X142479329Y-84376823D01*
X142825992Y-84424306D01*
X143150749Y-84342148D01*
X143234741Y-84291698D01*
X143377376Y-84211324D01*
X143462981Y-84254387D01*
X143519744Y-84349612D01*
X143615940Y-84591717D01*
X143712592Y-84933257D01*
X143793418Y-85304593D01*
X143842134Y-85636088D01*
X143849315Y-85759064D01*
X144049639Y-85759064D01*
X144039611Y-85409840D01*
X143994820Y-84986207D01*
X143905241Y-84626687D01*
X143755364Y-84278667D01*
X143529678Y-83889533D01*
X143378671Y-83655683D01*
X142828207Y-82970823D01*
X142152868Y-82386516D01*
X141421595Y-81946457D01*
X141129038Y-81811375D01*
X140876436Y-81724441D01*
X140605083Y-81672639D01*
X140256275Y-81642955D01*
X139998043Y-81630852D01*
X139236010Y-81631361D01*
G36*
X136589130Y-89842436D02*
X136415049Y-89987640D01*
X136398992Y-90193187D01*
X136540983Y-90459924D01*
X136608527Y-90545052D01*
X136840299Y-90820496D01*
X136608527Y-90762325D01*
X136441146Y-90739752D01*
X136381474Y-90807161D01*
X136376756Y-90875673D01*
X136398649Y-90978475D01*
X136492245Y-91029751D01*
X136699413Y-91046409D01*
X136801505Y-91047191D01*
X137085166Y-91028800D01*
X137214811Y-90971527D01*
X137226254Y-90936430D01*
X137169244Y-90816150D01*
X137024448Y-90635970D01*
X136928930Y-90537492D01*
X136754123Y-90344935D01*
X136647228Y-90182612D01*
X136631605Y-90129099D01*
X136674208Y-90053356D01*
X136825691Y-90048021D01*
X136928930Y-90064663D01*
X137149645Y-90076118D01*
X137226079Y-90018740D01*
X137148528Y-89917915D01*
X137013879Y-89842436D01*
X136775987Y-89789034D01*
X136589130Y-89842436D01*
X136589130Y-89842436D01*
G37*
X136589130Y-89842436D02*
X136415049Y-89987640D01*
X136398992Y-90193187D01*
X136540983Y-90459924D01*
X136608527Y-90545052D01*
X136840299Y-90820496D01*
X136608527Y-90762325D01*
X136441146Y-90739752D01*
X136381474Y-90807161D01*
X136376756Y-90875673D01*
X136398649Y-90978475D01*
X136492245Y-91029751D01*
X136699413Y-91046409D01*
X136801505Y-91047191D01*
X137085166Y-91028800D01*
X137214811Y-90971527D01*
X137226254Y-90936430D01*
X137169244Y-90816150D01*
X137024448Y-90635970D01*
X136928930Y-90537492D01*
X136754123Y-90344935D01*
X136647228Y-90182612D01*
X136631605Y-90129099D01*
X136674208Y-90053356D01*
X136825691Y-90048021D01*
X136928930Y-90064663D01*
X137149645Y-90076118D01*
X137226079Y-90018740D01*
X137148528Y-89917915D01*
X137013879Y-89842436D01*
X136775987Y-89789034D01*
X136589130Y-89842436D01*
G36*
X135294975Y-89849893D02*
X135114425Y-90050053D01*
X135022435Y-90327388D01*
X135017558Y-90410067D01*
X135079118Y-90700420D01*
X135239246Y-90926108D01*
X135461114Y-91041095D01*
X135527257Y-91047191D01*
X135712188Y-90989535D01*
X135867057Y-90877291D01*
X136004988Y-90643172D01*
X136032303Y-90368741D01*
X136012000Y-90289746D01*
X135759415Y-90289746D01*
X135754579Y-90546439D01*
X135745684Y-90586098D01*
X135641348Y-90756656D01*
X135527257Y-90792341D01*
X135370321Y-90716200D01*
X135308831Y-90586098D01*
X135290030Y-90323504D01*
X135360638Y-90122230D01*
X135502202Y-90029442D01*
X135527257Y-90027793D01*
X135677490Y-90101142D01*
X135759415Y-90289746D01*
X136012000Y-90289746D01*
X135963627Y-90101537D01*
X135813590Y-89889101D01*
X135596819Y-89778973D01*
X135527257Y-89772943D01*
X135294975Y-89849893D01*
X135294975Y-89849893D01*
G37*
X135294975Y-89849893D02*
X135114425Y-90050053D01*
X135022435Y-90327388D01*
X135017558Y-90410067D01*
X135079118Y-90700420D01*
X135239246Y-90926108D01*
X135461114Y-91041095D01*
X135527257Y-91047191D01*
X135712188Y-90989535D01*
X135867057Y-90877291D01*
X136004988Y-90643172D01*
X136032303Y-90368741D01*
X136012000Y-90289746D01*
X135759415Y-90289746D01*
X135754579Y-90546439D01*
X135745684Y-90586098D01*
X135641348Y-90756656D01*
X135527257Y-90792341D01*
X135370321Y-90716200D01*
X135308831Y-90586098D01*
X135290030Y-90323504D01*
X135360638Y-90122230D01*
X135502202Y-90029442D01*
X135527257Y-90027793D01*
X135677490Y-90101142D01*
X135759415Y-90289746D01*
X136012000Y-90289746D01*
X135963627Y-90101537D01*
X135813590Y-89889101D01*
X135596819Y-89778973D01*
X135527257Y-89772943D01*
X135294975Y-89849893D01*
G36*
X138010525Y-87083369D02*
X137934435Y-87265996D01*
X137956334Y-87510777D01*
X138063822Y-87750714D01*
X138153337Y-87854907D01*
X138283328Y-87944182D01*
X138376771Y-87906060D01*
X138403336Y-87876291D01*
X138457507Y-87738186D01*
X138420820Y-87525412D01*
X138403191Y-87470636D01*
X138286739Y-87176134D01*
X138181221Y-87035464D01*
X138072267Y-87034452D01*
X138010525Y-87083369D01*
X138010525Y-87083369D01*
G37*
X138010525Y-87083369D02*
X137934435Y-87265996D01*
X137956334Y-87510777D01*
X138063822Y-87750714D01*
X138153337Y-87854907D01*
X138283328Y-87944182D01*
X138376771Y-87906060D01*
X138403336Y-87876291D01*
X138457507Y-87738186D01*
X138420820Y-87525412D01*
X138403191Y-87470636D01*
X138286739Y-87176134D01*
X138181221Y-87035464D01*
X138072267Y-87034452D01*
X138010525Y-87083369D01*
G36*
X137443842Y-87221842D02*
X137426555Y-87234468D01*
X137362102Y-87380805D01*
X137377378Y-87592818D01*
X137452745Y-87806036D01*
X137568565Y-87955990D01*
X137656391Y-87988997D01*
X137758503Y-87926962D01*
X137792532Y-87882810D01*
X137838651Y-87702391D01*
X137800896Y-87500123D01*
X137705213Y-87321967D01*
X137577547Y-87213886D01*
X137443842Y-87221842D01*
X137443842Y-87221842D01*
G37*
X137443842Y-87221842D02*
X137426555Y-87234468D01*
X137362102Y-87380805D01*
X137377378Y-87592818D01*
X137452745Y-87806036D01*
X137568565Y-87955990D01*
X137656391Y-87988997D01*
X137758503Y-87926962D01*
X137792532Y-87882810D01*
X137838651Y-87702391D01*
X137800896Y-87500123D01*
X137705213Y-87321967D01*
X137577547Y-87213886D01*
X137443842Y-87221842D01*
G36*
X138401908Y-86487437D02*
X138200009Y-86558146D01*
X138104217Y-86654174D01*
X138133123Y-86743803D01*
X138254367Y-86782354D01*
X138475877Y-86798550D01*
X138735310Y-86794193D01*
X138970324Y-86771087D01*
X139118576Y-86731036D01*
X139137625Y-86714749D01*
X139155700Y-86579036D01*
X139014853Y-86493452D01*
X138719175Y-86460256D01*
X138675789Y-86459900D01*
X138401908Y-86487437D01*
X138401908Y-86487437D01*
G37*
X138401908Y-86487437D02*
X138200009Y-86558146D01*
X138104217Y-86654174D01*
X138133123Y-86743803D01*
X138254367Y-86782354D01*
X138475877Y-86798550D01*
X138735310Y-86794193D01*
X138970324Y-86771087D01*
X139118576Y-86731036D01*
X139137625Y-86714749D01*
X139155700Y-86579036D01*
X139014853Y-86493452D01*
X138719175Y-86460256D01*
X138675789Y-86459900D01*
X138401908Y-86487437D01*
G36*
X141678090Y-86391579D02*
X141383379Y-86417569D01*
X141221238Y-86465106D01*
X141154589Y-86546437D01*
X141149781Y-86566087D01*
X141155341Y-86646646D01*
X141233601Y-86691762D01*
X141418969Y-86711176D01*
X141674878Y-86714749D01*
X141970124Y-86701473D01*
X142190928Y-86666667D01*
X142285344Y-86622398D01*
X142298488Y-86494260D01*
X142154200Y-86415026D01*
X141858415Y-86386952D01*
X141678090Y-86391579D01*
X141678090Y-86391579D01*
G37*
X141678090Y-86391579D02*
X141383379Y-86417569D01*
X141221238Y-86465106D01*
X141154589Y-86546437D01*
X141149781Y-86566087D01*
X141155341Y-86646646D01*
X141233601Y-86691762D01*
X141418969Y-86711176D01*
X141674878Y-86714749D01*
X141970124Y-86701473D01*
X142190928Y-86666667D01*
X142285344Y-86622398D01*
X142298488Y-86494260D01*
X142154200Y-86415026D01*
X141858415Y-86386952D01*
X141678090Y-86391579D01*
D13*
X144680000Y-104545000D02*
X145880000Y-104545000D01*
X145880000Y-102795000D02*
X144680000Y-102795000D01*
X130150000Y-86250000D02*
X130150000Y-83450000D01*
X130150000Y-83450000D02*
X128750000Y-83450000D01*
X128750000Y-83450000D02*
X128750000Y-86250000D01*
X128750000Y-86250000D02*
X130150000Y-86250000D01*
X131200000Y-81850000D02*
X130550000Y-81850000D01*
X127700000Y-81850000D02*
X128350000Y-81850000D01*
X128350000Y-87850000D02*
X127700000Y-87850000D01*
X131200000Y-87850000D02*
X130550000Y-87850000D01*
X131200000Y-81850000D02*
X131200000Y-87850000D01*
X127700000Y-87850000D02*
X127700000Y-81850000D01*
X153848427Y-136764874D02*
X152434214Y-135350660D01*
X154025204Y-136588097D02*
X153848427Y-136764874D01*
X154732311Y-135880990D02*
X154025204Y-136588097D01*
X153318097Y-134466777D02*
X154732311Y-135880990D01*
X152964544Y-129870583D02*
X155439417Y-132345456D01*
X146600583Y-136234544D02*
X152964544Y-129870583D01*
X149075456Y-138709417D02*
X146600583Y-136234544D01*
X155439417Y-132345456D02*
X149075456Y-138709417D01*
X143426000Y-137854001D02*
X145426000Y-136854001D01*
X129426000Y-137854001D02*
X143426000Y-137854001D01*
X127426000Y-136854001D02*
X129426000Y-137854001D01*
X147426000Y-133854001D02*
X147426000Y-130854001D01*
X125426000Y-133854001D02*
X125426000Y-130854001D01*
X145426000Y-136854001D02*
X147426000Y-133854001D01*
X125426000Y-133854001D02*
X127426000Y-136854001D01*
X136426000Y-117854001D02*
X145426000Y-116854001D01*
X127426000Y-116854001D02*
X136426000Y-117854001D01*
X125426000Y-130854001D02*
X125426000Y-124854001D01*
X147426000Y-124854001D02*
X147426000Y-130854001D01*
X147426000Y-118854001D02*
X147426000Y-124854001D01*
X145426000Y-116854001D02*
X147426000Y-118854001D01*
X125426000Y-118854001D02*
X127426000Y-116854001D01*
X125426000Y-124854001D02*
X125426000Y-118854001D01*
X146475876Y-127854001D02*
G75*
G03X146475876Y-127854001I-10049876J0D01*
G01*
X141836666Y-110607143D02*
X141884285Y-110654762D01*
X142027142Y-110702381D01*
X142122380Y-110702381D01*
X142265238Y-110654762D01*
X142360476Y-110559524D01*
X142408095Y-110464286D01*
X142455714Y-110273810D01*
X142455714Y-110130952D01*
X142408095Y-109940476D01*
X142360476Y-109845238D01*
X142265238Y-109750000D01*
X142122380Y-109702381D01*
X142027142Y-109702381D01*
X141884285Y-109750000D01*
X141836666Y-109797619D01*
X140884285Y-110702381D02*
X141455714Y-110702381D01*
X141170000Y-110702381D02*
X141170000Y-109702381D01*
X141265238Y-109845238D01*
X141360476Y-109940476D01*
X141455714Y-109988095D01*
X158427143Y-104153334D02*
X158474762Y-104105715D01*
X158522381Y-103962858D01*
X158522381Y-103867620D01*
X158474762Y-103724762D01*
X158379524Y-103629524D01*
X158284286Y-103581905D01*
X158093810Y-103534286D01*
X157950952Y-103534286D01*
X157760476Y-103581905D01*
X157665238Y-103629524D01*
X157570000Y-103724762D01*
X157522381Y-103867620D01*
X157522381Y-103962858D01*
X157570000Y-104105715D01*
X157617619Y-104153334D01*
X157617619Y-104534286D02*
X157570000Y-104581905D01*
X157522381Y-104677143D01*
X157522381Y-104915239D01*
X157570000Y-105010477D01*
X157617619Y-105058096D01*
X157712857Y-105105715D01*
X157808095Y-105105715D01*
X157950952Y-105058096D01*
X158522381Y-104486667D01*
X158522381Y-105105715D01*
X158472381Y-93573334D02*
X157996190Y-93240000D01*
X158472381Y-93001905D02*
X157472381Y-93001905D01*
X157472381Y-93382858D01*
X157520000Y-93478096D01*
X157567619Y-93525715D01*
X157662857Y-93573334D01*
X157805714Y-93573334D01*
X157900952Y-93525715D01*
X157948571Y-93478096D01*
X157996190Y-93382858D01*
X157996190Y-93001905D01*
X158472381Y-94525715D02*
X158472381Y-93954286D01*
X158472381Y-94240000D02*
X157472381Y-94240000D01*
X157615238Y-94144762D01*
X157710476Y-94049524D01*
X157758095Y-93954286D01*
X156202381Y-93403334D02*
X155726190Y-93070000D01*
X156202381Y-92831905D02*
X155202381Y-92831905D01*
X155202381Y-93212858D01*
X155250000Y-93308096D01*
X155297619Y-93355715D01*
X155392857Y-93403334D01*
X155535714Y-93403334D01*
X155630952Y-93355715D01*
X155678571Y-93308096D01*
X155726190Y-93212858D01*
X155726190Y-92831905D01*
X155297619Y-93784286D02*
X155250000Y-93831905D01*
X155202381Y-93927143D01*
X155202381Y-94165239D01*
X155250000Y-94260477D01*
X155297619Y-94308096D01*
X155392857Y-94355715D01*
X155488095Y-94355715D01*
X155630952Y-94308096D01*
X156202381Y-93736667D01*
X156202381Y-94355715D01*
X153912381Y-93413334D02*
X153436190Y-93080000D01*
X153912381Y-92841905D02*
X152912381Y-92841905D01*
X152912381Y-93222858D01*
X152960000Y-93318096D01*
X153007619Y-93365715D01*
X153102857Y-93413334D01*
X153245714Y-93413334D01*
X153340952Y-93365715D01*
X153388571Y-93318096D01*
X153436190Y-93222858D01*
X153436190Y-92841905D01*
X152912381Y-93746667D02*
X152912381Y-94365715D01*
X153293333Y-94032381D01*
X153293333Y-94175239D01*
X153340952Y-94270477D01*
X153388571Y-94318096D01*
X153483810Y-94365715D01*
X153721905Y-94365715D01*
X153817143Y-94318096D01*
X153864762Y-94270477D01*
X153912381Y-94175239D01*
X153912381Y-93889524D01*
X153864762Y-93794286D01*
X153817143Y-93746667D01*
X151572381Y-93403334D02*
X151096190Y-93070000D01*
X151572381Y-92831905D02*
X150572381Y-92831905D01*
X150572381Y-93212858D01*
X150620000Y-93308096D01*
X150667619Y-93355715D01*
X150762857Y-93403334D01*
X150905714Y-93403334D01*
X151000952Y-93355715D01*
X151048571Y-93308096D01*
X151096190Y-93212858D01*
X151096190Y-92831905D01*
X150905714Y-94260477D02*
X151572381Y-94260477D01*
X150524762Y-94022381D02*
X151239048Y-93784286D01*
X151239048Y-94403334D01*
X149182381Y-93353334D02*
X148706190Y-93020000D01*
X149182381Y-92781905D02*
X148182381Y-92781905D01*
X148182381Y-93162858D01*
X148230000Y-93258096D01*
X148277619Y-93305715D01*
X148372857Y-93353334D01*
X148515714Y-93353334D01*
X148610952Y-93305715D01*
X148658571Y-93258096D01*
X148706190Y-93162858D01*
X148706190Y-92781905D01*
X148182381Y-94258096D02*
X148182381Y-93781905D01*
X148658571Y-93734286D01*
X148610952Y-93781905D01*
X148563333Y-93877143D01*
X148563333Y-94115239D01*
X148610952Y-94210477D01*
X148658571Y-94258096D01*
X148753810Y-94305715D01*
X148991905Y-94305715D01*
X149087143Y-94258096D01*
X149134762Y-94210477D01*
X149182381Y-94115239D01*
X149182381Y-93877143D01*
X149134762Y-93781905D01*
X149087143Y-93734286D01*
X147062381Y-93243334D02*
X146586190Y-92910000D01*
X147062381Y-92671905D02*
X146062381Y-92671905D01*
X146062381Y-93052858D01*
X146110000Y-93148096D01*
X146157619Y-93195715D01*
X146252857Y-93243334D01*
X146395714Y-93243334D01*
X146490952Y-93195715D01*
X146538571Y-93148096D01*
X146586190Y-93052858D01*
X146586190Y-92671905D01*
X146062381Y-94100477D02*
X146062381Y-93910000D01*
X146110000Y-93814762D01*
X146157619Y-93767143D01*
X146300476Y-93671905D01*
X146490952Y-93624286D01*
X146871905Y-93624286D01*
X146967143Y-93671905D01*
X147014762Y-93719524D01*
X147062381Y-93814762D01*
X147062381Y-94005239D01*
X147014762Y-94100477D01*
X146967143Y-94148096D01*
X146871905Y-94195715D01*
X146633810Y-94195715D01*
X146538571Y-94148096D01*
X146490952Y-94100477D01*
X146443333Y-94005239D01*
X146443333Y-93814762D01*
X146490952Y-93719524D01*
X146538571Y-93671905D01*
X146633810Y-93624286D01*
X148622381Y-109793334D02*
X148146190Y-109460000D01*
X148622381Y-109221905D02*
X147622381Y-109221905D01*
X147622381Y-109602858D01*
X147670000Y-109698096D01*
X147717619Y-109745715D01*
X147812857Y-109793334D01*
X147955714Y-109793334D01*
X148050952Y-109745715D01*
X148098571Y-109698096D01*
X148146190Y-109602858D01*
X148146190Y-109221905D01*
X147622381Y-110126667D02*
X147622381Y-110793334D01*
X148622381Y-110364762D01*
X150922381Y-109753334D02*
X150446190Y-109420000D01*
X150922381Y-109181905D02*
X149922381Y-109181905D01*
X149922381Y-109562858D01*
X149970000Y-109658096D01*
X150017619Y-109705715D01*
X150112857Y-109753334D01*
X150255714Y-109753334D01*
X150350952Y-109705715D01*
X150398571Y-109658096D01*
X150446190Y-109562858D01*
X150446190Y-109181905D01*
X150350952Y-110324762D02*
X150303333Y-110229524D01*
X150255714Y-110181905D01*
X150160476Y-110134286D01*
X150112857Y-110134286D01*
X150017619Y-110181905D01*
X149970000Y-110229524D01*
X149922381Y-110324762D01*
X149922381Y-110515239D01*
X149970000Y-110610477D01*
X150017619Y-110658096D01*
X150112857Y-110705715D01*
X150160476Y-110705715D01*
X150255714Y-110658096D01*
X150303333Y-110610477D01*
X150350952Y-110515239D01*
X150350952Y-110324762D01*
X150398571Y-110229524D01*
X150446190Y-110181905D01*
X150541429Y-110134286D01*
X150731905Y-110134286D01*
X150827143Y-110181905D01*
X150874762Y-110229524D01*
X150922381Y-110324762D01*
X150922381Y-110515239D01*
X150874762Y-110610477D01*
X150827143Y-110658096D01*
X150731905Y-110705715D01*
X150541429Y-110705715D01*
X150446190Y-110658096D01*
X150398571Y-110610477D01*
X150350952Y-110515239D01*
X153222381Y-109673334D02*
X152746190Y-109340000D01*
X153222381Y-109101905D02*
X152222381Y-109101905D01*
X152222381Y-109482858D01*
X152270000Y-109578096D01*
X152317619Y-109625715D01*
X152412857Y-109673334D01*
X152555714Y-109673334D01*
X152650952Y-109625715D01*
X152698571Y-109578096D01*
X152746190Y-109482858D01*
X152746190Y-109101905D01*
X153222381Y-110149524D02*
X153222381Y-110340000D01*
X153174762Y-110435239D01*
X153127143Y-110482858D01*
X152984286Y-110578096D01*
X152793810Y-110625715D01*
X152412857Y-110625715D01*
X152317619Y-110578096D01*
X152270000Y-110530477D01*
X152222381Y-110435239D01*
X152222381Y-110244762D01*
X152270000Y-110149524D01*
X152317619Y-110101905D01*
X152412857Y-110054286D01*
X152650952Y-110054286D01*
X152746190Y-110101905D01*
X152793810Y-110149524D01*
X152841429Y-110244762D01*
X152841429Y-110435239D01*
X152793810Y-110530477D01*
X152746190Y-110578096D01*
X152650952Y-110625715D01*
X147202857Y-100398571D02*
X146002857Y-100398571D01*
X147088571Y-101655715D02*
X147145714Y-101598572D01*
X147202857Y-101427143D01*
X147202857Y-101312857D01*
X147145714Y-101141429D01*
X147031429Y-101027143D01*
X146917143Y-100970000D01*
X146688571Y-100912857D01*
X146517143Y-100912857D01*
X146288571Y-100970000D01*
X146174286Y-101027143D01*
X146060000Y-101141429D01*
X146002857Y-101312857D01*
X146002857Y-101427143D01*
X146060000Y-101598572D01*
X146117143Y-101655715D01*
X147202857Y-102798572D02*
X147202857Y-102112857D01*
X147202857Y-102455715D02*
X146002857Y-102455715D01*
X146174286Y-102341429D01*
X146288571Y-102227143D01*
X146345714Y-102112857D01*
X149052857Y-104202381D02*
X149386191Y-103726190D01*
X149624286Y-104202381D02*
X149624286Y-103202381D01*
X149243333Y-103202381D01*
X149148095Y-103250000D01*
X149100476Y-103297619D01*
X149052857Y-103392857D01*
X149052857Y-103535714D01*
X149100476Y-103630952D01*
X149148095Y-103678571D01*
X149243333Y-103726190D01*
X149624286Y-103726190D01*
X148100476Y-104202381D02*
X148671905Y-104202381D01*
X148386191Y-104202381D02*
X148386191Y-103202381D01*
X148481429Y-103345238D01*
X148576667Y-103440476D01*
X148671905Y-103488095D01*
X147481429Y-103202381D02*
X147386190Y-103202381D01*
X147290952Y-103250000D01*
X147243333Y-103297619D01*
X147195714Y-103392857D01*
X147148095Y-103583333D01*
X147148095Y-103821429D01*
X147195714Y-104011905D01*
X147243333Y-104107143D01*
X147290952Y-104154762D01*
X147386190Y-104202381D01*
X147481429Y-104202381D01*
X147576667Y-104154762D01*
X147624286Y-104107143D01*
X147671905Y-104011905D01*
X147719524Y-103821429D01*
X147719524Y-103583333D01*
X147671905Y-103392857D01*
X147624286Y-103297619D01*
X147576667Y-103250000D01*
X147481429Y-103202381D01*
X154492381Y-125686190D02*
X154492381Y-125876667D01*
X154540000Y-125971905D01*
X154635238Y-126067143D01*
X154825714Y-126114762D01*
X155159048Y-126114762D01*
X155349524Y-126067143D01*
X155444762Y-125971905D01*
X155492381Y-125876667D01*
X155492381Y-125686190D01*
X155444762Y-125590952D01*
X155349524Y-125495714D01*
X155159048Y-125448095D01*
X154825714Y-125448095D01*
X154635238Y-125495714D01*
X154540000Y-125590952D01*
X154492381Y-125686190D01*
X155492381Y-126543333D02*
X154492381Y-126543333D01*
X155492381Y-127114762D01*
X154492381Y-127114762D01*
X154444762Y-128305238D02*
X155730476Y-127448095D01*
X154492381Y-128829047D02*
X154492381Y-129019524D01*
X154540000Y-129114762D01*
X154635238Y-129210000D01*
X154825714Y-129257619D01*
X155159048Y-129257619D01*
X155349524Y-129210000D01*
X155444762Y-129114762D01*
X155492381Y-129019524D01*
X155492381Y-128829047D01*
X155444762Y-128733809D01*
X155349524Y-128638571D01*
X155159048Y-128590952D01*
X154825714Y-128590952D01*
X154635238Y-128638571D01*
X154540000Y-128733809D01*
X154492381Y-128829047D01*
X154968571Y-130019524D02*
X154968571Y-129686190D01*
X155492381Y-129686190D02*
X154492381Y-129686190D01*
X154492381Y-130162381D01*
X154968571Y-130876667D02*
X154968571Y-130543333D01*
X155492381Y-130543333D02*
X154492381Y-130543333D01*
X154492381Y-131019524D01*
X137211714Y-127282573D02*
X137068857Y-127330192D01*
X137021238Y-127377812D01*
X136973619Y-127473050D01*
X136973619Y-127615907D01*
X137021238Y-127711145D01*
X137068857Y-127758764D01*
X137164095Y-127806383D01*
X137545048Y-127806383D01*
X137545048Y-126806383D01*
X137211714Y-126806383D01*
X137116476Y-126854002D01*
X137068857Y-126901621D01*
X137021238Y-126996859D01*
X137021238Y-127092097D01*
X137068857Y-127187335D01*
X137116476Y-127234954D01*
X137211714Y-127282573D01*
X137545048Y-127282573D01*
X136687905Y-126806383D02*
X136116476Y-126806383D01*
X136402191Y-127806383D02*
X136402191Y-126806383D01*
X135259333Y-127806383D02*
X135830762Y-127806383D01*
X135545048Y-127806383D02*
X135545048Y-126806383D01*
X135640286Y-126949240D01*
X135735524Y-127044478D01*
X135830762Y-127092097D01*
M02*
