G04 #@! TF.FileFunction,Profile,NP*
%FSLAX46Y46*%
G04 Gerber Fmt 4.6, Leading zero omitted, Abs format (unit mm)*
G04 Created by KiCad (PCBNEW 4.0.5+dfsg1-4) date Sun Sep 22 01:55:02 2019*
%MOMM*%
%LPD*%
G01*
G04 APERTURE LIST*
%ADD10C,0.100000*%
G04 APERTURE END LIST*
D10*
X135672421Y-141921116D02*
X135025389Y-141832416D01*
X135025389Y-141832416D02*
X134316972Y-141718351D01*
X134316972Y-141718351D02*
X133585642Y-141585231D01*
X133585642Y-141585231D02*
X132869876Y-141439363D01*
X132869876Y-141439363D02*
X132208147Y-141287056D01*
X132208147Y-141287056D02*
X131638930Y-141134619D01*
X131638930Y-141134619D02*
X131200700Y-140988360D01*
X131200700Y-140988360D02*
X131042728Y-140919520D01*
X131042728Y-140919520D02*
X130931931Y-140854590D01*
X130931931Y-140854590D02*
X130797893Y-140794510D01*
X130797893Y-140794510D02*
X130553602Y-140712160D01*
X130553602Y-140712160D02*
X130267718Y-140631320D01*
X130267718Y-140631320D02*
X130008901Y-140575760D01*
X130008901Y-140575760D02*
X129460359Y-140467654D01*
X129460359Y-140467654D02*
X128893379Y-140315190D01*
X128893379Y-140315190D02*
X128306935Y-140121361D01*
X128306935Y-140121361D02*
X127699998Y-139889158D01*
X127699998Y-139889158D02*
X127071541Y-139621573D01*
X127071541Y-139621573D02*
X126420536Y-139321599D01*
X126420536Y-139321599D02*
X125046771Y-138636449D01*
X125046771Y-138636449D02*
X124535018Y-138351508D01*
X124535018Y-138351508D02*
X123927302Y-137981001D01*
X123927302Y-137981001D02*
X123265558Y-137553840D01*
X123265558Y-137553840D02*
X122591723Y-137098940D01*
X122591723Y-137098940D02*
X121947732Y-136645214D01*
X121947732Y-136645214D02*
X121375519Y-136221576D01*
X121375519Y-136221576D02*
X120917020Y-135856941D01*
X120917020Y-135856941D02*
X120614171Y-135580221D01*
X120614171Y-135580221D02*
X120315025Y-135250531D01*
X120315025Y-135250531D02*
X120010689Y-134889147D01*
X120010689Y-134889147D02*
X119392691Y-134081774D01*
X119392691Y-134081774D02*
X118772661Y-133179057D01*
X118772661Y-133179057D02*
X118163086Y-132201953D01*
X118163086Y-132201953D02*
X117576452Y-131171416D01*
X117576452Y-131171416D02*
X117025244Y-130108403D01*
X117025244Y-130108403D02*
X116521948Y-129033869D01*
X116521948Y-129033869D02*
X116079051Y-127968769D01*
X116079051Y-127968769D02*
X115813685Y-127192023D01*
X115813685Y-127192023D02*
X115637071Y-126644247D01*
X115637071Y-126644247D02*
X114851051Y-123923258D01*
X114851051Y-123923258D02*
X114704019Y-123377545D01*
X114704019Y-123377545D02*
X114557889Y-122744575D01*
X114557889Y-122744575D02*
X114413736Y-122030713D01*
X114413736Y-122030713D02*
X114272636Y-121242323D01*
X114272636Y-121242323D02*
X114003898Y-119467422D01*
X114003898Y-119467422D02*
X113760281Y-117470788D01*
X113760281Y-117470788D02*
X113659795Y-116333215D01*
X113659795Y-116333215D02*
X113601545Y-115157308D01*
X113601545Y-115157308D02*
X113585175Y-113952798D01*
X113585175Y-113952798D02*
X113610315Y-112729414D01*
X113610315Y-112729414D02*
X113676605Y-111496888D01*
X113676605Y-111496888D02*
X113783681Y-110264951D01*
X113783681Y-110264951D02*
X113931183Y-109043333D01*
X113931183Y-109043333D02*
X114118748Y-107841764D01*
X114118748Y-107841764D02*
X114297726Y-106737864D01*
X114297726Y-106737864D02*
X114343046Y-106392933D01*
X114343046Y-106392933D02*
X114348846Y-106255418D01*
X114348846Y-106255418D02*
X114258856Y-106255552D01*
X114258856Y-106255552D02*
X114043279Y-106285392D01*
X114043279Y-106285392D02*
X113364595Y-106413471D01*
X113364595Y-106413471D02*
X112974684Y-106483811D01*
X112974684Y-106483811D02*
X112605346Y-106526181D01*
X112605346Y-106526181D02*
X112252206Y-106540211D01*
X112252206Y-106540211D02*
X111910889Y-106525511D01*
X111910889Y-106525511D02*
X111577021Y-106481711D01*
X111577021Y-106481711D02*
X111246233Y-106408421D01*
X111246233Y-106408421D02*
X110914139Y-106305276D01*
X110914139Y-106305276D02*
X110576371Y-106171894D01*
X110576371Y-106171894D02*
X109765694Y-105841926D01*
X109765694Y-105841926D02*
X108675011Y-105421578D01*
X108675011Y-105421578D02*
X108077598Y-105172283D01*
X108077598Y-105172283D02*
X107404644Y-104851816D01*
X107404644Y-104851816D02*
X106738608Y-104501489D01*
X106738608Y-104501489D02*
X106161951Y-104162614D01*
X106161951Y-104162614D02*
X105038834Y-103465196D01*
X105038834Y-103465196D02*
X104055981Y-102875691D01*
X104055981Y-102875691D02*
X103661216Y-102634428D01*
X103661216Y-102634428D02*
X103207651Y-102337949D01*
X103207651Y-102337949D02*
X102252030Y-101671891D01*
X102252030Y-101671891D02*
X101444945Y-101062609D01*
X101444945Y-101062609D02*
X101177049Y-100837102D01*
X101177049Y-100837102D02*
X101042221Y-100695199D01*
X101042221Y-100695199D02*
X100838844Y-100431968D01*
X100838844Y-100431968D02*
X100480651Y-100008812D01*
X100480651Y-100008812D02*
X99980424Y-99419472D01*
X99980424Y-99419472D02*
X99495778Y-98816786D01*
X99495778Y-98816786D02*
X99027691Y-98202512D01*
X99027691Y-98202512D02*
X98577142Y-97578411D01*
X98577142Y-97578411D02*
X98145108Y-96946240D01*
X98145108Y-96946240D02*
X97732568Y-96307759D01*
X97732568Y-96307759D02*
X97340499Y-95664727D01*
X97340499Y-95664727D02*
X96969880Y-95018902D01*
X96969880Y-95018902D02*
X96621689Y-94372045D01*
X96621689Y-94372045D02*
X96296903Y-93725913D01*
X96296903Y-93725913D02*
X95996501Y-93082265D01*
X95996501Y-93082265D02*
X95721461Y-92442861D01*
X95721461Y-92442861D02*
X95472761Y-91809460D01*
X95472761Y-91809460D02*
X95251379Y-91183821D01*
X95251379Y-91183821D02*
X95058293Y-90567702D01*
X95058293Y-90567702D02*
X94894481Y-89962863D01*
X94894481Y-89962863D02*
X94664032Y-88980819D01*
X94664032Y-88980819D02*
X94588655Y-88589558D01*
X94588655Y-88589558D02*
X94535796Y-88231601D01*
X94535796Y-88231601D02*
X94502420Y-87882044D01*
X94502420Y-87882044D02*
X94485492Y-87515985D01*
X94485492Y-87515985D02*
X94488842Y-86634746D01*
X94488842Y-86634746D02*
X94505910Y-86206974D01*
X94505910Y-86206974D02*
X94538714Y-85765193D01*
X94538714Y-85765193D02*
X94649137Y-84849041D01*
X94649137Y-84849041D02*
X94815327Y-83905170D01*
X94815327Y-83905170D02*
X95032496Y-82952456D01*
X95032496Y-82952456D02*
X95295859Y-82009779D01*
X95295859Y-82009779D02*
X95600631Y-81096017D01*
X95600631Y-81096017D02*
X95942024Y-80230049D01*
X95942024Y-80230049D02*
X96315252Y-79430753D01*
X96315252Y-79430753D02*
X96833894Y-78479280D01*
X96833894Y-78479280D02*
X97459502Y-77437775D01*
X97459502Y-77437775D02*
X98162589Y-76348061D01*
X98162589Y-76348061D02*
X98913665Y-75251963D01*
X98913665Y-75251963D02*
X99683243Y-74191303D01*
X99683243Y-74191303D02*
X100441834Y-73207905D01*
X100441834Y-73207905D02*
X101159950Y-72343594D01*
X101159950Y-72343594D02*
X101494615Y-71969165D01*
X101494615Y-71969165D02*
X101808102Y-71640192D01*
X101808102Y-71640192D02*
X102240961Y-71215205D01*
X102240961Y-71215205D02*
X102696539Y-70790775D01*
X102696539Y-70790775D02*
X103668570Y-69948664D01*
X103668570Y-69948664D02*
X104709627Y-69124019D01*
X104709627Y-69124019D02*
X105805147Y-68327000D01*
X105805147Y-68327000D02*
X106940563Y-67567770D01*
X106940563Y-67567770D02*
X108101310Y-66856487D01*
X108101310Y-66856487D02*
X109272822Y-66203313D01*
X109272822Y-66203313D02*
X109858062Y-65901692D01*
X109858062Y-65901692D02*
X110440532Y-65618409D01*
X110440532Y-65618409D02*
X114018287Y-63948449D01*
X114018287Y-63948449D02*
X115151995Y-63435895D01*
X115151995Y-63435895D02*
X115905842Y-63112190D01*
X115905842Y-63112190D02*
X117715072Y-62319111D01*
X117715072Y-62319111D02*
X117940699Y-62261661D01*
X117940699Y-62261661D02*
X118348877Y-62105243D01*
X118348877Y-62105243D02*
X118881660Y-61873744D01*
X118881660Y-61873744D02*
X119481102Y-61591054D01*
X119481102Y-61591054D02*
X120187159Y-61258905D01*
X120187159Y-61258905D02*
X121010244Y-60892740D01*
X121010244Y-60892740D02*
X121848071Y-60537016D01*
X121848071Y-60537016D02*
X122598352Y-60236189D01*
X122598352Y-60236189D02*
X124268352Y-59579254D01*
X124268352Y-59579254D02*
X125994392Y-58880015D01*
X125994392Y-58880015D02*
X129526272Y-57426082D01*
X129526272Y-57426082D02*
X130254829Y-57114893D01*
X130254829Y-57114893D02*
X130933081Y-56803220D01*
X130933081Y-56803220D02*
X131485256Y-56527252D01*
X131485256Y-56527252D02*
X131835582Y-56323178D01*
X131835582Y-56323178D02*
X133780972Y-55022769D01*
X133780972Y-55022769D02*
X135102206Y-54125923D01*
X135102206Y-54125923D02*
X136309972Y-53264503D01*
X136309972Y-53264503D02*
X137240639Y-52604256D01*
X137240639Y-52604256D02*
X137628618Y-52349178D01*
X137628618Y-52349178D02*
X137895652Y-52191091D01*
X137895652Y-52191091D02*
X138421495Y-51871149D01*
X138421495Y-51871149D02*
X139041582Y-51435034D01*
X139041582Y-51435034D02*
X139382873Y-51194808D01*
X139382873Y-51194808D02*
X139804131Y-50924276D01*
X139804131Y-50924276D02*
X140251839Y-50656584D01*
X140251839Y-50656584D02*
X140672482Y-50424877D01*
X140672482Y-50424877D02*
X142702902Y-49343954D01*
X142702902Y-49343954D02*
X143194531Y-49088761D01*
X143194531Y-49088761D02*
X143729778Y-48829785D01*
X143729778Y-48829785D02*
X144244013Y-48597293D01*
X144244013Y-48597293D02*
X144672602Y-48421551D01*
X144672602Y-48421551D02*
X145565609Y-48062389D01*
X145565609Y-48062389D02*
X146472702Y-47666197D01*
X146472702Y-47666197D02*
X147110982Y-47396595D01*
X147110982Y-47396595D02*
X147442464Y-47280875D01*
X147442464Y-47280875D02*
X147813871Y-47168966D01*
X147813871Y-47168966D02*
X148771548Y-46929859D01*
X148771548Y-46929859D02*
X150174192Y-46625817D01*
X150174192Y-46625817D02*
X150787157Y-46521450D01*
X150787157Y-46521450D02*
X151519688Y-46437363D01*
X151519688Y-46437363D02*
X152345180Y-46374419D01*
X152345180Y-46374419D02*
X153237027Y-46333477D01*
X153237027Y-46333477D02*
X154168622Y-46315401D01*
X154168622Y-46315401D02*
X155113358Y-46321052D01*
X155113358Y-46321052D02*
X156044630Y-46351288D01*
X156044630Y-46351288D02*
X156935832Y-46406972D01*
X156935832Y-46406972D02*
X158030677Y-46505703D01*
X158030677Y-46505703D02*
X158430722Y-46561768D01*
X158430722Y-46561768D02*
X158784188Y-46635137D01*
X158784188Y-46635137D02*
X159129828Y-46735436D01*
X159129828Y-46735436D02*
X159506397Y-46872292D01*
X159506397Y-46872292D02*
X160507332Y-47294180D01*
X160507332Y-47294180D02*
X161212581Y-47617127D01*
X161212581Y-47617127D02*
X161875998Y-47950792D01*
X161875998Y-47950792D02*
X162423040Y-48255839D01*
X162423040Y-48255839D02*
X162779162Y-48492935D01*
X162779162Y-48492935D02*
X163362461Y-48922885D01*
X163362461Y-48922885D02*
X163962102Y-49309754D01*
X163962102Y-49309754D02*
X164450714Y-49629753D01*
X164450714Y-49629753D02*
X164996024Y-50048763D01*
X164996024Y-50048763D02*
X165580192Y-50549475D01*
X165580192Y-50549475D02*
X166185377Y-51114581D01*
X166185377Y-51114581D02*
X166793738Y-51726774D01*
X166793738Y-51726774D02*
X167387434Y-52368745D01*
X167387434Y-52368745D02*
X167948626Y-53023188D01*
X167948626Y-53023188D02*
X168459472Y-53672791D01*
X168459472Y-53672791D02*
X168994275Y-54417591D01*
X168994275Y-54417591D02*
X169499247Y-55184442D01*
X169499247Y-55184442D02*
X169980831Y-55985647D01*
X169980831Y-55985647D02*
X170445468Y-56833507D01*
X170445468Y-56833507D02*
X170899600Y-57740326D01*
X170899600Y-57740326D02*
X171349669Y-58718406D01*
X171349669Y-58718406D02*
X171802115Y-59780048D01*
X171802115Y-59780048D02*
X172263382Y-60937557D01*
X172263382Y-60937557D02*
X172791802Y-62222823D01*
X172791802Y-62222823D02*
X172828622Y-62365942D01*
X172828622Y-62365942D02*
X172928868Y-62659131D01*
X172928868Y-62659131D02*
X173258404Y-63524840D01*
X173258404Y-63524840D02*
X173463200Y-64065459D01*
X173463200Y-64065459D02*
X173675901Y-64671436D01*
X173675901Y-64671436D02*
X173871371Y-65268671D01*
X173871371Y-65268671D02*
X174024474Y-65783067D01*
X174024474Y-65783067D02*
X174208932Y-66367614D01*
X174208932Y-66367614D02*
X174489788Y-67155853D01*
X174489788Y-67155853D02*
X174828864Y-68044517D01*
X174828864Y-68044517D02*
X175187984Y-68930334D01*
X175187984Y-68930334D02*
X175798198Y-70412535D01*
X175798198Y-70412535D02*
X176052004Y-71082605D01*
X176052004Y-71082605D02*
X176155974Y-71326088D01*
X176155974Y-71326088D02*
X176435830Y-71887277D01*
X176435830Y-71887277D02*
X177330868Y-73600482D01*
X177330868Y-73600482D02*
X178352459Y-75497635D01*
X178352459Y-75497635D02*
X179115944Y-76854153D01*
X179115944Y-76854153D02*
X179668284Y-77833061D01*
X179668284Y-77833061D02*
X180138844Y-78755936D01*
X180138844Y-78755936D02*
X181412864Y-81404844D01*
X181412864Y-81404844D02*
X182985844Y-84665039D01*
X182985844Y-84665039D02*
X183286066Y-85277387D01*
X183286066Y-85277387D02*
X183577706Y-85840069D01*
X183577706Y-85840069D02*
X183827426Y-86290681D01*
X183827426Y-86290681D02*
X184001884Y-86566822D01*
X184001884Y-86566822D02*
X184153504Y-86792901D01*
X184153504Y-86792901D02*
X184341034Y-87107208D01*
X184341034Y-87107208D02*
X184728467Y-87834163D01*
X184728467Y-87834163D02*
X185103771Y-88550099D01*
X185103771Y-88550099D02*
X185413757Y-89063991D01*
X185413757Y-89063991D02*
X185577393Y-89324994D01*
X185577393Y-89324994D02*
X185828167Y-89762119D01*
X185828167Y-89762119D02*
X186454527Y-90921006D01*
X186454527Y-90921006D02*
X187145858Y-92190670D01*
X187145858Y-92190670D02*
X187466961Y-92747707D01*
X187466961Y-92747707D02*
X187716477Y-93155138D01*
X187716477Y-93155138D02*
X188160300Y-93878038D01*
X188160300Y-93878038D02*
X188535434Y-94575716D01*
X188535434Y-94575716D02*
X188844938Y-95257710D01*
X188844938Y-95257710D02*
X189091870Y-95933558D01*
X189091870Y-95933558D02*
X189279285Y-96612799D01*
X189279285Y-96612799D02*
X189410243Y-97304971D01*
X189410243Y-97304971D02*
X189487803Y-98019611D01*
X189487803Y-98019611D02*
X189515023Y-98766259D01*
X189515023Y-98766259D02*
X189493933Y-99715172D01*
X189493933Y-99715172D02*
X189426633Y-100723241D01*
X189426633Y-100723241D02*
X189318334Y-101757609D01*
X189318334Y-101757609D02*
X189174238Y-102785419D01*
X189174238Y-102785419D02*
X188999551Y-103773813D01*
X188999551Y-103773813D02*
X188799478Y-104689933D01*
X188799478Y-104689933D02*
X188579226Y-105500922D01*
X188579226Y-105500922D02*
X188463159Y-105856724D01*
X188463159Y-105856724D02*
X188343999Y-106173921D01*
X188343999Y-106173921D02*
X188200028Y-106502067D01*
X188200028Y-106502067D02*
X188026643Y-106851137D01*
X188026643Y-106851137D02*
X187596293Y-107605852D01*
X187596293Y-107605852D02*
X187062266Y-108425670D01*
X187062266Y-108425670D02*
X186433879Y-109298192D01*
X186433879Y-109298192D02*
X185720449Y-110211023D01*
X185720449Y-110211023D02*
X184931293Y-111151764D01*
X184931293Y-111151764D02*
X184075730Y-112108020D01*
X184075730Y-112108020D02*
X183163076Y-113067393D01*
X183163076Y-113067393D02*
X182346514Y-113880224D01*
X182346514Y-113880224D02*
X181604227Y-114572113D01*
X181604227Y-114572113D02*
X180911982Y-115160019D01*
X180911982Y-115160019D02*
X180245546Y-115660900D01*
X180245546Y-115660900D02*
X179580687Y-116091716D01*
X179580687Y-116091716D02*
X178893172Y-116469426D01*
X178893172Y-116469426D02*
X178158769Y-116810988D01*
X178158769Y-116810988D02*
X177353246Y-117133362D01*
X177353246Y-117133362D02*
X176602872Y-117382243D01*
X176602872Y-117382243D02*
X175640622Y-117653449D01*
X175640622Y-117653449D02*
X174542385Y-117930344D01*
X174542385Y-117930344D02*
X173384047Y-118196296D01*
X173384047Y-118196296D02*
X172241498Y-118434671D01*
X172241498Y-118434671D02*
X171190624Y-118628834D01*
X171190624Y-118628834D02*
X170307314Y-118762153D01*
X170307314Y-118762153D02*
X169952211Y-118800793D01*
X169952211Y-118800793D02*
X169667456Y-118817993D01*
X169667456Y-118817993D02*
X169192006Y-118829133D01*
X169192006Y-118829133D02*
X168141412Y-118936329D01*
X168141412Y-118936329D02*
X168060232Y-118948559D01*
X168060232Y-118948559D02*
X168093212Y-118949260D01*
X168093212Y-118949260D02*
X168109872Y-118949055D01*
X168109872Y-118949055D02*
X168103872Y-118950455D01*
X168103872Y-118950455D02*
X167955833Y-118964245D01*
X167955833Y-118964245D02*
X166637799Y-119077707D01*
X166637799Y-119077707D02*
X165959631Y-119079907D01*
X165959631Y-119079907D02*
X165275066Y-119046167D01*
X165275066Y-119046167D02*
X164588385Y-118977187D01*
X164588385Y-118977187D02*
X163903874Y-118873733D01*
X163903874Y-118873733D02*
X163225814Y-118736559D01*
X163225814Y-118736559D02*
X162558490Y-118566420D01*
X162558490Y-118566420D02*
X161906184Y-118364073D01*
X161906184Y-118364073D02*
X161273179Y-118130275D01*
X161273179Y-118130275D02*
X160294503Y-117763143D01*
X160294503Y-117763143D02*
X159411399Y-117469600D01*
X159411399Y-117469600D02*
X158652305Y-117219187D01*
X158652305Y-117219187D02*
X157971789Y-116955745D01*
X157971789Y-116955745D02*
X157536274Y-116746088D01*
X157536274Y-116746088D02*
X157041934Y-116475342D01*
X157041934Y-116475342D02*
X156512730Y-116159326D01*
X156512730Y-116159326D02*
X155972623Y-115813860D01*
X155972623Y-115813860D02*
X155445575Y-115454766D01*
X155445575Y-115454766D02*
X154955547Y-115097861D01*
X154955547Y-115097861D02*
X154526502Y-114758967D01*
X154526502Y-114758967D02*
X154182399Y-114453903D01*
X154182399Y-114453903D02*
X153955120Y-114247314D01*
X153955120Y-114247314D02*
X153717411Y-114053804D01*
X153717411Y-114053804D02*
X153476011Y-113877483D01*
X153476011Y-113877483D02*
X153237659Y-113722457D01*
X153237659Y-113722457D02*
X153009095Y-113592837D01*
X153009095Y-113592837D02*
X152797057Y-113492729D01*
X152797057Y-113492729D02*
X152608285Y-113426239D01*
X152608285Y-113426239D02*
X152449519Y-113397479D01*
X152449519Y-113397479D02*
X152426089Y-113625489D01*
X152426089Y-113625489D02*
X152417489Y-114176524D01*
X152417489Y-114176524D02*
X152433619Y-114608153D01*
X152433619Y-114608153D02*
X152480069Y-115044325D01*
X152480069Y-115044325D02*
X152557319Y-115486778D01*
X152557319Y-115486778D02*
X152665840Y-115937253D01*
X152665840Y-115937253D02*
X152806114Y-116397489D01*
X152806114Y-116397489D02*
X152978617Y-116869225D01*
X152978617Y-116869225D02*
X153183826Y-117354201D01*
X153183826Y-117354201D02*
X153422218Y-117854155D01*
X153422218Y-117854155D02*
X153720709Y-118512229D01*
X153720709Y-118512229D02*
X154087877Y-119416851D01*
X154087877Y-119416851D02*
X154477138Y-120448765D01*
X154477138Y-120448765D02*
X154841908Y-121488710D01*
X154841908Y-121488710D02*
X155569196Y-123627022D01*
X155569196Y-123627022D02*
X156170558Y-125349489D01*
X156170558Y-125349489D02*
X156448477Y-126163185D01*
X156448477Y-126163185D02*
X156538607Y-126482071D01*
X156538607Y-126482071D02*
X156602177Y-126775825D01*
X156602177Y-126775825D02*
X156643687Y-127069579D01*
X156643687Y-127069579D02*
X156667627Y-127388464D01*
X156667627Y-127388464D02*
X156680767Y-128202160D01*
X156680767Y-128202160D02*
X156663947Y-128984474D01*
X156663947Y-128984474D02*
X156639647Y-129315129D01*
X156639647Y-129315129D02*
X156601347Y-129628497D01*
X156601347Y-129628497D02*
X156546487Y-129941866D01*
X156546487Y-129941866D02*
X156472507Y-130272520D01*
X156472507Y-130272520D02*
X156256947Y-131054834D01*
X156256947Y-131054834D02*
X155874629Y-132249401D01*
X155874629Y-132249401D02*
X155692925Y-132758497D01*
X155692925Y-132758497D02*
X155548517Y-133118513D01*
X155548517Y-133118513D02*
X155376165Y-133450975D01*
X155376165Y-133450975D02*
X155130331Y-133854613D01*
X155130331Y-133854613D02*
X154829017Y-134305055D01*
X154829017Y-134305055D02*
X154490222Y-134777927D01*
X154490222Y-134777927D02*
X154131948Y-135248859D01*
X154131948Y-135248859D02*
X153772195Y-135693477D01*
X153772195Y-135693477D02*
X153428965Y-136087409D01*
X153428965Y-136087409D02*
X153120257Y-136406284D01*
X153120257Y-136406284D02*
X152567507Y-136935363D01*
X152567507Y-136935363D02*
X152284692Y-137187555D01*
X152284692Y-137187555D02*
X151907407Y-137385403D01*
X151907407Y-137385403D02*
X150225707Y-138482255D01*
X150225707Y-138482255D02*
X148897874Y-139333482D01*
X148897874Y-139333482D02*
X148401704Y-139619264D01*
X148401704Y-139619264D02*
X147934773Y-139848527D01*
X147934773Y-139848527D02*
X147435139Y-140048802D01*
X147435139Y-140048802D02*
X146840859Y-140247614D01*
X146840859Y-140247614D02*
X145120587Y-140750964D01*
X145120587Y-140750964D02*
X143322725Y-141243252D01*
X143322725Y-141243252D02*
X142594868Y-141419092D01*
X142594868Y-141419092D02*
X141935743Y-141556651D01*
X141935743Y-141556651D02*
X141311361Y-141662372D01*
X141311361Y-141662372D02*
X140687731Y-141742692D01*
X140687731Y-141742692D02*
X140030866Y-141804062D01*
X140030866Y-141804062D02*
X139306777Y-141852922D01*
X139306777Y-141852922D02*
X137269147Y-141982671D01*
X137269147Y-141982671D02*
X136933020Y-141993481D01*
X136933020Y-141993481D02*
X136519912Y-141985381D01*
X136519912Y-141985381D02*
X136082219Y-141960521D01*
X136082219Y-141960521D02*
X135672337Y-141920931D01*
X135672337Y-141920931D02*
X135672377Y-141920992D01*
X135672377Y-141920992D02*
X135672421Y-141921116D01*
X149184032Y-48226688D02*
X153719747Y-47754217D01*
X153719747Y-47754217D02*
X158538944Y-48084946D01*
X158538944Y-48084946D02*
X159460260Y-48722781D01*
X159460260Y-48722781D02*
X159483890Y-49549604D01*
X159483890Y-49549604D02*
X148262715Y-49549604D01*
X148262715Y-49549604D02*
X148215465Y-48793652D01*
X148215465Y-48793652D02*
X149184028Y-48226688D01*
X149184028Y-48226688D02*
X149184032Y-48226688D01*
M02*
