G04 #@! TF.FileFunction,Copper,L1,Top,Signal*
%FSLAX46Y46*%
G04 Gerber Fmt 4.6, Leading zero omitted, Abs format (unit mm)*
G04 Created by KiCad (PCBNEW 4.0.5+dfsg1-4) date Sun Sep 22 01:55:02 2019*
%MOMM*%
%LPD*%
G01*
G04 APERTURE LIST*
%ADD10C,0.100000*%
%ADD11R,0.797560X0.797560*%
%ADD12C,0.600000*%
%ADD13C,0.250000*%
%ADD14C,0.400000*%
%ADD15C,0.203200*%
%ADD16C,0.254000*%
G04 APERTURE END LIST*
D10*
G36*
X140722165Y-99483795D02*
X140158205Y-98919835D01*
X140722165Y-98355875D01*
X141286125Y-98919835D01*
X140722165Y-99483795D01*
X140722165Y-99483795D01*
G37*
G36*
X141781835Y-98424125D02*
X141217875Y-97860165D01*
X141781835Y-97296205D01*
X142345795Y-97860165D01*
X141781835Y-98424125D01*
X141781835Y-98424125D01*
G37*
D11*
X126520000Y-95354700D03*
X126520000Y-96853300D03*
X125504000Y-102949300D03*
X125504000Y-101450700D03*
X124488000Y-109045300D03*
X124488000Y-107546700D03*
D10*
G36*
X138436165Y-101769795D02*
X137872205Y-101205835D01*
X138436165Y-100641875D01*
X139000125Y-101205835D01*
X138436165Y-101769795D01*
X138436165Y-101769795D01*
G37*
G36*
X139495835Y-100710125D02*
X138931875Y-100146165D01*
X139495835Y-99582205D01*
X140059795Y-100146165D01*
X139495835Y-100710125D01*
X139495835Y-100710125D01*
G37*
G36*
X137872205Y-103702165D02*
X138436165Y-103138205D01*
X139000125Y-103702165D01*
X138436165Y-104266125D01*
X137872205Y-103702165D01*
X137872205Y-103702165D01*
G37*
G36*
X138931875Y-104761835D02*
X139495835Y-104197875D01*
X140059795Y-104761835D01*
X139495835Y-105325795D01*
X138931875Y-104761835D01*
X138931875Y-104761835D01*
G37*
D11*
X124996000Y-104498700D03*
X124996000Y-105997300D03*
X136426000Y-96853300D03*
X136426000Y-95354700D03*
X102349300Y-95130000D03*
X100850700Y-95130000D03*
X148364000Y-63096700D03*
X148364000Y-64595300D03*
X148872000Y-66144700D03*
X148872000Y-67643300D03*
X132350700Y-74380000D03*
X133849300Y-74380000D03*
X149634000Y-69192700D03*
X149634000Y-70691300D03*
X110249300Y-82750000D03*
X108750700Y-82750000D03*
X111850700Y-80630000D03*
X113349300Y-80630000D03*
X115600700Y-78880000D03*
X117099300Y-78880000D03*
X119600700Y-77380000D03*
X121099300Y-77380000D03*
X156492000Y-59261300D03*
X156492000Y-57762700D03*
X149101400Y-76130000D03*
X150600000Y-76130000D03*
X154849300Y-77380000D03*
X153350700Y-77380000D03*
X125348600Y-76130000D03*
X123850000Y-76130000D03*
X161351400Y-81130000D03*
X162850000Y-81130000D03*
X178323300Y-99406000D03*
X176824700Y-99406000D03*
X175046700Y-95850000D03*
X176545300Y-95850000D03*
X179019300Y-103580000D03*
X177520700Y-103580000D03*
X135410000Y-101450700D03*
X135410000Y-102949300D03*
X134902000Y-104498700D03*
X134902000Y-105997300D03*
X126012000Y-98402700D03*
X126012000Y-99901300D03*
X135918000Y-98402700D03*
X135918000Y-99901300D03*
X134394000Y-107546700D03*
X134394000Y-109045300D03*
D10*
G36*
X140158205Y-105988165D02*
X140722165Y-105424205D01*
X141286125Y-105988165D01*
X140722165Y-106552125D01*
X140158205Y-105988165D01*
X140158205Y-105988165D01*
G37*
G36*
X141217875Y-107047835D02*
X141781835Y-106483875D01*
X142345795Y-107047835D01*
X141781835Y-107611795D01*
X141217875Y-107047835D01*
X141217875Y-107047835D01*
G37*
D11*
X147348000Y-57000700D03*
X147348000Y-58499300D03*
X147856000Y-60048700D03*
X147856000Y-61547300D03*
X101350700Y-91630000D03*
X102849300Y-91630000D03*
X153444000Y-64849300D03*
X153444000Y-63350700D03*
X103070865Y-88409835D03*
X104569465Y-88409835D03*
X154968000Y-62055300D03*
X154968000Y-60556700D03*
X107069465Y-85409835D03*
X105570865Y-85409835D03*
X138098600Y-74130000D03*
X136600000Y-74130000D03*
X151666000Y-67643300D03*
X151666000Y-66144700D03*
X158016000Y-56467300D03*
X158016000Y-54968700D03*
X142349300Y-74380000D03*
X140850700Y-74380000D03*
X145101400Y-75130000D03*
X146600000Y-75130000D03*
X128100000Y-74880000D03*
X129598600Y-74880000D03*
X158849300Y-79380000D03*
X157350700Y-79380000D03*
X166349300Y-83630000D03*
X164850700Y-83630000D03*
X167850700Y-86380000D03*
X169349300Y-86380000D03*
X172099300Y-89130000D03*
X170600700Y-89130000D03*
X172850700Y-92380000D03*
X174349300Y-92380000D03*
X175808700Y-114646000D03*
X177307300Y-114646000D03*
X176760700Y-110760000D03*
X178259300Y-110760000D03*
X177400700Y-107440000D03*
X178899300Y-107440000D03*
D12*
X164874000Y-114519000D03*
X155984000Y-103660000D03*
X152682000Y-108230000D03*
X151010000Y-112210000D03*
X143370000Y-110210000D03*
X162334000Y-114519000D03*
X161920000Y-111800000D03*
X151320000Y-73850000D03*
X104760000Y-79190000D03*
X165680000Y-74610000D03*
X158016000Y-95220000D03*
X153110795Y-89210795D03*
X172099300Y-89130000D03*
X153444000Y-64849300D03*
X143720000Y-74450000D03*
X142349300Y-74380000D03*
X126520000Y-95354700D03*
X155730000Y-95220000D03*
X126012000Y-98402700D03*
X125504000Y-102949300D03*
X153365799Y-93790000D03*
X160130000Y-97840000D03*
X165290000Y-102110000D03*
X110249300Y-82750000D03*
X148872000Y-67643300D03*
X158849300Y-79380000D03*
X124996000Y-104498700D03*
X124488000Y-109045300D03*
X154968000Y-62055300D03*
X166349300Y-83630000D03*
X135410000Y-101450700D03*
X136426000Y-96853300D03*
X138098600Y-74130000D03*
X149570000Y-93140000D03*
X147810000Y-92420000D03*
X148872000Y-95219999D03*
X149634000Y-69192700D03*
X149101400Y-76130000D03*
X152120000Y-76350000D03*
X135120000Y-73860000D03*
X134902000Y-104498700D03*
X135918000Y-98402700D03*
X121130000Y-90859806D03*
X118480000Y-88209806D03*
X167020000Y-97870000D03*
X146586000Y-95220000D03*
X139874264Y-96081800D03*
X139970000Y-93880000D03*
X115600700Y-78880000D03*
X128100000Y-74880000D03*
X175046700Y-95850000D03*
X118480000Y-78410000D03*
X138436165Y-101205835D03*
X134394000Y-107546700D03*
X172850700Y-92380000D03*
X161351400Y-81130000D03*
X147830000Y-69310000D03*
X158016000Y-56467300D03*
X140722165Y-98919835D03*
X138436165Y-103702165D03*
X148110000Y-108296000D03*
X150396000Y-108296001D03*
X154849300Y-77380000D03*
X119600700Y-77380000D03*
X140722165Y-105988165D03*
X161064000Y-114519000D03*
X157770000Y-110800001D03*
X130810000Y-95750000D03*
X133140000Y-99040000D03*
D13*
X164874000Y-114519000D02*
X164874000Y-113350000D01*
X164874000Y-113350000D02*
X155984000Y-104460000D01*
X155984000Y-104460000D02*
X155984000Y-103660000D01*
D14*
X155984000Y-103660000D02*
X155284000Y-103660000D01*
X155284000Y-103660000D02*
X152682000Y-106262000D01*
X152682000Y-106262000D02*
X152682000Y-107480000D01*
X152682000Y-107480000D02*
X152682000Y-108230000D01*
D13*
X153378000Y-108230000D02*
X152682000Y-108230000D01*
D14*
X143370000Y-110210000D02*
X149010000Y-110210000D01*
X149010000Y-110210000D02*
X151010000Y-112210000D01*
D13*
X162334000Y-114519000D02*
X162334000Y-113962225D01*
X162334000Y-113962225D02*
X161920000Y-113548225D01*
X161920000Y-113548225D02*
X161920000Y-112224264D01*
X161920000Y-112224264D02*
X161920000Y-111800000D01*
X165680000Y-74610000D02*
X152080000Y-74610000D01*
X152080000Y-74610000D02*
X151320000Y-73850000D01*
X110850000Y-74580000D02*
X106240000Y-79190000D01*
X106240000Y-79190000D02*
X104760000Y-79190000D01*
X119280000Y-74580000D02*
X110850000Y-74580000D01*
X121270000Y-72590000D02*
X119280000Y-74580000D01*
X123180000Y-72590000D02*
X121270000Y-72590000D01*
X136700000Y-59070000D02*
X123180000Y-72590000D01*
X136700000Y-57960000D02*
X136700000Y-59070000D01*
X143350000Y-51310000D02*
X136700000Y-57960000D01*
X146770000Y-51310000D02*
X143350000Y-51310000D01*
X147320000Y-50760000D02*
X146770000Y-51310000D01*
X157260000Y-50760000D02*
X147320000Y-50760000D01*
X158250000Y-51750000D02*
X157260000Y-50760000D01*
X163180000Y-51750000D02*
X158250000Y-51750000D01*
X168320000Y-56890000D02*
X163180000Y-51750000D01*
X168320000Y-70320000D02*
X168320000Y-56890000D01*
X165680000Y-72960000D02*
X168320000Y-70320000D01*
X165680000Y-74610000D02*
X165680000Y-72960000D01*
D15*
X153110795Y-89210795D02*
X153110795Y-90314795D01*
X153110795Y-90314795D02*
X158016000Y-95220000D01*
D13*
X147856000Y-61547300D02*
X148504780Y-61547300D01*
X148504780Y-61547300D02*
X149116381Y-62158901D01*
X149116381Y-62158901D02*
X152717019Y-62158901D01*
X148582981Y-61469099D02*
X148582981Y-57586901D01*
X148504780Y-61547300D02*
X148582981Y-61469099D01*
X148582981Y-57586901D02*
X147996780Y-57000700D01*
X147996780Y-57000700D02*
X147348000Y-57000700D01*
X154968000Y-60556700D02*
X154319220Y-60556700D01*
X152717019Y-64771099D02*
X152795220Y-64849300D01*
X154319220Y-60556700D02*
X152717019Y-62158901D01*
X152717019Y-62158901D02*
X152717019Y-64771099D01*
X152795220Y-64849300D02*
X153444000Y-64849300D01*
X175190000Y-93470000D02*
X174790520Y-93470000D01*
X174790520Y-93470000D02*
X174349300Y-93028780D01*
X174349300Y-93028780D02*
X174349300Y-92380000D01*
X176545300Y-94825300D02*
X175190000Y-93470000D01*
X176545300Y-95850000D02*
X176545300Y-94825300D01*
X177504080Y-96160000D02*
X177194080Y-95850000D01*
X177504080Y-96160000D02*
X177504080Y-97190780D01*
X178323300Y-99406000D02*
X178323300Y-98010000D01*
X177504080Y-97190780D02*
X178323300Y-98010000D01*
X177194080Y-95850000D02*
X176545300Y-95850000D01*
X179019300Y-103580000D02*
X179019300Y-101160000D01*
X178323300Y-99406000D02*
X178323300Y-100054780D01*
X178323300Y-100054780D02*
X179019300Y-100750780D01*
X179019300Y-100750780D02*
X179019300Y-101160000D01*
X178899300Y-107440000D02*
X178899300Y-103700000D01*
X178899300Y-103700000D02*
X179019300Y-103580000D01*
X173190000Y-90240000D02*
X174349300Y-91399300D01*
X174349300Y-91399300D02*
X174349300Y-92380000D01*
X173190000Y-89571920D02*
X173190000Y-90240000D01*
X172099300Y-89130000D02*
X172748080Y-89130000D01*
X172748080Y-89130000D02*
X173190000Y-89571920D01*
X146600000Y-75130000D02*
X146600000Y-74481220D01*
X146600000Y-74481220D02*
X146521799Y-74403019D01*
X146521799Y-74403019D02*
X143766981Y-74403019D01*
X143766981Y-74403019D02*
X143720000Y-74450000D01*
X126520000Y-95354700D02*
X127168780Y-95354700D01*
X126660780Y-99901300D02*
X126012000Y-99901300D01*
X127168780Y-95354700D02*
X127246981Y-95432901D01*
X127246981Y-95432901D02*
X127246981Y-99315099D01*
X127246981Y-99315099D02*
X126660780Y-99901300D01*
X137679622Y-95220000D02*
X137690000Y-95220000D01*
X137690000Y-95220000D02*
X138620000Y-96150000D01*
X138620000Y-96150000D02*
X138630000Y-96150000D01*
X138630000Y-96150000D02*
X139670000Y-97190000D01*
X139670000Y-97190000D02*
X140142009Y-97190000D01*
X140142009Y-97190000D02*
X141182009Y-96150000D01*
X141182009Y-96150000D02*
X155400000Y-96150000D01*
X155730000Y-95820000D02*
X155730000Y-95220000D01*
X155400000Y-96150000D02*
X155730000Y-95820000D01*
D15*
X137679622Y-95220000D02*
X137680000Y-95220000D01*
D13*
X125348600Y-94117660D02*
X122860940Y-91630000D01*
X122860940Y-91630000D02*
X102849300Y-91630000D01*
X125858659Y-94627719D02*
X125348600Y-94117660D01*
X125348600Y-94117660D02*
X125348600Y-76130000D01*
X125858659Y-94627719D02*
X125793019Y-94693359D01*
X137679622Y-95220000D02*
X137087341Y-94627719D01*
X125793019Y-96775099D02*
X125871220Y-96853300D01*
X137087341Y-94627719D02*
X125858659Y-94627719D01*
X125793019Y-94693359D02*
X125793019Y-96775099D01*
X125871220Y-96853300D02*
X126520000Y-96853300D01*
X136600000Y-74130000D02*
X136600000Y-74778780D01*
X136600000Y-74778780D02*
X136271799Y-75106981D01*
X136271799Y-75106981D02*
X132428901Y-75106981D01*
X132428901Y-75106981D02*
X132350700Y-75028780D01*
X132350700Y-75028780D02*
X132350700Y-74380000D01*
X129598600Y-74880000D02*
X131850700Y-74880000D01*
X131850700Y-74880000D02*
X132350700Y-74380000D01*
X125348600Y-76130000D02*
X125997380Y-76130000D01*
X125997380Y-76130000D02*
X126520399Y-75606981D01*
X129520399Y-75606981D02*
X129598600Y-75528780D01*
X126520399Y-75606981D02*
X129520399Y-75606981D01*
X129598600Y-75528780D02*
X129598600Y-74880000D01*
X102349300Y-95130000D02*
X102349300Y-92130000D01*
X102349300Y-92130000D02*
X102849300Y-91630000D01*
X125420000Y-105997300D02*
X124996000Y-105997300D01*
X125504000Y-102949300D02*
X125504000Y-103598080D01*
X125504000Y-103598080D02*
X125722981Y-103817061D01*
X125722981Y-103817061D02*
X125722981Y-105694319D01*
X125722981Y-105694319D02*
X125420000Y-105997300D01*
X126520000Y-96853300D02*
X126520000Y-97894700D01*
X126520000Y-97894700D02*
X126012000Y-98402700D01*
X134737809Y-99462191D02*
X132749300Y-101450700D01*
X132749300Y-101450700D02*
X130330000Y-101450700D01*
X134720700Y-97060000D02*
X136426000Y-95354700D01*
X134720700Y-97060000D02*
X134737809Y-97077109D01*
X134737809Y-97077109D02*
X134737809Y-99462191D01*
X160130000Y-97840000D02*
X159705736Y-97840000D01*
X159705736Y-97840000D02*
X157255799Y-95390063D01*
X157255799Y-95390063D02*
X157255799Y-95175126D01*
X157255799Y-95175126D02*
X155870673Y-93790000D01*
X155870673Y-93790000D02*
X153365799Y-93790000D01*
X176760700Y-110760000D02*
X173940000Y-110760000D01*
X173940000Y-110760000D02*
X165290000Y-102110000D01*
X148364000Y-63096700D02*
X147715220Y-63096700D01*
X147715220Y-63096700D02*
X147637019Y-63174901D01*
X147637019Y-63174901D02*
X147637019Y-67057099D01*
X147637019Y-67057099D02*
X148223220Y-67643300D01*
X148223220Y-67643300D02*
X148872000Y-67643300D01*
X147856000Y-60048700D02*
X147207220Y-60048700D01*
X147207220Y-60048700D02*
X147129019Y-60126901D01*
X147129019Y-60126901D02*
X147129019Y-62510499D01*
X147129019Y-62510499D02*
X147715220Y-63096700D01*
X147348000Y-58499300D02*
X147348000Y-59540700D01*
X147348000Y-59540700D02*
X147856000Y-60048700D01*
X175808700Y-114646000D02*
X175808700Y-111063220D01*
X175808700Y-111063220D02*
X176111920Y-110760000D01*
X176111920Y-110760000D02*
X176760700Y-110760000D01*
X162370000Y-80001220D02*
X162850000Y-80481220D01*
X160571220Y-80001220D02*
X159950000Y-79380000D01*
X158849300Y-79380000D02*
X159950000Y-79380000D01*
X162370000Y-80001220D02*
X160571220Y-80001220D01*
X162850000Y-80481220D02*
X162850000Y-81130000D01*
X110240000Y-82740000D02*
X113888080Y-82740000D01*
X113888080Y-82740000D02*
X117099300Y-79528780D01*
X117099300Y-79528780D02*
X117099300Y-78880000D01*
X124996000Y-104498700D02*
X124347220Y-104498700D01*
X124347220Y-104498700D02*
X123761019Y-105084901D01*
X123761019Y-105084901D02*
X123761019Y-108967099D01*
X123761019Y-108967099D02*
X123839220Y-109045300D01*
X125504000Y-101450700D02*
X124855220Y-101450700D01*
X124855220Y-101450700D02*
X124777019Y-101528901D01*
X124777019Y-103630939D02*
X124996000Y-103849920D01*
X124777019Y-101528901D02*
X124777019Y-103630939D01*
X124996000Y-103849920D02*
X124996000Y-104498700D01*
X124488000Y-109045300D02*
X123839220Y-109045300D01*
X125504000Y-101450700D02*
X130330000Y-101450700D01*
X124780219Y-101525701D02*
X124855220Y-101450700D01*
X124488000Y-107546700D02*
X126880000Y-107546700D01*
X126880000Y-107546700D02*
X129314000Y-107546700D01*
D15*
X123331209Y-109441209D02*
X123638881Y-109748881D01*
X123638881Y-109748881D02*
X125130621Y-109748881D01*
X125130621Y-109748881D02*
X126880000Y-107999502D01*
X126880000Y-107999502D02*
X126880000Y-107546700D01*
X116350000Y-101520000D02*
X123331209Y-108501209D01*
X123331209Y-108501209D02*
X123331209Y-109441209D01*
X106638720Y-101520000D02*
X116350000Y-101520000D01*
X100850700Y-95130000D02*
X100850700Y-95731980D01*
X100850700Y-95731980D02*
X106638720Y-101520000D01*
D13*
X156492000Y-59261300D02*
X157140780Y-59261300D01*
X157140780Y-59261300D02*
X158742981Y-57659099D01*
X158742981Y-57659099D02*
X158742981Y-55046901D01*
X158742981Y-55046901D02*
X158664780Y-54968700D01*
X158664780Y-54968700D02*
X158016000Y-54968700D01*
X154968000Y-62055300D02*
X155616780Y-62055300D01*
X155616780Y-62055300D02*
X156492000Y-61180080D01*
X156492000Y-61180080D02*
X156492000Y-59910080D01*
X156492000Y-59910080D02*
X156492000Y-59261300D01*
X154968000Y-62055300D02*
X154739400Y-62055300D01*
X154739400Y-62055300D02*
X153444000Y-63350700D01*
X166349300Y-83630000D02*
X167248080Y-83630000D01*
X167248080Y-83630000D02*
X169349300Y-85731220D01*
X169349300Y-85731220D02*
X169349300Y-86380000D01*
X103070865Y-88409835D02*
X103070865Y-87761055D01*
X103070865Y-87761055D02*
X105422085Y-85409835D01*
X105422085Y-85409835D02*
X105570865Y-85409835D01*
X103070865Y-88409835D02*
X103070865Y-89058615D01*
X103070865Y-89058615D02*
X101350700Y-90778780D01*
X101350700Y-90778780D02*
X101350700Y-91630000D01*
X100850700Y-95130000D02*
X100850700Y-92130000D01*
X100850700Y-92130000D02*
X101350700Y-91630000D01*
X136426000Y-96853300D02*
X135777220Y-96853300D01*
X135191019Y-99823099D02*
X135269220Y-99901300D01*
X135777220Y-96853300D02*
X135191019Y-97439501D01*
X135191019Y-97439501D02*
X135191019Y-99823099D01*
X135269220Y-99901300D02*
X135918000Y-99901300D01*
X129314000Y-107546700D02*
X135410000Y-101450700D01*
X135410000Y-101450700D02*
X135410000Y-100409300D01*
X135410000Y-100409300D02*
X135918000Y-99901300D01*
X149570000Y-93140000D02*
X149570000Y-94521999D01*
X149570000Y-94521999D02*
X148872000Y-95219999D01*
X149101400Y-76130000D02*
X149101400Y-91128600D01*
X149101400Y-91128600D02*
X147810000Y-92420000D01*
X149346790Y-95696790D02*
X148872000Y-95222000D01*
X148872000Y-95222000D02*
X148872000Y-95219999D01*
X154323472Y-95696790D02*
X149346790Y-95696790D01*
X135918000Y-98402700D02*
X139570243Y-98402700D01*
X141369733Y-96603210D02*
X155587725Y-96603210D01*
X139570243Y-98402700D02*
X141369733Y-96603210D01*
X155587725Y-96603210D02*
X156358201Y-95832734D01*
X156358201Y-95832734D02*
X156358201Y-94918463D01*
X156358201Y-94918463D02*
X156031537Y-94591799D01*
X156031537Y-94591799D02*
X155428463Y-94591799D01*
X155428463Y-94591799D02*
X154323472Y-95696790D01*
X151666000Y-66144700D02*
X151017220Y-66144700D01*
X151017220Y-66144700D02*
X149634000Y-67527920D01*
X149634000Y-67527920D02*
X149634000Y-68543920D01*
X149634000Y-68543920D02*
X149634000Y-69192700D01*
X148872000Y-66144700D02*
X149520780Y-66144700D01*
X149520780Y-66144700D02*
X151666000Y-66144700D01*
X148872000Y-66144700D02*
X148872000Y-65103300D01*
X148872000Y-65103300D02*
X148364000Y-64595300D01*
X153350700Y-77380000D02*
X153150000Y-77380000D01*
X153150000Y-77380000D02*
X152120000Y-76350000D01*
X149101400Y-76130000D02*
X145452620Y-76130000D01*
X145452620Y-76130000D02*
X145101400Y-75778780D01*
X145101400Y-75778780D02*
X145101400Y-75130000D01*
X145101400Y-75130000D02*
X140951920Y-75130000D01*
X140951920Y-75130000D02*
X140850700Y-75028780D01*
X140850700Y-75028780D02*
X140850700Y-74380000D01*
X140850700Y-74380000D02*
X138348600Y-74380000D01*
X138348600Y-74380000D02*
X138098600Y-74130000D01*
X135120000Y-73860000D02*
X134369300Y-73860000D01*
X134369300Y-73860000D02*
X133849300Y-74380000D01*
X134394000Y-109045300D02*
X133870000Y-109045300D01*
X134902000Y-104498700D02*
X134253220Y-104498700D01*
X134253220Y-104498700D02*
X133667019Y-105084901D01*
X133667019Y-105084901D02*
X133667019Y-108842319D01*
X133667019Y-108842319D02*
X133870000Y-109045300D01*
X135918000Y-98402700D02*
X136566780Y-98402700D01*
X136566780Y-98402700D02*
X136644981Y-98480901D01*
X136644981Y-98480901D02*
X136644981Y-102363099D01*
X136644981Y-102363099D02*
X136058780Y-102949300D01*
X136058780Y-102949300D02*
X135410000Y-102949300D01*
X134902000Y-104498700D02*
X134902000Y-103457300D01*
X134902000Y-103457300D02*
X135410000Y-102949300D01*
D15*
X118480000Y-88209806D02*
X118779999Y-88509805D01*
X118779999Y-88509805D02*
X121130000Y-90859806D01*
D13*
X146586000Y-95220000D02*
X146586000Y-94620000D01*
X146586000Y-94620000D02*
X152623406Y-88582594D01*
X152623406Y-88582594D02*
X157732594Y-88582594D01*
X157732594Y-88582594D02*
X167020000Y-97870000D01*
X139970000Y-94890000D02*
X139874264Y-94985736D01*
X139874264Y-94985736D02*
X139874264Y-96081800D01*
X139970000Y-93880000D02*
X139970000Y-94890000D01*
X175046700Y-95850000D02*
X175046700Y-98276780D01*
X175046700Y-98276780D02*
X176175920Y-99406000D01*
X176175920Y-99406000D02*
X176824700Y-99406000D01*
X123850000Y-76130000D02*
X123960278Y-76130000D01*
X123960278Y-76130000D02*
X125210278Y-74880000D01*
X125210278Y-74880000D02*
X127451220Y-74880000D01*
X127451220Y-74880000D02*
X128100000Y-74880000D01*
X121099300Y-77380000D02*
X121099300Y-76731220D01*
X121099300Y-76731220D02*
X121700520Y-76130000D01*
X121700520Y-76130000D02*
X123201220Y-76130000D01*
X123201220Y-76130000D02*
X123850000Y-76130000D01*
X118480000Y-78410000D02*
X120718080Y-78410000D01*
X120718080Y-78410000D02*
X121099300Y-78028780D01*
X121099300Y-78028780D02*
X121099300Y-77380000D01*
X108750700Y-82750000D02*
X108750700Y-83398780D01*
X108750700Y-83398780D02*
X108350700Y-83798780D01*
X108350700Y-83798780D02*
X108350700Y-84777380D01*
X108750700Y-82750000D02*
X108750700Y-82101220D01*
X108750700Y-82101220D02*
X110221920Y-80630000D01*
X110221920Y-80630000D02*
X111201920Y-80630000D01*
X111201920Y-80630000D02*
X111850700Y-80630000D01*
X112960000Y-79610000D02*
X112620000Y-79950000D01*
X111850700Y-80630000D02*
X111850700Y-79981220D01*
X111881920Y-79950000D02*
X112620000Y-79950000D01*
X111850700Y-79981220D02*
X111881920Y-79950000D01*
X114221920Y-79610000D02*
X112960000Y-79610000D01*
X115600700Y-78880000D02*
X114951920Y-78880000D01*
X114951920Y-78880000D02*
X114221920Y-79610000D01*
X108350700Y-84777380D02*
X107718245Y-85409835D01*
X107718245Y-85409835D02*
X107069465Y-85409835D01*
X104569465Y-88409835D02*
X104569465Y-87761055D01*
X104569465Y-87761055D02*
X106920685Y-85409835D01*
X106920685Y-85409835D02*
X107069465Y-85409835D01*
X138436165Y-101205835D02*
X138603665Y-101038335D01*
X138603665Y-101038335D02*
X138603665Y-100010213D01*
X138603665Y-100010213D02*
X140753713Y-97860165D01*
X140753713Y-97860165D02*
X141117875Y-97860165D01*
X141117875Y-97860165D02*
X141781835Y-97860165D01*
X134902000Y-105997300D02*
X138436165Y-102463135D01*
X138436165Y-102463135D02*
X138436165Y-101205835D01*
X134394000Y-107546700D02*
X134394000Y-106505300D01*
X134394000Y-106505300D02*
X134902000Y-105997300D01*
X147830000Y-69310000D02*
X148252700Y-69310000D01*
X148252700Y-69310000D02*
X149634000Y-70691300D01*
X158016000Y-56467300D02*
X157787400Y-56467300D01*
X157787400Y-56467300D02*
X156492000Y-57762700D01*
X151666000Y-67643300D02*
X151666000Y-68292080D01*
X151666000Y-68292080D02*
X150360981Y-69597099D01*
X150360981Y-69597099D02*
X150360981Y-70613099D01*
X150360981Y-70613099D02*
X150282780Y-70691300D01*
X150282780Y-70691300D02*
X149634000Y-70691300D01*
X177520700Y-103580000D02*
X177520700Y-101391715D01*
X177520700Y-101391715D02*
X172850700Y-96721715D01*
X172850700Y-96721715D02*
X172850700Y-93028780D01*
X172850700Y-93028780D02*
X172850700Y-92380000D01*
X177400700Y-107440000D02*
X177400700Y-103700000D01*
X177400700Y-103700000D02*
X177520700Y-103580000D01*
X167059015Y-82800000D02*
X162372620Y-82800000D01*
X162372620Y-82800000D02*
X161351400Y-81778780D01*
X161351400Y-81778780D02*
X161351400Y-81130000D01*
X170600700Y-89130000D02*
X170600700Y-86341685D01*
X170600700Y-86341685D02*
X167059015Y-82800000D01*
X170600700Y-89130000D02*
X170600700Y-90778780D01*
X170600700Y-90778780D02*
X172201920Y-92380000D01*
X172201920Y-92380000D02*
X172850700Y-92380000D01*
X157350700Y-79380000D02*
X157350700Y-80028780D01*
X157350700Y-80028780D02*
X158451920Y-81130000D01*
X158451920Y-81130000D02*
X160702620Y-81130000D01*
X160702620Y-81130000D02*
X161351400Y-81130000D01*
X138436165Y-103702165D02*
X138603665Y-103869665D01*
X141106403Y-107400525D02*
X141429145Y-107400525D01*
X138603665Y-103869665D02*
X138603665Y-104897787D01*
X138603665Y-104897787D02*
X141106403Y-107400525D01*
X141429145Y-107400525D02*
X141781835Y-107047835D01*
X142776000Y-108042000D02*
X147856000Y-108042000D01*
X147856000Y-108042000D02*
X148110000Y-108296000D01*
X141781835Y-107047835D02*
X142776000Y-108042000D01*
X138436165Y-103702165D02*
X139495835Y-102642495D01*
X139495835Y-102642495D02*
X139495835Y-100146165D01*
X139495835Y-100146165D02*
X140722165Y-98919835D01*
X167850700Y-98375038D02*
X163195738Y-103030000D01*
X150396000Y-108296001D02*
X150396000Y-107696001D01*
X150396000Y-107696001D02*
X155062001Y-103030000D01*
X155062001Y-103030000D02*
X163195738Y-103030000D01*
X167850700Y-86380000D02*
X167850700Y-98290000D01*
X167850700Y-98290000D02*
X167850700Y-98375038D01*
X178259300Y-110760000D02*
X178259300Y-110111220D01*
X178259300Y-110111220D02*
X167850700Y-99702620D01*
X167850700Y-99702620D02*
X167850700Y-98290000D01*
X150396000Y-108296001D02*
X149496000Y-108296001D01*
X149496000Y-108296001D02*
X147188164Y-105988165D01*
X147188164Y-105988165D02*
X141386125Y-105988165D01*
X141386125Y-105988165D02*
X140722165Y-105988165D01*
X177307300Y-114646000D02*
X177307300Y-111712000D01*
X177307300Y-111712000D02*
X178259300Y-110760000D01*
X167850700Y-86380000D02*
X166951920Y-86380000D01*
X166951920Y-86380000D02*
X164850700Y-84278780D01*
X164850700Y-84278780D02*
X164850700Y-83630000D01*
X164850700Y-83630000D02*
X160212378Y-83630000D01*
X154849300Y-78266922D02*
X154849300Y-78028780D01*
X160212378Y-83630000D02*
X154849300Y-78266922D01*
X154849300Y-78028780D02*
X154849300Y-77380000D01*
X150600000Y-76130000D02*
X150600000Y-76778780D01*
X150600000Y-76778780D02*
X151928201Y-78106981D01*
X151928201Y-78106981D02*
X154771099Y-78106981D01*
X154771099Y-78106981D02*
X154849300Y-78028780D01*
X113349300Y-80630000D02*
X115239022Y-80630000D01*
X115239022Y-80630000D02*
X116372319Y-79496703D01*
X116372319Y-79496703D02*
X116372319Y-78218659D01*
X116372319Y-78218659D02*
X117210978Y-77380000D01*
X117210978Y-77380000D02*
X118951920Y-77380000D01*
X118951920Y-77380000D02*
X119600700Y-77380000D01*
X139495835Y-104761835D02*
X140722165Y-105988165D01*
X160550000Y-114005000D02*
X161064000Y-114519000D01*
X157770000Y-110800001D02*
X157770000Y-111224265D01*
X157770000Y-111224265D02*
X160550000Y-114004265D01*
X160550000Y-114004265D02*
X160550000Y-114005000D01*
X133140000Y-99040000D02*
X133140000Y-98080000D01*
X133140000Y-98080000D02*
X130810000Y-95750000D01*
D16*
G36*
X147883255Y-49573322D02*
X147899259Y-49633779D01*
X147911456Y-49695100D01*
X147918138Y-49705100D01*
X147921216Y-49716729D01*
X147959133Y-49766453D01*
X147993873Y-49818446D01*
X148003875Y-49825129D01*
X148011168Y-49834693D01*
X148065221Y-49866119D01*
X148117219Y-49900863D01*
X148129017Y-49903210D01*
X148139415Y-49909255D01*
X148201379Y-49917604D01*
X148262715Y-49929804D01*
X159483890Y-49929804D01*
X159489306Y-49928727D01*
X159494751Y-49929649D01*
X159561877Y-49914291D01*
X159629386Y-49900863D01*
X159633976Y-49897796D01*
X159639361Y-49896564D01*
X159695503Y-49856685D01*
X159752732Y-49818446D01*
X159755799Y-49813855D01*
X159760302Y-49810657D01*
X159786983Y-49768146D01*
X159801112Y-49758474D01*
X159828355Y-49716056D01*
X159831049Y-49701237D01*
X159835149Y-49695100D01*
X159836226Y-49689683D01*
X159839162Y-49685006D01*
X159850659Y-49617125D01*
X159864090Y-49549604D01*
X159863013Y-49544188D01*
X159863935Y-49538743D01*
X159847404Y-48960300D01*
X160188832Y-49031162D01*
X162293439Y-50048883D01*
X165500183Y-52471315D01*
X168132387Y-55838549D01*
X169806822Y-59127618D01*
X169806845Y-59127662D01*
X171133342Y-61730788D01*
X172090699Y-64353547D01*
X172090932Y-64354179D01*
X172910594Y-66563269D01*
X173870289Y-69272407D01*
X173878386Y-69290591D01*
X174258386Y-69990591D01*
X174260339Y-69994059D01*
X174849956Y-71003404D01*
X175479016Y-72111747D01*
X176247447Y-73518874D01*
X176816101Y-74656181D01*
X178125569Y-77345090D01*
X180034032Y-81351862D01*
X181682857Y-85289057D01*
X181695064Y-85311536D01*
X184561775Y-89516712D01*
X185316088Y-90876461D01*
X187764856Y-96450892D01*
X188091818Y-101107612D01*
X187637360Y-102797009D01*
X187636676Y-102799666D01*
X187029529Y-105268066D01*
X186394604Y-106656965D01*
X185781208Y-107982691D01*
X185350830Y-108520664D01*
X185349860Y-108521891D01*
X184569860Y-109521891D01*
X184569479Y-109522382D01*
X183351657Y-111099561D01*
X181934347Y-112736454D01*
X181035384Y-113755279D01*
X180245979Y-114624624D01*
X180245079Y-114625626D01*
X180183914Y-114694437D01*
X180158465Y-114705344D01*
X178858997Y-114823477D01*
X178805300Y-114827952D01*
X178785413Y-114773263D01*
X178777377Y-114660754D01*
X178796194Y-114434948D01*
X178834286Y-114187350D01*
X179001984Y-113605341D01*
X179651926Y-111375539D01*
X179654358Y-111365768D01*
X179884358Y-110255768D01*
X179886135Y-110244800D01*
X180326135Y-106494800D01*
X180326767Y-106472317D01*
X180006767Y-101192317D01*
X180001665Y-101163578D01*
X179531665Y-99593578D01*
X179531293Y-99592357D01*
X179261746Y-98723815D01*
X179032170Y-97915310D01*
X179031795Y-97914015D01*
X178771795Y-97034015D01*
X178759393Y-97005486D01*
X178529984Y-96616488D01*
X177750784Y-95237904D01*
X176740902Y-93428115D01*
X176737043Y-93421657D01*
X175907043Y-92121657D01*
X175904766Y-92118216D01*
X175164766Y-91038216D01*
X175163874Y-91036930D01*
X174144723Y-89588137D01*
X173195556Y-88169382D01*
X173192838Y-88165480D01*
X172192838Y-86785480D01*
X172176200Y-86766734D01*
X171516833Y-86157319D01*
X170537422Y-85227878D01*
X170537289Y-85227752D01*
X169607289Y-84347752D01*
X169606265Y-84346794D01*
X168666265Y-83476794D01*
X168666108Y-83476649D01*
X167506108Y-82406649D01*
X167485110Y-82390960D01*
X166095573Y-81561236D01*
X164796394Y-80771736D01*
X163926975Y-80232096D01*
X163925071Y-80230937D01*
X162736167Y-79521591D01*
X161727214Y-78892244D01*
X161715622Y-78885828D01*
X161325622Y-78695828D01*
X161317976Y-78692411D01*
X160068394Y-78182581D01*
X159009212Y-77742921D01*
X157479769Y-77093158D01*
X156029931Y-76473227D01*
X156029179Y-76472908D01*
X154529179Y-75842908D01*
X154508980Y-75836351D01*
X153229908Y-75536569D01*
X151670802Y-75146792D01*
X151669638Y-75146507D01*
X149920739Y-74726771D01*
X148389491Y-74330123D01*
X148906864Y-72602624D01*
X149029198Y-72633208D01*
X149038294Y-72635131D01*
X150998294Y-72975131D01*
X151005030Y-72976115D01*
X153785030Y-73306115D01*
X153804114Y-73306933D01*
X155964114Y-73236933D01*
X155970897Y-73236532D01*
X158060897Y-73056532D01*
X158076490Y-73054207D01*
X160186490Y-72604207D01*
X160206773Y-72598073D01*
X162276773Y-71778073D01*
X162298040Y-71767236D01*
X163748040Y-70847236D01*
X163768066Y-70831506D01*
X165098066Y-69551506D01*
X165117472Y-69527667D01*
X165967472Y-68177667D01*
X165978310Y-68156170D01*
X166778310Y-66106170D01*
X166782828Y-66092286D01*
X167242828Y-64342286D01*
X167246944Y-64313771D01*
X167276930Y-63304231D01*
X167296930Y-62704231D01*
X167294566Y-62675257D01*
X167004566Y-61215257D01*
X167000195Y-61198986D01*
X166280195Y-59088986D01*
X166277273Y-59081254D01*
X165587273Y-57421254D01*
X165577696Y-57402690D01*
X164627696Y-55882690D01*
X164613896Y-55864487D01*
X163083896Y-54184487D01*
X163054248Y-54160450D01*
X161724248Y-53380450D01*
X161717268Y-53376645D01*
X159797268Y-52406645D01*
X159777595Y-52398692D01*
X157357595Y-51648692D01*
X157352951Y-51647349D01*
X155342951Y-51107349D01*
X155315597Y-51103123D01*
X152595597Y-50983123D01*
X152581552Y-50983281D01*
X151081552Y-51083281D01*
X151070134Y-51084563D01*
X148860134Y-51434563D01*
X148842092Y-51438789D01*
X146252092Y-52248789D01*
X146240292Y-52253132D01*
X144030292Y-53193132D01*
X144009844Y-53204136D01*
X141489844Y-54874136D01*
X141469075Y-54891334D01*
X139899075Y-56501334D01*
X139888580Y-56513560D01*
X138358580Y-58543560D01*
X138341275Y-58574907D01*
X137551275Y-60654907D01*
X137544753Y-60678973D01*
X137314753Y-62048973D01*
X137313141Y-62075984D01*
X137363141Y-63135984D01*
X137366075Y-63157776D01*
X137626075Y-64317776D01*
X137631818Y-64336498D01*
X138111818Y-65556498D01*
X138119493Y-65572588D01*
X138759493Y-66702588D01*
X138778321Y-66727886D01*
X140168321Y-68177886D01*
X140178613Y-68187495D01*
X141328613Y-69147495D01*
X141352616Y-69163296D01*
X142892616Y-69943296D01*
X142893929Y-69943952D01*
X144153775Y-70563876D01*
X145323593Y-71143786D01*
X145326294Y-71145085D01*
X146076049Y-71494971D01*
X147245971Y-72044934D01*
X147251154Y-72047231D01*
X147971154Y-72347231D01*
X147983809Y-72351734D01*
X148603529Y-72535975D01*
X148112002Y-74265096D01*
X146882723Y-73937288D01*
X146874907Y-73935466D01*
X144724907Y-73505466D01*
X144713124Y-73503680D01*
X143173124Y-73343680D01*
X143171973Y-73343566D01*
X140531973Y-73093566D01*
X140529212Y-73093335D01*
X138329212Y-72933335D01*
X138326041Y-72933144D01*
X137486041Y-72893144D01*
X137475437Y-72893082D01*
X133025437Y-73053082D01*
X133014667Y-73053929D01*
X131534667Y-73233929D01*
X131532587Y-73234199D01*
X127993096Y-73724129D01*
X123903679Y-74254053D01*
X123871914Y-74262456D01*
X123432508Y-74442213D01*
X121283861Y-75301672D01*
X118704903Y-76281276D01*
X118700336Y-76283113D01*
X117171728Y-76932607D01*
X117036780Y-76959450D01*
X116911432Y-77043205D01*
X116370336Y-77273113D01*
X116366532Y-77274804D01*
X113716532Y-78504804D01*
X113715924Y-78505088D01*
X111336917Y-79624620D01*
X109427858Y-80484197D01*
X109397478Y-80503465D01*
X108779556Y-81031689D01*
X106521693Y-82800015D01*
X106505517Y-82815135D01*
X105008045Y-84482320D01*
X103350743Y-86119655D01*
X103333822Y-86140321D01*
X101863822Y-88380321D01*
X101862528Y-88382333D01*
X100842528Y-90002333D01*
X100826094Y-90042139D01*
X100446094Y-91732139D01*
X100445061Y-91737212D01*
X100155061Y-93327212D01*
X100154069Y-93333555D01*
X99814931Y-95930640D01*
X97823567Y-93230023D01*
X96486125Y-89405928D01*
X96357625Y-86252733D01*
X97101115Y-83209377D01*
X98413929Y-80006907D01*
X100236248Y-76949793D01*
X102168530Y-74270494D01*
X105015372Y-71184757D01*
X106971359Y-69725213D01*
X110772145Y-67390872D01*
X112924893Y-66294565D01*
X119169430Y-63487021D01*
X130586738Y-58968087D01*
X130599374Y-58962266D01*
X134929374Y-56672266D01*
X134955429Y-56653972D01*
X138133028Y-53765246D01*
X142158134Y-51692914D01*
X142167253Y-51687732D01*
X145535112Y-49585311D01*
X146529219Y-49240819D01*
X147837674Y-48844061D01*
X147883255Y-49573322D01*
X147883255Y-49573322D01*
G37*
X147883255Y-49573322D02*
X147899259Y-49633779D01*
X147911456Y-49695100D01*
X147918138Y-49705100D01*
X147921216Y-49716729D01*
X147959133Y-49766453D01*
X147993873Y-49818446D01*
X148003875Y-49825129D01*
X148011168Y-49834693D01*
X148065221Y-49866119D01*
X148117219Y-49900863D01*
X148129017Y-49903210D01*
X148139415Y-49909255D01*
X148201379Y-49917604D01*
X148262715Y-49929804D01*
X159483890Y-49929804D01*
X159489306Y-49928727D01*
X159494751Y-49929649D01*
X159561877Y-49914291D01*
X159629386Y-49900863D01*
X159633976Y-49897796D01*
X159639361Y-49896564D01*
X159695503Y-49856685D01*
X159752732Y-49818446D01*
X159755799Y-49813855D01*
X159760302Y-49810657D01*
X159786983Y-49768146D01*
X159801112Y-49758474D01*
X159828355Y-49716056D01*
X159831049Y-49701237D01*
X159835149Y-49695100D01*
X159836226Y-49689683D01*
X159839162Y-49685006D01*
X159850659Y-49617125D01*
X159864090Y-49549604D01*
X159863013Y-49544188D01*
X159863935Y-49538743D01*
X159847404Y-48960300D01*
X160188832Y-49031162D01*
X162293439Y-50048883D01*
X165500183Y-52471315D01*
X168132387Y-55838549D01*
X169806822Y-59127618D01*
X169806845Y-59127662D01*
X171133342Y-61730788D01*
X172090699Y-64353547D01*
X172090932Y-64354179D01*
X172910594Y-66563269D01*
X173870289Y-69272407D01*
X173878386Y-69290591D01*
X174258386Y-69990591D01*
X174260339Y-69994059D01*
X174849956Y-71003404D01*
X175479016Y-72111747D01*
X176247447Y-73518874D01*
X176816101Y-74656181D01*
X178125569Y-77345090D01*
X180034032Y-81351862D01*
X181682857Y-85289057D01*
X181695064Y-85311536D01*
X184561775Y-89516712D01*
X185316088Y-90876461D01*
X187764856Y-96450892D01*
X188091818Y-101107612D01*
X187637360Y-102797009D01*
X187636676Y-102799666D01*
X187029529Y-105268066D01*
X186394604Y-106656965D01*
X185781208Y-107982691D01*
X185350830Y-108520664D01*
X185349860Y-108521891D01*
X184569860Y-109521891D01*
X184569479Y-109522382D01*
X183351657Y-111099561D01*
X181934347Y-112736454D01*
X181035384Y-113755279D01*
X180245979Y-114624624D01*
X180245079Y-114625626D01*
X180183914Y-114694437D01*
X180158465Y-114705344D01*
X178858997Y-114823477D01*
X178805300Y-114827952D01*
X178785413Y-114773263D01*
X178777377Y-114660754D01*
X178796194Y-114434948D01*
X178834286Y-114187350D01*
X179001984Y-113605341D01*
X179651926Y-111375539D01*
X179654358Y-111365768D01*
X179884358Y-110255768D01*
X179886135Y-110244800D01*
X180326135Y-106494800D01*
X180326767Y-106472317D01*
X180006767Y-101192317D01*
X180001665Y-101163578D01*
X179531665Y-99593578D01*
X179531293Y-99592357D01*
X179261746Y-98723815D01*
X179032170Y-97915310D01*
X179031795Y-97914015D01*
X178771795Y-97034015D01*
X178759393Y-97005486D01*
X178529984Y-96616488D01*
X177750784Y-95237904D01*
X176740902Y-93428115D01*
X176737043Y-93421657D01*
X175907043Y-92121657D01*
X175904766Y-92118216D01*
X175164766Y-91038216D01*
X175163874Y-91036930D01*
X174144723Y-89588137D01*
X173195556Y-88169382D01*
X173192838Y-88165480D01*
X172192838Y-86785480D01*
X172176200Y-86766734D01*
X171516833Y-86157319D01*
X170537422Y-85227878D01*
X170537289Y-85227752D01*
X169607289Y-84347752D01*
X169606265Y-84346794D01*
X168666265Y-83476794D01*
X168666108Y-83476649D01*
X167506108Y-82406649D01*
X167485110Y-82390960D01*
X166095573Y-81561236D01*
X164796394Y-80771736D01*
X163926975Y-80232096D01*
X163925071Y-80230937D01*
X162736167Y-79521591D01*
X161727214Y-78892244D01*
X161715622Y-78885828D01*
X161325622Y-78695828D01*
X161317976Y-78692411D01*
X160068394Y-78182581D01*
X159009212Y-77742921D01*
X157479769Y-77093158D01*
X156029931Y-76473227D01*
X156029179Y-76472908D01*
X154529179Y-75842908D01*
X154508980Y-75836351D01*
X153229908Y-75536569D01*
X151670802Y-75146792D01*
X151669638Y-75146507D01*
X149920739Y-74726771D01*
X148389491Y-74330123D01*
X148906864Y-72602624D01*
X149029198Y-72633208D01*
X149038294Y-72635131D01*
X150998294Y-72975131D01*
X151005030Y-72976115D01*
X153785030Y-73306115D01*
X153804114Y-73306933D01*
X155964114Y-73236933D01*
X155970897Y-73236532D01*
X158060897Y-73056532D01*
X158076490Y-73054207D01*
X160186490Y-72604207D01*
X160206773Y-72598073D01*
X162276773Y-71778073D01*
X162298040Y-71767236D01*
X163748040Y-70847236D01*
X163768066Y-70831506D01*
X165098066Y-69551506D01*
X165117472Y-69527667D01*
X165967472Y-68177667D01*
X165978310Y-68156170D01*
X166778310Y-66106170D01*
X166782828Y-66092286D01*
X167242828Y-64342286D01*
X167246944Y-64313771D01*
X167276930Y-63304231D01*
X167296930Y-62704231D01*
X167294566Y-62675257D01*
X167004566Y-61215257D01*
X167000195Y-61198986D01*
X166280195Y-59088986D01*
X166277273Y-59081254D01*
X165587273Y-57421254D01*
X165577696Y-57402690D01*
X164627696Y-55882690D01*
X164613896Y-55864487D01*
X163083896Y-54184487D01*
X163054248Y-54160450D01*
X161724248Y-53380450D01*
X161717268Y-53376645D01*
X159797268Y-52406645D01*
X159777595Y-52398692D01*
X157357595Y-51648692D01*
X157352951Y-51647349D01*
X155342951Y-51107349D01*
X155315597Y-51103123D01*
X152595597Y-50983123D01*
X152581552Y-50983281D01*
X151081552Y-51083281D01*
X151070134Y-51084563D01*
X148860134Y-51434563D01*
X148842092Y-51438789D01*
X146252092Y-52248789D01*
X146240292Y-52253132D01*
X144030292Y-53193132D01*
X144009844Y-53204136D01*
X141489844Y-54874136D01*
X141469075Y-54891334D01*
X139899075Y-56501334D01*
X139888580Y-56513560D01*
X138358580Y-58543560D01*
X138341275Y-58574907D01*
X137551275Y-60654907D01*
X137544753Y-60678973D01*
X137314753Y-62048973D01*
X137313141Y-62075984D01*
X137363141Y-63135984D01*
X137366075Y-63157776D01*
X137626075Y-64317776D01*
X137631818Y-64336498D01*
X138111818Y-65556498D01*
X138119493Y-65572588D01*
X138759493Y-66702588D01*
X138778321Y-66727886D01*
X140168321Y-68177886D01*
X140178613Y-68187495D01*
X141328613Y-69147495D01*
X141352616Y-69163296D01*
X142892616Y-69943296D01*
X142893929Y-69943952D01*
X144153775Y-70563876D01*
X145323593Y-71143786D01*
X145326294Y-71145085D01*
X146076049Y-71494971D01*
X147245971Y-72044934D01*
X147251154Y-72047231D01*
X147971154Y-72347231D01*
X147983809Y-72351734D01*
X148603529Y-72535975D01*
X148112002Y-74265096D01*
X146882723Y-73937288D01*
X146874907Y-73935466D01*
X144724907Y-73505466D01*
X144713124Y-73503680D01*
X143173124Y-73343680D01*
X143171973Y-73343566D01*
X140531973Y-73093566D01*
X140529212Y-73093335D01*
X138329212Y-72933335D01*
X138326041Y-72933144D01*
X137486041Y-72893144D01*
X137475437Y-72893082D01*
X133025437Y-73053082D01*
X133014667Y-73053929D01*
X131534667Y-73233929D01*
X131532587Y-73234199D01*
X127993096Y-73724129D01*
X123903679Y-74254053D01*
X123871914Y-74262456D01*
X123432508Y-74442213D01*
X121283861Y-75301672D01*
X118704903Y-76281276D01*
X118700336Y-76283113D01*
X117171728Y-76932607D01*
X117036780Y-76959450D01*
X116911432Y-77043205D01*
X116370336Y-77273113D01*
X116366532Y-77274804D01*
X113716532Y-78504804D01*
X113715924Y-78505088D01*
X111336917Y-79624620D01*
X109427858Y-80484197D01*
X109397478Y-80503465D01*
X108779556Y-81031689D01*
X106521693Y-82800015D01*
X106505517Y-82815135D01*
X105008045Y-84482320D01*
X103350743Y-86119655D01*
X103333822Y-86140321D01*
X101863822Y-88380321D01*
X101862528Y-88382333D01*
X100842528Y-90002333D01*
X100826094Y-90042139D01*
X100446094Y-91732139D01*
X100445061Y-91737212D01*
X100155061Y-93327212D01*
X100154069Y-93333555D01*
X99814931Y-95930640D01*
X97823567Y-93230023D01*
X96486125Y-89405928D01*
X96357625Y-86252733D01*
X97101115Y-83209377D01*
X98413929Y-80006907D01*
X100236248Y-76949793D01*
X102168530Y-74270494D01*
X105015372Y-71184757D01*
X106971359Y-69725213D01*
X110772145Y-67390872D01*
X112924893Y-66294565D01*
X119169430Y-63487021D01*
X130586738Y-58968087D01*
X130599374Y-58962266D01*
X134929374Y-56672266D01*
X134955429Y-56653972D01*
X138133028Y-53765246D01*
X142158134Y-51692914D01*
X142167253Y-51687732D01*
X145535112Y-49585311D01*
X146529219Y-49240819D01*
X147837674Y-48844061D01*
X147883255Y-49573322D01*
M02*
