M48
;DRILL file {KiCad 4.0.5+dfsg1-4} date Sun Sep 22 01:54:56 2019
;FORMAT={3:3/ absolute / metric / suppress leading zeros}
FMAT,2
METRIC,TZ
T1C0.400
%
G90
G05
M71
T1
X104760Y-79190
X110249Y-82750
X115601Y-78880
X118480Y-78410
X118480Y-88210
X119601Y-77380
X121130Y-90860
X124488Y-109045
X124996Y-104499
X125504Y-102949
X126012Y-98403
X126520Y-95355
X128100Y-74880
X130810Y-95750
X133140Y-99040
X134394Y-107547
X134902Y-104499
X135120Y-73860
X135410Y-101451
X135918Y-98403
X136426Y-96853
X138099Y-74130
X138436Y-101206
X138436Y-103702
X139874Y-96082
X139970Y-93880
X140722Y-98920
X140722Y-105988
X142349Y-74380
X143370Y-110210
X143720Y-74450
X146586Y-95220
X147810Y-92420
X147830Y-69310
X148110Y-108296
X148872Y-67643
X148872Y-95220
X149101Y-76130
X149570Y-93140
X149634Y-69193
X150396Y-108296
X151010Y-112210
X151320Y-73850
X152120Y-76350
X152682Y-108230
X153111Y-89211
X153366Y-93790
X153444Y-64849
X154849Y-77380
X154968Y-62055
X155730Y-95220
X155984Y-103660
X157770Y-110800
X158016Y-56467
X158016Y-95220
X158849Y-79380
X160130Y-97840
X161064Y-114519
X161351Y-81130
X161920Y-111800
X162334Y-114519
X164874Y-114519
X165290Y-102110
X165680Y-74610
X166349Y-83630
X167020Y-97870
X172099Y-89130
X172851Y-92380
X175047Y-95850
T0
M30
