G04 #@! TF.FileFunction,Soldermask,Top*
%FSLAX46Y46*%
G04 Gerber Fmt 4.6, Leading zero omitted, Abs format (unit mm)*
G04 Created by KiCad (PCBNEW 4.0.5+dfsg1-4) date Sun Sep 22 01:55:02 2019*
%MOMM*%
%LPD*%
G01*
G04 APERTURE LIST*
%ADD10C,0.100000*%
%ADD11C,1.390600*%
%ADD12R,1.197560X1.197560*%
%ADD13C,1.120000*%
G04 APERTURE END LIST*
D10*
D11*
X167414000Y-116170000D03*
X167414000Y-114138000D03*
X159794000Y-115154000D03*
D10*
G36*
X140722165Y-99766638D02*
X139875362Y-98919835D01*
X140722165Y-98073032D01*
X141568968Y-98919835D01*
X140722165Y-99766638D01*
X140722165Y-99766638D01*
G37*
G36*
X141781835Y-98706968D02*
X140935032Y-97860165D01*
X141781835Y-97013362D01*
X142628638Y-97860165D01*
X141781835Y-98706968D01*
X141781835Y-98706968D01*
G37*
D12*
X126520000Y-95354700D03*
X126520000Y-96853300D03*
X125504000Y-102949300D03*
X125504000Y-101450700D03*
X124488000Y-109045300D03*
X124488000Y-107546700D03*
D10*
G36*
X138436165Y-102052638D02*
X137589362Y-101205835D01*
X138436165Y-100359032D01*
X139282968Y-101205835D01*
X138436165Y-102052638D01*
X138436165Y-102052638D01*
G37*
G36*
X139495835Y-100992968D02*
X138649032Y-100146165D01*
X139495835Y-99299362D01*
X140342638Y-100146165D01*
X139495835Y-100992968D01*
X139495835Y-100992968D01*
G37*
G36*
X137589362Y-103702165D02*
X138436165Y-102855362D01*
X139282968Y-103702165D01*
X138436165Y-104548968D01*
X137589362Y-103702165D01*
X137589362Y-103702165D01*
G37*
G36*
X138649032Y-104761835D02*
X139495835Y-103915032D01*
X140342638Y-104761835D01*
X139495835Y-105608638D01*
X138649032Y-104761835D01*
X138649032Y-104761835D01*
G37*
D12*
X124996000Y-104498700D03*
X124996000Y-105997300D03*
X136426000Y-96853300D03*
X136426000Y-95354700D03*
X102349300Y-95130000D03*
X100850700Y-95130000D03*
X148364000Y-63096700D03*
X148364000Y-64595300D03*
X148872000Y-66144700D03*
X148872000Y-67643300D03*
X132350700Y-74380000D03*
X133849300Y-74380000D03*
X149634000Y-69192700D03*
X149634000Y-70691300D03*
X110249300Y-82750000D03*
X108750700Y-82750000D03*
X111850700Y-80630000D03*
X113349300Y-80630000D03*
X115600700Y-78880000D03*
X117099300Y-78880000D03*
X119600700Y-77380000D03*
X121099300Y-77380000D03*
X156492000Y-59261300D03*
X156492000Y-57762700D03*
X149101400Y-76130000D03*
X150600000Y-76130000D03*
X154849300Y-77380000D03*
X153350700Y-77380000D03*
X125348600Y-76130000D03*
X123850000Y-76130000D03*
X161351400Y-81130000D03*
X162850000Y-81130000D03*
X178323300Y-99406000D03*
X176824700Y-99406000D03*
X175046700Y-95850000D03*
X176545300Y-95850000D03*
X179019300Y-103580000D03*
X177520700Y-103580000D03*
X135410000Y-101450700D03*
X135410000Y-102949300D03*
X134902000Y-104498700D03*
X134902000Y-105997300D03*
X126012000Y-98402700D03*
X126012000Y-99901300D03*
X135918000Y-98402700D03*
X135918000Y-99901300D03*
X134394000Y-107546700D03*
X134394000Y-109045300D03*
D10*
G36*
X139875362Y-105988165D02*
X140722165Y-105141362D01*
X141568968Y-105988165D01*
X140722165Y-106834968D01*
X139875362Y-105988165D01*
X139875362Y-105988165D01*
G37*
G36*
X140935032Y-107047835D02*
X141781835Y-106201032D01*
X142628638Y-107047835D01*
X141781835Y-107894638D01*
X140935032Y-107047835D01*
X140935032Y-107047835D01*
G37*
D12*
X147348000Y-57000700D03*
X147348000Y-58499300D03*
X147856000Y-60048700D03*
X147856000Y-61547300D03*
X101350700Y-91630000D03*
X102849300Y-91630000D03*
X153444000Y-64849300D03*
X153444000Y-63350700D03*
X103070865Y-88409835D03*
X104569465Y-88409835D03*
X154968000Y-62055300D03*
X154968000Y-60556700D03*
X107069465Y-85409835D03*
X105570865Y-85409835D03*
X138098600Y-74130000D03*
X136600000Y-74130000D03*
X151666000Y-67643300D03*
X151666000Y-66144700D03*
X158016000Y-56467300D03*
X158016000Y-54968700D03*
X142349300Y-74380000D03*
X140850700Y-74380000D03*
X145101400Y-75130000D03*
X146600000Y-75130000D03*
X128100000Y-74880000D03*
X129598600Y-74880000D03*
X158849300Y-79380000D03*
X157350700Y-79380000D03*
X166349300Y-83630000D03*
X164850700Y-83630000D03*
X167850700Y-86380000D03*
X169349300Y-86380000D03*
X172099300Y-89130000D03*
X170600700Y-89130000D03*
X172850700Y-92380000D03*
X174349300Y-92380000D03*
X175808700Y-114646000D03*
X177307300Y-114646000D03*
X176760700Y-110760000D03*
X178259300Y-110760000D03*
X177400700Y-107440000D03*
X178899300Y-107440000D03*
D13*
X148615837Y-136694163D03*
X153424163Y-131885837D03*
M02*
