G04 #@! TF.FileFunction,Copper,L2,Bot,Signal*
%FSLAX46Y46*%
G04 Gerber Fmt 4.6, Leading zero omitted, Abs format (unit mm)*
G04 Created by KiCad (PCBNEW 4.0.5+dfsg1-4) date Sun Sep 22 01:55:02 2019*
%MOMM*%
%LPD*%
G01*
G04 APERTURE LIST*
%ADD10C,0.100000*%
%ADD11C,0.787400*%
%ADD12R,0.800000X0.750000*%
%ADD13R,0.750000X0.800000*%
%ADD14R,1.140460X2.029460*%
%ADD15R,0.800000X0.900000*%
%ADD16R,1.300000X0.700000*%
%ADD17R,0.600000X2.200000*%
%ADD18R,0.700000X1.300000*%
%ADD19R,1.600000X2.000000*%
%ADD20R,2.500000X5.100000*%
%ADD21C,16.500000*%
%ADD22C,0.600000*%
%ADD23C,0.400000*%
%ADD24C,0.250000*%
%ADD25C,0.203200*%
%ADD26C,0.254000*%
G04 APERTURE END LIST*
D10*
D11*
X161064000Y-114519000D03*
X162334000Y-114519000D03*
X163604000Y-114519000D03*
X164874000Y-114519000D03*
X166144000Y-114519000D03*
X166144000Y-115789000D03*
X164874000Y-115789000D03*
X163604000Y-115789000D03*
X162334000Y-115789000D03*
X161064000Y-115789000D03*
D12*
X144870000Y-110210000D03*
X143370000Y-110210000D03*
D13*
X158016000Y-102696000D03*
X158016000Y-101196000D03*
D14*
X147940000Y-114930000D03*
X145532080Y-114930000D03*
D15*
X149420000Y-121040000D03*
X151320000Y-121040000D03*
X150370000Y-123040000D03*
D16*
X158016000Y-95220000D03*
X158016000Y-97120000D03*
X155730000Y-95220000D03*
X155730000Y-97120000D03*
X153444000Y-95220000D03*
X153444000Y-97120000D03*
X151158000Y-95219999D03*
X151158000Y-97119999D03*
X148872000Y-95219999D03*
X148872000Y-97119999D03*
X146586000Y-95220000D03*
X146586000Y-97120000D03*
X148110000Y-108296000D03*
X148110000Y-106396000D03*
X150396000Y-108296001D03*
X150396000Y-106396001D03*
X152682000Y-106330000D03*
X152682000Y-108230000D03*
D17*
X155984000Y-99660000D03*
X155984000Y-103660000D03*
X154714000Y-99660000D03*
X154714000Y-103660000D03*
X153444000Y-99660000D03*
X153444000Y-103660000D03*
X152174000Y-99660000D03*
X152174000Y-103660000D03*
X150904000Y-99660000D03*
X150904000Y-103660000D03*
X149634000Y-99660000D03*
X149634000Y-103660000D03*
X148364000Y-99660000D03*
X148364000Y-103660000D03*
D18*
X146230000Y-103670000D03*
X144330000Y-103670000D03*
D19*
X129450000Y-82150000D03*
X129450000Y-87550000D03*
D10*
G36*
X151691751Y-130719111D02*
X152823122Y-131850482D01*
X152116015Y-132557589D01*
X150984644Y-131426218D01*
X151691751Y-130719111D01*
X151691751Y-130719111D01*
G37*
G36*
X149923985Y-132486878D02*
X151055356Y-133618249D01*
X150348249Y-134325356D01*
X149216878Y-133193985D01*
X149923985Y-132486878D01*
X149923985Y-132486878D01*
G37*
G36*
X148156218Y-134254644D02*
X149287589Y-135386015D01*
X148580482Y-136093122D01*
X147449111Y-134961751D01*
X148156218Y-134254644D01*
X148156218Y-134254644D01*
G37*
G36*
X149923985Y-136022411D02*
X151055356Y-137153782D01*
X150348249Y-137860889D01*
X149216878Y-136729518D01*
X149923985Y-136022411D01*
X149923985Y-136022411D01*
G37*
G36*
X151691751Y-134254644D02*
X152823122Y-135386015D01*
X152116015Y-136093122D01*
X150984644Y-134961751D01*
X151691751Y-134254644D01*
X151691751Y-134254644D01*
G37*
G36*
X153459518Y-132486878D02*
X154590889Y-133618249D01*
X153883782Y-134325356D01*
X152752411Y-133193985D01*
X153459518Y-132486878D01*
X153459518Y-132486878D01*
G37*
D20*
X125426000Y-127854001D03*
X147426000Y-127854001D03*
D21*
X136426000Y-127854001D03*
D22*
X164874000Y-114519000D03*
X155984000Y-103660000D03*
X152682000Y-108230000D03*
X151010000Y-112210000D03*
X143370000Y-110210000D03*
X162334000Y-114519000D03*
X161920000Y-111800000D03*
X151320000Y-73850000D03*
X104760000Y-79190000D03*
X165680000Y-74610000D03*
X158016000Y-95220000D03*
X153110795Y-89210795D03*
X172099300Y-89130000D03*
X153444000Y-64849300D03*
X143720000Y-74450000D03*
X142349300Y-74380000D03*
X126520000Y-95354700D03*
X155730000Y-95220000D03*
X126012000Y-98402700D03*
X125504000Y-102949300D03*
X153365799Y-93790000D03*
X160130000Y-97840000D03*
X165290000Y-102110000D03*
X110249300Y-82750000D03*
X148872000Y-67643300D03*
X158849300Y-79380000D03*
X124996000Y-104498700D03*
X124488000Y-109045300D03*
X154968000Y-62055300D03*
X166349300Y-83630000D03*
X135410000Y-101450700D03*
X136426000Y-96853300D03*
X138098600Y-74130000D03*
X149570000Y-93140000D03*
X147810000Y-92420000D03*
X148872000Y-95219999D03*
X149634000Y-69192700D03*
X149101400Y-76130000D03*
X152120000Y-76350000D03*
X135120000Y-73860000D03*
X134902000Y-104498700D03*
X135918000Y-98402700D03*
X121130000Y-90859806D03*
X118480000Y-88209806D03*
X167020000Y-97870000D03*
X146586000Y-95220000D03*
X139874264Y-96081800D03*
X139970000Y-93880000D03*
X115600700Y-78880000D03*
X128100000Y-74880000D03*
X175046700Y-95850000D03*
X118480000Y-78410000D03*
X138436165Y-101205835D03*
X134394000Y-107546700D03*
X172850700Y-92380000D03*
X161351400Y-81130000D03*
X147830000Y-69310000D03*
X158016000Y-56467300D03*
X140722165Y-98919835D03*
X138436165Y-103702165D03*
X148110000Y-108296000D03*
X150396000Y-108296001D03*
X154849300Y-77380000D03*
X119600700Y-77380000D03*
X140722165Y-105988165D03*
X161064000Y-114519000D03*
X157770000Y-110800001D03*
X130810000Y-95750000D03*
X133140000Y-99040000D03*
D23*
X147940000Y-112340000D02*
X145810000Y-110210000D01*
X145810000Y-110210000D02*
X144870000Y-110210000D01*
X147940000Y-112410000D02*
X147940000Y-112340000D01*
X147940000Y-114930000D02*
X147940000Y-116344730D01*
X147940000Y-116344730D02*
X151320000Y-119724730D01*
X151320000Y-119724730D02*
X151320000Y-121040000D01*
X150790000Y-109560000D02*
X150190000Y-110160000D01*
X150190000Y-110160000D02*
X147940000Y-112410000D01*
D24*
X144330000Y-106106762D02*
X148383238Y-110160000D01*
X144330000Y-103670000D02*
X144330000Y-106106762D01*
X148383238Y-110160000D02*
X150190000Y-110160000D01*
D23*
X147940000Y-112410000D02*
X147940000Y-114930000D01*
X152102000Y-109560000D02*
X150790000Y-109560000D01*
X152682000Y-108980000D02*
X152102000Y-109560000D01*
X152682000Y-108230000D02*
X152682000Y-108980000D01*
D24*
X155984000Y-103660000D02*
X157052000Y-103660000D01*
X157052000Y-103660000D02*
X158016000Y-102696000D01*
X168203218Y-112130000D02*
X162250000Y-112130000D01*
X162250000Y-112130000D02*
X161920000Y-111800000D01*
D23*
X150370000Y-123040000D02*
X150370000Y-123090000D01*
X150370000Y-123090000D02*
X151320000Y-124040000D01*
X151320000Y-124040000D02*
X151850000Y-124040000D01*
X151760000Y-111460000D02*
X153250000Y-111460000D01*
X151010000Y-112210000D02*
X151760000Y-111460000D01*
X151010000Y-116980000D02*
X151010000Y-112210000D01*
X151750000Y-117720000D02*
X151010000Y-116980000D01*
X151750000Y-118870000D02*
X151750000Y-117720000D01*
X153040000Y-120160000D02*
X151750000Y-118870000D01*
X153040000Y-122850000D02*
X153040000Y-120160000D01*
X151850000Y-124040000D02*
X153040000Y-122850000D01*
D24*
X174100000Y-112130000D02*
X168203218Y-112130000D01*
X155984000Y-99660000D02*
X161630000Y-99660000D01*
X186780000Y-107450000D02*
X186780000Y-93380000D01*
X161630000Y-99660000D02*
X174100000Y-112130000D01*
X174100000Y-112130000D02*
X182100000Y-112130000D01*
X182100000Y-112130000D02*
X186780000Y-107450000D01*
X186780000Y-93380000D02*
X184450000Y-93380000D01*
X184450000Y-93380000D02*
X165680000Y-74610000D01*
X146170000Y-74450000D02*
X147160000Y-74450000D01*
X143720000Y-74450000D02*
X146170000Y-74450000D01*
D25*
X152425199Y-76954801D02*
X149000000Y-76954801D01*
X146170000Y-74450000D02*
X146495199Y-74450000D01*
X146495199Y-74450000D02*
X149000000Y-76954801D01*
D24*
X147160000Y-74450000D02*
X147170000Y-74460000D01*
X147170000Y-74460000D02*
X149005799Y-72624201D01*
X149005799Y-72624201D02*
X149005799Y-68439239D01*
X149005799Y-68439239D02*
X149500201Y-67944837D01*
X152306934Y-64849300D02*
X153444000Y-64849300D01*
X149500201Y-67944837D02*
X149500201Y-67656033D01*
X149500201Y-67656033D02*
X152306934Y-64849300D01*
D25*
X126520000Y-95354700D02*
X127121980Y-95354700D01*
X139406410Y-93473590D02*
X139604801Y-93275199D01*
X127121980Y-95354700D02*
X129003090Y-93473590D01*
X129003090Y-93473590D02*
X139406410Y-93473590D01*
X148774894Y-90560000D02*
X151761590Y-90560000D01*
X139604801Y-93275199D02*
X146059695Y-93275199D01*
X146059695Y-93275199D02*
X148774894Y-90560000D01*
X151761590Y-90560000D02*
X153110795Y-89210795D01*
X153110795Y-89210795D02*
X153110795Y-88786531D01*
X155139605Y-76775199D02*
X152604801Y-76775199D01*
X153110795Y-88786531D02*
X155454101Y-86443225D01*
X155454101Y-77089695D02*
X155139605Y-76775199D01*
X155454101Y-86443225D02*
X155454101Y-77089695D01*
X152604801Y-76775199D02*
X152425199Y-76954801D01*
D24*
X158016000Y-95220000D02*
X166009300Y-95220000D01*
X166009300Y-95220000D02*
X172099300Y-89130000D01*
X143720000Y-74450000D02*
X142419300Y-74450000D01*
X142419300Y-74450000D02*
X142349300Y-74380000D01*
X125504000Y-102949300D02*
X125504000Y-98910700D01*
X125504000Y-98910700D02*
X126012000Y-98402700D01*
X153745537Y-64221099D02*
X154072201Y-64547763D01*
X154072201Y-64547763D02*
X154072201Y-75085294D01*
X154072201Y-75085294D02*
X158366907Y-79380000D01*
X158366907Y-79380000D02*
X158849300Y-79380000D01*
D25*
X153745537Y-64221099D02*
X153745537Y-64255731D01*
D24*
X153365799Y-94541799D02*
X153365799Y-93790000D01*
X153365799Y-93790000D02*
X153365799Y-89844201D01*
X165290000Y-102110000D02*
X161020000Y-97840000D01*
X161020000Y-97840000D02*
X160130000Y-97840000D01*
X124996000Y-104498700D02*
X125644780Y-104498700D01*
X125644780Y-104498700D02*
X135283480Y-94860000D01*
X135283480Y-94860000D02*
X144764131Y-94860000D01*
X144764131Y-94860000D02*
X145535542Y-94088588D01*
X145535542Y-94088588D02*
X152928588Y-94088588D01*
X152928588Y-94088588D02*
X153365799Y-94525799D01*
X153365799Y-94525799D02*
X153365799Y-94541799D01*
D25*
X121720000Y-94822680D02*
X121720000Y-100620720D01*
X121720000Y-100620720D02*
X124996000Y-103896720D01*
X124996000Y-103896720D02*
X124996000Y-104498700D01*
X110249300Y-82750000D02*
X110249300Y-83351980D01*
X110249300Y-83351980D02*
X121720000Y-94822680D01*
D24*
X152294201Y-64221099D02*
X148872000Y-67643300D01*
X153745537Y-64221099D02*
X152294201Y-64221099D01*
X159250000Y-83960000D02*
X159250000Y-79780700D01*
X159250000Y-79780700D02*
X158849300Y-79380000D01*
X153365799Y-89844201D02*
X159250000Y-83960000D01*
X153444000Y-95220000D02*
X153444000Y-94620000D01*
X153444000Y-94620000D02*
X153365799Y-94541799D01*
X159860934Y-83990000D02*
X164770000Y-83990000D01*
X166349300Y-83630000D02*
X165130000Y-83630000D01*
X165130000Y-83630000D02*
X164770000Y-83990000D01*
X151158000Y-95219999D02*
X151458000Y-95219999D01*
X151458000Y-95219999D02*
X152136202Y-95898201D01*
X154751799Y-95502963D02*
X154751799Y-89099135D01*
X152136202Y-95898201D02*
X154356561Y-95898201D01*
X154356561Y-95898201D02*
X154751799Y-95502963D01*
X154751799Y-89099135D02*
X159860934Y-83990000D01*
X154968000Y-62055300D02*
X154968000Y-62704080D01*
X154978621Y-62714701D02*
X154978621Y-74709846D01*
X158600500Y-78331725D02*
X159762947Y-78331725D01*
X154968000Y-62704080D02*
X154978621Y-62714701D01*
X154978621Y-74709846D02*
X158600500Y-78331725D01*
X159762947Y-78331725D02*
X165061222Y-83630000D01*
X165061222Y-83630000D02*
X166349300Y-83630000D01*
X151158000Y-95219999D02*
X150858000Y-95219999D01*
X150858000Y-95219999D02*
X150179799Y-94541798D01*
X150179799Y-94541798D02*
X145723267Y-94541798D01*
X145723267Y-94541798D02*
X144936474Y-95328591D01*
X144936474Y-95328591D02*
X139668591Y-95328591D01*
X139668591Y-95328591D02*
X139667182Y-95330000D01*
X139667182Y-95330000D02*
X139513300Y-95330000D01*
X139513300Y-95330000D02*
X137990000Y-96853300D01*
X137990000Y-96853300D02*
X136426000Y-96853300D01*
X147810000Y-92420000D02*
X148850000Y-92420000D01*
X148850000Y-92420000D02*
X149570000Y-93140000D01*
X149634000Y-69192700D02*
X149634000Y-75597400D01*
X149634000Y-75597400D02*
X149101400Y-76130000D01*
X152120000Y-76350000D02*
X149321400Y-76350000D01*
X149321400Y-76350000D02*
X149101400Y-76130000D01*
X138098600Y-74130000D02*
X135390000Y-74130000D01*
X135390000Y-74130000D02*
X135120000Y-73860000D01*
D25*
X121130000Y-90859806D02*
X126229695Y-95959501D01*
D24*
X167020000Y-97870000D02*
X173675480Y-97870000D01*
X173675480Y-97870000D02*
X175046700Y-96498780D01*
X175046700Y-96498780D02*
X175046700Y-95850000D01*
X139874264Y-96081800D02*
X140174263Y-95781801D01*
X140174263Y-95781801D02*
X145148199Y-95781801D01*
X145148199Y-95781801D02*
X145150000Y-95780000D01*
X145150000Y-95756000D02*
X145686000Y-95220000D01*
X145150000Y-95780000D02*
X145150000Y-95756000D01*
X145686000Y-95220000D02*
X146586000Y-95220000D01*
X138436165Y-101205835D02*
X138436165Y-97519899D01*
X138436165Y-97519899D02*
X139874264Y-96081800D01*
X146456000Y-95350000D02*
X146586000Y-95220000D01*
D25*
X118480000Y-78410000D02*
X118480000Y-88209806D01*
X126229695Y-95959501D02*
X127091929Y-95959501D01*
X127091929Y-95959501D02*
X129171430Y-93880000D01*
X129171430Y-93880000D02*
X139970000Y-93880000D01*
D24*
X115600700Y-78880000D02*
X118010000Y-78880000D01*
X118010000Y-78880000D02*
X118480000Y-78410000D01*
D25*
X158369949Y-78775199D02*
X158386494Y-78758653D01*
X158386494Y-78758653D02*
X159598579Y-78775199D01*
D24*
X154525411Y-74897570D02*
X158386494Y-78758653D01*
X154525411Y-64360038D02*
X154525411Y-74897570D01*
X152835372Y-62670000D02*
X154525411Y-64360038D01*
D25*
X159598579Y-78775199D02*
X161351400Y-80528020D01*
X161351400Y-80528020D02*
X161351400Y-81130000D01*
D24*
X172850700Y-92380000D02*
X169490234Y-92380000D01*
X169490234Y-92380000D02*
X165518823Y-96351411D01*
X165518823Y-96351411D02*
X145219524Y-96351411D01*
X145219524Y-96351411D02*
X142651100Y-98919835D01*
X142651100Y-98919835D02*
X140722165Y-98919835D01*
X158016000Y-57116080D02*
X152462080Y-62670000D01*
X152462080Y-62670000D02*
X147830000Y-67302080D01*
X152835372Y-62670000D02*
X152462080Y-62670000D01*
X158016000Y-56467300D02*
X158016000Y-57116080D01*
X147830000Y-67302080D02*
X147830000Y-69310000D01*
D25*
X119600700Y-77380000D02*
X154849300Y-77380000D01*
D23*
X125426000Y-127854001D02*
X123776000Y-127854001D01*
X127530000Y-137120000D02*
X128950000Y-138540000D01*
X123776000Y-127854001D02*
X123726000Y-127904001D01*
X123726000Y-127904001D02*
X123726000Y-130804001D01*
X123730000Y-130808001D02*
X123730000Y-133290000D01*
X123726000Y-130804001D02*
X123730000Y-130808001D01*
X123730000Y-133290000D02*
X127530000Y-137090000D01*
X127530000Y-137090000D02*
X127530000Y-137120000D01*
X128950000Y-138540000D02*
X142900000Y-138540000D01*
X142900000Y-138540000D02*
X148033883Y-133406117D01*
X148033883Y-133406117D02*
X150136117Y-133406117D01*
X149126000Y-127854001D02*
X147426000Y-127854001D01*
X150136117Y-133406117D02*
X150136117Y-128864118D01*
X150136117Y-128864118D02*
X149126000Y-127854001D01*
D24*
X152682000Y-106330000D02*
X152982000Y-106330000D01*
X158970499Y-115549281D02*
X159932119Y-116510901D01*
X152982000Y-106330000D02*
X153660201Y-107008201D01*
X153660201Y-107008201D02*
X153660201Y-107020201D01*
X153660201Y-107020201D02*
X154526790Y-107886790D01*
X159932119Y-116510901D02*
X165422099Y-116510901D01*
X154526790Y-107886790D02*
X154526790Y-109117725D01*
X154526790Y-109117725D02*
X158970499Y-113561433D01*
X158970499Y-113561433D02*
X158970499Y-115549281D01*
X165422099Y-116510901D02*
X166144000Y-115789000D01*
X152682000Y-106330000D02*
X152682000Y-105730000D01*
X152682000Y-105730000D02*
X152174000Y-105222000D01*
X152174000Y-105222000D02*
X152174000Y-103660000D01*
X150396000Y-106396001D02*
X150396000Y-105796001D01*
X150396000Y-105796001D02*
X149634000Y-105034001D01*
X149634000Y-105034001D02*
X149634000Y-105010000D01*
X149634000Y-105010000D02*
X149634000Y-103660000D01*
X148364000Y-103660000D02*
X148364000Y-106142000D01*
X148364000Y-106142000D02*
X148110000Y-106396000D01*
X148364000Y-99660000D02*
X147814000Y-99660000D01*
X147814000Y-99660000D02*
X146586000Y-98432000D01*
X146586000Y-98432000D02*
X146586000Y-97720000D01*
X146586000Y-97720000D02*
X146586000Y-97120000D01*
X148872000Y-97119999D02*
X148872000Y-98098000D01*
X149634000Y-98860000D02*
X149634000Y-99660000D01*
X148872000Y-98098000D02*
X149634000Y-98860000D01*
X149172000Y-97119999D02*
X148872000Y-97119999D01*
X150904000Y-97973999D02*
X150904000Y-99660000D01*
X151158000Y-97119999D02*
X151158000Y-97719999D01*
X151158000Y-97719999D02*
X150904000Y-97973999D01*
X152174000Y-98090000D02*
X152174000Y-99660000D01*
X153444000Y-97120000D02*
X153144000Y-97120000D01*
X153144000Y-97120000D02*
X152174000Y-98090000D01*
X155730000Y-97120000D02*
X155184000Y-97120000D01*
X155184000Y-97120000D02*
X153444000Y-98860000D01*
X153444000Y-98860000D02*
X153444000Y-99660000D01*
X155142000Y-97882000D02*
X156954000Y-97882000D01*
X156954000Y-97882000D02*
X157716000Y-97120000D01*
X157716000Y-97120000D02*
X158016000Y-97120000D01*
X154714000Y-99660000D02*
X154714000Y-98310000D01*
X154714000Y-98310000D02*
X155142000Y-97882000D01*
D23*
X136426000Y-127854001D02*
X143890000Y-120390001D01*
X145890000Y-112460000D02*
X146670000Y-113240000D01*
X143890000Y-120390001D02*
X143890000Y-113080000D01*
X143890000Y-113080000D02*
X144510000Y-112460000D01*
X144510000Y-112460000D02*
X145890000Y-112460000D01*
X146670000Y-113240000D02*
X146670000Y-116380000D01*
X146670000Y-116380000D02*
X149420000Y-119130000D01*
X149420000Y-119130000D02*
X149420000Y-121040000D01*
X136426000Y-127854001D02*
X138515999Y-127854001D01*
D24*
X154714000Y-103660000D02*
X154714000Y-106780132D01*
X154714000Y-106780132D02*
X155433210Y-107499342D01*
X155433210Y-107499342D02*
X155433210Y-108742276D01*
X155433210Y-108742276D02*
X157490935Y-110800001D01*
X157490935Y-110800001D02*
X157770000Y-110800001D01*
X154714000Y-103660000D02*
X154714000Y-104460000D01*
X163604000Y-114519000D02*
X162882099Y-113797099D01*
X162882099Y-113797099D02*
X159847099Y-113797099D01*
X159847099Y-113797099D02*
X154980000Y-108930000D01*
X154980000Y-108930000D02*
X154980000Y-107687066D01*
X154980000Y-107687066D02*
X153660201Y-106367267D01*
X153660201Y-106367267D02*
X153660201Y-105717439D01*
X153660201Y-105717439D02*
X153444000Y-105501238D01*
X153444000Y-105501238D02*
X153444000Y-103660000D01*
X153444000Y-102860000D02*
X153444000Y-103660000D01*
X130810000Y-95750000D02*
X130170689Y-96389311D01*
X130170689Y-96389311D02*
X125729767Y-96389311D01*
X125729767Y-96389311D02*
X120501799Y-91161343D01*
X128400000Y-87550000D02*
X129450000Y-87550000D01*
X120501799Y-91161343D02*
X120501799Y-90558269D01*
X120501799Y-90558269D02*
X123510068Y-87550000D01*
X123510068Y-87550000D02*
X128400000Y-87550000D01*
X146230000Y-103670000D02*
X146230000Y-103370000D01*
X146230000Y-103370000D02*
X145551799Y-102691799D01*
X145551799Y-102691799D02*
X135721361Y-102691799D01*
X135721361Y-102691799D02*
X133140000Y-100110438D01*
X133140000Y-100110438D02*
X133140000Y-99040000D01*
X147070000Y-101930000D02*
X149974000Y-101930000D01*
X149974000Y-101930000D02*
X150904000Y-102860000D01*
X150904000Y-102860000D02*
X150904000Y-103660000D01*
X146230000Y-103670000D02*
X146230000Y-102770000D01*
X146230000Y-102770000D02*
X147070000Y-101930000D01*
D23*
X151903883Y-131638350D02*
X152328146Y-131214087D01*
X152328146Y-131214087D02*
X152328146Y-125901213D01*
X152328146Y-125901213D02*
X150846933Y-124420000D01*
X150846933Y-124420000D02*
X149212238Y-124420000D01*
X149212238Y-124420000D02*
X145532080Y-120739842D01*
X145532080Y-116344730D02*
X145532080Y-114930000D01*
X145532080Y-120739842D02*
X145532080Y-116344730D01*
D26*
G36*
X155100212Y-47005986D02*
X156012134Y-47035594D01*
X156883699Y-47090051D01*
X157952349Y-47186419D01*
X158313439Y-47237025D01*
X158618878Y-47300425D01*
X158917168Y-47386984D01*
X159256223Y-47510207D01*
X160231653Y-47921344D01*
X160916001Y-48234721D01*
X161555156Y-48556183D01*
X162065875Y-48840976D01*
X162385911Y-49054047D01*
X162956027Y-49474280D01*
X162975581Y-49483458D01*
X162991101Y-49498487D01*
X163588682Y-49884026D01*
X164053828Y-50188656D01*
X164564147Y-50580780D01*
X165123337Y-51060084D01*
X165708525Y-51606517D01*
X166299185Y-52200899D01*
X166875812Y-52824412D01*
X167419164Y-53458051D01*
X167911784Y-54084478D01*
X168429797Y-54805897D01*
X168919407Y-55549420D01*
X169386684Y-56326823D01*
X169838667Y-57151593D01*
X170282051Y-58036950D01*
X170723319Y-58995905D01*
X171168777Y-60041147D01*
X171627047Y-61191136D01*
X171629109Y-61194314D01*
X171629838Y-61198030D01*
X172140221Y-62439429D01*
X172165224Y-62536613D01*
X172176889Y-62560876D01*
X172180462Y-62587558D01*
X172280708Y-62880747D01*
X172286693Y-62891061D01*
X172288680Y-62902821D01*
X172617826Y-63767502D01*
X172819645Y-64300262D01*
X173027153Y-64891445D01*
X173217466Y-65472924D01*
X173367937Y-65978476D01*
X173370603Y-65983527D01*
X173371226Y-65989204D01*
X173555684Y-66573751D01*
X173561815Y-66584920D01*
X173563668Y-66597527D01*
X173844524Y-67385766D01*
X173848497Y-67392415D01*
X173849793Y-67400048D01*
X174188869Y-68288711D01*
X174192698Y-68294806D01*
X174194049Y-68301878D01*
X174553169Y-69187695D01*
X174554201Y-69189265D01*
X174554564Y-69191110D01*
X175161062Y-70664284D01*
X175411417Y-71325243D01*
X175419064Y-71337483D01*
X175422034Y-71351609D01*
X175526004Y-71595092D01*
X175537576Y-71612010D01*
X175542969Y-71631784D01*
X175822825Y-72192972D01*
X175826846Y-72198164D01*
X175828693Y-72204467D01*
X176723731Y-73917672D01*
X176726471Y-73921076D01*
X176727752Y-73925252D01*
X177749343Y-75822405D01*
X177753488Y-75827424D01*
X177755513Y-75833612D01*
X178518998Y-77190130D01*
X178519242Y-77190414D01*
X178519359Y-77190771D01*
X179064595Y-78157089D01*
X179524972Y-79059992D01*
X180795552Y-81701747D01*
X180795811Y-81702092D01*
X180795919Y-81702508D01*
X182368899Y-84962703D01*
X182370224Y-84964462D01*
X182370789Y-84966588D01*
X182671011Y-85578936D01*
X182675736Y-85585123D01*
X182677901Y-85592601D01*
X182969541Y-86155283D01*
X182975602Y-86162862D01*
X182978559Y-86172104D01*
X183228279Y-86622716D01*
X183241159Y-86637933D01*
X183248316Y-86656546D01*
X183422775Y-86932687D01*
X183429324Y-86939580D01*
X183432978Y-86948359D01*
X183574520Y-87159411D01*
X183744307Y-87443980D01*
X184122811Y-88154180D01*
X184497077Y-88868136D01*
X184510153Y-88884333D01*
X184517221Y-88903913D01*
X184827207Y-89417805D01*
X184831253Y-89422244D01*
X184833388Y-89427854D01*
X184989908Y-89677508D01*
X185229679Y-90095454D01*
X185851914Y-91246709D01*
X185852604Y-91247542D01*
X185852927Y-91248577D01*
X186544258Y-92518241D01*
X186549682Y-92524747D01*
X186552399Y-92532768D01*
X186873502Y-93089806D01*
X186879601Y-93096770D01*
X186882802Y-93105454D01*
X187132318Y-93512885D01*
X187132582Y-93513171D01*
X187132717Y-93513536D01*
X187566275Y-94219716D01*
X187921193Y-94879797D01*
X188210444Y-95517164D01*
X188438936Y-96142539D01*
X188611466Y-96767838D01*
X188732158Y-97405749D01*
X188804153Y-98069110D01*
X188829746Y-98771125D01*
X188809440Y-99684724D01*
X188744012Y-100664753D01*
X188638306Y-101674357D01*
X188497567Y-102678227D01*
X188327392Y-103641088D01*
X188133917Y-104526992D01*
X187922672Y-105304817D01*
X187816609Y-105629950D01*
X187709273Y-105915673D01*
X187579288Y-106211943D01*
X187421875Y-106528857D01*
X187011267Y-107248949D01*
X186497041Y-108038369D01*
X185885881Y-108886969D01*
X185188044Y-109779850D01*
X184413507Y-110703163D01*
X183572227Y-111643457D01*
X182673205Y-112588500D01*
X181871213Y-113386827D01*
X181148736Y-114060251D01*
X180484120Y-114624691D01*
X179853040Y-115099000D01*
X179229057Y-115503328D01*
X178583472Y-115858002D01*
X177886876Y-116181981D01*
X177117951Y-116489708D01*
X176402012Y-116727168D01*
X175463956Y-116991554D01*
X174381990Y-117264347D01*
X173237422Y-117527138D01*
X172109310Y-117762501D01*
X171077264Y-117953185D01*
X170219094Y-118082709D01*
X169894489Y-118118031D01*
X169638766Y-118133477D01*
X169175961Y-118144321D01*
X169149484Y-118150236D01*
X169122474Y-118147671D01*
X168071880Y-118254867D01*
X168055979Y-118259751D01*
X168039366Y-118258973D01*
X167958186Y-118271203D01*
X167940007Y-118277754D01*
X167894742Y-118281971D01*
X166607255Y-118392803D01*
X165975408Y-118394853D01*
X165326188Y-118362855D01*
X164673847Y-118297324D01*
X164023052Y-118198966D01*
X163378431Y-118068557D01*
X162744703Y-117906983D01*
X162126478Y-117715209D01*
X161512184Y-117488321D01*
X160932600Y-117270901D01*
X165422099Y-117270901D01*
X165712938Y-117213049D01*
X165959500Y-117048302D01*
X166190062Y-116817740D01*
X166347723Y-116817878D01*
X166442526Y-116778706D01*
X166455219Y-116809427D01*
X166772900Y-117127663D01*
X167188183Y-117300103D01*
X167637844Y-117300496D01*
X168053427Y-117128781D01*
X168371663Y-116811100D01*
X168544103Y-116395817D01*
X168544496Y-115946156D01*
X168372781Y-115530573D01*
X168055100Y-115212337D01*
X167914777Y-115154070D01*
X168053427Y-115096781D01*
X168371663Y-114779100D01*
X168544103Y-114363817D01*
X168544496Y-113914156D01*
X168372781Y-113498573D01*
X168055100Y-113180337D01*
X167639817Y-113007897D01*
X167190156Y-113007504D01*
X166774573Y-113179219D01*
X166456337Y-113496900D01*
X166442902Y-113529255D01*
X166349519Y-113490479D01*
X165940277Y-113490122D01*
X165562050Y-113646402D01*
X165509161Y-113699199D01*
X165457472Y-113647419D01*
X165079519Y-113490479D01*
X164670277Y-113490122D01*
X164292050Y-113646402D01*
X164239161Y-113699199D01*
X164187472Y-113647419D01*
X163809519Y-113490479D01*
X163650142Y-113490340D01*
X163419500Y-113259698D01*
X163172938Y-113094951D01*
X162882099Y-113037099D01*
X160161901Y-113037099D01*
X158508614Y-111383812D01*
X158562192Y-111330328D01*
X158704838Y-110986800D01*
X158705162Y-110614834D01*
X158563117Y-110271058D01*
X158300327Y-110007809D01*
X157956799Y-109865163D01*
X157630615Y-109864879D01*
X156193210Y-108427474D01*
X156193210Y-107499342D01*
X156135358Y-107208503D01*
X155970611Y-106961941D01*
X155474000Y-106465330D01*
X155474000Y-105364914D01*
X155684000Y-105407440D01*
X156284000Y-105407440D01*
X156519317Y-105363162D01*
X156735441Y-105224090D01*
X156880431Y-105011890D01*
X156931440Y-104760000D01*
X156931440Y-104420000D01*
X157052000Y-104420000D01*
X157342839Y-104362148D01*
X157589401Y-104197401D01*
X158043362Y-103743440D01*
X158391000Y-103743440D01*
X158626317Y-103699162D01*
X158842441Y-103560090D01*
X158987431Y-103347890D01*
X159038440Y-103096000D01*
X159038440Y-102296000D01*
X158994162Y-102060683D01*
X158927671Y-101957354D01*
X158929327Y-101955698D01*
X159026000Y-101722309D01*
X159026000Y-101481750D01*
X158867250Y-101323000D01*
X158143000Y-101323000D01*
X158143000Y-101343000D01*
X157889000Y-101343000D01*
X157889000Y-101323000D01*
X157164750Y-101323000D01*
X157006000Y-101481750D01*
X157006000Y-101722309D01*
X157102673Y-101955698D01*
X157104043Y-101957068D01*
X157044569Y-102044110D01*
X156993560Y-102296000D01*
X156993560Y-102643638D01*
X156931440Y-102705758D01*
X156931440Y-102560000D01*
X156887162Y-102324683D01*
X156748090Y-102108559D01*
X156535890Y-101963569D01*
X156284000Y-101912560D01*
X155684000Y-101912560D01*
X155448683Y-101956838D01*
X155349472Y-102020678D01*
X155265890Y-101963569D01*
X155014000Y-101912560D01*
X154414000Y-101912560D01*
X154178683Y-101956838D01*
X154079472Y-102020678D01*
X153995890Y-101963569D01*
X153744000Y-101912560D01*
X153144000Y-101912560D01*
X152908683Y-101956838D01*
X152809472Y-102020678D01*
X152725890Y-101963569D01*
X152474000Y-101912560D01*
X151874000Y-101912560D01*
X151638683Y-101956838D01*
X151539472Y-102020678D01*
X151455890Y-101963569D01*
X151204000Y-101912560D01*
X151031362Y-101912560D01*
X150511401Y-101392599D01*
X150503003Y-101386988D01*
X150604000Y-101407440D01*
X151204000Y-101407440D01*
X151439317Y-101363162D01*
X151538528Y-101299322D01*
X151622110Y-101356431D01*
X151874000Y-101407440D01*
X152474000Y-101407440D01*
X152709317Y-101363162D01*
X152808528Y-101299322D01*
X152892110Y-101356431D01*
X153144000Y-101407440D01*
X153744000Y-101407440D01*
X153979317Y-101363162D01*
X154078528Y-101299322D01*
X154162110Y-101356431D01*
X154414000Y-101407440D01*
X155014000Y-101407440D01*
X155249317Y-101363162D01*
X155339981Y-101304821D01*
X155557691Y-101395000D01*
X155698250Y-101395000D01*
X155857000Y-101236250D01*
X155857000Y-99787000D01*
X156111000Y-99787000D01*
X156111000Y-101236250D01*
X156269750Y-101395000D01*
X156410309Y-101395000D01*
X156643698Y-101298327D01*
X156822327Y-101119699D01*
X156919000Y-100886310D01*
X156919000Y-100669691D01*
X157006000Y-100669691D01*
X157006000Y-100910250D01*
X157164750Y-101069000D01*
X157889000Y-101069000D01*
X157889000Y-100319750D01*
X158143000Y-100319750D01*
X158143000Y-101069000D01*
X158867250Y-101069000D01*
X159026000Y-100910250D01*
X159026000Y-100669691D01*
X158929327Y-100436302D01*
X158750699Y-100257673D01*
X158517310Y-100161000D01*
X158301750Y-100161000D01*
X158143000Y-100319750D01*
X157889000Y-100319750D01*
X157730250Y-100161000D01*
X157514690Y-100161000D01*
X157281301Y-100257673D01*
X157102673Y-100436302D01*
X157006000Y-100669691D01*
X156919000Y-100669691D01*
X156919000Y-99945750D01*
X156760250Y-99787000D01*
X156111000Y-99787000D01*
X155857000Y-99787000D01*
X155837000Y-99787000D01*
X155837000Y-99533000D01*
X155857000Y-99533000D01*
X155857000Y-99513000D01*
X156111000Y-99513000D01*
X156111000Y-99533000D01*
X156760250Y-99533000D01*
X156919000Y-99374250D01*
X156919000Y-98642000D01*
X156954000Y-98642000D01*
X157244839Y-98584148D01*
X157491401Y-98419401D01*
X157793362Y-98117440D01*
X158666000Y-98117440D01*
X158901317Y-98073162D01*
X159117441Y-97934090D01*
X159195016Y-97820555D01*
X159194838Y-98025167D01*
X159336883Y-98368943D01*
X159599673Y-98632192D01*
X159943201Y-98774838D01*
X160315167Y-98775162D01*
X160658943Y-98633117D01*
X160692118Y-98600000D01*
X160705198Y-98600000D01*
X164354878Y-102249680D01*
X164354838Y-102295167D01*
X164496883Y-102638943D01*
X164759673Y-102902192D01*
X165103201Y-103044838D01*
X165475167Y-103045162D01*
X165818943Y-102903117D01*
X166082192Y-102640327D01*
X166224838Y-102296799D01*
X166225162Y-101924833D01*
X166083117Y-101581057D01*
X165820327Y-101317808D01*
X165476799Y-101175162D01*
X165429923Y-101175121D01*
X162309969Y-98055167D01*
X166084838Y-98055167D01*
X166226883Y-98398943D01*
X166489673Y-98662192D01*
X166833201Y-98804838D01*
X167205167Y-98805162D01*
X167548943Y-98663117D01*
X167582118Y-98630000D01*
X173675480Y-98630000D01*
X173966319Y-98572148D01*
X174212881Y-98407401D01*
X175584101Y-97036181D01*
X175748848Y-96789619D01*
X175806700Y-96498780D01*
X175806700Y-96412463D01*
X175838892Y-96380327D01*
X175981538Y-96036799D01*
X175981862Y-95664833D01*
X175839817Y-95321057D01*
X175577027Y-95057808D01*
X175233499Y-94915162D01*
X174861533Y-94914838D01*
X174517757Y-95056883D01*
X174254508Y-95319673D01*
X174111862Y-95663201D01*
X174111538Y-96035167D01*
X174206262Y-96264416D01*
X173360678Y-97110000D01*
X167582463Y-97110000D01*
X167550327Y-97077808D01*
X167206799Y-96935162D01*
X166834833Y-96934838D01*
X166491057Y-97076883D01*
X166227808Y-97339673D01*
X166085162Y-97683201D01*
X166084838Y-98055167D01*
X162309969Y-98055167D01*
X161557401Y-97302599D01*
X161310839Y-97137852D01*
X161177912Y-97111411D01*
X165518823Y-97111411D01*
X165809662Y-97053559D01*
X166056224Y-96888812D01*
X169805036Y-93140000D01*
X172288237Y-93140000D01*
X172320373Y-93172192D01*
X172663901Y-93314838D01*
X173035867Y-93315162D01*
X173379643Y-93173117D01*
X173642892Y-92910327D01*
X173785538Y-92566799D01*
X173785862Y-92194833D01*
X173643817Y-91851057D01*
X173381027Y-91587808D01*
X173037499Y-91445162D01*
X172665533Y-91444838D01*
X172321757Y-91586883D01*
X172288582Y-91620000D01*
X170684102Y-91620000D01*
X172238980Y-90065122D01*
X172284467Y-90065162D01*
X172628243Y-89923117D01*
X172891492Y-89660327D01*
X173034138Y-89316799D01*
X173034462Y-88944833D01*
X172892417Y-88601057D01*
X172629627Y-88337808D01*
X172286099Y-88195162D01*
X171914133Y-88194838D01*
X171570357Y-88336883D01*
X171307108Y-88599673D01*
X171164462Y-88943201D01*
X171164421Y-88990077D01*
X165694498Y-94460000D01*
X159156757Y-94460000D01*
X159130090Y-94418559D01*
X158917890Y-94273569D01*
X158666000Y-94222560D01*
X157366000Y-94222560D01*
X157130683Y-94266838D01*
X156914559Y-94405910D01*
X156874076Y-94465159D01*
X156844090Y-94418559D01*
X156631890Y-94273569D01*
X156380000Y-94222560D01*
X155511799Y-94222560D01*
X155511799Y-89413937D01*
X160175736Y-84750000D01*
X164770000Y-84750000D01*
X165060839Y-84692148D01*
X165307401Y-84527401D01*
X165444802Y-84390000D01*
X165786837Y-84390000D01*
X165818973Y-84422192D01*
X166162501Y-84564838D01*
X166534467Y-84565162D01*
X166878243Y-84423117D01*
X167141492Y-84160327D01*
X167284138Y-83816799D01*
X167284462Y-83444833D01*
X167142417Y-83101057D01*
X166879627Y-82837808D01*
X166536099Y-82695162D01*
X166164133Y-82694838D01*
X165820357Y-82836883D01*
X165787182Y-82870000D01*
X165376024Y-82870000D01*
X160300348Y-77794324D01*
X160053786Y-77629577D01*
X159762947Y-77571725D01*
X158915302Y-77571725D01*
X155738621Y-74395044D01*
X155738621Y-62714701D01*
X155728000Y-62661306D01*
X155728000Y-62617763D01*
X155760192Y-62585627D01*
X155902838Y-62242099D01*
X155903162Y-61870133D01*
X155761117Y-61526357D01*
X155498327Y-61263108D01*
X155154799Y-61120462D01*
X155086480Y-61120402D01*
X158553401Y-57653481D01*
X158718148Y-57406919D01*
X158776000Y-57116080D01*
X158776000Y-57029763D01*
X158808192Y-56997627D01*
X158950838Y-56654099D01*
X158951162Y-56282133D01*
X158809117Y-55938357D01*
X158546327Y-55675108D01*
X158202799Y-55532462D01*
X157830833Y-55532138D01*
X157487057Y-55674183D01*
X157223808Y-55936973D01*
X157081162Y-56280501D01*
X157080838Y-56652467D01*
X157175562Y-56881716D01*
X147292599Y-66764679D01*
X147127852Y-67011241D01*
X147070000Y-67302080D01*
X147070000Y-68747537D01*
X147037808Y-68779673D01*
X146895162Y-69123201D01*
X146894838Y-69495167D01*
X147036883Y-69838943D01*
X147299673Y-70102192D01*
X147643201Y-70244838D01*
X148015167Y-70245162D01*
X148245799Y-70149867D01*
X148245799Y-72309399D01*
X146865198Y-73690000D01*
X144282463Y-73690000D01*
X144250327Y-73657808D01*
X143906799Y-73515162D01*
X143534833Y-73514838D01*
X143191057Y-73656883D01*
X143157882Y-73690000D01*
X142981641Y-73690000D01*
X142879627Y-73587808D01*
X142536099Y-73445162D01*
X142164133Y-73444838D01*
X141820357Y-73586883D01*
X141557108Y-73849673D01*
X141414462Y-74193201D01*
X141414138Y-74565167D01*
X141556183Y-74908943D01*
X141818973Y-75172192D01*
X142162501Y-75314838D01*
X142534467Y-75315162D01*
X142788979Y-75210000D01*
X143157537Y-75210000D01*
X143189673Y-75242192D01*
X143533201Y-75384838D01*
X143905167Y-75385162D01*
X144248943Y-75243117D01*
X144282118Y-75210000D01*
X146213489Y-75210000D01*
X147646889Y-76643400D01*
X120186522Y-76643400D01*
X120131027Y-76587808D01*
X119787499Y-76445162D01*
X119415533Y-76444838D01*
X119071757Y-76586883D01*
X118808508Y-76849673D01*
X118665862Y-77193201D01*
X118665616Y-77475161D01*
X118294833Y-77474838D01*
X117951057Y-77616883D01*
X117687808Y-77879673D01*
X117588015Y-78120000D01*
X116163163Y-78120000D01*
X116131027Y-78087808D01*
X115787499Y-77945162D01*
X115415533Y-77944838D01*
X115071757Y-78086883D01*
X114808508Y-78349673D01*
X114665862Y-78693201D01*
X114665538Y-79065167D01*
X114807583Y-79408943D01*
X115070373Y-79672192D01*
X115413901Y-79814838D01*
X115785867Y-79815162D01*
X116129643Y-79673117D01*
X116162818Y-79640000D01*
X117743400Y-79640000D01*
X117743400Y-87623984D01*
X117687808Y-87679479D01*
X117545162Y-88023007D01*
X117544838Y-88394973D01*
X117686883Y-88738749D01*
X117949673Y-89001998D01*
X118293201Y-89144644D01*
X118665167Y-89144968D01*
X119008943Y-89002923D01*
X119272192Y-88740133D01*
X119414838Y-88396605D01*
X119415162Y-88024639D01*
X119273117Y-87680863D01*
X119216600Y-87624247D01*
X119216600Y-82435750D01*
X128015000Y-82435750D01*
X128015000Y-83276309D01*
X128111673Y-83509698D01*
X128290301Y-83688327D01*
X128523690Y-83785000D01*
X129164250Y-83785000D01*
X129323000Y-83626250D01*
X129323000Y-82277000D01*
X129577000Y-82277000D01*
X129577000Y-83626250D01*
X129735750Y-83785000D01*
X130376310Y-83785000D01*
X130609699Y-83688327D01*
X130788327Y-83509698D01*
X130885000Y-83276309D01*
X130885000Y-82435750D01*
X130726250Y-82277000D01*
X129577000Y-82277000D01*
X129323000Y-82277000D01*
X128173750Y-82277000D01*
X128015000Y-82435750D01*
X119216600Y-82435750D01*
X119216600Y-81023691D01*
X128015000Y-81023691D01*
X128015000Y-81864250D01*
X128173750Y-82023000D01*
X129323000Y-82023000D01*
X129323000Y-80673750D01*
X129577000Y-80673750D01*
X129577000Y-82023000D01*
X130726250Y-82023000D01*
X130885000Y-81864250D01*
X130885000Y-81023691D01*
X130788327Y-80790302D01*
X130609699Y-80611673D01*
X130376310Y-80515000D01*
X129735750Y-80515000D01*
X129577000Y-80673750D01*
X129323000Y-80673750D01*
X129164250Y-80515000D01*
X128523690Y-80515000D01*
X128290301Y-80611673D01*
X128111673Y-80790302D01*
X128015000Y-81023691D01*
X119216600Y-81023691D01*
X119216600Y-78995822D01*
X119272192Y-78940327D01*
X119414838Y-78596799D01*
X119415084Y-78314839D01*
X119785867Y-78315162D01*
X120129643Y-78173117D01*
X120186259Y-78116600D01*
X154263478Y-78116600D01*
X154318973Y-78172192D01*
X154662501Y-78314838D01*
X154717501Y-78314886D01*
X154717501Y-86138115D01*
X152589940Y-88265676D01*
X152430265Y-88504646D01*
X152414293Y-88584945D01*
X152318603Y-88680468D01*
X152175957Y-89023996D01*
X152175887Y-89103993D01*
X151456480Y-89823400D01*
X148774894Y-89823400D01*
X148493009Y-89879470D01*
X148254039Y-90039145D01*
X145754585Y-92538599D01*
X139604801Y-92538599D01*
X139322916Y-92594669D01*
X139109918Y-92736990D01*
X129003090Y-92736990D01*
X128721205Y-92793060D01*
X128482235Y-92952735D01*
X126924649Y-94510321D01*
X126706799Y-94419862D01*
X126334833Y-94419538D01*
X125991057Y-94561583D01*
X125932221Y-94620317D01*
X122065094Y-90753190D01*
X122065162Y-90674639D01*
X121923117Y-90330863D01*
X121863614Y-90271256D01*
X123824870Y-88310000D01*
X128002560Y-88310000D01*
X128002560Y-88550000D01*
X128046838Y-88785317D01*
X128185910Y-89001441D01*
X128398110Y-89146431D01*
X128650000Y-89197440D01*
X130250000Y-89197440D01*
X130485317Y-89153162D01*
X130701441Y-89014090D01*
X130846431Y-88801890D01*
X130897440Y-88550000D01*
X130897440Y-86550000D01*
X130853162Y-86314683D01*
X130714090Y-86098559D01*
X130501890Y-85953569D01*
X130250000Y-85902560D01*
X128650000Y-85902560D01*
X128414683Y-85946838D01*
X128198559Y-86085910D01*
X128053569Y-86298110D01*
X128002560Y-86550000D01*
X128002560Y-86790000D01*
X123510068Y-86790000D01*
X123219229Y-86847852D01*
X122972667Y-87012599D01*
X119964398Y-90020868D01*
X119799651Y-90267430D01*
X119741799Y-90558269D01*
X119741799Y-91161343D01*
X119799651Y-91452182D01*
X119964398Y-91698744D01*
X125192366Y-96926712D01*
X125438927Y-97091459D01*
X125729767Y-97149311D01*
X130170689Y-97149311D01*
X130461528Y-97091459D01*
X130708090Y-96926712D01*
X130949680Y-96685122D01*
X130995167Y-96685162D01*
X131338943Y-96543117D01*
X131602192Y-96280327D01*
X131744838Y-95936799D01*
X131745162Y-95564833D01*
X131603117Y-95221057D01*
X131340327Y-94957808D01*
X130996799Y-94815162D01*
X130624833Y-94814838D01*
X130281057Y-94956883D01*
X130017808Y-95219673D01*
X129875162Y-95563201D01*
X129875121Y-95610077D01*
X129855887Y-95629311D01*
X128463829Y-95629311D01*
X129476540Y-94616600D01*
X134452078Y-94616600D01*
X126399802Y-102668876D01*
X126297117Y-102420357D01*
X126264000Y-102387182D01*
X126264000Y-99310247D01*
X126540943Y-99195817D01*
X126804192Y-98933027D01*
X126946838Y-98589499D01*
X126947162Y-98217533D01*
X126805117Y-97873757D01*
X126542327Y-97610508D01*
X126198799Y-97467862D01*
X125826833Y-97467538D01*
X125483057Y-97609583D01*
X125219808Y-97872373D01*
X125077162Y-98215901D01*
X125077121Y-98262777D01*
X124966599Y-98373299D01*
X124801852Y-98619861D01*
X124744000Y-98910700D01*
X124744000Y-102386837D01*
X124711808Y-102418973D01*
X124667256Y-102526266D01*
X122456600Y-100315610D01*
X122456600Y-94822685D01*
X122456601Y-94822680D01*
X122400531Y-94540796D01*
X122240855Y-94301825D01*
X111093679Y-83154649D01*
X111184138Y-82936799D01*
X111184462Y-82564833D01*
X111042417Y-82221057D01*
X110779627Y-81957808D01*
X110436099Y-81815162D01*
X110064133Y-81814838D01*
X109720357Y-81956883D01*
X109457108Y-82219673D01*
X109314462Y-82563201D01*
X109314138Y-82935167D01*
X109456183Y-83278943D01*
X109512700Y-83335559D01*
X109512700Y-83351980D01*
X109568770Y-83633865D01*
X109728445Y-83872835D01*
X120983400Y-95127790D01*
X120983400Y-100620720D01*
X121039470Y-100902605D01*
X121199145Y-101141575D01*
X124151621Y-104094051D01*
X124061162Y-104311901D01*
X124060838Y-104683867D01*
X124202883Y-105027643D01*
X124465673Y-105290892D01*
X124809201Y-105433538D01*
X125181167Y-105433862D01*
X125524943Y-105291817D01*
X125558118Y-105258700D01*
X125644780Y-105258700D01*
X125935619Y-105200848D01*
X126182181Y-105036101D01*
X126534415Y-104683867D01*
X133966838Y-104683867D01*
X134108883Y-105027643D01*
X134371673Y-105290892D01*
X134715201Y-105433538D01*
X135087167Y-105433862D01*
X135430943Y-105291817D01*
X135694192Y-105029027D01*
X135836838Y-104685499D01*
X135837162Y-104313533D01*
X135695117Y-103969757D01*
X135432327Y-103706508D01*
X135088799Y-103563862D01*
X134716833Y-103563538D01*
X134373057Y-103705583D01*
X134109808Y-103968373D01*
X133967162Y-104311901D01*
X133966838Y-104683867D01*
X126534415Y-104683867D01*
X132205023Y-99013259D01*
X132204838Y-99225167D01*
X132346883Y-99568943D01*
X132380000Y-99602118D01*
X132380000Y-100110438D01*
X132437852Y-100401277D01*
X132602599Y-100647839D01*
X135183960Y-103229200D01*
X135430522Y-103393947D01*
X135721361Y-103451799D01*
X137527722Y-103451799D01*
X137501327Y-103515366D01*
X137501003Y-103887332D01*
X137643048Y-104231108D01*
X137905838Y-104494357D01*
X138249366Y-104637003D01*
X138621332Y-104637327D01*
X138965108Y-104495282D01*
X139228357Y-104232492D01*
X139371003Y-103888964D01*
X139371327Y-103516998D01*
X139344387Y-103451799D01*
X143332560Y-103451799D01*
X143332560Y-104320000D01*
X143376838Y-104555317D01*
X143515910Y-104771441D01*
X143570000Y-104808399D01*
X143570000Y-106106762D01*
X143627852Y-106397601D01*
X143792599Y-106644163D01*
X147845837Y-110697401D01*
X148092399Y-110862148D01*
X148271381Y-110897750D01*
X147975000Y-111194132D01*
X146400434Y-109619566D01*
X146344995Y-109582523D01*
X146129541Y-109438561D01*
X145810000Y-109375000D01*
X145721563Y-109375000D01*
X145521890Y-109238569D01*
X145270000Y-109187560D01*
X144470000Y-109187560D01*
X144234683Y-109231838D01*
X144131354Y-109298329D01*
X144129698Y-109296673D01*
X143896309Y-109200000D01*
X143655750Y-109200000D01*
X143497000Y-109358750D01*
X143497000Y-110083000D01*
X143517000Y-110083000D01*
X143517000Y-110337000D01*
X143497000Y-110337000D01*
X143497000Y-111061250D01*
X143655750Y-111220000D01*
X143896309Y-111220000D01*
X144129698Y-111123327D01*
X144131068Y-111121957D01*
X144218110Y-111181431D01*
X144470000Y-111232440D01*
X145270000Y-111232440D01*
X145505317Y-111188162D01*
X145567366Y-111148234D01*
X146082404Y-111663272D01*
X145890000Y-111625000D01*
X144510000Y-111625000D01*
X144190459Y-111688561D01*
X143978519Y-111830175D01*
X143919566Y-111869566D01*
X143299566Y-112489566D01*
X143118561Y-112760459D01*
X143055000Y-113080000D01*
X143055000Y-120044133D01*
X142118727Y-120980406D01*
X141465519Y-120326057D01*
X138201089Y-118970547D01*
X134666418Y-118967463D01*
X131399627Y-120317273D01*
X128898056Y-122814482D01*
X127542546Y-126078912D01*
X127539462Y-129613583D01*
X128889272Y-132880374D01*
X131386481Y-135381945D01*
X134650911Y-136737455D01*
X138185582Y-136740539D01*
X141452373Y-135390729D01*
X143953944Y-132893520D01*
X145309454Y-129629090D01*
X145312538Y-126094419D01*
X143962728Y-122827628D01*
X143298565Y-122162304D01*
X144480434Y-120980435D01*
X144574139Y-120840195D01*
X144661439Y-120709542D01*
X144697080Y-120530364D01*
X144697080Y-120739842D01*
X144760641Y-121059383D01*
X144896014Y-121261983D01*
X144941646Y-121330276D01*
X148267931Y-124656561D01*
X146176000Y-124656561D01*
X145940683Y-124700839D01*
X145724559Y-124839911D01*
X145579569Y-125052111D01*
X145528560Y-125304001D01*
X145528560Y-130404001D01*
X145572838Y-130639318D01*
X145711910Y-130855442D01*
X145924110Y-131000432D01*
X146176000Y-131051441D01*
X148676000Y-131051441D01*
X148911317Y-131007163D01*
X149127441Y-130868091D01*
X149272431Y-130655891D01*
X149301117Y-130514235D01*
X149301117Y-132194128D01*
X148924128Y-132571117D01*
X148033883Y-132571117D01*
X147714342Y-132634678D01*
X147443449Y-132815683D01*
X142554132Y-137705000D01*
X129295868Y-137705000D01*
X128180845Y-136589977D01*
X128120434Y-136499566D01*
X124565000Y-132944132D01*
X124565000Y-131051441D01*
X126676000Y-131051441D01*
X126911317Y-131007163D01*
X127127441Y-130868091D01*
X127272431Y-130655891D01*
X127323440Y-130404001D01*
X127323440Y-125304001D01*
X127279162Y-125068684D01*
X127140090Y-124852560D01*
X126927890Y-124707570D01*
X126676000Y-124656561D01*
X124176000Y-124656561D01*
X123940683Y-124700839D01*
X123724559Y-124839911D01*
X123579569Y-125052111D01*
X123528560Y-125304001D01*
X123528560Y-127068220D01*
X123456460Y-127082561D01*
X123185566Y-127263567D01*
X123135566Y-127313567D01*
X122954561Y-127584460D01*
X122891000Y-127904001D01*
X122891000Y-130804001D01*
X122895000Y-130824110D01*
X122895000Y-133290000D01*
X122958561Y-133609541D01*
X123138177Y-133878355D01*
X123139566Y-133880434D01*
X126879156Y-137620024D01*
X126927708Y-137692687D01*
X126939566Y-137710434D01*
X128359566Y-139130434D01*
X128630459Y-139311439D01*
X128950000Y-139375000D01*
X142900000Y-139375000D01*
X143219541Y-139311439D01*
X143490434Y-139130434D01*
X147096305Y-135524563D01*
X147606533Y-136034791D01*
X147431043Y-136457418D01*
X147430631Y-136928840D01*
X147610657Y-137364535D01*
X147943712Y-137698172D01*
X148379092Y-137878957D01*
X148850514Y-137879369D01*
X149275507Y-137703765D01*
X149625255Y-138053513D01*
X148541883Y-138748025D01*
X148079455Y-139014372D01*
X147655993Y-139222292D01*
X147198850Y-139405535D01*
X146635941Y-139593852D01*
X144933936Y-140091857D01*
X143151807Y-140579837D01*
X142444410Y-140750734D01*
X141808537Y-140883440D01*
X141210380Y-140984720D01*
X140612113Y-141061773D01*
X139975935Y-141121211D01*
X139261783Y-141169400D01*
X137236379Y-141298371D01*
X136928715Y-141308265D01*
X136546072Y-141300763D01*
X136134588Y-141277391D01*
X135747535Y-141240006D01*
X135126373Y-141154853D01*
X134432723Y-141043165D01*
X133715412Y-140912597D01*
X133015094Y-140769877D01*
X132373638Y-140622236D01*
X131836138Y-140478293D01*
X131446439Y-140348232D01*
X131353825Y-140307873D01*
X131278270Y-140263595D01*
X131242752Y-140251281D01*
X131212111Y-140229511D01*
X131078073Y-140169431D01*
X131045596Y-140161997D01*
X131016707Y-140145399D01*
X130772416Y-140063049D01*
X130755335Y-140060837D01*
X130739992Y-140053006D01*
X130454108Y-139972166D01*
X130431921Y-139970405D01*
X130411491Y-139961578D01*
X130152674Y-139906018D01*
X130146792Y-139905929D01*
X130141352Y-139903687D01*
X129615704Y-139800093D01*
X129089961Y-139658718D01*
X128536927Y-139475931D01*
X127956625Y-139253918D01*
X127349118Y-138995254D01*
X126716821Y-138703900D01*
X125366400Y-138030392D01*
X124880062Y-137759602D01*
X124291407Y-137400717D01*
X123643001Y-136982165D01*
X122980704Y-136535056D01*
X122348848Y-136089880D01*
X121792621Y-135678076D01*
X121361761Y-135335423D01*
X121099912Y-135096165D01*
X120830823Y-134799601D01*
X120544929Y-134460115D01*
X119947350Y-133679420D01*
X119345856Y-132803690D01*
X118751565Y-131851086D01*
X118178395Y-130844202D01*
X117639708Y-129805335D01*
X117148659Y-128756949D01*
X116720081Y-127726283D01*
X116463816Y-126976178D01*
X116292247Y-126444046D01*
X115510863Y-123739108D01*
X115368664Y-123211332D01*
X115227464Y-122599716D01*
X115086684Y-121902559D01*
X114948543Y-121130701D01*
X114682656Y-119374629D01*
X114441621Y-117399155D01*
X114343302Y-116286114D01*
X114286315Y-115135711D01*
X114270271Y-113955161D01*
X114294936Y-112754853D01*
X114360009Y-111544959D01*
X114451203Y-110495750D01*
X142335000Y-110495750D01*
X142335000Y-110711310D01*
X142431673Y-110944699D01*
X142610302Y-111123327D01*
X142843691Y-111220000D01*
X143084250Y-111220000D01*
X143243000Y-111061250D01*
X143243000Y-110337000D01*
X142493750Y-110337000D01*
X142335000Y-110495750D01*
X114451203Y-110495750D01*
X114465114Y-110335701D01*
X114598563Y-109230467D01*
X123552838Y-109230467D01*
X123694883Y-109574243D01*
X123957673Y-109837492D01*
X124301201Y-109980138D01*
X124673167Y-109980462D01*
X125016943Y-109838417D01*
X125146896Y-109708690D01*
X142335000Y-109708690D01*
X142335000Y-109924250D01*
X142493750Y-110083000D01*
X143243000Y-110083000D01*
X143243000Y-109358750D01*
X143084250Y-109200000D01*
X142843691Y-109200000D01*
X142610302Y-109296673D01*
X142431673Y-109475301D01*
X142335000Y-109708690D01*
X125146896Y-109708690D01*
X125280192Y-109575627D01*
X125422838Y-109232099D01*
X125423162Y-108860133D01*
X125281117Y-108516357D01*
X125018327Y-108253108D01*
X124674799Y-108110462D01*
X124302833Y-108110138D01*
X123959057Y-108252183D01*
X123695808Y-108514973D01*
X123553162Y-108858501D01*
X123552838Y-109230467D01*
X114598563Y-109230467D01*
X114609820Y-109137243D01*
X114795260Y-107949284D01*
X114830510Y-107731867D01*
X133458838Y-107731867D01*
X133600883Y-108075643D01*
X133863673Y-108338892D01*
X134207201Y-108481538D01*
X134579167Y-108481862D01*
X134922943Y-108339817D01*
X135186192Y-108077027D01*
X135328838Y-107733499D01*
X135329162Y-107361533D01*
X135187117Y-107017757D01*
X134924327Y-106754508D01*
X134580799Y-106611862D01*
X134208833Y-106611538D01*
X133865057Y-106753583D01*
X133601808Y-107016373D01*
X133459162Y-107359901D01*
X133458838Y-107731867D01*
X114830510Y-107731867D01*
X114973896Y-106847493D01*
X114973523Y-106837023D01*
X114976889Y-106827098D01*
X115022209Y-106482167D01*
X115020196Y-106451583D01*
X115027438Y-106421799D01*
X115033238Y-106284284D01*
X115030907Y-106269286D01*
X115033845Y-106254398D01*
X115017595Y-106173332D01*
X139787003Y-106173332D01*
X139929048Y-106517108D01*
X140191838Y-106780357D01*
X140535366Y-106923003D01*
X140907332Y-106923327D01*
X141251108Y-106781282D01*
X141514357Y-106518492D01*
X141657003Y-106174964D01*
X141657327Y-105802998D01*
X141515282Y-105459222D01*
X141252492Y-105195973D01*
X140908964Y-105053327D01*
X140536998Y-105053003D01*
X140193222Y-105195048D01*
X139929973Y-105457838D01*
X139787327Y-105801366D01*
X139787003Y-106173332D01*
X115017595Y-106173332D01*
X115010461Y-106137745D01*
X114992187Y-106020182D01*
X114984295Y-106007220D01*
X114981312Y-105992338D01*
X114915062Y-105893506D01*
X114853195Y-105791892D01*
X114840943Y-105782936D01*
X114832492Y-105770329D01*
X114733463Y-105704373D01*
X114637420Y-105634170D01*
X114622674Y-105630585D01*
X114610041Y-105622171D01*
X114493310Y-105599132D01*
X114377712Y-105571027D01*
X114362716Y-105573358D01*
X114347826Y-105570419D01*
X114257836Y-105570553D01*
X114211804Y-105579781D01*
X114164934Y-105577021D01*
X113949357Y-105606861D01*
X113933273Y-105612440D01*
X113916251Y-105612273D01*
X113240282Y-105739839D01*
X112874755Y-105805782D01*
X112552635Y-105842735D01*
X112253354Y-105854625D01*
X111970282Y-105842434D01*
X111695898Y-105806437D01*
X111422213Y-105745799D01*
X111141846Y-105658720D01*
X110831304Y-105536090D01*
X110023936Y-105207469D01*
X110017539Y-105206237D01*
X110012031Y-105202752D01*
X108930107Y-104785780D01*
X108356914Y-104546590D01*
X107711468Y-104239223D01*
X107071759Y-103902744D01*
X106516196Y-103576265D01*
X105400194Y-102883265D01*
X105395157Y-102881373D01*
X105391172Y-102877759D01*
X104410797Y-102289740D01*
X104027306Y-102055368D01*
X103590967Y-101770148D01*
X102654374Y-101117353D01*
X101872173Y-100526856D01*
X101647362Y-100337617D01*
X101562904Y-100248727D01*
X101380903Y-100013164D01*
X101369202Y-100002971D01*
X101361679Y-99989398D01*
X101003487Y-99566242D01*
X101003119Y-99565949D01*
X101002891Y-99565539D01*
X100508533Y-98983114D01*
X100035204Y-98394502D01*
X99577907Y-97794388D01*
X99137682Y-97184587D01*
X98715646Y-96567043D01*
X98312780Y-95943535D01*
X97930101Y-95315904D01*
X97568629Y-94686019D01*
X97229401Y-94055812D01*
X96913396Y-93427149D01*
X96621636Y-92802015D01*
X96355063Y-92182294D01*
X96114637Y-91569969D01*
X95901307Y-90967084D01*
X95715963Y-90375669D01*
X95558705Y-89795031D01*
X95334060Y-88837720D01*
X95264119Y-88474681D01*
X95216022Y-88148970D01*
X95185914Y-87833640D01*
X95170552Y-87501450D01*
X95173790Y-86649699D01*
X95189897Y-86246003D01*
X95220670Y-85831581D01*
X95326987Y-84949499D01*
X95486993Y-84040748D01*
X95696683Y-83120845D01*
X95951033Y-82210428D01*
X96244633Y-81330163D01*
X96571583Y-80500830D01*
X96926903Y-79739885D01*
X97428485Y-78819710D01*
X98041052Y-77799915D01*
X98733016Y-76727440D01*
X99473516Y-75646775D01*
X99895510Y-75065167D01*
X127164838Y-75065167D01*
X127306883Y-75408943D01*
X127569673Y-75672192D01*
X127913201Y-75814838D01*
X128285167Y-75815162D01*
X128628943Y-75673117D01*
X128892192Y-75410327D01*
X129034838Y-75066799D01*
X129035162Y-74694833D01*
X128893117Y-74351057D01*
X128630327Y-74087808D01*
X128527637Y-74045167D01*
X134184838Y-74045167D01*
X134326883Y-74388943D01*
X134589673Y-74652192D01*
X134933201Y-74794838D01*
X135043466Y-74794934D01*
X135099161Y-74832148D01*
X135390000Y-74890000D01*
X137536137Y-74890000D01*
X137568273Y-74922192D01*
X137911801Y-75064838D01*
X138283767Y-75065162D01*
X138627543Y-74923117D01*
X138890792Y-74660327D01*
X139033438Y-74316799D01*
X139033762Y-73944833D01*
X138891717Y-73601057D01*
X138628927Y-73337808D01*
X138285399Y-73195162D01*
X137913433Y-73194838D01*
X137569657Y-73336883D01*
X137536482Y-73370000D01*
X135929208Y-73370000D01*
X135913117Y-73331057D01*
X135650327Y-73067808D01*
X135306799Y-72925162D01*
X134934833Y-72924838D01*
X134591057Y-73066883D01*
X134327808Y-73329673D01*
X134185162Y-73673201D01*
X134184838Y-74045167D01*
X128527637Y-74045167D01*
X128286799Y-73945162D01*
X127914833Y-73944838D01*
X127571057Y-74086883D01*
X127307808Y-74349673D01*
X127165162Y-74693201D01*
X127164838Y-75065167D01*
X99895510Y-75065167D01*
X100231760Y-74601736D01*
X100976630Y-73636126D01*
X101678925Y-72790856D01*
X101998062Y-72433801D01*
X102296146Y-72120991D01*
X102714469Y-71710276D01*
X103154428Y-71300398D01*
X104105722Y-70476253D01*
X105123954Y-69669688D01*
X106197172Y-68888894D01*
X107310041Y-68144741D01*
X108447200Y-67447913D01*
X109596604Y-66807065D01*
X110164791Y-66514232D01*
X110735222Y-66236804D01*
X114304239Y-64570923D01*
X115428299Y-64062731D01*
X116176120Y-63741614D01*
X116178286Y-63740126D01*
X116180851Y-63739561D01*
X117938583Y-62969056D01*
X118109723Y-62925480D01*
X118146091Y-62908106D01*
X118185817Y-62901303D01*
X118593994Y-62744885D01*
X118606922Y-62736738D01*
X118621860Y-62733499D01*
X119154643Y-62502000D01*
X119163446Y-62495897D01*
X119173838Y-62493306D01*
X119772945Y-62210774D01*
X120472208Y-61881821D01*
X121283301Y-61520990D01*
X122109368Y-61170259D01*
X122851243Y-60872803D01*
X124519109Y-60216707D01*
X124522082Y-60214797D01*
X124525550Y-60214135D01*
X126251590Y-59514896D01*
X126253226Y-59513821D01*
X126255149Y-59513443D01*
X129787029Y-58059510D01*
X129790849Y-58056970D01*
X129795340Y-58056025D01*
X130523896Y-57744836D01*
X130531679Y-57739511D01*
X130540850Y-57737321D01*
X131219101Y-57425649D01*
X131228327Y-57418963D01*
X131239316Y-57415956D01*
X131791491Y-57139988D01*
X131809044Y-57126370D01*
X131830051Y-57119148D01*
X132180377Y-56915075D01*
X132196446Y-56900873D01*
X132216257Y-56892662D01*
X134161647Y-55592253D01*
X134163402Y-55590497D01*
X134165687Y-55589531D01*
X135486921Y-54692685D01*
X135492594Y-54686928D01*
X135499966Y-54683608D01*
X136707099Y-53822640D01*
X137627084Y-53169970D01*
X137991459Y-52930411D01*
X138244613Y-52780541D01*
X138247750Y-52777729D01*
X138251705Y-52776284D01*
X138777548Y-52456343D01*
X138794506Y-52440767D01*
X138815561Y-52431450D01*
X139435648Y-51995335D01*
X139435740Y-51995239D01*
X139435859Y-51995186D01*
X139765276Y-51763319D01*
X140165090Y-51506559D01*
X140592969Y-51250724D01*
X140998678Y-51027243D01*
X143021629Y-49950296D01*
X143501544Y-49701183D01*
X144020092Y-49450287D01*
X144515140Y-49226469D01*
X144930319Y-49056226D01*
X145821213Y-48697914D01*
X145829784Y-48692314D01*
X145839786Y-48690125D01*
X146743117Y-48295576D01*
X147357386Y-48036116D01*
X147654261Y-47932478D01*
X147995747Y-47829584D01*
X148911090Y-47601047D01*
X148892031Y-47613782D01*
X148857737Y-47624396D01*
X148848877Y-47631751D01*
X148837980Y-47635523D01*
X147869417Y-48202487D01*
X147788191Y-48274586D01*
X147701824Y-48340443D01*
X147688842Y-48362772D01*
X147669530Y-48379914D01*
X147622078Y-48477607D01*
X147567488Y-48571504D01*
X147564040Y-48597097D01*
X147552756Y-48620328D01*
X147546302Y-48728741D01*
X147531799Y-48836384D01*
X147579049Y-49592336D01*
X147607880Y-49701250D01*
X147629858Y-49811742D01*
X147641897Y-49829760D01*
X147647443Y-49850710D01*
X147715755Y-49940297D01*
X147778347Y-50033972D01*
X147796366Y-50046012D01*
X147809506Y-50063244D01*
X147906899Y-50119868D01*
X148000577Y-50182461D01*
X148021833Y-50186689D01*
X148040567Y-50197581D01*
X148152216Y-50212624D01*
X148262715Y-50234604D01*
X159483890Y-50234604D01*
X159493647Y-50232663D01*
X159503459Y-50234325D01*
X159624384Y-50206658D01*
X159746028Y-50182461D01*
X159754301Y-50176933D01*
X159764000Y-50174714D01*
X159865123Y-50102884D01*
X159968258Y-50033972D01*
X159973786Y-50025699D01*
X159981898Y-50019937D01*
X160047837Y-49914873D01*
X160116747Y-49811742D01*
X160118688Y-49801983D01*
X160123977Y-49793556D01*
X160144689Y-49671271D01*
X160168890Y-49549604D01*
X160166949Y-49539845D01*
X160168610Y-49530036D01*
X160144980Y-48703212D01*
X160133351Y-48652384D01*
X160134211Y-48600245D01*
X160103819Y-48523305D01*
X160085370Y-48442671D01*
X160055175Y-48400161D01*
X160036017Y-48351663D01*
X159978497Y-48292214D01*
X159930593Y-48224773D01*
X159886426Y-48197053D01*
X159850169Y-48159580D01*
X158928853Y-47521745D01*
X158883188Y-47501941D01*
X158843796Y-47471522D01*
X158761694Y-47449252D01*
X158683645Y-47415404D01*
X158633880Y-47414583D01*
X158585843Y-47401553D01*
X153766646Y-47070824D01*
X153707826Y-47078384D01*
X153648777Y-47072903D01*
X149214001Y-47534859D01*
X150304296Y-47298523D01*
X150883787Y-47199856D01*
X151584817Y-47119385D01*
X152386937Y-47058223D01*
X153259372Y-47018172D01*
X154173204Y-47000441D01*
X155100212Y-47005986D01*
X155100212Y-47005986D01*
G37*
X155100212Y-47005986D02*
X156012134Y-47035594D01*
X156883699Y-47090051D01*
X157952349Y-47186419D01*
X158313439Y-47237025D01*
X158618878Y-47300425D01*
X158917168Y-47386984D01*
X159256223Y-47510207D01*
X160231653Y-47921344D01*
X160916001Y-48234721D01*
X161555156Y-48556183D01*
X162065875Y-48840976D01*
X162385911Y-49054047D01*
X162956027Y-49474280D01*
X162975581Y-49483458D01*
X162991101Y-49498487D01*
X163588682Y-49884026D01*
X164053828Y-50188656D01*
X164564147Y-50580780D01*
X165123337Y-51060084D01*
X165708525Y-51606517D01*
X166299185Y-52200899D01*
X166875812Y-52824412D01*
X167419164Y-53458051D01*
X167911784Y-54084478D01*
X168429797Y-54805897D01*
X168919407Y-55549420D01*
X169386684Y-56326823D01*
X169838667Y-57151593D01*
X170282051Y-58036950D01*
X170723319Y-58995905D01*
X171168777Y-60041147D01*
X171627047Y-61191136D01*
X171629109Y-61194314D01*
X171629838Y-61198030D01*
X172140221Y-62439429D01*
X172165224Y-62536613D01*
X172176889Y-62560876D01*
X172180462Y-62587558D01*
X172280708Y-62880747D01*
X172286693Y-62891061D01*
X172288680Y-62902821D01*
X172617826Y-63767502D01*
X172819645Y-64300262D01*
X173027153Y-64891445D01*
X173217466Y-65472924D01*
X173367937Y-65978476D01*
X173370603Y-65983527D01*
X173371226Y-65989204D01*
X173555684Y-66573751D01*
X173561815Y-66584920D01*
X173563668Y-66597527D01*
X173844524Y-67385766D01*
X173848497Y-67392415D01*
X173849793Y-67400048D01*
X174188869Y-68288711D01*
X174192698Y-68294806D01*
X174194049Y-68301878D01*
X174553169Y-69187695D01*
X174554201Y-69189265D01*
X174554564Y-69191110D01*
X175161062Y-70664284D01*
X175411417Y-71325243D01*
X175419064Y-71337483D01*
X175422034Y-71351609D01*
X175526004Y-71595092D01*
X175537576Y-71612010D01*
X175542969Y-71631784D01*
X175822825Y-72192972D01*
X175826846Y-72198164D01*
X175828693Y-72204467D01*
X176723731Y-73917672D01*
X176726471Y-73921076D01*
X176727752Y-73925252D01*
X177749343Y-75822405D01*
X177753488Y-75827424D01*
X177755513Y-75833612D01*
X178518998Y-77190130D01*
X178519242Y-77190414D01*
X178519359Y-77190771D01*
X179064595Y-78157089D01*
X179524972Y-79059992D01*
X180795552Y-81701747D01*
X180795811Y-81702092D01*
X180795919Y-81702508D01*
X182368899Y-84962703D01*
X182370224Y-84964462D01*
X182370789Y-84966588D01*
X182671011Y-85578936D01*
X182675736Y-85585123D01*
X182677901Y-85592601D01*
X182969541Y-86155283D01*
X182975602Y-86162862D01*
X182978559Y-86172104D01*
X183228279Y-86622716D01*
X183241159Y-86637933D01*
X183248316Y-86656546D01*
X183422775Y-86932687D01*
X183429324Y-86939580D01*
X183432978Y-86948359D01*
X183574520Y-87159411D01*
X183744307Y-87443980D01*
X184122811Y-88154180D01*
X184497077Y-88868136D01*
X184510153Y-88884333D01*
X184517221Y-88903913D01*
X184827207Y-89417805D01*
X184831253Y-89422244D01*
X184833388Y-89427854D01*
X184989908Y-89677508D01*
X185229679Y-90095454D01*
X185851914Y-91246709D01*
X185852604Y-91247542D01*
X185852927Y-91248577D01*
X186544258Y-92518241D01*
X186549682Y-92524747D01*
X186552399Y-92532768D01*
X186873502Y-93089806D01*
X186879601Y-93096770D01*
X186882802Y-93105454D01*
X187132318Y-93512885D01*
X187132582Y-93513171D01*
X187132717Y-93513536D01*
X187566275Y-94219716D01*
X187921193Y-94879797D01*
X188210444Y-95517164D01*
X188438936Y-96142539D01*
X188611466Y-96767838D01*
X188732158Y-97405749D01*
X188804153Y-98069110D01*
X188829746Y-98771125D01*
X188809440Y-99684724D01*
X188744012Y-100664753D01*
X188638306Y-101674357D01*
X188497567Y-102678227D01*
X188327392Y-103641088D01*
X188133917Y-104526992D01*
X187922672Y-105304817D01*
X187816609Y-105629950D01*
X187709273Y-105915673D01*
X187579288Y-106211943D01*
X187421875Y-106528857D01*
X187011267Y-107248949D01*
X186497041Y-108038369D01*
X185885881Y-108886969D01*
X185188044Y-109779850D01*
X184413507Y-110703163D01*
X183572227Y-111643457D01*
X182673205Y-112588500D01*
X181871213Y-113386827D01*
X181148736Y-114060251D01*
X180484120Y-114624691D01*
X179853040Y-115099000D01*
X179229057Y-115503328D01*
X178583472Y-115858002D01*
X177886876Y-116181981D01*
X177117951Y-116489708D01*
X176402012Y-116727168D01*
X175463956Y-116991554D01*
X174381990Y-117264347D01*
X173237422Y-117527138D01*
X172109310Y-117762501D01*
X171077264Y-117953185D01*
X170219094Y-118082709D01*
X169894489Y-118118031D01*
X169638766Y-118133477D01*
X169175961Y-118144321D01*
X169149484Y-118150236D01*
X169122474Y-118147671D01*
X168071880Y-118254867D01*
X168055979Y-118259751D01*
X168039366Y-118258973D01*
X167958186Y-118271203D01*
X167940007Y-118277754D01*
X167894742Y-118281971D01*
X166607255Y-118392803D01*
X165975408Y-118394853D01*
X165326188Y-118362855D01*
X164673847Y-118297324D01*
X164023052Y-118198966D01*
X163378431Y-118068557D01*
X162744703Y-117906983D01*
X162126478Y-117715209D01*
X161512184Y-117488321D01*
X160932600Y-117270901D01*
X165422099Y-117270901D01*
X165712938Y-117213049D01*
X165959500Y-117048302D01*
X166190062Y-116817740D01*
X166347723Y-116817878D01*
X166442526Y-116778706D01*
X166455219Y-116809427D01*
X166772900Y-117127663D01*
X167188183Y-117300103D01*
X167637844Y-117300496D01*
X168053427Y-117128781D01*
X168371663Y-116811100D01*
X168544103Y-116395817D01*
X168544496Y-115946156D01*
X168372781Y-115530573D01*
X168055100Y-115212337D01*
X167914777Y-115154070D01*
X168053427Y-115096781D01*
X168371663Y-114779100D01*
X168544103Y-114363817D01*
X168544496Y-113914156D01*
X168372781Y-113498573D01*
X168055100Y-113180337D01*
X167639817Y-113007897D01*
X167190156Y-113007504D01*
X166774573Y-113179219D01*
X166456337Y-113496900D01*
X166442902Y-113529255D01*
X166349519Y-113490479D01*
X165940277Y-113490122D01*
X165562050Y-113646402D01*
X165509161Y-113699199D01*
X165457472Y-113647419D01*
X165079519Y-113490479D01*
X164670277Y-113490122D01*
X164292050Y-113646402D01*
X164239161Y-113699199D01*
X164187472Y-113647419D01*
X163809519Y-113490479D01*
X163650142Y-113490340D01*
X163419500Y-113259698D01*
X163172938Y-113094951D01*
X162882099Y-113037099D01*
X160161901Y-113037099D01*
X158508614Y-111383812D01*
X158562192Y-111330328D01*
X158704838Y-110986800D01*
X158705162Y-110614834D01*
X158563117Y-110271058D01*
X158300327Y-110007809D01*
X157956799Y-109865163D01*
X157630615Y-109864879D01*
X156193210Y-108427474D01*
X156193210Y-107499342D01*
X156135358Y-107208503D01*
X155970611Y-106961941D01*
X155474000Y-106465330D01*
X155474000Y-105364914D01*
X155684000Y-105407440D01*
X156284000Y-105407440D01*
X156519317Y-105363162D01*
X156735441Y-105224090D01*
X156880431Y-105011890D01*
X156931440Y-104760000D01*
X156931440Y-104420000D01*
X157052000Y-104420000D01*
X157342839Y-104362148D01*
X157589401Y-104197401D01*
X158043362Y-103743440D01*
X158391000Y-103743440D01*
X158626317Y-103699162D01*
X158842441Y-103560090D01*
X158987431Y-103347890D01*
X159038440Y-103096000D01*
X159038440Y-102296000D01*
X158994162Y-102060683D01*
X158927671Y-101957354D01*
X158929327Y-101955698D01*
X159026000Y-101722309D01*
X159026000Y-101481750D01*
X158867250Y-101323000D01*
X158143000Y-101323000D01*
X158143000Y-101343000D01*
X157889000Y-101343000D01*
X157889000Y-101323000D01*
X157164750Y-101323000D01*
X157006000Y-101481750D01*
X157006000Y-101722309D01*
X157102673Y-101955698D01*
X157104043Y-101957068D01*
X157044569Y-102044110D01*
X156993560Y-102296000D01*
X156993560Y-102643638D01*
X156931440Y-102705758D01*
X156931440Y-102560000D01*
X156887162Y-102324683D01*
X156748090Y-102108559D01*
X156535890Y-101963569D01*
X156284000Y-101912560D01*
X155684000Y-101912560D01*
X155448683Y-101956838D01*
X155349472Y-102020678D01*
X155265890Y-101963569D01*
X155014000Y-101912560D01*
X154414000Y-101912560D01*
X154178683Y-101956838D01*
X154079472Y-102020678D01*
X153995890Y-101963569D01*
X153744000Y-101912560D01*
X153144000Y-101912560D01*
X152908683Y-101956838D01*
X152809472Y-102020678D01*
X152725890Y-101963569D01*
X152474000Y-101912560D01*
X151874000Y-101912560D01*
X151638683Y-101956838D01*
X151539472Y-102020678D01*
X151455890Y-101963569D01*
X151204000Y-101912560D01*
X151031362Y-101912560D01*
X150511401Y-101392599D01*
X150503003Y-101386988D01*
X150604000Y-101407440D01*
X151204000Y-101407440D01*
X151439317Y-101363162D01*
X151538528Y-101299322D01*
X151622110Y-101356431D01*
X151874000Y-101407440D01*
X152474000Y-101407440D01*
X152709317Y-101363162D01*
X152808528Y-101299322D01*
X152892110Y-101356431D01*
X153144000Y-101407440D01*
X153744000Y-101407440D01*
X153979317Y-101363162D01*
X154078528Y-101299322D01*
X154162110Y-101356431D01*
X154414000Y-101407440D01*
X155014000Y-101407440D01*
X155249317Y-101363162D01*
X155339981Y-101304821D01*
X155557691Y-101395000D01*
X155698250Y-101395000D01*
X155857000Y-101236250D01*
X155857000Y-99787000D01*
X156111000Y-99787000D01*
X156111000Y-101236250D01*
X156269750Y-101395000D01*
X156410309Y-101395000D01*
X156643698Y-101298327D01*
X156822327Y-101119699D01*
X156919000Y-100886310D01*
X156919000Y-100669691D01*
X157006000Y-100669691D01*
X157006000Y-100910250D01*
X157164750Y-101069000D01*
X157889000Y-101069000D01*
X157889000Y-100319750D01*
X158143000Y-100319750D01*
X158143000Y-101069000D01*
X158867250Y-101069000D01*
X159026000Y-100910250D01*
X159026000Y-100669691D01*
X158929327Y-100436302D01*
X158750699Y-100257673D01*
X158517310Y-100161000D01*
X158301750Y-100161000D01*
X158143000Y-100319750D01*
X157889000Y-100319750D01*
X157730250Y-100161000D01*
X157514690Y-100161000D01*
X157281301Y-100257673D01*
X157102673Y-100436302D01*
X157006000Y-100669691D01*
X156919000Y-100669691D01*
X156919000Y-99945750D01*
X156760250Y-99787000D01*
X156111000Y-99787000D01*
X155857000Y-99787000D01*
X155837000Y-99787000D01*
X155837000Y-99533000D01*
X155857000Y-99533000D01*
X155857000Y-99513000D01*
X156111000Y-99513000D01*
X156111000Y-99533000D01*
X156760250Y-99533000D01*
X156919000Y-99374250D01*
X156919000Y-98642000D01*
X156954000Y-98642000D01*
X157244839Y-98584148D01*
X157491401Y-98419401D01*
X157793362Y-98117440D01*
X158666000Y-98117440D01*
X158901317Y-98073162D01*
X159117441Y-97934090D01*
X159195016Y-97820555D01*
X159194838Y-98025167D01*
X159336883Y-98368943D01*
X159599673Y-98632192D01*
X159943201Y-98774838D01*
X160315167Y-98775162D01*
X160658943Y-98633117D01*
X160692118Y-98600000D01*
X160705198Y-98600000D01*
X164354878Y-102249680D01*
X164354838Y-102295167D01*
X164496883Y-102638943D01*
X164759673Y-102902192D01*
X165103201Y-103044838D01*
X165475167Y-103045162D01*
X165818943Y-102903117D01*
X166082192Y-102640327D01*
X166224838Y-102296799D01*
X166225162Y-101924833D01*
X166083117Y-101581057D01*
X165820327Y-101317808D01*
X165476799Y-101175162D01*
X165429923Y-101175121D01*
X162309969Y-98055167D01*
X166084838Y-98055167D01*
X166226883Y-98398943D01*
X166489673Y-98662192D01*
X166833201Y-98804838D01*
X167205167Y-98805162D01*
X167548943Y-98663117D01*
X167582118Y-98630000D01*
X173675480Y-98630000D01*
X173966319Y-98572148D01*
X174212881Y-98407401D01*
X175584101Y-97036181D01*
X175748848Y-96789619D01*
X175806700Y-96498780D01*
X175806700Y-96412463D01*
X175838892Y-96380327D01*
X175981538Y-96036799D01*
X175981862Y-95664833D01*
X175839817Y-95321057D01*
X175577027Y-95057808D01*
X175233499Y-94915162D01*
X174861533Y-94914838D01*
X174517757Y-95056883D01*
X174254508Y-95319673D01*
X174111862Y-95663201D01*
X174111538Y-96035167D01*
X174206262Y-96264416D01*
X173360678Y-97110000D01*
X167582463Y-97110000D01*
X167550327Y-97077808D01*
X167206799Y-96935162D01*
X166834833Y-96934838D01*
X166491057Y-97076883D01*
X166227808Y-97339673D01*
X166085162Y-97683201D01*
X166084838Y-98055167D01*
X162309969Y-98055167D01*
X161557401Y-97302599D01*
X161310839Y-97137852D01*
X161177912Y-97111411D01*
X165518823Y-97111411D01*
X165809662Y-97053559D01*
X166056224Y-96888812D01*
X169805036Y-93140000D01*
X172288237Y-93140000D01*
X172320373Y-93172192D01*
X172663901Y-93314838D01*
X173035867Y-93315162D01*
X173379643Y-93173117D01*
X173642892Y-92910327D01*
X173785538Y-92566799D01*
X173785862Y-92194833D01*
X173643817Y-91851057D01*
X173381027Y-91587808D01*
X173037499Y-91445162D01*
X172665533Y-91444838D01*
X172321757Y-91586883D01*
X172288582Y-91620000D01*
X170684102Y-91620000D01*
X172238980Y-90065122D01*
X172284467Y-90065162D01*
X172628243Y-89923117D01*
X172891492Y-89660327D01*
X173034138Y-89316799D01*
X173034462Y-88944833D01*
X172892417Y-88601057D01*
X172629627Y-88337808D01*
X172286099Y-88195162D01*
X171914133Y-88194838D01*
X171570357Y-88336883D01*
X171307108Y-88599673D01*
X171164462Y-88943201D01*
X171164421Y-88990077D01*
X165694498Y-94460000D01*
X159156757Y-94460000D01*
X159130090Y-94418559D01*
X158917890Y-94273569D01*
X158666000Y-94222560D01*
X157366000Y-94222560D01*
X157130683Y-94266838D01*
X156914559Y-94405910D01*
X156874076Y-94465159D01*
X156844090Y-94418559D01*
X156631890Y-94273569D01*
X156380000Y-94222560D01*
X155511799Y-94222560D01*
X155511799Y-89413937D01*
X160175736Y-84750000D01*
X164770000Y-84750000D01*
X165060839Y-84692148D01*
X165307401Y-84527401D01*
X165444802Y-84390000D01*
X165786837Y-84390000D01*
X165818973Y-84422192D01*
X166162501Y-84564838D01*
X166534467Y-84565162D01*
X166878243Y-84423117D01*
X167141492Y-84160327D01*
X167284138Y-83816799D01*
X167284462Y-83444833D01*
X167142417Y-83101057D01*
X166879627Y-82837808D01*
X166536099Y-82695162D01*
X166164133Y-82694838D01*
X165820357Y-82836883D01*
X165787182Y-82870000D01*
X165376024Y-82870000D01*
X160300348Y-77794324D01*
X160053786Y-77629577D01*
X159762947Y-77571725D01*
X158915302Y-77571725D01*
X155738621Y-74395044D01*
X155738621Y-62714701D01*
X155728000Y-62661306D01*
X155728000Y-62617763D01*
X155760192Y-62585627D01*
X155902838Y-62242099D01*
X155903162Y-61870133D01*
X155761117Y-61526357D01*
X155498327Y-61263108D01*
X155154799Y-61120462D01*
X155086480Y-61120402D01*
X158553401Y-57653481D01*
X158718148Y-57406919D01*
X158776000Y-57116080D01*
X158776000Y-57029763D01*
X158808192Y-56997627D01*
X158950838Y-56654099D01*
X158951162Y-56282133D01*
X158809117Y-55938357D01*
X158546327Y-55675108D01*
X158202799Y-55532462D01*
X157830833Y-55532138D01*
X157487057Y-55674183D01*
X157223808Y-55936973D01*
X157081162Y-56280501D01*
X157080838Y-56652467D01*
X157175562Y-56881716D01*
X147292599Y-66764679D01*
X147127852Y-67011241D01*
X147070000Y-67302080D01*
X147070000Y-68747537D01*
X147037808Y-68779673D01*
X146895162Y-69123201D01*
X146894838Y-69495167D01*
X147036883Y-69838943D01*
X147299673Y-70102192D01*
X147643201Y-70244838D01*
X148015167Y-70245162D01*
X148245799Y-70149867D01*
X148245799Y-72309399D01*
X146865198Y-73690000D01*
X144282463Y-73690000D01*
X144250327Y-73657808D01*
X143906799Y-73515162D01*
X143534833Y-73514838D01*
X143191057Y-73656883D01*
X143157882Y-73690000D01*
X142981641Y-73690000D01*
X142879627Y-73587808D01*
X142536099Y-73445162D01*
X142164133Y-73444838D01*
X141820357Y-73586883D01*
X141557108Y-73849673D01*
X141414462Y-74193201D01*
X141414138Y-74565167D01*
X141556183Y-74908943D01*
X141818973Y-75172192D01*
X142162501Y-75314838D01*
X142534467Y-75315162D01*
X142788979Y-75210000D01*
X143157537Y-75210000D01*
X143189673Y-75242192D01*
X143533201Y-75384838D01*
X143905167Y-75385162D01*
X144248943Y-75243117D01*
X144282118Y-75210000D01*
X146213489Y-75210000D01*
X147646889Y-76643400D01*
X120186522Y-76643400D01*
X120131027Y-76587808D01*
X119787499Y-76445162D01*
X119415533Y-76444838D01*
X119071757Y-76586883D01*
X118808508Y-76849673D01*
X118665862Y-77193201D01*
X118665616Y-77475161D01*
X118294833Y-77474838D01*
X117951057Y-77616883D01*
X117687808Y-77879673D01*
X117588015Y-78120000D01*
X116163163Y-78120000D01*
X116131027Y-78087808D01*
X115787499Y-77945162D01*
X115415533Y-77944838D01*
X115071757Y-78086883D01*
X114808508Y-78349673D01*
X114665862Y-78693201D01*
X114665538Y-79065167D01*
X114807583Y-79408943D01*
X115070373Y-79672192D01*
X115413901Y-79814838D01*
X115785867Y-79815162D01*
X116129643Y-79673117D01*
X116162818Y-79640000D01*
X117743400Y-79640000D01*
X117743400Y-87623984D01*
X117687808Y-87679479D01*
X117545162Y-88023007D01*
X117544838Y-88394973D01*
X117686883Y-88738749D01*
X117949673Y-89001998D01*
X118293201Y-89144644D01*
X118665167Y-89144968D01*
X119008943Y-89002923D01*
X119272192Y-88740133D01*
X119414838Y-88396605D01*
X119415162Y-88024639D01*
X119273117Y-87680863D01*
X119216600Y-87624247D01*
X119216600Y-82435750D01*
X128015000Y-82435750D01*
X128015000Y-83276309D01*
X128111673Y-83509698D01*
X128290301Y-83688327D01*
X128523690Y-83785000D01*
X129164250Y-83785000D01*
X129323000Y-83626250D01*
X129323000Y-82277000D01*
X129577000Y-82277000D01*
X129577000Y-83626250D01*
X129735750Y-83785000D01*
X130376310Y-83785000D01*
X130609699Y-83688327D01*
X130788327Y-83509698D01*
X130885000Y-83276309D01*
X130885000Y-82435750D01*
X130726250Y-82277000D01*
X129577000Y-82277000D01*
X129323000Y-82277000D01*
X128173750Y-82277000D01*
X128015000Y-82435750D01*
X119216600Y-82435750D01*
X119216600Y-81023691D01*
X128015000Y-81023691D01*
X128015000Y-81864250D01*
X128173750Y-82023000D01*
X129323000Y-82023000D01*
X129323000Y-80673750D01*
X129577000Y-80673750D01*
X129577000Y-82023000D01*
X130726250Y-82023000D01*
X130885000Y-81864250D01*
X130885000Y-81023691D01*
X130788327Y-80790302D01*
X130609699Y-80611673D01*
X130376310Y-80515000D01*
X129735750Y-80515000D01*
X129577000Y-80673750D01*
X129323000Y-80673750D01*
X129164250Y-80515000D01*
X128523690Y-80515000D01*
X128290301Y-80611673D01*
X128111673Y-80790302D01*
X128015000Y-81023691D01*
X119216600Y-81023691D01*
X119216600Y-78995822D01*
X119272192Y-78940327D01*
X119414838Y-78596799D01*
X119415084Y-78314839D01*
X119785867Y-78315162D01*
X120129643Y-78173117D01*
X120186259Y-78116600D01*
X154263478Y-78116600D01*
X154318973Y-78172192D01*
X154662501Y-78314838D01*
X154717501Y-78314886D01*
X154717501Y-86138115D01*
X152589940Y-88265676D01*
X152430265Y-88504646D01*
X152414293Y-88584945D01*
X152318603Y-88680468D01*
X152175957Y-89023996D01*
X152175887Y-89103993D01*
X151456480Y-89823400D01*
X148774894Y-89823400D01*
X148493009Y-89879470D01*
X148254039Y-90039145D01*
X145754585Y-92538599D01*
X139604801Y-92538599D01*
X139322916Y-92594669D01*
X139109918Y-92736990D01*
X129003090Y-92736990D01*
X128721205Y-92793060D01*
X128482235Y-92952735D01*
X126924649Y-94510321D01*
X126706799Y-94419862D01*
X126334833Y-94419538D01*
X125991057Y-94561583D01*
X125932221Y-94620317D01*
X122065094Y-90753190D01*
X122065162Y-90674639D01*
X121923117Y-90330863D01*
X121863614Y-90271256D01*
X123824870Y-88310000D01*
X128002560Y-88310000D01*
X128002560Y-88550000D01*
X128046838Y-88785317D01*
X128185910Y-89001441D01*
X128398110Y-89146431D01*
X128650000Y-89197440D01*
X130250000Y-89197440D01*
X130485317Y-89153162D01*
X130701441Y-89014090D01*
X130846431Y-88801890D01*
X130897440Y-88550000D01*
X130897440Y-86550000D01*
X130853162Y-86314683D01*
X130714090Y-86098559D01*
X130501890Y-85953569D01*
X130250000Y-85902560D01*
X128650000Y-85902560D01*
X128414683Y-85946838D01*
X128198559Y-86085910D01*
X128053569Y-86298110D01*
X128002560Y-86550000D01*
X128002560Y-86790000D01*
X123510068Y-86790000D01*
X123219229Y-86847852D01*
X122972667Y-87012599D01*
X119964398Y-90020868D01*
X119799651Y-90267430D01*
X119741799Y-90558269D01*
X119741799Y-91161343D01*
X119799651Y-91452182D01*
X119964398Y-91698744D01*
X125192366Y-96926712D01*
X125438927Y-97091459D01*
X125729767Y-97149311D01*
X130170689Y-97149311D01*
X130461528Y-97091459D01*
X130708090Y-96926712D01*
X130949680Y-96685122D01*
X130995167Y-96685162D01*
X131338943Y-96543117D01*
X131602192Y-96280327D01*
X131744838Y-95936799D01*
X131745162Y-95564833D01*
X131603117Y-95221057D01*
X131340327Y-94957808D01*
X130996799Y-94815162D01*
X130624833Y-94814838D01*
X130281057Y-94956883D01*
X130017808Y-95219673D01*
X129875162Y-95563201D01*
X129875121Y-95610077D01*
X129855887Y-95629311D01*
X128463829Y-95629311D01*
X129476540Y-94616600D01*
X134452078Y-94616600D01*
X126399802Y-102668876D01*
X126297117Y-102420357D01*
X126264000Y-102387182D01*
X126264000Y-99310247D01*
X126540943Y-99195817D01*
X126804192Y-98933027D01*
X126946838Y-98589499D01*
X126947162Y-98217533D01*
X126805117Y-97873757D01*
X126542327Y-97610508D01*
X126198799Y-97467862D01*
X125826833Y-97467538D01*
X125483057Y-97609583D01*
X125219808Y-97872373D01*
X125077162Y-98215901D01*
X125077121Y-98262777D01*
X124966599Y-98373299D01*
X124801852Y-98619861D01*
X124744000Y-98910700D01*
X124744000Y-102386837D01*
X124711808Y-102418973D01*
X124667256Y-102526266D01*
X122456600Y-100315610D01*
X122456600Y-94822685D01*
X122456601Y-94822680D01*
X122400531Y-94540796D01*
X122240855Y-94301825D01*
X111093679Y-83154649D01*
X111184138Y-82936799D01*
X111184462Y-82564833D01*
X111042417Y-82221057D01*
X110779627Y-81957808D01*
X110436099Y-81815162D01*
X110064133Y-81814838D01*
X109720357Y-81956883D01*
X109457108Y-82219673D01*
X109314462Y-82563201D01*
X109314138Y-82935167D01*
X109456183Y-83278943D01*
X109512700Y-83335559D01*
X109512700Y-83351980D01*
X109568770Y-83633865D01*
X109728445Y-83872835D01*
X120983400Y-95127790D01*
X120983400Y-100620720D01*
X121039470Y-100902605D01*
X121199145Y-101141575D01*
X124151621Y-104094051D01*
X124061162Y-104311901D01*
X124060838Y-104683867D01*
X124202883Y-105027643D01*
X124465673Y-105290892D01*
X124809201Y-105433538D01*
X125181167Y-105433862D01*
X125524943Y-105291817D01*
X125558118Y-105258700D01*
X125644780Y-105258700D01*
X125935619Y-105200848D01*
X126182181Y-105036101D01*
X126534415Y-104683867D01*
X133966838Y-104683867D01*
X134108883Y-105027643D01*
X134371673Y-105290892D01*
X134715201Y-105433538D01*
X135087167Y-105433862D01*
X135430943Y-105291817D01*
X135694192Y-105029027D01*
X135836838Y-104685499D01*
X135837162Y-104313533D01*
X135695117Y-103969757D01*
X135432327Y-103706508D01*
X135088799Y-103563862D01*
X134716833Y-103563538D01*
X134373057Y-103705583D01*
X134109808Y-103968373D01*
X133967162Y-104311901D01*
X133966838Y-104683867D01*
X126534415Y-104683867D01*
X132205023Y-99013259D01*
X132204838Y-99225167D01*
X132346883Y-99568943D01*
X132380000Y-99602118D01*
X132380000Y-100110438D01*
X132437852Y-100401277D01*
X132602599Y-100647839D01*
X135183960Y-103229200D01*
X135430522Y-103393947D01*
X135721361Y-103451799D01*
X137527722Y-103451799D01*
X137501327Y-103515366D01*
X137501003Y-103887332D01*
X137643048Y-104231108D01*
X137905838Y-104494357D01*
X138249366Y-104637003D01*
X138621332Y-104637327D01*
X138965108Y-104495282D01*
X139228357Y-104232492D01*
X139371003Y-103888964D01*
X139371327Y-103516998D01*
X139344387Y-103451799D01*
X143332560Y-103451799D01*
X143332560Y-104320000D01*
X143376838Y-104555317D01*
X143515910Y-104771441D01*
X143570000Y-104808399D01*
X143570000Y-106106762D01*
X143627852Y-106397601D01*
X143792599Y-106644163D01*
X147845837Y-110697401D01*
X148092399Y-110862148D01*
X148271381Y-110897750D01*
X147975000Y-111194132D01*
X146400434Y-109619566D01*
X146344995Y-109582523D01*
X146129541Y-109438561D01*
X145810000Y-109375000D01*
X145721563Y-109375000D01*
X145521890Y-109238569D01*
X145270000Y-109187560D01*
X144470000Y-109187560D01*
X144234683Y-109231838D01*
X144131354Y-109298329D01*
X144129698Y-109296673D01*
X143896309Y-109200000D01*
X143655750Y-109200000D01*
X143497000Y-109358750D01*
X143497000Y-110083000D01*
X143517000Y-110083000D01*
X143517000Y-110337000D01*
X143497000Y-110337000D01*
X143497000Y-111061250D01*
X143655750Y-111220000D01*
X143896309Y-111220000D01*
X144129698Y-111123327D01*
X144131068Y-111121957D01*
X144218110Y-111181431D01*
X144470000Y-111232440D01*
X145270000Y-111232440D01*
X145505317Y-111188162D01*
X145567366Y-111148234D01*
X146082404Y-111663272D01*
X145890000Y-111625000D01*
X144510000Y-111625000D01*
X144190459Y-111688561D01*
X143978519Y-111830175D01*
X143919566Y-111869566D01*
X143299566Y-112489566D01*
X143118561Y-112760459D01*
X143055000Y-113080000D01*
X143055000Y-120044133D01*
X142118727Y-120980406D01*
X141465519Y-120326057D01*
X138201089Y-118970547D01*
X134666418Y-118967463D01*
X131399627Y-120317273D01*
X128898056Y-122814482D01*
X127542546Y-126078912D01*
X127539462Y-129613583D01*
X128889272Y-132880374D01*
X131386481Y-135381945D01*
X134650911Y-136737455D01*
X138185582Y-136740539D01*
X141452373Y-135390729D01*
X143953944Y-132893520D01*
X145309454Y-129629090D01*
X145312538Y-126094419D01*
X143962728Y-122827628D01*
X143298565Y-122162304D01*
X144480434Y-120980435D01*
X144574139Y-120840195D01*
X144661439Y-120709542D01*
X144697080Y-120530364D01*
X144697080Y-120739842D01*
X144760641Y-121059383D01*
X144896014Y-121261983D01*
X144941646Y-121330276D01*
X148267931Y-124656561D01*
X146176000Y-124656561D01*
X145940683Y-124700839D01*
X145724559Y-124839911D01*
X145579569Y-125052111D01*
X145528560Y-125304001D01*
X145528560Y-130404001D01*
X145572838Y-130639318D01*
X145711910Y-130855442D01*
X145924110Y-131000432D01*
X146176000Y-131051441D01*
X148676000Y-131051441D01*
X148911317Y-131007163D01*
X149127441Y-130868091D01*
X149272431Y-130655891D01*
X149301117Y-130514235D01*
X149301117Y-132194128D01*
X148924128Y-132571117D01*
X148033883Y-132571117D01*
X147714342Y-132634678D01*
X147443449Y-132815683D01*
X142554132Y-137705000D01*
X129295868Y-137705000D01*
X128180845Y-136589977D01*
X128120434Y-136499566D01*
X124565000Y-132944132D01*
X124565000Y-131051441D01*
X126676000Y-131051441D01*
X126911317Y-131007163D01*
X127127441Y-130868091D01*
X127272431Y-130655891D01*
X127323440Y-130404001D01*
X127323440Y-125304001D01*
X127279162Y-125068684D01*
X127140090Y-124852560D01*
X126927890Y-124707570D01*
X126676000Y-124656561D01*
X124176000Y-124656561D01*
X123940683Y-124700839D01*
X123724559Y-124839911D01*
X123579569Y-125052111D01*
X123528560Y-125304001D01*
X123528560Y-127068220D01*
X123456460Y-127082561D01*
X123185566Y-127263567D01*
X123135566Y-127313567D01*
X122954561Y-127584460D01*
X122891000Y-127904001D01*
X122891000Y-130804001D01*
X122895000Y-130824110D01*
X122895000Y-133290000D01*
X122958561Y-133609541D01*
X123138177Y-133878355D01*
X123139566Y-133880434D01*
X126879156Y-137620024D01*
X126927708Y-137692687D01*
X126939566Y-137710434D01*
X128359566Y-139130434D01*
X128630459Y-139311439D01*
X128950000Y-139375000D01*
X142900000Y-139375000D01*
X143219541Y-139311439D01*
X143490434Y-139130434D01*
X147096305Y-135524563D01*
X147606533Y-136034791D01*
X147431043Y-136457418D01*
X147430631Y-136928840D01*
X147610657Y-137364535D01*
X147943712Y-137698172D01*
X148379092Y-137878957D01*
X148850514Y-137879369D01*
X149275507Y-137703765D01*
X149625255Y-138053513D01*
X148541883Y-138748025D01*
X148079455Y-139014372D01*
X147655993Y-139222292D01*
X147198850Y-139405535D01*
X146635941Y-139593852D01*
X144933936Y-140091857D01*
X143151807Y-140579837D01*
X142444410Y-140750734D01*
X141808537Y-140883440D01*
X141210380Y-140984720D01*
X140612113Y-141061773D01*
X139975935Y-141121211D01*
X139261783Y-141169400D01*
X137236379Y-141298371D01*
X136928715Y-141308265D01*
X136546072Y-141300763D01*
X136134588Y-141277391D01*
X135747535Y-141240006D01*
X135126373Y-141154853D01*
X134432723Y-141043165D01*
X133715412Y-140912597D01*
X133015094Y-140769877D01*
X132373638Y-140622236D01*
X131836138Y-140478293D01*
X131446439Y-140348232D01*
X131353825Y-140307873D01*
X131278270Y-140263595D01*
X131242752Y-140251281D01*
X131212111Y-140229511D01*
X131078073Y-140169431D01*
X131045596Y-140161997D01*
X131016707Y-140145399D01*
X130772416Y-140063049D01*
X130755335Y-140060837D01*
X130739992Y-140053006D01*
X130454108Y-139972166D01*
X130431921Y-139970405D01*
X130411491Y-139961578D01*
X130152674Y-139906018D01*
X130146792Y-139905929D01*
X130141352Y-139903687D01*
X129615704Y-139800093D01*
X129089961Y-139658718D01*
X128536927Y-139475931D01*
X127956625Y-139253918D01*
X127349118Y-138995254D01*
X126716821Y-138703900D01*
X125366400Y-138030392D01*
X124880062Y-137759602D01*
X124291407Y-137400717D01*
X123643001Y-136982165D01*
X122980704Y-136535056D01*
X122348848Y-136089880D01*
X121792621Y-135678076D01*
X121361761Y-135335423D01*
X121099912Y-135096165D01*
X120830823Y-134799601D01*
X120544929Y-134460115D01*
X119947350Y-133679420D01*
X119345856Y-132803690D01*
X118751565Y-131851086D01*
X118178395Y-130844202D01*
X117639708Y-129805335D01*
X117148659Y-128756949D01*
X116720081Y-127726283D01*
X116463816Y-126976178D01*
X116292247Y-126444046D01*
X115510863Y-123739108D01*
X115368664Y-123211332D01*
X115227464Y-122599716D01*
X115086684Y-121902559D01*
X114948543Y-121130701D01*
X114682656Y-119374629D01*
X114441621Y-117399155D01*
X114343302Y-116286114D01*
X114286315Y-115135711D01*
X114270271Y-113955161D01*
X114294936Y-112754853D01*
X114360009Y-111544959D01*
X114451203Y-110495750D01*
X142335000Y-110495750D01*
X142335000Y-110711310D01*
X142431673Y-110944699D01*
X142610302Y-111123327D01*
X142843691Y-111220000D01*
X143084250Y-111220000D01*
X143243000Y-111061250D01*
X143243000Y-110337000D01*
X142493750Y-110337000D01*
X142335000Y-110495750D01*
X114451203Y-110495750D01*
X114465114Y-110335701D01*
X114598563Y-109230467D01*
X123552838Y-109230467D01*
X123694883Y-109574243D01*
X123957673Y-109837492D01*
X124301201Y-109980138D01*
X124673167Y-109980462D01*
X125016943Y-109838417D01*
X125146896Y-109708690D01*
X142335000Y-109708690D01*
X142335000Y-109924250D01*
X142493750Y-110083000D01*
X143243000Y-110083000D01*
X143243000Y-109358750D01*
X143084250Y-109200000D01*
X142843691Y-109200000D01*
X142610302Y-109296673D01*
X142431673Y-109475301D01*
X142335000Y-109708690D01*
X125146896Y-109708690D01*
X125280192Y-109575627D01*
X125422838Y-109232099D01*
X125423162Y-108860133D01*
X125281117Y-108516357D01*
X125018327Y-108253108D01*
X124674799Y-108110462D01*
X124302833Y-108110138D01*
X123959057Y-108252183D01*
X123695808Y-108514973D01*
X123553162Y-108858501D01*
X123552838Y-109230467D01*
X114598563Y-109230467D01*
X114609820Y-109137243D01*
X114795260Y-107949284D01*
X114830510Y-107731867D01*
X133458838Y-107731867D01*
X133600883Y-108075643D01*
X133863673Y-108338892D01*
X134207201Y-108481538D01*
X134579167Y-108481862D01*
X134922943Y-108339817D01*
X135186192Y-108077027D01*
X135328838Y-107733499D01*
X135329162Y-107361533D01*
X135187117Y-107017757D01*
X134924327Y-106754508D01*
X134580799Y-106611862D01*
X134208833Y-106611538D01*
X133865057Y-106753583D01*
X133601808Y-107016373D01*
X133459162Y-107359901D01*
X133458838Y-107731867D01*
X114830510Y-107731867D01*
X114973896Y-106847493D01*
X114973523Y-106837023D01*
X114976889Y-106827098D01*
X115022209Y-106482167D01*
X115020196Y-106451583D01*
X115027438Y-106421799D01*
X115033238Y-106284284D01*
X115030907Y-106269286D01*
X115033845Y-106254398D01*
X115017595Y-106173332D01*
X139787003Y-106173332D01*
X139929048Y-106517108D01*
X140191838Y-106780357D01*
X140535366Y-106923003D01*
X140907332Y-106923327D01*
X141251108Y-106781282D01*
X141514357Y-106518492D01*
X141657003Y-106174964D01*
X141657327Y-105802998D01*
X141515282Y-105459222D01*
X141252492Y-105195973D01*
X140908964Y-105053327D01*
X140536998Y-105053003D01*
X140193222Y-105195048D01*
X139929973Y-105457838D01*
X139787327Y-105801366D01*
X139787003Y-106173332D01*
X115017595Y-106173332D01*
X115010461Y-106137745D01*
X114992187Y-106020182D01*
X114984295Y-106007220D01*
X114981312Y-105992338D01*
X114915062Y-105893506D01*
X114853195Y-105791892D01*
X114840943Y-105782936D01*
X114832492Y-105770329D01*
X114733463Y-105704373D01*
X114637420Y-105634170D01*
X114622674Y-105630585D01*
X114610041Y-105622171D01*
X114493310Y-105599132D01*
X114377712Y-105571027D01*
X114362716Y-105573358D01*
X114347826Y-105570419D01*
X114257836Y-105570553D01*
X114211804Y-105579781D01*
X114164934Y-105577021D01*
X113949357Y-105606861D01*
X113933273Y-105612440D01*
X113916251Y-105612273D01*
X113240282Y-105739839D01*
X112874755Y-105805782D01*
X112552635Y-105842735D01*
X112253354Y-105854625D01*
X111970282Y-105842434D01*
X111695898Y-105806437D01*
X111422213Y-105745799D01*
X111141846Y-105658720D01*
X110831304Y-105536090D01*
X110023936Y-105207469D01*
X110017539Y-105206237D01*
X110012031Y-105202752D01*
X108930107Y-104785780D01*
X108356914Y-104546590D01*
X107711468Y-104239223D01*
X107071759Y-103902744D01*
X106516196Y-103576265D01*
X105400194Y-102883265D01*
X105395157Y-102881373D01*
X105391172Y-102877759D01*
X104410797Y-102289740D01*
X104027306Y-102055368D01*
X103590967Y-101770148D01*
X102654374Y-101117353D01*
X101872173Y-100526856D01*
X101647362Y-100337617D01*
X101562904Y-100248727D01*
X101380903Y-100013164D01*
X101369202Y-100002971D01*
X101361679Y-99989398D01*
X101003487Y-99566242D01*
X101003119Y-99565949D01*
X101002891Y-99565539D01*
X100508533Y-98983114D01*
X100035204Y-98394502D01*
X99577907Y-97794388D01*
X99137682Y-97184587D01*
X98715646Y-96567043D01*
X98312780Y-95943535D01*
X97930101Y-95315904D01*
X97568629Y-94686019D01*
X97229401Y-94055812D01*
X96913396Y-93427149D01*
X96621636Y-92802015D01*
X96355063Y-92182294D01*
X96114637Y-91569969D01*
X95901307Y-90967084D01*
X95715963Y-90375669D01*
X95558705Y-89795031D01*
X95334060Y-88837720D01*
X95264119Y-88474681D01*
X95216022Y-88148970D01*
X95185914Y-87833640D01*
X95170552Y-87501450D01*
X95173790Y-86649699D01*
X95189897Y-86246003D01*
X95220670Y-85831581D01*
X95326987Y-84949499D01*
X95486993Y-84040748D01*
X95696683Y-83120845D01*
X95951033Y-82210428D01*
X96244633Y-81330163D01*
X96571583Y-80500830D01*
X96926903Y-79739885D01*
X97428485Y-78819710D01*
X98041052Y-77799915D01*
X98733016Y-76727440D01*
X99473516Y-75646775D01*
X99895510Y-75065167D01*
X127164838Y-75065167D01*
X127306883Y-75408943D01*
X127569673Y-75672192D01*
X127913201Y-75814838D01*
X128285167Y-75815162D01*
X128628943Y-75673117D01*
X128892192Y-75410327D01*
X129034838Y-75066799D01*
X129035162Y-74694833D01*
X128893117Y-74351057D01*
X128630327Y-74087808D01*
X128527637Y-74045167D01*
X134184838Y-74045167D01*
X134326883Y-74388943D01*
X134589673Y-74652192D01*
X134933201Y-74794838D01*
X135043466Y-74794934D01*
X135099161Y-74832148D01*
X135390000Y-74890000D01*
X137536137Y-74890000D01*
X137568273Y-74922192D01*
X137911801Y-75064838D01*
X138283767Y-75065162D01*
X138627543Y-74923117D01*
X138890792Y-74660327D01*
X139033438Y-74316799D01*
X139033762Y-73944833D01*
X138891717Y-73601057D01*
X138628927Y-73337808D01*
X138285399Y-73195162D01*
X137913433Y-73194838D01*
X137569657Y-73336883D01*
X137536482Y-73370000D01*
X135929208Y-73370000D01*
X135913117Y-73331057D01*
X135650327Y-73067808D01*
X135306799Y-72925162D01*
X134934833Y-72924838D01*
X134591057Y-73066883D01*
X134327808Y-73329673D01*
X134185162Y-73673201D01*
X134184838Y-74045167D01*
X128527637Y-74045167D01*
X128286799Y-73945162D01*
X127914833Y-73944838D01*
X127571057Y-74086883D01*
X127307808Y-74349673D01*
X127165162Y-74693201D01*
X127164838Y-75065167D01*
X99895510Y-75065167D01*
X100231760Y-74601736D01*
X100976630Y-73636126D01*
X101678925Y-72790856D01*
X101998062Y-72433801D01*
X102296146Y-72120991D01*
X102714469Y-71710276D01*
X103154428Y-71300398D01*
X104105722Y-70476253D01*
X105123954Y-69669688D01*
X106197172Y-68888894D01*
X107310041Y-68144741D01*
X108447200Y-67447913D01*
X109596604Y-66807065D01*
X110164791Y-66514232D01*
X110735222Y-66236804D01*
X114304239Y-64570923D01*
X115428299Y-64062731D01*
X116176120Y-63741614D01*
X116178286Y-63740126D01*
X116180851Y-63739561D01*
X117938583Y-62969056D01*
X118109723Y-62925480D01*
X118146091Y-62908106D01*
X118185817Y-62901303D01*
X118593994Y-62744885D01*
X118606922Y-62736738D01*
X118621860Y-62733499D01*
X119154643Y-62502000D01*
X119163446Y-62495897D01*
X119173838Y-62493306D01*
X119772945Y-62210774D01*
X120472208Y-61881821D01*
X121283301Y-61520990D01*
X122109368Y-61170259D01*
X122851243Y-60872803D01*
X124519109Y-60216707D01*
X124522082Y-60214797D01*
X124525550Y-60214135D01*
X126251590Y-59514896D01*
X126253226Y-59513821D01*
X126255149Y-59513443D01*
X129787029Y-58059510D01*
X129790849Y-58056970D01*
X129795340Y-58056025D01*
X130523896Y-57744836D01*
X130531679Y-57739511D01*
X130540850Y-57737321D01*
X131219101Y-57425649D01*
X131228327Y-57418963D01*
X131239316Y-57415956D01*
X131791491Y-57139988D01*
X131809044Y-57126370D01*
X131830051Y-57119148D01*
X132180377Y-56915075D01*
X132196446Y-56900873D01*
X132216257Y-56892662D01*
X134161647Y-55592253D01*
X134163402Y-55590497D01*
X134165687Y-55589531D01*
X135486921Y-54692685D01*
X135492594Y-54686928D01*
X135499966Y-54683608D01*
X136707099Y-53822640D01*
X137627084Y-53169970D01*
X137991459Y-52930411D01*
X138244613Y-52780541D01*
X138247750Y-52777729D01*
X138251705Y-52776284D01*
X138777548Y-52456343D01*
X138794506Y-52440767D01*
X138815561Y-52431450D01*
X139435648Y-51995335D01*
X139435740Y-51995239D01*
X139435859Y-51995186D01*
X139765276Y-51763319D01*
X140165090Y-51506559D01*
X140592969Y-51250724D01*
X140998678Y-51027243D01*
X143021629Y-49950296D01*
X143501544Y-49701183D01*
X144020092Y-49450287D01*
X144515140Y-49226469D01*
X144930319Y-49056226D01*
X145821213Y-48697914D01*
X145829784Y-48692314D01*
X145839786Y-48690125D01*
X146743117Y-48295576D01*
X147357386Y-48036116D01*
X147654261Y-47932478D01*
X147995747Y-47829584D01*
X148911090Y-47601047D01*
X148892031Y-47613782D01*
X148857737Y-47624396D01*
X148848877Y-47631751D01*
X148837980Y-47635523D01*
X147869417Y-48202487D01*
X147788191Y-48274586D01*
X147701824Y-48340443D01*
X147688842Y-48362772D01*
X147669530Y-48379914D01*
X147622078Y-48477607D01*
X147567488Y-48571504D01*
X147564040Y-48597097D01*
X147552756Y-48620328D01*
X147546302Y-48728741D01*
X147531799Y-48836384D01*
X147579049Y-49592336D01*
X147607880Y-49701250D01*
X147629858Y-49811742D01*
X147641897Y-49829760D01*
X147647443Y-49850710D01*
X147715755Y-49940297D01*
X147778347Y-50033972D01*
X147796366Y-50046012D01*
X147809506Y-50063244D01*
X147906899Y-50119868D01*
X148000577Y-50182461D01*
X148021833Y-50186689D01*
X148040567Y-50197581D01*
X148152216Y-50212624D01*
X148262715Y-50234604D01*
X159483890Y-50234604D01*
X159493647Y-50232663D01*
X159503459Y-50234325D01*
X159624384Y-50206658D01*
X159746028Y-50182461D01*
X159754301Y-50176933D01*
X159764000Y-50174714D01*
X159865123Y-50102884D01*
X159968258Y-50033972D01*
X159973786Y-50025699D01*
X159981898Y-50019937D01*
X160047837Y-49914873D01*
X160116747Y-49811742D01*
X160118688Y-49801983D01*
X160123977Y-49793556D01*
X160144689Y-49671271D01*
X160168890Y-49549604D01*
X160166949Y-49539845D01*
X160168610Y-49530036D01*
X160144980Y-48703212D01*
X160133351Y-48652384D01*
X160134211Y-48600245D01*
X160103819Y-48523305D01*
X160085370Y-48442671D01*
X160055175Y-48400161D01*
X160036017Y-48351663D01*
X159978497Y-48292214D01*
X159930593Y-48224773D01*
X159886426Y-48197053D01*
X159850169Y-48159580D01*
X158928853Y-47521745D01*
X158883188Y-47501941D01*
X158843796Y-47471522D01*
X158761694Y-47449252D01*
X158683645Y-47415404D01*
X158633880Y-47414583D01*
X158585843Y-47401553D01*
X153766646Y-47070824D01*
X153707826Y-47078384D01*
X153648777Y-47072903D01*
X149214001Y-47534859D01*
X150304296Y-47298523D01*
X150883787Y-47199856D01*
X151584817Y-47119385D01*
X152386937Y-47058223D01*
X153259372Y-47018172D01*
X154173204Y-47000441D01*
X155100212Y-47005986D01*
G36*
X153766790Y-109117725D02*
X153824642Y-109408564D01*
X153989389Y-109655126D01*
X158210499Y-113876235D01*
X158210499Y-115549281D01*
X158268351Y-115840120D01*
X158433098Y-116086682D01*
X158938805Y-116592389D01*
X158883402Y-116574112D01*
X158244430Y-116326753D01*
X157849577Y-116136671D01*
X157382171Y-115880676D01*
X156872953Y-115576595D01*
X156350099Y-115242165D01*
X155840176Y-114894738D01*
X155369631Y-114552024D01*
X154966362Y-114233489D01*
X154639982Y-113944137D01*
X154415866Y-113740424D01*
X154399643Y-113730669D01*
X154387575Y-113716082D01*
X154149867Y-113522572D01*
X154133770Y-113514050D01*
X154121443Y-113500647D01*
X153880043Y-113324325D01*
X153862967Y-113316401D01*
X153849493Y-113303256D01*
X153611141Y-113148230D01*
X153591545Y-113140396D01*
X153575571Y-113126604D01*
X153347007Y-112996984D01*
X153322385Y-112988837D01*
X153301544Y-112973403D01*
X153089506Y-112873295D01*
X153055118Y-112864707D01*
X153024626Y-112846635D01*
X152835855Y-112780145D01*
X152781481Y-112772355D01*
X152730384Y-112752209D01*
X152571618Y-112723449D01*
X152544993Y-112723906D01*
X152519540Y-112716067D01*
X152412182Y-112726183D01*
X152304383Y-112728032D01*
X152279960Y-112738643D01*
X152253445Y-112741141D01*
X152158139Y-112791567D01*
X152059244Y-112834531D01*
X152040738Y-112853683D01*
X152017201Y-112866136D01*
X151948446Y-112949196D01*
X151873522Y-113026735D01*
X151863755Y-113051508D01*
X151846773Y-113072023D01*
X151815036Y-113175074D01*
X151775489Y-113275380D01*
X151775946Y-113302005D01*
X151768107Y-113327458D01*
X151744677Y-113555468D01*
X151747498Y-113585404D01*
X151741172Y-113614800D01*
X151732572Y-114165835D01*
X151735880Y-114183938D01*
X151732967Y-114202105D01*
X151749097Y-114633733D01*
X151754621Y-114656937D01*
X151752471Y-114680692D01*
X151798921Y-115116863D01*
X151805821Y-115138978D01*
X151805277Y-115162140D01*
X151882527Y-115604593D01*
X151890487Y-115625164D01*
X151891370Y-115647207D01*
X151999891Y-116097682D01*
X152008549Y-116116424D01*
X152010599Y-116136962D01*
X152150873Y-116597198D01*
X152159857Y-116613953D01*
X152162778Y-116632742D01*
X152335281Y-117104478D01*
X152344268Y-117119237D01*
X152347767Y-117136158D01*
X152552976Y-117621134D01*
X152561700Y-117633978D01*
X152565520Y-117649027D01*
X152801093Y-118143069D01*
X153091186Y-118782629D01*
X153449959Y-119666568D01*
X153833396Y-120683042D01*
X154194444Y-121712375D01*
X154920681Y-123847597D01*
X154922086Y-123850027D01*
X154922477Y-123852810D01*
X155523058Y-125573036D01*
X155794298Y-126367179D01*
X155873621Y-126647827D01*
X155927401Y-126896338D01*
X155962288Y-127143222D01*
X155983041Y-127419661D01*
X155995648Y-128200328D01*
X155979487Y-128951985D01*
X155957700Y-129248451D01*
X155923555Y-129527818D01*
X155874516Y-129807937D01*
X155807680Y-130106663D01*
X155600276Y-130859377D01*
X155225680Y-132029813D01*
X155052233Y-132515775D01*
X154925108Y-132832702D01*
X154855409Y-132967151D01*
X154433467Y-132545209D01*
X154608957Y-132122582D01*
X154609369Y-131651160D01*
X154429343Y-131215465D01*
X154096288Y-130881828D01*
X153660908Y-130701043D01*
X153189486Y-130700631D01*
X153163146Y-130711514D01*
X153163146Y-125901213D01*
X153148746Y-125828818D01*
X153099586Y-125581673D01*
X152918581Y-125310779D01*
X151437367Y-123829566D01*
X151342831Y-123766399D01*
X151405000Y-123616309D01*
X151405000Y-123325750D01*
X151246250Y-123167000D01*
X150497000Y-123167000D01*
X150497000Y-123187000D01*
X150243000Y-123187000D01*
X150243000Y-123167000D01*
X149493750Y-123167000D01*
X149335000Y-123325750D01*
X149335000Y-123361894D01*
X146367080Y-120393974D01*
X146367080Y-117257948D01*
X148585000Y-119475868D01*
X148585000Y-120115331D01*
X148568559Y-120125910D01*
X148423569Y-120338110D01*
X148372560Y-120590000D01*
X148372560Y-121490000D01*
X148416838Y-121725317D01*
X148555910Y-121941441D01*
X148768110Y-122086431D01*
X149020000Y-122137440D01*
X149524534Y-122137440D01*
X149431673Y-122230302D01*
X149335000Y-122463691D01*
X149335000Y-122754250D01*
X149493750Y-122913000D01*
X150243000Y-122913000D01*
X150243000Y-122113750D01*
X150156988Y-122027738D01*
X150271441Y-121954090D01*
X150370633Y-121808917D01*
X150455910Y-121941441D01*
X150582686Y-122028064D01*
X150497000Y-122113750D01*
X150497000Y-122913000D01*
X151246250Y-122913000D01*
X151405000Y-122754250D01*
X151405000Y-122463691D01*
X151308327Y-122230302D01*
X151215466Y-122137440D01*
X151720000Y-122137440D01*
X151955317Y-122093162D01*
X152171441Y-121954090D01*
X152316431Y-121741890D01*
X152367440Y-121490000D01*
X152367440Y-120590000D01*
X152323162Y-120354683D01*
X152184090Y-120138559D01*
X152155000Y-120118683D01*
X152155000Y-119724730D01*
X152091439Y-119405189D01*
X151910434Y-119134296D01*
X149052307Y-116276169D01*
X149106661Y-116196620D01*
X149157670Y-115944730D01*
X149157670Y-113915270D01*
X149113392Y-113679953D01*
X148974320Y-113463829D01*
X148775000Y-113327640D01*
X148775000Y-112755868D01*
X150780435Y-110750434D01*
X150780437Y-110750431D01*
X151135868Y-110395000D01*
X152102000Y-110395000D01*
X152421541Y-110331439D01*
X152692434Y-110150434D01*
X153272434Y-109570434D01*
X153356631Y-109444424D01*
X153453439Y-109299541D01*
X153473060Y-109200898D01*
X153567317Y-109183162D01*
X153766790Y-109054805D01*
X153766790Y-109117725D01*
X153766790Y-109117725D01*
G37*
X153766790Y-109117725D02*
X153824642Y-109408564D01*
X153989389Y-109655126D01*
X158210499Y-113876235D01*
X158210499Y-115549281D01*
X158268351Y-115840120D01*
X158433098Y-116086682D01*
X158938805Y-116592389D01*
X158883402Y-116574112D01*
X158244430Y-116326753D01*
X157849577Y-116136671D01*
X157382171Y-115880676D01*
X156872953Y-115576595D01*
X156350099Y-115242165D01*
X155840176Y-114894738D01*
X155369631Y-114552024D01*
X154966362Y-114233489D01*
X154639982Y-113944137D01*
X154415866Y-113740424D01*
X154399643Y-113730669D01*
X154387575Y-113716082D01*
X154149867Y-113522572D01*
X154133770Y-113514050D01*
X154121443Y-113500647D01*
X153880043Y-113324325D01*
X153862967Y-113316401D01*
X153849493Y-113303256D01*
X153611141Y-113148230D01*
X153591545Y-113140396D01*
X153575571Y-113126604D01*
X153347007Y-112996984D01*
X153322385Y-112988837D01*
X153301544Y-112973403D01*
X153089506Y-112873295D01*
X153055118Y-112864707D01*
X153024626Y-112846635D01*
X152835855Y-112780145D01*
X152781481Y-112772355D01*
X152730384Y-112752209D01*
X152571618Y-112723449D01*
X152544993Y-112723906D01*
X152519540Y-112716067D01*
X152412182Y-112726183D01*
X152304383Y-112728032D01*
X152279960Y-112738643D01*
X152253445Y-112741141D01*
X152158139Y-112791567D01*
X152059244Y-112834531D01*
X152040738Y-112853683D01*
X152017201Y-112866136D01*
X151948446Y-112949196D01*
X151873522Y-113026735D01*
X151863755Y-113051508D01*
X151846773Y-113072023D01*
X151815036Y-113175074D01*
X151775489Y-113275380D01*
X151775946Y-113302005D01*
X151768107Y-113327458D01*
X151744677Y-113555468D01*
X151747498Y-113585404D01*
X151741172Y-113614800D01*
X151732572Y-114165835D01*
X151735880Y-114183938D01*
X151732967Y-114202105D01*
X151749097Y-114633733D01*
X151754621Y-114656937D01*
X151752471Y-114680692D01*
X151798921Y-115116863D01*
X151805821Y-115138978D01*
X151805277Y-115162140D01*
X151882527Y-115604593D01*
X151890487Y-115625164D01*
X151891370Y-115647207D01*
X151999891Y-116097682D01*
X152008549Y-116116424D01*
X152010599Y-116136962D01*
X152150873Y-116597198D01*
X152159857Y-116613953D01*
X152162778Y-116632742D01*
X152335281Y-117104478D01*
X152344268Y-117119237D01*
X152347767Y-117136158D01*
X152552976Y-117621134D01*
X152561700Y-117633978D01*
X152565520Y-117649027D01*
X152801093Y-118143069D01*
X153091186Y-118782629D01*
X153449959Y-119666568D01*
X153833396Y-120683042D01*
X154194444Y-121712375D01*
X154920681Y-123847597D01*
X154922086Y-123850027D01*
X154922477Y-123852810D01*
X155523058Y-125573036D01*
X155794298Y-126367179D01*
X155873621Y-126647827D01*
X155927401Y-126896338D01*
X155962288Y-127143222D01*
X155983041Y-127419661D01*
X155995648Y-128200328D01*
X155979487Y-128951985D01*
X155957700Y-129248451D01*
X155923555Y-129527818D01*
X155874516Y-129807937D01*
X155807680Y-130106663D01*
X155600276Y-130859377D01*
X155225680Y-132029813D01*
X155052233Y-132515775D01*
X154925108Y-132832702D01*
X154855409Y-132967151D01*
X154433467Y-132545209D01*
X154608957Y-132122582D01*
X154609369Y-131651160D01*
X154429343Y-131215465D01*
X154096288Y-130881828D01*
X153660908Y-130701043D01*
X153189486Y-130700631D01*
X153163146Y-130711514D01*
X153163146Y-125901213D01*
X153148746Y-125828818D01*
X153099586Y-125581673D01*
X152918581Y-125310779D01*
X151437367Y-123829566D01*
X151342831Y-123766399D01*
X151405000Y-123616309D01*
X151405000Y-123325750D01*
X151246250Y-123167000D01*
X150497000Y-123167000D01*
X150497000Y-123187000D01*
X150243000Y-123187000D01*
X150243000Y-123167000D01*
X149493750Y-123167000D01*
X149335000Y-123325750D01*
X149335000Y-123361894D01*
X146367080Y-120393974D01*
X146367080Y-117257948D01*
X148585000Y-119475868D01*
X148585000Y-120115331D01*
X148568559Y-120125910D01*
X148423569Y-120338110D01*
X148372560Y-120590000D01*
X148372560Y-121490000D01*
X148416838Y-121725317D01*
X148555910Y-121941441D01*
X148768110Y-122086431D01*
X149020000Y-122137440D01*
X149524534Y-122137440D01*
X149431673Y-122230302D01*
X149335000Y-122463691D01*
X149335000Y-122754250D01*
X149493750Y-122913000D01*
X150243000Y-122913000D01*
X150243000Y-122113750D01*
X150156988Y-122027738D01*
X150271441Y-121954090D01*
X150370633Y-121808917D01*
X150455910Y-121941441D01*
X150582686Y-122028064D01*
X150497000Y-122113750D01*
X150497000Y-122913000D01*
X151246250Y-122913000D01*
X151405000Y-122754250D01*
X151405000Y-122463691D01*
X151308327Y-122230302D01*
X151215466Y-122137440D01*
X151720000Y-122137440D01*
X151955317Y-122093162D01*
X152171441Y-121954090D01*
X152316431Y-121741890D01*
X152367440Y-121490000D01*
X152367440Y-120590000D01*
X152323162Y-120354683D01*
X152184090Y-120138559D01*
X152155000Y-120118683D01*
X152155000Y-119724730D01*
X152091439Y-119405189D01*
X151910434Y-119134296D01*
X149052307Y-116276169D01*
X149106661Y-116196620D01*
X149157670Y-115944730D01*
X149157670Y-113915270D01*
X149113392Y-113679953D01*
X148974320Y-113463829D01*
X148775000Y-113327640D01*
X148775000Y-112755868D01*
X150780435Y-110750434D01*
X150780437Y-110750431D01*
X151135868Y-110395000D01*
X152102000Y-110395000D01*
X152421541Y-110331439D01*
X152692434Y-110150434D01*
X153272434Y-109570434D01*
X153356631Y-109444424D01*
X153453439Y-109299541D01*
X153473060Y-109200898D01*
X153567317Y-109183162D01*
X153766790Y-109054805D01*
X153766790Y-109117725D01*
G36*
X152913673Y-65641492D02*
X153257201Y-65784138D01*
X153312201Y-65784186D01*
X153312201Y-75085294D01*
X153370053Y-75376133D01*
X153534800Y-75622695D01*
X153950704Y-76038599D01*
X153003003Y-76038599D01*
X152913117Y-75821057D01*
X152650327Y-75557808D01*
X152306799Y-75415162D01*
X151934833Y-75414838D01*
X151591057Y-75556883D01*
X151557882Y-75590000D01*
X150394000Y-75590000D01*
X150394000Y-69755163D01*
X150426192Y-69723027D01*
X150568838Y-69379499D01*
X150569162Y-69007533D01*
X150427117Y-68663757D01*
X150164327Y-68400508D01*
X150107875Y-68377067D01*
X150202349Y-68235676D01*
X150253746Y-67977290D01*
X152621736Y-65609300D01*
X152881537Y-65609300D01*
X152913673Y-65641492D01*
X152913673Y-65641492D01*
G37*
X152913673Y-65641492D02*
X153257201Y-65784138D01*
X153312201Y-65784186D01*
X153312201Y-75085294D01*
X153370053Y-75376133D01*
X153534800Y-75622695D01*
X153950704Y-76038599D01*
X153003003Y-76038599D01*
X152913117Y-75821057D01*
X152650327Y-75557808D01*
X152306799Y-75415162D01*
X151934833Y-75414838D01*
X151591057Y-75556883D01*
X151557882Y-75590000D01*
X150394000Y-75590000D01*
X150394000Y-69755163D01*
X150426192Y-69723027D01*
X150568838Y-69379499D01*
X150569162Y-69007533D01*
X150427117Y-68663757D01*
X150164327Y-68400508D01*
X150107875Y-68377067D01*
X150202349Y-68235676D01*
X150253746Y-67977290D01*
X152621736Y-65609300D01*
X152881537Y-65609300D01*
X152913673Y-65641492D01*
M02*
