%TF.GenerationSoftware,KiCad,Pcbnew,4.0.5+dfsg1-4*%
%TF.CreationDate,2019-11-28T21:25:46-08:00*%
%TF.ProjectId,VineBadge2020,56696E654261646765323032302E6B69,rev?*%
%TF.FileFunction,Copper,L2,Bot,Signal*%
%FSLAX46Y46*%
G04 Gerber Fmt 4.6, Leading zero omitted, Abs format (unit mm)*
G04 Created by KiCad (PCBNEW 4.0.5+dfsg1-4) date Thu Nov 28 21:25:46 2019*
%MOMM*%
%LPD*%
G01*
G04 APERTURE LIST*
%ADD10C,0.100000*%
%ADD11R,2.029460X1.140460*%
%ADD12R,1.500000X1.250000*%
%ADD13R,1.250000X1.500000*%
%ADD14R,1.500000X1.300000*%
%ADD15R,4.000000X5.100000*%
%ADD16C,16.500000*%
%ADD17R,0.600000X3.200000*%
%ADD18C,0.787400*%
%ADD19R,1.600000X4.000000*%
%ADD20R,2.500000X2.500000*%
%ADD21C,0.600000*%
%ADD22C,0.250000*%
%ADD23C,0.400000*%
%ADD24C,0.203200*%
%ADD25C,0.254000*%
G04 APERTURE END LIST*
D10*
X135672421Y-141921116D02*
X135025389Y-141832416D01*
X135025389Y-141832416D02*
X134316972Y-141718351D01*
X134316972Y-141718351D02*
X133585642Y-141585231D01*
X133585642Y-141585231D02*
X132869876Y-141439363D01*
X132869876Y-141439363D02*
X132208147Y-141287056D01*
X132208147Y-141287056D02*
X131638930Y-141134619D01*
X131638930Y-141134619D02*
X131200700Y-140988360D01*
X131200700Y-140988360D02*
X131042728Y-140919520D01*
X131042728Y-140919520D02*
X130931931Y-140854590D01*
X130931931Y-140854590D02*
X130797893Y-140794510D01*
X130797893Y-140794510D02*
X130553602Y-140712160D01*
X130553602Y-140712160D02*
X130267718Y-140631320D01*
X130267718Y-140631320D02*
X130008901Y-140575760D01*
X130008901Y-140575760D02*
X129460359Y-140467654D01*
X129460359Y-140467654D02*
X128893379Y-140315190D01*
X128893379Y-140315190D02*
X128306935Y-140121361D01*
X128306935Y-140121361D02*
X127699998Y-139889158D01*
X127699998Y-139889158D02*
X127071541Y-139621573D01*
X127071541Y-139621573D02*
X126420536Y-139321599D01*
X126420536Y-139321599D02*
X125046771Y-138636449D01*
X125046771Y-138636449D02*
X124535018Y-138351508D01*
X124535018Y-138351508D02*
X123927302Y-137981001D01*
X123927302Y-137981001D02*
X123265558Y-137553840D01*
X123265558Y-137553840D02*
X122591723Y-137098940D01*
X122591723Y-137098940D02*
X121947732Y-136645214D01*
X121947732Y-136645214D02*
X121375519Y-136221576D01*
X121375519Y-136221576D02*
X120917020Y-135856941D01*
X120917020Y-135856941D02*
X120614171Y-135580221D01*
X120614171Y-135580221D02*
X120315025Y-135250531D01*
X120315025Y-135250531D02*
X120010689Y-134889147D01*
X120010689Y-134889147D02*
X119392691Y-134081774D01*
X119392691Y-134081774D02*
X118772661Y-133179057D01*
X118772661Y-133179057D02*
X118163086Y-132201953D01*
X118163086Y-132201953D02*
X117576452Y-131171416D01*
X117576452Y-131171416D02*
X117025244Y-130108403D01*
X117025244Y-130108403D02*
X116521948Y-129033869D01*
X116521948Y-129033869D02*
X116079051Y-127968769D01*
X116079051Y-127968769D02*
X115813685Y-127192023D01*
X115813685Y-127192023D02*
X115637071Y-126644247D01*
X115637071Y-126644247D02*
X114851051Y-123923258D01*
X114851051Y-123923258D02*
X114704019Y-123377545D01*
X114704019Y-123377545D02*
X114557889Y-122744575D01*
X114557889Y-122744575D02*
X114413736Y-122030713D01*
X114413736Y-122030713D02*
X114272636Y-121242323D01*
X114272636Y-121242323D02*
X114003898Y-119467422D01*
X114003898Y-119467422D02*
X113760281Y-117470788D01*
X113760281Y-117470788D02*
X113659795Y-116333215D01*
X113659795Y-116333215D02*
X113601545Y-115157308D01*
X113601545Y-115157308D02*
X113585175Y-113952798D01*
X113585175Y-113952798D02*
X113610315Y-112729414D01*
X113610315Y-112729414D02*
X113676605Y-111496888D01*
X113676605Y-111496888D02*
X113783681Y-110264951D01*
X113783681Y-110264951D02*
X113931183Y-109043333D01*
X113931183Y-109043333D02*
X114118748Y-107841764D01*
X114118748Y-107841764D02*
X114297726Y-106737864D01*
X114297726Y-106737864D02*
X114343046Y-106392933D01*
X114343046Y-106392933D02*
X114348846Y-106255418D01*
X114348846Y-106255418D02*
X114258856Y-106255552D01*
X114258856Y-106255552D02*
X114043279Y-106285392D01*
X114043279Y-106285392D02*
X113364595Y-106413471D01*
X113364595Y-106413471D02*
X112974684Y-106483811D01*
X112974684Y-106483811D02*
X112605346Y-106526181D01*
X112605346Y-106526181D02*
X112252206Y-106540211D01*
X112252206Y-106540211D02*
X111910889Y-106525511D01*
X111910889Y-106525511D02*
X111577021Y-106481711D01*
X111577021Y-106481711D02*
X111246233Y-106408421D01*
X111246233Y-106408421D02*
X110914139Y-106305276D01*
X110914139Y-106305276D02*
X110576371Y-106171894D01*
X110576371Y-106171894D02*
X109765694Y-105841926D01*
X109765694Y-105841926D02*
X108675011Y-105421578D01*
X108675011Y-105421578D02*
X108077598Y-105172283D01*
X108077598Y-105172283D02*
X107404644Y-104851816D01*
X107404644Y-104851816D02*
X106738608Y-104501489D01*
X106738608Y-104501489D02*
X106161951Y-104162614D01*
X106161951Y-104162614D02*
X105038834Y-103465196D01*
X105038834Y-103465196D02*
X104055981Y-102875691D01*
X104055981Y-102875691D02*
X103661216Y-102634428D01*
X103661216Y-102634428D02*
X103207651Y-102337949D01*
X103207651Y-102337949D02*
X102252030Y-101671891D01*
X102252030Y-101671891D02*
X101444945Y-101062609D01*
X101444945Y-101062609D02*
X101177049Y-100837102D01*
X101177049Y-100837102D02*
X101042221Y-100695199D01*
X101042221Y-100695199D02*
X100838844Y-100431968D01*
X100838844Y-100431968D02*
X100480651Y-100008812D01*
X100480651Y-100008812D02*
X99980424Y-99419472D01*
X99980424Y-99419472D02*
X99495778Y-98816786D01*
X99495778Y-98816786D02*
X99027691Y-98202512D01*
X99027691Y-98202512D02*
X98577142Y-97578411D01*
X98577142Y-97578411D02*
X98145108Y-96946240D01*
X98145108Y-96946240D02*
X97732568Y-96307759D01*
X97732568Y-96307759D02*
X97340499Y-95664727D01*
X97340499Y-95664727D02*
X96969880Y-95018902D01*
X96969880Y-95018902D02*
X96621689Y-94372045D01*
X96621689Y-94372045D02*
X96296903Y-93725913D01*
X96296903Y-93725913D02*
X95996501Y-93082265D01*
X95996501Y-93082265D02*
X95721461Y-92442861D01*
X95721461Y-92442861D02*
X95472761Y-91809460D01*
X95472761Y-91809460D02*
X95251379Y-91183821D01*
X95251379Y-91183821D02*
X95058293Y-90567702D01*
X95058293Y-90567702D02*
X94894481Y-89962863D01*
X94894481Y-89962863D02*
X94664032Y-88980819D01*
X94664032Y-88980819D02*
X94588655Y-88589558D01*
X94588655Y-88589558D02*
X94535796Y-88231601D01*
X94535796Y-88231601D02*
X94502420Y-87882044D01*
X94502420Y-87882044D02*
X94485492Y-87515985D01*
X94485492Y-87515985D02*
X94488842Y-86634746D01*
X94488842Y-86634746D02*
X94505910Y-86206974D01*
X94505910Y-86206974D02*
X94538714Y-85765193D01*
X94538714Y-85765193D02*
X94649137Y-84849041D01*
X94649137Y-84849041D02*
X94815327Y-83905170D01*
X94815327Y-83905170D02*
X95032496Y-82952456D01*
X95032496Y-82952456D02*
X95295859Y-82009779D01*
X95295859Y-82009779D02*
X95600631Y-81096017D01*
X95600631Y-81096017D02*
X95942024Y-80230049D01*
X95942024Y-80230049D02*
X96315252Y-79430753D01*
X96315252Y-79430753D02*
X96833894Y-78479280D01*
X96833894Y-78479280D02*
X97459502Y-77437775D01*
X97459502Y-77437775D02*
X98162589Y-76348061D01*
X98162589Y-76348061D02*
X98913665Y-75251963D01*
X98913665Y-75251963D02*
X99683243Y-74191303D01*
X99683243Y-74191303D02*
X100441834Y-73207905D01*
X100441834Y-73207905D02*
X101159950Y-72343594D01*
X101159950Y-72343594D02*
X101494615Y-71969165D01*
X101494615Y-71969165D02*
X101808102Y-71640192D01*
X101808102Y-71640192D02*
X102240961Y-71215205D01*
X102240961Y-71215205D02*
X102696539Y-70790775D01*
X102696539Y-70790775D02*
X103668570Y-69948664D01*
X103668570Y-69948664D02*
X104709627Y-69124019D01*
X104709627Y-69124019D02*
X105805147Y-68327000D01*
X105805147Y-68327000D02*
X106940563Y-67567770D01*
X106940563Y-67567770D02*
X108101310Y-66856487D01*
X108101310Y-66856487D02*
X109272822Y-66203313D01*
X109272822Y-66203313D02*
X109858062Y-65901692D01*
X109858062Y-65901692D02*
X110440532Y-65618409D01*
X110440532Y-65618409D02*
X114018287Y-63948449D01*
X114018287Y-63948449D02*
X115151995Y-63435895D01*
X115151995Y-63435895D02*
X115905842Y-63112190D01*
X115905842Y-63112190D02*
X117715072Y-62319111D01*
X117715072Y-62319111D02*
X117940699Y-62261661D01*
X117940699Y-62261661D02*
X118348877Y-62105243D01*
X118348877Y-62105243D02*
X118881660Y-61873744D01*
X118881660Y-61873744D02*
X119481102Y-61591054D01*
X119481102Y-61591054D02*
X120187159Y-61258905D01*
X120187159Y-61258905D02*
X121010244Y-60892740D01*
X121010244Y-60892740D02*
X121848071Y-60537016D01*
X121848071Y-60537016D02*
X122598352Y-60236189D01*
X122598352Y-60236189D02*
X124268352Y-59579254D01*
X124268352Y-59579254D02*
X125994392Y-58880015D01*
X125994392Y-58880015D02*
X129526272Y-57426082D01*
X129526272Y-57426082D02*
X130254829Y-57114893D01*
X130254829Y-57114893D02*
X130933081Y-56803220D01*
X130933081Y-56803220D02*
X131485256Y-56527252D01*
X131485256Y-56527252D02*
X131835582Y-56323178D01*
X131835582Y-56323178D02*
X133780972Y-55022769D01*
X133780972Y-55022769D02*
X135102206Y-54125923D01*
X135102206Y-54125923D02*
X136309972Y-53264503D01*
X136309972Y-53264503D02*
X137240639Y-52604256D01*
X137240639Y-52604256D02*
X137628618Y-52349178D01*
X137628618Y-52349178D02*
X137895652Y-52191091D01*
X137895652Y-52191091D02*
X138421495Y-51871149D01*
X138421495Y-51871149D02*
X139041582Y-51435034D01*
X139041582Y-51435034D02*
X139382873Y-51194808D01*
X139382873Y-51194808D02*
X139804131Y-50924276D01*
X139804131Y-50924276D02*
X140251839Y-50656584D01*
X140251839Y-50656584D02*
X140672482Y-50424877D01*
X140672482Y-50424877D02*
X142702902Y-49343954D01*
X142702902Y-49343954D02*
X143194531Y-49088761D01*
X143194531Y-49088761D02*
X143729778Y-48829785D01*
X143729778Y-48829785D02*
X144244013Y-48597293D01*
X144244013Y-48597293D02*
X144672602Y-48421551D01*
X144672602Y-48421551D02*
X145565609Y-48062389D01*
X145565609Y-48062389D02*
X146472702Y-47666197D01*
X146472702Y-47666197D02*
X147110982Y-47396595D01*
X147110982Y-47396595D02*
X147442464Y-47280875D01*
X147442464Y-47280875D02*
X147813871Y-47168966D01*
X147813871Y-47168966D02*
X148771548Y-46929859D01*
X148771548Y-46929859D02*
X150174192Y-46625817D01*
X150174192Y-46625817D02*
X150787157Y-46521450D01*
X150787157Y-46521450D02*
X151519688Y-46437363D01*
X151519688Y-46437363D02*
X152345180Y-46374419D01*
X152345180Y-46374419D02*
X153237027Y-46333477D01*
X153237027Y-46333477D02*
X154168622Y-46315401D01*
X154168622Y-46315401D02*
X155113358Y-46321052D01*
X155113358Y-46321052D02*
X156044630Y-46351288D01*
X156044630Y-46351288D02*
X156935832Y-46406972D01*
X156935832Y-46406972D02*
X158030677Y-46505703D01*
X158030677Y-46505703D02*
X158430722Y-46561768D01*
X158430722Y-46561768D02*
X158784188Y-46635137D01*
X158784188Y-46635137D02*
X159129828Y-46735436D01*
X159129828Y-46735436D02*
X159506397Y-46872292D01*
X159506397Y-46872292D02*
X160507332Y-47294180D01*
X160507332Y-47294180D02*
X161212581Y-47617127D01*
X161212581Y-47617127D02*
X161875998Y-47950792D01*
X161875998Y-47950792D02*
X162423040Y-48255839D01*
X162423040Y-48255839D02*
X162779162Y-48492935D01*
X162779162Y-48492935D02*
X163362461Y-48922885D01*
X163362461Y-48922885D02*
X163962102Y-49309754D01*
X163962102Y-49309754D02*
X164450714Y-49629753D01*
X164450714Y-49629753D02*
X164996024Y-50048763D01*
X164996024Y-50048763D02*
X165580192Y-50549475D01*
X165580192Y-50549475D02*
X166185377Y-51114581D01*
X166185377Y-51114581D02*
X166793738Y-51726774D01*
X166793738Y-51726774D02*
X167387434Y-52368745D01*
X167387434Y-52368745D02*
X167948626Y-53023188D01*
X167948626Y-53023188D02*
X168459472Y-53672791D01*
X168459472Y-53672791D02*
X168994275Y-54417591D01*
X168994275Y-54417591D02*
X169499247Y-55184442D01*
X169499247Y-55184442D02*
X169980831Y-55985647D01*
X169980831Y-55985647D02*
X170445468Y-56833507D01*
X170445468Y-56833507D02*
X170899600Y-57740326D01*
X170899600Y-57740326D02*
X171349669Y-58718406D01*
X171349669Y-58718406D02*
X171802115Y-59780048D01*
X171802115Y-59780048D02*
X172263382Y-60937557D01*
X172263382Y-60937557D02*
X172791802Y-62222823D01*
X172791802Y-62222823D02*
X172828622Y-62365942D01*
X172828622Y-62365942D02*
X172928868Y-62659131D01*
X172928868Y-62659131D02*
X173258404Y-63524840D01*
X173258404Y-63524840D02*
X173463200Y-64065459D01*
X173463200Y-64065459D02*
X173675901Y-64671436D01*
X173675901Y-64671436D02*
X173871371Y-65268671D01*
X173871371Y-65268671D02*
X174024474Y-65783067D01*
X174024474Y-65783067D02*
X174208932Y-66367614D01*
X174208932Y-66367614D02*
X174489788Y-67155853D01*
X174489788Y-67155853D02*
X174828864Y-68044517D01*
X174828864Y-68044517D02*
X175187984Y-68930334D01*
X175187984Y-68930334D02*
X175798198Y-70412535D01*
X175798198Y-70412535D02*
X176052004Y-71082605D01*
X176052004Y-71082605D02*
X176155974Y-71326088D01*
X176155974Y-71326088D02*
X176435830Y-71887277D01*
X176435830Y-71887277D02*
X177330868Y-73600482D01*
X177330868Y-73600482D02*
X178352459Y-75497635D01*
X178352459Y-75497635D02*
X179115944Y-76854153D01*
X179115944Y-76854153D02*
X179668284Y-77833061D01*
X179668284Y-77833061D02*
X180138844Y-78755936D01*
X180138844Y-78755936D02*
X181412864Y-81404844D01*
X181412864Y-81404844D02*
X182985844Y-84665039D01*
X182985844Y-84665039D02*
X183286066Y-85277387D01*
X183286066Y-85277387D02*
X183577706Y-85840069D01*
X183577706Y-85840069D02*
X183827426Y-86290681D01*
X183827426Y-86290681D02*
X184001884Y-86566822D01*
X184001884Y-86566822D02*
X184153504Y-86792901D01*
X184153504Y-86792901D02*
X184341034Y-87107208D01*
X184341034Y-87107208D02*
X184728467Y-87834163D01*
X184728467Y-87834163D02*
X185103771Y-88550099D01*
X185103771Y-88550099D02*
X185413757Y-89063991D01*
X185413757Y-89063991D02*
X185577393Y-89324994D01*
X185577393Y-89324994D02*
X185828167Y-89762119D01*
X185828167Y-89762119D02*
X186454527Y-90921006D01*
X186454527Y-90921006D02*
X187145858Y-92190670D01*
X187145858Y-92190670D02*
X187466961Y-92747707D01*
X187466961Y-92747707D02*
X187716477Y-93155138D01*
X187716477Y-93155138D02*
X188160300Y-93878038D01*
X188160300Y-93878038D02*
X188535434Y-94575716D01*
X188535434Y-94575716D02*
X188844938Y-95257710D01*
X188844938Y-95257710D02*
X189091870Y-95933558D01*
X189091870Y-95933558D02*
X189279285Y-96612799D01*
X189279285Y-96612799D02*
X189410243Y-97304971D01*
X189410243Y-97304971D02*
X189487803Y-98019611D01*
X189487803Y-98019611D02*
X189515023Y-98766259D01*
X189515023Y-98766259D02*
X189493933Y-99715172D01*
X189493933Y-99715172D02*
X189426633Y-100723241D01*
X189426633Y-100723241D02*
X189318334Y-101757609D01*
X189318334Y-101757609D02*
X189174238Y-102785419D01*
X189174238Y-102785419D02*
X188999551Y-103773813D01*
X188999551Y-103773813D02*
X188799478Y-104689933D01*
X188799478Y-104689933D02*
X188579226Y-105500922D01*
X188579226Y-105500922D02*
X188463159Y-105856724D01*
X188463159Y-105856724D02*
X188343999Y-106173921D01*
X188343999Y-106173921D02*
X188200028Y-106502067D01*
X188200028Y-106502067D02*
X188026643Y-106851137D01*
X188026643Y-106851137D02*
X187596293Y-107605852D01*
X187596293Y-107605852D02*
X187062266Y-108425670D01*
X187062266Y-108425670D02*
X186433879Y-109298192D01*
X186433879Y-109298192D02*
X185720449Y-110211023D01*
X185720449Y-110211023D02*
X184931293Y-111151764D01*
X184931293Y-111151764D02*
X184075730Y-112108020D01*
X184075730Y-112108020D02*
X183163076Y-113067393D01*
X183163076Y-113067393D02*
X182346514Y-113880224D01*
X182346514Y-113880224D02*
X181604227Y-114572113D01*
X181604227Y-114572113D02*
X180911982Y-115160019D01*
X180911982Y-115160019D02*
X180245546Y-115660900D01*
X180245546Y-115660900D02*
X179580687Y-116091716D01*
X179580687Y-116091716D02*
X178893172Y-116469426D01*
X178893172Y-116469426D02*
X178158769Y-116810988D01*
X178158769Y-116810988D02*
X177353246Y-117133362D01*
X177353246Y-117133362D02*
X176602872Y-117382243D01*
X176602872Y-117382243D02*
X175640622Y-117653449D01*
X175640622Y-117653449D02*
X174542385Y-117930344D01*
X174542385Y-117930344D02*
X173384047Y-118196296D01*
X173384047Y-118196296D02*
X172241498Y-118434671D01*
X172241498Y-118434671D02*
X171190624Y-118628834D01*
X171190624Y-118628834D02*
X170307314Y-118762153D01*
X170307314Y-118762153D02*
X169952211Y-118800793D01*
X169952211Y-118800793D02*
X169667456Y-118817993D01*
X169667456Y-118817993D02*
X169192006Y-118829133D01*
X169192006Y-118829133D02*
X168141412Y-118936329D01*
X168141412Y-118936329D02*
X168060232Y-118948559D01*
X168060232Y-118948559D02*
X168093212Y-118949260D01*
X168093212Y-118949260D02*
X168109872Y-118949055D01*
X168109872Y-118949055D02*
X168103872Y-118950455D01*
X168103872Y-118950455D02*
X167955833Y-118964245D01*
X167955833Y-118964245D02*
X166637799Y-119077707D01*
X166637799Y-119077707D02*
X165959631Y-119079907D01*
X165959631Y-119079907D02*
X165275066Y-119046167D01*
X165275066Y-119046167D02*
X164588385Y-118977187D01*
X164588385Y-118977187D02*
X163903874Y-118873733D01*
X163903874Y-118873733D02*
X163225814Y-118736559D01*
X163225814Y-118736559D02*
X162558490Y-118566420D01*
X162558490Y-118566420D02*
X161906184Y-118364073D01*
X161906184Y-118364073D02*
X161273179Y-118130275D01*
X161273179Y-118130275D02*
X160294503Y-117763143D01*
X160294503Y-117763143D02*
X159411399Y-117469600D01*
X159411399Y-117469600D02*
X158652305Y-117219187D01*
X158652305Y-117219187D02*
X157971789Y-116955745D01*
X157971789Y-116955745D02*
X157536274Y-116746088D01*
X157536274Y-116746088D02*
X157041934Y-116475342D01*
X157041934Y-116475342D02*
X156512730Y-116159326D01*
X156512730Y-116159326D02*
X155972623Y-115813860D01*
X155972623Y-115813860D02*
X155445575Y-115454766D01*
X155445575Y-115454766D02*
X154955547Y-115097861D01*
X154955547Y-115097861D02*
X154526502Y-114758967D01*
X154526502Y-114758967D02*
X154182399Y-114453903D01*
X154182399Y-114453903D02*
X153955120Y-114247314D01*
X153955120Y-114247314D02*
X153717411Y-114053804D01*
X153717411Y-114053804D02*
X153476011Y-113877483D01*
X153476011Y-113877483D02*
X153237659Y-113722457D01*
X153237659Y-113722457D02*
X153009095Y-113592837D01*
X153009095Y-113592837D02*
X152797057Y-113492729D01*
X152797057Y-113492729D02*
X152608285Y-113426239D01*
X152608285Y-113426239D02*
X152449519Y-113397479D01*
X152449519Y-113397479D02*
X152426089Y-113625489D01*
X152426089Y-113625489D02*
X152417489Y-114176524D01*
X152417489Y-114176524D02*
X152433619Y-114608153D01*
X152433619Y-114608153D02*
X152480069Y-115044325D01*
X152480069Y-115044325D02*
X152557319Y-115486778D01*
X152557319Y-115486778D02*
X152665840Y-115937253D01*
X152665840Y-115937253D02*
X152806114Y-116397489D01*
X152806114Y-116397489D02*
X152978617Y-116869225D01*
X152978617Y-116869225D02*
X153183826Y-117354201D01*
X153183826Y-117354201D02*
X153422218Y-117854155D01*
X153422218Y-117854155D02*
X153720709Y-118512229D01*
X153720709Y-118512229D02*
X154087877Y-119416851D01*
X154087877Y-119416851D02*
X154477138Y-120448765D01*
X154477138Y-120448765D02*
X154841908Y-121488710D01*
X154841908Y-121488710D02*
X155569196Y-123627022D01*
X155569196Y-123627022D02*
X156170558Y-125349489D01*
X156170558Y-125349489D02*
X156448477Y-126163185D01*
X156448477Y-126163185D02*
X156538607Y-126482071D01*
X156538607Y-126482071D02*
X156602177Y-126775825D01*
X156602177Y-126775825D02*
X156643687Y-127069579D01*
X156643687Y-127069579D02*
X156667627Y-127388464D01*
X156667627Y-127388464D02*
X156680767Y-128202160D01*
X156680767Y-128202160D02*
X156663947Y-128984474D01*
X156663947Y-128984474D02*
X156639647Y-129315129D01*
X156639647Y-129315129D02*
X156601347Y-129628497D01*
X156601347Y-129628497D02*
X156546487Y-129941866D01*
X156546487Y-129941866D02*
X156472507Y-130272520D01*
X156472507Y-130272520D02*
X156256947Y-131054834D01*
X156256947Y-131054834D02*
X155874629Y-132249401D01*
X155874629Y-132249401D02*
X155692925Y-132758497D01*
X155692925Y-132758497D02*
X155548517Y-133118513D01*
X155548517Y-133118513D02*
X155376165Y-133450975D01*
X155376165Y-133450975D02*
X155130331Y-133854613D01*
X155130331Y-133854613D02*
X154829017Y-134305055D01*
X154829017Y-134305055D02*
X154490222Y-134777927D01*
X154490222Y-134777927D02*
X154131948Y-135248859D01*
X154131948Y-135248859D02*
X153772195Y-135693477D01*
X153772195Y-135693477D02*
X153428965Y-136087409D01*
X153428965Y-136087409D02*
X153120257Y-136406284D01*
X153120257Y-136406284D02*
X152567507Y-136935363D01*
X152567507Y-136935363D02*
X152284692Y-137187555D01*
X152284692Y-137187555D02*
X151907407Y-137385403D01*
X151907407Y-137385403D02*
X150225707Y-138482255D01*
X150225707Y-138482255D02*
X148897874Y-139333482D01*
X148897874Y-139333482D02*
X148401704Y-139619264D01*
X148401704Y-139619264D02*
X147934773Y-139848527D01*
X147934773Y-139848527D02*
X147435139Y-140048802D01*
X147435139Y-140048802D02*
X146840859Y-140247614D01*
X146840859Y-140247614D02*
X145120587Y-140750964D01*
X145120587Y-140750964D02*
X143322725Y-141243252D01*
X143322725Y-141243252D02*
X142594868Y-141419092D01*
X142594868Y-141419092D02*
X141935743Y-141556651D01*
X141935743Y-141556651D02*
X141311361Y-141662372D01*
X141311361Y-141662372D02*
X140687731Y-141742692D01*
X140687731Y-141742692D02*
X140030866Y-141804062D01*
X140030866Y-141804062D02*
X139306777Y-141852922D01*
X139306777Y-141852922D02*
X137269147Y-141982671D01*
X137269147Y-141982671D02*
X136933020Y-141993481D01*
X136933020Y-141993481D02*
X136519912Y-141985381D01*
X136519912Y-141985381D02*
X136082219Y-141960521D01*
X136082219Y-141960521D02*
X135672337Y-141920931D01*
X135672337Y-141920931D02*
X135672377Y-141920992D01*
X135672377Y-141920992D02*
X135672421Y-141921116D01*
X149184032Y-48226688D02*
X153719747Y-47754217D01*
X153719747Y-47754217D02*
X158538944Y-48084946D01*
X158538944Y-48084946D02*
X159460260Y-48722781D01*
X159460260Y-48722781D02*
X159483890Y-49549604D01*
X159483890Y-49549604D02*
X148262715Y-49549604D01*
X148262715Y-49549604D02*
X148215465Y-48793652D01*
X148215465Y-48793652D02*
X149184028Y-48226688D01*
X149184028Y-48226688D02*
X149184032Y-48226688D01*
D11*
X153416000Y-125796040D03*
X153416000Y-128203960D03*
D10*
G36*
X151585619Y-120700548D02*
X152525311Y-120358528D01*
X152867331Y-121298220D01*
X151927639Y-121640240D01*
X151585619Y-120700548D01*
X151585619Y-120700548D01*
G37*
G36*
X152440669Y-123049780D02*
X153380361Y-122707760D01*
X153722381Y-123647452D01*
X152782689Y-123989472D01*
X152440669Y-123049780D01*
X152440669Y-123049780D01*
G37*
D12*
X149118000Y-110998000D03*
X151618000Y-110998000D03*
D13*
X157734000Y-105898000D03*
X157734000Y-103398000D03*
D10*
G36*
X154519457Y-109464695D02*
X155438695Y-108545457D01*
X156499355Y-109606117D01*
X155580117Y-110525355D01*
X154519457Y-109464695D01*
X154519457Y-109464695D01*
G37*
G36*
X156428645Y-111373883D02*
X157347883Y-110454645D01*
X158408543Y-111515305D01*
X157489305Y-112434543D01*
X156428645Y-111373883D01*
X156428645Y-111373883D01*
G37*
D14*
X146130000Y-103670000D03*
X143430000Y-103670000D03*
D15*
X121299200Y-127304800D03*
X145299200Y-127304800D03*
D16*
X133299200Y-127304800D03*
D17*
X155984000Y-99160000D03*
X155984000Y-104160000D03*
X154714000Y-99160000D03*
X154714000Y-104160000D03*
X153444000Y-99160000D03*
X153444000Y-104160000D03*
X152174000Y-99160000D03*
X152174000Y-104160000D03*
X150904000Y-99160000D03*
X150904000Y-104160000D03*
X149634000Y-99160000D03*
X149634000Y-104160000D03*
X148364000Y-99160000D03*
X148364000Y-104160000D03*
D18*
X166624000Y-115824000D03*
X165354000Y-115824000D03*
X164084000Y-115824000D03*
X162814000Y-115824000D03*
X161544000Y-115824000D03*
X161544000Y-114554000D03*
X162814000Y-114554000D03*
X164084000Y-114554000D03*
X165354000Y-114554000D03*
X166624000Y-114554000D03*
D19*
X129489200Y-80940800D03*
X129489200Y-89340800D03*
D20*
X163000000Y-106000000D03*
X168000000Y-106000000D03*
X173000000Y-106000000D03*
D10*
G36*
X150764445Y-130138804D02*
X152532212Y-131906571D01*
X151825105Y-132613678D01*
X150057338Y-130845911D01*
X150764445Y-130138804D01*
X150764445Y-130138804D01*
G37*
G36*
X148996678Y-131906571D02*
X150764445Y-133674338D01*
X150057338Y-134381445D01*
X148289571Y-132613678D01*
X148996678Y-131906571D01*
X148996678Y-131906571D01*
G37*
G36*
X147228911Y-133674338D02*
X148996678Y-135442105D01*
X148289571Y-136149212D01*
X146521804Y-134381445D01*
X147228911Y-133674338D01*
X147228911Y-133674338D01*
G37*
G36*
X149774495Y-136219922D02*
X151542262Y-137987689D01*
X150835155Y-138694796D01*
X149067388Y-136927029D01*
X149774495Y-136219922D01*
X149774495Y-136219922D01*
G37*
G36*
X151542262Y-134452155D02*
X153310029Y-136219922D01*
X152602922Y-136927029D01*
X150835155Y-135159262D01*
X151542262Y-134452155D01*
X151542262Y-134452155D01*
G37*
G36*
X153310029Y-132684388D02*
X155077796Y-134452155D01*
X154370689Y-135159262D01*
X152602922Y-133391495D01*
X153310029Y-132684388D01*
X153310029Y-132684388D01*
G37*
D21*
X155984000Y-103660000D03*
X152682000Y-108230000D03*
X165023800Y-112318800D03*
X160350200Y-104038400D03*
X157835600Y-104292400D03*
X152069800Y-73736200D03*
X157200600Y-74066400D03*
X104775000Y-79222600D03*
X165354000Y-114554000D03*
X158016000Y-95220000D03*
X153110795Y-89210795D03*
X172099300Y-89130000D03*
X153444000Y-64849300D03*
X143720000Y-74450000D03*
X142349300Y-74380000D03*
X126520000Y-95354700D03*
X155730000Y-95220000D03*
X126012000Y-98402700D03*
X125504000Y-102949300D03*
X154940000Y-93790000D03*
X153365799Y-93790000D03*
X160130000Y-97840000D03*
X165290000Y-102110000D03*
X110249300Y-82750000D03*
X148872000Y-67643300D03*
X158849300Y-79380000D03*
X124996000Y-104498700D03*
X124488000Y-109045300D03*
X154968000Y-62055300D03*
X166349300Y-83630000D03*
X135410000Y-101450700D03*
X136426000Y-96853300D03*
X138098600Y-74130000D03*
X149570000Y-93140000D03*
X147810000Y-92420000D03*
X148872000Y-95219999D03*
X149634000Y-69192700D03*
X149101400Y-76130000D03*
X152120000Y-76350000D03*
X135120000Y-73860000D03*
X134902000Y-104498700D03*
X135918000Y-98402700D03*
X118480000Y-82550000D03*
X121130000Y-90859806D03*
X167020000Y-97870000D03*
X146586000Y-95220000D03*
X139874264Y-96081800D03*
X139970000Y-93880000D03*
X115600700Y-78880000D03*
X128100000Y-74880000D03*
X175046700Y-95850000D03*
X118480000Y-78410000D03*
X138436165Y-101205835D03*
X134394000Y-107546700D03*
X143967200Y-98120200D03*
X157226000Y-96351411D03*
X148336000Y-105918000D03*
X172850700Y-92380000D03*
X161351400Y-81130000D03*
X147830000Y-69310000D03*
X158016000Y-56467300D03*
X140722165Y-98919835D03*
X138436165Y-103702165D03*
X149634000Y-104160000D03*
X154849300Y-77380000D03*
X119600700Y-77380000D03*
X140722165Y-105988165D03*
X168000000Y-106000000D03*
X164084000Y-114554000D03*
X130810000Y-95750000D03*
X133140000Y-99040000D03*
D22*
X155984000Y-107145868D02*
X157321532Y-108483400D01*
X157321532Y-108483400D02*
X162814000Y-113975868D01*
X157418594Y-111444594D02*
X157948923Y-110914265D01*
X157948923Y-110914265D02*
X157948923Y-109110791D01*
X157948923Y-109110791D02*
X157321532Y-108483400D01*
D23*
X143430000Y-103670000D02*
X143430000Y-104720000D01*
X143430000Y-104720000D02*
X148429000Y-109719000D01*
X148429000Y-109719000D02*
X149880000Y-109719000D01*
X152226475Y-120999384D02*
X149880000Y-118652909D01*
X149118000Y-110998000D02*
X149626000Y-110998000D01*
X149626000Y-110998000D02*
X149880000Y-110744000D01*
X150887000Y-108712000D02*
X152200000Y-108712000D01*
X152200000Y-108712000D02*
X152682000Y-108230000D01*
X149880000Y-110744000D02*
X149880000Y-109719000D01*
X149880000Y-109719000D02*
X150887000Y-108712000D01*
X149880000Y-110744000D02*
X149880000Y-118652909D01*
D22*
X157734000Y-105898000D02*
X157734000Y-105360000D01*
X157734000Y-105360000D02*
X156534000Y-104160000D01*
X156534000Y-104160000D02*
X155984000Y-104160000D01*
X155984000Y-103660000D02*
X155984000Y-107145868D01*
X162814000Y-113975868D02*
X162814000Y-114554000D01*
X162839400Y-103632000D02*
X164820600Y-103632000D01*
X164820600Y-103632000D02*
X174269400Y-103632000D01*
X165023800Y-112318800D02*
X165023800Y-103835200D01*
X165023800Y-103835200D02*
X164820600Y-103632000D01*
X160350200Y-104038400D02*
X160756600Y-103632000D01*
X160756600Y-103632000D02*
X162839400Y-103632000D01*
X157734000Y-103398000D02*
X157734000Y-104190800D01*
X157734000Y-104190800D02*
X157835600Y-104292400D01*
X175268199Y-87358799D02*
X161975800Y-74066400D01*
X161975800Y-74066400D02*
X157200600Y-74066400D01*
X178587400Y-91821000D02*
X175268199Y-88501799D01*
X175268199Y-88501799D02*
X175268199Y-87358799D01*
X178587400Y-99314000D02*
X178587400Y-91821000D01*
X174269400Y-103632000D02*
X178587400Y-99314000D01*
X158367400Y-99160000D02*
X162839400Y-103632000D01*
X155984000Y-99160000D02*
X158367400Y-99160000D01*
X129489200Y-80940800D02*
X129489200Y-82140800D01*
X129489200Y-82140800D02*
X128439200Y-83190800D01*
X128439200Y-83190800D02*
X111619838Y-83190800D01*
X111619838Y-83190800D02*
X107651638Y-79222600D01*
X107651638Y-79222600D02*
X104775000Y-79222600D01*
X125049201Y-114355801D02*
X101219000Y-90525600D01*
X133299200Y-127304800D02*
X125049201Y-119054801D01*
X125049201Y-119054801D02*
X125049201Y-114355801D01*
X155984000Y-99660000D02*
X161630000Y-99660000D01*
X154714000Y-99160000D02*
X154714000Y-97310000D01*
X154714000Y-97310000D02*
X156804000Y-95220000D01*
X156804000Y-95220000D02*
X157591736Y-95220000D01*
X157591736Y-95220000D02*
X158016000Y-95220000D01*
X146170000Y-74450000D02*
X147160000Y-74450000D01*
X143720000Y-74450000D02*
X146170000Y-74450000D01*
D24*
X152425199Y-76954801D02*
X149000000Y-76954801D01*
X146170000Y-74450000D02*
X146495199Y-74450000D01*
X146495199Y-74450000D02*
X149000000Y-76954801D01*
D22*
X147160000Y-74450000D02*
X147170000Y-74460000D01*
X147170000Y-74460000D02*
X149005799Y-72624201D01*
X149005799Y-72624201D02*
X149005799Y-68439239D01*
X149005799Y-68439239D02*
X149500201Y-67944837D01*
X152306934Y-64849300D02*
X153444000Y-64849300D01*
X149500201Y-67944837D02*
X149500201Y-67656033D01*
X149500201Y-67656033D02*
X152306934Y-64849300D01*
D24*
X126520000Y-95354700D02*
X127121980Y-95354700D01*
X139406410Y-93473590D02*
X139604801Y-93275199D01*
X127121980Y-95354700D02*
X129003090Y-93473590D01*
X129003090Y-93473590D02*
X139406410Y-93473590D01*
X148774894Y-90560000D02*
X151761590Y-90560000D01*
X139604801Y-93275199D02*
X146059695Y-93275199D01*
X146059695Y-93275199D02*
X148774894Y-90560000D01*
X151761590Y-90560000D02*
X153110795Y-89210795D01*
X153110795Y-89210795D02*
X153110795Y-88786531D01*
X155139605Y-76775199D02*
X152604801Y-76775199D01*
X153110795Y-88786531D02*
X155454101Y-86443225D01*
X155454101Y-77089695D02*
X155139605Y-76775199D01*
X155454101Y-86443225D02*
X155454101Y-77089695D01*
X152604801Y-76775199D02*
X152425199Y-76954801D01*
D22*
X158016000Y-95220000D02*
X166009300Y-95220000D01*
X166009300Y-95220000D02*
X172099300Y-89130000D01*
X143720000Y-74450000D02*
X142419300Y-74450000D01*
X142419300Y-74450000D02*
X142349300Y-74380000D01*
X154714000Y-99660000D02*
X154714000Y-98310000D01*
X153444000Y-99160000D02*
X153444000Y-97506000D01*
X153444000Y-97506000D02*
X155430001Y-95519999D01*
X155430001Y-95519999D02*
X155730000Y-95220000D01*
X125504000Y-102949300D02*
X125504000Y-98910700D01*
X125504000Y-98910700D02*
X126012000Y-98402700D01*
X153444000Y-98860000D02*
X153444000Y-99660000D01*
X152174000Y-99160000D02*
X152174000Y-96552471D01*
X152174000Y-96552471D02*
X154936471Y-93790000D01*
X154936471Y-93790000D02*
X154940000Y-93790000D01*
X145535542Y-94088588D02*
X152400000Y-94088588D01*
X152642947Y-94088588D02*
X152400000Y-94088588D01*
X153365799Y-93790000D02*
X152941535Y-93790000D01*
X152941535Y-93790000D02*
X152642947Y-94088588D01*
X153745537Y-64221099D02*
X154072201Y-64547763D01*
X154072201Y-64547763D02*
X154072201Y-75085294D01*
X154072201Y-75085294D02*
X158366907Y-79380000D01*
X158366907Y-79380000D02*
X158849300Y-79380000D01*
D24*
X153745537Y-64221099D02*
X153745537Y-64255731D01*
D22*
X153365799Y-93790000D02*
X153365799Y-89844201D01*
X165290000Y-102110000D02*
X161020000Y-97840000D01*
X161020000Y-97840000D02*
X160130000Y-97840000D01*
X124996000Y-104498700D02*
X125644780Y-104498700D01*
X125644780Y-104498700D02*
X135283480Y-94860000D01*
X135283480Y-94860000D02*
X144764131Y-94860000D01*
X144764131Y-94860000D02*
X145535542Y-94088588D01*
D24*
X121720000Y-94822680D02*
X121720000Y-100620720D01*
X121720000Y-100620720D02*
X124996000Y-103896720D01*
X124996000Y-103896720D02*
X124996000Y-104498700D01*
X110249300Y-82750000D02*
X110249300Y-83351980D01*
X110249300Y-83351980D02*
X121720000Y-94822680D01*
D22*
X152294201Y-64221099D02*
X148872000Y-67643300D01*
X153745537Y-64221099D02*
X152294201Y-64221099D01*
X159250000Y-83960000D02*
X159250000Y-79780700D01*
X159250000Y-79780700D02*
X158849300Y-79380000D01*
X153365799Y-89844201D02*
X159250000Y-83960000D01*
X152174000Y-98090000D02*
X152174000Y-99660000D01*
X150179799Y-94541798D02*
X153543739Y-94541798D01*
X164770000Y-83990000D02*
X165130000Y-83630000D01*
X153543739Y-94541798D02*
X154178000Y-93907537D01*
X154178000Y-89672934D02*
X159860934Y-83990000D01*
X154178000Y-93907537D02*
X154178000Y-89672934D01*
X159860934Y-83990000D02*
X164770000Y-83990000D01*
X165130000Y-83630000D02*
X166349300Y-83630000D01*
X150904000Y-99160000D02*
X150904000Y-97310000D01*
X150179799Y-96585799D02*
X150179799Y-94541798D01*
X150904000Y-97310000D02*
X150179799Y-96585799D01*
X154968000Y-62055300D02*
X154968000Y-62704080D01*
X154978621Y-62714701D02*
X154978621Y-74709846D01*
X158600500Y-78331725D02*
X159762947Y-78331725D01*
X154968000Y-62704080D02*
X154978621Y-62714701D01*
X154978621Y-74709846D02*
X158600500Y-78331725D01*
X159762947Y-78331725D02*
X165061222Y-83630000D01*
X165061222Y-83630000D02*
X166349300Y-83630000D01*
X150179799Y-94541798D02*
X145723267Y-94541798D01*
X145723267Y-94541798D02*
X144936474Y-95328591D01*
X144936474Y-95328591D02*
X139668591Y-95328591D01*
X139668591Y-95328591D02*
X139667182Y-95330000D01*
X139667182Y-95330000D02*
X139513300Y-95330000D01*
X139513300Y-95330000D02*
X137990000Y-96853300D01*
X137990000Y-96853300D02*
X136426000Y-96853300D01*
X150904000Y-97973999D02*
X150904000Y-99660000D01*
X149634000Y-69192700D02*
X149634000Y-73251000D01*
X149634000Y-73251000D02*
X149101400Y-73783600D01*
X149101400Y-73783600D02*
X149101400Y-76130000D01*
X149634000Y-99160000D02*
X149634000Y-95981999D01*
X149634000Y-95981999D02*
X148872000Y-95219999D01*
X147810000Y-92420000D02*
X148850000Y-92420000D01*
X148850000Y-92420000D02*
X149570000Y-93140000D01*
X152120000Y-76350000D02*
X149321400Y-76350000D01*
X149321400Y-76350000D02*
X149101400Y-76130000D01*
X138098600Y-74130000D02*
X135390000Y-74130000D01*
X135390000Y-74130000D02*
X135120000Y-73860000D01*
X149634000Y-98860000D02*
X149634000Y-99660000D01*
X148364000Y-99160000D02*
X148364000Y-96998000D01*
X148364000Y-96998000D02*
X146586000Y-95220000D01*
D24*
X118480000Y-78410000D02*
X118480000Y-82550000D01*
X121130000Y-90859806D02*
X126229695Y-95959501D01*
D22*
X167020000Y-97870000D02*
X173675480Y-97870000D01*
X173675480Y-97870000D02*
X175046700Y-96498780D01*
X175046700Y-96498780D02*
X175046700Y-95850000D01*
X139874264Y-96081800D02*
X140174263Y-95781801D01*
X140174263Y-95781801D02*
X145148199Y-95781801D01*
X145148199Y-95781801D02*
X145150000Y-95780000D01*
X145150000Y-95756000D02*
X145686000Y-95220000D01*
X145150000Y-95780000D02*
X145150000Y-95756000D01*
X145686000Y-95220000D02*
X146586000Y-95220000D01*
X138436165Y-101205835D02*
X138436165Y-97519899D01*
X138436165Y-97519899D02*
X139874264Y-96081800D01*
X146456000Y-95350000D02*
X146586000Y-95220000D01*
D24*
X126229695Y-95959501D02*
X127091929Y-95959501D01*
X127091929Y-95959501D02*
X129171430Y-93880000D01*
X129171430Y-93880000D02*
X139970000Y-93880000D01*
D22*
X115600700Y-78880000D02*
X118010000Y-78880000D01*
X118010000Y-78880000D02*
X118480000Y-78410000D01*
X142837575Y-98919835D02*
X143167565Y-98919835D01*
X143167565Y-98919835D02*
X143967200Y-98120200D01*
X165518823Y-96351411D02*
X157226000Y-96351411D01*
X140722165Y-98919835D02*
X142837575Y-98919835D01*
X148336000Y-105918000D02*
X148336000Y-104188000D01*
X148336000Y-104188000D02*
X148364000Y-104160000D01*
X148110000Y-103914000D02*
X148364000Y-103660000D01*
D24*
X158369949Y-78775199D02*
X158386494Y-78758653D01*
X158386494Y-78758653D02*
X159598579Y-78775199D01*
D22*
X154525411Y-74897570D02*
X158386494Y-78758653D01*
X154525411Y-64360038D02*
X154525411Y-74897570D01*
X152835372Y-62670000D02*
X154525411Y-64360038D01*
D24*
X159598579Y-78775199D02*
X161351400Y-80528020D01*
X161351400Y-80528020D02*
X161351400Y-81130000D01*
D22*
X172850700Y-92380000D02*
X169490234Y-92380000D01*
X169490234Y-92380000D02*
X165518823Y-96351411D01*
X158016000Y-57116080D02*
X152462080Y-62670000D01*
X152462080Y-62670000D02*
X147830000Y-67302080D01*
X152835372Y-62670000D02*
X152462080Y-62670000D01*
X158016000Y-56467300D02*
X158016000Y-57116080D01*
X147830000Y-67302080D02*
X147830000Y-69310000D01*
D24*
X119600700Y-77380000D02*
X154849300Y-77380000D01*
D23*
X121299200Y-127304800D02*
X121299200Y-130254800D01*
X121299200Y-130254800D02*
X128280600Y-137236200D01*
X128280600Y-137236200D02*
X138684000Y-137236200D01*
X138684000Y-137236200D02*
X145299200Y-130621000D01*
X145299200Y-130621000D02*
X145299200Y-127304800D01*
X145299200Y-127304800D02*
X147699200Y-127304800D01*
X149527008Y-129132608D02*
X149527008Y-132336901D01*
X149527008Y-132336901D02*
X149527008Y-133144008D01*
X147699200Y-127304800D02*
X149527008Y-129132608D01*
X149527008Y-129549358D02*
X149527008Y-132336901D01*
D22*
X173000000Y-106000000D02*
X173000000Y-111301782D01*
X173000000Y-111301782D02*
X167755881Y-116545901D01*
X167755881Y-116545901D02*
X162265901Y-116545901D01*
X162265901Y-116545901D02*
X161937699Y-116217699D01*
X161937699Y-116217699D02*
X161544000Y-115824000D01*
X152174000Y-103660000D02*
X152174000Y-106200000D01*
X152174000Y-106200000D02*
X155509406Y-109535406D01*
X161544000Y-115824000D02*
X160782000Y-115062000D01*
X160782000Y-115062000D02*
X159004000Y-115062000D01*
X159004000Y-115062000D02*
X155509406Y-111567406D01*
X155509406Y-111567406D02*
X155509406Y-109535406D01*
X152174000Y-104160000D02*
X152174000Y-105380762D01*
X152174000Y-105222000D02*
X152174000Y-103660000D01*
X159140411Y-109020411D02*
X159140411Y-108359589D01*
X159140411Y-108359589D02*
X161500000Y-106000000D01*
X161500000Y-106000000D02*
X163000000Y-106000000D01*
X152815799Y-105022561D02*
X152815799Y-104902000D01*
X152815799Y-104902000D02*
X152815799Y-102297439D01*
X154085799Y-105088201D02*
X154085799Y-106008963D01*
X154085799Y-106008963D02*
X154006561Y-106088201D01*
X154006561Y-106088201D02*
X152881439Y-106088201D01*
X152881439Y-106088201D02*
X152815799Y-106022561D01*
X152815799Y-106022561D02*
X152815799Y-104902000D01*
X154714000Y-103660000D02*
X154714000Y-104460000D01*
X154714000Y-104460000D02*
X154085799Y-105088201D01*
X153642247Y-101470991D02*
X158429725Y-101470991D01*
X165608000Y-113538000D02*
X166624000Y-114554000D01*
X152815799Y-102297439D02*
X153642247Y-101470991D01*
X158429725Y-101470991D02*
X159140411Y-102181677D01*
X159140411Y-102181677D02*
X159140411Y-109020411D01*
X159140411Y-109020411D02*
X163658000Y-113538000D01*
X163658000Y-113538000D02*
X165608000Y-113538000D01*
X153444000Y-103660000D02*
X153444000Y-102860000D01*
X158242000Y-101924201D02*
X158687201Y-102369402D01*
X163690301Y-114160301D02*
X164084000Y-114554000D01*
X153444000Y-102860000D02*
X154379799Y-101924201D01*
X154379799Y-101924201D02*
X158242000Y-101924201D01*
X158687201Y-102369402D02*
X158687201Y-109208135D01*
X158687201Y-109208135D02*
X163639367Y-114160301D01*
X163639367Y-114160301D02*
X163690301Y-114160301D01*
X130810000Y-95750000D02*
X130170689Y-96389311D01*
X130170689Y-96389311D02*
X125729767Y-96389311D01*
X125729767Y-96389311D02*
X120501799Y-91161343D01*
X128400000Y-87550000D02*
X129450000Y-87550000D01*
X120501799Y-91161343D02*
X120501799Y-90558269D01*
X120501799Y-90558269D02*
X123510068Y-87550000D01*
X123510068Y-87550000D02*
X128400000Y-87550000D01*
X146230000Y-103670000D02*
X146230000Y-103370000D01*
X146230000Y-103370000D02*
X145551799Y-102691799D01*
X145551799Y-102691799D02*
X135721361Y-102691799D01*
X135721361Y-102691799D02*
X133140000Y-100110438D01*
X133140000Y-100110438D02*
X133140000Y-99040000D01*
X147070000Y-101930000D02*
X149974000Y-101930000D01*
X149974000Y-101930000D02*
X150904000Y-102860000D01*
X150904000Y-102860000D02*
X150904000Y-103660000D01*
X146230000Y-103670000D02*
X146230000Y-102770000D01*
X146230000Y-102770000D02*
X147070000Y-101930000D01*
D23*
X153416000Y-130312233D02*
X153416000Y-128203960D01*
X151294775Y-131376241D02*
X152351992Y-131376241D01*
X152351992Y-131376241D02*
X153416000Y-130312233D01*
X153416000Y-125796040D02*
X153416000Y-123683091D01*
X153416000Y-123683091D02*
X153081525Y-123348616D01*
D25*
G36*
X155100212Y-47005986D02*
X156012134Y-47035594D01*
X156883699Y-47090051D01*
X157952349Y-47186419D01*
X158313439Y-47237025D01*
X158618878Y-47300425D01*
X158917168Y-47386984D01*
X159256223Y-47510207D01*
X160231653Y-47921344D01*
X160916001Y-48234721D01*
X161555156Y-48556183D01*
X162065875Y-48840976D01*
X162385911Y-49054047D01*
X162956027Y-49474280D01*
X162975581Y-49483458D01*
X162991101Y-49498487D01*
X163588682Y-49884026D01*
X164053828Y-50188656D01*
X164564147Y-50580780D01*
X165123337Y-51060084D01*
X165708525Y-51606517D01*
X166299185Y-52200899D01*
X166875812Y-52824412D01*
X167419164Y-53458051D01*
X167911784Y-54084478D01*
X168429797Y-54805897D01*
X168919407Y-55549420D01*
X169386684Y-56326823D01*
X169838667Y-57151593D01*
X170282051Y-58036950D01*
X170723319Y-58995905D01*
X171168777Y-60041147D01*
X171627047Y-61191136D01*
X171629109Y-61194314D01*
X171629838Y-61198030D01*
X172140221Y-62439429D01*
X172165224Y-62536613D01*
X172176889Y-62560876D01*
X172180462Y-62587558D01*
X172280708Y-62880747D01*
X172286693Y-62891061D01*
X172288680Y-62902821D01*
X172617826Y-63767502D01*
X172819645Y-64300262D01*
X173027153Y-64891445D01*
X173217466Y-65472924D01*
X173367937Y-65978476D01*
X173370603Y-65983527D01*
X173371226Y-65989204D01*
X173555684Y-66573751D01*
X173561815Y-66584920D01*
X173563668Y-66597527D01*
X173844524Y-67385766D01*
X173848497Y-67392415D01*
X173849793Y-67400048D01*
X174188869Y-68288711D01*
X174192698Y-68294806D01*
X174194049Y-68301878D01*
X174553169Y-69187695D01*
X174554201Y-69189265D01*
X174554564Y-69191110D01*
X175161062Y-70664284D01*
X175411417Y-71325243D01*
X175419064Y-71337483D01*
X175422034Y-71351609D01*
X175526004Y-71595092D01*
X175537576Y-71612010D01*
X175542969Y-71631784D01*
X175822825Y-72192972D01*
X175826846Y-72198164D01*
X175828693Y-72204467D01*
X176723731Y-73917672D01*
X176726471Y-73921076D01*
X176727752Y-73925252D01*
X177749343Y-75822405D01*
X177753488Y-75827424D01*
X177755513Y-75833612D01*
X178518998Y-77190130D01*
X178519242Y-77190414D01*
X178519359Y-77190771D01*
X179064595Y-78157089D01*
X179524972Y-79059992D01*
X180795552Y-81701747D01*
X180795811Y-81702092D01*
X180795919Y-81702508D01*
X182368899Y-84962703D01*
X182370224Y-84964462D01*
X182370789Y-84966588D01*
X182671011Y-85578936D01*
X182675736Y-85585123D01*
X182677901Y-85592601D01*
X182969541Y-86155283D01*
X182975602Y-86162862D01*
X182978559Y-86172104D01*
X183228279Y-86622716D01*
X183241159Y-86637933D01*
X183248316Y-86656546D01*
X183422775Y-86932687D01*
X183429324Y-86939580D01*
X183432978Y-86948359D01*
X183574520Y-87159411D01*
X183744307Y-87443980D01*
X184122811Y-88154180D01*
X184497077Y-88868136D01*
X184510153Y-88884333D01*
X184517221Y-88903913D01*
X184827207Y-89417805D01*
X184831253Y-89422244D01*
X184833388Y-89427854D01*
X184989908Y-89677508D01*
X185229679Y-90095454D01*
X185851914Y-91246709D01*
X185852604Y-91247542D01*
X185852927Y-91248577D01*
X186544258Y-92518241D01*
X186549682Y-92524747D01*
X186552399Y-92532768D01*
X186873502Y-93089806D01*
X186879601Y-93096770D01*
X186882802Y-93105454D01*
X187132318Y-93512885D01*
X187132582Y-93513171D01*
X187132717Y-93513536D01*
X187566275Y-94219716D01*
X187921193Y-94879797D01*
X188210444Y-95517164D01*
X188438936Y-96142539D01*
X188611466Y-96767838D01*
X188732158Y-97405749D01*
X188804153Y-98069110D01*
X188829746Y-98771125D01*
X188809440Y-99684724D01*
X188744012Y-100664753D01*
X188638306Y-101674357D01*
X188497567Y-102678227D01*
X188327392Y-103641088D01*
X188133917Y-104526992D01*
X187922672Y-105304817D01*
X187816609Y-105629950D01*
X187709273Y-105915673D01*
X187579288Y-106211943D01*
X187421875Y-106528857D01*
X187011267Y-107248949D01*
X186497041Y-108038369D01*
X185885881Y-108886969D01*
X185188044Y-109779850D01*
X184413507Y-110703163D01*
X183572227Y-111643457D01*
X182673205Y-112588500D01*
X181871213Y-113386827D01*
X181148736Y-114060251D01*
X180484120Y-114624691D01*
X179853040Y-115099000D01*
X179229057Y-115503328D01*
X178583472Y-115858002D01*
X177886876Y-116181981D01*
X177117951Y-116489708D01*
X176402012Y-116727168D01*
X175463956Y-116991554D01*
X174381990Y-117264347D01*
X173237422Y-117527138D01*
X172109310Y-117762501D01*
X171077264Y-117953185D01*
X170219094Y-118082709D01*
X169894489Y-118118031D01*
X169638766Y-118133477D01*
X169175961Y-118144321D01*
X169149484Y-118150236D01*
X169122474Y-118147671D01*
X168071880Y-118254867D01*
X168055979Y-118259751D01*
X168039366Y-118258973D01*
X167958186Y-118271203D01*
X167940007Y-118277754D01*
X167894742Y-118281971D01*
X166607255Y-118392803D01*
X165975408Y-118394853D01*
X165326188Y-118362855D01*
X164673847Y-118297324D01*
X164023052Y-118198966D01*
X163378431Y-118068557D01*
X162744703Y-117906983D01*
X162126478Y-117715209D01*
X161512184Y-117488321D01*
X160786667Y-117216157D01*
X160913427Y-117163781D01*
X161231663Y-116846100D01*
X161245098Y-116813745D01*
X161338481Y-116852521D01*
X161497858Y-116852660D01*
X161728500Y-117083302D01*
X161975062Y-117248049D01*
X162265901Y-117305901D01*
X167755881Y-117305901D01*
X168046720Y-117248049D01*
X168293282Y-117083302D01*
X173537401Y-111839183D01*
X173702148Y-111592622D01*
X173760000Y-111301782D01*
X173760000Y-107897440D01*
X174250000Y-107897440D01*
X174485317Y-107853162D01*
X174701441Y-107714090D01*
X174846431Y-107501890D01*
X174897440Y-107250000D01*
X174897440Y-104750000D01*
X174853162Y-104514683D01*
X174714090Y-104298559D01*
X174501890Y-104153569D01*
X174250000Y-104102560D01*
X171750000Y-104102560D01*
X171514683Y-104146838D01*
X171298559Y-104285910D01*
X171153569Y-104498110D01*
X171102560Y-104750000D01*
X171102560Y-107250000D01*
X171146838Y-107485317D01*
X171285910Y-107701441D01*
X171498110Y-107846431D01*
X171750000Y-107897440D01*
X172240000Y-107897440D01*
X172240000Y-110986980D01*
X168765171Y-114461809D01*
X168535100Y-114231337D01*
X168119817Y-114058897D01*
X167670156Y-114058504D01*
X167552421Y-114107151D01*
X167496598Y-113972050D01*
X167207472Y-113682419D01*
X166829519Y-113525479D01*
X166670142Y-113525340D01*
X166145401Y-113000599D01*
X165898839Y-112835852D01*
X165608000Y-112778000D01*
X163972802Y-112778000D01*
X159900411Y-108705609D01*
X159900411Y-108674391D01*
X161137755Y-107437047D01*
X161146838Y-107485317D01*
X161285910Y-107701441D01*
X161498110Y-107846431D01*
X161750000Y-107897440D01*
X164250000Y-107897440D01*
X164485317Y-107853162D01*
X164701441Y-107714090D01*
X164846431Y-107501890D01*
X164897440Y-107250000D01*
X164897440Y-104750000D01*
X166102560Y-104750000D01*
X166102560Y-107250000D01*
X166146838Y-107485317D01*
X166285910Y-107701441D01*
X166498110Y-107846431D01*
X166750000Y-107897440D01*
X169250000Y-107897440D01*
X169485317Y-107853162D01*
X169701441Y-107714090D01*
X169846431Y-107501890D01*
X169897440Y-107250000D01*
X169897440Y-104750000D01*
X169853162Y-104514683D01*
X169714090Y-104298559D01*
X169501890Y-104153569D01*
X169250000Y-104102560D01*
X166750000Y-104102560D01*
X166514683Y-104146838D01*
X166298559Y-104285910D01*
X166153569Y-104498110D01*
X166102560Y-104750000D01*
X164897440Y-104750000D01*
X164853162Y-104514683D01*
X164714090Y-104298559D01*
X164501890Y-104153569D01*
X164250000Y-104102560D01*
X161750000Y-104102560D01*
X161514683Y-104146838D01*
X161298559Y-104285910D01*
X161153569Y-104498110D01*
X161102560Y-104750000D01*
X161102560Y-105369080D01*
X160962599Y-105462599D01*
X159900411Y-106524787D01*
X159900411Y-102181677D01*
X159842559Y-101890838D01*
X159677812Y-101644276D01*
X158967126Y-100933590D01*
X158720564Y-100768843D01*
X158429725Y-100710991D01*
X156919000Y-100710991D01*
X156919000Y-99445750D01*
X156760250Y-99287000D01*
X156111000Y-99287000D01*
X156111000Y-99307000D01*
X155857000Y-99307000D01*
X155857000Y-99287000D01*
X155837000Y-99287000D01*
X155837000Y-99033000D01*
X155857000Y-99033000D01*
X155857000Y-99013000D01*
X156111000Y-99013000D01*
X156111000Y-99033000D01*
X156760250Y-99033000D01*
X156919000Y-98874250D01*
X156919000Y-97433690D01*
X156822327Y-97200301D01*
X156815305Y-97193279D01*
X157039201Y-97286249D01*
X157411167Y-97286573D01*
X157754943Y-97144528D01*
X157788118Y-97111411D01*
X159536416Y-97111411D01*
X159337808Y-97309673D01*
X159195162Y-97653201D01*
X159194838Y-98025167D01*
X159336883Y-98368943D01*
X159599673Y-98632192D01*
X159943201Y-98774838D01*
X160315167Y-98775162D01*
X160658943Y-98633117D01*
X160692118Y-98600000D01*
X160705198Y-98600000D01*
X164354878Y-102249680D01*
X164354838Y-102295167D01*
X164496883Y-102638943D01*
X164759673Y-102902192D01*
X165103201Y-103044838D01*
X165475167Y-103045162D01*
X165818943Y-102903117D01*
X166082192Y-102640327D01*
X166224838Y-102296799D01*
X166225162Y-101924833D01*
X166083117Y-101581057D01*
X165820327Y-101317808D01*
X165476799Y-101175162D01*
X165429923Y-101175121D01*
X162309969Y-98055167D01*
X166084838Y-98055167D01*
X166226883Y-98398943D01*
X166489673Y-98662192D01*
X166833201Y-98804838D01*
X167205167Y-98805162D01*
X167548943Y-98663117D01*
X167582118Y-98630000D01*
X173675480Y-98630000D01*
X173966319Y-98572148D01*
X174212881Y-98407401D01*
X175584101Y-97036181D01*
X175748848Y-96789619D01*
X175806700Y-96498780D01*
X175806700Y-96412463D01*
X175838892Y-96380327D01*
X175981538Y-96036799D01*
X175981862Y-95664833D01*
X175839817Y-95321057D01*
X175577027Y-95057808D01*
X175233499Y-94915162D01*
X174861533Y-94914838D01*
X174517757Y-95056883D01*
X174254508Y-95319673D01*
X174111862Y-95663201D01*
X174111538Y-96035167D01*
X174206262Y-96264416D01*
X173360678Y-97110000D01*
X167582463Y-97110000D01*
X167550327Y-97077808D01*
X167206799Y-96935162D01*
X166834833Y-96934838D01*
X166491057Y-97076883D01*
X166227808Y-97339673D01*
X166085162Y-97683201D01*
X166084838Y-98055167D01*
X162309969Y-98055167D01*
X161557401Y-97302599D01*
X161310839Y-97137852D01*
X161177912Y-97111411D01*
X165518823Y-97111411D01*
X165809662Y-97053559D01*
X166056224Y-96888812D01*
X169805036Y-93140000D01*
X172288237Y-93140000D01*
X172320373Y-93172192D01*
X172663901Y-93314838D01*
X173035867Y-93315162D01*
X173379643Y-93173117D01*
X173642892Y-92910327D01*
X173785538Y-92566799D01*
X173785862Y-92194833D01*
X173643817Y-91851057D01*
X173381027Y-91587808D01*
X173037499Y-91445162D01*
X172665533Y-91444838D01*
X172321757Y-91586883D01*
X172288582Y-91620000D01*
X170684102Y-91620000D01*
X172238980Y-90065122D01*
X172284467Y-90065162D01*
X172628243Y-89923117D01*
X172891492Y-89660327D01*
X173034138Y-89316799D01*
X173034462Y-88944833D01*
X172892417Y-88601057D01*
X172629627Y-88337808D01*
X172286099Y-88195162D01*
X171914133Y-88194838D01*
X171570357Y-88336883D01*
X171307108Y-88599673D01*
X171164462Y-88943201D01*
X171164421Y-88990077D01*
X165694498Y-94460000D01*
X158578463Y-94460000D01*
X158546327Y-94427808D01*
X158202799Y-94285162D01*
X157830833Y-94284838D01*
X157487057Y-94426883D01*
X157453882Y-94460000D01*
X156804000Y-94460000D01*
X156513160Y-94517852D01*
X156415413Y-94583165D01*
X156260327Y-94427808D01*
X155916799Y-94285162D01*
X155746855Y-94285014D01*
X155874838Y-93976799D01*
X155875162Y-93604833D01*
X155733117Y-93261057D01*
X155470327Y-92997808D01*
X155126799Y-92855162D01*
X154938000Y-92854998D01*
X154938000Y-89987736D01*
X160175736Y-84750000D01*
X164770000Y-84750000D01*
X165060839Y-84692148D01*
X165307401Y-84527401D01*
X165444802Y-84390000D01*
X165786837Y-84390000D01*
X165818973Y-84422192D01*
X166162501Y-84564838D01*
X166534467Y-84565162D01*
X166878243Y-84423117D01*
X167141492Y-84160327D01*
X167284138Y-83816799D01*
X167284462Y-83444833D01*
X167142417Y-83101057D01*
X166879627Y-82837808D01*
X166536099Y-82695162D01*
X166164133Y-82694838D01*
X165820357Y-82836883D01*
X165787182Y-82870000D01*
X165376024Y-82870000D01*
X160300348Y-77794324D01*
X160053786Y-77629577D01*
X159762947Y-77571725D01*
X158915302Y-77571725D01*
X155738621Y-74395044D01*
X155738621Y-62714701D01*
X155728000Y-62661306D01*
X155728000Y-62617763D01*
X155760192Y-62585627D01*
X155902838Y-62242099D01*
X155903162Y-61870133D01*
X155761117Y-61526357D01*
X155498327Y-61263108D01*
X155154799Y-61120462D01*
X155086480Y-61120402D01*
X158553401Y-57653481D01*
X158718148Y-57406919D01*
X158776000Y-57116080D01*
X158776000Y-57029763D01*
X158808192Y-56997627D01*
X158950838Y-56654099D01*
X158951162Y-56282133D01*
X158809117Y-55938357D01*
X158546327Y-55675108D01*
X158202799Y-55532462D01*
X157830833Y-55532138D01*
X157487057Y-55674183D01*
X157223808Y-55936973D01*
X157081162Y-56280501D01*
X157080838Y-56652467D01*
X157175562Y-56881716D01*
X147292599Y-66764679D01*
X147127852Y-67011241D01*
X147070000Y-67302080D01*
X147070000Y-68747537D01*
X147037808Y-68779673D01*
X146895162Y-69123201D01*
X146894838Y-69495167D01*
X147036883Y-69838943D01*
X147299673Y-70102192D01*
X147643201Y-70244838D01*
X148015167Y-70245162D01*
X148245799Y-70149867D01*
X148245799Y-72309399D01*
X146865198Y-73690000D01*
X144282463Y-73690000D01*
X144250327Y-73657808D01*
X143906799Y-73515162D01*
X143534833Y-73514838D01*
X143191057Y-73656883D01*
X143157882Y-73690000D01*
X142981641Y-73690000D01*
X142879627Y-73587808D01*
X142536099Y-73445162D01*
X142164133Y-73444838D01*
X141820357Y-73586883D01*
X141557108Y-73849673D01*
X141414462Y-74193201D01*
X141414138Y-74565167D01*
X141556183Y-74908943D01*
X141818973Y-75172192D01*
X142162501Y-75314838D01*
X142534467Y-75315162D01*
X142788979Y-75210000D01*
X143157537Y-75210000D01*
X143189673Y-75242192D01*
X143533201Y-75384838D01*
X143905167Y-75385162D01*
X144248943Y-75243117D01*
X144282118Y-75210000D01*
X146213489Y-75210000D01*
X147646889Y-76643400D01*
X120186522Y-76643400D01*
X120131027Y-76587808D01*
X119787499Y-76445162D01*
X119415533Y-76444838D01*
X119071757Y-76586883D01*
X118808508Y-76849673D01*
X118665862Y-77193201D01*
X118665616Y-77475161D01*
X118294833Y-77474838D01*
X117951057Y-77616883D01*
X117687808Y-77879673D01*
X117588015Y-78120000D01*
X116163163Y-78120000D01*
X116131027Y-78087808D01*
X115787499Y-77945162D01*
X115415533Y-77944838D01*
X115071757Y-78086883D01*
X114808508Y-78349673D01*
X114665862Y-78693201D01*
X114665538Y-79065167D01*
X114807583Y-79408943D01*
X115070373Y-79672192D01*
X115413901Y-79814838D01*
X115785867Y-79815162D01*
X116129643Y-79673117D01*
X116162818Y-79640000D01*
X117743400Y-79640000D01*
X117743400Y-81964178D01*
X117687808Y-82019673D01*
X117545162Y-82363201D01*
X117544838Y-82735167D01*
X117686883Y-83078943D01*
X117949673Y-83342192D01*
X118293201Y-83484838D01*
X118665167Y-83485162D01*
X119008943Y-83343117D01*
X119272192Y-83080327D01*
X119414838Y-82736799D01*
X119415162Y-82364833D01*
X119273117Y-82021057D01*
X119216600Y-81964441D01*
X119216600Y-81226550D01*
X128054200Y-81226550D01*
X128054200Y-83067109D01*
X128150873Y-83300498D01*
X128329501Y-83479127D01*
X128562890Y-83575800D01*
X129203450Y-83575800D01*
X129362200Y-83417050D01*
X129362200Y-81067800D01*
X129616200Y-81067800D01*
X129616200Y-83417050D01*
X129774950Y-83575800D01*
X130415510Y-83575800D01*
X130648899Y-83479127D01*
X130827527Y-83300498D01*
X130924200Y-83067109D01*
X130924200Y-81226550D01*
X130765450Y-81067800D01*
X129616200Y-81067800D01*
X129362200Y-81067800D01*
X128212950Y-81067800D01*
X128054200Y-81226550D01*
X119216600Y-81226550D01*
X119216600Y-78995822D01*
X119272192Y-78940327D01*
X119324443Y-78814491D01*
X128054200Y-78814491D01*
X128054200Y-80655050D01*
X128212950Y-80813800D01*
X129362200Y-80813800D01*
X129362200Y-78464550D01*
X129616200Y-78464550D01*
X129616200Y-80813800D01*
X130765450Y-80813800D01*
X130924200Y-80655050D01*
X130924200Y-78814491D01*
X130827527Y-78581102D01*
X130648899Y-78402473D01*
X130415510Y-78305800D01*
X129774950Y-78305800D01*
X129616200Y-78464550D01*
X129362200Y-78464550D01*
X129203450Y-78305800D01*
X128562890Y-78305800D01*
X128329501Y-78402473D01*
X128150873Y-78581102D01*
X128054200Y-78814491D01*
X119324443Y-78814491D01*
X119414838Y-78596799D01*
X119415084Y-78314839D01*
X119785867Y-78315162D01*
X120129643Y-78173117D01*
X120186259Y-78116600D01*
X154263478Y-78116600D01*
X154318973Y-78172192D01*
X154662501Y-78314838D01*
X154717501Y-78314886D01*
X154717501Y-86138115D01*
X152589940Y-88265676D01*
X152430265Y-88504646D01*
X152414293Y-88584945D01*
X152318603Y-88680468D01*
X152175957Y-89023996D01*
X152175887Y-89103993D01*
X151456480Y-89823400D01*
X148774894Y-89823400D01*
X148493009Y-89879470D01*
X148254039Y-90039145D01*
X145754585Y-92538599D01*
X139604801Y-92538599D01*
X139322916Y-92594669D01*
X139109918Y-92736990D01*
X129003090Y-92736990D01*
X128721205Y-92793060D01*
X128482235Y-92952735D01*
X126924649Y-94510321D01*
X126706799Y-94419862D01*
X126334833Y-94419538D01*
X125991057Y-94561583D01*
X125932221Y-94620317D01*
X122065094Y-90753190D01*
X122065162Y-90674639D01*
X121923117Y-90330863D01*
X121863614Y-90271256D01*
X123824870Y-88310000D01*
X128041760Y-88310000D01*
X128041760Y-91340800D01*
X128086038Y-91576117D01*
X128225110Y-91792241D01*
X128437310Y-91937231D01*
X128689200Y-91988240D01*
X130289200Y-91988240D01*
X130524517Y-91943962D01*
X130740641Y-91804890D01*
X130885631Y-91592690D01*
X130936640Y-91340800D01*
X130936640Y-87340800D01*
X130892362Y-87105483D01*
X130753290Y-86889359D01*
X130541090Y-86744369D01*
X130289200Y-86693360D01*
X128689200Y-86693360D01*
X128453883Y-86737638D01*
X128372510Y-86790000D01*
X123510068Y-86790000D01*
X123219229Y-86847852D01*
X122972667Y-87012599D01*
X119964398Y-90020868D01*
X119799651Y-90267430D01*
X119741799Y-90558269D01*
X119741799Y-91161343D01*
X119799651Y-91452182D01*
X119964398Y-91698744D01*
X125192366Y-96926712D01*
X125438927Y-97091459D01*
X125729767Y-97149311D01*
X130170689Y-97149311D01*
X130461528Y-97091459D01*
X130708090Y-96926712D01*
X130949680Y-96685122D01*
X130995167Y-96685162D01*
X131338943Y-96543117D01*
X131602192Y-96280327D01*
X131744838Y-95936799D01*
X131745162Y-95564833D01*
X131603117Y-95221057D01*
X131340327Y-94957808D01*
X130996799Y-94815162D01*
X130624833Y-94814838D01*
X130281057Y-94956883D01*
X130017808Y-95219673D01*
X129875162Y-95563201D01*
X129875121Y-95610077D01*
X129855887Y-95629311D01*
X128463829Y-95629311D01*
X129476540Y-94616600D01*
X134452078Y-94616600D01*
X126399802Y-102668876D01*
X126297117Y-102420357D01*
X126264000Y-102387182D01*
X126264000Y-99310247D01*
X126540943Y-99195817D01*
X126804192Y-98933027D01*
X126946838Y-98589499D01*
X126947162Y-98217533D01*
X126805117Y-97873757D01*
X126542327Y-97610508D01*
X126198799Y-97467862D01*
X125826833Y-97467538D01*
X125483057Y-97609583D01*
X125219808Y-97872373D01*
X125077162Y-98215901D01*
X125077121Y-98262777D01*
X124966599Y-98373299D01*
X124801852Y-98619861D01*
X124744000Y-98910700D01*
X124744000Y-102386837D01*
X124711808Y-102418973D01*
X124667256Y-102526266D01*
X122456600Y-100315610D01*
X122456600Y-94822685D01*
X122456601Y-94822680D01*
X122400531Y-94540796D01*
X122240855Y-94301825D01*
X111093679Y-83154649D01*
X111184138Y-82936799D01*
X111184462Y-82564833D01*
X111042417Y-82221057D01*
X110779627Y-81957808D01*
X110436099Y-81815162D01*
X110064133Y-81814838D01*
X109720357Y-81956883D01*
X109457108Y-82219673D01*
X109314462Y-82563201D01*
X109314138Y-82935167D01*
X109456183Y-83278943D01*
X109512700Y-83335559D01*
X109512700Y-83351980D01*
X109568770Y-83633865D01*
X109728445Y-83872835D01*
X120983400Y-95127790D01*
X120983400Y-100620720D01*
X121039470Y-100902605D01*
X121199145Y-101141575D01*
X124151621Y-104094051D01*
X124061162Y-104311901D01*
X124060838Y-104683867D01*
X124202883Y-105027643D01*
X124465673Y-105290892D01*
X124809201Y-105433538D01*
X125181167Y-105433862D01*
X125524943Y-105291817D01*
X125558118Y-105258700D01*
X125644780Y-105258700D01*
X125935619Y-105200848D01*
X126182181Y-105036101D01*
X126534415Y-104683867D01*
X133966838Y-104683867D01*
X134108883Y-105027643D01*
X134371673Y-105290892D01*
X134715201Y-105433538D01*
X135087167Y-105433862D01*
X135430943Y-105291817D01*
X135694192Y-105029027D01*
X135836838Y-104685499D01*
X135837162Y-104313533D01*
X135695117Y-103969757D01*
X135432327Y-103706508D01*
X135088799Y-103563862D01*
X134716833Y-103563538D01*
X134373057Y-103705583D01*
X134109808Y-103968373D01*
X133967162Y-104311901D01*
X133966838Y-104683867D01*
X126534415Y-104683867D01*
X132205023Y-99013259D01*
X132204838Y-99225167D01*
X132346883Y-99568943D01*
X132380000Y-99602118D01*
X132380000Y-100110438D01*
X132437852Y-100401277D01*
X132602599Y-100647839D01*
X135183960Y-103229200D01*
X135430522Y-103393947D01*
X135721361Y-103451799D01*
X137527722Y-103451799D01*
X137501327Y-103515366D01*
X137501003Y-103887332D01*
X137643048Y-104231108D01*
X137905838Y-104494357D01*
X138249366Y-104637003D01*
X138621332Y-104637327D01*
X138965108Y-104495282D01*
X139228357Y-104232492D01*
X139371003Y-103888964D01*
X139371327Y-103516998D01*
X139344387Y-103451799D01*
X142032560Y-103451799D01*
X142032560Y-104320000D01*
X142076838Y-104555317D01*
X142215910Y-104771441D01*
X142428110Y-104916431D01*
X142642717Y-104959890D01*
X142658561Y-105039541D01*
X142826508Y-105290892D01*
X142839566Y-105310434D01*
X147751137Y-110222005D01*
X147720560Y-110373000D01*
X147720560Y-111623000D01*
X147764838Y-111858317D01*
X147903910Y-112074441D01*
X148116110Y-112219431D01*
X148368000Y-112270440D01*
X149045000Y-112270440D01*
X149045000Y-118652909D01*
X149108561Y-118972450D01*
X149229483Y-119153422D01*
X149289566Y-119243343D01*
X150982383Y-120936160D01*
X151319244Y-121861678D01*
X151441335Y-122067659D01*
X151645939Y-122223184D01*
X151894931Y-122286853D01*
X152149077Y-122248635D01*
X153088769Y-121906615D01*
X153294750Y-121784524D01*
X153450275Y-121579920D01*
X153513944Y-121330928D01*
X153475726Y-121076782D01*
X153133706Y-120137090D01*
X153011615Y-119931109D01*
X152807011Y-119775584D01*
X152558019Y-119711915D01*
X152303873Y-119750133D01*
X152196993Y-119789034D01*
X150715000Y-118307041D01*
X150715000Y-112246944D01*
X150741691Y-112258000D01*
X151332250Y-112258000D01*
X151491000Y-112099250D01*
X151491000Y-111125000D01*
X151745000Y-111125000D01*
X151745000Y-112099250D01*
X151903750Y-112258000D01*
X152494309Y-112258000D01*
X152727698Y-112161327D01*
X152906327Y-111982699D01*
X153003000Y-111749310D01*
X153003000Y-111283750D01*
X152844250Y-111125000D01*
X151745000Y-111125000D01*
X151491000Y-111125000D01*
X151471000Y-111125000D01*
X151471000Y-110871000D01*
X151491000Y-110871000D01*
X151491000Y-109896750D01*
X151745000Y-109896750D01*
X151745000Y-110871000D01*
X152844250Y-110871000D01*
X153003000Y-110712250D01*
X153003000Y-110246690D01*
X152906327Y-110013301D01*
X152727698Y-109834673D01*
X152494309Y-109738000D01*
X151903750Y-109738000D01*
X151745000Y-109896750D01*
X151491000Y-109896750D01*
X151332250Y-109738000D01*
X151041868Y-109738000D01*
X151232868Y-109547000D01*
X152200000Y-109547000D01*
X152519541Y-109483439D01*
X152790434Y-109302434D01*
X152970333Y-109122535D01*
X153210943Y-109023117D01*
X153474192Y-108760327D01*
X153528570Y-108629372D01*
X153998502Y-109099304D01*
X153926563Y-109204589D01*
X153872079Y-109455751D01*
X153919603Y-109708322D01*
X154061648Y-109922504D01*
X154749406Y-110610262D01*
X154749406Y-111567406D01*
X154807258Y-111858245D01*
X154972005Y-112104807D01*
X158466599Y-115599401D01*
X158713160Y-115764148D01*
X159004000Y-115822000D01*
X159209165Y-115822000D01*
X159143897Y-115979183D01*
X159143504Y-116428844D01*
X159254049Y-116696383D01*
X158883402Y-116574112D01*
X158244430Y-116326753D01*
X157849577Y-116136671D01*
X157382171Y-115880676D01*
X156872953Y-115576595D01*
X156350099Y-115242165D01*
X155840176Y-114894738D01*
X155369631Y-114552024D01*
X154966362Y-114233489D01*
X154639982Y-113944137D01*
X154415866Y-113740424D01*
X154399643Y-113730669D01*
X154387575Y-113716082D01*
X154149867Y-113522572D01*
X154133770Y-113514050D01*
X154121443Y-113500647D01*
X153880043Y-113324325D01*
X153862967Y-113316401D01*
X153849493Y-113303256D01*
X153611141Y-113148230D01*
X153591545Y-113140396D01*
X153575571Y-113126604D01*
X153347007Y-112996984D01*
X153322385Y-112988837D01*
X153301544Y-112973403D01*
X153089506Y-112873295D01*
X153055118Y-112864707D01*
X153024626Y-112846635D01*
X152835855Y-112780145D01*
X152781481Y-112772355D01*
X152730384Y-112752209D01*
X152571618Y-112723449D01*
X152544993Y-112723906D01*
X152519540Y-112716067D01*
X152412182Y-112726183D01*
X152304383Y-112728032D01*
X152279960Y-112738643D01*
X152253445Y-112741141D01*
X152158139Y-112791567D01*
X152059244Y-112834531D01*
X152040738Y-112853683D01*
X152017201Y-112866136D01*
X151948446Y-112949196D01*
X151873522Y-113026735D01*
X151863755Y-113051508D01*
X151846773Y-113072023D01*
X151815036Y-113175074D01*
X151775489Y-113275380D01*
X151775946Y-113302005D01*
X151768107Y-113327458D01*
X151744677Y-113555468D01*
X151747498Y-113585404D01*
X151741172Y-113614800D01*
X151732572Y-114165835D01*
X151735880Y-114183938D01*
X151732967Y-114202105D01*
X151749097Y-114633733D01*
X151754621Y-114656937D01*
X151752471Y-114680692D01*
X151798921Y-115116863D01*
X151805821Y-115138978D01*
X151805277Y-115162140D01*
X151882527Y-115604593D01*
X151890487Y-115625164D01*
X151891370Y-115647207D01*
X151999891Y-116097682D01*
X152008549Y-116116424D01*
X152010599Y-116136962D01*
X152150873Y-116597198D01*
X152159857Y-116613953D01*
X152162778Y-116632742D01*
X152335281Y-117104478D01*
X152344268Y-117119237D01*
X152347767Y-117136158D01*
X152552976Y-117621134D01*
X152561700Y-117633978D01*
X152565520Y-117649027D01*
X152801093Y-118143069D01*
X153091186Y-118782629D01*
X153449959Y-119666568D01*
X153833396Y-120683042D01*
X154194444Y-121712375D01*
X154920681Y-123847597D01*
X154922086Y-123850027D01*
X154922477Y-123852810D01*
X155523058Y-125573036D01*
X155794298Y-126367179D01*
X155873621Y-126647827D01*
X155927401Y-126896338D01*
X155962288Y-127143222D01*
X155983041Y-127419661D01*
X155995648Y-128200328D01*
X155979487Y-128951985D01*
X155957700Y-129248451D01*
X155923555Y-129527818D01*
X155874516Y-129807937D01*
X155807680Y-130106663D01*
X155600276Y-130859377D01*
X155225680Y-132029813D01*
X155052233Y-132515775D01*
X154925108Y-132832702D01*
X154778868Y-133114795D01*
X154732381Y-133191122D01*
X154213268Y-132672009D01*
X154388757Y-132249382D01*
X154389169Y-131777960D01*
X154209143Y-131342265D01*
X153888270Y-131020831D01*
X154006434Y-130902667D01*
X154187440Y-130631773D01*
X154251000Y-130312233D01*
X154251000Y-129421630D01*
X154430730Y-129421630D01*
X154666047Y-129377352D01*
X154882171Y-129238280D01*
X155027161Y-129026080D01*
X155078170Y-128774190D01*
X155078170Y-127633730D01*
X155033892Y-127398413D01*
X154894820Y-127182289D01*
X154682620Y-127037299D01*
X154500917Y-127000503D01*
X154666047Y-126969432D01*
X154882171Y-126830360D01*
X155027161Y-126618160D01*
X155078170Y-126366270D01*
X155078170Y-125225810D01*
X155033892Y-124990493D01*
X154894820Y-124774369D01*
X154682620Y-124629379D01*
X154430730Y-124578370D01*
X154251000Y-124578370D01*
X154251000Y-124000620D01*
X154305325Y-123929152D01*
X154368994Y-123680160D01*
X154330776Y-123426014D01*
X153988756Y-122486322D01*
X153866665Y-122280341D01*
X153662061Y-122124816D01*
X153413069Y-122061147D01*
X153158923Y-122099365D01*
X152219231Y-122441385D01*
X152013250Y-122563476D01*
X151857725Y-122768080D01*
X151794056Y-123017072D01*
X151832274Y-123271218D01*
X152174294Y-124210910D01*
X152296385Y-124416891D01*
X152500989Y-124572416D01*
X152524273Y-124578370D01*
X152401270Y-124578370D01*
X152165953Y-124622648D01*
X151949829Y-124761720D01*
X151804839Y-124973920D01*
X151753830Y-125225810D01*
X151753830Y-126366270D01*
X151798108Y-126601587D01*
X151937180Y-126817711D01*
X152149380Y-126962701D01*
X152331083Y-126999497D01*
X152165953Y-127030568D01*
X151949829Y-127169640D01*
X151804839Y-127381840D01*
X151753830Y-127633730D01*
X151753830Y-128774190D01*
X151798108Y-129009507D01*
X151937180Y-129225631D01*
X152149380Y-129370621D01*
X152401270Y-129421630D01*
X152581000Y-129421630D01*
X152581000Y-129966365D01*
X152044312Y-130503053D01*
X151222254Y-129680995D01*
X151024551Y-129545910D01*
X150773389Y-129491426D01*
X150520818Y-129538950D01*
X150362008Y-129644272D01*
X150362008Y-129132608D01*
X150298447Y-128813067D01*
X150117442Y-128542174D01*
X148289634Y-126714366D01*
X148220811Y-126668380D01*
X148018741Y-126533361D01*
X147946640Y-126519019D01*
X147946640Y-124754800D01*
X147902362Y-124519483D01*
X147763290Y-124303359D01*
X147551090Y-124158369D01*
X147299200Y-124107360D01*
X143299200Y-124107360D01*
X143063883Y-124151638D01*
X142847759Y-124290710D01*
X142702769Y-124502910D01*
X142651760Y-124754800D01*
X142651760Y-129854800D01*
X142696038Y-130090117D01*
X142835110Y-130306241D01*
X143047310Y-130451231D01*
X143299200Y-130502240D01*
X144237092Y-130502240D01*
X138338132Y-136401200D01*
X128626468Y-136401200D01*
X125912704Y-133687436D01*
X127096169Y-133687436D01*
X128077682Y-134707668D01*
X131308100Y-136142346D01*
X134841646Y-136231589D01*
X138140368Y-134961809D01*
X138520718Y-134707668D01*
X139502231Y-133687436D01*
X133299200Y-127484405D01*
X127096169Y-133687436D01*
X125912704Y-133687436D01*
X122727508Y-130502240D01*
X123299200Y-130502240D01*
X123534517Y-130457962D01*
X123750641Y-130318890D01*
X123895631Y-130106690D01*
X123946640Y-129854800D01*
X123946640Y-128847246D01*
X124372411Y-128847246D01*
X125642191Y-132145968D01*
X125896332Y-132526318D01*
X126916564Y-133507831D01*
X133119595Y-127304800D01*
X133478805Y-127304800D01*
X139681836Y-133507831D01*
X140702068Y-132526318D01*
X142136746Y-129295900D01*
X142225989Y-125762354D01*
X140956209Y-122463632D01*
X140702068Y-122083282D01*
X139681836Y-121101769D01*
X133478805Y-127304800D01*
X133119595Y-127304800D01*
X126916564Y-121101769D01*
X125896332Y-122083282D01*
X124461654Y-125313700D01*
X124372411Y-128847246D01*
X123946640Y-128847246D01*
X123946640Y-124754800D01*
X123902362Y-124519483D01*
X123763290Y-124303359D01*
X123551090Y-124158369D01*
X123299200Y-124107360D01*
X119299200Y-124107360D01*
X119063883Y-124151638D01*
X118847759Y-124290710D01*
X118702769Y-124502910D01*
X118651760Y-124754800D01*
X118651760Y-129854800D01*
X118696038Y-130090117D01*
X118835110Y-130306241D01*
X119047310Y-130451231D01*
X119299200Y-130502240D01*
X120513419Y-130502240D01*
X120527761Y-130574341D01*
X120646797Y-130752491D01*
X120708766Y-130845234D01*
X127690166Y-137826634D01*
X127961060Y-138007640D01*
X128280600Y-138071200D01*
X138684000Y-138071200D01*
X139003541Y-138007639D01*
X139274434Y-137826634D01*
X145889634Y-131211434D01*
X146070640Y-130940540D01*
X146134200Y-130621000D01*
X146134200Y-130502240D01*
X147299200Y-130502240D01*
X147534517Y-130457962D01*
X147750641Y-130318890D01*
X147895631Y-130106690D01*
X147946640Y-129854800D01*
X147946640Y-128733108D01*
X148692008Y-129478476D01*
X148692008Y-131347201D01*
X148538869Y-131448762D01*
X147831762Y-132155869D01*
X147696677Y-132353572D01*
X147642193Y-132604734D01*
X147689717Y-132857305D01*
X147831762Y-133071487D01*
X149599529Y-134839254D01*
X149797232Y-134974339D01*
X150048394Y-135028823D01*
X150221186Y-134996310D01*
X150187777Y-135150318D01*
X150235301Y-135402889D01*
X150377346Y-135617071D01*
X151560836Y-136800561D01*
X151533192Y-136811654D01*
X151381066Y-136910875D01*
X150232304Y-135762113D01*
X150034601Y-135627028D01*
X149783439Y-135572544D01*
X149610647Y-135605057D01*
X149644056Y-135451049D01*
X149596532Y-135198478D01*
X149454487Y-134984296D01*
X147686720Y-133216529D01*
X147489017Y-133081444D01*
X147237855Y-133026960D01*
X146985284Y-133074484D01*
X146771102Y-133216529D01*
X146063995Y-133923636D01*
X145928910Y-134121339D01*
X145874426Y-134372501D01*
X145921950Y-134625072D01*
X146063995Y-134839254D01*
X147386332Y-136161591D01*
X147210843Y-136584218D01*
X147210431Y-137055640D01*
X147390457Y-137491335D01*
X147723512Y-137824972D01*
X148158892Y-138005757D01*
X148630314Y-138006169D01*
X149055306Y-137830565D01*
X149413806Y-138189065D01*
X148541883Y-138748025D01*
X148079455Y-139014372D01*
X147655993Y-139222292D01*
X147198850Y-139405535D01*
X146635941Y-139593852D01*
X144933936Y-140091857D01*
X143151807Y-140579837D01*
X142444410Y-140750734D01*
X141808537Y-140883440D01*
X141210380Y-140984720D01*
X140612113Y-141061773D01*
X139975935Y-141121211D01*
X139261783Y-141169400D01*
X137236379Y-141298371D01*
X136928715Y-141308265D01*
X136546072Y-141300763D01*
X136134588Y-141277391D01*
X135747535Y-141240006D01*
X135126373Y-141154853D01*
X134432723Y-141043165D01*
X133715412Y-140912597D01*
X133015094Y-140769877D01*
X132373638Y-140622236D01*
X131836138Y-140478293D01*
X131446439Y-140348232D01*
X131353825Y-140307873D01*
X131278270Y-140263595D01*
X131242752Y-140251281D01*
X131212111Y-140229511D01*
X131078073Y-140169431D01*
X131045596Y-140161997D01*
X131016707Y-140145399D01*
X130772416Y-140063049D01*
X130755335Y-140060837D01*
X130739992Y-140053006D01*
X130454108Y-139972166D01*
X130431921Y-139970405D01*
X130411491Y-139961578D01*
X130152674Y-139906018D01*
X130146792Y-139905929D01*
X130141352Y-139903687D01*
X129615704Y-139800093D01*
X129089961Y-139658718D01*
X128536927Y-139475931D01*
X127956625Y-139253918D01*
X127349118Y-138995254D01*
X126716821Y-138703900D01*
X125366400Y-138030392D01*
X124880062Y-137759602D01*
X124291407Y-137400717D01*
X123643001Y-136982165D01*
X122980704Y-136535056D01*
X122348848Y-136089880D01*
X121792621Y-135678076D01*
X121361761Y-135335423D01*
X121099912Y-135096165D01*
X120830823Y-134799601D01*
X120544929Y-134460115D01*
X119947350Y-133679420D01*
X119345856Y-132803690D01*
X118751565Y-131851086D01*
X118178395Y-130844202D01*
X117639708Y-129805335D01*
X117148659Y-128756949D01*
X116720081Y-127726283D01*
X116463816Y-126976178D01*
X116292247Y-126444046D01*
X115510863Y-123739108D01*
X115368664Y-123211332D01*
X115227464Y-122599716D01*
X115086684Y-121902559D01*
X114948543Y-121130701D01*
X114916969Y-120922164D01*
X127096169Y-120922164D01*
X133299200Y-127125195D01*
X139502231Y-120922164D01*
X138520718Y-119901932D01*
X135290300Y-118467254D01*
X131756754Y-118378011D01*
X128458032Y-119647791D01*
X128077682Y-119901932D01*
X127096169Y-120922164D01*
X114916969Y-120922164D01*
X114682656Y-119374629D01*
X114441621Y-117399155D01*
X114343302Y-116286114D01*
X114286315Y-115135711D01*
X114270271Y-113955161D01*
X114294936Y-112754853D01*
X114360009Y-111544959D01*
X114465114Y-110335701D01*
X114598563Y-109230467D01*
X123552838Y-109230467D01*
X123694883Y-109574243D01*
X123957673Y-109837492D01*
X124301201Y-109980138D01*
X124673167Y-109980462D01*
X125016943Y-109838417D01*
X125280192Y-109575627D01*
X125422838Y-109232099D01*
X125423162Y-108860133D01*
X125281117Y-108516357D01*
X125018327Y-108253108D01*
X124674799Y-108110462D01*
X124302833Y-108110138D01*
X123959057Y-108252183D01*
X123695808Y-108514973D01*
X123553162Y-108858501D01*
X123552838Y-109230467D01*
X114598563Y-109230467D01*
X114609820Y-109137243D01*
X114795260Y-107949284D01*
X114830510Y-107731867D01*
X133458838Y-107731867D01*
X133600883Y-108075643D01*
X133863673Y-108338892D01*
X134207201Y-108481538D01*
X134579167Y-108481862D01*
X134922943Y-108339817D01*
X135186192Y-108077027D01*
X135328838Y-107733499D01*
X135329162Y-107361533D01*
X135187117Y-107017757D01*
X134924327Y-106754508D01*
X134580799Y-106611862D01*
X134208833Y-106611538D01*
X133865057Y-106753583D01*
X133601808Y-107016373D01*
X133459162Y-107359901D01*
X133458838Y-107731867D01*
X114830510Y-107731867D01*
X114973896Y-106847493D01*
X114973523Y-106837023D01*
X114976889Y-106827098D01*
X115022209Y-106482167D01*
X115020196Y-106451583D01*
X115027438Y-106421799D01*
X115033238Y-106284284D01*
X115030907Y-106269286D01*
X115033845Y-106254398D01*
X115017595Y-106173332D01*
X139787003Y-106173332D01*
X139929048Y-106517108D01*
X140191838Y-106780357D01*
X140535366Y-106923003D01*
X140907332Y-106923327D01*
X141251108Y-106781282D01*
X141514357Y-106518492D01*
X141657003Y-106174964D01*
X141657327Y-105802998D01*
X141515282Y-105459222D01*
X141252492Y-105195973D01*
X140908964Y-105053327D01*
X140536998Y-105053003D01*
X140193222Y-105195048D01*
X139929973Y-105457838D01*
X139787327Y-105801366D01*
X139787003Y-106173332D01*
X115017595Y-106173332D01*
X115010461Y-106137745D01*
X114992187Y-106020182D01*
X114984295Y-106007220D01*
X114981312Y-105992338D01*
X114915062Y-105893506D01*
X114853195Y-105791892D01*
X114840943Y-105782936D01*
X114832492Y-105770329D01*
X114733463Y-105704373D01*
X114637420Y-105634170D01*
X114622674Y-105630585D01*
X114610041Y-105622171D01*
X114493310Y-105599132D01*
X114377712Y-105571027D01*
X114362716Y-105573358D01*
X114347826Y-105570419D01*
X114257836Y-105570553D01*
X114211804Y-105579781D01*
X114164934Y-105577021D01*
X113949357Y-105606861D01*
X113933273Y-105612440D01*
X113916251Y-105612273D01*
X113240282Y-105739839D01*
X112874755Y-105805782D01*
X112552635Y-105842735D01*
X112253354Y-105854625D01*
X111970282Y-105842434D01*
X111695898Y-105806437D01*
X111422213Y-105745799D01*
X111141846Y-105658720D01*
X110831304Y-105536090D01*
X110023936Y-105207469D01*
X110017539Y-105206237D01*
X110012031Y-105202752D01*
X108930107Y-104785780D01*
X108356914Y-104546590D01*
X107711468Y-104239223D01*
X107071759Y-103902744D01*
X106516196Y-103576265D01*
X105400194Y-102883265D01*
X105395157Y-102881373D01*
X105391172Y-102877759D01*
X104410797Y-102289740D01*
X104027306Y-102055368D01*
X103590967Y-101770148D01*
X102654374Y-101117353D01*
X101872173Y-100526856D01*
X101647362Y-100337617D01*
X101562904Y-100248727D01*
X101380903Y-100013164D01*
X101369202Y-100002971D01*
X101361679Y-99989398D01*
X101003487Y-99566242D01*
X101003119Y-99565949D01*
X101002891Y-99565539D01*
X100508533Y-98983114D01*
X100035204Y-98394502D01*
X99577907Y-97794388D01*
X99137682Y-97184587D01*
X98715646Y-96567043D01*
X98312780Y-95943535D01*
X97930101Y-95315904D01*
X97568629Y-94686019D01*
X97229401Y-94055812D01*
X96913396Y-93427149D01*
X96621636Y-92802015D01*
X96355063Y-92182294D01*
X96114637Y-91569969D01*
X95901307Y-90967084D01*
X95715963Y-90375669D01*
X95558705Y-89795031D01*
X95334060Y-88837720D01*
X95264119Y-88474681D01*
X95216022Y-88148970D01*
X95185914Y-87833640D01*
X95170552Y-87501450D01*
X95173790Y-86649699D01*
X95189897Y-86246003D01*
X95220670Y-85831581D01*
X95326987Y-84949499D01*
X95486993Y-84040748D01*
X95696683Y-83120845D01*
X95951033Y-82210428D01*
X96244633Y-81330163D01*
X96571583Y-80500830D01*
X96926903Y-79739885D01*
X97428485Y-78819710D01*
X98041052Y-77799915D01*
X98733016Y-76727440D01*
X99473516Y-75646775D01*
X99895510Y-75065167D01*
X127164838Y-75065167D01*
X127306883Y-75408943D01*
X127569673Y-75672192D01*
X127913201Y-75814838D01*
X128285167Y-75815162D01*
X128628943Y-75673117D01*
X128892192Y-75410327D01*
X129034838Y-75066799D01*
X129035162Y-74694833D01*
X128893117Y-74351057D01*
X128630327Y-74087808D01*
X128527637Y-74045167D01*
X134184838Y-74045167D01*
X134326883Y-74388943D01*
X134589673Y-74652192D01*
X134933201Y-74794838D01*
X135043466Y-74794934D01*
X135099161Y-74832148D01*
X135390000Y-74890000D01*
X137536137Y-74890000D01*
X137568273Y-74922192D01*
X137911801Y-75064838D01*
X138283767Y-75065162D01*
X138627543Y-74923117D01*
X138890792Y-74660327D01*
X139033438Y-74316799D01*
X139033762Y-73944833D01*
X138891717Y-73601057D01*
X138628927Y-73337808D01*
X138285399Y-73195162D01*
X137913433Y-73194838D01*
X137569657Y-73336883D01*
X137536482Y-73370000D01*
X135929208Y-73370000D01*
X135913117Y-73331057D01*
X135650327Y-73067808D01*
X135306799Y-72925162D01*
X134934833Y-72924838D01*
X134591057Y-73066883D01*
X134327808Y-73329673D01*
X134185162Y-73673201D01*
X134184838Y-74045167D01*
X128527637Y-74045167D01*
X128286799Y-73945162D01*
X127914833Y-73944838D01*
X127571057Y-74086883D01*
X127307808Y-74349673D01*
X127165162Y-74693201D01*
X127164838Y-75065167D01*
X99895510Y-75065167D01*
X100231760Y-74601736D01*
X100976630Y-73636126D01*
X101678925Y-72790856D01*
X101998062Y-72433801D01*
X102296146Y-72120991D01*
X102714469Y-71710276D01*
X103154428Y-71300398D01*
X104105722Y-70476253D01*
X105123954Y-69669688D01*
X106197172Y-68888894D01*
X107310041Y-68144741D01*
X108447200Y-67447913D01*
X109596604Y-66807065D01*
X110164791Y-66514232D01*
X110735222Y-66236804D01*
X114304239Y-64570923D01*
X115428299Y-64062731D01*
X116176120Y-63741614D01*
X116178286Y-63740126D01*
X116180851Y-63739561D01*
X117938583Y-62969056D01*
X118109723Y-62925480D01*
X118146091Y-62908106D01*
X118185817Y-62901303D01*
X118593994Y-62744885D01*
X118606922Y-62736738D01*
X118621860Y-62733499D01*
X119154643Y-62502000D01*
X119163446Y-62495897D01*
X119173838Y-62493306D01*
X119772945Y-62210774D01*
X120472208Y-61881821D01*
X121283301Y-61520990D01*
X122109368Y-61170259D01*
X122851243Y-60872803D01*
X124519109Y-60216707D01*
X124522082Y-60214797D01*
X124525550Y-60214135D01*
X126251590Y-59514896D01*
X126253226Y-59513821D01*
X126255149Y-59513443D01*
X129787029Y-58059510D01*
X129790849Y-58056970D01*
X129795340Y-58056025D01*
X130523896Y-57744836D01*
X130531679Y-57739511D01*
X130540850Y-57737321D01*
X131219101Y-57425649D01*
X131228327Y-57418963D01*
X131239316Y-57415956D01*
X131791491Y-57139988D01*
X131809044Y-57126370D01*
X131830051Y-57119148D01*
X132180377Y-56915075D01*
X132196446Y-56900873D01*
X132216257Y-56892662D01*
X134161647Y-55592253D01*
X134163402Y-55590497D01*
X134165687Y-55589531D01*
X135486921Y-54692685D01*
X135492594Y-54686928D01*
X135499966Y-54683608D01*
X136707099Y-53822640D01*
X137627084Y-53169970D01*
X137991459Y-52930411D01*
X138244613Y-52780541D01*
X138247750Y-52777729D01*
X138251705Y-52776284D01*
X138777548Y-52456343D01*
X138794506Y-52440767D01*
X138815561Y-52431450D01*
X139435648Y-51995335D01*
X139435740Y-51995239D01*
X139435859Y-51995186D01*
X139765276Y-51763319D01*
X140165090Y-51506559D01*
X140592969Y-51250724D01*
X140998678Y-51027243D01*
X143021629Y-49950296D01*
X143501544Y-49701183D01*
X144020092Y-49450287D01*
X144515140Y-49226469D01*
X144930319Y-49056226D01*
X145821213Y-48697914D01*
X145829784Y-48692314D01*
X145839786Y-48690125D01*
X146743117Y-48295576D01*
X147357386Y-48036116D01*
X147654261Y-47932478D01*
X147995747Y-47829584D01*
X148911090Y-47601047D01*
X148892031Y-47613782D01*
X148857737Y-47624396D01*
X148848877Y-47631751D01*
X148837980Y-47635523D01*
X147869417Y-48202487D01*
X147788191Y-48274586D01*
X147701824Y-48340443D01*
X147688842Y-48362772D01*
X147669530Y-48379914D01*
X147622078Y-48477607D01*
X147567488Y-48571504D01*
X147564040Y-48597097D01*
X147552756Y-48620328D01*
X147546302Y-48728741D01*
X147531799Y-48836384D01*
X147579049Y-49592336D01*
X147607880Y-49701250D01*
X147629858Y-49811742D01*
X147641897Y-49829760D01*
X147647443Y-49850710D01*
X147715755Y-49940297D01*
X147778347Y-50033972D01*
X147796366Y-50046012D01*
X147809506Y-50063244D01*
X147906899Y-50119868D01*
X148000577Y-50182461D01*
X148021833Y-50186689D01*
X148040567Y-50197581D01*
X148152216Y-50212624D01*
X148262715Y-50234604D01*
X159483890Y-50234604D01*
X159493647Y-50232663D01*
X159503459Y-50234325D01*
X159624384Y-50206658D01*
X159746028Y-50182461D01*
X159754301Y-50176933D01*
X159764000Y-50174714D01*
X159865123Y-50102884D01*
X159968258Y-50033972D01*
X159973786Y-50025699D01*
X159981898Y-50019937D01*
X160047837Y-49914873D01*
X160116747Y-49811742D01*
X160118688Y-49801983D01*
X160123977Y-49793556D01*
X160144689Y-49671271D01*
X160168890Y-49549604D01*
X160166949Y-49539845D01*
X160168610Y-49530036D01*
X160144980Y-48703212D01*
X160133351Y-48652384D01*
X160134211Y-48600245D01*
X160103819Y-48523305D01*
X160085370Y-48442671D01*
X160055175Y-48400161D01*
X160036017Y-48351663D01*
X159978497Y-48292214D01*
X159930593Y-48224773D01*
X159886426Y-48197053D01*
X159850169Y-48159580D01*
X158928853Y-47521745D01*
X158883188Y-47501941D01*
X158843796Y-47471522D01*
X158761694Y-47449252D01*
X158683645Y-47415404D01*
X158633880Y-47414583D01*
X158585843Y-47401553D01*
X153766646Y-47070824D01*
X153707826Y-47078384D01*
X153648777Y-47072903D01*
X149214001Y-47534859D01*
X150304296Y-47298523D01*
X150883787Y-47199856D01*
X151584817Y-47119385D01*
X152386937Y-47058223D01*
X153259372Y-47018172D01*
X154173204Y-47000441D01*
X155100212Y-47005986D01*
X155100212Y-47005986D01*
G37*
X155100212Y-47005986D02*
X156012134Y-47035594D01*
X156883699Y-47090051D01*
X157952349Y-47186419D01*
X158313439Y-47237025D01*
X158618878Y-47300425D01*
X158917168Y-47386984D01*
X159256223Y-47510207D01*
X160231653Y-47921344D01*
X160916001Y-48234721D01*
X161555156Y-48556183D01*
X162065875Y-48840976D01*
X162385911Y-49054047D01*
X162956027Y-49474280D01*
X162975581Y-49483458D01*
X162991101Y-49498487D01*
X163588682Y-49884026D01*
X164053828Y-50188656D01*
X164564147Y-50580780D01*
X165123337Y-51060084D01*
X165708525Y-51606517D01*
X166299185Y-52200899D01*
X166875812Y-52824412D01*
X167419164Y-53458051D01*
X167911784Y-54084478D01*
X168429797Y-54805897D01*
X168919407Y-55549420D01*
X169386684Y-56326823D01*
X169838667Y-57151593D01*
X170282051Y-58036950D01*
X170723319Y-58995905D01*
X171168777Y-60041147D01*
X171627047Y-61191136D01*
X171629109Y-61194314D01*
X171629838Y-61198030D01*
X172140221Y-62439429D01*
X172165224Y-62536613D01*
X172176889Y-62560876D01*
X172180462Y-62587558D01*
X172280708Y-62880747D01*
X172286693Y-62891061D01*
X172288680Y-62902821D01*
X172617826Y-63767502D01*
X172819645Y-64300262D01*
X173027153Y-64891445D01*
X173217466Y-65472924D01*
X173367937Y-65978476D01*
X173370603Y-65983527D01*
X173371226Y-65989204D01*
X173555684Y-66573751D01*
X173561815Y-66584920D01*
X173563668Y-66597527D01*
X173844524Y-67385766D01*
X173848497Y-67392415D01*
X173849793Y-67400048D01*
X174188869Y-68288711D01*
X174192698Y-68294806D01*
X174194049Y-68301878D01*
X174553169Y-69187695D01*
X174554201Y-69189265D01*
X174554564Y-69191110D01*
X175161062Y-70664284D01*
X175411417Y-71325243D01*
X175419064Y-71337483D01*
X175422034Y-71351609D01*
X175526004Y-71595092D01*
X175537576Y-71612010D01*
X175542969Y-71631784D01*
X175822825Y-72192972D01*
X175826846Y-72198164D01*
X175828693Y-72204467D01*
X176723731Y-73917672D01*
X176726471Y-73921076D01*
X176727752Y-73925252D01*
X177749343Y-75822405D01*
X177753488Y-75827424D01*
X177755513Y-75833612D01*
X178518998Y-77190130D01*
X178519242Y-77190414D01*
X178519359Y-77190771D01*
X179064595Y-78157089D01*
X179524972Y-79059992D01*
X180795552Y-81701747D01*
X180795811Y-81702092D01*
X180795919Y-81702508D01*
X182368899Y-84962703D01*
X182370224Y-84964462D01*
X182370789Y-84966588D01*
X182671011Y-85578936D01*
X182675736Y-85585123D01*
X182677901Y-85592601D01*
X182969541Y-86155283D01*
X182975602Y-86162862D01*
X182978559Y-86172104D01*
X183228279Y-86622716D01*
X183241159Y-86637933D01*
X183248316Y-86656546D01*
X183422775Y-86932687D01*
X183429324Y-86939580D01*
X183432978Y-86948359D01*
X183574520Y-87159411D01*
X183744307Y-87443980D01*
X184122811Y-88154180D01*
X184497077Y-88868136D01*
X184510153Y-88884333D01*
X184517221Y-88903913D01*
X184827207Y-89417805D01*
X184831253Y-89422244D01*
X184833388Y-89427854D01*
X184989908Y-89677508D01*
X185229679Y-90095454D01*
X185851914Y-91246709D01*
X185852604Y-91247542D01*
X185852927Y-91248577D01*
X186544258Y-92518241D01*
X186549682Y-92524747D01*
X186552399Y-92532768D01*
X186873502Y-93089806D01*
X186879601Y-93096770D01*
X186882802Y-93105454D01*
X187132318Y-93512885D01*
X187132582Y-93513171D01*
X187132717Y-93513536D01*
X187566275Y-94219716D01*
X187921193Y-94879797D01*
X188210444Y-95517164D01*
X188438936Y-96142539D01*
X188611466Y-96767838D01*
X188732158Y-97405749D01*
X188804153Y-98069110D01*
X188829746Y-98771125D01*
X188809440Y-99684724D01*
X188744012Y-100664753D01*
X188638306Y-101674357D01*
X188497567Y-102678227D01*
X188327392Y-103641088D01*
X188133917Y-104526992D01*
X187922672Y-105304817D01*
X187816609Y-105629950D01*
X187709273Y-105915673D01*
X187579288Y-106211943D01*
X187421875Y-106528857D01*
X187011267Y-107248949D01*
X186497041Y-108038369D01*
X185885881Y-108886969D01*
X185188044Y-109779850D01*
X184413507Y-110703163D01*
X183572227Y-111643457D01*
X182673205Y-112588500D01*
X181871213Y-113386827D01*
X181148736Y-114060251D01*
X180484120Y-114624691D01*
X179853040Y-115099000D01*
X179229057Y-115503328D01*
X178583472Y-115858002D01*
X177886876Y-116181981D01*
X177117951Y-116489708D01*
X176402012Y-116727168D01*
X175463956Y-116991554D01*
X174381990Y-117264347D01*
X173237422Y-117527138D01*
X172109310Y-117762501D01*
X171077264Y-117953185D01*
X170219094Y-118082709D01*
X169894489Y-118118031D01*
X169638766Y-118133477D01*
X169175961Y-118144321D01*
X169149484Y-118150236D01*
X169122474Y-118147671D01*
X168071880Y-118254867D01*
X168055979Y-118259751D01*
X168039366Y-118258973D01*
X167958186Y-118271203D01*
X167940007Y-118277754D01*
X167894742Y-118281971D01*
X166607255Y-118392803D01*
X165975408Y-118394853D01*
X165326188Y-118362855D01*
X164673847Y-118297324D01*
X164023052Y-118198966D01*
X163378431Y-118068557D01*
X162744703Y-117906983D01*
X162126478Y-117715209D01*
X161512184Y-117488321D01*
X160786667Y-117216157D01*
X160913427Y-117163781D01*
X161231663Y-116846100D01*
X161245098Y-116813745D01*
X161338481Y-116852521D01*
X161497858Y-116852660D01*
X161728500Y-117083302D01*
X161975062Y-117248049D01*
X162265901Y-117305901D01*
X167755881Y-117305901D01*
X168046720Y-117248049D01*
X168293282Y-117083302D01*
X173537401Y-111839183D01*
X173702148Y-111592622D01*
X173760000Y-111301782D01*
X173760000Y-107897440D01*
X174250000Y-107897440D01*
X174485317Y-107853162D01*
X174701441Y-107714090D01*
X174846431Y-107501890D01*
X174897440Y-107250000D01*
X174897440Y-104750000D01*
X174853162Y-104514683D01*
X174714090Y-104298559D01*
X174501890Y-104153569D01*
X174250000Y-104102560D01*
X171750000Y-104102560D01*
X171514683Y-104146838D01*
X171298559Y-104285910D01*
X171153569Y-104498110D01*
X171102560Y-104750000D01*
X171102560Y-107250000D01*
X171146838Y-107485317D01*
X171285910Y-107701441D01*
X171498110Y-107846431D01*
X171750000Y-107897440D01*
X172240000Y-107897440D01*
X172240000Y-110986980D01*
X168765171Y-114461809D01*
X168535100Y-114231337D01*
X168119817Y-114058897D01*
X167670156Y-114058504D01*
X167552421Y-114107151D01*
X167496598Y-113972050D01*
X167207472Y-113682419D01*
X166829519Y-113525479D01*
X166670142Y-113525340D01*
X166145401Y-113000599D01*
X165898839Y-112835852D01*
X165608000Y-112778000D01*
X163972802Y-112778000D01*
X159900411Y-108705609D01*
X159900411Y-108674391D01*
X161137755Y-107437047D01*
X161146838Y-107485317D01*
X161285910Y-107701441D01*
X161498110Y-107846431D01*
X161750000Y-107897440D01*
X164250000Y-107897440D01*
X164485317Y-107853162D01*
X164701441Y-107714090D01*
X164846431Y-107501890D01*
X164897440Y-107250000D01*
X164897440Y-104750000D01*
X166102560Y-104750000D01*
X166102560Y-107250000D01*
X166146838Y-107485317D01*
X166285910Y-107701441D01*
X166498110Y-107846431D01*
X166750000Y-107897440D01*
X169250000Y-107897440D01*
X169485317Y-107853162D01*
X169701441Y-107714090D01*
X169846431Y-107501890D01*
X169897440Y-107250000D01*
X169897440Y-104750000D01*
X169853162Y-104514683D01*
X169714090Y-104298559D01*
X169501890Y-104153569D01*
X169250000Y-104102560D01*
X166750000Y-104102560D01*
X166514683Y-104146838D01*
X166298559Y-104285910D01*
X166153569Y-104498110D01*
X166102560Y-104750000D01*
X164897440Y-104750000D01*
X164853162Y-104514683D01*
X164714090Y-104298559D01*
X164501890Y-104153569D01*
X164250000Y-104102560D01*
X161750000Y-104102560D01*
X161514683Y-104146838D01*
X161298559Y-104285910D01*
X161153569Y-104498110D01*
X161102560Y-104750000D01*
X161102560Y-105369080D01*
X160962599Y-105462599D01*
X159900411Y-106524787D01*
X159900411Y-102181677D01*
X159842559Y-101890838D01*
X159677812Y-101644276D01*
X158967126Y-100933590D01*
X158720564Y-100768843D01*
X158429725Y-100710991D01*
X156919000Y-100710991D01*
X156919000Y-99445750D01*
X156760250Y-99287000D01*
X156111000Y-99287000D01*
X156111000Y-99307000D01*
X155857000Y-99307000D01*
X155857000Y-99287000D01*
X155837000Y-99287000D01*
X155837000Y-99033000D01*
X155857000Y-99033000D01*
X155857000Y-99013000D01*
X156111000Y-99013000D01*
X156111000Y-99033000D01*
X156760250Y-99033000D01*
X156919000Y-98874250D01*
X156919000Y-97433690D01*
X156822327Y-97200301D01*
X156815305Y-97193279D01*
X157039201Y-97286249D01*
X157411167Y-97286573D01*
X157754943Y-97144528D01*
X157788118Y-97111411D01*
X159536416Y-97111411D01*
X159337808Y-97309673D01*
X159195162Y-97653201D01*
X159194838Y-98025167D01*
X159336883Y-98368943D01*
X159599673Y-98632192D01*
X159943201Y-98774838D01*
X160315167Y-98775162D01*
X160658943Y-98633117D01*
X160692118Y-98600000D01*
X160705198Y-98600000D01*
X164354878Y-102249680D01*
X164354838Y-102295167D01*
X164496883Y-102638943D01*
X164759673Y-102902192D01*
X165103201Y-103044838D01*
X165475167Y-103045162D01*
X165818943Y-102903117D01*
X166082192Y-102640327D01*
X166224838Y-102296799D01*
X166225162Y-101924833D01*
X166083117Y-101581057D01*
X165820327Y-101317808D01*
X165476799Y-101175162D01*
X165429923Y-101175121D01*
X162309969Y-98055167D01*
X166084838Y-98055167D01*
X166226883Y-98398943D01*
X166489673Y-98662192D01*
X166833201Y-98804838D01*
X167205167Y-98805162D01*
X167548943Y-98663117D01*
X167582118Y-98630000D01*
X173675480Y-98630000D01*
X173966319Y-98572148D01*
X174212881Y-98407401D01*
X175584101Y-97036181D01*
X175748848Y-96789619D01*
X175806700Y-96498780D01*
X175806700Y-96412463D01*
X175838892Y-96380327D01*
X175981538Y-96036799D01*
X175981862Y-95664833D01*
X175839817Y-95321057D01*
X175577027Y-95057808D01*
X175233499Y-94915162D01*
X174861533Y-94914838D01*
X174517757Y-95056883D01*
X174254508Y-95319673D01*
X174111862Y-95663201D01*
X174111538Y-96035167D01*
X174206262Y-96264416D01*
X173360678Y-97110000D01*
X167582463Y-97110000D01*
X167550327Y-97077808D01*
X167206799Y-96935162D01*
X166834833Y-96934838D01*
X166491057Y-97076883D01*
X166227808Y-97339673D01*
X166085162Y-97683201D01*
X166084838Y-98055167D01*
X162309969Y-98055167D01*
X161557401Y-97302599D01*
X161310839Y-97137852D01*
X161177912Y-97111411D01*
X165518823Y-97111411D01*
X165809662Y-97053559D01*
X166056224Y-96888812D01*
X169805036Y-93140000D01*
X172288237Y-93140000D01*
X172320373Y-93172192D01*
X172663901Y-93314838D01*
X173035867Y-93315162D01*
X173379643Y-93173117D01*
X173642892Y-92910327D01*
X173785538Y-92566799D01*
X173785862Y-92194833D01*
X173643817Y-91851057D01*
X173381027Y-91587808D01*
X173037499Y-91445162D01*
X172665533Y-91444838D01*
X172321757Y-91586883D01*
X172288582Y-91620000D01*
X170684102Y-91620000D01*
X172238980Y-90065122D01*
X172284467Y-90065162D01*
X172628243Y-89923117D01*
X172891492Y-89660327D01*
X173034138Y-89316799D01*
X173034462Y-88944833D01*
X172892417Y-88601057D01*
X172629627Y-88337808D01*
X172286099Y-88195162D01*
X171914133Y-88194838D01*
X171570357Y-88336883D01*
X171307108Y-88599673D01*
X171164462Y-88943201D01*
X171164421Y-88990077D01*
X165694498Y-94460000D01*
X158578463Y-94460000D01*
X158546327Y-94427808D01*
X158202799Y-94285162D01*
X157830833Y-94284838D01*
X157487057Y-94426883D01*
X157453882Y-94460000D01*
X156804000Y-94460000D01*
X156513160Y-94517852D01*
X156415413Y-94583165D01*
X156260327Y-94427808D01*
X155916799Y-94285162D01*
X155746855Y-94285014D01*
X155874838Y-93976799D01*
X155875162Y-93604833D01*
X155733117Y-93261057D01*
X155470327Y-92997808D01*
X155126799Y-92855162D01*
X154938000Y-92854998D01*
X154938000Y-89987736D01*
X160175736Y-84750000D01*
X164770000Y-84750000D01*
X165060839Y-84692148D01*
X165307401Y-84527401D01*
X165444802Y-84390000D01*
X165786837Y-84390000D01*
X165818973Y-84422192D01*
X166162501Y-84564838D01*
X166534467Y-84565162D01*
X166878243Y-84423117D01*
X167141492Y-84160327D01*
X167284138Y-83816799D01*
X167284462Y-83444833D01*
X167142417Y-83101057D01*
X166879627Y-82837808D01*
X166536099Y-82695162D01*
X166164133Y-82694838D01*
X165820357Y-82836883D01*
X165787182Y-82870000D01*
X165376024Y-82870000D01*
X160300348Y-77794324D01*
X160053786Y-77629577D01*
X159762947Y-77571725D01*
X158915302Y-77571725D01*
X155738621Y-74395044D01*
X155738621Y-62714701D01*
X155728000Y-62661306D01*
X155728000Y-62617763D01*
X155760192Y-62585627D01*
X155902838Y-62242099D01*
X155903162Y-61870133D01*
X155761117Y-61526357D01*
X155498327Y-61263108D01*
X155154799Y-61120462D01*
X155086480Y-61120402D01*
X158553401Y-57653481D01*
X158718148Y-57406919D01*
X158776000Y-57116080D01*
X158776000Y-57029763D01*
X158808192Y-56997627D01*
X158950838Y-56654099D01*
X158951162Y-56282133D01*
X158809117Y-55938357D01*
X158546327Y-55675108D01*
X158202799Y-55532462D01*
X157830833Y-55532138D01*
X157487057Y-55674183D01*
X157223808Y-55936973D01*
X157081162Y-56280501D01*
X157080838Y-56652467D01*
X157175562Y-56881716D01*
X147292599Y-66764679D01*
X147127852Y-67011241D01*
X147070000Y-67302080D01*
X147070000Y-68747537D01*
X147037808Y-68779673D01*
X146895162Y-69123201D01*
X146894838Y-69495167D01*
X147036883Y-69838943D01*
X147299673Y-70102192D01*
X147643201Y-70244838D01*
X148015167Y-70245162D01*
X148245799Y-70149867D01*
X148245799Y-72309399D01*
X146865198Y-73690000D01*
X144282463Y-73690000D01*
X144250327Y-73657808D01*
X143906799Y-73515162D01*
X143534833Y-73514838D01*
X143191057Y-73656883D01*
X143157882Y-73690000D01*
X142981641Y-73690000D01*
X142879627Y-73587808D01*
X142536099Y-73445162D01*
X142164133Y-73444838D01*
X141820357Y-73586883D01*
X141557108Y-73849673D01*
X141414462Y-74193201D01*
X141414138Y-74565167D01*
X141556183Y-74908943D01*
X141818973Y-75172192D01*
X142162501Y-75314838D01*
X142534467Y-75315162D01*
X142788979Y-75210000D01*
X143157537Y-75210000D01*
X143189673Y-75242192D01*
X143533201Y-75384838D01*
X143905167Y-75385162D01*
X144248943Y-75243117D01*
X144282118Y-75210000D01*
X146213489Y-75210000D01*
X147646889Y-76643400D01*
X120186522Y-76643400D01*
X120131027Y-76587808D01*
X119787499Y-76445162D01*
X119415533Y-76444838D01*
X119071757Y-76586883D01*
X118808508Y-76849673D01*
X118665862Y-77193201D01*
X118665616Y-77475161D01*
X118294833Y-77474838D01*
X117951057Y-77616883D01*
X117687808Y-77879673D01*
X117588015Y-78120000D01*
X116163163Y-78120000D01*
X116131027Y-78087808D01*
X115787499Y-77945162D01*
X115415533Y-77944838D01*
X115071757Y-78086883D01*
X114808508Y-78349673D01*
X114665862Y-78693201D01*
X114665538Y-79065167D01*
X114807583Y-79408943D01*
X115070373Y-79672192D01*
X115413901Y-79814838D01*
X115785867Y-79815162D01*
X116129643Y-79673117D01*
X116162818Y-79640000D01*
X117743400Y-79640000D01*
X117743400Y-81964178D01*
X117687808Y-82019673D01*
X117545162Y-82363201D01*
X117544838Y-82735167D01*
X117686883Y-83078943D01*
X117949673Y-83342192D01*
X118293201Y-83484838D01*
X118665167Y-83485162D01*
X119008943Y-83343117D01*
X119272192Y-83080327D01*
X119414838Y-82736799D01*
X119415162Y-82364833D01*
X119273117Y-82021057D01*
X119216600Y-81964441D01*
X119216600Y-81226550D01*
X128054200Y-81226550D01*
X128054200Y-83067109D01*
X128150873Y-83300498D01*
X128329501Y-83479127D01*
X128562890Y-83575800D01*
X129203450Y-83575800D01*
X129362200Y-83417050D01*
X129362200Y-81067800D01*
X129616200Y-81067800D01*
X129616200Y-83417050D01*
X129774950Y-83575800D01*
X130415510Y-83575800D01*
X130648899Y-83479127D01*
X130827527Y-83300498D01*
X130924200Y-83067109D01*
X130924200Y-81226550D01*
X130765450Y-81067800D01*
X129616200Y-81067800D01*
X129362200Y-81067800D01*
X128212950Y-81067800D01*
X128054200Y-81226550D01*
X119216600Y-81226550D01*
X119216600Y-78995822D01*
X119272192Y-78940327D01*
X119324443Y-78814491D01*
X128054200Y-78814491D01*
X128054200Y-80655050D01*
X128212950Y-80813800D01*
X129362200Y-80813800D01*
X129362200Y-78464550D01*
X129616200Y-78464550D01*
X129616200Y-80813800D01*
X130765450Y-80813800D01*
X130924200Y-80655050D01*
X130924200Y-78814491D01*
X130827527Y-78581102D01*
X130648899Y-78402473D01*
X130415510Y-78305800D01*
X129774950Y-78305800D01*
X129616200Y-78464550D01*
X129362200Y-78464550D01*
X129203450Y-78305800D01*
X128562890Y-78305800D01*
X128329501Y-78402473D01*
X128150873Y-78581102D01*
X128054200Y-78814491D01*
X119324443Y-78814491D01*
X119414838Y-78596799D01*
X119415084Y-78314839D01*
X119785867Y-78315162D01*
X120129643Y-78173117D01*
X120186259Y-78116600D01*
X154263478Y-78116600D01*
X154318973Y-78172192D01*
X154662501Y-78314838D01*
X154717501Y-78314886D01*
X154717501Y-86138115D01*
X152589940Y-88265676D01*
X152430265Y-88504646D01*
X152414293Y-88584945D01*
X152318603Y-88680468D01*
X152175957Y-89023996D01*
X152175887Y-89103993D01*
X151456480Y-89823400D01*
X148774894Y-89823400D01*
X148493009Y-89879470D01*
X148254039Y-90039145D01*
X145754585Y-92538599D01*
X139604801Y-92538599D01*
X139322916Y-92594669D01*
X139109918Y-92736990D01*
X129003090Y-92736990D01*
X128721205Y-92793060D01*
X128482235Y-92952735D01*
X126924649Y-94510321D01*
X126706799Y-94419862D01*
X126334833Y-94419538D01*
X125991057Y-94561583D01*
X125932221Y-94620317D01*
X122065094Y-90753190D01*
X122065162Y-90674639D01*
X121923117Y-90330863D01*
X121863614Y-90271256D01*
X123824870Y-88310000D01*
X128041760Y-88310000D01*
X128041760Y-91340800D01*
X128086038Y-91576117D01*
X128225110Y-91792241D01*
X128437310Y-91937231D01*
X128689200Y-91988240D01*
X130289200Y-91988240D01*
X130524517Y-91943962D01*
X130740641Y-91804890D01*
X130885631Y-91592690D01*
X130936640Y-91340800D01*
X130936640Y-87340800D01*
X130892362Y-87105483D01*
X130753290Y-86889359D01*
X130541090Y-86744369D01*
X130289200Y-86693360D01*
X128689200Y-86693360D01*
X128453883Y-86737638D01*
X128372510Y-86790000D01*
X123510068Y-86790000D01*
X123219229Y-86847852D01*
X122972667Y-87012599D01*
X119964398Y-90020868D01*
X119799651Y-90267430D01*
X119741799Y-90558269D01*
X119741799Y-91161343D01*
X119799651Y-91452182D01*
X119964398Y-91698744D01*
X125192366Y-96926712D01*
X125438927Y-97091459D01*
X125729767Y-97149311D01*
X130170689Y-97149311D01*
X130461528Y-97091459D01*
X130708090Y-96926712D01*
X130949680Y-96685122D01*
X130995167Y-96685162D01*
X131338943Y-96543117D01*
X131602192Y-96280327D01*
X131744838Y-95936799D01*
X131745162Y-95564833D01*
X131603117Y-95221057D01*
X131340327Y-94957808D01*
X130996799Y-94815162D01*
X130624833Y-94814838D01*
X130281057Y-94956883D01*
X130017808Y-95219673D01*
X129875162Y-95563201D01*
X129875121Y-95610077D01*
X129855887Y-95629311D01*
X128463829Y-95629311D01*
X129476540Y-94616600D01*
X134452078Y-94616600D01*
X126399802Y-102668876D01*
X126297117Y-102420357D01*
X126264000Y-102387182D01*
X126264000Y-99310247D01*
X126540943Y-99195817D01*
X126804192Y-98933027D01*
X126946838Y-98589499D01*
X126947162Y-98217533D01*
X126805117Y-97873757D01*
X126542327Y-97610508D01*
X126198799Y-97467862D01*
X125826833Y-97467538D01*
X125483057Y-97609583D01*
X125219808Y-97872373D01*
X125077162Y-98215901D01*
X125077121Y-98262777D01*
X124966599Y-98373299D01*
X124801852Y-98619861D01*
X124744000Y-98910700D01*
X124744000Y-102386837D01*
X124711808Y-102418973D01*
X124667256Y-102526266D01*
X122456600Y-100315610D01*
X122456600Y-94822685D01*
X122456601Y-94822680D01*
X122400531Y-94540796D01*
X122240855Y-94301825D01*
X111093679Y-83154649D01*
X111184138Y-82936799D01*
X111184462Y-82564833D01*
X111042417Y-82221057D01*
X110779627Y-81957808D01*
X110436099Y-81815162D01*
X110064133Y-81814838D01*
X109720357Y-81956883D01*
X109457108Y-82219673D01*
X109314462Y-82563201D01*
X109314138Y-82935167D01*
X109456183Y-83278943D01*
X109512700Y-83335559D01*
X109512700Y-83351980D01*
X109568770Y-83633865D01*
X109728445Y-83872835D01*
X120983400Y-95127790D01*
X120983400Y-100620720D01*
X121039470Y-100902605D01*
X121199145Y-101141575D01*
X124151621Y-104094051D01*
X124061162Y-104311901D01*
X124060838Y-104683867D01*
X124202883Y-105027643D01*
X124465673Y-105290892D01*
X124809201Y-105433538D01*
X125181167Y-105433862D01*
X125524943Y-105291817D01*
X125558118Y-105258700D01*
X125644780Y-105258700D01*
X125935619Y-105200848D01*
X126182181Y-105036101D01*
X126534415Y-104683867D01*
X133966838Y-104683867D01*
X134108883Y-105027643D01*
X134371673Y-105290892D01*
X134715201Y-105433538D01*
X135087167Y-105433862D01*
X135430943Y-105291817D01*
X135694192Y-105029027D01*
X135836838Y-104685499D01*
X135837162Y-104313533D01*
X135695117Y-103969757D01*
X135432327Y-103706508D01*
X135088799Y-103563862D01*
X134716833Y-103563538D01*
X134373057Y-103705583D01*
X134109808Y-103968373D01*
X133967162Y-104311901D01*
X133966838Y-104683867D01*
X126534415Y-104683867D01*
X132205023Y-99013259D01*
X132204838Y-99225167D01*
X132346883Y-99568943D01*
X132380000Y-99602118D01*
X132380000Y-100110438D01*
X132437852Y-100401277D01*
X132602599Y-100647839D01*
X135183960Y-103229200D01*
X135430522Y-103393947D01*
X135721361Y-103451799D01*
X137527722Y-103451799D01*
X137501327Y-103515366D01*
X137501003Y-103887332D01*
X137643048Y-104231108D01*
X137905838Y-104494357D01*
X138249366Y-104637003D01*
X138621332Y-104637327D01*
X138965108Y-104495282D01*
X139228357Y-104232492D01*
X139371003Y-103888964D01*
X139371327Y-103516998D01*
X139344387Y-103451799D01*
X142032560Y-103451799D01*
X142032560Y-104320000D01*
X142076838Y-104555317D01*
X142215910Y-104771441D01*
X142428110Y-104916431D01*
X142642717Y-104959890D01*
X142658561Y-105039541D01*
X142826508Y-105290892D01*
X142839566Y-105310434D01*
X147751137Y-110222005D01*
X147720560Y-110373000D01*
X147720560Y-111623000D01*
X147764838Y-111858317D01*
X147903910Y-112074441D01*
X148116110Y-112219431D01*
X148368000Y-112270440D01*
X149045000Y-112270440D01*
X149045000Y-118652909D01*
X149108561Y-118972450D01*
X149229483Y-119153422D01*
X149289566Y-119243343D01*
X150982383Y-120936160D01*
X151319244Y-121861678D01*
X151441335Y-122067659D01*
X151645939Y-122223184D01*
X151894931Y-122286853D01*
X152149077Y-122248635D01*
X153088769Y-121906615D01*
X153294750Y-121784524D01*
X153450275Y-121579920D01*
X153513944Y-121330928D01*
X153475726Y-121076782D01*
X153133706Y-120137090D01*
X153011615Y-119931109D01*
X152807011Y-119775584D01*
X152558019Y-119711915D01*
X152303873Y-119750133D01*
X152196993Y-119789034D01*
X150715000Y-118307041D01*
X150715000Y-112246944D01*
X150741691Y-112258000D01*
X151332250Y-112258000D01*
X151491000Y-112099250D01*
X151491000Y-111125000D01*
X151745000Y-111125000D01*
X151745000Y-112099250D01*
X151903750Y-112258000D01*
X152494309Y-112258000D01*
X152727698Y-112161327D01*
X152906327Y-111982699D01*
X153003000Y-111749310D01*
X153003000Y-111283750D01*
X152844250Y-111125000D01*
X151745000Y-111125000D01*
X151491000Y-111125000D01*
X151471000Y-111125000D01*
X151471000Y-110871000D01*
X151491000Y-110871000D01*
X151491000Y-109896750D01*
X151745000Y-109896750D01*
X151745000Y-110871000D01*
X152844250Y-110871000D01*
X153003000Y-110712250D01*
X153003000Y-110246690D01*
X152906327Y-110013301D01*
X152727698Y-109834673D01*
X152494309Y-109738000D01*
X151903750Y-109738000D01*
X151745000Y-109896750D01*
X151491000Y-109896750D01*
X151332250Y-109738000D01*
X151041868Y-109738000D01*
X151232868Y-109547000D01*
X152200000Y-109547000D01*
X152519541Y-109483439D01*
X152790434Y-109302434D01*
X152970333Y-109122535D01*
X153210943Y-109023117D01*
X153474192Y-108760327D01*
X153528570Y-108629372D01*
X153998502Y-109099304D01*
X153926563Y-109204589D01*
X153872079Y-109455751D01*
X153919603Y-109708322D01*
X154061648Y-109922504D01*
X154749406Y-110610262D01*
X154749406Y-111567406D01*
X154807258Y-111858245D01*
X154972005Y-112104807D01*
X158466599Y-115599401D01*
X158713160Y-115764148D01*
X159004000Y-115822000D01*
X159209165Y-115822000D01*
X159143897Y-115979183D01*
X159143504Y-116428844D01*
X159254049Y-116696383D01*
X158883402Y-116574112D01*
X158244430Y-116326753D01*
X157849577Y-116136671D01*
X157382171Y-115880676D01*
X156872953Y-115576595D01*
X156350099Y-115242165D01*
X155840176Y-114894738D01*
X155369631Y-114552024D01*
X154966362Y-114233489D01*
X154639982Y-113944137D01*
X154415866Y-113740424D01*
X154399643Y-113730669D01*
X154387575Y-113716082D01*
X154149867Y-113522572D01*
X154133770Y-113514050D01*
X154121443Y-113500647D01*
X153880043Y-113324325D01*
X153862967Y-113316401D01*
X153849493Y-113303256D01*
X153611141Y-113148230D01*
X153591545Y-113140396D01*
X153575571Y-113126604D01*
X153347007Y-112996984D01*
X153322385Y-112988837D01*
X153301544Y-112973403D01*
X153089506Y-112873295D01*
X153055118Y-112864707D01*
X153024626Y-112846635D01*
X152835855Y-112780145D01*
X152781481Y-112772355D01*
X152730384Y-112752209D01*
X152571618Y-112723449D01*
X152544993Y-112723906D01*
X152519540Y-112716067D01*
X152412182Y-112726183D01*
X152304383Y-112728032D01*
X152279960Y-112738643D01*
X152253445Y-112741141D01*
X152158139Y-112791567D01*
X152059244Y-112834531D01*
X152040738Y-112853683D01*
X152017201Y-112866136D01*
X151948446Y-112949196D01*
X151873522Y-113026735D01*
X151863755Y-113051508D01*
X151846773Y-113072023D01*
X151815036Y-113175074D01*
X151775489Y-113275380D01*
X151775946Y-113302005D01*
X151768107Y-113327458D01*
X151744677Y-113555468D01*
X151747498Y-113585404D01*
X151741172Y-113614800D01*
X151732572Y-114165835D01*
X151735880Y-114183938D01*
X151732967Y-114202105D01*
X151749097Y-114633733D01*
X151754621Y-114656937D01*
X151752471Y-114680692D01*
X151798921Y-115116863D01*
X151805821Y-115138978D01*
X151805277Y-115162140D01*
X151882527Y-115604593D01*
X151890487Y-115625164D01*
X151891370Y-115647207D01*
X151999891Y-116097682D01*
X152008549Y-116116424D01*
X152010599Y-116136962D01*
X152150873Y-116597198D01*
X152159857Y-116613953D01*
X152162778Y-116632742D01*
X152335281Y-117104478D01*
X152344268Y-117119237D01*
X152347767Y-117136158D01*
X152552976Y-117621134D01*
X152561700Y-117633978D01*
X152565520Y-117649027D01*
X152801093Y-118143069D01*
X153091186Y-118782629D01*
X153449959Y-119666568D01*
X153833396Y-120683042D01*
X154194444Y-121712375D01*
X154920681Y-123847597D01*
X154922086Y-123850027D01*
X154922477Y-123852810D01*
X155523058Y-125573036D01*
X155794298Y-126367179D01*
X155873621Y-126647827D01*
X155927401Y-126896338D01*
X155962288Y-127143222D01*
X155983041Y-127419661D01*
X155995648Y-128200328D01*
X155979487Y-128951985D01*
X155957700Y-129248451D01*
X155923555Y-129527818D01*
X155874516Y-129807937D01*
X155807680Y-130106663D01*
X155600276Y-130859377D01*
X155225680Y-132029813D01*
X155052233Y-132515775D01*
X154925108Y-132832702D01*
X154778868Y-133114795D01*
X154732381Y-133191122D01*
X154213268Y-132672009D01*
X154388757Y-132249382D01*
X154389169Y-131777960D01*
X154209143Y-131342265D01*
X153888270Y-131020831D01*
X154006434Y-130902667D01*
X154187440Y-130631773D01*
X154251000Y-130312233D01*
X154251000Y-129421630D01*
X154430730Y-129421630D01*
X154666047Y-129377352D01*
X154882171Y-129238280D01*
X155027161Y-129026080D01*
X155078170Y-128774190D01*
X155078170Y-127633730D01*
X155033892Y-127398413D01*
X154894820Y-127182289D01*
X154682620Y-127037299D01*
X154500917Y-127000503D01*
X154666047Y-126969432D01*
X154882171Y-126830360D01*
X155027161Y-126618160D01*
X155078170Y-126366270D01*
X155078170Y-125225810D01*
X155033892Y-124990493D01*
X154894820Y-124774369D01*
X154682620Y-124629379D01*
X154430730Y-124578370D01*
X154251000Y-124578370D01*
X154251000Y-124000620D01*
X154305325Y-123929152D01*
X154368994Y-123680160D01*
X154330776Y-123426014D01*
X153988756Y-122486322D01*
X153866665Y-122280341D01*
X153662061Y-122124816D01*
X153413069Y-122061147D01*
X153158923Y-122099365D01*
X152219231Y-122441385D01*
X152013250Y-122563476D01*
X151857725Y-122768080D01*
X151794056Y-123017072D01*
X151832274Y-123271218D01*
X152174294Y-124210910D01*
X152296385Y-124416891D01*
X152500989Y-124572416D01*
X152524273Y-124578370D01*
X152401270Y-124578370D01*
X152165953Y-124622648D01*
X151949829Y-124761720D01*
X151804839Y-124973920D01*
X151753830Y-125225810D01*
X151753830Y-126366270D01*
X151798108Y-126601587D01*
X151937180Y-126817711D01*
X152149380Y-126962701D01*
X152331083Y-126999497D01*
X152165953Y-127030568D01*
X151949829Y-127169640D01*
X151804839Y-127381840D01*
X151753830Y-127633730D01*
X151753830Y-128774190D01*
X151798108Y-129009507D01*
X151937180Y-129225631D01*
X152149380Y-129370621D01*
X152401270Y-129421630D01*
X152581000Y-129421630D01*
X152581000Y-129966365D01*
X152044312Y-130503053D01*
X151222254Y-129680995D01*
X151024551Y-129545910D01*
X150773389Y-129491426D01*
X150520818Y-129538950D01*
X150362008Y-129644272D01*
X150362008Y-129132608D01*
X150298447Y-128813067D01*
X150117442Y-128542174D01*
X148289634Y-126714366D01*
X148220811Y-126668380D01*
X148018741Y-126533361D01*
X147946640Y-126519019D01*
X147946640Y-124754800D01*
X147902362Y-124519483D01*
X147763290Y-124303359D01*
X147551090Y-124158369D01*
X147299200Y-124107360D01*
X143299200Y-124107360D01*
X143063883Y-124151638D01*
X142847759Y-124290710D01*
X142702769Y-124502910D01*
X142651760Y-124754800D01*
X142651760Y-129854800D01*
X142696038Y-130090117D01*
X142835110Y-130306241D01*
X143047310Y-130451231D01*
X143299200Y-130502240D01*
X144237092Y-130502240D01*
X138338132Y-136401200D01*
X128626468Y-136401200D01*
X125912704Y-133687436D01*
X127096169Y-133687436D01*
X128077682Y-134707668D01*
X131308100Y-136142346D01*
X134841646Y-136231589D01*
X138140368Y-134961809D01*
X138520718Y-134707668D01*
X139502231Y-133687436D01*
X133299200Y-127484405D01*
X127096169Y-133687436D01*
X125912704Y-133687436D01*
X122727508Y-130502240D01*
X123299200Y-130502240D01*
X123534517Y-130457962D01*
X123750641Y-130318890D01*
X123895631Y-130106690D01*
X123946640Y-129854800D01*
X123946640Y-128847246D01*
X124372411Y-128847246D01*
X125642191Y-132145968D01*
X125896332Y-132526318D01*
X126916564Y-133507831D01*
X133119595Y-127304800D01*
X133478805Y-127304800D01*
X139681836Y-133507831D01*
X140702068Y-132526318D01*
X142136746Y-129295900D01*
X142225989Y-125762354D01*
X140956209Y-122463632D01*
X140702068Y-122083282D01*
X139681836Y-121101769D01*
X133478805Y-127304800D01*
X133119595Y-127304800D01*
X126916564Y-121101769D01*
X125896332Y-122083282D01*
X124461654Y-125313700D01*
X124372411Y-128847246D01*
X123946640Y-128847246D01*
X123946640Y-124754800D01*
X123902362Y-124519483D01*
X123763290Y-124303359D01*
X123551090Y-124158369D01*
X123299200Y-124107360D01*
X119299200Y-124107360D01*
X119063883Y-124151638D01*
X118847759Y-124290710D01*
X118702769Y-124502910D01*
X118651760Y-124754800D01*
X118651760Y-129854800D01*
X118696038Y-130090117D01*
X118835110Y-130306241D01*
X119047310Y-130451231D01*
X119299200Y-130502240D01*
X120513419Y-130502240D01*
X120527761Y-130574341D01*
X120646797Y-130752491D01*
X120708766Y-130845234D01*
X127690166Y-137826634D01*
X127961060Y-138007640D01*
X128280600Y-138071200D01*
X138684000Y-138071200D01*
X139003541Y-138007639D01*
X139274434Y-137826634D01*
X145889634Y-131211434D01*
X146070640Y-130940540D01*
X146134200Y-130621000D01*
X146134200Y-130502240D01*
X147299200Y-130502240D01*
X147534517Y-130457962D01*
X147750641Y-130318890D01*
X147895631Y-130106690D01*
X147946640Y-129854800D01*
X147946640Y-128733108D01*
X148692008Y-129478476D01*
X148692008Y-131347201D01*
X148538869Y-131448762D01*
X147831762Y-132155869D01*
X147696677Y-132353572D01*
X147642193Y-132604734D01*
X147689717Y-132857305D01*
X147831762Y-133071487D01*
X149599529Y-134839254D01*
X149797232Y-134974339D01*
X150048394Y-135028823D01*
X150221186Y-134996310D01*
X150187777Y-135150318D01*
X150235301Y-135402889D01*
X150377346Y-135617071D01*
X151560836Y-136800561D01*
X151533192Y-136811654D01*
X151381066Y-136910875D01*
X150232304Y-135762113D01*
X150034601Y-135627028D01*
X149783439Y-135572544D01*
X149610647Y-135605057D01*
X149644056Y-135451049D01*
X149596532Y-135198478D01*
X149454487Y-134984296D01*
X147686720Y-133216529D01*
X147489017Y-133081444D01*
X147237855Y-133026960D01*
X146985284Y-133074484D01*
X146771102Y-133216529D01*
X146063995Y-133923636D01*
X145928910Y-134121339D01*
X145874426Y-134372501D01*
X145921950Y-134625072D01*
X146063995Y-134839254D01*
X147386332Y-136161591D01*
X147210843Y-136584218D01*
X147210431Y-137055640D01*
X147390457Y-137491335D01*
X147723512Y-137824972D01*
X148158892Y-138005757D01*
X148630314Y-138006169D01*
X149055306Y-137830565D01*
X149413806Y-138189065D01*
X148541883Y-138748025D01*
X148079455Y-139014372D01*
X147655993Y-139222292D01*
X147198850Y-139405535D01*
X146635941Y-139593852D01*
X144933936Y-140091857D01*
X143151807Y-140579837D01*
X142444410Y-140750734D01*
X141808537Y-140883440D01*
X141210380Y-140984720D01*
X140612113Y-141061773D01*
X139975935Y-141121211D01*
X139261783Y-141169400D01*
X137236379Y-141298371D01*
X136928715Y-141308265D01*
X136546072Y-141300763D01*
X136134588Y-141277391D01*
X135747535Y-141240006D01*
X135126373Y-141154853D01*
X134432723Y-141043165D01*
X133715412Y-140912597D01*
X133015094Y-140769877D01*
X132373638Y-140622236D01*
X131836138Y-140478293D01*
X131446439Y-140348232D01*
X131353825Y-140307873D01*
X131278270Y-140263595D01*
X131242752Y-140251281D01*
X131212111Y-140229511D01*
X131078073Y-140169431D01*
X131045596Y-140161997D01*
X131016707Y-140145399D01*
X130772416Y-140063049D01*
X130755335Y-140060837D01*
X130739992Y-140053006D01*
X130454108Y-139972166D01*
X130431921Y-139970405D01*
X130411491Y-139961578D01*
X130152674Y-139906018D01*
X130146792Y-139905929D01*
X130141352Y-139903687D01*
X129615704Y-139800093D01*
X129089961Y-139658718D01*
X128536927Y-139475931D01*
X127956625Y-139253918D01*
X127349118Y-138995254D01*
X126716821Y-138703900D01*
X125366400Y-138030392D01*
X124880062Y-137759602D01*
X124291407Y-137400717D01*
X123643001Y-136982165D01*
X122980704Y-136535056D01*
X122348848Y-136089880D01*
X121792621Y-135678076D01*
X121361761Y-135335423D01*
X121099912Y-135096165D01*
X120830823Y-134799601D01*
X120544929Y-134460115D01*
X119947350Y-133679420D01*
X119345856Y-132803690D01*
X118751565Y-131851086D01*
X118178395Y-130844202D01*
X117639708Y-129805335D01*
X117148659Y-128756949D01*
X116720081Y-127726283D01*
X116463816Y-126976178D01*
X116292247Y-126444046D01*
X115510863Y-123739108D01*
X115368664Y-123211332D01*
X115227464Y-122599716D01*
X115086684Y-121902559D01*
X114948543Y-121130701D01*
X114916969Y-120922164D01*
X127096169Y-120922164D01*
X133299200Y-127125195D01*
X139502231Y-120922164D01*
X138520718Y-119901932D01*
X135290300Y-118467254D01*
X131756754Y-118378011D01*
X128458032Y-119647791D01*
X128077682Y-119901932D01*
X127096169Y-120922164D01*
X114916969Y-120922164D01*
X114682656Y-119374629D01*
X114441621Y-117399155D01*
X114343302Y-116286114D01*
X114286315Y-115135711D01*
X114270271Y-113955161D01*
X114294936Y-112754853D01*
X114360009Y-111544959D01*
X114465114Y-110335701D01*
X114598563Y-109230467D01*
X123552838Y-109230467D01*
X123694883Y-109574243D01*
X123957673Y-109837492D01*
X124301201Y-109980138D01*
X124673167Y-109980462D01*
X125016943Y-109838417D01*
X125280192Y-109575627D01*
X125422838Y-109232099D01*
X125423162Y-108860133D01*
X125281117Y-108516357D01*
X125018327Y-108253108D01*
X124674799Y-108110462D01*
X124302833Y-108110138D01*
X123959057Y-108252183D01*
X123695808Y-108514973D01*
X123553162Y-108858501D01*
X123552838Y-109230467D01*
X114598563Y-109230467D01*
X114609820Y-109137243D01*
X114795260Y-107949284D01*
X114830510Y-107731867D01*
X133458838Y-107731867D01*
X133600883Y-108075643D01*
X133863673Y-108338892D01*
X134207201Y-108481538D01*
X134579167Y-108481862D01*
X134922943Y-108339817D01*
X135186192Y-108077027D01*
X135328838Y-107733499D01*
X135329162Y-107361533D01*
X135187117Y-107017757D01*
X134924327Y-106754508D01*
X134580799Y-106611862D01*
X134208833Y-106611538D01*
X133865057Y-106753583D01*
X133601808Y-107016373D01*
X133459162Y-107359901D01*
X133458838Y-107731867D01*
X114830510Y-107731867D01*
X114973896Y-106847493D01*
X114973523Y-106837023D01*
X114976889Y-106827098D01*
X115022209Y-106482167D01*
X115020196Y-106451583D01*
X115027438Y-106421799D01*
X115033238Y-106284284D01*
X115030907Y-106269286D01*
X115033845Y-106254398D01*
X115017595Y-106173332D01*
X139787003Y-106173332D01*
X139929048Y-106517108D01*
X140191838Y-106780357D01*
X140535366Y-106923003D01*
X140907332Y-106923327D01*
X141251108Y-106781282D01*
X141514357Y-106518492D01*
X141657003Y-106174964D01*
X141657327Y-105802998D01*
X141515282Y-105459222D01*
X141252492Y-105195973D01*
X140908964Y-105053327D01*
X140536998Y-105053003D01*
X140193222Y-105195048D01*
X139929973Y-105457838D01*
X139787327Y-105801366D01*
X139787003Y-106173332D01*
X115017595Y-106173332D01*
X115010461Y-106137745D01*
X114992187Y-106020182D01*
X114984295Y-106007220D01*
X114981312Y-105992338D01*
X114915062Y-105893506D01*
X114853195Y-105791892D01*
X114840943Y-105782936D01*
X114832492Y-105770329D01*
X114733463Y-105704373D01*
X114637420Y-105634170D01*
X114622674Y-105630585D01*
X114610041Y-105622171D01*
X114493310Y-105599132D01*
X114377712Y-105571027D01*
X114362716Y-105573358D01*
X114347826Y-105570419D01*
X114257836Y-105570553D01*
X114211804Y-105579781D01*
X114164934Y-105577021D01*
X113949357Y-105606861D01*
X113933273Y-105612440D01*
X113916251Y-105612273D01*
X113240282Y-105739839D01*
X112874755Y-105805782D01*
X112552635Y-105842735D01*
X112253354Y-105854625D01*
X111970282Y-105842434D01*
X111695898Y-105806437D01*
X111422213Y-105745799D01*
X111141846Y-105658720D01*
X110831304Y-105536090D01*
X110023936Y-105207469D01*
X110017539Y-105206237D01*
X110012031Y-105202752D01*
X108930107Y-104785780D01*
X108356914Y-104546590D01*
X107711468Y-104239223D01*
X107071759Y-103902744D01*
X106516196Y-103576265D01*
X105400194Y-102883265D01*
X105395157Y-102881373D01*
X105391172Y-102877759D01*
X104410797Y-102289740D01*
X104027306Y-102055368D01*
X103590967Y-101770148D01*
X102654374Y-101117353D01*
X101872173Y-100526856D01*
X101647362Y-100337617D01*
X101562904Y-100248727D01*
X101380903Y-100013164D01*
X101369202Y-100002971D01*
X101361679Y-99989398D01*
X101003487Y-99566242D01*
X101003119Y-99565949D01*
X101002891Y-99565539D01*
X100508533Y-98983114D01*
X100035204Y-98394502D01*
X99577907Y-97794388D01*
X99137682Y-97184587D01*
X98715646Y-96567043D01*
X98312780Y-95943535D01*
X97930101Y-95315904D01*
X97568629Y-94686019D01*
X97229401Y-94055812D01*
X96913396Y-93427149D01*
X96621636Y-92802015D01*
X96355063Y-92182294D01*
X96114637Y-91569969D01*
X95901307Y-90967084D01*
X95715963Y-90375669D01*
X95558705Y-89795031D01*
X95334060Y-88837720D01*
X95264119Y-88474681D01*
X95216022Y-88148970D01*
X95185914Y-87833640D01*
X95170552Y-87501450D01*
X95173790Y-86649699D01*
X95189897Y-86246003D01*
X95220670Y-85831581D01*
X95326987Y-84949499D01*
X95486993Y-84040748D01*
X95696683Y-83120845D01*
X95951033Y-82210428D01*
X96244633Y-81330163D01*
X96571583Y-80500830D01*
X96926903Y-79739885D01*
X97428485Y-78819710D01*
X98041052Y-77799915D01*
X98733016Y-76727440D01*
X99473516Y-75646775D01*
X99895510Y-75065167D01*
X127164838Y-75065167D01*
X127306883Y-75408943D01*
X127569673Y-75672192D01*
X127913201Y-75814838D01*
X128285167Y-75815162D01*
X128628943Y-75673117D01*
X128892192Y-75410327D01*
X129034838Y-75066799D01*
X129035162Y-74694833D01*
X128893117Y-74351057D01*
X128630327Y-74087808D01*
X128527637Y-74045167D01*
X134184838Y-74045167D01*
X134326883Y-74388943D01*
X134589673Y-74652192D01*
X134933201Y-74794838D01*
X135043466Y-74794934D01*
X135099161Y-74832148D01*
X135390000Y-74890000D01*
X137536137Y-74890000D01*
X137568273Y-74922192D01*
X137911801Y-75064838D01*
X138283767Y-75065162D01*
X138627543Y-74923117D01*
X138890792Y-74660327D01*
X139033438Y-74316799D01*
X139033762Y-73944833D01*
X138891717Y-73601057D01*
X138628927Y-73337808D01*
X138285399Y-73195162D01*
X137913433Y-73194838D01*
X137569657Y-73336883D01*
X137536482Y-73370000D01*
X135929208Y-73370000D01*
X135913117Y-73331057D01*
X135650327Y-73067808D01*
X135306799Y-72925162D01*
X134934833Y-72924838D01*
X134591057Y-73066883D01*
X134327808Y-73329673D01*
X134185162Y-73673201D01*
X134184838Y-74045167D01*
X128527637Y-74045167D01*
X128286799Y-73945162D01*
X127914833Y-73944838D01*
X127571057Y-74086883D01*
X127307808Y-74349673D01*
X127165162Y-74693201D01*
X127164838Y-75065167D01*
X99895510Y-75065167D01*
X100231760Y-74601736D01*
X100976630Y-73636126D01*
X101678925Y-72790856D01*
X101998062Y-72433801D01*
X102296146Y-72120991D01*
X102714469Y-71710276D01*
X103154428Y-71300398D01*
X104105722Y-70476253D01*
X105123954Y-69669688D01*
X106197172Y-68888894D01*
X107310041Y-68144741D01*
X108447200Y-67447913D01*
X109596604Y-66807065D01*
X110164791Y-66514232D01*
X110735222Y-66236804D01*
X114304239Y-64570923D01*
X115428299Y-64062731D01*
X116176120Y-63741614D01*
X116178286Y-63740126D01*
X116180851Y-63739561D01*
X117938583Y-62969056D01*
X118109723Y-62925480D01*
X118146091Y-62908106D01*
X118185817Y-62901303D01*
X118593994Y-62744885D01*
X118606922Y-62736738D01*
X118621860Y-62733499D01*
X119154643Y-62502000D01*
X119163446Y-62495897D01*
X119173838Y-62493306D01*
X119772945Y-62210774D01*
X120472208Y-61881821D01*
X121283301Y-61520990D01*
X122109368Y-61170259D01*
X122851243Y-60872803D01*
X124519109Y-60216707D01*
X124522082Y-60214797D01*
X124525550Y-60214135D01*
X126251590Y-59514896D01*
X126253226Y-59513821D01*
X126255149Y-59513443D01*
X129787029Y-58059510D01*
X129790849Y-58056970D01*
X129795340Y-58056025D01*
X130523896Y-57744836D01*
X130531679Y-57739511D01*
X130540850Y-57737321D01*
X131219101Y-57425649D01*
X131228327Y-57418963D01*
X131239316Y-57415956D01*
X131791491Y-57139988D01*
X131809044Y-57126370D01*
X131830051Y-57119148D01*
X132180377Y-56915075D01*
X132196446Y-56900873D01*
X132216257Y-56892662D01*
X134161647Y-55592253D01*
X134163402Y-55590497D01*
X134165687Y-55589531D01*
X135486921Y-54692685D01*
X135492594Y-54686928D01*
X135499966Y-54683608D01*
X136707099Y-53822640D01*
X137627084Y-53169970D01*
X137991459Y-52930411D01*
X138244613Y-52780541D01*
X138247750Y-52777729D01*
X138251705Y-52776284D01*
X138777548Y-52456343D01*
X138794506Y-52440767D01*
X138815561Y-52431450D01*
X139435648Y-51995335D01*
X139435740Y-51995239D01*
X139435859Y-51995186D01*
X139765276Y-51763319D01*
X140165090Y-51506559D01*
X140592969Y-51250724D01*
X140998678Y-51027243D01*
X143021629Y-49950296D01*
X143501544Y-49701183D01*
X144020092Y-49450287D01*
X144515140Y-49226469D01*
X144930319Y-49056226D01*
X145821213Y-48697914D01*
X145829784Y-48692314D01*
X145839786Y-48690125D01*
X146743117Y-48295576D01*
X147357386Y-48036116D01*
X147654261Y-47932478D01*
X147995747Y-47829584D01*
X148911090Y-47601047D01*
X148892031Y-47613782D01*
X148857737Y-47624396D01*
X148848877Y-47631751D01*
X148837980Y-47635523D01*
X147869417Y-48202487D01*
X147788191Y-48274586D01*
X147701824Y-48340443D01*
X147688842Y-48362772D01*
X147669530Y-48379914D01*
X147622078Y-48477607D01*
X147567488Y-48571504D01*
X147564040Y-48597097D01*
X147552756Y-48620328D01*
X147546302Y-48728741D01*
X147531799Y-48836384D01*
X147579049Y-49592336D01*
X147607880Y-49701250D01*
X147629858Y-49811742D01*
X147641897Y-49829760D01*
X147647443Y-49850710D01*
X147715755Y-49940297D01*
X147778347Y-50033972D01*
X147796366Y-50046012D01*
X147809506Y-50063244D01*
X147906899Y-50119868D01*
X148000577Y-50182461D01*
X148021833Y-50186689D01*
X148040567Y-50197581D01*
X148152216Y-50212624D01*
X148262715Y-50234604D01*
X159483890Y-50234604D01*
X159493647Y-50232663D01*
X159503459Y-50234325D01*
X159624384Y-50206658D01*
X159746028Y-50182461D01*
X159754301Y-50176933D01*
X159764000Y-50174714D01*
X159865123Y-50102884D01*
X159968258Y-50033972D01*
X159973786Y-50025699D01*
X159981898Y-50019937D01*
X160047837Y-49914873D01*
X160116747Y-49811742D01*
X160118688Y-49801983D01*
X160123977Y-49793556D01*
X160144689Y-49671271D01*
X160168890Y-49549604D01*
X160166949Y-49539845D01*
X160168610Y-49530036D01*
X160144980Y-48703212D01*
X160133351Y-48652384D01*
X160134211Y-48600245D01*
X160103819Y-48523305D01*
X160085370Y-48442671D01*
X160055175Y-48400161D01*
X160036017Y-48351663D01*
X159978497Y-48292214D01*
X159930593Y-48224773D01*
X159886426Y-48197053D01*
X159850169Y-48159580D01*
X158928853Y-47521745D01*
X158883188Y-47501941D01*
X158843796Y-47471522D01*
X158761694Y-47449252D01*
X158683645Y-47415404D01*
X158633880Y-47414583D01*
X158585843Y-47401553D01*
X153766646Y-47070824D01*
X153707826Y-47078384D01*
X153648777Y-47072903D01*
X149214001Y-47534859D01*
X150304296Y-47298523D01*
X150883787Y-47199856D01*
X151584817Y-47119385D01*
X152386937Y-47058223D01*
X153259372Y-47018172D01*
X154173204Y-47000441D01*
X155100212Y-47005986D01*
G36*
X165354000Y-114374395D02*
X165361797Y-114366599D01*
X165541402Y-114546204D01*
X165533605Y-114554000D01*
X165547748Y-114568143D01*
X165368143Y-114747748D01*
X165354000Y-114733605D01*
X165339858Y-114747748D01*
X165160253Y-114568143D01*
X165174395Y-114554000D01*
X165160253Y-114539858D01*
X165339858Y-114360253D01*
X165354000Y-114374395D01*
X165354000Y-114374395D01*
G37*
X165354000Y-114374395D02*
X165361797Y-114366599D01*
X165541402Y-114546204D01*
X165533605Y-114554000D01*
X165547748Y-114568143D01*
X165368143Y-114747748D01*
X165354000Y-114733605D01*
X165339858Y-114747748D01*
X165160253Y-114568143D01*
X165174395Y-114554000D01*
X165160253Y-114539858D01*
X165339858Y-114360253D01*
X165354000Y-114374395D01*
G36*
X157861000Y-103271000D02*
X157881000Y-103271000D01*
X157881000Y-103525000D01*
X157861000Y-103525000D01*
X157861000Y-103545000D01*
X157607000Y-103545000D01*
X157607000Y-103525000D01*
X157587000Y-103525000D01*
X157587000Y-103271000D01*
X157607000Y-103271000D01*
X157607000Y-103251000D01*
X157861000Y-103251000D01*
X157861000Y-103271000D01*
X157861000Y-103271000D01*
G37*
X157861000Y-103271000D02*
X157881000Y-103271000D01*
X157881000Y-103525000D01*
X157861000Y-103525000D01*
X157861000Y-103545000D01*
X157607000Y-103545000D01*
X157607000Y-103525000D01*
X157587000Y-103525000D01*
X157587000Y-103271000D01*
X157607000Y-103271000D01*
X157607000Y-103251000D01*
X157861000Y-103251000D01*
X157861000Y-103271000D01*
G36*
X152913673Y-65641492D02*
X153257201Y-65784138D01*
X153312201Y-65784186D01*
X153312201Y-75085294D01*
X153370053Y-75376133D01*
X153534800Y-75622695D01*
X153950704Y-76038599D01*
X153003003Y-76038599D01*
X152913117Y-75821057D01*
X152650327Y-75557808D01*
X152306799Y-75415162D01*
X151934833Y-75414838D01*
X151591057Y-75556883D01*
X151557882Y-75590000D01*
X149883479Y-75590000D01*
X149861400Y-75567882D01*
X149861400Y-74098402D01*
X150171401Y-73788401D01*
X150336148Y-73541839D01*
X150394000Y-73251000D01*
X150394000Y-69755163D01*
X150426192Y-69723027D01*
X150568838Y-69379499D01*
X150569162Y-69007533D01*
X150427117Y-68663757D01*
X150164327Y-68400508D01*
X150107875Y-68377067D01*
X150202349Y-68235676D01*
X150253746Y-67977290D01*
X152621736Y-65609300D01*
X152881537Y-65609300D01*
X152913673Y-65641492D01*
X152913673Y-65641492D01*
G37*
X152913673Y-65641492D02*
X153257201Y-65784138D01*
X153312201Y-65784186D01*
X153312201Y-75085294D01*
X153370053Y-75376133D01*
X153534800Y-75622695D01*
X153950704Y-76038599D01*
X153003003Y-76038599D01*
X152913117Y-75821057D01*
X152650327Y-75557808D01*
X152306799Y-75415162D01*
X151934833Y-75414838D01*
X151591057Y-75556883D01*
X151557882Y-75590000D01*
X149883479Y-75590000D01*
X149861400Y-75567882D01*
X149861400Y-74098402D01*
X150171401Y-73788401D01*
X150336148Y-73541839D01*
X150394000Y-73251000D01*
X150394000Y-69755163D01*
X150426192Y-69723027D01*
X150568838Y-69379499D01*
X150569162Y-69007533D01*
X150427117Y-68663757D01*
X150164327Y-68400508D01*
X150107875Y-68377067D01*
X150202349Y-68235676D01*
X150253746Y-67977290D01*
X152621736Y-65609300D01*
X152881537Y-65609300D01*
X152913673Y-65641492D01*
M02*
