%TF.GenerationSoftware,KiCad,Pcbnew,4.0.5+dfsg1-4*%
%TF.CreationDate,2019-11-28T21:25:46-08:00*%
%TF.ProjectId,VineBadge2020,56696E654261646765323032302E6B69,rev?*%
%TF.FileFunction,Copper,L1,Top,Signal*%
%FSLAX46Y46*%
G04 Gerber Fmt 4.6, Leading zero omitted, Abs format (unit mm)*
G04 Created by KiCad (PCBNEW 4.0.5+dfsg1-4) date Thu Nov 28 21:25:46 2019*
%MOMM*%
%LPD*%
G01*
G04 APERTURE LIST*
%ADD10C,0.100000*%
%ADD11R,0.797560X0.797560*%
%ADD12C,0.600000*%
%ADD13C,0.400000*%
%ADD14C,0.250000*%
%ADD15C,0.203200*%
%ADD16C,0.254000*%
G04 APERTURE END LIST*
D10*
X135672421Y-141921116D02*
X135025389Y-141832416D01*
X135025389Y-141832416D02*
X134316972Y-141718351D01*
X134316972Y-141718351D02*
X133585642Y-141585231D01*
X133585642Y-141585231D02*
X132869876Y-141439363D01*
X132869876Y-141439363D02*
X132208147Y-141287056D01*
X132208147Y-141287056D02*
X131638930Y-141134619D01*
X131638930Y-141134619D02*
X131200700Y-140988360D01*
X131200700Y-140988360D02*
X131042728Y-140919520D01*
X131042728Y-140919520D02*
X130931931Y-140854590D01*
X130931931Y-140854590D02*
X130797893Y-140794510D01*
X130797893Y-140794510D02*
X130553602Y-140712160D01*
X130553602Y-140712160D02*
X130267718Y-140631320D01*
X130267718Y-140631320D02*
X130008901Y-140575760D01*
X130008901Y-140575760D02*
X129460359Y-140467654D01*
X129460359Y-140467654D02*
X128893379Y-140315190D01*
X128893379Y-140315190D02*
X128306935Y-140121361D01*
X128306935Y-140121361D02*
X127699998Y-139889158D01*
X127699998Y-139889158D02*
X127071541Y-139621573D01*
X127071541Y-139621573D02*
X126420536Y-139321599D01*
X126420536Y-139321599D02*
X125046771Y-138636449D01*
X125046771Y-138636449D02*
X124535018Y-138351508D01*
X124535018Y-138351508D02*
X123927302Y-137981001D01*
X123927302Y-137981001D02*
X123265558Y-137553840D01*
X123265558Y-137553840D02*
X122591723Y-137098940D01*
X122591723Y-137098940D02*
X121947732Y-136645214D01*
X121947732Y-136645214D02*
X121375519Y-136221576D01*
X121375519Y-136221576D02*
X120917020Y-135856941D01*
X120917020Y-135856941D02*
X120614171Y-135580221D01*
X120614171Y-135580221D02*
X120315025Y-135250531D01*
X120315025Y-135250531D02*
X120010689Y-134889147D01*
X120010689Y-134889147D02*
X119392691Y-134081774D01*
X119392691Y-134081774D02*
X118772661Y-133179057D01*
X118772661Y-133179057D02*
X118163086Y-132201953D01*
X118163086Y-132201953D02*
X117576452Y-131171416D01*
X117576452Y-131171416D02*
X117025244Y-130108403D01*
X117025244Y-130108403D02*
X116521948Y-129033869D01*
X116521948Y-129033869D02*
X116079051Y-127968769D01*
X116079051Y-127968769D02*
X115813685Y-127192023D01*
X115813685Y-127192023D02*
X115637071Y-126644247D01*
X115637071Y-126644247D02*
X114851051Y-123923258D01*
X114851051Y-123923258D02*
X114704019Y-123377545D01*
X114704019Y-123377545D02*
X114557889Y-122744575D01*
X114557889Y-122744575D02*
X114413736Y-122030713D01*
X114413736Y-122030713D02*
X114272636Y-121242323D01*
X114272636Y-121242323D02*
X114003898Y-119467422D01*
X114003898Y-119467422D02*
X113760281Y-117470788D01*
X113760281Y-117470788D02*
X113659795Y-116333215D01*
X113659795Y-116333215D02*
X113601545Y-115157308D01*
X113601545Y-115157308D02*
X113585175Y-113952798D01*
X113585175Y-113952798D02*
X113610315Y-112729414D01*
X113610315Y-112729414D02*
X113676605Y-111496888D01*
X113676605Y-111496888D02*
X113783681Y-110264951D01*
X113783681Y-110264951D02*
X113931183Y-109043333D01*
X113931183Y-109043333D02*
X114118748Y-107841764D01*
X114118748Y-107841764D02*
X114297726Y-106737864D01*
X114297726Y-106737864D02*
X114343046Y-106392933D01*
X114343046Y-106392933D02*
X114348846Y-106255418D01*
X114348846Y-106255418D02*
X114258856Y-106255552D01*
X114258856Y-106255552D02*
X114043279Y-106285392D01*
X114043279Y-106285392D02*
X113364595Y-106413471D01*
X113364595Y-106413471D02*
X112974684Y-106483811D01*
X112974684Y-106483811D02*
X112605346Y-106526181D01*
X112605346Y-106526181D02*
X112252206Y-106540211D01*
X112252206Y-106540211D02*
X111910889Y-106525511D01*
X111910889Y-106525511D02*
X111577021Y-106481711D01*
X111577021Y-106481711D02*
X111246233Y-106408421D01*
X111246233Y-106408421D02*
X110914139Y-106305276D01*
X110914139Y-106305276D02*
X110576371Y-106171894D01*
X110576371Y-106171894D02*
X109765694Y-105841926D01*
X109765694Y-105841926D02*
X108675011Y-105421578D01*
X108675011Y-105421578D02*
X108077598Y-105172283D01*
X108077598Y-105172283D02*
X107404644Y-104851816D01*
X107404644Y-104851816D02*
X106738608Y-104501489D01*
X106738608Y-104501489D02*
X106161951Y-104162614D01*
X106161951Y-104162614D02*
X105038834Y-103465196D01*
X105038834Y-103465196D02*
X104055981Y-102875691D01*
X104055981Y-102875691D02*
X103661216Y-102634428D01*
X103661216Y-102634428D02*
X103207651Y-102337949D01*
X103207651Y-102337949D02*
X102252030Y-101671891D01*
X102252030Y-101671891D02*
X101444945Y-101062609D01*
X101444945Y-101062609D02*
X101177049Y-100837102D01*
X101177049Y-100837102D02*
X101042221Y-100695199D01*
X101042221Y-100695199D02*
X100838844Y-100431968D01*
X100838844Y-100431968D02*
X100480651Y-100008812D01*
X100480651Y-100008812D02*
X99980424Y-99419472D01*
X99980424Y-99419472D02*
X99495778Y-98816786D01*
X99495778Y-98816786D02*
X99027691Y-98202512D01*
X99027691Y-98202512D02*
X98577142Y-97578411D01*
X98577142Y-97578411D02*
X98145108Y-96946240D01*
X98145108Y-96946240D02*
X97732568Y-96307759D01*
X97732568Y-96307759D02*
X97340499Y-95664727D01*
X97340499Y-95664727D02*
X96969880Y-95018902D01*
X96969880Y-95018902D02*
X96621689Y-94372045D01*
X96621689Y-94372045D02*
X96296903Y-93725913D01*
X96296903Y-93725913D02*
X95996501Y-93082265D01*
X95996501Y-93082265D02*
X95721461Y-92442861D01*
X95721461Y-92442861D02*
X95472761Y-91809460D01*
X95472761Y-91809460D02*
X95251379Y-91183821D01*
X95251379Y-91183821D02*
X95058293Y-90567702D01*
X95058293Y-90567702D02*
X94894481Y-89962863D01*
X94894481Y-89962863D02*
X94664032Y-88980819D01*
X94664032Y-88980819D02*
X94588655Y-88589558D01*
X94588655Y-88589558D02*
X94535796Y-88231601D01*
X94535796Y-88231601D02*
X94502420Y-87882044D01*
X94502420Y-87882044D02*
X94485492Y-87515985D01*
X94485492Y-87515985D02*
X94488842Y-86634746D01*
X94488842Y-86634746D02*
X94505910Y-86206974D01*
X94505910Y-86206974D02*
X94538714Y-85765193D01*
X94538714Y-85765193D02*
X94649137Y-84849041D01*
X94649137Y-84849041D02*
X94815327Y-83905170D01*
X94815327Y-83905170D02*
X95032496Y-82952456D01*
X95032496Y-82952456D02*
X95295859Y-82009779D01*
X95295859Y-82009779D02*
X95600631Y-81096017D01*
X95600631Y-81096017D02*
X95942024Y-80230049D01*
X95942024Y-80230049D02*
X96315252Y-79430753D01*
X96315252Y-79430753D02*
X96833894Y-78479280D01*
X96833894Y-78479280D02*
X97459502Y-77437775D01*
X97459502Y-77437775D02*
X98162589Y-76348061D01*
X98162589Y-76348061D02*
X98913665Y-75251963D01*
X98913665Y-75251963D02*
X99683243Y-74191303D01*
X99683243Y-74191303D02*
X100441834Y-73207905D01*
X100441834Y-73207905D02*
X101159950Y-72343594D01*
X101159950Y-72343594D02*
X101494615Y-71969165D01*
X101494615Y-71969165D02*
X101808102Y-71640192D01*
X101808102Y-71640192D02*
X102240961Y-71215205D01*
X102240961Y-71215205D02*
X102696539Y-70790775D01*
X102696539Y-70790775D02*
X103668570Y-69948664D01*
X103668570Y-69948664D02*
X104709627Y-69124019D01*
X104709627Y-69124019D02*
X105805147Y-68327000D01*
X105805147Y-68327000D02*
X106940563Y-67567770D01*
X106940563Y-67567770D02*
X108101310Y-66856487D01*
X108101310Y-66856487D02*
X109272822Y-66203313D01*
X109272822Y-66203313D02*
X109858062Y-65901692D01*
X109858062Y-65901692D02*
X110440532Y-65618409D01*
X110440532Y-65618409D02*
X114018287Y-63948449D01*
X114018287Y-63948449D02*
X115151995Y-63435895D01*
X115151995Y-63435895D02*
X115905842Y-63112190D01*
X115905842Y-63112190D02*
X117715072Y-62319111D01*
X117715072Y-62319111D02*
X117940699Y-62261661D01*
X117940699Y-62261661D02*
X118348877Y-62105243D01*
X118348877Y-62105243D02*
X118881660Y-61873744D01*
X118881660Y-61873744D02*
X119481102Y-61591054D01*
X119481102Y-61591054D02*
X120187159Y-61258905D01*
X120187159Y-61258905D02*
X121010244Y-60892740D01*
X121010244Y-60892740D02*
X121848071Y-60537016D01*
X121848071Y-60537016D02*
X122598352Y-60236189D01*
X122598352Y-60236189D02*
X124268352Y-59579254D01*
X124268352Y-59579254D02*
X125994392Y-58880015D01*
X125994392Y-58880015D02*
X129526272Y-57426082D01*
X129526272Y-57426082D02*
X130254829Y-57114893D01*
X130254829Y-57114893D02*
X130933081Y-56803220D01*
X130933081Y-56803220D02*
X131485256Y-56527252D01*
X131485256Y-56527252D02*
X131835582Y-56323178D01*
X131835582Y-56323178D02*
X133780972Y-55022769D01*
X133780972Y-55022769D02*
X135102206Y-54125923D01*
X135102206Y-54125923D02*
X136309972Y-53264503D01*
X136309972Y-53264503D02*
X137240639Y-52604256D01*
X137240639Y-52604256D02*
X137628618Y-52349178D01*
X137628618Y-52349178D02*
X137895652Y-52191091D01*
X137895652Y-52191091D02*
X138421495Y-51871149D01*
X138421495Y-51871149D02*
X139041582Y-51435034D01*
X139041582Y-51435034D02*
X139382873Y-51194808D01*
X139382873Y-51194808D02*
X139804131Y-50924276D01*
X139804131Y-50924276D02*
X140251839Y-50656584D01*
X140251839Y-50656584D02*
X140672482Y-50424877D01*
X140672482Y-50424877D02*
X142702902Y-49343954D01*
X142702902Y-49343954D02*
X143194531Y-49088761D01*
X143194531Y-49088761D02*
X143729778Y-48829785D01*
X143729778Y-48829785D02*
X144244013Y-48597293D01*
X144244013Y-48597293D02*
X144672602Y-48421551D01*
X144672602Y-48421551D02*
X145565609Y-48062389D01*
X145565609Y-48062389D02*
X146472702Y-47666197D01*
X146472702Y-47666197D02*
X147110982Y-47396595D01*
X147110982Y-47396595D02*
X147442464Y-47280875D01*
X147442464Y-47280875D02*
X147813871Y-47168966D01*
X147813871Y-47168966D02*
X148771548Y-46929859D01*
X148771548Y-46929859D02*
X150174192Y-46625817D01*
X150174192Y-46625817D02*
X150787157Y-46521450D01*
X150787157Y-46521450D02*
X151519688Y-46437363D01*
X151519688Y-46437363D02*
X152345180Y-46374419D01*
X152345180Y-46374419D02*
X153237027Y-46333477D01*
X153237027Y-46333477D02*
X154168622Y-46315401D01*
X154168622Y-46315401D02*
X155113358Y-46321052D01*
X155113358Y-46321052D02*
X156044630Y-46351288D01*
X156044630Y-46351288D02*
X156935832Y-46406972D01*
X156935832Y-46406972D02*
X158030677Y-46505703D01*
X158030677Y-46505703D02*
X158430722Y-46561768D01*
X158430722Y-46561768D02*
X158784188Y-46635137D01*
X158784188Y-46635137D02*
X159129828Y-46735436D01*
X159129828Y-46735436D02*
X159506397Y-46872292D01*
X159506397Y-46872292D02*
X160507332Y-47294180D01*
X160507332Y-47294180D02*
X161212581Y-47617127D01*
X161212581Y-47617127D02*
X161875998Y-47950792D01*
X161875998Y-47950792D02*
X162423040Y-48255839D01*
X162423040Y-48255839D02*
X162779162Y-48492935D01*
X162779162Y-48492935D02*
X163362461Y-48922885D01*
X163362461Y-48922885D02*
X163962102Y-49309754D01*
X163962102Y-49309754D02*
X164450714Y-49629753D01*
X164450714Y-49629753D02*
X164996024Y-50048763D01*
X164996024Y-50048763D02*
X165580192Y-50549475D01*
X165580192Y-50549475D02*
X166185377Y-51114581D01*
X166185377Y-51114581D02*
X166793738Y-51726774D01*
X166793738Y-51726774D02*
X167387434Y-52368745D01*
X167387434Y-52368745D02*
X167948626Y-53023188D01*
X167948626Y-53023188D02*
X168459472Y-53672791D01*
X168459472Y-53672791D02*
X168994275Y-54417591D01*
X168994275Y-54417591D02*
X169499247Y-55184442D01*
X169499247Y-55184442D02*
X169980831Y-55985647D01*
X169980831Y-55985647D02*
X170445468Y-56833507D01*
X170445468Y-56833507D02*
X170899600Y-57740326D01*
X170899600Y-57740326D02*
X171349669Y-58718406D01*
X171349669Y-58718406D02*
X171802115Y-59780048D01*
X171802115Y-59780048D02*
X172263382Y-60937557D01*
X172263382Y-60937557D02*
X172791802Y-62222823D01*
X172791802Y-62222823D02*
X172828622Y-62365942D01*
X172828622Y-62365942D02*
X172928868Y-62659131D01*
X172928868Y-62659131D02*
X173258404Y-63524840D01*
X173258404Y-63524840D02*
X173463200Y-64065459D01*
X173463200Y-64065459D02*
X173675901Y-64671436D01*
X173675901Y-64671436D02*
X173871371Y-65268671D01*
X173871371Y-65268671D02*
X174024474Y-65783067D01*
X174024474Y-65783067D02*
X174208932Y-66367614D01*
X174208932Y-66367614D02*
X174489788Y-67155853D01*
X174489788Y-67155853D02*
X174828864Y-68044517D01*
X174828864Y-68044517D02*
X175187984Y-68930334D01*
X175187984Y-68930334D02*
X175798198Y-70412535D01*
X175798198Y-70412535D02*
X176052004Y-71082605D01*
X176052004Y-71082605D02*
X176155974Y-71326088D01*
X176155974Y-71326088D02*
X176435830Y-71887277D01*
X176435830Y-71887277D02*
X177330868Y-73600482D01*
X177330868Y-73600482D02*
X178352459Y-75497635D01*
X178352459Y-75497635D02*
X179115944Y-76854153D01*
X179115944Y-76854153D02*
X179668284Y-77833061D01*
X179668284Y-77833061D02*
X180138844Y-78755936D01*
X180138844Y-78755936D02*
X181412864Y-81404844D01*
X181412864Y-81404844D02*
X182985844Y-84665039D01*
X182985844Y-84665039D02*
X183286066Y-85277387D01*
X183286066Y-85277387D02*
X183577706Y-85840069D01*
X183577706Y-85840069D02*
X183827426Y-86290681D01*
X183827426Y-86290681D02*
X184001884Y-86566822D01*
X184001884Y-86566822D02*
X184153504Y-86792901D01*
X184153504Y-86792901D02*
X184341034Y-87107208D01*
X184341034Y-87107208D02*
X184728467Y-87834163D01*
X184728467Y-87834163D02*
X185103771Y-88550099D01*
X185103771Y-88550099D02*
X185413757Y-89063991D01*
X185413757Y-89063991D02*
X185577393Y-89324994D01*
X185577393Y-89324994D02*
X185828167Y-89762119D01*
X185828167Y-89762119D02*
X186454527Y-90921006D01*
X186454527Y-90921006D02*
X187145858Y-92190670D01*
X187145858Y-92190670D02*
X187466961Y-92747707D01*
X187466961Y-92747707D02*
X187716477Y-93155138D01*
X187716477Y-93155138D02*
X188160300Y-93878038D01*
X188160300Y-93878038D02*
X188535434Y-94575716D01*
X188535434Y-94575716D02*
X188844938Y-95257710D01*
X188844938Y-95257710D02*
X189091870Y-95933558D01*
X189091870Y-95933558D02*
X189279285Y-96612799D01*
X189279285Y-96612799D02*
X189410243Y-97304971D01*
X189410243Y-97304971D02*
X189487803Y-98019611D01*
X189487803Y-98019611D02*
X189515023Y-98766259D01*
X189515023Y-98766259D02*
X189493933Y-99715172D01*
X189493933Y-99715172D02*
X189426633Y-100723241D01*
X189426633Y-100723241D02*
X189318334Y-101757609D01*
X189318334Y-101757609D02*
X189174238Y-102785419D01*
X189174238Y-102785419D02*
X188999551Y-103773813D01*
X188999551Y-103773813D02*
X188799478Y-104689933D01*
X188799478Y-104689933D02*
X188579226Y-105500922D01*
X188579226Y-105500922D02*
X188463159Y-105856724D01*
X188463159Y-105856724D02*
X188343999Y-106173921D01*
X188343999Y-106173921D02*
X188200028Y-106502067D01*
X188200028Y-106502067D02*
X188026643Y-106851137D01*
X188026643Y-106851137D02*
X187596293Y-107605852D01*
X187596293Y-107605852D02*
X187062266Y-108425670D01*
X187062266Y-108425670D02*
X186433879Y-109298192D01*
X186433879Y-109298192D02*
X185720449Y-110211023D01*
X185720449Y-110211023D02*
X184931293Y-111151764D01*
X184931293Y-111151764D02*
X184075730Y-112108020D01*
X184075730Y-112108020D02*
X183163076Y-113067393D01*
X183163076Y-113067393D02*
X182346514Y-113880224D01*
X182346514Y-113880224D02*
X181604227Y-114572113D01*
X181604227Y-114572113D02*
X180911982Y-115160019D01*
X180911982Y-115160019D02*
X180245546Y-115660900D01*
X180245546Y-115660900D02*
X179580687Y-116091716D01*
X179580687Y-116091716D02*
X178893172Y-116469426D01*
X178893172Y-116469426D02*
X178158769Y-116810988D01*
X178158769Y-116810988D02*
X177353246Y-117133362D01*
X177353246Y-117133362D02*
X176602872Y-117382243D01*
X176602872Y-117382243D02*
X175640622Y-117653449D01*
X175640622Y-117653449D02*
X174542385Y-117930344D01*
X174542385Y-117930344D02*
X173384047Y-118196296D01*
X173384047Y-118196296D02*
X172241498Y-118434671D01*
X172241498Y-118434671D02*
X171190624Y-118628834D01*
X171190624Y-118628834D02*
X170307314Y-118762153D01*
X170307314Y-118762153D02*
X169952211Y-118800793D01*
X169952211Y-118800793D02*
X169667456Y-118817993D01*
X169667456Y-118817993D02*
X169192006Y-118829133D01*
X169192006Y-118829133D02*
X168141412Y-118936329D01*
X168141412Y-118936329D02*
X168060232Y-118948559D01*
X168060232Y-118948559D02*
X168093212Y-118949260D01*
X168093212Y-118949260D02*
X168109872Y-118949055D01*
X168109872Y-118949055D02*
X168103872Y-118950455D01*
X168103872Y-118950455D02*
X167955833Y-118964245D01*
X167955833Y-118964245D02*
X166637799Y-119077707D01*
X166637799Y-119077707D02*
X165959631Y-119079907D01*
X165959631Y-119079907D02*
X165275066Y-119046167D01*
X165275066Y-119046167D02*
X164588385Y-118977187D01*
X164588385Y-118977187D02*
X163903874Y-118873733D01*
X163903874Y-118873733D02*
X163225814Y-118736559D01*
X163225814Y-118736559D02*
X162558490Y-118566420D01*
X162558490Y-118566420D02*
X161906184Y-118364073D01*
X161906184Y-118364073D02*
X161273179Y-118130275D01*
X161273179Y-118130275D02*
X160294503Y-117763143D01*
X160294503Y-117763143D02*
X159411399Y-117469600D01*
X159411399Y-117469600D02*
X158652305Y-117219187D01*
X158652305Y-117219187D02*
X157971789Y-116955745D01*
X157971789Y-116955745D02*
X157536274Y-116746088D01*
X157536274Y-116746088D02*
X157041934Y-116475342D01*
X157041934Y-116475342D02*
X156512730Y-116159326D01*
X156512730Y-116159326D02*
X155972623Y-115813860D01*
X155972623Y-115813860D02*
X155445575Y-115454766D01*
X155445575Y-115454766D02*
X154955547Y-115097861D01*
X154955547Y-115097861D02*
X154526502Y-114758967D01*
X154526502Y-114758967D02*
X154182399Y-114453903D01*
X154182399Y-114453903D02*
X153955120Y-114247314D01*
X153955120Y-114247314D02*
X153717411Y-114053804D01*
X153717411Y-114053804D02*
X153476011Y-113877483D01*
X153476011Y-113877483D02*
X153237659Y-113722457D01*
X153237659Y-113722457D02*
X153009095Y-113592837D01*
X153009095Y-113592837D02*
X152797057Y-113492729D01*
X152797057Y-113492729D02*
X152608285Y-113426239D01*
X152608285Y-113426239D02*
X152449519Y-113397479D01*
X152449519Y-113397479D02*
X152426089Y-113625489D01*
X152426089Y-113625489D02*
X152417489Y-114176524D01*
X152417489Y-114176524D02*
X152433619Y-114608153D01*
X152433619Y-114608153D02*
X152480069Y-115044325D01*
X152480069Y-115044325D02*
X152557319Y-115486778D01*
X152557319Y-115486778D02*
X152665840Y-115937253D01*
X152665840Y-115937253D02*
X152806114Y-116397489D01*
X152806114Y-116397489D02*
X152978617Y-116869225D01*
X152978617Y-116869225D02*
X153183826Y-117354201D01*
X153183826Y-117354201D02*
X153422218Y-117854155D01*
X153422218Y-117854155D02*
X153720709Y-118512229D01*
X153720709Y-118512229D02*
X154087877Y-119416851D01*
X154087877Y-119416851D02*
X154477138Y-120448765D01*
X154477138Y-120448765D02*
X154841908Y-121488710D01*
X154841908Y-121488710D02*
X155569196Y-123627022D01*
X155569196Y-123627022D02*
X156170558Y-125349489D01*
X156170558Y-125349489D02*
X156448477Y-126163185D01*
X156448477Y-126163185D02*
X156538607Y-126482071D01*
X156538607Y-126482071D02*
X156602177Y-126775825D01*
X156602177Y-126775825D02*
X156643687Y-127069579D01*
X156643687Y-127069579D02*
X156667627Y-127388464D01*
X156667627Y-127388464D02*
X156680767Y-128202160D01*
X156680767Y-128202160D02*
X156663947Y-128984474D01*
X156663947Y-128984474D02*
X156639647Y-129315129D01*
X156639647Y-129315129D02*
X156601347Y-129628497D01*
X156601347Y-129628497D02*
X156546487Y-129941866D01*
X156546487Y-129941866D02*
X156472507Y-130272520D01*
X156472507Y-130272520D02*
X156256947Y-131054834D01*
X156256947Y-131054834D02*
X155874629Y-132249401D01*
X155874629Y-132249401D02*
X155692925Y-132758497D01*
X155692925Y-132758497D02*
X155548517Y-133118513D01*
X155548517Y-133118513D02*
X155376165Y-133450975D01*
X155376165Y-133450975D02*
X155130331Y-133854613D01*
X155130331Y-133854613D02*
X154829017Y-134305055D01*
X154829017Y-134305055D02*
X154490222Y-134777927D01*
X154490222Y-134777927D02*
X154131948Y-135248859D01*
X154131948Y-135248859D02*
X153772195Y-135693477D01*
X153772195Y-135693477D02*
X153428965Y-136087409D01*
X153428965Y-136087409D02*
X153120257Y-136406284D01*
X153120257Y-136406284D02*
X152567507Y-136935363D01*
X152567507Y-136935363D02*
X152284692Y-137187555D01*
X152284692Y-137187555D02*
X151907407Y-137385403D01*
X151907407Y-137385403D02*
X150225707Y-138482255D01*
X150225707Y-138482255D02*
X148897874Y-139333482D01*
X148897874Y-139333482D02*
X148401704Y-139619264D01*
X148401704Y-139619264D02*
X147934773Y-139848527D01*
X147934773Y-139848527D02*
X147435139Y-140048802D01*
X147435139Y-140048802D02*
X146840859Y-140247614D01*
X146840859Y-140247614D02*
X145120587Y-140750964D01*
X145120587Y-140750964D02*
X143322725Y-141243252D01*
X143322725Y-141243252D02*
X142594868Y-141419092D01*
X142594868Y-141419092D02*
X141935743Y-141556651D01*
X141935743Y-141556651D02*
X141311361Y-141662372D01*
X141311361Y-141662372D02*
X140687731Y-141742692D01*
X140687731Y-141742692D02*
X140030866Y-141804062D01*
X140030866Y-141804062D02*
X139306777Y-141852922D01*
X139306777Y-141852922D02*
X137269147Y-141982671D01*
X137269147Y-141982671D02*
X136933020Y-141993481D01*
X136933020Y-141993481D02*
X136519912Y-141985381D01*
X136519912Y-141985381D02*
X136082219Y-141960521D01*
X136082219Y-141960521D02*
X135672337Y-141920931D01*
X135672337Y-141920931D02*
X135672377Y-141920992D01*
X135672377Y-141920992D02*
X135672421Y-141921116D01*
X149184032Y-48226688D02*
X153719747Y-47754217D01*
X153719747Y-47754217D02*
X158538944Y-48084946D01*
X158538944Y-48084946D02*
X159460260Y-48722781D01*
X159460260Y-48722781D02*
X159483890Y-49549604D01*
X159483890Y-49549604D02*
X148262715Y-49549604D01*
X148262715Y-49549604D02*
X148215465Y-48793652D01*
X148215465Y-48793652D02*
X149184028Y-48226688D01*
X149184028Y-48226688D02*
X149184032Y-48226688D01*
G36*
X140722165Y-99483795D02*
X140158205Y-98919835D01*
X140722165Y-98355875D01*
X141286125Y-98919835D01*
X140722165Y-99483795D01*
X140722165Y-99483795D01*
G37*
G36*
X141781835Y-98424125D02*
X141217875Y-97860165D01*
X141781835Y-97296205D01*
X142345795Y-97860165D01*
X141781835Y-98424125D01*
X141781835Y-98424125D01*
G37*
D11*
X126520000Y-95354700D03*
X126520000Y-96853300D03*
X125504000Y-102949300D03*
X125504000Y-101450700D03*
X124488000Y-109045300D03*
X124488000Y-107546700D03*
D10*
G36*
X138436165Y-101769795D02*
X137872205Y-101205835D01*
X138436165Y-100641875D01*
X139000125Y-101205835D01*
X138436165Y-101769795D01*
X138436165Y-101769795D01*
G37*
G36*
X139495835Y-100710125D02*
X138931875Y-100146165D01*
X139495835Y-99582205D01*
X140059795Y-100146165D01*
X139495835Y-100710125D01*
X139495835Y-100710125D01*
G37*
G36*
X137872205Y-103702165D02*
X138436165Y-103138205D01*
X139000125Y-103702165D01*
X138436165Y-104266125D01*
X137872205Y-103702165D01*
X137872205Y-103702165D01*
G37*
G36*
X138931875Y-104761835D02*
X139495835Y-104197875D01*
X140059795Y-104761835D01*
X139495835Y-105325795D01*
X138931875Y-104761835D01*
X138931875Y-104761835D01*
G37*
D11*
X124996000Y-104498700D03*
X124996000Y-105997300D03*
X136426000Y-96853300D03*
X136426000Y-95354700D03*
X102349300Y-95130000D03*
X100850700Y-95130000D03*
X148364000Y-63096700D03*
X148364000Y-64595300D03*
X148872000Y-66144700D03*
X148872000Y-67643300D03*
X132350700Y-74380000D03*
X133849300Y-74380000D03*
X149634000Y-69192700D03*
X149634000Y-70691300D03*
X110249300Y-82750000D03*
X108750700Y-82750000D03*
X111850700Y-80630000D03*
X113349300Y-80630000D03*
X115600700Y-78880000D03*
X117099300Y-78880000D03*
X119600700Y-77380000D03*
X121099300Y-77380000D03*
X156492000Y-59261300D03*
X156492000Y-57762700D03*
X149101400Y-76130000D03*
X150600000Y-76130000D03*
X154849300Y-77380000D03*
X153350700Y-77380000D03*
X125348600Y-76130000D03*
X123850000Y-76130000D03*
X161351400Y-81130000D03*
X162850000Y-81130000D03*
X178323300Y-99406000D03*
X176824700Y-99406000D03*
X175046700Y-95850000D03*
X176545300Y-95850000D03*
X179019300Y-103580000D03*
X177520700Y-103580000D03*
X135410000Y-101450700D03*
X135410000Y-102949300D03*
X134902000Y-104498700D03*
X134902000Y-105997300D03*
X126012000Y-98402700D03*
X126012000Y-99901300D03*
X135918000Y-98402700D03*
X135918000Y-99901300D03*
X134394000Y-107546700D03*
X134394000Y-109045300D03*
D10*
G36*
X140158205Y-105988165D02*
X140722165Y-105424205D01*
X141286125Y-105988165D01*
X140722165Y-106552125D01*
X140158205Y-105988165D01*
X140158205Y-105988165D01*
G37*
G36*
X141217875Y-107047835D02*
X141781835Y-106483875D01*
X142345795Y-107047835D01*
X141781835Y-107611795D01*
X141217875Y-107047835D01*
X141217875Y-107047835D01*
G37*
D11*
X147348000Y-57000700D03*
X147348000Y-58499300D03*
X147856000Y-60048700D03*
X147856000Y-61547300D03*
X101350700Y-91630000D03*
X102849300Y-91630000D03*
X153444000Y-64849300D03*
X153444000Y-63350700D03*
X103070865Y-88409835D03*
X104569465Y-88409835D03*
X154968000Y-62055300D03*
X154968000Y-60556700D03*
X107069465Y-85409835D03*
X105570865Y-85409835D03*
X138098600Y-74130000D03*
X136600000Y-74130000D03*
X151666000Y-67643300D03*
X151666000Y-66144700D03*
X158016000Y-56467300D03*
X158016000Y-54968700D03*
X142349300Y-74380000D03*
X140850700Y-74380000D03*
X145101400Y-75130000D03*
X146600000Y-75130000D03*
X128100000Y-74880000D03*
X129598600Y-74880000D03*
X158849300Y-79380000D03*
X157350700Y-79380000D03*
X166349300Y-83630000D03*
X164850700Y-83630000D03*
X167850700Y-86380000D03*
X169349300Y-86380000D03*
X172099300Y-89130000D03*
X170600700Y-89130000D03*
X172850700Y-92380000D03*
X174349300Y-92380000D03*
X175808700Y-114646000D03*
X177307300Y-114646000D03*
X176760700Y-110760000D03*
X178259300Y-110760000D03*
X177400700Y-107440000D03*
X178899300Y-107440000D03*
D12*
X155984000Y-103660000D03*
X152682000Y-108230000D03*
X165023800Y-112318800D03*
X160350200Y-104038400D03*
X157835600Y-104292400D03*
X152069800Y-73736200D03*
X157200600Y-74066400D03*
X104775000Y-79222600D03*
X165354000Y-114554000D03*
X158016000Y-95220000D03*
X153110795Y-89210795D03*
X172099300Y-89130000D03*
X153444000Y-64849300D03*
X143720000Y-74450000D03*
X142349300Y-74380000D03*
X126520000Y-95354700D03*
X155730000Y-95220000D03*
X126012000Y-98402700D03*
X125504000Y-102949300D03*
X154940000Y-93790000D03*
X153365799Y-93790000D03*
X160130000Y-97840000D03*
X165290000Y-102110000D03*
X110249300Y-82750000D03*
X148872000Y-67643300D03*
X158849300Y-79380000D03*
X124996000Y-104498700D03*
X124488000Y-109045300D03*
X154968000Y-62055300D03*
X166349300Y-83630000D03*
X135410000Y-101450700D03*
X136426000Y-96853300D03*
X138098600Y-74130000D03*
X149570000Y-93140000D03*
X147810000Y-92420000D03*
X148872000Y-95219999D03*
X149634000Y-69192700D03*
X149101400Y-76130000D03*
X152120000Y-76350000D03*
X135120000Y-73860000D03*
X134902000Y-104498700D03*
X135918000Y-98402700D03*
X118480000Y-82550000D03*
X121130000Y-90859806D03*
X167020000Y-97870000D03*
X146586000Y-95220000D03*
X139874264Y-96081800D03*
X139970000Y-93880000D03*
X115600700Y-78880000D03*
X128100000Y-74880000D03*
X175046700Y-95850000D03*
X118480000Y-78410000D03*
X138436165Y-101205835D03*
X134394000Y-107546700D03*
X143967200Y-98120200D03*
X157226000Y-96351411D03*
X148336000Y-105918000D03*
X172850700Y-92380000D03*
X161351400Y-81130000D03*
X147830000Y-69310000D03*
X158016000Y-56467300D03*
X140722165Y-98919835D03*
X138436165Y-103702165D03*
X149634000Y-104160000D03*
X154849300Y-77380000D03*
X119600700Y-77380000D03*
X140722165Y-105988165D03*
X168000000Y-106000000D03*
X164084000Y-114554000D03*
X130810000Y-95750000D03*
X133140000Y-99040000D03*
D13*
X155984000Y-103660000D02*
X155284000Y-103660000D01*
X155284000Y-103660000D02*
X152682000Y-106262000D01*
X152682000Y-106262000D02*
X152682000Y-107480000D01*
X152682000Y-107480000D02*
X152682000Y-108230000D01*
D14*
X165354000Y-114554000D02*
X165354000Y-112649000D01*
X165354000Y-112649000D02*
X165023800Y-112318800D01*
X157835600Y-104292400D02*
X160096200Y-104292400D01*
X160096200Y-104292400D02*
X160350200Y-104038400D01*
X157200600Y-74066400D02*
X152400000Y-74066400D01*
X152400000Y-74066400D02*
X152069800Y-73736200D01*
D15*
X153110795Y-89210795D02*
X153110795Y-90314795D01*
X153110795Y-90314795D02*
X158016000Y-95220000D01*
D14*
X147856000Y-61547300D02*
X148504780Y-61547300D01*
X148504780Y-61547300D02*
X149116381Y-62158901D01*
X149116381Y-62158901D02*
X152717019Y-62158901D01*
X148582981Y-61469099D02*
X148582981Y-57586901D01*
X148504780Y-61547300D02*
X148582981Y-61469099D01*
X148582981Y-57586901D02*
X147996780Y-57000700D01*
X147996780Y-57000700D02*
X147348000Y-57000700D01*
X154968000Y-60556700D02*
X154319220Y-60556700D01*
X152717019Y-64771099D02*
X152795220Y-64849300D01*
X154319220Y-60556700D02*
X152717019Y-62158901D01*
X152717019Y-62158901D02*
X152717019Y-64771099D01*
X152795220Y-64849300D02*
X153444000Y-64849300D01*
X175190000Y-93470000D02*
X174790520Y-93470000D01*
X174790520Y-93470000D02*
X174349300Y-93028780D01*
X174349300Y-93028780D02*
X174349300Y-92380000D01*
X176545300Y-94825300D02*
X175190000Y-93470000D01*
X176545300Y-95850000D02*
X176545300Y-94825300D01*
X177504080Y-96160000D02*
X177194080Y-95850000D01*
X177504080Y-96160000D02*
X177504080Y-97190780D01*
X178323300Y-99406000D02*
X178323300Y-98010000D01*
X177504080Y-97190780D02*
X178323300Y-98010000D01*
X177194080Y-95850000D02*
X176545300Y-95850000D01*
X179019300Y-103580000D02*
X179019300Y-101160000D01*
X178323300Y-99406000D02*
X178323300Y-100054780D01*
X178323300Y-100054780D02*
X179019300Y-100750780D01*
X179019300Y-100750780D02*
X179019300Y-101160000D01*
X178899300Y-107440000D02*
X178899300Y-103700000D01*
X178899300Y-103700000D02*
X179019300Y-103580000D01*
X173190000Y-90240000D02*
X174349300Y-91399300D01*
X174349300Y-91399300D02*
X174349300Y-92380000D01*
X173190000Y-89571920D02*
X173190000Y-90240000D01*
X172099300Y-89130000D02*
X172748080Y-89130000D01*
X172748080Y-89130000D02*
X173190000Y-89571920D01*
X146600000Y-75130000D02*
X146600000Y-74481220D01*
X146600000Y-74481220D02*
X146521799Y-74403019D01*
X146521799Y-74403019D02*
X143766981Y-74403019D01*
X143766981Y-74403019D02*
X143720000Y-74450000D01*
X126520000Y-95354700D02*
X127168780Y-95354700D01*
X126660780Y-99901300D02*
X126012000Y-99901300D01*
X127168780Y-95354700D02*
X127246981Y-95432901D01*
X127246981Y-95432901D02*
X127246981Y-99315099D01*
X127246981Y-99315099D02*
X126660780Y-99901300D01*
X141182009Y-96150000D02*
X155400000Y-96150000D01*
X137679622Y-95220000D02*
X137690000Y-95220000D01*
X137690000Y-95220000D02*
X138620000Y-96150000D01*
X138620000Y-96150000D02*
X138630000Y-96150000D01*
X138630000Y-96150000D02*
X139670000Y-97190000D01*
X139670000Y-97190000D02*
X140142009Y-97190000D01*
X140142009Y-97190000D02*
X141182009Y-96150000D01*
X155730000Y-95820000D02*
X155730000Y-95220000D01*
X155400000Y-96150000D02*
X155730000Y-95820000D01*
D15*
X137679622Y-95220000D02*
X137680000Y-95220000D01*
D14*
X125348600Y-94117660D02*
X122860940Y-91630000D01*
X122860940Y-91630000D02*
X102849300Y-91630000D01*
X125858659Y-94627719D02*
X125348600Y-94117660D01*
X125348600Y-94117660D02*
X125348600Y-76130000D01*
X125858659Y-94627719D02*
X125793019Y-94693359D01*
X137679622Y-95220000D02*
X137087341Y-94627719D01*
X125793019Y-96775099D02*
X125871220Y-96853300D01*
X137087341Y-94627719D02*
X125858659Y-94627719D01*
X125793019Y-94693359D02*
X125793019Y-96775099D01*
X125871220Y-96853300D02*
X126520000Y-96853300D01*
X136600000Y-74130000D02*
X136600000Y-74778780D01*
X136600000Y-74778780D02*
X136271799Y-75106981D01*
X136271799Y-75106981D02*
X132428901Y-75106981D01*
X132428901Y-75106981D02*
X132350700Y-75028780D01*
X132350700Y-75028780D02*
X132350700Y-74380000D01*
X129598600Y-74880000D02*
X131850700Y-74880000D01*
X131850700Y-74880000D02*
X132350700Y-74380000D01*
X125348600Y-76130000D02*
X125997380Y-76130000D01*
X125997380Y-76130000D02*
X126520399Y-75606981D01*
X129520399Y-75606981D02*
X129598600Y-75528780D01*
X126520399Y-75606981D02*
X129520399Y-75606981D01*
X129598600Y-75528780D02*
X129598600Y-74880000D01*
X102349300Y-95130000D02*
X102349300Y-92130000D01*
X102349300Y-92130000D02*
X102849300Y-91630000D01*
X125420000Y-105997300D02*
X124996000Y-105997300D01*
X125504000Y-102949300D02*
X125504000Y-103598080D01*
X125504000Y-103598080D02*
X125722981Y-103817061D01*
X125722981Y-103817061D02*
X125722981Y-105694319D01*
X125722981Y-105694319D02*
X125420000Y-105997300D01*
X126520000Y-96853300D02*
X126520000Y-97894700D01*
X126520000Y-97894700D02*
X126012000Y-98402700D01*
X155870673Y-93790000D02*
X154940000Y-93790000D01*
X154940000Y-93790000D02*
X153365799Y-93790000D01*
X134737809Y-99462191D02*
X132749300Y-101450700D01*
X132749300Y-101450700D02*
X130330000Y-101450700D01*
X134720700Y-97060000D02*
X136426000Y-95354700D01*
X134720700Y-97060000D02*
X134737809Y-97077109D01*
X134737809Y-97077109D02*
X134737809Y-99462191D01*
X160130000Y-97840000D02*
X159705736Y-97840000D01*
X159705736Y-97840000D02*
X157255799Y-95390063D01*
X157255799Y-95390063D02*
X157255799Y-95175126D01*
X157255799Y-95175126D02*
X155870673Y-93790000D01*
X176760700Y-110760000D02*
X173940000Y-110760000D01*
X173940000Y-110760000D02*
X165290000Y-102110000D01*
X148364000Y-63096700D02*
X147715220Y-63096700D01*
X147715220Y-63096700D02*
X147637019Y-63174901D01*
X147637019Y-63174901D02*
X147637019Y-67057099D01*
X147637019Y-67057099D02*
X148223220Y-67643300D01*
X148223220Y-67643300D02*
X148872000Y-67643300D01*
X147856000Y-60048700D02*
X147207220Y-60048700D01*
X147207220Y-60048700D02*
X147129019Y-60126901D01*
X147129019Y-60126901D02*
X147129019Y-62510499D01*
X147129019Y-62510499D02*
X147715220Y-63096700D01*
X147348000Y-58499300D02*
X147348000Y-59540700D01*
X147348000Y-59540700D02*
X147856000Y-60048700D01*
X175808700Y-114646000D02*
X175808700Y-111063220D01*
X175808700Y-111063220D02*
X176111920Y-110760000D01*
X176111920Y-110760000D02*
X176760700Y-110760000D01*
X162370000Y-80001220D02*
X162850000Y-80481220D01*
X160571220Y-80001220D02*
X159950000Y-79380000D01*
X158849300Y-79380000D02*
X159950000Y-79380000D01*
X162370000Y-80001220D02*
X160571220Y-80001220D01*
X162850000Y-80481220D02*
X162850000Y-81130000D01*
X110240000Y-82740000D02*
X113888080Y-82740000D01*
X113888080Y-82740000D02*
X117099300Y-79528780D01*
X117099300Y-79528780D02*
X117099300Y-78880000D01*
X124996000Y-104498700D02*
X124347220Y-104498700D01*
X124347220Y-104498700D02*
X123761019Y-105084901D01*
X123761019Y-105084901D02*
X123761019Y-108967099D01*
X123761019Y-108967099D02*
X123839220Y-109045300D01*
X125504000Y-101450700D02*
X124855220Y-101450700D01*
X124855220Y-101450700D02*
X124777019Y-101528901D01*
X124777019Y-103630939D02*
X124996000Y-103849920D01*
X124777019Y-101528901D02*
X124777019Y-103630939D01*
X124996000Y-103849920D02*
X124996000Y-104498700D01*
X124488000Y-109045300D02*
X123839220Y-109045300D01*
X125504000Y-101450700D02*
X130330000Y-101450700D01*
X124780219Y-101525701D02*
X124855220Y-101450700D01*
X124488000Y-107546700D02*
X126880000Y-107546700D01*
X126880000Y-107546700D02*
X129314000Y-107546700D01*
D15*
X123331209Y-109441209D02*
X123638881Y-109748881D01*
X123638881Y-109748881D02*
X125130621Y-109748881D01*
X125130621Y-109748881D02*
X126880000Y-107999502D01*
X126880000Y-107999502D02*
X126880000Y-107546700D01*
X116350000Y-101520000D02*
X123331209Y-108501209D01*
X123331209Y-108501209D02*
X123331209Y-109441209D01*
X106638720Y-101520000D02*
X116350000Y-101520000D01*
X100850700Y-95130000D02*
X100850700Y-95731980D01*
X100850700Y-95731980D02*
X106638720Y-101520000D01*
D14*
X156492000Y-59261300D02*
X157140780Y-59261300D01*
X157140780Y-59261300D02*
X158742981Y-57659099D01*
X158742981Y-57659099D02*
X158742981Y-55046901D01*
X158742981Y-55046901D02*
X158664780Y-54968700D01*
X158664780Y-54968700D02*
X158016000Y-54968700D01*
X154968000Y-62055300D02*
X155616780Y-62055300D01*
X155616780Y-62055300D02*
X156492000Y-61180080D01*
X156492000Y-61180080D02*
X156492000Y-59910080D01*
X156492000Y-59910080D02*
X156492000Y-59261300D01*
X154968000Y-62055300D02*
X154739400Y-62055300D01*
X154739400Y-62055300D02*
X153444000Y-63350700D01*
X166349300Y-83630000D02*
X167248080Y-83630000D01*
X167248080Y-83630000D02*
X169349300Y-85731220D01*
X169349300Y-85731220D02*
X169349300Y-86380000D01*
X103070865Y-88409835D02*
X103070865Y-87761055D01*
X103070865Y-87761055D02*
X105422085Y-85409835D01*
X105422085Y-85409835D02*
X105570865Y-85409835D01*
X103070865Y-88409835D02*
X103070865Y-89058615D01*
X103070865Y-89058615D02*
X101350700Y-90778780D01*
X101350700Y-90778780D02*
X101350700Y-91630000D01*
X100850700Y-95130000D02*
X100850700Y-92130000D01*
X100850700Y-92130000D02*
X101350700Y-91630000D01*
X136426000Y-96853300D02*
X135777220Y-96853300D01*
X135191019Y-99823099D02*
X135269220Y-99901300D01*
X135777220Y-96853300D02*
X135191019Y-97439501D01*
X135191019Y-97439501D02*
X135191019Y-99823099D01*
X135269220Y-99901300D02*
X135918000Y-99901300D01*
X129314000Y-107546700D02*
X135410000Y-101450700D01*
X135410000Y-101450700D02*
X135410000Y-100409300D01*
X135410000Y-100409300D02*
X135918000Y-99901300D01*
X149570000Y-93140000D02*
X149570000Y-94521999D01*
X149570000Y-94521999D02*
X148872000Y-95219999D01*
X149101400Y-76130000D02*
X149101400Y-91128600D01*
X149101400Y-91128600D02*
X147810000Y-92420000D01*
X149346790Y-95696790D02*
X148872000Y-95222000D01*
X148872000Y-95222000D02*
X148872000Y-95219999D01*
X154323472Y-95696790D02*
X149346790Y-95696790D01*
X135918000Y-98402700D02*
X139570243Y-98402700D01*
X141369733Y-96603210D02*
X155587725Y-96603210D01*
X139570243Y-98402700D02*
X141369733Y-96603210D01*
X155587725Y-96603210D02*
X156358201Y-95832734D01*
X156358201Y-95832734D02*
X156358201Y-94918463D01*
X156358201Y-94918463D02*
X156031537Y-94591799D01*
X156031537Y-94591799D02*
X155428463Y-94591799D01*
X155428463Y-94591799D02*
X154323472Y-95696790D01*
X151666000Y-66144700D02*
X151017220Y-66144700D01*
X151017220Y-66144700D02*
X149634000Y-67527920D01*
X149634000Y-67527920D02*
X149634000Y-68543920D01*
X149634000Y-68543920D02*
X149634000Y-69192700D01*
X148872000Y-66144700D02*
X149520780Y-66144700D01*
X149520780Y-66144700D02*
X151666000Y-66144700D01*
X148872000Y-66144700D02*
X148872000Y-65103300D01*
X148872000Y-65103300D02*
X148364000Y-64595300D01*
X153350700Y-77380000D02*
X153150000Y-77380000D01*
X153150000Y-77380000D02*
X152120000Y-76350000D01*
X149101400Y-76130000D02*
X145452620Y-76130000D01*
X145452620Y-76130000D02*
X145101400Y-75778780D01*
X145101400Y-75778780D02*
X145101400Y-75130000D01*
X145101400Y-75130000D02*
X140951920Y-75130000D01*
X140951920Y-75130000D02*
X140850700Y-75028780D01*
X140850700Y-75028780D02*
X140850700Y-74380000D01*
X140850700Y-74380000D02*
X138348600Y-74380000D01*
X138348600Y-74380000D02*
X138098600Y-74130000D01*
X135120000Y-73860000D02*
X134369300Y-73860000D01*
X134369300Y-73860000D02*
X133849300Y-74380000D01*
X134394000Y-109045300D02*
X133870000Y-109045300D01*
X134902000Y-104498700D02*
X134253220Y-104498700D01*
X134253220Y-104498700D02*
X133667019Y-105084901D01*
X133667019Y-105084901D02*
X133667019Y-108842319D01*
X133667019Y-108842319D02*
X133870000Y-109045300D01*
X135918000Y-98402700D02*
X136566780Y-98402700D01*
X136566780Y-98402700D02*
X136644981Y-98480901D01*
X136644981Y-98480901D02*
X136644981Y-102363099D01*
X136644981Y-102363099D02*
X136058780Y-102949300D01*
X136058780Y-102949300D02*
X135410000Y-102949300D01*
X134902000Y-104498700D02*
X134902000Y-103457300D01*
X134902000Y-103457300D02*
X135410000Y-102949300D01*
D15*
X120186194Y-89916000D02*
X121130000Y-90859806D01*
D14*
X120186194Y-84256194D02*
X118480000Y-82550000D01*
X120186194Y-89916000D02*
X120186194Y-84256194D01*
X146586000Y-95220000D02*
X146586000Y-94620000D01*
X146586000Y-94620000D02*
X152623406Y-88582594D01*
X152623406Y-88582594D02*
X157732594Y-88582594D01*
X157732594Y-88582594D02*
X167020000Y-97870000D01*
X139970000Y-94890000D02*
X139874264Y-94985736D01*
X139874264Y-94985736D02*
X139874264Y-96081800D01*
X139970000Y-93880000D02*
X139970000Y-94890000D01*
X175046700Y-95850000D02*
X175046700Y-98276780D01*
X175046700Y-98276780D02*
X176175920Y-99406000D01*
X176175920Y-99406000D02*
X176824700Y-99406000D01*
X123850000Y-76130000D02*
X123960278Y-76130000D01*
X123960278Y-76130000D02*
X125210278Y-74880000D01*
X125210278Y-74880000D02*
X127451220Y-74880000D01*
X127451220Y-74880000D02*
X128100000Y-74880000D01*
X121099300Y-77380000D02*
X121099300Y-76731220D01*
X121099300Y-76731220D02*
X121700520Y-76130000D01*
X121700520Y-76130000D02*
X123201220Y-76130000D01*
X123201220Y-76130000D02*
X123850000Y-76130000D01*
X118480000Y-78410000D02*
X120718080Y-78410000D01*
X120718080Y-78410000D02*
X121099300Y-78028780D01*
X121099300Y-78028780D02*
X121099300Y-77380000D01*
X108750700Y-82750000D02*
X108750700Y-83398780D01*
X108750700Y-83398780D02*
X108350700Y-83798780D01*
X108350700Y-83798780D02*
X108350700Y-84777380D01*
X108750700Y-82750000D02*
X108750700Y-82101220D01*
X108750700Y-82101220D02*
X110221920Y-80630000D01*
X110221920Y-80630000D02*
X111201920Y-80630000D01*
X111201920Y-80630000D02*
X111850700Y-80630000D01*
X112960000Y-79610000D02*
X112620000Y-79950000D01*
X111850700Y-80630000D02*
X111850700Y-79981220D01*
X111881920Y-79950000D02*
X112620000Y-79950000D01*
X111850700Y-79981220D02*
X111881920Y-79950000D01*
X114221920Y-79610000D02*
X112960000Y-79610000D01*
X115600700Y-78880000D02*
X114951920Y-78880000D01*
X114951920Y-78880000D02*
X114221920Y-79610000D01*
X108350700Y-84777380D02*
X107718245Y-85409835D01*
X107718245Y-85409835D02*
X107069465Y-85409835D01*
X104569465Y-88409835D02*
X104569465Y-87761055D01*
X104569465Y-87761055D02*
X106920685Y-85409835D01*
X106920685Y-85409835D02*
X107069465Y-85409835D01*
X138436165Y-101205835D02*
X138603665Y-101038335D01*
X138603665Y-101038335D02*
X138603665Y-100010213D01*
X138603665Y-100010213D02*
X140753713Y-97860165D01*
X140753713Y-97860165D02*
X141117875Y-97860165D01*
X141117875Y-97860165D02*
X141781835Y-97860165D01*
X134902000Y-105997300D02*
X138436165Y-102463135D01*
X138436165Y-102463135D02*
X138436165Y-101205835D01*
X134394000Y-107546700D02*
X134394000Y-106505300D01*
X134394000Y-106505300D02*
X134902000Y-105997300D01*
X143967200Y-98120200D02*
X143967200Y-97695936D01*
X143967200Y-97695936D02*
X144606716Y-97056420D01*
X144606716Y-97056420D02*
X156520991Y-97056420D01*
X156520991Y-97056420D02*
X156718000Y-96859411D01*
X156718000Y-96859411D02*
X157226000Y-96351411D01*
X141781835Y-107047835D02*
X147206165Y-107047835D01*
X147206165Y-107047835D02*
X148336000Y-105918000D01*
X141781835Y-107047835D02*
X140753713Y-107047835D01*
X140753713Y-107047835D02*
X138603665Y-104897787D01*
X138603665Y-104897787D02*
X138603665Y-104625883D01*
X147830000Y-69310000D02*
X148252700Y-69310000D01*
X148252700Y-69310000D02*
X149634000Y-70691300D01*
X158016000Y-56467300D02*
X157787400Y-56467300D01*
X157787400Y-56467300D02*
X156492000Y-57762700D01*
X151666000Y-67643300D02*
X151666000Y-68292080D01*
X151666000Y-68292080D02*
X150360981Y-69597099D01*
X150360981Y-69597099D02*
X150360981Y-70613099D01*
X150360981Y-70613099D02*
X150282780Y-70691300D01*
X150282780Y-70691300D02*
X149634000Y-70691300D01*
X177520700Y-103580000D02*
X177520700Y-101391715D01*
X177520700Y-101391715D02*
X172850700Y-96721715D01*
X172850700Y-96721715D02*
X172850700Y-93028780D01*
X172850700Y-93028780D02*
X172850700Y-92380000D01*
X177400700Y-107440000D02*
X177400700Y-103700000D01*
X177400700Y-103700000D02*
X177520700Y-103580000D01*
X167059015Y-82800000D02*
X162372620Y-82800000D01*
X162372620Y-82800000D02*
X161351400Y-81778780D01*
X161351400Y-81778780D02*
X161351400Y-81130000D01*
X170600700Y-89130000D02*
X170600700Y-86341685D01*
X170600700Y-86341685D02*
X167059015Y-82800000D01*
X170600700Y-89130000D02*
X170600700Y-90778780D01*
X170600700Y-90778780D02*
X172201920Y-92380000D01*
X172201920Y-92380000D02*
X172850700Y-92380000D01*
X157350700Y-79380000D02*
X157350700Y-80028780D01*
X157350700Y-80028780D02*
X158451920Y-81130000D01*
X158451920Y-81130000D02*
X160702620Y-81130000D01*
X160702620Y-81130000D02*
X161351400Y-81130000D01*
X138436165Y-103702165D02*
X138603665Y-103869665D01*
X138603665Y-103869665D02*
X138603665Y-104897787D01*
X138436165Y-103702165D02*
X139495835Y-102642495D01*
X139495835Y-102642495D02*
X139495835Y-100146165D01*
X139495835Y-100146165D02*
X140722165Y-98919835D01*
X155062001Y-103030000D02*
X155448000Y-103030000D01*
X155448000Y-103030000D02*
X163195738Y-103030000D01*
X149634000Y-104160000D02*
X150184000Y-104160000D01*
X150184000Y-104160000D02*
X151314000Y-103030000D01*
X151314000Y-103030000D02*
X155448000Y-103030000D01*
X141652370Y-104394000D02*
X149400000Y-104394000D01*
X149400000Y-104394000D02*
X149634000Y-104160000D01*
X140722165Y-105988165D02*
X140722165Y-105324205D01*
X140722165Y-105324205D02*
X141652370Y-104394000D01*
X167850700Y-98375038D02*
X163195738Y-103030000D01*
X167850700Y-86380000D02*
X167850700Y-98290000D01*
X167850700Y-98290000D02*
X167850700Y-98375038D01*
X178259300Y-110760000D02*
X178259300Y-110111220D01*
X178259300Y-110111220D02*
X167850700Y-99702620D01*
X167850700Y-99702620D02*
X167850700Y-98290000D01*
X177307300Y-114646000D02*
X177307300Y-111712000D01*
X177307300Y-111712000D02*
X178259300Y-110760000D01*
X167850700Y-86380000D02*
X166951920Y-86380000D01*
X166951920Y-86380000D02*
X164850700Y-84278780D01*
X164850700Y-84278780D02*
X164850700Y-83630000D01*
X164850700Y-83630000D02*
X160212378Y-83630000D01*
X154849300Y-78266922D02*
X154849300Y-78028780D01*
X160212378Y-83630000D02*
X154849300Y-78266922D01*
X154849300Y-78028780D02*
X154849300Y-77380000D01*
X150600000Y-76130000D02*
X150600000Y-76778780D01*
X150600000Y-76778780D02*
X151928201Y-78106981D01*
X151928201Y-78106981D02*
X154771099Y-78106981D01*
X154771099Y-78106981D02*
X154849300Y-78028780D01*
X113349300Y-80630000D02*
X115239022Y-80630000D01*
X115239022Y-80630000D02*
X116372319Y-79496703D01*
X116372319Y-79496703D02*
X116372319Y-78218659D01*
X116372319Y-78218659D02*
X117210978Y-77380000D01*
X117210978Y-77380000D02*
X118951920Y-77380000D01*
X118951920Y-77380000D02*
X119600700Y-77380000D01*
X139495835Y-104761835D02*
X140722165Y-105988165D01*
X164084000Y-114554000D02*
X164084000Y-109916000D01*
X164084000Y-109916000D02*
X168000000Y-106000000D01*
X133140000Y-99040000D02*
X133140000Y-98080000D01*
X133140000Y-98080000D02*
X130810000Y-95750000D01*
D16*
G36*
X147883255Y-49573322D02*
X147899259Y-49633779D01*
X147911456Y-49695100D01*
X147918138Y-49705100D01*
X147921216Y-49716729D01*
X147959133Y-49766453D01*
X147993873Y-49818446D01*
X148003875Y-49825129D01*
X148011168Y-49834693D01*
X148065221Y-49866119D01*
X148117219Y-49900863D01*
X148129017Y-49903210D01*
X148139415Y-49909255D01*
X148201379Y-49917604D01*
X148262715Y-49929804D01*
X159483890Y-49929804D01*
X159489306Y-49928727D01*
X159494751Y-49929649D01*
X159561877Y-49914291D01*
X159629386Y-49900863D01*
X159633976Y-49897796D01*
X159639361Y-49896564D01*
X159695503Y-49856685D01*
X159752732Y-49818446D01*
X159755799Y-49813855D01*
X159760302Y-49810657D01*
X159786983Y-49768146D01*
X159801112Y-49758474D01*
X159828355Y-49716056D01*
X159831049Y-49701237D01*
X159835149Y-49695100D01*
X159836226Y-49689683D01*
X159839162Y-49685006D01*
X159850659Y-49617125D01*
X159864090Y-49549604D01*
X159863013Y-49544188D01*
X159863935Y-49538743D01*
X159847404Y-48960300D01*
X160188832Y-49031162D01*
X162293439Y-50048883D01*
X165500183Y-52471315D01*
X168132387Y-55838549D01*
X169806822Y-59127618D01*
X169806845Y-59127662D01*
X171133342Y-61730788D01*
X172090699Y-64353547D01*
X172090932Y-64354179D01*
X172910594Y-66563269D01*
X173870289Y-69272407D01*
X173878386Y-69290591D01*
X174258386Y-69990591D01*
X174260339Y-69994059D01*
X174849956Y-71003404D01*
X175479016Y-72111747D01*
X176247447Y-73518874D01*
X176816101Y-74656181D01*
X178125569Y-77345090D01*
X180034032Y-81351862D01*
X181682857Y-85289057D01*
X181695064Y-85311536D01*
X184561775Y-89516712D01*
X185316088Y-90876461D01*
X187764856Y-96450892D01*
X188091818Y-101107612D01*
X187637360Y-102797009D01*
X187636676Y-102799666D01*
X187029529Y-105268066D01*
X186394604Y-106656965D01*
X185781208Y-107982691D01*
X185350830Y-108520664D01*
X185349860Y-108521891D01*
X184569860Y-109521891D01*
X184569479Y-109522382D01*
X183351657Y-111099561D01*
X181934347Y-112736454D01*
X181035384Y-113755279D01*
X180245979Y-114624624D01*
X180245079Y-114625626D01*
X180183914Y-114694437D01*
X180158465Y-114705344D01*
X178858997Y-114823477D01*
X178805300Y-114827952D01*
X178785413Y-114773263D01*
X178777377Y-114660754D01*
X178796194Y-114434948D01*
X178834286Y-114187350D01*
X179001984Y-113605341D01*
X179651926Y-111375539D01*
X179654358Y-111365768D01*
X179884358Y-110255768D01*
X179886135Y-110244800D01*
X180326135Y-106494800D01*
X180326767Y-106472317D01*
X180006767Y-101192317D01*
X180001665Y-101163578D01*
X179531665Y-99593578D01*
X179531293Y-99592357D01*
X179261746Y-98723815D01*
X179032170Y-97915310D01*
X179031795Y-97914015D01*
X178771795Y-97034015D01*
X178759393Y-97005486D01*
X178529984Y-96616488D01*
X177750784Y-95237904D01*
X176740902Y-93428115D01*
X176737043Y-93421657D01*
X175907043Y-92121657D01*
X175904766Y-92118216D01*
X175164766Y-91038216D01*
X175163874Y-91036930D01*
X174144723Y-89588137D01*
X173195556Y-88169382D01*
X173192838Y-88165480D01*
X172192838Y-86785480D01*
X172176200Y-86766734D01*
X171516833Y-86157319D01*
X170537422Y-85227878D01*
X170537289Y-85227752D01*
X169607289Y-84347752D01*
X169606265Y-84346794D01*
X168666265Y-83476794D01*
X168666108Y-83476649D01*
X167506108Y-82406649D01*
X167485110Y-82390960D01*
X166095573Y-81561236D01*
X164796394Y-80771736D01*
X163926975Y-80232096D01*
X163925071Y-80230937D01*
X162736167Y-79521591D01*
X161727214Y-78892244D01*
X161715622Y-78885828D01*
X161325622Y-78695828D01*
X161317976Y-78692411D01*
X160068394Y-78182581D01*
X159009212Y-77742921D01*
X157479769Y-77093158D01*
X156029931Y-76473227D01*
X156029179Y-76472908D01*
X154529179Y-75842908D01*
X154508980Y-75836351D01*
X153229908Y-75536569D01*
X151670802Y-75146792D01*
X151669638Y-75146507D01*
X149920739Y-74726771D01*
X148389491Y-74330123D01*
X148906864Y-72602624D01*
X149029198Y-72633208D01*
X149038294Y-72635131D01*
X150998294Y-72975131D01*
X151005030Y-72976115D01*
X153785030Y-73306115D01*
X153804114Y-73306933D01*
X155964114Y-73236933D01*
X155970897Y-73236532D01*
X158060897Y-73056532D01*
X158076490Y-73054207D01*
X160186490Y-72604207D01*
X160206773Y-72598073D01*
X162276773Y-71778073D01*
X162298040Y-71767236D01*
X163748040Y-70847236D01*
X163768066Y-70831506D01*
X165098066Y-69551506D01*
X165117472Y-69527667D01*
X165967472Y-68177667D01*
X165978310Y-68156170D01*
X166778310Y-66106170D01*
X166782828Y-66092286D01*
X167242828Y-64342286D01*
X167246944Y-64313771D01*
X167276930Y-63304231D01*
X167296930Y-62704231D01*
X167294566Y-62675257D01*
X167004566Y-61215257D01*
X167000195Y-61198986D01*
X166280195Y-59088986D01*
X166277273Y-59081254D01*
X165587273Y-57421254D01*
X165577696Y-57402690D01*
X164627696Y-55882690D01*
X164613896Y-55864487D01*
X163083896Y-54184487D01*
X163054248Y-54160450D01*
X161724248Y-53380450D01*
X161717268Y-53376645D01*
X159797268Y-52406645D01*
X159777595Y-52398692D01*
X157357595Y-51648692D01*
X157352951Y-51647349D01*
X155342951Y-51107349D01*
X155315597Y-51103123D01*
X152595597Y-50983123D01*
X152581552Y-50983281D01*
X151081552Y-51083281D01*
X151070134Y-51084563D01*
X148860134Y-51434563D01*
X148842092Y-51438789D01*
X146252092Y-52248789D01*
X146240292Y-52253132D01*
X144030292Y-53193132D01*
X144009844Y-53204136D01*
X141489844Y-54874136D01*
X141469075Y-54891334D01*
X139899075Y-56501334D01*
X139888580Y-56513560D01*
X138358580Y-58543560D01*
X138341275Y-58574907D01*
X137551275Y-60654907D01*
X137544753Y-60678973D01*
X137314753Y-62048973D01*
X137313141Y-62075984D01*
X137363141Y-63135984D01*
X137366075Y-63157776D01*
X137626075Y-64317776D01*
X137631818Y-64336498D01*
X138111818Y-65556498D01*
X138119493Y-65572588D01*
X138759493Y-66702588D01*
X138778321Y-66727886D01*
X140168321Y-68177886D01*
X140178613Y-68187495D01*
X141328613Y-69147495D01*
X141352616Y-69163296D01*
X142892616Y-69943296D01*
X142893929Y-69943952D01*
X144153775Y-70563876D01*
X145323593Y-71143786D01*
X145326294Y-71145085D01*
X146076049Y-71494971D01*
X147245971Y-72044934D01*
X147251154Y-72047231D01*
X147971154Y-72347231D01*
X147983809Y-72351734D01*
X148603529Y-72535975D01*
X148112002Y-74265096D01*
X146882723Y-73937288D01*
X146874907Y-73935466D01*
X144724907Y-73505466D01*
X144713124Y-73503680D01*
X143173124Y-73343680D01*
X143171973Y-73343566D01*
X140531973Y-73093566D01*
X140529212Y-73093335D01*
X138329212Y-72933335D01*
X138326041Y-72933144D01*
X137486041Y-72893144D01*
X137475437Y-72893082D01*
X133025437Y-73053082D01*
X133014667Y-73053929D01*
X131534667Y-73233929D01*
X131532587Y-73234199D01*
X127993096Y-73724129D01*
X123903679Y-74254053D01*
X123871914Y-74262456D01*
X123432508Y-74442213D01*
X121283861Y-75301672D01*
X118704903Y-76281276D01*
X118700336Y-76283113D01*
X117171728Y-76932607D01*
X117036780Y-76959450D01*
X116911432Y-77043205D01*
X116370336Y-77273113D01*
X116366532Y-77274804D01*
X113716532Y-78504804D01*
X113715924Y-78505088D01*
X111336917Y-79624620D01*
X109427858Y-80484197D01*
X109397478Y-80503465D01*
X108779556Y-81031689D01*
X106521693Y-82800015D01*
X106505517Y-82815135D01*
X105008045Y-84482320D01*
X103350743Y-86119655D01*
X103333822Y-86140321D01*
X101863822Y-88380321D01*
X101862528Y-88382333D01*
X100842528Y-90002333D01*
X100826094Y-90042139D01*
X100446094Y-91732139D01*
X100445061Y-91737212D01*
X100155061Y-93327212D01*
X100154069Y-93333555D01*
X99814931Y-95930640D01*
X97823567Y-93230023D01*
X96486125Y-89405928D01*
X96357625Y-86252733D01*
X97101115Y-83209377D01*
X98413929Y-80006907D01*
X100236248Y-76949793D01*
X102168530Y-74270494D01*
X105015372Y-71184757D01*
X106971359Y-69725213D01*
X110772145Y-67390872D01*
X112924893Y-66294565D01*
X119169430Y-63487021D01*
X130586738Y-58968087D01*
X130599374Y-58962266D01*
X134929374Y-56672266D01*
X134955429Y-56653972D01*
X138133028Y-53765246D01*
X142158134Y-51692914D01*
X142167253Y-51687732D01*
X145535112Y-49585311D01*
X146529219Y-49240819D01*
X147837674Y-48844061D01*
X147883255Y-49573322D01*
X147883255Y-49573322D01*
G37*
X147883255Y-49573322D02*
X147899259Y-49633779D01*
X147911456Y-49695100D01*
X147918138Y-49705100D01*
X147921216Y-49716729D01*
X147959133Y-49766453D01*
X147993873Y-49818446D01*
X148003875Y-49825129D01*
X148011168Y-49834693D01*
X148065221Y-49866119D01*
X148117219Y-49900863D01*
X148129017Y-49903210D01*
X148139415Y-49909255D01*
X148201379Y-49917604D01*
X148262715Y-49929804D01*
X159483890Y-49929804D01*
X159489306Y-49928727D01*
X159494751Y-49929649D01*
X159561877Y-49914291D01*
X159629386Y-49900863D01*
X159633976Y-49897796D01*
X159639361Y-49896564D01*
X159695503Y-49856685D01*
X159752732Y-49818446D01*
X159755799Y-49813855D01*
X159760302Y-49810657D01*
X159786983Y-49768146D01*
X159801112Y-49758474D01*
X159828355Y-49716056D01*
X159831049Y-49701237D01*
X159835149Y-49695100D01*
X159836226Y-49689683D01*
X159839162Y-49685006D01*
X159850659Y-49617125D01*
X159864090Y-49549604D01*
X159863013Y-49544188D01*
X159863935Y-49538743D01*
X159847404Y-48960300D01*
X160188832Y-49031162D01*
X162293439Y-50048883D01*
X165500183Y-52471315D01*
X168132387Y-55838549D01*
X169806822Y-59127618D01*
X169806845Y-59127662D01*
X171133342Y-61730788D01*
X172090699Y-64353547D01*
X172090932Y-64354179D01*
X172910594Y-66563269D01*
X173870289Y-69272407D01*
X173878386Y-69290591D01*
X174258386Y-69990591D01*
X174260339Y-69994059D01*
X174849956Y-71003404D01*
X175479016Y-72111747D01*
X176247447Y-73518874D01*
X176816101Y-74656181D01*
X178125569Y-77345090D01*
X180034032Y-81351862D01*
X181682857Y-85289057D01*
X181695064Y-85311536D01*
X184561775Y-89516712D01*
X185316088Y-90876461D01*
X187764856Y-96450892D01*
X188091818Y-101107612D01*
X187637360Y-102797009D01*
X187636676Y-102799666D01*
X187029529Y-105268066D01*
X186394604Y-106656965D01*
X185781208Y-107982691D01*
X185350830Y-108520664D01*
X185349860Y-108521891D01*
X184569860Y-109521891D01*
X184569479Y-109522382D01*
X183351657Y-111099561D01*
X181934347Y-112736454D01*
X181035384Y-113755279D01*
X180245979Y-114624624D01*
X180245079Y-114625626D01*
X180183914Y-114694437D01*
X180158465Y-114705344D01*
X178858997Y-114823477D01*
X178805300Y-114827952D01*
X178785413Y-114773263D01*
X178777377Y-114660754D01*
X178796194Y-114434948D01*
X178834286Y-114187350D01*
X179001984Y-113605341D01*
X179651926Y-111375539D01*
X179654358Y-111365768D01*
X179884358Y-110255768D01*
X179886135Y-110244800D01*
X180326135Y-106494800D01*
X180326767Y-106472317D01*
X180006767Y-101192317D01*
X180001665Y-101163578D01*
X179531665Y-99593578D01*
X179531293Y-99592357D01*
X179261746Y-98723815D01*
X179032170Y-97915310D01*
X179031795Y-97914015D01*
X178771795Y-97034015D01*
X178759393Y-97005486D01*
X178529984Y-96616488D01*
X177750784Y-95237904D01*
X176740902Y-93428115D01*
X176737043Y-93421657D01*
X175907043Y-92121657D01*
X175904766Y-92118216D01*
X175164766Y-91038216D01*
X175163874Y-91036930D01*
X174144723Y-89588137D01*
X173195556Y-88169382D01*
X173192838Y-88165480D01*
X172192838Y-86785480D01*
X172176200Y-86766734D01*
X171516833Y-86157319D01*
X170537422Y-85227878D01*
X170537289Y-85227752D01*
X169607289Y-84347752D01*
X169606265Y-84346794D01*
X168666265Y-83476794D01*
X168666108Y-83476649D01*
X167506108Y-82406649D01*
X167485110Y-82390960D01*
X166095573Y-81561236D01*
X164796394Y-80771736D01*
X163926975Y-80232096D01*
X163925071Y-80230937D01*
X162736167Y-79521591D01*
X161727214Y-78892244D01*
X161715622Y-78885828D01*
X161325622Y-78695828D01*
X161317976Y-78692411D01*
X160068394Y-78182581D01*
X159009212Y-77742921D01*
X157479769Y-77093158D01*
X156029931Y-76473227D01*
X156029179Y-76472908D01*
X154529179Y-75842908D01*
X154508980Y-75836351D01*
X153229908Y-75536569D01*
X151670802Y-75146792D01*
X151669638Y-75146507D01*
X149920739Y-74726771D01*
X148389491Y-74330123D01*
X148906864Y-72602624D01*
X149029198Y-72633208D01*
X149038294Y-72635131D01*
X150998294Y-72975131D01*
X151005030Y-72976115D01*
X153785030Y-73306115D01*
X153804114Y-73306933D01*
X155964114Y-73236933D01*
X155970897Y-73236532D01*
X158060897Y-73056532D01*
X158076490Y-73054207D01*
X160186490Y-72604207D01*
X160206773Y-72598073D01*
X162276773Y-71778073D01*
X162298040Y-71767236D01*
X163748040Y-70847236D01*
X163768066Y-70831506D01*
X165098066Y-69551506D01*
X165117472Y-69527667D01*
X165967472Y-68177667D01*
X165978310Y-68156170D01*
X166778310Y-66106170D01*
X166782828Y-66092286D01*
X167242828Y-64342286D01*
X167246944Y-64313771D01*
X167276930Y-63304231D01*
X167296930Y-62704231D01*
X167294566Y-62675257D01*
X167004566Y-61215257D01*
X167000195Y-61198986D01*
X166280195Y-59088986D01*
X166277273Y-59081254D01*
X165587273Y-57421254D01*
X165577696Y-57402690D01*
X164627696Y-55882690D01*
X164613896Y-55864487D01*
X163083896Y-54184487D01*
X163054248Y-54160450D01*
X161724248Y-53380450D01*
X161717268Y-53376645D01*
X159797268Y-52406645D01*
X159777595Y-52398692D01*
X157357595Y-51648692D01*
X157352951Y-51647349D01*
X155342951Y-51107349D01*
X155315597Y-51103123D01*
X152595597Y-50983123D01*
X152581552Y-50983281D01*
X151081552Y-51083281D01*
X151070134Y-51084563D01*
X148860134Y-51434563D01*
X148842092Y-51438789D01*
X146252092Y-52248789D01*
X146240292Y-52253132D01*
X144030292Y-53193132D01*
X144009844Y-53204136D01*
X141489844Y-54874136D01*
X141469075Y-54891334D01*
X139899075Y-56501334D01*
X139888580Y-56513560D01*
X138358580Y-58543560D01*
X138341275Y-58574907D01*
X137551275Y-60654907D01*
X137544753Y-60678973D01*
X137314753Y-62048973D01*
X137313141Y-62075984D01*
X137363141Y-63135984D01*
X137366075Y-63157776D01*
X137626075Y-64317776D01*
X137631818Y-64336498D01*
X138111818Y-65556498D01*
X138119493Y-65572588D01*
X138759493Y-66702588D01*
X138778321Y-66727886D01*
X140168321Y-68177886D01*
X140178613Y-68187495D01*
X141328613Y-69147495D01*
X141352616Y-69163296D01*
X142892616Y-69943296D01*
X142893929Y-69943952D01*
X144153775Y-70563876D01*
X145323593Y-71143786D01*
X145326294Y-71145085D01*
X146076049Y-71494971D01*
X147245971Y-72044934D01*
X147251154Y-72047231D01*
X147971154Y-72347231D01*
X147983809Y-72351734D01*
X148603529Y-72535975D01*
X148112002Y-74265096D01*
X146882723Y-73937288D01*
X146874907Y-73935466D01*
X144724907Y-73505466D01*
X144713124Y-73503680D01*
X143173124Y-73343680D01*
X143171973Y-73343566D01*
X140531973Y-73093566D01*
X140529212Y-73093335D01*
X138329212Y-72933335D01*
X138326041Y-72933144D01*
X137486041Y-72893144D01*
X137475437Y-72893082D01*
X133025437Y-73053082D01*
X133014667Y-73053929D01*
X131534667Y-73233929D01*
X131532587Y-73234199D01*
X127993096Y-73724129D01*
X123903679Y-74254053D01*
X123871914Y-74262456D01*
X123432508Y-74442213D01*
X121283861Y-75301672D01*
X118704903Y-76281276D01*
X118700336Y-76283113D01*
X117171728Y-76932607D01*
X117036780Y-76959450D01*
X116911432Y-77043205D01*
X116370336Y-77273113D01*
X116366532Y-77274804D01*
X113716532Y-78504804D01*
X113715924Y-78505088D01*
X111336917Y-79624620D01*
X109427858Y-80484197D01*
X109397478Y-80503465D01*
X108779556Y-81031689D01*
X106521693Y-82800015D01*
X106505517Y-82815135D01*
X105008045Y-84482320D01*
X103350743Y-86119655D01*
X103333822Y-86140321D01*
X101863822Y-88380321D01*
X101862528Y-88382333D01*
X100842528Y-90002333D01*
X100826094Y-90042139D01*
X100446094Y-91732139D01*
X100445061Y-91737212D01*
X100155061Y-93327212D01*
X100154069Y-93333555D01*
X99814931Y-95930640D01*
X97823567Y-93230023D01*
X96486125Y-89405928D01*
X96357625Y-86252733D01*
X97101115Y-83209377D01*
X98413929Y-80006907D01*
X100236248Y-76949793D01*
X102168530Y-74270494D01*
X105015372Y-71184757D01*
X106971359Y-69725213D01*
X110772145Y-67390872D01*
X112924893Y-66294565D01*
X119169430Y-63487021D01*
X130586738Y-58968087D01*
X130599374Y-58962266D01*
X134929374Y-56672266D01*
X134955429Y-56653972D01*
X138133028Y-53765246D01*
X142158134Y-51692914D01*
X142167253Y-51687732D01*
X145535112Y-49585311D01*
X146529219Y-49240819D01*
X147837674Y-48844061D01*
X147883255Y-49573322D01*
M02*
