%TF.GenerationSoftware,KiCad,Pcbnew,4.0.5+dfsg1-4*%
%TF.CreationDate,2019-11-28T21:25:46-08:00*%
%TF.ProjectId,VineBadge2020,56696E654261646765323032302E6B69,rev?*%
%TF.FileFunction,Legend,Bot*%
%FSLAX46Y46*%
G04 Gerber Fmt 4.6, Leading zero omitted, Abs format (unit mm)*
G04 Created by KiCad (PCBNEW 4.0.5+dfsg1-4) date Thu Nov 28 21:25:46 2019*
%MOMM*%
%LPD*%
G01*
G04 APERTURE LIST*
%ADD10C,0.100000*%
%ADD11C,0.300000*%
%ADD12C,0.010000*%
%ADD13C,0.150000*%
%ADD14C,0.120000*%
G04 APERTURE END LIST*
D10*
D11*
X120991429Y-121688572D02*
X119920000Y-121688572D01*
X119705714Y-121760000D01*
X119562857Y-121902857D01*
X119491429Y-122117143D01*
X119491429Y-122260000D01*
X119491429Y-120260000D02*
X119491429Y-120974286D01*
X120991429Y-120974286D01*
X119634286Y-118902857D02*
X119562857Y-118974286D01*
X119491429Y-119188572D01*
X119491429Y-119331429D01*
X119562857Y-119545714D01*
X119705714Y-119688572D01*
X119848571Y-119760000D01*
X120134286Y-119831429D01*
X120348571Y-119831429D01*
X120634286Y-119760000D01*
X120777143Y-119688572D01*
X120920000Y-119545714D01*
X120991429Y-119331429D01*
X120991429Y-119188572D01*
X120920000Y-118974286D01*
X120848571Y-118902857D01*
X120991429Y-117831429D02*
X119920000Y-117831429D01*
X119705714Y-117902857D01*
X119562857Y-118045714D01*
X119491429Y-118260000D01*
X119491429Y-118402857D01*
X119491429Y-116402857D02*
X119491429Y-117117143D01*
X120991429Y-117117143D01*
X119634286Y-115045714D02*
X119562857Y-115117143D01*
X119491429Y-115331429D01*
X119491429Y-115474286D01*
X119562857Y-115688571D01*
X119705714Y-115831429D01*
X119848571Y-115902857D01*
X120134286Y-115974286D01*
X120348571Y-115974286D01*
X120634286Y-115902857D01*
X120777143Y-115831429D01*
X120920000Y-115688571D01*
X120991429Y-115474286D01*
X120991429Y-115331429D01*
X120920000Y-115117143D01*
X120848571Y-115045714D01*
X120991429Y-113974286D02*
X119920000Y-113974286D01*
X119705714Y-114045714D01*
X119562857Y-114188571D01*
X119491429Y-114402857D01*
X119491429Y-114545714D01*
X119491429Y-112545714D02*
X119491429Y-113260000D01*
X120991429Y-113260000D01*
X119634286Y-111188571D02*
X119562857Y-111260000D01*
X119491429Y-111474286D01*
X119491429Y-111617143D01*
X119562857Y-111831428D01*
X119705714Y-111974286D01*
X119848571Y-112045714D01*
X120134286Y-112117143D01*
X120348571Y-112117143D01*
X120634286Y-112045714D01*
X120777143Y-111974286D01*
X120920000Y-111831428D01*
X120991429Y-111617143D01*
X120991429Y-111474286D01*
X120920000Y-111260000D01*
X120848571Y-111188571D01*
X120991429Y-110117143D02*
X119920000Y-110117143D01*
X119705714Y-110188571D01*
X119562857Y-110331428D01*
X119491429Y-110545714D01*
X119491429Y-110688571D01*
X119491429Y-108688571D02*
X119491429Y-109402857D01*
X120991429Y-109402857D01*
X119634286Y-107331428D02*
X119562857Y-107402857D01*
X119491429Y-107617143D01*
X119491429Y-107760000D01*
X119562857Y-107974285D01*
X119705714Y-108117143D01*
X119848571Y-108188571D01*
X120134286Y-108260000D01*
X120348571Y-108260000D01*
X120634286Y-108188571D01*
X120777143Y-108117143D01*
X120920000Y-107974285D01*
X120991429Y-107760000D01*
X120991429Y-107617143D01*
X120920000Y-107402857D01*
X120848571Y-107331428D01*
D10*
X135672421Y-141921116D02*
X135025389Y-141832416D01*
X135025389Y-141832416D02*
X134316972Y-141718351D01*
X134316972Y-141718351D02*
X133585642Y-141585231D01*
X133585642Y-141585231D02*
X132869876Y-141439363D01*
X132869876Y-141439363D02*
X132208147Y-141287056D01*
X132208147Y-141287056D02*
X131638930Y-141134619D01*
X131638930Y-141134619D02*
X131200700Y-140988360D01*
X131200700Y-140988360D02*
X131042728Y-140919520D01*
X131042728Y-140919520D02*
X130931931Y-140854590D01*
X130931931Y-140854590D02*
X130797893Y-140794510D01*
X130797893Y-140794510D02*
X130553602Y-140712160D01*
X130553602Y-140712160D02*
X130267718Y-140631320D01*
X130267718Y-140631320D02*
X130008901Y-140575760D01*
X130008901Y-140575760D02*
X129460359Y-140467654D01*
X129460359Y-140467654D02*
X128893379Y-140315190D01*
X128893379Y-140315190D02*
X128306935Y-140121361D01*
X128306935Y-140121361D02*
X127699998Y-139889158D01*
X127699998Y-139889158D02*
X127071541Y-139621573D01*
X127071541Y-139621573D02*
X126420536Y-139321599D01*
X126420536Y-139321599D02*
X125046771Y-138636449D01*
X125046771Y-138636449D02*
X124535018Y-138351508D01*
X124535018Y-138351508D02*
X123927302Y-137981001D01*
X123927302Y-137981001D02*
X123265558Y-137553840D01*
X123265558Y-137553840D02*
X122591723Y-137098940D01*
X122591723Y-137098940D02*
X121947732Y-136645214D01*
X121947732Y-136645214D02*
X121375519Y-136221576D01*
X121375519Y-136221576D02*
X120917020Y-135856941D01*
X120917020Y-135856941D02*
X120614171Y-135580221D01*
X120614171Y-135580221D02*
X120315025Y-135250531D01*
X120315025Y-135250531D02*
X120010689Y-134889147D01*
X120010689Y-134889147D02*
X119392691Y-134081774D01*
X119392691Y-134081774D02*
X118772661Y-133179057D01*
X118772661Y-133179057D02*
X118163086Y-132201953D01*
X118163086Y-132201953D02*
X117576452Y-131171416D01*
X117576452Y-131171416D02*
X117025244Y-130108403D01*
X117025244Y-130108403D02*
X116521948Y-129033869D01*
X116521948Y-129033869D02*
X116079051Y-127968769D01*
X116079051Y-127968769D02*
X115813685Y-127192023D01*
X115813685Y-127192023D02*
X115637071Y-126644247D01*
X115637071Y-126644247D02*
X114851051Y-123923258D01*
X114851051Y-123923258D02*
X114704019Y-123377545D01*
X114704019Y-123377545D02*
X114557889Y-122744575D01*
X114557889Y-122744575D02*
X114413736Y-122030713D01*
X114413736Y-122030713D02*
X114272636Y-121242323D01*
X114272636Y-121242323D02*
X114003898Y-119467422D01*
X114003898Y-119467422D02*
X113760281Y-117470788D01*
X113760281Y-117470788D02*
X113659795Y-116333215D01*
X113659795Y-116333215D02*
X113601545Y-115157308D01*
X113601545Y-115157308D02*
X113585175Y-113952798D01*
X113585175Y-113952798D02*
X113610315Y-112729414D01*
X113610315Y-112729414D02*
X113676605Y-111496888D01*
X113676605Y-111496888D02*
X113783681Y-110264951D01*
X113783681Y-110264951D02*
X113931183Y-109043333D01*
X113931183Y-109043333D02*
X114118748Y-107841764D01*
X114118748Y-107841764D02*
X114297726Y-106737864D01*
X114297726Y-106737864D02*
X114343046Y-106392933D01*
X114343046Y-106392933D02*
X114348846Y-106255418D01*
X114348846Y-106255418D02*
X114258856Y-106255552D01*
X114258856Y-106255552D02*
X114043279Y-106285392D01*
X114043279Y-106285392D02*
X113364595Y-106413471D01*
X113364595Y-106413471D02*
X112974684Y-106483811D01*
X112974684Y-106483811D02*
X112605346Y-106526181D01*
X112605346Y-106526181D02*
X112252206Y-106540211D01*
X112252206Y-106540211D02*
X111910889Y-106525511D01*
X111910889Y-106525511D02*
X111577021Y-106481711D01*
X111577021Y-106481711D02*
X111246233Y-106408421D01*
X111246233Y-106408421D02*
X110914139Y-106305276D01*
X110914139Y-106305276D02*
X110576371Y-106171894D01*
X110576371Y-106171894D02*
X109765694Y-105841926D01*
X109765694Y-105841926D02*
X108675011Y-105421578D01*
X108675011Y-105421578D02*
X108077598Y-105172283D01*
X108077598Y-105172283D02*
X107404644Y-104851816D01*
X107404644Y-104851816D02*
X106738608Y-104501489D01*
X106738608Y-104501489D02*
X106161951Y-104162614D01*
X106161951Y-104162614D02*
X105038834Y-103465196D01*
X105038834Y-103465196D02*
X104055981Y-102875691D01*
X104055981Y-102875691D02*
X103661216Y-102634428D01*
X103661216Y-102634428D02*
X103207651Y-102337949D01*
X103207651Y-102337949D02*
X102252030Y-101671891D01*
X102252030Y-101671891D02*
X101444945Y-101062609D01*
X101444945Y-101062609D02*
X101177049Y-100837102D01*
X101177049Y-100837102D02*
X101042221Y-100695199D01*
X101042221Y-100695199D02*
X100838844Y-100431968D01*
X100838844Y-100431968D02*
X100480651Y-100008812D01*
X100480651Y-100008812D02*
X99980424Y-99419472D01*
X99980424Y-99419472D02*
X99495778Y-98816786D01*
X99495778Y-98816786D02*
X99027691Y-98202512D01*
X99027691Y-98202512D02*
X98577142Y-97578411D01*
X98577142Y-97578411D02*
X98145108Y-96946240D01*
X98145108Y-96946240D02*
X97732568Y-96307759D01*
X97732568Y-96307759D02*
X97340499Y-95664727D01*
X97340499Y-95664727D02*
X96969880Y-95018902D01*
X96969880Y-95018902D02*
X96621689Y-94372045D01*
X96621689Y-94372045D02*
X96296903Y-93725913D01*
X96296903Y-93725913D02*
X95996501Y-93082265D01*
X95996501Y-93082265D02*
X95721461Y-92442861D01*
X95721461Y-92442861D02*
X95472761Y-91809460D01*
X95472761Y-91809460D02*
X95251379Y-91183821D01*
X95251379Y-91183821D02*
X95058293Y-90567702D01*
X95058293Y-90567702D02*
X94894481Y-89962863D01*
X94894481Y-89962863D02*
X94664032Y-88980819D01*
X94664032Y-88980819D02*
X94588655Y-88589558D01*
X94588655Y-88589558D02*
X94535796Y-88231601D01*
X94535796Y-88231601D02*
X94502420Y-87882044D01*
X94502420Y-87882044D02*
X94485492Y-87515985D01*
X94485492Y-87515985D02*
X94488842Y-86634746D01*
X94488842Y-86634746D02*
X94505910Y-86206974D01*
X94505910Y-86206974D02*
X94538714Y-85765193D01*
X94538714Y-85765193D02*
X94649137Y-84849041D01*
X94649137Y-84849041D02*
X94815327Y-83905170D01*
X94815327Y-83905170D02*
X95032496Y-82952456D01*
X95032496Y-82952456D02*
X95295859Y-82009779D01*
X95295859Y-82009779D02*
X95600631Y-81096017D01*
X95600631Y-81096017D02*
X95942024Y-80230049D01*
X95942024Y-80230049D02*
X96315252Y-79430753D01*
X96315252Y-79430753D02*
X96833894Y-78479280D01*
X96833894Y-78479280D02*
X97459502Y-77437775D01*
X97459502Y-77437775D02*
X98162589Y-76348061D01*
X98162589Y-76348061D02*
X98913665Y-75251963D01*
X98913665Y-75251963D02*
X99683243Y-74191303D01*
X99683243Y-74191303D02*
X100441834Y-73207905D01*
X100441834Y-73207905D02*
X101159950Y-72343594D01*
X101159950Y-72343594D02*
X101494615Y-71969165D01*
X101494615Y-71969165D02*
X101808102Y-71640192D01*
X101808102Y-71640192D02*
X102240961Y-71215205D01*
X102240961Y-71215205D02*
X102696539Y-70790775D01*
X102696539Y-70790775D02*
X103668570Y-69948664D01*
X103668570Y-69948664D02*
X104709627Y-69124019D01*
X104709627Y-69124019D02*
X105805147Y-68327000D01*
X105805147Y-68327000D02*
X106940563Y-67567770D01*
X106940563Y-67567770D02*
X108101310Y-66856487D01*
X108101310Y-66856487D02*
X109272822Y-66203313D01*
X109272822Y-66203313D02*
X109858062Y-65901692D01*
X109858062Y-65901692D02*
X110440532Y-65618409D01*
X110440532Y-65618409D02*
X114018287Y-63948449D01*
X114018287Y-63948449D02*
X115151995Y-63435895D01*
X115151995Y-63435895D02*
X115905842Y-63112190D01*
X115905842Y-63112190D02*
X117715072Y-62319111D01*
X117715072Y-62319111D02*
X117940699Y-62261661D01*
X117940699Y-62261661D02*
X118348877Y-62105243D01*
X118348877Y-62105243D02*
X118881660Y-61873744D01*
X118881660Y-61873744D02*
X119481102Y-61591054D01*
X119481102Y-61591054D02*
X120187159Y-61258905D01*
X120187159Y-61258905D02*
X121010244Y-60892740D01*
X121010244Y-60892740D02*
X121848071Y-60537016D01*
X121848071Y-60537016D02*
X122598352Y-60236189D01*
X122598352Y-60236189D02*
X124268352Y-59579254D01*
X124268352Y-59579254D02*
X125994392Y-58880015D01*
X125994392Y-58880015D02*
X129526272Y-57426082D01*
X129526272Y-57426082D02*
X130254829Y-57114893D01*
X130254829Y-57114893D02*
X130933081Y-56803220D01*
X130933081Y-56803220D02*
X131485256Y-56527252D01*
X131485256Y-56527252D02*
X131835582Y-56323178D01*
X131835582Y-56323178D02*
X133780972Y-55022769D01*
X133780972Y-55022769D02*
X135102206Y-54125923D01*
X135102206Y-54125923D02*
X136309972Y-53264503D01*
X136309972Y-53264503D02*
X137240639Y-52604256D01*
X137240639Y-52604256D02*
X137628618Y-52349178D01*
X137628618Y-52349178D02*
X137895652Y-52191091D01*
X137895652Y-52191091D02*
X138421495Y-51871149D01*
X138421495Y-51871149D02*
X139041582Y-51435034D01*
X139041582Y-51435034D02*
X139382873Y-51194808D01*
X139382873Y-51194808D02*
X139804131Y-50924276D01*
X139804131Y-50924276D02*
X140251839Y-50656584D01*
X140251839Y-50656584D02*
X140672482Y-50424877D01*
X140672482Y-50424877D02*
X142702902Y-49343954D01*
X142702902Y-49343954D02*
X143194531Y-49088761D01*
X143194531Y-49088761D02*
X143729778Y-48829785D01*
X143729778Y-48829785D02*
X144244013Y-48597293D01*
X144244013Y-48597293D02*
X144672602Y-48421551D01*
X144672602Y-48421551D02*
X145565609Y-48062389D01*
X145565609Y-48062389D02*
X146472702Y-47666197D01*
X146472702Y-47666197D02*
X147110982Y-47396595D01*
X147110982Y-47396595D02*
X147442464Y-47280875D01*
X147442464Y-47280875D02*
X147813871Y-47168966D01*
X147813871Y-47168966D02*
X148771548Y-46929859D01*
X148771548Y-46929859D02*
X150174192Y-46625817D01*
X150174192Y-46625817D02*
X150787157Y-46521450D01*
X150787157Y-46521450D02*
X151519688Y-46437363D01*
X151519688Y-46437363D02*
X152345180Y-46374419D01*
X152345180Y-46374419D02*
X153237027Y-46333477D01*
X153237027Y-46333477D02*
X154168622Y-46315401D01*
X154168622Y-46315401D02*
X155113358Y-46321052D01*
X155113358Y-46321052D02*
X156044630Y-46351288D01*
X156044630Y-46351288D02*
X156935832Y-46406972D01*
X156935832Y-46406972D02*
X158030677Y-46505703D01*
X158030677Y-46505703D02*
X158430722Y-46561768D01*
X158430722Y-46561768D02*
X158784188Y-46635137D01*
X158784188Y-46635137D02*
X159129828Y-46735436D01*
X159129828Y-46735436D02*
X159506397Y-46872292D01*
X159506397Y-46872292D02*
X160507332Y-47294180D01*
X160507332Y-47294180D02*
X161212581Y-47617127D01*
X161212581Y-47617127D02*
X161875998Y-47950792D01*
X161875998Y-47950792D02*
X162423040Y-48255839D01*
X162423040Y-48255839D02*
X162779162Y-48492935D01*
X162779162Y-48492935D02*
X163362461Y-48922885D01*
X163362461Y-48922885D02*
X163962102Y-49309754D01*
X163962102Y-49309754D02*
X164450714Y-49629753D01*
X164450714Y-49629753D02*
X164996024Y-50048763D01*
X164996024Y-50048763D02*
X165580192Y-50549475D01*
X165580192Y-50549475D02*
X166185377Y-51114581D01*
X166185377Y-51114581D02*
X166793738Y-51726774D01*
X166793738Y-51726774D02*
X167387434Y-52368745D01*
X167387434Y-52368745D02*
X167948626Y-53023188D01*
X167948626Y-53023188D02*
X168459472Y-53672791D01*
X168459472Y-53672791D02*
X168994275Y-54417591D01*
X168994275Y-54417591D02*
X169499247Y-55184442D01*
X169499247Y-55184442D02*
X169980831Y-55985647D01*
X169980831Y-55985647D02*
X170445468Y-56833507D01*
X170445468Y-56833507D02*
X170899600Y-57740326D01*
X170899600Y-57740326D02*
X171349669Y-58718406D01*
X171349669Y-58718406D02*
X171802115Y-59780048D01*
X171802115Y-59780048D02*
X172263382Y-60937557D01*
X172263382Y-60937557D02*
X172791802Y-62222823D01*
X172791802Y-62222823D02*
X172828622Y-62365942D01*
X172828622Y-62365942D02*
X172928868Y-62659131D01*
X172928868Y-62659131D02*
X173258404Y-63524840D01*
X173258404Y-63524840D02*
X173463200Y-64065459D01*
X173463200Y-64065459D02*
X173675901Y-64671436D01*
X173675901Y-64671436D02*
X173871371Y-65268671D01*
X173871371Y-65268671D02*
X174024474Y-65783067D01*
X174024474Y-65783067D02*
X174208932Y-66367614D01*
X174208932Y-66367614D02*
X174489788Y-67155853D01*
X174489788Y-67155853D02*
X174828864Y-68044517D01*
X174828864Y-68044517D02*
X175187984Y-68930334D01*
X175187984Y-68930334D02*
X175798198Y-70412535D01*
X175798198Y-70412535D02*
X176052004Y-71082605D01*
X176052004Y-71082605D02*
X176155974Y-71326088D01*
X176155974Y-71326088D02*
X176435830Y-71887277D01*
X176435830Y-71887277D02*
X177330868Y-73600482D01*
X177330868Y-73600482D02*
X178352459Y-75497635D01*
X178352459Y-75497635D02*
X179115944Y-76854153D01*
X179115944Y-76854153D02*
X179668284Y-77833061D01*
X179668284Y-77833061D02*
X180138844Y-78755936D01*
X180138844Y-78755936D02*
X181412864Y-81404844D01*
X181412864Y-81404844D02*
X182985844Y-84665039D01*
X182985844Y-84665039D02*
X183286066Y-85277387D01*
X183286066Y-85277387D02*
X183577706Y-85840069D01*
X183577706Y-85840069D02*
X183827426Y-86290681D01*
X183827426Y-86290681D02*
X184001884Y-86566822D01*
X184001884Y-86566822D02*
X184153504Y-86792901D01*
X184153504Y-86792901D02*
X184341034Y-87107208D01*
X184341034Y-87107208D02*
X184728467Y-87834163D01*
X184728467Y-87834163D02*
X185103771Y-88550099D01*
X185103771Y-88550099D02*
X185413757Y-89063991D01*
X185413757Y-89063991D02*
X185577393Y-89324994D01*
X185577393Y-89324994D02*
X185828167Y-89762119D01*
X185828167Y-89762119D02*
X186454527Y-90921006D01*
X186454527Y-90921006D02*
X187145858Y-92190670D01*
X187145858Y-92190670D02*
X187466961Y-92747707D01*
X187466961Y-92747707D02*
X187716477Y-93155138D01*
X187716477Y-93155138D02*
X188160300Y-93878038D01*
X188160300Y-93878038D02*
X188535434Y-94575716D01*
X188535434Y-94575716D02*
X188844938Y-95257710D01*
X188844938Y-95257710D02*
X189091870Y-95933558D01*
X189091870Y-95933558D02*
X189279285Y-96612799D01*
X189279285Y-96612799D02*
X189410243Y-97304971D01*
X189410243Y-97304971D02*
X189487803Y-98019611D01*
X189487803Y-98019611D02*
X189515023Y-98766259D01*
X189515023Y-98766259D02*
X189493933Y-99715172D01*
X189493933Y-99715172D02*
X189426633Y-100723241D01*
X189426633Y-100723241D02*
X189318334Y-101757609D01*
X189318334Y-101757609D02*
X189174238Y-102785419D01*
X189174238Y-102785419D02*
X188999551Y-103773813D01*
X188999551Y-103773813D02*
X188799478Y-104689933D01*
X188799478Y-104689933D02*
X188579226Y-105500922D01*
X188579226Y-105500922D02*
X188463159Y-105856724D01*
X188463159Y-105856724D02*
X188343999Y-106173921D01*
X188343999Y-106173921D02*
X188200028Y-106502067D01*
X188200028Y-106502067D02*
X188026643Y-106851137D01*
X188026643Y-106851137D02*
X187596293Y-107605852D01*
X187596293Y-107605852D02*
X187062266Y-108425670D01*
X187062266Y-108425670D02*
X186433879Y-109298192D01*
X186433879Y-109298192D02*
X185720449Y-110211023D01*
X185720449Y-110211023D02*
X184931293Y-111151764D01*
X184931293Y-111151764D02*
X184075730Y-112108020D01*
X184075730Y-112108020D02*
X183163076Y-113067393D01*
X183163076Y-113067393D02*
X182346514Y-113880224D01*
X182346514Y-113880224D02*
X181604227Y-114572113D01*
X181604227Y-114572113D02*
X180911982Y-115160019D01*
X180911982Y-115160019D02*
X180245546Y-115660900D01*
X180245546Y-115660900D02*
X179580687Y-116091716D01*
X179580687Y-116091716D02*
X178893172Y-116469426D01*
X178893172Y-116469426D02*
X178158769Y-116810988D01*
X178158769Y-116810988D02*
X177353246Y-117133362D01*
X177353246Y-117133362D02*
X176602872Y-117382243D01*
X176602872Y-117382243D02*
X175640622Y-117653449D01*
X175640622Y-117653449D02*
X174542385Y-117930344D01*
X174542385Y-117930344D02*
X173384047Y-118196296D01*
X173384047Y-118196296D02*
X172241498Y-118434671D01*
X172241498Y-118434671D02*
X171190624Y-118628834D01*
X171190624Y-118628834D02*
X170307314Y-118762153D01*
X170307314Y-118762153D02*
X169952211Y-118800793D01*
X169952211Y-118800793D02*
X169667456Y-118817993D01*
X169667456Y-118817993D02*
X169192006Y-118829133D01*
X169192006Y-118829133D02*
X168141412Y-118936329D01*
X168141412Y-118936329D02*
X168060232Y-118948559D01*
X168060232Y-118948559D02*
X168093212Y-118949260D01*
X168093212Y-118949260D02*
X168109872Y-118949055D01*
X168109872Y-118949055D02*
X168103872Y-118950455D01*
X168103872Y-118950455D02*
X167955833Y-118964245D01*
X167955833Y-118964245D02*
X166637799Y-119077707D01*
X166637799Y-119077707D02*
X165959631Y-119079907D01*
X165959631Y-119079907D02*
X165275066Y-119046167D01*
X165275066Y-119046167D02*
X164588385Y-118977187D01*
X164588385Y-118977187D02*
X163903874Y-118873733D01*
X163903874Y-118873733D02*
X163225814Y-118736559D01*
X163225814Y-118736559D02*
X162558490Y-118566420D01*
X162558490Y-118566420D02*
X161906184Y-118364073D01*
X161906184Y-118364073D02*
X161273179Y-118130275D01*
X161273179Y-118130275D02*
X160294503Y-117763143D01*
X160294503Y-117763143D02*
X159411399Y-117469600D01*
X159411399Y-117469600D02*
X158652305Y-117219187D01*
X158652305Y-117219187D02*
X157971789Y-116955745D01*
X157971789Y-116955745D02*
X157536274Y-116746088D01*
X157536274Y-116746088D02*
X157041934Y-116475342D01*
X157041934Y-116475342D02*
X156512730Y-116159326D01*
X156512730Y-116159326D02*
X155972623Y-115813860D01*
X155972623Y-115813860D02*
X155445575Y-115454766D01*
X155445575Y-115454766D02*
X154955547Y-115097861D01*
X154955547Y-115097861D02*
X154526502Y-114758967D01*
X154526502Y-114758967D02*
X154182399Y-114453903D01*
X154182399Y-114453903D02*
X153955120Y-114247314D01*
X153955120Y-114247314D02*
X153717411Y-114053804D01*
X153717411Y-114053804D02*
X153476011Y-113877483D01*
X153476011Y-113877483D02*
X153237659Y-113722457D01*
X153237659Y-113722457D02*
X153009095Y-113592837D01*
X153009095Y-113592837D02*
X152797057Y-113492729D01*
X152797057Y-113492729D02*
X152608285Y-113426239D01*
X152608285Y-113426239D02*
X152449519Y-113397479D01*
X152449519Y-113397479D02*
X152426089Y-113625489D01*
X152426089Y-113625489D02*
X152417489Y-114176524D01*
X152417489Y-114176524D02*
X152433619Y-114608153D01*
X152433619Y-114608153D02*
X152480069Y-115044325D01*
X152480069Y-115044325D02*
X152557319Y-115486778D01*
X152557319Y-115486778D02*
X152665840Y-115937253D01*
X152665840Y-115937253D02*
X152806114Y-116397489D01*
X152806114Y-116397489D02*
X152978617Y-116869225D01*
X152978617Y-116869225D02*
X153183826Y-117354201D01*
X153183826Y-117354201D02*
X153422218Y-117854155D01*
X153422218Y-117854155D02*
X153720709Y-118512229D01*
X153720709Y-118512229D02*
X154087877Y-119416851D01*
X154087877Y-119416851D02*
X154477138Y-120448765D01*
X154477138Y-120448765D02*
X154841908Y-121488710D01*
X154841908Y-121488710D02*
X155569196Y-123627022D01*
X155569196Y-123627022D02*
X156170558Y-125349489D01*
X156170558Y-125349489D02*
X156448477Y-126163185D01*
X156448477Y-126163185D02*
X156538607Y-126482071D01*
X156538607Y-126482071D02*
X156602177Y-126775825D01*
X156602177Y-126775825D02*
X156643687Y-127069579D01*
X156643687Y-127069579D02*
X156667627Y-127388464D01*
X156667627Y-127388464D02*
X156680767Y-128202160D01*
X156680767Y-128202160D02*
X156663947Y-128984474D01*
X156663947Y-128984474D02*
X156639647Y-129315129D01*
X156639647Y-129315129D02*
X156601347Y-129628497D01*
X156601347Y-129628497D02*
X156546487Y-129941866D01*
X156546487Y-129941866D02*
X156472507Y-130272520D01*
X156472507Y-130272520D02*
X156256947Y-131054834D01*
X156256947Y-131054834D02*
X155874629Y-132249401D01*
X155874629Y-132249401D02*
X155692925Y-132758497D01*
X155692925Y-132758497D02*
X155548517Y-133118513D01*
X155548517Y-133118513D02*
X155376165Y-133450975D01*
X155376165Y-133450975D02*
X155130331Y-133854613D01*
X155130331Y-133854613D02*
X154829017Y-134305055D01*
X154829017Y-134305055D02*
X154490222Y-134777927D01*
X154490222Y-134777927D02*
X154131948Y-135248859D01*
X154131948Y-135248859D02*
X153772195Y-135693477D01*
X153772195Y-135693477D02*
X153428965Y-136087409D01*
X153428965Y-136087409D02*
X153120257Y-136406284D01*
X153120257Y-136406284D02*
X152567507Y-136935363D01*
X152567507Y-136935363D02*
X152284692Y-137187555D01*
X152284692Y-137187555D02*
X151907407Y-137385403D01*
X151907407Y-137385403D02*
X150225707Y-138482255D01*
X150225707Y-138482255D02*
X148897874Y-139333482D01*
X148897874Y-139333482D02*
X148401704Y-139619264D01*
X148401704Y-139619264D02*
X147934773Y-139848527D01*
X147934773Y-139848527D02*
X147435139Y-140048802D01*
X147435139Y-140048802D02*
X146840859Y-140247614D01*
X146840859Y-140247614D02*
X145120587Y-140750964D01*
X145120587Y-140750964D02*
X143322725Y-141243252D01*
X143322725Y-141243252D02*
X142594868Y-141419092D01*
X142594868Y-141419092D02*
X141935743Y-141556651D01*
X141935743Y-141556651D02*
X141311361Y-141662372D01*
X141311361Y-141662372D02*
X140687731Y-141742692D01*
X140687731Y-141742692D02*
X140030866Y-141804062D01*
X140030866Y-141804062D02*
X139306777Y-141852922D01*
X139306777Y-141852922D02*
X137269147Y-141982671D01*
X137269147Y-141982671D02*
X136933020Y-141993481D01*
X136933020Y-141993481D02*
X136519912Y-141985381D01*
X136519912Y-141985381D02*
X136082219Y-141960521D01*
X136082219Y-141960521D02*
X135672337Y-141920931D01*
X135672337Y-141920931D02*
X135672377Y-141920992D01*
X135672377Y-141920992D02*
X135672421Y-141921116D01*
X149184032Y-48226688D02*
X153719747Y-47754217D01*
X153719747Y-47754217D02*
X158538944Y-48084946D01*
X158538944Y-48084946D02*
X159460260Y-48722781D01*
X159460260Y-48722781D02*
X159483890Y-49549604D01*
X159483890Y-49549604D02*
X148262715Y-49549604D01*
X148262715Y-49549604D02*
X148215465Y-48793652D01*
X148215465Y-48793652D02*
X149184028Y-48226688D01*
X149184028Y-48226688D02*
X149184032Y-48226688D01*
D12*
G36*
X133101062Y-106996974D02*
X132996714Y-107040746D01*
X132851948Y-107107033D01*
X132678763Y-107190381D01*
X132534322Y-107262386D01*
X132331758Y-107364052D01*
X132133668Y-107462044D01*
X131956737Y-107548210D01*
X131817650Y-107614394D01*
X131758998Y-107641259D01*
X131576203Y-107734490D01*
X131356508Y-107865130D01*
X131116584Y-108021629D01*
X130873101Y-108192439D01*
X130642731Y-108366012D01*
X130442145Y-108530799D01*
X130337352Y-108626075D01*
X130015195Y-108955701D01*
X129754204Y-109270499D01*
X129547777Y-109581612D01*
X129389318Y-109900187D01*
X129272225Y-110237370D01*
X129200422Y-110546243D01*
X129161112Y-110754886D01*
X128973184Y-110753600D01*
X128818394Y-110740499D01*
X128695235Y-110696764D01*
X128590213Y-110612149D01*
X128489837Y-110476413D01*
X128401365Y-110319457D01*
X128352276Y-110206510D01*
X128325455Y-110086022D01*
X128315327Y-109929594D01*
X128314734Y-109878057D01*
X128316721Y-109730701D01*
X128328910Y-109629532D01*
X128358341Y-109548233D01*
X128412054Y-109460489D01*
X128435424Y-109426889D01*
X128502133Y-109328667D01*
X128530173Y-109270714D01*
X128524152Y-109235042D01*
X128491988Y-109206075D01*
X128415077Y-109166744D01*
X128333149Y-109168512D01*
X128228236Y-109214663D01*
X128138105Y-109270743D01*
X127913670Y-109454583D01*
X127733835Y-109673156D01*
X127600136Y-109916317D01*
X127514107Y-110173921D01*
X127477284Y-110435823D01*
X127491202Y-110691877D01*
X127557396Y-110931939D01*
X127677402Y-111145863D01*
X127830192Y-111305632D01*
X128015152Y-111443789D01*
X128177472Y-111531089D01*
X128337490Y-111575147D01*
X128515548Y-111583582D01*
X128565496Y-111581002D01*
X128814077Y-111544058D01*
X129008092Y-111467709D01*
X129156396Y-111347827D01*
X129208896Y-111281029D01*
X129286474Y-111146259D01*
X129309223Y-111049603D01*
X129277905Y-110994692D01*
X129193282Y-110985159D01*
X129148674Y-110993845D01*
X129081274Y-111025859D01*
X129075006Y-111079700D01*
X129075721Y-111082020D01*
X129064365Y-111150313D01*
X129007983Y-111238853D01*
X128922331Y-111328238D01*
X128823165Y-111399066D01*
X128814519Y-111403660D01*
X128664511Y-111446486D01*
X128481116Y-111447688D01*
X128288319Y-111410086D01*
X128110101Y-111336499D01*
X128077112Y-111316952D01*
X127877888Y-111152715D01*
X127736875Y-110954308D01*
X127653897Y-110730662D01*
X127628781Y-110490712D01*
X127661353Y-110243389D01*
X127751438Y-109997626D01*
X127898862Y-109762357D01*
X128103451Y-109546514D01*
X128111769Y-109539314D01*
X128196187Y-109466743D01*
X128167316Y-109557457D01*
X128147920Y-109671999D01*
X128142003Y-109831668D01*
X128148411Y-110010511D01*
X128165990Y-110182575D01*
X128193583Y-110321907D01*
X128202597Y-110350535D01*
X128232419Y-110450802D01*
X128243268Y-110522185D01*
X128240391Y-110538110D01*
X128250136Y-110588649D01*
X128324728Y-110661468D01*
X128460958Y-110753645D01*
X128506609Y-110780729D01*
X128603515Y-110840626D01*
X128670477Y-110888960D01*
X128688495Y-110907755D01*
X128729445Y-110924269D01*
X128820244Y-110933442D01*
X128938570Y-110935530D01*
X129062098Y-110930787D01*
X129168505Y-110919466D01*
X129235469Y-110901822D01*
X129236051Y-110901515D01*
X129277982Y-110855489D01*
X129307002Y-110761880D01*
X129325025Y-110632935D01*
X129349652Y-110455689D01*
X129382197Y-110311711D01*
X129418937Y-110213744D01*
X129456153Y-110174532D01*
X129458953Y-110174314D01*
X129477515Y-110148339D01*
X129473106Y-110128854D01*
X129479188Y-110068343D01*
X129517432Y-109962072D01*
X129580260Y-109825002D01*
X129660091Y-109672093D01*
X129749346Y-109518307D01*
X129840443Y-109378605D01*
X129882096Y-109321600D01*
X130216071Y-108934793D01*
X130607313Y-108568140D01*
X131040792Y-108235523D01*
X131107543Y-108190083D01*
X131234754Y-108111521D01*
X131414358Y-108009690D01*
X131632746Y-107891496D01*
X131876309Y-107763842D01*
X132131437Y-107633634D01*
X132384522Y-107507777D01*
X132621955Y-107393175D01*
X132830128Y-107296733D01*
X132995430Y-107225356D01*
X133053377Y-107202822D01*
X133148640Y-107167835D01*
X133112463Y-107310361D01*
X133081380Y-107399652D01*
X133047755Y-107449276D01*
X133038367Y-107452886D01*
X133018651Y-107468857D01*
X133024545Y-107476984D01*
X133017549Y-107516082D01*
X132981534Y-107604742D01*
X132923435Y-107729486D01*
X132850187Y-107876837D01*
X132768725Y-108033317D01*
X132685984Y-108185450D01*
X132608899Y-108319758D01*
X132544406Y-108422762D01*
X132520699Y-108456155D01*
X132467016Y-108548679D01*
X132474512Y-108606668D01*
X132544690Y-108631449D01*
X132679051Y-108624349D01*
X132706475Y-108620364D01*
X132823359Y-108608986D01*
X132985471Y-108601850D01*
X133165544Y-108599927D01*
X133248400Y-108601094D01*
X133417021Y-108604894D01*
X133570178Y-108608136D01*
X133685443Y-108610355D01*
X133724313Y-108610968D01*
X133847704Y-108623703D01*
X134018474Y-108656078D01*
X134215807Y-108702900D01*
X134418892Y-108758977D01*
X134606914Y-108819118D01*
X134706025Y-108855863D01*
X134937442Y-108955334D01*
X135193550Y-109077613D01*
X135456487Y-109213118D01*
X135708393Y-109352267D01*
X135931406Y-109485477D01*
X136107665Y-109603166D01*
X136130545Y-109620074D01*
X136289020Y-109745964D01*
X136465087Y-109896010D01*
X136625990Y-110042102D01*
X136657867Y-110072633D01*
X136773343Y-110186750D01*
X136833635Y-110255180D01*
X136836706Y-110281650D01*
X136780518Y-110269890D01*
X136663034Y-110223628D01*
X136591835Y-110193490D01*
X136500993Y-110160873D01*
X136441034Y-110150669D01*
X136431888Y-110153731D01*
X136391590Y-110151403D01*
X136363238Y-110133271D01*
X136322593Y-110111727D01*
X136314543Y-110119886D01*
X136292101Y-110122790D01*
X136258037Y-110100019D01*
X136190685Y-110072769D01*
X136077383Y-110051647D01*
X135944660Y-110039121D01*
X135819047Y-110037661D01*
X135727071Y-110049736D01*
X135724900Y-110050399D01*
X135671192Y-110084951D01*
X135661400Y-110108115D01*
X135681962Y-110147626D01*
X135735525Y-110227470D01*
X135809905Y-110331191D01*
X135892920Y-110442335D01*
X135972385Y-110544446D01*
X136036116Y-110621068D01*
X136059675Y-110646029D01*
X136133009Y-110735362D01*
X136226046Y-110877698D01*
X136331008Y-111058872D01*
X136440117Y-111264721D01*
X136545597Y-111481078D01*
X136639668Y-111693781D01*
X136653615Y-111727693D01*
X136720943Y-111914609D01*
X136789353Y-112141437D01*
X136854735Y-112390254D01*
X136912976Y-112643141D01*
X136959963Y-112882174D01*
X136991584Y-113089432D01*
X137003726Y-113246995D01*
X137003748Y-113253537D01*
X137003524Y-113385600D01*
X136946807Y-113276824D01*
X136893044Y-113183869D01*
X136843688Y-113113538D01*
X136791481Y-113033075D01*
X136774768Y-112995529D01*
X136736419Y-112941908D01*
X136710757Y-112932029D01*
X136668136Y-112908162D01*
X136588009Y-112844103D01*
X136483999Y-112751159D01*
X136422457Y-112692705D01*
X136305442Y-112581354D01*
X136199969Y-112484741D01*
X136122255Y-112417567D01*
X136099952Y-112400361D01*
X136041957Y-112341456D01*
X136024257Y-112296432D01*
X135992901Y-112258576D01*
X135914757Y-112253132D01*
X135805257Y-112260743D01*
X135810215Y-112537746D01*
X135797245Y-112776437D01*
X135753234Y-113000352D01*
X135683368Y-113188633D01*
X135624488Y-113284704D01*
X135590022Y-113325194D01*
X135567310Y-113329104D01*
X135548627Y-113285992D01*
X135526245Y-113185420D01*
X135517073Y-113139561D01*
X135475999Y-112988989D01*
X135412237Y-112814604D01*
X135342694Y-112660599D01*
X135226983Y-112458771D01*
X135115067Y-112309169D01*
X135011580Y-112214414D01*
X134921159Y-112177126D01*
X134848439Y-112199927D01*
X134798057Y-112285439D01*
X134783973Y-112344697D01*
X134745240Y-112491644D01*
X134677148Y-112675914D01*
X134590146Y-112874151D01*
X134494682Y-113062998D01*
X134401204Y-113219098D01*
X134378091Y-113252014D01*
X134223136Y-113438514D01*
X134037979Y-113623611D01*
X133845678Y-113785859D01*
X133690171Y-113891934D01*
X133592408Y-113952568D01*
X133549116Y-113992881D01*
X133550276Y-114025832D01*
X133569144Y-114048467D01*
X133612608Y-114079356D01*
X133661444Y-114070428D01*
X133731689Y-114025277D01*
X133809551Y-113974423D01*
X133861436Y-113948773D01*
X133866068Y-113948029D01*
X133906947Y-113926619D01*
X133981154Y-113872318D01*
X134023752Y-113837777D01*
X134129299Y-113750291D01*
X134231195Y-113667070D01*
X134255781Y-113647277D01*
X134340885Y-113561293D01*
X134421791Y-113452536D01*
X134433991Y-113432433D01*
X134486261Y-113353526D01*
X134526064Y-113313323D01*
X134535211Y-113312205D01*
X134557220Y-113286517D01*
X134602535Y-113208821D01*
X134664167Y-113093057D01*
X134735130Y-112953164D01*
X134808437Y-112803084D01*
X134877101Y-112656754D01*
X134934135Y-112528114D01*
X134960272Y-112464178D01*
X134981008Y-112419871D01*
X135003720Y-112413551D01*
X135040012Y-112452712D01*
X135101492Y-112544848D01*
X135113045Y-112562831D01*
X135281158Y-112885376D01*
X135377648Y-113217788D01*
X135396471Y-113355763D01*
X135411254Y-113477606D01*
X135428501Y-113567129D01*
X135443128Y-113602970D01*
X135496230Y-113595982D01*
X135575050Y-113536640D01*
X135668393Y-113435073D01*
X135748187Y-113326985D01*
X135869663Y-113146603D01*
X135892321Y-113556387D01*
X135904524Y-113777505D01*
X135918491Y-114031213D01*
X135932027Y-114277641D01*
X135938279Y-114391703D01*
X135946342Y-114647643D01*
X135936614Y-114847520D01*
X135905696Y-115006399D01*
X135850186Y-115139349D01*
X135766684Y-115261437D01*
X135732978Y-115301259D01*
X135551994Y-115465137D01*
X135320892Y-115598954D01*
X135030522Y-115707805D01*
X134971853Y-115724971D01*
X134715655Y-115778352D01*
X134404999Y-115812453D01*
X134055296Y-115827619D01*
X133681956Y-115824198D01*
X133300389Y-115802534D01*
X132926003Y-115762977D01*
X132574210Y-115705870D01*
X132395685Y-115667047D01*
X132162014Y-115606388D01*
X131912715Y-115534238D01*
X131665196Y-115456292D01*
X131436860Y-115378246D01*
X131245112Y-115305793D01*
X131112139Y-115247054D01*
X130984980Y-115188556D01*
X130905437Y-115166965D01*
X130860712Y-115178973D01*
X130858139Y-115181404D01*
X130841072Y-115226561D01*
X130880757Y-115269829D01*
X130931945Y-115321476D01*
X130944257Y-115350471D01*
X130976677Y-115376842D01*
X131064448Y-115418736D01*
X131193335Y-115471072D01*
X131349103Y-115528771D01*
X131517518Y-115586750D01*
X131684346Y-115639930D01*
X131835351Y-115683230D01*
X131955572Y-115711431D01*
X132019296Y-115724730D01*
X132122576Y-115747349D01*
X132173286Y-115758683D01*
X132330279Y-115792350D01*
X132506309Y-115827570D01*
X132676044Y-115859508D01*
X132814153Y-115883326D01*
X132867400Y-115891206D01*
X132946256Y-115901546D01*
X133072273Y-115918094D01*
X133220657Y-115937594D01*
X133248400Y-115941242D01*
X133357653Y-115951557D01*
X133506378Y-115960153D01*
X133679091Y-115966776D01*
X133860313Y-115971176D01*
X134034560Y-115973100D01*
X134186352Y-115972298D01*
X134300207Y-115968517D01*
X134360644Y-115961506D01*
X134365379Y-115959396D01*
X134402597Y-115953794D01*
X134493831Y-115944593D01*
X134620729Y-115933611D01*
X134645400Y-115931629D01*
X134819304Y-115911281D01*
X134990212Y-115880069D01*
X135141154Y-115842294D01*
X135255160Y-115802256D01*
X135315260Y-115764255D01*
X135317268Y-115761372D01*
X135368552Y-115730290D01*
X135400156Y-115726029D01*
X135473083Y-115703062D01*
X135576941Y-115644137D01*
X135690951Y-115564215D01*
X135794337Y-115478259D01*
X135866321Y-115401230D01*
X135879280Y-115381004D01*
X135928157Y-115314978D01*
X135970152Y-115290600D01*
X135999366Y-115272138D01*
X136031670Y-115210443D01*
X136070952Y-115096056D01*
X136118022Y-114930904D01*
X136139120Y-114873329D01*
X136161369Y-114880653D01*
X136175028Y-114902802D01*
X136196135Y-114974384D01*
X136209652Y-115083613D01*
X136211632Y-115128343D01*
X136217738Y-115230052D01*
X136236258Y-115276514D01*
X136275632Y-115284944D01*
X136287669Y-115283444D01*
X136337908Y-115254021D01*
X136390295Y-115174616D01*
X136451218Y-115035266D01*
X136457918Y-115017932D01*
X136505030Y-114884674D01*
X136533534Y-114768573D01*
X136547320Y-114643356D01*
X136550279Y-114482750D01*
X136549860Y-114448653D01*
X136405405Y-114448653D01*
X136383943Y-114725497D01*
X136369808Y-114817284D01*
X136341926Y-114978967D01*
X136268817Y-114835427D01*
X136217436Y-114743314D01*
X136174834Y-114681714D01*
X136164009Y-114671353D01*
X136149579Y-114628684D01*
X136135571Y-114529599D01*
X136123853Y-114390239D01*
X136117814Y-114272210D01*
X136104649Y-113992543D01*
X136087370Y-113721362D01*
X136067415Y-113477655D01*
X136046225Y-113280410D01*
X136038256Y-113222314D01*
X136019313Y-113095314D01*
X136153929Y-113285814D01*
X136226365Y-113383842D01*
X136283224Y-113452610D01*
X136310615Y-113476340D01*
X136329030Y-113507525D01*
X136337918Y-113567054D01*
X136330790Y-113635100D01*
X136310704Y-113657743D01*
X136282677Y-113688697D01*
X136283288Y-113773150D01*
X136311249Y-113898485D01*
X136345909Y-114002457D01*
X136392559Y-114201910D01*
X136405405Y-114448653D01*
X136549860Y-114448653D01*
X136549274Y-114401075D01*
X136543974Y-114239946D01*
X136534756Y-114101541D01*
X136523135Y-114005037D01*
X136515646Y-113975243D01*
X136508029Y-113936265D01*
X136539542Y-113917445D01*
X136625153Y-113911876D01*
X136653233Y-113911743D01*
X136757064Y-113904340D01*
X136827445Y-113885649D01*
X136840861Y-113875173D01*
X136826794Y-113835307D01*
X136770243Y-113758923D01*
X136681588Y-113659225D01*
X136627692Y-113603990D01*
X136422218Y-113384184D01*
X136270120Y-113183902D01*
X136160861Y-112988292D01*
X136118571Y-112886440D01*
X136076483Y-112792603D01*
X136038244Y-112739267D01*
X136021167Y-112734367D01*
X135994519Y-112728686D01*
X135995866Y-112671908D01*
X136022075Y-112587314D01*
X136039392Y-112561241D01*
X136067929Y-112560937D01*
X136116742Y-112592736D01*
X136194886Y-112662975D01*
X136311417Y-112777989D01*
X136349468Y-112816360D01*
X136498829Y-112973485D01*
X136609671Y-113108407D01*
X136699314Y-113245279D01*
X136785074Y-113408255D01*
X136807772Y-113455558D01*
X136874937Y-113602502D01*
X136928206Y-113728856D01*
X136960795Y-113817952D01*
X136967685Y-113848559D01*
X136997594Y-113906687D01*
X137063563Y-113935843D01*
X137121000Y-113924835D01*
X137137494Y-113878028D01*
X137145274Y-113772570D01*
X137145134Y-113621757D01*
X137137869Y-113438886D01*
X137124272Y-113237250D01*
X137105140Y-113030146D01*
X137081266Y-112830869D01*
X137053445Y-112652714D01*
X137041194Y-112589401D01*
X136874821Y-111965723D01*
X136639661Y-111364055D01*
X136336855Y-110786997D01*
X136071358Y-110379403D01*
X136007064Y-110284268D01*
X135966611Y-110215738D01*
X135958624Y-110191567D01*
X135998596Y-110195171D01*
X136091064Y-110219858D01*
X136220887Y-110260405D01*
X136372925Y-110311592D01*
X136532037Y-110368197D01*
X136683081Y-110424998D01*
X136810918Y-110476774D01*
X136889024Y-110512429D01*
X137045886Y-110581625D01*
X137151623Y-110607519D01*
X137209734Y-110594586D01*
X137223717Y-110547303D01*
X137197075Y-110470144D01*
X137133303Y-110367585D01*
X137035902Y-110244103D01*
X136908372Y-110104173D01*
X136754211Y-109952271D01*
X136576918Y-109792873D01*
X136379994Y-109630454D01*
X136166937Y-109469490D01*
X135964188Y-109329503D01*
X135841640Y-109251591D01*
X135739944Y-109192238D01*
X135675654Y-109160909D01*
X135664830Y-109158314D01*
X135626891Y-109131229D01*
X135625114Y-109119887D01*
X135603310Y-109097327D01*
X135591754Y-109102078D01*
X135541939Y-109097417D01*
X135510111Y-109074413D01*
X135451139Y-109030602D01*
X135425543Y-109021071D01*
X135355687Y-109000210D01*
X135265854Y-108960535D01*
X135180921Y-108914835D01*
X135125767Y-108875899D01*
X135117114Y-108862518D01*
X135087730Y-108835019D01*
X135063917Y-108831743D01*
X134994579Y-108816495D01*
X134883722Y-108776636D01*
X134754232Y-108720989D01*
X134668502Y-108679295D01*
X134581133Y-108643941D01*
X134539128Y-108632669D01*
X134472986Y-108618263D01*
X134361741Y-108592487D01*
X134243882Y-108564384D01*
X133918756Y-108494557D01*
X133652484Y-108456732D01*
X133440213Y-108450027D01*
X133344790Y-108448808D01*
X133291938Y-108437158D01*
X133288028Y-108427191D01*
X133270227Y-108409695D01*
X133204778Y-108402201D01*
X133115800Y-108403941D01*
X133027413Y-108414145D01*
X132963737Y-108432044D01*
X132954237Y-108437838D01*
X132897351Y-108455733D01*
X132822567Y-108451803D01*
X132755129Y-108432068D01*
X132720278Y-108402548D01*
X132725055Y-108383180D01*
X132879087Y-108188546D01*
X132995340Y-108014529D01*
X133089190Y-107833914D01*
X133176010Y-107619487D01*
X133209756Y-107525199D01*
X133274466Y-107310072D01*
X133297566Y-107151490D01*
X133278730Y-107046315D01*
X133217630Y-106991404D01*
X133152994Y-106981172D01*
X133101062Y-106996974D01*
X133101062Y-106996974D01*
G37*
X133101062Y-106996974D02*
X132996714Y-107040746D01*
X132851948Y-107107033D01*
X132678763Y-107190381D01*
X132534322Y-107262386D01*
X132331758Y-107364052D01*
X132133668Y-107462044D01*
X131956737Y-107548210D01*
X131817650Y-107614394D01*
X131758998Y-107641259D01*
X131576203Y-107734490D01*
X131356508Y-107865130D01*
X131116584Y-108021629D01*
X130873101Y-108192439D01*
X130642731Y-108366012D01*
X130442145Y-108530799D01*
X130337352Y-108626075D01*
X130015195Y-108955701D01*
X129754204Y-109270499D01*
X129547777Y-109581612D01*
X129389318Y-109900187D01*
X129272225Y-110237370D01*
X129200422Y-110546243D01*
X129161112Y-110754886D01*
X128973184Y-110753600D01*
X128818394Y-110740499D01*
X128695235Y-110696764D01*
X128590213Y-110612149D01*
X128489837Y-110476413D01*
X128401365Y-110319457D01*
X128352276Y-110206510D01*
X128325455Y-110086022D01*
X128315327Y-109929594D01*
X128314734Y-109878057D01*
X128316721Y-109730701D01*
X128328910Y-109629532D01*
X128358341Y-109548233D01*
X128412054Y-109460489D01*
X128435424Y-109426889D01*
X128502133Y-109328667D01*
X128530173Y-109270714D01*
X128524152Y-109235042D01*
X128491988Y-109206075D01*
X128415077Y-109166744D01*
X128333149Y-109168512D01*
X128228236Y-109214663D01*
X128138105Y-109270743D01*
X127913670Y-109454583D01*
X127733835Y-109673156D01*
X127600136Y-109916317D01*
X127514107Y-110173921D01*
X127477284Y-110435823D01*
X127491202Y-110691877D01*
X127557396Y-110931939D01*
X127677402Y-111145863D01*
X127830192Y-111305632D01*
X128015152Y-111443789D01*
X128177472Y-111531089D01*
X128337490Y-111575147D01*
X128515548Y-111583582D01*
X128565496Y-111581002D01*
X128814077Y-111544058D01*
X129008092Y-111467709D01*
X129156396Y-111347827D01*
X129208896Y-111281029D01*
X129286474Y-111146259D01*
X129309223Y-111049603D01*
X129277905Y-110994692D01*
X129193282Y-110985159D01*
X129148674Y-110993845D01*
X129081274Y-111025859D01*
X129075006Y-111079700D01*
X129075721Y-111082020D01*
X129064365Y-111150313D01*
X129007983Y-111238853D01*
X128922331Y-111328238D01*
X128823165Y-111399066D01*
X128814519Y-111403660D01*
X128664511Y-111446486D01*
X128481116Y-111447688D01*
X128288319Y-111410086D01*
X128110101Y-111336499D01*
X128077112Y-111316952D01*
X127877888Y-111152715D01*
X127736875Y-110954308D01*
X127653897Y-110730662D01*
X127628781Y-110490712D01*
X127661353Y-110243389D01*
X127751438Y-109997626D01*
X127898862Y-109762357D01*
X128103451Y-109546514D01*
X128111769Y-109539314D01*
X128196187Y-109466743D01*
X128167316Y-109557457D01*
X128147920Y-109671999D01*
X128142003Y-109831668D01*
X128148411Y-110010511D01*
X128165990Y-110182575D01*
X128193583Y-110321907D01*
X128202597Y-110350535D01*
X128232419Y-110450802D01*
X128243268Y-110522185D01*
X128240391Y-110538110D01*
X128250136Y-110588649D01*
X128324728Y-110661468D01*
X128460958Y-110753645D01*
X128506609Y-110780729D01*
X128603515Y-110840626D01*
X128670477Y-110888960D01*
X128688495Y-110907755D01*
X128729445Y-110924269D01*
X128820244Y-110933442D01*
X128938570Y-110935530D01*
X129062098Y-110930787D01*
X129168505Y-110919466D01*
X129235469Y-110901822D01*
X129236051Y-110901515D01*
X129277982Y-110855489D01*
X129307002Y-110761880D01*
X129325025Y-110632935D01*
X129349652Y-110455689D01*
X129382197Y-110311711D01*
X129418937Y-110213744D01*
X129456153Y-110174532D01*
X129458953Y-110174314D01*
X129477515Y-110148339D01*
X129473106Y-110128854D01*
X129479188Y-110068343D01*
X129517432Y-109962072D01*
X129580260Y-109825002D01*
X129660091Y-109672093D01*
X129749346Y-109518307D01*
X129840443Y-109378605D01*
X129882096Y-109321600D01*
X130216071Y-108934793D01*
X130607313Y-108568140D01*
X131040792Y-108235523D01*
X131107543Y-108190083D01*
X131234754Y-108111521D01*
X131414358Y-108009690D01*
X131632746Y-107891496D01*
X131876309Y-107763842D01*
X132131437Y-107633634D01*
X132384522Y-107507777D01*
X132621955Y-107393175D01*
X132830128Y-107296733D01*
X132995430Y-107225356D01*
X133053377Y-107202822D01*
X133148640Y-107167835D01*
X133112463Y-107310361D01*
X133081380Y-107399652D01*
X133047755Y-107449276D01*
X133038367Y-107452886D01*
X133018651Y-107468857D01*
X133024545Y-107476984D01*
X133017549Y-107516082D01*
X132981534Y-107604742D01*
X132923435Y-107729486D01*
X132850187Y-107876837D01*
X132768725Y-108033317D01*
X132685984Y-108185450D01*
X132608899Y-108319758D01*
X132544406Y-108422762D01*
X132520699Y-108456155D01*
X132467016Y-108548679D01*
X132474512Y-108606668D01*
X132544690Y-108631449D01*
X132679051Y-108624349D01*
X132706475Y-108620364D01*
X132823359Y-108608986D01*
X132985471Y-108601850D01*
X133165544Y-108599927D01*
X133248400Y-108601094D01*
X133417021Y-108604894D01*
X133570178Y-108608136D01*
X133685443Y-108610355D01*
X133724313Y-108610968D01*
X133847704Y-108623703D01*
X134018474Y-108656078D01*
X134215807Y-108702900D01*
X134418892Y-108758977D01*
X134606914Y-108819118D01*
X134706025Y-108855863D01*
X134937442Y-108955334D01*
X135193550Y-109077613D01*
X135456487Y-109213118D01*
X135708393Y-109352267D01*
X135931406Y-109485477D01*
X136107665Y-109603166D01*
X136130545Y-109620074D01*
X136289020Y-109745964D01*
X136465087Y-109896010D01*
X136625990Y-110042102D01*
X136657867Y-110072633D01*
X136773343Y-110186750D01*
X136833635Y-110255180D01*
X136836706Y-110281650D01*
X136780518Y-110269890D01*
X136663034Y-110223628D01*
X136591835Y-110193490D01*
X136500993Y-110160873D01*
X136441034Y-110150669D01*
X136431888Y-110153731D01*
X136391590Y-110151403D01*
X136363238Y-110133271D01*
X136322593Y-110111727D01*
X136314543Y-110119886D01*
X136292101Y-110122790D01*
X136258037Y-110100019D01*
X136190685Y-110072769D01*
X136077383Y-110051647D01*
X135944660Y-110039121D01*
X135819047Y-110037661D01*
X135727071Y-110049736D01*
X135724900Y-110050399D01*
X135671192Y-110084951D01*
X135661400Y-110108115D01*
X135681962Y-110147626D01*
X135735525Y-110227470D01*
X135809905Y-110331191D01*
X135892920Y-110442335D01*
X135972385Y-110544446D01*
X136036116Y-110621068D01*
X136059675Y-110646029D01*
X136133009Y-110735362D01*
X136226046Y-110877698D01*
X136331008Y-111058872D01*
X136440117Y-111264721D01*
X136545597Y-111481078D01*
X136639668Y-111693781D01*
X136653615Y-111727693D01*
X136720943Y-111914609D01*
X136789353Y-112141437D01*
X136854735Y-112390254D01*
X136912976Y-112643141D01*
X136959963Y-112882174D01*
X136991584Y-113089432D01*
X137003726Y-113246995D01*
X137003748Y-113253537D01*
X137003524Y-113385600D01*
X136946807Y-113276824D01*
X136893044Y-113183869D01*
X136843688Y-113113538D01*
X136791481Y-113033075D01*
X136774768Y-112995529D01*
X136736419Y-112941908D01*
X136710757Y-112932029D01*
X136668136Y-112908162D01*
X136588009Y-112844103D01*
X136483999Y-112751159D01*
X136422457Y-112692705D01*
X136305442Y-112581354D01*
X136199969Y-112484741D01*
X136122255Y-112417567D01*
X136099952Y-112400361D01*
X136041957Y-112341456D01*
X136024257Y-112296432D01*
X135992901Y-112258576D01*
X135914757Y-112253132D01*
X135805257Y-112260743D01*
X135810215Y-112537746D01*
X135797245Y-112776437D01*
X135753234Y-113000352D01*
X135683368Y-113188633D01*
X135624488Y-113284704D01*
X135590022Y-113325194D01*
X135567310Y-113329104D01*
X135548627Y-113285992D01*
X135526245Y-113185420D01*
X135517073Y-113139561D01*
X135475999Y-112988989D01*
X135412237Y-112814604D01*
X135342694Y-112660599D01*
X135226983Y-112458771D01*
X135115067Y-112309169D01*
X135011580Y-112214414D01*
X134921159Y-112177126D01*
X134848439Y-112199927D01*
X134798057Y-112285439D01*
X134783973Y-112344697D01*
X134745240Y-112491644D01*
X134677148Y-112675914D01*
X134590146Y-112874151D01*
X134494682Y-113062998D01*
X134401204Y-113219098D01*
X134378091Y-113252014D01*
X134223136Y-113438514D01*
X134037979Y-113623611D01*
X133845678Y-113785859D01*
X133690171Y-113891934D01*
X133592408Y-113952568D01*
X133549116Y-113992881D01*
X133550276Y-114025832D01*
X133569144Y-114048467D01*
X133612608Y-114079356D01*
X133661444Y-114070428D01*
X133731689Y-114025277D01*
X133809551Y-113974423D01*
X133861436Y-113948773D01*
X133866068Y-113948029D01*
X133906947Y-113926619D01*
X133981154Y-113872318D01*
X134023752Y-113837777D01*
X134129299Y-113750291D01*
X134231195Y-113667070D01*
X134255781Y-113647277D01*
X134340885Y-113561293D01*
X134421791Y-113452536D01*
X134433991Y-113432433D01*
X134486261Y-113353526D01*
X134526064Y-113313323D01*
X134535211Y-113312205D01*
X134557220Y-113286517D01*
X134602535Y-113208821D01*
X134664167Y-113093057D01*
X134735130Y-112953164D01*
X134808437Y-112803084D01*
X134877101Y-112656754D01*
X134934135Y-112528114D01*
X134960272Y-112464178D01*
X134981008Y-112419871D01*
X135003720Y-112413551D01*
X135040012Y-112452712D01*
X135101492Y-112544848D01*
X135113045Y-112562831D01*
X135281158Y-112885376D01*
X135377648Y-113217788D01*
X135396471Y-113355763D01*
X135411254Y-113477606D01*
X135428501Y-113567129D01*
X135443128Y-113602970D01*
X135496230Y-113595982D01*
X135575050Y-113536640D01*
X135668393Y-113435073D01*
X135748187Y-113326985D01*
X135869663Y-113146603D01*
X135892321Y-113556387D01*
X135904524Y-113777505D01*
X135918491Y-114031213D01*
X135932027Y-114277641D01*
X135938279Y-114391703D01*
X135946342Y-114647643D01*
X135936614Y-114847520D01*
X135905696Y-115006399D01*
X135850186Y-115139349D01*
X135766684Y-115261437D01*
X135732978Y-115301259D01*
X135551994Y-115465137D01*
X135320892Y-115598954D01*
X135030522Y-115707805D01*
X134971853Y-115724971D01*
X134715655Y-115778352D01*
X134404999Y-115812453D01*
X134055296Y-115827619D01*
X133681956Y-115824198D01*
X133300389Y-115802534D01*
X132926003Y-115762977D01*
X132574210Y-115705870D01*
X132395685Y-115667047D01*
X132162014Y-115606388D01*
X131912715Y-115534238D01*
X131665196Y-115456292D01*
X131436860Y-115378246D01*
X131245112Y-115305793D01*
X131112139Y-115247054D01*
X130984980Y-115188556D01*
X130905437Y-115166965D01*
X130860712Y-115178973D01*
X130858139Y-115181404D01*
X130841072Y-115226561D01*
X130880757Y-115269829D01*
X130931945Y-115321476D01*
X130944257Y-115350471D01*
X130976677Y-115376842D01*
X131064448Y-115418736D01*
X131193335Y-115471072D01*
X131349103Y-115528771D01*
X131517518Y-115586750D01*
X131684346Y-115639930D01*
X131835351Y-115683230D01*
X131955572Y-115711431D01*
X132019296Y-115724730D01*
X132122576Y-115747349D01*
X132173286Y-115758683D01*
X132330279Y-115792350D01*
X132506309Y-115827570D01*
X132676044Y-115859508D01*
X132814153Y-115883326D01*
X132867400Y-115891206D01*
X132946256Y-115901546D01*
X133072273Y-115918094D01*
X133220657Y-115937594D01*
X133248400Y-115941242D01*
X133357653Y-115951557D01*
X133506378Y-115960153D01*
X133679091Y-115966776D01*
X133860313Y-115971176D01*
X134034560Y-115973100D01*
X134186352Y-115972298D01*
X134300207Y-115968517D01*
X134360644Y-115961506D01*
X134365379Y-115959396D01*
X134402597Y-115953794D01*
X134493831Y-115944593D01*
X134620729Y-115933611D01*
X134645400Y-115931629D01*
X134819304Y-115911281D01*
X134990212Y-115880069D01*
X135141154Y-115842294D01*
X135255160Y-115802256D01*
X135315260Y-115764255D01*
X135317268Y-115761372D01*
X135368552Y-115730290D01*
X135400156Y-115726029D01*
X135473083Y-115703062D01*
X135576941Y-115644137D01*
X135690951Y-115564215D01*
X135794337Y-115478259D01*
X135866321Y-115401230D01*
X135879280Y-115381004D01*
X135928157Y-115314978D01*
X135970152Y-115290600D01*
X135999366Y-115272138D01*
X136031670Y-115210443D01*
X136070952Y-115096056D01*
X136118022Y-114930904D01*
X136139120Y-114873329D01*
X136161369Y-114880653D01*
X136175028Y-114902802D01*
X136196135Y-114974384D01*
X136209652Y-115083613D01*
X136211632Y-115128343D01*
X136217738Y-115230052D01*
X136236258Y-115276514D01*
X136275632Y-115284944D01*
X136287669Y-115283444D01*
X136337908Y-115254021D01*
X136390295Y-115174616D01*
X136451218Y-115035266D01*
X136457918Y-115017932D01*
X136505030Y-114884674D01*
X136533534Y-114768573D01*
X136547320Y-114643356D01*
X136550279Y-114482750D01*
X136549860Y-114448653D01*
X136405405Y-114448653D01*
X136383943Y-114725497D01*
X136369808Y-114817284D01*
X136341926Y-114978967D01*
X136268817Y-114835427D01*
X136217436Y-114743314D01*
X136174834Y-114681714D01*
X136164009Y-114671353D01*
X136149579Y-114628684D01*
X136135571Y-114529599D01*
X136123853Y-114390239D01*
X136117814Y-114272210D01*
X136104649Y-113992543D01*
X136087370Y-113721362D01*
X136067415Y-113477655D01*
X136046225Y-113280410D01*
X136038256Y-113222314D01*
X136019313Y-113095314D01*
X136153929Y-113285814D01*
X136226365Y-113383842D01*
X136283224Y-113452610D01*
X136310615Y-113476340D01*
X136329030Y-113507525D01*
X136337918Y-113567054D01*
X136330790Y-113635100D01*
X136310704Y-113657743D01*
X136282677Y-113688697D01*
X136283288Y-113773150D01*
X136311249Y-113898485D01*
X136345909Y-114002457D01*
X136392559Y-114201910D01*
X136405405Y-114448653D01*
X136549860Y-114448653D01*
X136549274Y-114401075D01*
X136543974Y-114239946D01*
X136534756Y-114101541D01*
X136523135Y-114005037D01*
X136515646Y-113975243D01*
X136508029Y-113936265D01*
X136539542Y-113917445D01*
X136625153Y-113911876D01*
X136653233Y-113911743D01*
X136757064Y-113904340D01*
X136827445Y-113885649D01*
X136840861Y-113875173D01*
X136826794Y-113835307D01*
X136770243Y-113758923D01*
X136681588Y-113659225D01*
X136627692Y-113603990D01*
X136422218Y-113384184D01*
X136270120Y-113183902D01*
X136160861Y-112988292D01*
X136118571Y-112886440D01*
X136076483Y-112792603D01*
X136038244Y-112739267D01*
X136021167Y-112734367D01*
X135994519Y-112728686D01*
X135995866Y-112671908D01*
X136022075Y-112587314D01*
X136039392Y-112561241D01*
X136067929Y-112560937D01*
X136116742Y-112592736D01*
X136194886Y-112662975D01*
X136311417Y-112777989D01*
X136349468Y-112816360D01*
X136498829Y-112973485D01*
X136609671Y-113108407D01*
X136699314Y-113245279D01*
X136785074Y-113408255D01*
X136807772Y-113455558D01*
X136874937Y-113602502D01*
X136928206Y-113728856D01*
X136960795Y-113817952D01*
X136967685Y-113848559D01*
X136997594Y-113906687D01*
X137063563Y-113935843D01*
X137121000Y-113924835D01*
X137137494Y-113878028D01*
X137145274Y-113772570D01*
X137145134Y-113621757D01*
X137137869Y-113438886D01*
X137124272Y-113237250D01*
X137105140Y-113030146D01*
X137081266Y-112830869D01*
X137053445Y-112652714D01*
X137041194Y-112589401D01*
X136874821Y-111965723D01*
X136639661Y-111364055D01*
X136336855Y-110786997D01*
X136071358Y-110379403D01*
X136007064Y-110284268D01*
X135966611Y-110215738D01*
X135958624Y-110191567D01*
X135998596Y-110195171D01*
X136091064Y-110219858D01*
X136220887Y-110260405D01*
X136372925Y-110311592D01*
X136532037Y-110368197D01*
X136683081Y-110424998D01*
X136810918Y-110476774D01*
X136889024Y-110512429D01*
X137045886Y-110581625D01*
X137151623Y-110607519D01*
X137209734Y-110594586D01*
X137223717Y-110547303D01*
X137197075Y-110470144D01*
X137133303Y-110367585D01*
X137035902Y-110244103D01*
X136908372Y-110104173D01*
X136754211Y-109952271D01*
X136576918Y-109792873D01*
X136379994Y-109630454D01*
X136166937Y-109469490D01*
X135964188Y-109329503D01*
X135841640Y-109251591D01*
X135739944Y-109192238D01*
X135675654Y-109160909D01*
X135664830Y-109158314D01*
X135626891Y-109131229D01*
X135625114Y-109119887D01*
X135603310Y-109097327D01*
X135591754Y-109102078D01*
X135541939Y-109097417D01*
X135510111Y-109074413D01*
X135451139Y-109030602D01*
X135425543Y-109021071D01*
X135355687Y-109000210D01*
X135265854Y-108960535D01*
X135180921Y-108914835D01*
X135125767Y-108875899D01*
X135117114Y-108862518D01*
X135087730Y-108835019D01*
X135063917Y-108831743D01*
X134994579Y-108816495D01*
X134883722Y-108776636D01*
X134754232Y-108720989D01*
X134668502Y-108679295D01*
X134581133Y-108643941D01*
X134539128Y-108632669D01*
X134472986Y-108618263D01*
X134361741Y-108592487D01*
X134243882Y-108564384D01*
X133918756Y-108494557D01*
X133652484Y-108456732D01*
X133440213Y-108450027D01*
X133344790Y-108448808D01*
X133291938Y-108437158D01*
X133288028Y-108427191D01*
X133270227Y-108409695D01*
X133204778Y-108402201D01*
X133115800Y-108403941D01*
X133027413Y-108414145D01*
X132963737Y-108432044D01*
X132954237Y-108437838D01*
X132897351Y-108455733D01*
X132822567Y-108451803D01*
X132755129Y-108432068D01*
X132720278Y-108402548D01*
X132725055Y-108383180D01*
X132879087Y-108188546D01*
X132995340Y-108014529D01*
X133089190Y-107833914D01*
X133176010Y-107619487D01*
X133209756Y-107525199D01*
X133274466Y-107310072D01*
X133297566Y-107151490D01*
X133278730Y-107046315D01*
X133217630Y-106991404D01*
X133152994Y-106981172D01*
X133101062Y-106996974D01*
G36*
X128907964Y-111739925D02*
X128866961Y-111830398D01*
X128861293Y-111855891D01*
X128823941Y-111952671D01*
X128746131Y-112087339D01*
X128638071Y-112245821D01*
X128509966Y-112414044D01*
X128372022Y-112577935D01*
X128234444Y-112723421D01*
X128226593Y-112731093D01*
X128135319Y-112823409D01*
X128069178Y-112897114D01*
X128041547Y-112937226D01*
X128041400Y-112938459D01*
X128069369Y-112975501D01*
X128109080Y-113001983D01*
X128183785Y-113010325D01*
X128299016Y-112989692D01*
X128432171Y-112946903D01*
X128560648Y-112888780D01*
X128634649Y-112843375D01*
X128729025Y-112775387D01*
X128791407Y-112730222D01*
X128835697Y-112701586D01*
X128861437Y-112705784D01*
X128876827Y-112755328D01*
X128890068Y-112862726D01*
X128892332Y-112884186D01*
X128938345Y-113261156D01*
X128993059Y-113577837D01*
X129061217Y-113846399D01*
X129147562Y-114079018D01*
X129256836Y-114287864D01*
X129393783Y-114485111D01*
X129563144Y-114682933D01*
X129614298Y-114737243D01*
X129696487Y-114819809D01*
X129758208Y-114875774D01*
X129782020Y-114891457D01*
X129814761Y-114915151D01*
X129887536Y-114979200D01*
X129988652Y-115073058D01*
X130076510Y-115157110D01*
X130234775Y-115303544D01*
X130417434Y-115462312D01*
X130592538Y-115605905D01*
X130645191Y-115646773D01*
X130779409Y-115747340D01*
X130869244Y-115808517D01*
X130927074Y-115836134D01*
X130965276Y-115836021D01*
X130996228Y-115814008D01*
X130997520Y-115812725D01*
X131036083Y-115736929D01*
X131016338Y-115639337D01*
X130936447Y-115513331D01*
X130903028Y-115472029D01*
X130816478Y-115362082D01*
X130736275Y-115249589D01*
X130721611Y-115227100D01*
X130648868Y-115144063D01*
X130576632Y-115111419D01*
X130520329Y-115132971D01*
X130500823Y-115172671D01*
X130497194Y-115268501D01*
X130541366Y-115320767D01*
X130575695Y-115326886D01*
X130630885Y-115350763D01*
X130684713Y-115405211D01*
X130716662Y-115464451D01*
X130712231Y-115498436D01*
X130671748Y-115490846D01*
X130594032Y-115436287D01*
X130487762Y-115343990D01*
X130361620Y-115223185D01*
X130224285Y-115083105D01*
X130084437Y-114932979D01*
X129950759Y-114782039D01*
X129831930Y-114639517D01*
X129736630Y-114514642D01*
X129673540Y-114416647D01*
X129654447Y-114373569D01*
X129626512Y-114300153D01*
X129577046Y-114187000D01*
X129519928Y-114065243D01*
X129468101Y-113949562D01*
X129436199Y-113860596D01*
X129430753Y-113816722D01*
X129431339Y-113815994D01*
X129431452Y-113777130D01*
X129389083Y-113733892D01*
X129330055Y-113706431D01*
X129292324Y-113707508D01*
X129246291Y-113758328D01*
X129247214Y-113843044D01*
X129288862Y-113930883D01*
X129322715Y-113988550D01*
X129369410Y-114079431D01*
X129421676Y-114187674D01*
X129472243Y-114297425D01*
X129513841Y-114392832D01*
X129539201Y-114458042D01*
X129541052Y-114477201D01*
X129538012Y-114474171D01*
X129451369Y-114364061D01*
X129376512Y-114253484D01*
X129325952Y-114162227D01*
X129311400Y-114115810D01*
X129293847Y-114051178D01*
X129250205Y-113958386D01*
X129235244Y-113931960D01*
X129194076Y-113852804D01*
X129181098Y-113807238D01*
X129185259Y-113802886D01*
X129189847Y-113780946D01*
X129174633Y-113757529D01*
X129135814Y-113673042D01*
X129101514Y-113526550D01*
X129073323Y-113328561D01*
X129052828Y-113089582D01*
X129043487Y-112890486D01*
X129036170Y-112720177D01*
X129026354Y-112575394D01*
X129015366Y-112472227D01*
X129005329Y-112427843D01*
X128947567Y-112388987D01*
X128874293Y-112405490D01*
X128808260Y-112471048D01*
X128800460Y-112484585D01*
X128750925Y-112550562D01*
X128673784Y-112626908D01*
X128586983Y-112699104D01*
X128508471Y-112752629D01*
X128456196Y-112772963D01*
X128447765Y-112769918D01*
X128459842Y-112735427D01*
X128508827Y-112663320D01*
X128571488Y-112584541D01*
X128671280Y-112462056D01*
X128770680Y-112334100D01*
X128816873Y-112271706D01*
X128890770Y-112153055D01*
X128955534Y-112021170D01*
X129004363Y-111894166D01*
X129030454Y-111790159D01*
X129027005Y-111727267D01*
X129023205Y-111722176D01*
X128964276Y-111700357D01*
X128907964Y-111739925D01*
X128907964Y-111739925D01*
G37*
X128907964Y-111739925D02*
X128866961Y-111830398D01*
X128861293Y-111855891D01*
X128823941Y-111952671D01*
X128746131Y-112087339D01*
X128638071Y-112245821D01*
X128509966Y-112414044D01*
X128372022Y-112577935D01*
X128234444Y-112723421D01*
X128226593Y-112731093D01*
X128135319Y-112823409D01*
X128069178Y-112897114D01*
X128041547Y-112937226D01*
X128041400Y-112938459D01*
X128069369Y-112975501D01*
X128109080Y-113001983D01*
X128183785Y-113010325D01*
X128299016Y-112989692D01*
X128432171Y-112946903D01*
X128560648Y-112888780D01*
X128634649Y-112843375D01*
X128729025Y-112775387D01*
X128791407Y-112730222D01*
X128835697Y-112701586D01*
X128861437Y-112705784D01*
X128876827Y-112755328D01*
X128890068Y-112862726D01*
X128892332Y-112884186D01*
X128938345Y-113261156D01*
X128993059Y-113577837D01*
X129061217Y-113846399D01*
X129147562Y-114079018D01*
X129256836Y-114287864D01*
X129393783Y-114485111D01*
X129563144Y-114682933D01*
X129614298Y-114737243D01*
X129696487Y-114819809D01*
X129758208Y-114875774D01*
X129782020Y-114891457D01*
X129814761Y-114915151D01*
X129887536Y-114979200D01*
X129988652Y-115073058D01*
X130076510Y-115157110D01*
X130234775Y-115303544D01*
X130417434Y-115462312D01*
X130592538Y-115605905D01*
X130645191Y-115646773D01*
X130779409Y-115747340D01*
X130869244Y-115808517D01*
X130927074Y-115836134D01*
X130965276Y-115836021D01*
X130996228Y-115814008D01*
X130997520Y-115812725D01*
X131036083Y-115736929D01*
X131016338Y-115639337D01*
X130936447Y-115513331D01*
X130903028Y-115472029D01*
X130816478Y-115362082D01*
X130736275Y-115249589D01*
X130721611Y-115227100D01*
X130648868Y-115144063D01*
X130576632Y-115111419D01*
X130520329Y-115132971D01*
X130500823Y-115172671D01*
X130497194Y-115268501D01*
X130541366Y-115320767D01*
X130575695Y-115326886D01*
X130630885Y-115350763D01*
X130684713Y-115405211D01*
X130716662Y-115464451D01*
X130712231Y-115498436D01*
X130671748Y-115490846D01*
X130594032Y-115436287D01*
X130487762Y-115343990D01*
X130361620Y-115223185D01*
X130224285Y-115083105D01*
X130084437Y-114932979D01*
X129950759Y-114782039D01*
X129831930Y-114639517D01*
X129736630Y-114514642D01*
X129673540Y-114416647D01*
X129654447Y-114373569D01*
X129626512Y-114300153D01*
X129577046Y-114187000D01*
X129519928Y-114065243D01*
X129468101Y-113949562D01*
X129436199Y-113860596D01*
X129430753Y-113816722D01*
X129431339Y-113815994D01*
X129431452Y-113777130D01*
X129389083Y-113733892D01*
X129330055Y-113706431D01*
X129292324Y-113707508D01*
X129246291Y-113758328D01*
X129247214Y-113843044D01*
X129288862Y-113930883D01*
X129322715Y-113988550D01*
X129369410Y-114079431D01*
X129421676Y-114187674D01*
X129472243Y-114297425D01*
X129513841Y-114392832D01*
X129539201Y-114458042D01*
X129541052Y-114477201D01*
X129538012Y-114474171D01*
X129451369Y-114364061D01*
X129376512Y-114253484D01*
X129325952Y-114162227D01*
X129311400Y-114115810D01*
X129293847Y-114051178D01*
X129250205Y-113958386D01*
X129235244Y-113931960D01*
X129194076Y-113852804D01*
X129181098Y-113807238D01*
X129185259Y-113802886D01*
X129189847Y-113780946D01*
X129174633Y-113757529D01*
X129135814Y-113673042D01*
X129101514Y-113526550D01*
X129073323Y-113328561D01*
X129052828Y-113089582D01*
X129043487Y-112890486D01*
X129036170Y-112720177D01*
X129026354Y-112575394D01*
X129015366Y-112472227D01*
X129005329Y-112427843D01*
X128947567Y-112388987D01*
X128874293Y-112405490D01*
X128808260Y-112471048D01*
X128800460Y-112484585D01*
X128750925Y-112550562D01*
X128673784Y-112626908D01*
X128586983Y-112699104D01*
X128508471Y-112752629D01*
X128456196Y-112772963D01*
X128447765Y-112769918D01*
X128459842Y-112735427D01*
X128508827Y-112663320D01*
X128571488Y-112584541D01*
X128671280Y-112462056D01*
X128770680Y-112334100D01*
X128816873Y-112271706D01*
X128890770Y-112153055D01*
X128955534Y-112021170D01*
X129004363Y-111894166D01*
X129030454Y-111790159D01*
X129027005Y-111727267D01*
X129023205Y-111722176D01*
X128964276Y-111700357D01*
X128907964Y-111739925D01*
G36*
X134906731Y-113573361D02*
X134867322Y-113619604D01*
X134856849Y-113700890D01*
X134861977Y-113771649D01*
X134875463Y-113969406D01*
X134879631Y-114205715D01*
X134875228Y-114458623D01*
X134863002Y-114706179D01*
X134843702Y-114926430D01*
X134818074Y-115097425D01*
X134816569Y-115104618D01*
X134799885Y-115212734D01*
X134810083Y-115272406D01*
X134831998Y-115294563D01*
X134904405Y-115324648D01*
X134949099Y-115298108D01*
X134951417Y-115294501D01*
X134972847Y-115225246D01*
X134991641Y-115099396D01*
X135007493Y-114929899D01*
X135020097Y-114729705D01*
X135029145Y-114511763D01*
X135034332Y-114289020D01*
X135035351Y-114074426D01*
X135031896Y-113880929D01*
X135023661Y-113721479D01*
X135010339Y-113609023D01*
X134992522Y-113557341D01*
X134946883Y-113554661D01*
X134906731Y-113573361D01*
X134906731Y-113573361D01*
G37*
X134906731Y-113573361D02*
X134867322Y-113619604D01*
X134856849Y-113700890D01*
X134861977Y-113771649D01*
X134875463Y-113969406D01*
X134879631Y-114205715D01*
X134875228Y-114458623D01*
X134863002Y-114706179D01*
X134843702Y-114926430D01*
X134818074Y-115097425D01*
X134816569Y-115104618D01*
X134799885Y-115212734D01*
X134810083Y-115272406D01*
X134831998Y-115294563D01*
X134904405Y-115324648D01*
X134949099Y-115298108D01*
X134951417Y-115294501D01*
X134972847Y-115225246D01*
X134991641Y-115099396D01*
X135007493Y-114929899D01*
X135020097Y-114729705D01*
X135029145Y-114511763D01*
X135034332Y-114289020D01*
X135035351Y-114074426D01*
X135031896Y-113880929D01*
X135023661Y-113721479D01*
X135010339Y-113609023D01*
X134992522Y-113557341D01*
X134946883Y-113554661D01*
X134906731Y-113573361D01*
G36*
X133169798Y-112239066D02*
X133132183Y-112316259D01*
X133091716Y-112448804D01*
X133067627Y-112552884D01*
X133035294Y-112690742D01*
X133004020Y-112796460D01*
X132978907Y-112853749D01*
X132971631Y-112859457D01*
X132949321Y-112890986D01*
X132939972Y-112966852D01*
X132939971Y-112967370D01*
X132923834Y-113064616D01*
X132880200Y-113208468D01*
X132816233Y-113381777D01*
X132739100Y-113567390D01*
X132655965Y-113748155D01*
X132573993Y-113906922D01*
X132500350Y-114026539D01*
X132493605Y-114035843D01*
X132462259Y-114070961D01*
X132442483Y-114061802D01*
X132426501Y-113997676D01*
X132415519Y-113928510D01*
X132327998Y-113561406D01*
X132182395Y-113230085D01*
X132109905Y-113111574D01*
X132036928Y-112995861D01*
X131983654Y-112899136D01*
X131960515Y-112840524D01*
X131960257Y-112837179D01*
X131941851Y-112791572D01*
X131928507Y-112786886D01*
X131900058Y-112755524D01*
X131875352Y-112679819D01*
X131874831Y-112677257D01*
X131833789Y-112572238D01*
X131766039Y-112473946D01*
X131678083Y-112409501D01*
X131602573Y-112414629D01*
X131543673Y-112486807D01*
X131505543Y-112623510D01*
X131504144Y-112632766D01*
X131475639Y-112775333D01*
X131435709Y-112917345D01*
X131424111Y-112950171D01*
X131378345Y-113054721D01*
X131310687Y-113189231D01*
X131228977Y-113340297D01*
X131141057Y-113494512D01*
X131054767Y-113638472D01*
X130977948Y-113758772D01*
X130918441Y-113842004D01*
X130884085Y-113874765D01*
X130883281Y-113874838D01*
X130840010Y-113904847D01*
X130830808Y-113982514D01*
X130854736Y-114091925D01*
X130902560Y-114202029D01*
X130974144Y-114319576D01*
X131061621Y-114425201D01*
X131180579Y-114535203D01*
X131344997Y-114664671D01*
X131501735Y-114782600D01*
X131371961Y-114782600D01*
X131246729Y-114768333D01*
X131082134Y-114730716D01*
X130904371Y-114677523D01*
X130739636Y-114616530D01*
X130621423Y-114559820D01*
X130520291Y-114516903D01*
X130462676Y-114528347D01*
X130451876Y-114592942D01*
X130457572Y-114619940D01*
X130489471Y-114671165D01*
X130563959Y-114725132D01*
X130689912Y-114786862D01*
X130876207Y-114861370D01*
X130901163Y-114870710D01*
X130990275Y-114894059D01*
X131125648Y-114917954D01*
X131290939Y-114940780D01*
X131469806Y-114960920D01*
X131645907Y-114976760D01*
X131802900Y-114986682D01*
X131924443Y-114989072D01*
X131994194Y-114982313D01*
X132000945Y-114979451D01*
X132007273Y-114942393D01*
X131959748Y-114884340D01*
X131869621Y-114816358D01*
X131786362Y-114768353D01*
X131456843Y-114557886D01*
X131165342Y-114289523D01*
X131076539Y-114188608D01*
X131011072Y-114107065D01*
X130981200Y-114060314D01*
X130980543Y-114057037D01*
X131004950Y-114015583D01*
X131066001Y-113948532D01*
X131091750Y-113923890D01*
X131203463Y-113795201D01*
X131320744Y-113617422D01*
X131431544Y-113411866D01*
X131523819Y-113199844D01*
X131560106Y-113095314D01*
X131601344Y-112963352D01*
X131635361Y-112854850D01*
X131655229Y-112791900D01*
X131655948Y-112789653D01*
X131680373Y-112792346D01*
X131730908Y-112851157D01*
X131800588Y-112957605D01*
X131818218Y-112987297D01*
X131957148Y-113243468D01*
X132078461Y-113503017D01*
X132176784Y-113751755D01*
X132246743Y-113975493D01*
X132282964Y-114160041D01*
X132286828Y-114224616D01*
X132296710Y-114312466D01*
X132320654Y-114363674D01*
X132322254Y-114364783D01*
X132377003Y-114365678D01*
X132451474Y-114336615D01*
X132513977Y-114293607D01*
X132534002Y-114257775D01*
X132559413Y-114214077D01*
X132598601Y-114185203D01*
X132690394Y-114115326D01*
X132739360Y-114039386D01*
X132740517Y-113993386D01*
X132754103Y-113953698D01*
X132777824Y-113948029D01*
X132825359Y-113926920D01*
X132831114Y-113909601D01*
X132853344Y-113887930D01*
X132867400Y-113893600D01*
X132887375Y-113942903D01*
X132898614Y-114053655D01*
X132901124Y-114215265D01*
X132894912Y-114417139D01*
X132879988Y-114648684D01*
X132866726Y-114798764D01*
X132851925Y-114974343D01*
X132848458Y-115089951D01*
X132856626Y-115157344D01*
X132876733Y-115188279D01*
X132876734Y-115188280D01*
X132939148Y-115214828D01*
X132989513Y-115188759D01*
X133017171Y-115157815D01*
X133033717Y-115102687D01*
X133046830Y-114990298D01*
X133056520Y-114833887D01*
X133062800Y-114646692D01*
X133065680Y-114441952D01*
X133065171Y-114232906D01*
X133061284Y-114032792D01*
X133054029Y-113854849D01*
X133043418Y-113712316D01*
X133029462Y-113618430D01*
X133015872Y-113587229D01*
X133000390Y-113550544D01*
X133009919Y-113468382D01*
X133045855Y-113331549D01*
X133063423Y-113273871D01*
X133154123Y-112940601D01*
X133210698Y-112636844D01*
X133230257Y-112378131D01*
X133230257Y-112377626D01*
X133222363Y-112265948D01*
X133201034Y-112221028D01*
X133169798Y-112239066D01*
X133169798Y-112239066D01*
G37*
X133169798Y-112239066D02*
X133132183Y-112316259D01*
X133091716Y-112448804D01*
X133067627Y-112552884D01*
X133035294Y-112690742D01*
X133004020Y-112796460D01*
X132978907Y-112853749D01*
X132971631Y-112859457D01*
X132949321Y-112890986D01*
X132939972Y-112966852D01*
X132939971Y-112967370D01*
X132923834Y-113064616D01*
X132880200Y-113208468D01*
X132816233Y-113381777D01*
X132739100Y-113567390D01*
X132655965Y-113748155D01*
X132573993Y-113906922D01*
X132500350Y-114026539D01*
X132493605Y-114035843D01*
X132462259Y-114070961D01*
X132442483Y-114061802D01*
X132426501Y-113997676D01*
X132415519Y-113928510D01*
X132327998Y-113561406D01*
X132182395Y-113230085D01*
X132109905Y-113111574D01*
X132036928Y-112995861D01*
X131983654Y-112899136D01*
X131960515Y-112840524D01*
X131960257Y-112837179D01*
X131941851Y-112791572D01*
X131928507Y-112786886D01*
X131900058Y-112755524D01*
X131875352Y-112679819D01*
X131874831Y-112677257D01*
X131833789Y-112572238D01*
X131766039Y-112473946D01*
X131678083Y-112409501D01*
X131602573Y-112414629D01*
X131543673Y-112486807D01*
X131505543Y-112623510D01*
X131504144Y-112632766D01*
X131475639Y-112775333D01*
X131435709Y-112917345D01*
X131424111Y-112950171D01*
X131378345Y-113054721D01*
X131310687Y-113189231D01*
X131228977Y-113340297D01*
X131141057Y-113494512D01*
X131054767Y-113638472D01*
X130977948Y-113758772D01*
X130918441Y-113842004D01*
X130884085Y-113874765D01*
X130883281Y-113874838D01*
X130840010Y-113904847D01*
X130830808Y-113982514D01*
X130854736Y-114091925D01*
X130902560Y-114202029D01*
X130974144Y-114319576D01*
X131061621Y-114425201D01*
X131180579Y-114535203D01*
X131344997Y-114664671D01*
X131501735Y-114782600D01*
X131371961Y-114782600D01*
X131246729Y-114768333D01*
X131082134Y-114730716D01*
X130904371Y-114677523D01*
X130739636Y-114616530D01*
X130621423Y-114559820D01*
X130520291Y-114516903D01*
X130462676Y-114528347D01*
X130451876Y-114592942D01*
X130457572Y-114619940D01*
X130489471Y-114671165D01*
X130563959Y-114725132D01*
X130689912Y-114786862D01*
X130876207Y-114861370D01*
X130901163Y-114870710D01*
X130990275Y-114894059D01*
X131125648Y-114917954D01*
X131290939Y-114940780D01*
X131469806Y-114960920D01*
X131645907Y-114976760D01*
X131802900Y-114986682D01*
X131924443Y-114989072D01*
X131994194Y-114982313D01*
X132000945Y-114979451D01*
X132007273Y-114942393D01*
X131959748Y-114884340D01*
X131869621Y-114816358D01*
X131786362Y-114768353D01*
X131456843Y-114557886D01*
X131165342Y-114289523D01*
X131076539Y-114188608D01*
X131011072Y-114107065D01*
X130981200Y-114060314D01*
X130980543Y-114057037D01*
X131004950Y-114015583D01*
X131066001Y-113948532D01*
X131091750Y-113923890D01*
X131203463Y-113795201D01*
X131320744Y-113617422D01*
X131431544Y-113411866D01*
X131523819Y-113199844D01*
X131560106Y-113095314D01*
X131601344Y-112963352D01*
X131635361Y-112854850D01*
X131655229Y-112791900D01*
X131655948Y-112789653D01*
X131680373Y-112792346D01*
X131730908Y-112851157D01*
X131800588Y-112957605D01*
X131818218Y-112987297D01*
X131957148Y-113243468D01*
X132078461Y-113503017D01*
X132176784Y-113751755D01*
X132246743Y-113975493D01*
X132282964Y-114160041D01*
X132286828Y-114224616D01*
X132296710Y-114312466D01*
X132320654Y-114363674D01*
X132322254Y-114364783D01*
X132377003Y-114365678D01*
X132451474Y-114336615D01*
X132513977Y-114293607D01*
X132534002Y-114257775D01*
X132559413Y-114214077D01*
X132598601Y-114185203D01*
X132690394Y-114115326D01*
X132739360Y-114039386D01*
X132740517Y-113993386D01*
X132754103Y-113953698D01*
X132777824Y-113948029D01*
X132825359Y-113926920D01*
X132831114Y-113909601D01*
X132853344Y-113887930D01*
X132867400Y-113893600D01*
X132887375Y-113942903D01*
X132898614Y-114053655D01*
X132901124Y-114215265D01*
X132894912Y-114417139D01*
X132879988Y-114648684D01*
X132866726Y-114798764D01*
X132851925Y-114974343D01*
X132848458Y-115089951D01*
X132856626Y-115157344D01*
X132876733Y-115188279D01*
X132876734Y-115188280D01*
X132939148Y-115214828D01*
X132989513Y-115188759D01*
X133017171Y-115157815D01*
X133033717Y-115102687D01*
X133046830Y-114990298D01*
X133056520Y-114833887D01*
X133062800Y-114646692D01*
X133065680Y-114441952D01*
X133065171Y-114232906D01*
X133061284Y-114032792D01*
X133054029Y-113854849D01*
X133043418Y-113712316D01*
X133029462Y-113618430D01*
X133015872Y-113587229D01*
X133000390Y-113550544D01*
X133009919Y-113468382D01*
X133045855Y-113331549D01*
X133063423Y-113273871D01*
X133154123Y-112940601D01*
X133210698Y-112636844D01*
X133230257Y-112378131D01*
X133230257Y-112377626D01*
X133222363Y-112265948D01*
X133201034Y-112221028D01*
X133169798Y-112239066D01*
G36*
X133420870Y-112257606D02*
X133419765Y-112298160D01*
X133430349Y-112393726D01*
X133450575Y-112528053D01*
X133466866Y-112622606D01*
X133491373Y-112806599D01*
X133506688Y-113022430D01*
X133512840Y-113250935D01*
X133509856Y-113472949D01*
X133497764Y-113669308D01*
X133476594Y-113820847D01*
X133465042Y-113866386D01*
X133461784Y-113931022D01*
X133494688Y-113950490D01*
X133545165Y-113927252D01*
X133594625Y-113863771D01*
X133601993Y-113848243D01*
X133619538Y-113767738D01*
X133631426Y-113630739D01*
X133637789Y-113453093D01*
X133638755Y-113250644D01*
X133634456Y-113039240D01*
X133625022Y-112834727D01*
X133610584Y-112652951D01*
X133591270Y-112509758D01*
X133590976Y-112508157D01*
X133556586Y-112368252D01*
X133516755Y-112282475D01*
X133493567Y-112262374D01*
X133436048Y-112252213D01*
X133420870Y-112257606D01*
X133420870Y-112257606D01*
G37*
X133420870Y-112257606D02*
X133419765Y-112298160D01*
X133430349Y-112393726D01*
X133450575Y-112528053D01*
X133466866Y-112622606D01*
X133491373Y-112806599D01*
X133506688Y-113022430D01*
X133512840Y-113250935D01*
X133509856Y-113472949D01*
X133497764Y-113669308D01*
X133476594Y-113820847D01*
X133465042Y-113866386D01*
X133461784Y-113931022D01*
X133494688Y-113950490D01*
X133545165Y-113927252D01*
X133594625Y-113863771D01*
X133601993Y-113848243D01*
X133619538Y-113767738D01*
X133631426Y-113630739D01*
X133637789Y-113453093D01*
X133638755Y-113250644D01*
X133634456Y-113039240D01*
X133625022Y-112834727D01*
X133610584Y-112652951D01*
X133591270Y-112509758D01*
X133590976Y-112508157D01*
X133556586Y-112368252D01*
X133516755Y-112282475D01*
X133493567Y-112262374D01*
X133436048Y-112252213D01*
X133420870Y-112257606D01*
G36*
X173042187Y-72726865D02*
X173051145Y-72850205D01*
X173087873Y-72979386D01*
X173119109Y-73138854D01*
X173142559Y-73393916D01*
X173158340Y-73727555D01*
X173166569Y-74122753D01*
X173167363Y-74562492D01*
X173160838Y-75029754D01*
X173147112Y-75507522D01*
X173126302Y-75978778D01*
X173098523Y-76426504D01*
X173063894Y-76833684D01*
X173061217Y-76860222D01*
X173026964Y-77186508D01*
X172994682Y-77476823D01*
X172966733Y-77711212D01*
X172945482Y-77869719D01*
X172934644Y-77929284D01*
X172886524Y-77934971D01*
X172774999Y-77847934D01*
X172599858Y-77667999D01*
X172572088Y-77637424D01*
X172378139Y-77435137D01*
X172170009Y-77237902D01*
X171987142Y-77082753D01*
X171957228Y-77060147D01*
X171746355Y-76872568D01*
X171639717Y-76711911D01*
X171387678Y-76711911D01*
X171381892Y-76790275D01*
X171352278Y-76786842D01*
X171275092Y-76699120D01*
X171206810Y-76590161D01*
X171197040Y-76513413D01*
X171197328Y-76512935D01*
X171255560Y-76491296D01*
X171325244Y-76544465D01*
X171377190Y-76641932D01*
X171387678Y-76711911D01*
X171639717Y-76711911D01*
X171625303Y-76690197D01*
X171616892Y-76667388D01*
X171505118Y-76448286D01*
X171350099Y-76326884D01*
X171182881Y-76305658D01*
X171069130Y-76336883D01*
X171018477Y-76419935D01*
X171004682Y-76511439D01*
X171035253Y-76743423D01*
X171167143Y-76940056D01*
X171333643Y-77058053D01*
X171440811Y-77127940D01*
X171489814Y-77218165D01*
X171502359Y-77372176D01*
X171502445Y-77395908D01*
X171487932Y-77573632D01*
X171436787Y-77673620D01*
X171393267Y-77704903D01*
X171179461Y-77760540D01*
X170962128Y-77706527D01*
X170833210Y-77620375D01*
X170725968Y-77511625D01*
X170644999Y-77377250D01*
X170581550Y-77193818D01*
X170526870Y-76937901D01*
X170488178Y-76696697D01*
X170454886Y-76489110D01*
X170424005Y-76326364D01*
X170401563Y-76239802D01*
X170399470Y-76235599D01*
X170335977Y-76203570D01*
X170200538Y-76161038D01*
X170032229Y-76117962D01*
X169870122Y-76084305D01*
X169753292Y-76070027D01*
X169749889Y-76070000D01*
X169702037Y-76115658D01*
X169696223Y-76153217D01*
X169743305Y-76231652D01*
X169856974Y-76317428D01*
X169995864Y-76384868D01*
X170107771Y-76408667D01*
X170167248Y-76464265D01*
X170227281Y-76627707D01*
X170286489Y-76893965D01*
X170343493Y-77258011D01*
X170345965Y-77276467D01*
X170422191Y-77542874D01*
X170560834Y-77753985D01*
X170744004Y-77908059D01*
X170953813Y-78003356D01*
X171172371Y-78038136D01*
X171381790Y-78010659D01*
X171564180Y-77919186D01*
X171701653Y-77761976D01*
X171776320Y-77537290D01*
X171784667Y-77416397D01*
X171784667Y-77233188D01*
X171989491Y-77427705D01*
X172118960Y-77561589D01*
X172288094Y-77751372D01*
X172467469Y-77963675D01*
X172533079Y-78044412D01*
X172871844Y-78466601D01*
X172837582Y-78891078D01*
X172818110Y-79112115D01*
X172789765Y-79408123D01*
X172756214Y-79741884D01*
X172721122Y-80076179D01*
X172717932Y-80105778D01*
X172683395Y-80503839D01*
X172657808Y-80960127D01*
X172641383Y-81448863D01*
X172634336Y-81944272D01*
X172636881Y-82420575D01*
X172649233Y-82851997D01*
X172671607Y-83212760D01*
X172690597Y-83389582D01*
X172750531Y-83745503D01*
X172828192Y-84071581D01*
X172916949Y-84347326D01*
X173010172Y-84552249D01*
X173101229Y-84665859D01*
X173104326Y-84667950D01*
X173315064Y-84771843D01*
X173495318Y-84780411D01*
X173588479Y-84746632D01*
X173761624Y-84606898D01*
X173929823Y-84374597D01*
X174083252Y-84069943D01*
X174212088Y-83713155D01*
X174306506Y-83324447D01*
X174321397Y-83238444D01*
X174373372Y-82624254D01*
X174069129Y-82624254D01*
X174029528Y-83130348D01*
X173945978Y-83590895D01*
X173820229Y-83988148D01*
X173654030Y-84304359D01*
X173571751Y-84409667D01*
X173444271Y-84516403D01*
X173339328Y-84514636D01*
X173243227Y-84402780D01*
X173225135Y-84369528D01*
X173169369Y-84230165D01*
X173105594Y-84024114D01*
X173047436Y-83795483D01*
X173046421Y-83790972D01*
X173005965Y-83532184D01*
X172976716Y-83180819D01*
X172958283Y-82756593D01*
X172950274Y-82279221D01*
X172952296Y-81768418D01*
X172963958Y-81243899D01*
X172984867Y-80725378D01*
X173014632Y-80232572D01*
X173052860Y-79785195D01*
X173099159Y-79402962D01*
X173138224Y-79174444D01*
X173178253Y-78976889D01*
X173332890Y-79315556D01*
X173551702Y-79837518D01*
X173734787Y-80374910D01*
X173898210Y-80975169D01*
X173906754Y-81010155D01*
X174009491Y-81546410D01*
X174063033Y-82090359D01*
X174069129Y-82624254D01*
X174373372Y-82624254D01*
X174381508Y-82528121D01*
X174342857Y-81775776D01*
X174207256Y-80990663D01*
X173976518Y-80182035D01*
X173652453Y-79359145D01*
X173496939Y-79027736D01*
X173348305Y-78710743D01*
X173256764Y-78479913D01*
X173218987Y-78326052D01*
X173220997Y-78265736D01*
X173235998Y-78169665D01*
X173259427Y-77980544D01*
X173289113Y-77717714D01*
X173322886Y-77400515D01*
X173358575Y-77048287D01*
X173365320Y-76979748D01*
X173420227Y-76328930D01*
X173456391Y-75699373D01*
X173474260Y-75101932D01*
X173474288Y-74547465D01*
X173456922Y-74046829D01*
X173422616Y-73610881D01*
X173371818Y-73250478D01*
X173304979Y-72976477D01*
X173222550Y-72799735D01*
X173190327Y-72763066D01*
X173089103Y-72696715D01*
X173042187Y-72726865D01*
X173042187Y-72726865D01*
G37*
X173042187Y-72726865D02*
X173051145Y-72850205D01*
X173087873Y-72979386D01*
X173119109Y-73138854D01*
X173142559Y-73393916D01*
X173158340Y-73727555D01*
X173166569Y-74122753D01*
X173167363Y-74562492D01*
X173160838Y-75029754D01*
X173147112Y-75507522D01*
X173126302Y-75978778D01*
X173098523Y-76426504D01*
X173063894Y-76833684D01*
X173061217Y-76860222D01*
X173026964Y-77186508D01*
X172994682Y-77476823D01*
X172966733Y-77711212D01*
X172945482Y-77869719D01*
X172934644Y-77929284D01*
X172886524Y-77934971D01*
X172774999Y-77847934D01*
X172599858Y-77667999D01*
X172572088Y-77637424D01*
X172378139Y-77435137D01*
X172170009Y-77237902D01*
X171987142Y-77082753D01*
X171957228Y-77060147D01*
X171746355Y-76872568D01*
X171639717Y-76711911D01*
X171387678Y-76711911D01*
X171381892Y-76790275D01*
X171352278Y-76786842D01*
X171275092Y-76699120D01*
X171206810Y-76590161D01*
X171197040Y-76513413D01*
X171197328Y-76512935D01*
X171255560Y-76491296D01*
X171325244Y-76544465D01*
X171377190Y-76641932D01*
X171387678Y-76711911D01*
X171639717Y-76711911D01*
X171625303Y-76690197D01*
X171616892Y-76667388D01*
X171505118Y-76448286D01*
X171350099Y-76326884D01*
X171182881Y-76305658D01*
X171069130Y-76336883D01*
X171018477Y-76419935D01*
X171004682Y-76511439D01*
X171035253Y-76743423D01*
X171167143Y-76940056D01*
X171333643Y-77058053D01*
X171440811Y-77127940D01*
X171489814Y-77218165D01*
X171502359Y-77372176D01*
X171502445Y-77395908D01*
X171487932Y-77573632D01*
X171436787Y-77673620D01*
X171393267Y-77704903D01*
X171179461Y-77760540D01*
X170962128Y-77706527D01*
X170833210Y-77620375D01*
X170725968Y-77511625D01*
X170644999Y-77377250D01*
X170581550Y-77193818D01*
X170526870Y-76937901D01*
X170488178Y-76696697D01*
X170454886Y-76489110D01*
X170424005Y-76326364D01*
X170401563Y-76239802D01*
X170399470Y-76235599D01*
X170335977Y-76203570D01*
X170200538Y-76161038D01*
X170032229Y-76117962D01*
X169870122Y-76084305D01*
X169753292Y-76070027D01*
X169749889Y-76070000D01*
X169702037Y-76115658D01*
X169696223Y-76153217D01*
X169743305Y-76231652D01*
X169856974Y-76317428D01*
X169995864Y-76384868D01*
X170107771Y-76408667D01*
X170167248Y-76464265D01*
X170227281Y-76627707D01*
X170286489Y-76893965D01*
X170343493Y-77258011D01*
X170345965Y-77276467D01*
X170422191Y-77542874D01*
X170560834Y-77753985D01*
X170744004Y-77908059D01*
X170953813Y-78003356D01*
X171172371Y-78038136D01*
X171381790Y-78010659D01*
X171564180Y-77919186D01*
X171701653Y-77761976D01*
X171776320Y-77537290D01*
X171784667Y-77416397D01*
X171784667Y-77233188D01*
X171989491Y-77427705D01*
X172118960Y-77561589D01*
X172288094Y-77751372D01*
X172467469Y-77963675D01*
X172533079Y-78044412D01*
X172871844Y-78466601D01*
X172837582Y-78891078D01*
X172818110Y-79112115D01*
X172789765Y-79408123D01*
X172756214Y-79741884D01*
X172721122Y-80076179D01*
X172717932Y-80105778D01*
X172683395Y-80503839D01*
X172657808Y-80960127D01*
X172641383Y-81448863D01*
X172634336Y-81944272D01*
X172636881Y-82420575D01*
X172649233Y-82851997D01*
X172671607Y-83212760D01*
X172690597Y-83389582D01*
X172750531Y-83745503D01*
X172828192Y-84071581D01*
X172916949Y-84347326D01*
X173010172Y-84552249D01*
X173101229Y-84665859D01*
X173104326Y-84667950D01*
X173315064Y-84771843D01*
X173495318Y-84780411D01*
X173588479Y-84746632D01*
X173761624Y-84606898D01*
X173929823Y-84374597D01*
X174083252Y-84069943D01*
X174212088Y-83713155D01*
X174306506Y-83324447D01*
X174321397Y-83238444D01*
X174373372Y-82624254D01*
X174069129Y-82624254D01*
X174029528Y-83130348D01*
X173945978Y-83590895D01*
X173820229Y-83988148D01*
X173654030Y-84304359D01*
X173571751Y-84409667D01*
X173444271Y-84516403D01*
X173339328Y-84514636D01*
X173243227Y-84402780D01*
X173225135Y-84369528D01*
X173169369Y-84230165D01*
X173105594Y-84024114D01*
X173047436Y-83795483D01*
X173046421Y-83790972D01*
X173005965Y-83532184D01*
X172976716Y-83180819D01*
X172958283Y-82756593D01*
X172950274Y-82279221D01*
X172952296Y-81768418D01*
X172963958Y-81243899D01*
X172984867Y-80725378D01*
X173014632Y-80232572D01*
X173052860Y-79785195D01*
X173099159Y-79402962D01*
X173138224Y-79174444D01*
X173178253Y-78976889D01*
X173332890Y-79315556D01*
X173551702Y-79837518D01*
X173734787Y-80374910D01*
X173898210Y-80975169D01*
X173906754Y-81010155D01*
X174009491Y-81546410D01*
X174063033Y-82090359D01*
X174069129Y-82624254D01*
X174373372Y-82624254D01*
X174381508Y-82528121D01*
X174342857Y-81775776D01*
X174207256Y-80990663D01*
X173976518Y-80182035D01*
X173652453Y-79359145D01*
X173496939Y-79027736D01*
X173348305Y-78710743D01*
X173256764Y-78479913D01*
X173218987Y-78326052D01*
X173220997Y-78265736D01*
X173235998Y-78169665D01*
X173259427Y-77980544D01*
X173289113Y-77717714D01*
X173322886Y-77400515D01*
X173358575Y-77048287D01*
X173365320Y-76979748D01*
X173420227Y-76328930D01*
X173456391Y-75699373D01*
X173474260Y-75101932D01*
X173474288Y-74547465D01*
X173456922Y-74046829D01*
X173422616Y-73610881D01*
X173371818Y-73250478D01*
X173304979Y-72976477D01*
X173222550Y-72799735D01*
X173190327Y-72763066D01*
X173089103Y-72696715D01*
X173042187Y-72726865D01*
G36*
X168819141Y-74905920D02*
X168750361Y-74980640D01*
X168754852Y-75068637D01*
X168781201Y-75201145D01*
X168812172Y-75386473D01*
X168823952Y-75464956D01*
X168862894Y-75734800D01*
X168640143Y-75699181D01*
X168468137Y-75688457D01*
X168354363Y-75731588D01*
X168316175Y-75764778D01*
X168243930Y-75909873D01*
X168228486Y-76122119D01*
X168263963Y-76374785D01*
X168344476Y-76641137D01*
X168464142Y-76894440D01*
X168610032Y-77100111D01*
X168656297Y-77162718D01*
X168633043Y-77191121D01*
X168521341Y-77198685D01*
X168470104Y-77198889D01*
X168294470Y-77220428D01*
X168178939Y-77276289D01*
X168172223Y-77283556D01*
X168095926Y-77354218D01*
X168062803Y-77368222D01*
X168005451Y-77332079D01*
X167891189Y-77236931D01*
X167743823Y-77102696D01*
X167731048Y-77090611D01*
X167578110Y-76940625D01*
X167490580Y-76830357D01*
X167450256Y-76723680D01*
X167438932Y-76584465D01*
X167438445Y-76509904D01*
X167425265Y-76394556D01*
X167209481Y-76394556D01*
X167203070Y-76531503D01*
X167174397Y-76565395D01*
X167119096Y-76494763D01*
X167041814Y-76338111D01*
X166971661Y-76148026D01*
X166936372Y-75977829D01*
X166937887Y-75853016D01*
X166978143Y-75799084D01*
X167001000Y-75801425D01*
X167071389Y-75873749D01*
X167138199Y-76021923D01*
X167188547Y-76209292D01*
X167209481Y-76394556D01*
X167425265Y-76394556D01*
X167409861Y-76259758D01*
X167333969Y-76010621D01*
X167225555Y-75798517D01*
X167099408Y-75659468D01*
X167085667Y-75650531D01*
X166955478Y-75626446D01*
X166839752Y-75692765D01*
X166772719Y-75828745D01*
X166770561Y-75841488D01*
X166779368Y-75989746D01*
X166827528Y-76192437D01*
X166900539Y-76404782D01*
X166983899Y-76581997D01*
X167033577Y-76653653D01*
X167094065Y-76737826D01*
X167067591Y-76798203D01*
X167014362Y-76840603D01*
X166847708Y-76898156D01*
X166637830Y-76854494D01*
X166382518Y-76709116D01*
X166359547Y-76692703D01*
X166189590Y-76576628D01*
X166088829Y-76531562D01*
X166040379Y-76555480D01*
X166027358Y-76646355D01*
X166027334Y-76652828D01*
X166079207Y-76813319D01*
X166216677Y-76958925D01*
X166412518Y-77078643D01*
X166639503Y-77161467D01*
X166870407Y-77196394D01*
X167078005Y-77172420D01*
X167185997Y-77121130D01*
X167252417Y-77087259D01*
X167321594Y-77095836D01*
X167418564Y-77158383D01*
X167568362Y-77286423D01*
X167592992Y-77308453D01*
X167888650Y-77573534D01*
X167776436Y-77892801D01*
X167674625Y-78339937D01*
X167669038Y-78801525D01*
X167751952Y-79259503D01*
X167915641Y-79695809D01*
X168152378Y-80092380D01*
X168454439Y-80431155D01*
X168814098Y-80694070D01*
X169016883Y-80792992D01*
X169300581Y-80889159D01*
X169536912Y-80914383D01*
X169765635Y-80869508D01*
X169910014Y-80811902D01*
X170127065Y-80657375D01*
X170263389Y-80435732D01*
X170317873Y-80159890D01*
X170316881Y-80148831D01*
X170017481Y-80148831D01*
X169957173Y-80358768D01*
X169862859Y-80486201D01*
X169688363Y-80563388D01*
X169454623Y-80579782D01*
X169197339Y-80535655D01*
X169045908Y-80479966D01*
X168766047Y-80299452D01*
X168503454Y-80032605D01*
X168275037Y-79705976D01*
X168097706Y-79346121D01*
X167988367Y-78979592D01*
X167963028Y-78779333D01*
X167964413Y-78541451D01*
X167989566Y-78299827D01*
X168032684Y-78082935D01*
X168087959Y-77919251D01*
X168149587Y-77837247D01*
X168155625Y-77834718D01*
X168226981Y-77861202D01*
X168361059Y-77954316D01*
X168541683Y-78099949D01*
X168752677Y-78283991D01*
X168977864Y-78492330D01*
X169201069Y-78710857D01*
X169406115Y-78925459D01*
X169406526Y-78925908D01*
X169715020Y-79302568D01*
X169917702Y-79643566D01*
X170014288Y-79948340D01*
X170017481Y-80148831D01*
X170316881Y-80148831D01*
X170289402Y-79842768D01*
X170176863Y-79497284D01*
X170045337Y-79241889D01*
X169887327Y-79015713D01*
X169663646Y-78747565D01*
X169399203Y-78462847D01*
X169118904Y-78186961D01*
X168847659Y-77945309D01*
X168610376Y-77763292D01*
X168568651Y-77735943D01*
X168424813Y-77632914D01*
X168375013Y-77560893D01*
X168390949Y-77522029D01*
X168470124Y-77494243D01*
X168604714Y-77533000D01*
X168655312Y-77555989D01*
X168824034Y-77615858D01*
X168944626Y-77594407D01*
X169054672Y-77483778D01*
X169064423Y-77470455D01*
X169172363Y-77387278D01*
X169252210Y-77368222D01*
X169361949Y-77330060D01*
X169496868Y-77234788D01*
X169537371Y-77197091D01*
X169641050Y-77081413D01*
X169683285Y-76979158D01*
X169679568Y-76838800D01*
X169668677Y-76760391D01*
X169651218Y-76687527D01*
X169455406Y-76687527D01*
X169420353Y-76928064D01*
X169417729Y-76935083D01*
X169350447Y-77044307D01*
X169246348Y-77079634D01*
X169084291Y-77043782D01*
X168960788Y-76993823D01*
X168768861Y-76851186D01*
X168613073Y-76618727D01*
X168505132Y-76316838D01*
X168472309Y-76142945D01*
X168454619Y-75988398D01*
X168465151Y-75920338D01*
X168514546Y-75913739D01*
X168563807Y-75927770D01*
X168932280Y-76076500D01*
X169206771Y-76256319D01*
X169382679Y-76461804D01*
X169455406Y-76687527D01*
X169651218Y-76687527D01*
X169596398Y-76458750D01*
X169470956Y-76226844D01*
X169292725Y-76043383D01*
X169200099Y-75957281D01*
X169142677Y-75869481D01*
X169108886Y-75747748D01*
X169087156Y-75559850D01*
X169078300Y-75446084D01*
X169047464Y-75167184D01*
X169000573Y-74990113D01*
X168932578Y-74904348D01*
X168838433Y-74899366D01*
X168819141Y-74905920D01*
X168819141Y-74905920D01*
G37*
X168819141Y-74905920D02*
X168750361Y-74980640D01*
X168754852Y-75068637D01*
X168781201Y-75201145D01*
X168812172Y-75386473D01*
X168823952Y-75464956D01*
X168862894Y-75734800D01*
X168640143Y-75699181D01*
X168468137Y-75688457D01*
X168354363Y-75731588D01*
X168316175Y-75764778D01*
X168243930Y-75909873D01*
X168228486Y-76122119D01*
X168263963Y-76374785D01*
X168344476Y-76641137D01*
X168464142Y-76894440D01*
X168610032Y-77100111D01*
X168656297Y-77162718D01*
X168633043Y-77191121D01*
X168521341Y-77198685D01*
X168470104Y-77198889D01*
X168294470Y-77220428D01*
X168178939Y-77276289D01*
X168172223Y-77283556D01*
X168095926Y-77354218D01*
X168062803Y-77368222D01*
X168005451Y-77332079D01*
X167891189Y-77236931D01*
X167743823Y-77102696D01*
X167731048Y-77090611D01*
X167578110Y-76940625D01*
X167490580Y-76830357D01*
X167450256Y-76723680D01*
X167438932Y-76584465D01*
X167438445Y-76509904D01*
X167425265Y-76394556D01*
X167209481Y-76394556D01*
X167203070Y-76531503D01*
X167174397Y-76565395D01*
X167119096Y-76494763D01*
X167041814Y-76338111D01*
X166971661Y-76148026D01*
X166936372Y-75977829D01*
X166937887Y-75853016D01*
X166978143Y-75799084D01*
X167001000Y-75801425D01*
X167071389Y-75873749D01*
X167138199Y-76021923D01*
X167188547Y-76209292D01*
X167209481Y-76394556D01*
X167425265Y-76394556D01*
X167409861Y-76259758D01*
X167333969Y-76010621D01*
X167225555Y-75798517D01*
X167099408Y-75659468D01*
X167085667Y-75650531D01*
X166955478Y-75626446D01*
X166839752Y-75692765D01*
X166772719Y-75828745D01*
X166770561Y-75841488D01*
X166779368Y-75989746D01*
X166827528Y-76192437D01*
X166900539Y-76404782D01*
X166983899Y-76581997D01*
X167033577Y-76653653D01*
X167094065Y-76737826D01*
X167067591Y-76798203D01*
X167014362Y-76840603D01*
X166847708Y-76898156D01*
X166637830Y-76854494D01*
X166382518Y-76709116D01*
X166359547Y-76692703D01*
X166189590Y-76576628D01*
X166088829Y-76531562D01*
X166040379Y-76555480D01*
X166027358Y-76646355D01*
X166027334Y-76652828D01*
X166079207Y-76813319D01*
X166216677Y-76958925D01*
X166412518Y-77078643D01*
X166639503Y-77161467D01*
X166870407Y-77196394D01*
X167078005Y-77172420D01*
X167185997Y-77121130D01*
X167252417Y-77087259D01*
X167321594Y-77095836D01*
X167418564Y-77158383D01*
X167568362Y-77286423D01*
X167592992Y-77308453D01*
X167888650Y-77573534D01*
X167776436Y-77892801D01*
X167674625Y-78339937D01*
X167669038Y-78801525D01*
X167751952Y-79259503D01*
X167915641Y-79695809D01*
X168152378Y-80092380D01*
X168454439Y-80431155D01*
X168814098Y-80694070D01*
X169016883Y-80792992D01*
X169300581Y-80889159D01*
X169536912Y-80914383D01*
X169765635Y-80869508D01*
X169910014Y-80811902D01*
X170127065Y-80657375D01*
X170263389Y-80435732D01*
X170317873Y-80159890D01*
X170316881Y-80148831D01*
X170017481Y-80148831D01*
X169957173Y-80358768D01*
X169862859Y-80486201D01*
X169688363Y-80563388D01*
X169454623Y-80579782D01*
X169197339Y-80535655D01*
X169045908Y-80479966D01*
X168766047Y-80299452D01*
X168503454Y-80032605D01*
X168275037Y-79705976D01*
X168097706Y-79346121D01*
X167988367Y-78979592D01*
X167963028Y-78779333D01*
X167964413Y-78541451D01*
X167989566Y-78299827D01*
X168032684Y-78082935D01*
X168087959Y-77919251D01*
X168149587Y-77837247D01*
X168155625Y-77834718D01*
X168226981Y-77861202D01*
X168361059Y-77954316D01*
X168541683Y-78099949D01*
X168752677Y-78283991D01*
X168977864Y-78492330D01*
X169201069Y-78710857D01*
X169406115Y-78925459D01*
X169406526Y-78925908D01*
X169715020Y-79302568D01*
X169917702Y-79643566D01*
X170014288Y-79948340D01*
X170017481Y-80148831D01*
X170316881Y-80148831D01*
X170289402Y-79842768D01*
X170176863Y-79497284D01*
X170045337Y-79241889D01*
X169887327Y-79015713D01*
X169663646Y-78747565D01*
X169399203Y-78462847D01*
X169118904Y-78186961D01*
X168847659Y-77945309D01*
X168610376Y-77763292D01*
X168568651Y-77735943D01*
X168424813Y-77632914D01*
X168375013Y-77560893D01*
X168390949Y-77522029D01*
X168470124Y-77494243D01*
X168604714Y-77533000D01*
X168655312Y-77555989D01*
X168824034Y-77615858D01*
X168944626Y-77594407D01*
X169054672Y-77483778D01*
X169064423Y-77470455D01*
X169172363Y-77387278D01*
X169252210Y-77368222D01*
X169361949Y-77330060D01*
X169496868Y-77234788D01*
X169537371Y-77197091D01*
X169641050Y-77081413D01*
X169683285Y-76979158D01*
X169679568Y-76838800D01*
X169668677Y-76760391D01*
X169651218Y-76687527D01*
X169455406Y-76687527D01*
X169420353Y-76928064D01*
X169417729Y-76935083D01*
X169350447Y-77044307D01*
X169246348Y-77079634D01*
X169084291Y-77043782D01*
X168960788Y-76993823D01*
X168768861Y-76851186D01*
X168613073Y-76618727D01*
X168505132Y-76316838D01*
X168472309Y-76142945D01*
X168454619Y-75988398D01*
X168465151Y-75920338D01*
X168514546Y-75913739D01*
X168563807Y-75927770D01*
X168932280Y-76076500D01*
X169206771Y-76256319D01*
X169382679Y-76461804D01*
X169455406Y-76687527D01*
X169651218Y-76687527D01*
X169596398Y-76458750D01*
X169470956Y-76226844D01*
X169292725Y-76043383D01*
X169200099Y-75957281D01*
X169142677Y-75869481D01*
X169108886Y-75747748D01*
X169087156Y-75559850D01*
X169078300Y-75446084D01*
X169047464Y-75167184D01*
X169000573Y-74990113D01*
X168932578Y-74904348D01*
X168838433Y-74899366D01*
X168819141Y-74905920D01*
G36*
X111246221Y-76941666D02*
X111600092Y-76800937D01*
X111626000Y-76744000D01*
X111838737Y-76537630D01*
X112134000Y-76490000D01*
X112546741Y-76383632D01*
X112642000Y-76236000D01*
X112867336Y-76076945D01*
X113430254Y-75988477D01*
X113658000Y-75982000D01*
X114309466Y-75951910D01*
X114599071Y-75788846D01*
X114672397Y-75383625D01*
X114674000Y-75220000D01*
X114633878Y-74731400D01*
X114416461Y-74514197D01*
X113876165Y-74459203D01*
X113658000Y-74458000D01*
X113021778Y-74401666D01*
X112667907Y-74260937D01*
X112642000Y-74204000D01*
X112429262Y-73997630D01*
X112134000Y-73950000D01*
X111721258Y-73843632D01*
X111626000Y-73696000D01*
X111400663Y-73536945D01*
X110837745Y-73448477D01*
X110610000Y-73442000D01*
X109973778Y-73498335D01*
X109619907Y-73639064D01*
X109594000Y-73696000D01*
X109381262Y-73902371D01*
X109086000Y-73950000D01*
X108673258Y-74056369D01*
X108578000Y-74204000D01*
X108352663Y-74363056D01*
X107789745Y-74451524D01*
X107562000Y-74458000D01*
X106910533Y-74488091D01*
X106620928Y-74651155D01*
X106547602Y-75056376D01*
X106546000Y-75220000D01*
X108578000Y-75220000D01*
X108657831Y-74662240D01*
X108954865Y-74465862D01*
X109086000Y-74458000D01*
X109457840Y-74577748D01*
X109588759Y-75023299D01*
X109594000Y-75220000D01*
X111626000Y-75220000D01*
X111705831Y-74662240D01*
X112002865Y-74465862D01*
X112134000Y-74458000D01*
X112505840Y-74577748D01*
X112636759Y-75023299D01*
X112642000Y-75220000D01*
X112562168Y-75777761D01*
X112265134Y-75974139D01*
X112134000Y-75982000D01*
X111762159Y-75862253D01*
X111631240Y-75416702D01*
X111626000Y-75220000D01*
X109594000Y-75220000D01*
X109514168Y-75777761D01*
X109217134Y-75974139D01*
X109086000Y-75982000D01*
X108714159Y-75862253D01*
X108583240Y-75416702D01*
X108578000Y-75220000D01*
X106546000Y-75220000D01*
X106586121Y-75708601D01*
X106803538Y-75925804D01*
X107343834Y-75980798D01*
X107562000Y-75982000D01*
X108198221Y-76038335D01*
X108552092Y-76179064D01*
X108578000Y-76236000D01*
X108790737Y-76442371D01*
X109086000Y-76490000D01*
X109498741Y-76596369D01*
X109594000Y-76744000D01*
X109819336Y-76903056D01*
X110382254Y-76991524D01*
X110610000Y-76998000D01*
X111246221Y-76941666D01*
X111246221Y-76941666D01*
G37*
X111246221Y-76941666D02*
X111600092Y-76800937D01*
X111626000Y-76744000D01*
X111838737Y-76537630D01*
X112134000Y-76490000D01*
X112546741Y-76383632D01*
X112642000Y-76236000D01*
X112867336Y-76076945D01*
X113430254Y-75988477D01*
X113658000Y-75982000D01*
X114309466Y-75951910D01*
X114599071Y-75788846D01*
X114672397Y-75383625D01*
X114674000Y-75220000D01*
X114633878Y-74731400D01*
X114416461Y-74514197D01*
X113876165Y-74459203D01*
X113658000Y-74458000D01*
X113021778Y-74401666D01*
X112667907Y-74260937D01*
X112642000Y-74204000D01*
X112429262Y-73997630D01*
X112134000Y-73950000D01*
X111721258Y-73843632D01*
X111626000Y-73696000D01*
X111400663Y-73536945D01*
X110837745Y-73448477D01*
X110610000Y-73442000D01*
X109973778Y-73498335D01*
X109619907Y-73639064D01*
X109594000Y-73696000D01*
X109381262Y-73902371D01*
X109086000Y-73950000D01*
X108673258Y-74056369D01*
X108578000Y-74204000D01*
X108352663Y-74363056D01*
X107789745Y-74451524D01*
X107562000Y-74458000D01*
X106910533Y-74488091D01*
X106620928Y-74651155D01*
X106547602Y-75056376D01*
X106546000Y-75220000D01*
X108578000Y-75220000D01*
X108657831Y-74662240D01*
X108954865Y-74465862D01*
X109086000Y-74458000D01*
X109457840Y-74577748D01*
X109588759Y-75023299D01*
X109594000Y-75220000D01*
X111626000Y-75220000D01*
X111705831Y-74662240D01*
X112002865Y-74465862D01*
X112134000Y-74458000D01*
X112505840Y-74577748D01*
X112636759Y-75023299D01*
X112642000Y-75220000D01*
X112562168Y-75777761D01*
X112265134Y-75974139D01*
X112134000Y-75982000D01*
X111762159Y-75862253D01*
X111631240Y-75416702D01*
X111626000Y-75220000D01*
X109594000Y-75220000D01*
X109514168Y-75777761D01*
X109217134Y-75974139D01*
X109086000Y-75982000D01*
X108714159Y-75862253D01*
X108583240Y-75416702D01*
X108578000Y-75220000D01*
X106546000Y-75220000D01*
X106586121Y-75708601D01*
X106803538Y-75925804D01*
X107343834Y-75980798D01*
X107562000Y-75982000D01*
X108198221Y-76038335D01*
X108552092Y-76179064D01*
X108578000Y-76236000D01*
X108790737Y-76442371D01*
X109086000Y-76490000D01*
X109498741Y-76596369D01*
X109594000Y-76744000D01*
X109819336Y-76903056D01*
X110382254Y-76991524D01*
X110610000Y-76998000D01*
X111246221Y-76941666D01*
G36*
X142578094Y-90112743D02*
X142602700Y-90291681D01*
X142661986Y-90367573D01*
X142663043Y-90367592D01*
X142738409Y-90298786D01*
X142747993Y-90240167D01*
X142815993Y-90127543D01*
X142875418Y-90112743D01*
X142964020Y-90168853D01*
X143000530Y-90354852D01*
X143002843Y-90452542D01*
X142981801Y-90688815D01*
X142912052Y-90786174D01*
X142875418Y-90792341D01*
X142762794Y-90860341D01*
X142747993Y-90919766D01*
X142798022Y-91003753D01*
X142968130Y-91042010D01*
X143130267Y-91047191D01*
X143382229Y-91030515D01*
X143496998Y-90973812D01*
X143512542Y-90919766D01*
X143444542Y-90807142D01*
X143385117Y-90792341D01*
X143296515Y-90736231D01*
X143260005Y-90550232D01*
X143257692Y-90452542D01*
X143278733Y-90216269D01*
X143348483Y-90118910D01*
X143385117Y-90112743D01*
X143497741Y-90180742D01*
X143512542Y-90240167D01*
X143558412Y-90353216D01*
X143597492Y-90367592D01*
X143657138Y-90293773D01*
X143682435Y-90115913D01*
X143682441Y-90112743D01*
X143682441Y-89857893D01*
X142578094Y-89857893D01*
X142578094Y-90112743D01*
X142578094Y-90112743D01*
G37*
X142578094Y-90112743D02*
X142602700Y-90291681D01*
X142661986Y-90367573D01*
X142663043Y-90367592D01*
X142738409Y-90298786D01*
X142747993Y-90240167D01*
X142815993Y-90127543D01*
X142875418Y-90112743D01*
X142964020Y-90168853D01*
X143000530Y-90354852D01*
X143002843Y-90452542D01*
X142981801Y-90688815D01*
X142912052Y-90786174D01*
X142875418Y-90792341D01*
X142762794Y-90860341D01*
X142747993Y-90919766D01*
X142798022Y-91003753D01*
X142968130Y-91042010D01*
X143130267Y-91047191D01*
X143382229Y-91030515D01*
X143496998Y-90973812D01*
X143512542Y-90919766D01*
X143444542Y-90807142D01*
X143385117Y-90792341D01*
X143296515Y-90736231D01*
X143260005Y-90550232D01*
X143257692Y-90452542D01*
X143278733Y-90216269D01*
X143348483Y-90118910D01*
X143385117Y-90112743D01*
X143497741Y-90180742D01*
X143512542Y-90240167D01*
X143558412Y-90353216D01*
X143597492Y-90367592D01*
X143657138Y-90293773D01*
X143682435Y-90115913D01*
X143682441Y-90112743D01*
X143682441Y-89857893D01*
X142578094Y-89857893D01*
X142578094Y-90112743D01*
G36*
X141348401Y-89871112D02*
X141293543Y-89935228D01*
X141268344Y-90086929D01*
X141261526Y-90362901D01*
X141261371Y-90452542D01*
X141265109Y-90763703D01*
X141284258Y-90941845D01*
X141330726Y-91023815D01*
X141416416Y-91046457D01*
X141453512Y-91047191D01*
X141571904Y-91031428D01*
X141617878Y-90953559D01*
X141610088Y-90767711D01*
X141600320Y-90686154D01*
X141578090Y-90475457D01*
X141588534Y-90414151D01*
X141637544Y-90483852D01*
X141654773Y-90516254D01*
X141766531Y-90661710D01*
X141856020Y-90707391D01*
X141968461Y-90639911D01*
X142057267Y-90516254D01*
X142115918Y-90419195D01*
X142134656Y-90448941D01*
X142119373Y-90623877D01*
X142111719Y-90686154D01*
X142091708Y-90912333D01*
X142119996Y-91017092D01*
X142215236Y-91046301D01*
X142258528Y-91047191D01*
X142359069Y-91035623D01*
X142416630Y-90976358D01*
X142443116Y-90832548D01*
X142450432Y-90567350D01*
X142450669Y-90452542D01*
X142446604Y-90140959D01*
X142426892Y-89962533D01*
X142380251Y-89880574D01*
X142295402Y-89858397D01*
X142267842Y-89857893D01*
X142099747Y-89926708D01*
X141996174Y-90112743D01*
X141920488Y-90288824D01*
X141858462Y-90367326D01*
X141856020Y-90367592D01*
X141795803Y-90296554D01*
X141719987Y-90124410D01*
X141715866Y-90112743D01*
X141596474Y-89911868D01*
X141444198Y-89857893D01*
X141348401Y-89871112D01*
X141348401Y-89871112D01*
G37*
X141348401Y-89871112D02*
X141293543Y-89935228D01*
X141268344Y-90086929D01*
X141261526Y-90362901D01*
X141261371Y-90452542D01*
X141265109Y-90763703D01*
X141284258Y-90941845D01*
X141330726Y-91023815D01*
X141416416Y-91046457D01*
X141453512Y-91047191D01*
X141571904Y-91031428D01*
X141617878Y-90953559D01*
X141610088Y-90767711D01*
X141600320Y-90686154D01*
X141578090Y-90475457D01*
X141588534Y-90414151D01*
X141637544Y-90483852D01*
X141654773Y-90516254D01*
X141766531Y-90661710D01*
X141856020Y-90707391D01*
X141968461Y-90639911D01*
X142057267Y-90516254D01*
X142115918Y-90419195D01*
X142134656Y-90448941D01*
X142119373Y-90623877D01*
X142111719Y-90686154D01*
X142091708Y-90912333D01*
X142119996Y-91017092D01*
X142215236Y-91046301D01*
X142258528Y-91047191D01*
X142359069Y-91035623D01*
X142416630Y-90976358D01*
X142443116Y-90832548D01*
X142450432Y-90567350D01*
X142450669Y-90452542D01*
X142446604Y-90140959D01*
X142426892Y-89962533D01*
X142380251Y-89880574D01*
X142295402Y-89858397D01*
X142267842Y-89857893D01*
X142099747Y-89926708D01*
X141996174Y-90112743D01*
X141920488Y-90288824D01*
X141858462Y-90367326D01*
X141856020Y-90367592D01*
X141795803Y-90296554D01*
X141719987Y-90124410D01*
X141715866Y-90112743D01*
X141596474Y-89911868D01*
X141444198Y-89857893D01*
X141348401Y-89871112D01*
G36*
X140233469Y-89869754D02*
X140137311Y-89925507D01*
X140114625Y-90055411D01*
X140114548Y-90070268D01*
X140151949Y-90239776D01*
X140240381Y-90279115D01*
X140326923Y-90197692D01*
X140461988Y-90115023D01*
X140646831Y-90126345D01*
X140799752Y-90218040D01*
X140836622Y-90282642D01*
X140861309Y-90542173D01*
X140763986Y-90720747D01*
X140562901Y-90785796D01*
X140554810Y-90785635D01*
X140425031Y-90768301D01*
X140433110Y-90736081D01*
X140544122Y-90640958D01*
X140517599Y-90535685D01*
X140377419Y-90463145D01*
X140275239Y-90452542D01*
X140095535Y-90466424D01*
X140043694Y-90539466D01*
X140069599Y-90685303D01*
X140145731Y-90878667D01*
X140227471Y-90981327D01*
X140462404Y-91045066D01*
X140736018Y-91007316D01*
X140960873Y-90880427D01*
X140964047Y-90877291D01*
X141117842Y-90626138D01*
X141128884Y-90360923D01*
X141016206Y-90119463D01*
X140798838Y-89939578D01*
X140495814Y-89859085D01*
X140451038Y-89857893D01*
X140233469Y-89869754D01*
X140233469Y-89869754D01*
G37*
X140233469Y-89869754D02*
X140137311Y-89925507D01*
X140114625Y-90055411D01*
X140114548Y-90070268D01*
X140151949Y-90239776D01*
X140240381Y-90279115D01*
X140326923Y-90197692D01*
X140461988Y-90115023D01*
X140646831Y-90126345D01*
X140799752Y-90218040D01*
X140836622Y-90282642D01*
X140861309Y-90542173D01*
X140763986Y-90720747D01*
X140562901Y-90785796D01*
X140554810Y-90785635D01*
X140425031Y-90768301D01*
X140433110Y-90736081D01*
X140544122Y-90640958D01*
X140517599Y-90535685D01*
X140377419Y-90463145D01*
X140275239Y-90452542D01*
X140095535Y-90466424D01*
X140043694Y-90539466D01*
X140069599Y-90685303D01*
X140145731Y-90878667D01*
X140227471Y-90981327D01*
X140462404Y-91045066D01*
X140736018Y-91007316D01*
X140960873Y-90880427D01*
X140964047Y-90877291D01*
X141117842Y-90626138D01*
X141128884Y-90360923D01*
X141016206Y-90119463D01*
X140798838Y-89939578D01*
X140495814Y-89859085D01*
X140451038Y-89857893D01*
X140233469Y-89869754D01*
G36*
X139236010Y-81631361D02*
X138578530Y-81706652D01*
X137972925Y-81867136D01*
X137366515Y-82123222D01*
X137275452Y-82168879D01*
X136777942Y-82434884D01*
X136396988Y-82675511D01*
X136090748Y-82926819D01*
X135817374Y-83224870D01*
X135535024Y-83605725D01*
X135430901Y-83758469D01*
X135168390Y-84155741D01*
X134985403Y-84458139D01*
X134862586Y-84708955D01*
X134780586Y-84951478D01*
X134720048Y-85228999D01*
X134687383Y-85421571D01*
X134661747Y-86110404D01*
X134801906Y-86812022D01*
X135105014Y-87518546D01*
X135568228Y-88222097D01*
X135800165Y-88503743D01*
X136342757Y-89036766D01*
X136903291Y-89415868D01*
X137470777Y-89634032D01*
X137616844Y-89663324D01*
X137809475Y-89702615D01*
X137903913Y-89737638D01*
X137905853Y-89741583D01*
X137852758Y-89817399D01*
X137735953Y-89942843D01*
X137598021Y-90176962D01*
X137570707Y-90451393D01*
X137639382Y-90718597D01*
X137789419Y-90931033D01*
X138006191Y-91041161D01*
X138075752Y-91047191D01*
X138308035Y-90970241D01*
X138488585Y-90770081D01*
X138580575Y-90492746D01*
X138585451Y-90410067D01*
X138561112Y-90289746D01*
X138307910Y-90289746D01*
X138303074Y-90546439D01*
X138294179Y-90586098D01*
X138189843Y-90756656D01*
X138075752Y-90792341D01*
X137918816Y-90716200D01*
X137857326Y-90586098D01*
X137838525Y-90323504D01*
X137909133Y-90122230D01*
X138050697Y-90029442D01*
X138075752Y-90027793D01*
X138225985Y-90101142D01*
X138307910Y-90289746D01*
X138561112Y-90289746D01*
X138524254Y-90107539D01*
X138415552Y-89942843D01*
X138326825Y-89847335D01*
X138323871Y-89796909D01*
X138433368Y-89777555D01*
X138681993Y-89775259D01*
X138734114Y-89775526D01*
X138999992Y-89783659D01*
X139114172Y-89807500D01*
X139094493Y-89851731D01*
X139073913Y-89864697D01*
X138942881Y-90020817D01*
X138964338Y-90242238D01*
X139137347Y-90521282D01*
X139157022Y-90545052D01*
X139388794Y-90820496D01*
X139157022Y-90762325D01*
X138989641Y-90739752D01*
X138929969Y-90807161D01*
X138925251Y-90875673D01*
X138947144Y-90978475D01*
X139040740Y-91029751D01*
X139247908Y-91046409D01*
X139350000Y-91047191D01*
X139633661Y-91028800D01*
X139763306Y-90971527D01*
X139774749Y-90936430D01*
X139717739Y-90816150D01*
X139572943Y-90635970D01*
X139477425Y-90537492D01*
X139302618Y-90344935D01*
X139195723Y-90182612D01*
X139180100Y-90129099D01*
X139222703Y-90053356D01*
X139374186Y-90048021D01*
X139477425Y-90064663D01*
X139689891Y-90076357D01*
X139776323Y-90024077D01*
X139719130Y-89928523D01*
X139638543Y-89875060D01*
X139628297Y-89829747D01*
X139773600Y-89788960D01*
X140080755Y-89751181D01*
X140194816Y-89741085D01*
X140838106Y-89648237D01*
X141494748Y-89484774D01*
X142100909Y-89269364D01*
X142531851Y-89057569D01*
X142899368Y-88780379D01*
X143271362Y-88396126D01*
X143486865Y-88112377D01*
X143190923Y-88112377D01*
X143144898Y-88280550D01*
X142966488Y-88472626D01*
X142701413Y-88671420D01*
X142224063Y-88969437D01*
X141753090Y-89191725D01*
X141251923Y-89347662D01*
X140683990Y-89446624D01*
X140012723Y-89497987D01*
X139427301Y-89510869D01*
X138856516Y-89508197D01*
X138409624Y-89490023D01*
X138041016Y-89452440D01*
X137705083Y-89391542D01*
X137521410Y-89347639D01*
X137178567Y-89250199D01*
X136878337Y-89147604D01*
X136677065Y-89059454D01*
X136655270Y-89046357D01*
X136455601Y-88915529D01*
X136628553Y-88695656D01*
X136752121Y-88474080D01*
X136801505Y-88262302D01*
X136807265Y-88134687D01*
X136842554Y-88125599D01*
X136934384Y-88244548D01*
X136992642Y-88329585D01*
X137301772Y-88696400D01*
X137681872Y-88971677D01*
X138170871Y-89179270D01*
X138488662Y-89270387D01*
X139062499Y-89373646D01*
X139686211Y-89415092D01*
X140317212Y-89397870D01*
X140912914Y-89325126D01*
X141430730Y-89200007D01*
X141828072Y-89025658D01*
X141831695Y-89023429D01*
X142084054Y-88833439D01*
X142373810Y-88566124D01*
X142648413Y-88274714D01*
X142855312Y-88012438D01*
X142899539Y-87941772D01*
X142976036Y-87827721D01*
X143042836Y-87849570D01*
X143117630Y-87945314D01*
X143190923Y-88112377D01*
X143486865Y-88112377D01*
X143602465Y-87960170D01*
X143847308Y-87527869D01*
X143907129Y-87379423D01*
X143984495Y-87105463D01*
X143991087Y-87061786D01*
X142663043Y-87061786D01*
X142655374Y-87176656D01*
X142611265Y-87171468D01*
X142499066Y-87038873D01*
X142484463Y-87020333D01*
X142344342Y-86873964D01*
X142238009Y-86859044D01*
X142187139Y-86891853D01*
X142089163Y-86999703D01*
X142092736Y-87114809D01*
X142204741Y-87289150D01*
X142246975Y-87343614D01*
X142382444Y-87489407D01*
X142483943Y-87508408D01*
X142556553Y-87461924D01*
X142644598Y-87404221D01*
X142649399Y-87469812D01*
X142622460Y-87564914D01*
X142471455Y-87863107D01*
X142215668Y-88184512D01*
X141902618Y-88477037D01*
X141612751Y-88671739D01*
X141371150Y-88777856D01*
X141200914Y-88812444D01*
X141128885Y-88776916D01*
X141181904Y-88672685D01*
X141203322Y-88650190D01*
X141293176Y-88496775D01*
X141303846Y-88434724D01*
X141340242Y-88305824D01*
X140782166Y-88305824D01*
X140732614Y-88396335D01*
X140629375Y-88413746D01*
X140488574Y-88379107D01*
X140454348Y-88328796D01*
X140385542Y-88253430D01*
X140326923Y-88243846D01*
X140223061Y-88197613D01*
X140226704Y-88087370D01*
X140313135Y-87955800D01*
X140457637Y-87845588D01*
X140581772Y-87803734D01*
X140697348Y-87814565D01*
X140755468Y-87923294D01*
X140778038Y-88095184D01*
X140782166Y-88305824D01*
X141340242Y-88305824D01*
X141345361Y-88287698D01*
X141446956Y-88106464D01*
X141574203Y-87936699D01*
X141692675Y-87824078D01*
X141767945Y-87814278D01*
X141769625Y-87816759D01*
X141864824Y-87858657D01*
X141977451Y-87787464D01*
X142016154Y-87718440D01*
X141300445Y-87718440D01*
X141297044Y-87946522D01*
X141176684Y-87725081D01*
X140948746Y-87442353D01*
X140657311Y-87278814D01*
X140346020Y-87258862D01*
X140343608Y-87259339D01*
X140021163Y-87380857D01*
X139835197Y-87598129D01*
X139772057Y-87927375D01*
X139771923Y-87938451D01*
X139769097Y-88286321D01*
X139602023Y-88085773D01*
X139482257Y-87907291D01*
X139434950Y-87771208D01*
X139506964Y-87467217D01*
X139723874Y-87247198D01*
X140086983Y-87110408D01*
X140597594Y-87056104D01*
X140690062Y-87055022D01*
X140957543Y-87063553D01*
X141106584Y-87103826D01*
X141188303Y-87196775D01*
X141220999Y-87272453D01*
X141284964Y-87532199D01*
X141300445Y-87718440D01*
X142016154Y-87718440D01*
X142056902Y-87645770D01*
X142068395Y-87565302D01*
X142013267Y-87369781D01*
X141879218Y-87177898D01*
X141713249Y-87041120D01*
X141562362Y-87010910D01*
X141562152Y-87010977D01*
X141389498Y-86992423D01*
X141305438Y-86929042D01*
X141156806Y-86844678D01*
X140875671Y-86804824D01*
X140677558Y-86800173D01*
X140161999Y-86826372D01*
X139782677Y-86910212D01*
X139512896Y-87061173D01*
X139332217Y-87277986D01*
X139157008Y-87574943D01*
X138902089Y-87265683D01*
X138741262Y-87083703D01*
X138638724Y-87019462D01*
X138552685Y-87053403D01*
X138517765Y-87085828D01*
X138448676Y-87181393D01*
X138463680Y-87288538D01*
X138574924Y-87459201D01*
X138618653Y-87517166D01*
X138789669Y-87724436D01*
X138907389Y-87805476D01*
X139010292Y-87777032D01*
X139078160Y-87717157D01*
X139151594Y-87678470D01*
X139178624Y-87780217D01*
X139180100Y-87848638D01*
X139253852Y-88089253D01*
X139442207Y-88323001D01*
X139695814Y-88498468D01*
X139857202Y-88554067D01*
X140071777Y-88637785D01*
X140301704Y-88781984D01*
X140316480Y-88793606D01*
X140560887Y-88989517D01*
X139891731Y-88992618D01*
X139473671Y-88976923D01*
X139032496Y-88932854D01*
X138680250Y-88873214D01*
X138206827Y-88748552D01*
X137863612Y-88609063D01*
X137611069Y-88432615D01*
X137409662Y-88197079D01*
X137372030Y-88140921D01*
X137184478Y-87697964D01*
X137144235Y-87183785D01*
X137251777Y-86612643D01*
X137314670Y-86427662D01*
X137469031Y-86064720D01*
X137642732Y-85790259D01*
X137872579Y-85567294D01*
X138195378Y-85358835D01*
X138571087Y-85165058D01*
X139073394Y-84950330D01*
X139526711Y-84833865D01*
X139989183Y-84809376D01*
X140518956Y-84870575D01*
X140795438Y-84924530D01*
X141079575Y-84996892D01*
X141302981Y-85094248D01*
X141504560Y-85245754D01*
X141723213Y-85480565D01*
X141993978Y-85822776D01*
X142330183Y-86290814D01*
X142546511Y-86660853D01*
X142650646Y-86947120D01*
X142663043Y-87061786D01*
X143991087Y-87061786D01*
X144031650Y-86793036D01*
X144053316Y-86396568D01*
X144055127Y-85950201D01*
X144049639Y-85759064D01*
X143849315Y-85759064D01*
X143829448Y-85954740D01*
X143746035Y-86029239D01*
X143683782Y-86035151D01*
X143517210Y-86089436D01*
X143306936Y-86224955D01*
X143242835Y-86278528D01*
X142970449Y-86521906D01*
X142777681Y-86257291D01*
X142602140Y-85996299D01*
X142430279Y-85711509D01*
X142414555Y-85683283D01*
X142160489Y-85331033D01*
X141814604Y-84995802D01*
X141427830Y-84718241D01*
X141051096Y-84539001D01*
X140944324Y-84509760D01*
X140674604Y-84457504D01*
X140588795Y-84444771D01*
X139005549Y-84444771D01*
X138951034Y-84501464D01*
X138780448Y-84596364D01*
X138476242Y-84746522D01*
X138437727Y-84765267D01*
X137940076Y-85045539D01*
X137541325Y-85347246D01*
X137422183Y-85464578D01*
X137180656Y-85786726D01*
X136965474Y-86180220D01*
X136803481Y-86585463D01*
X136721523Y-86942855D01*
X136716555Y-87031154D01*
X136716555Y-87256235D01*
X136456784Y-87007358D01*
X136288422Y-86865951D01*
X136119276Y-86790812D01*
X135885575Y-86761692D01*
X135670998Y-86757853D01*
X135345616Y-86743806D01*
X135158944Y-86698340D01*
X135087241Y-86629799D01*
X135060427Y-86490545D01*
X135038707Y-86229002D01*
X135025554Y-85892773D01*
X135023529Y-85756075D01*
X135022273Y-85400454D01*
X135030669Y-85186027D01*
X135056506Y-85084100D01*
X135107573Y-85065975D01*
X135191658Y-85102959D01*
X135199641Y-85107223D01*
X135392019Y-85157720D01*
X135674982Y-85174423D01*
X135830637Y-85167443D01*
X136316153Y-85048339D01*
X136717020Y-84785276D01*
X137017440Y-84389615D01*
X137074318Y-84272854D01*
X137174704Y-84007971D01*
X137197115Y-83791589D01*
X137150293Y-83526105D01*
X137143637Y-83499092D01*
X137058631Y-83219464D01*
X136961191Y-82983105D01*
X136926502Y-82920977D01*
X136856072Y-82774923D01*
X136910533Y-82675461D01*
X136995751Y-82614694D01*
X137225281Y-82476820D01*
X137482229Y-82340044D01*
X137720782Y-82226448D01*
X137895123Y-82158113D01*
X137957749Y-82151038D01*
X137935706Y-82233924D01*
X137834425Y-82388086D01*
X137822093Y-82403976D01*
X137686778Y-82689448D01*
X137651003Y-83028023D01*
X137660207Y-83247256D01*
X137705741Y-83413132D01*
X137814484Y-83575658D01*
X138013319Y-83784842D01*
X138106881Y-83876118D01*
X138398816Y-84128683D01*
X138668746Y-84308449D01*
X138836570Y-84377809D01*
X138961544Y-84409236D01*
X139005549Y-84444771D01*
X140588795Y-84444771D01*
X140459976Y-84425656D01*
X140396235Y-84421104D01*
X140343608Y-84388673D01*
X140435203Y-84285990D01*
X140487736Y-84243174D01*
X140755084Y-83944913D01*
X140953701Y-83556461D01*
X141046419Y-83154568D01*
X141048997Y-83084193D01*
X141016134Y-82813932D01*
X140974255Y-82717382D01*
X140195185Y-82717382D01*
X140123417Y-83006790D01*
X139985693Y-83319580D01*
X139822977Y-83593539D01*
X139666809Y-83717304D01*
X139477741Y-83704239D01*
X139229366Y-83575803D01*
X139016876Y-83393947D01*
X138815434Y-83143444D01*
X138767917Y-83066104D01*
X138654845Y-82857435D01*
X138623720Y-82756732D01*
X138671742Y-82724706D01*
X138743398Y-82722107D01*
X138913512Y-82774706D01*
X139126866Y-82905452D01*
X139182866Y-82949845D01*
X139453517Y-83177583D01*
X139612729Y-82971082D01*
X139745404Y-82771878D01*
X139821545Y-82615920D01*
X139937409Y-82491623D01*
X140035323Y-82467258D01*
X140166121Y-82532372D01*
X140195185Y-82717382D01*
X140974255Y-82717382D01*
X140902445Y-82551831D01*
X140685277Y-82253195D01*
X140547507Y-82094703D01*
X140326923Y-81849573D01*
X140581772Y-81908899D01*
X140803371Y-81977890D01*
X141098011Y-82091155D01*
X141291873Y-82174808D01*
X141548393Y-82301795D01*
X141672463Y-82398571D01*
X141692044Y-82490909D01*
X141677757Y-82530512D01*
X141619822Y-82795529D01*
X141627616Y-83158919D01*
X141699048Y-83563277D01*
X141718025Y-83634293D01*
X141884332Y-83964040D01*
X142151771Y-84217476D01*
X142479329Y-84376823D01*
X142825992Y-84424306D01*
X143150749Y-84342148D01*
X143234741Y-84291698D01*
X143377376Y-84211324D01*
X143462981Y-84254387D01*
X143519744Y-84349612D01*
X143615940Y-84591717D01*
X143712592Y-84933257D01*
X143793418Y-85304593D01*
X143842134Y-85636088D01*
X143849315Y-85759064D01*
X144049639Y-85759064D01*
X144039611Y-85409840D01*
X143994820Y-84986207D01*
X143905241Y-84626687D01*
X143755364Y-84278667D01*
X143529678Y-83889533D01*
X143378671Y-83655683D01*
X142828207Y-82970823D01*
X142152868Y-82386516D01*
X141421595Y-81946457D01*
X141129038Y-81811375D01*
X140876436Y-81724441D01*
X140605083Y-81672639D01*
X140256275Y-81642955D01*
X139998043Y-81630852D01*
X139236010Y-81631361D01*
X139236010Y-81631361D01*
G37*
X139236010Y-81631361D02*
X138578530Y-81706652D01*
X137972925Y-81867136D01*
X137366515Y-82123222D01*
X137275452Y-82168879D01*
X136777942Y-82434884D01*
X136396988Y-82675511D01*
X136090748Y-82926819D01*
X135817374Y-83224870D01*
X135535024Y-83605725D01*
X135430901Y-83758469D01*
X135168390Y-84155741D01*
X134985403Y-84458139D01*
X134862586Y-84708955D01*
X134780586Y-84951478D01*
X134720048Y-85228999D01*
X134687383Y-85421571D01*
X134661747Y-86110404D01*
X134801906Y-86812022D01*
X135105014Y-87518546D01*
X135568228Y-88222097D01*
X135800165Y-88503743D01*
X136342757Y-89036766D01*
X136903291Y-89415868D01*
X137470777Y-89634032D01*
X137616844Y-89663324D01*
X137809475Y-89702615D01*
X137903913Y-89737638D01*
X137905853Y-89741583D01*
X137852758Y-89817399D01*
X137735953Y-89942843D01*
X137598021Y-90176962D01*
X137570707Y-90451393D01*
X137639382Y-90718597D01*
X137789419Y-90931033D01*
X138006191Y-91041161D01*
X138075752Y-91047191D01*
X138308035Y-90970241D01*
X138488585Y-90770081D01*
X138580575Y-90492746D01*
X138585451Y-90410067D01*
X138561112Y-90289746D01*
X138307910Y-90289746D01*
X138303074Y-90546439D01*
X138294179Y-90586098D01*
X138189843Y-90756656D01*
X138075752Y-90792341D01*
X137918816Y-90716200D01*
X137857326Y-90586098D01*
X137838525Y-90323504D01*
X137909133Y-90122230D01*
X138050697Y-90029442D01*
X138075752Y-90027793D01*
X138225985Y-90101142D01*
X138307910Y-90289746D01*
X138561112Y-90289746D01*
X138524254Y-90107539D01*
X138415552Y-89942843D01*
X138326825Y-89847335D01*
X138323871Y-89796909D01*
X138433368Y-89777555D01*
X138681993Y-89775259D01*
X138734114Y-89775526D01*
X138999992Y-89783659D01*
X139114172Y-89807500D01*
X139094493Y-89851731D01*
X139073913Y-89864697D01*
X138942881Y-90020817D01*
X138964338Y-90242238D01*
X139137347Y-90521282D01*
X139157022Y-90545052D01*
X139388794Y-90820496D01*
X139157022Y-90762325D01*
X138989641Y-90739752D01*
X138929969Y-90807161D01*
X138925251Y-90875673D01*
X138947144Y-90978475D01*
X139040740Y-91029751D01*
X139247908Y-91046409D01*
X139350000Y-91047191D01*
X139633661Y-91028800D01*
X139763306Y-90971527D01*
X139774749Y-90936430D01*
X139717739Y-90816150D01*
X139572943Y-90635970D01*
X139477425Y-90537492D01*
X139302618Y-90344935D01*
X139195723Y-90182612D01*
X139180100Y-90129099D01*
X139222703Y-90053356D01*
X139374186Y-90048021D01*
X139477425Y-90064663D01*
X139689891Y-90076357D01*
X139776323Y-90024077D01*
X139719130Y-89928523D01*
X139638543Y-89875060D01*
X139628297Y-89829747D01*
X139773600Y-89788960D01*
X140080755Y-89751181D01*
X140194816Y-89741085D01*
X140838106Y-89648237D01*
X141494748Y-89484774D01*
X142100909Y-89269364D01*
X142531851Y-89057569D01*
X142899368Y-88780379D01*
X143271362Y-88396126D01*
X143486865Y-88112377D01*
X143190923Y-88112377D01*
X143144898Y-88280550D01*
X142966488Y-88472626D01*
X142701413Y-88671420D01*
X142224063Y-88969437D01*
X141753090Y-89191725D01*
X141251923Y-89347662D01*
X140683990Y-89446624D01*
X140012723Y-89497987D01*
X139427301Y-89510869D01*
X138856516Y-89508197D01*
X138409624Y-89490023D01*
X138041016Y-89452440D01*
X137705083Y-89391542D01*
X137521410Y-89347639D01*
X137178567Y-89250199D01*
X136878337Y-89147604D01*
X136677065Y-89059454D01*
X136655270Y-89046357D01*
X136455601Y-88915529D01*
X136628553Y-88695656D01*
X136752121Y-88474080D01*
X136801505Y-88262302D01*
X136807265Y-88134687D01*
X136842554Y-88125599D01*
X136934384Y-88244548D01*
X136992642Y-88329585D01*
X137301772Y-88696400D01*
X137681872Y-88971677D01*
X138170871Y-89179270D01*
X138488662Y-89270387D01*
X139062499Y-89373646D01*
X139686211Y-89415092D01*
X140317212Y-89397870D01*
X140912914Y-89325126D01*
X141430730Y-89200007D01*
X141828072Y-89025658D01*
X141831695Y-89023429D01*
X142084054Y-88833439D01*
X142373810Y-88566124D01*
X142648413Y-88274714D01*
X142855312Y-88012438D01*
X142899539Y-87941772D01*
X142976036Y-87827721D01*
X143042836Y-87849570D01*
X143117630Y-87945314D01*
X143190923Y-88112377D01*
X143486865Y-88112377D01*
X143602465Y-87960170D01*
X143847308Y-87527869D01*
X143907129Y-87379423D01*
X143984495Y-87105463D01*
X143991087Y-87061786D01*
X142663043Y-87061786D01*
X142655374Y-87176656D01*
X142611265Y-87171468D01*
X142499066Y-87038873D01*
X142484463Y-87020333D01*
X142344342Y-86873964D01*
X142238009Y-86859044D01*
X142187139Y-86891853D01*
X142089163Y-86999703D01*
X142092736Y-87114809D01*
X142204741Y-87289150D01*
X142246975Y-87343614D01*
X142382444Y-87489407D01*
X142483943Y-87508408D01*
X142556553Y-87461924D01*
X142644598Y-87404221D01*
X142649399Y-87469812D01*
X142622460Y-87564914D01*
X142471455Y-87863107D01*
X142215668Y-88184512D01*
X141902618Y-88477037D01*
X141612751Y-88671739D01*
X141371150Y-88777856D01*
X141200914Y-88812444D01*
X141128885Y-88776916D01*
X141181904Y-88672685D01*
X141203322Y-88650190D01*
X141293176Y-88496775D01*
X141303846Y-88434724D01*
X141340242Y-88305824D01*
X140782166Y-88305824D01*
X140732614Y-88396335D01*
X140629375Y-88413746D01*
X140488574Y-88379107D01*
X140454348Y-88328796D01*
X140385542Y-88253430D01*
X140326923Y-88243846D01*
X140223061Y-88197613D01*
X140226704Y-88087370D01*
X140313135Y-87955800D01*
X140457637Y-87845588D01*
X140581772Y-87803734D01*
X140697348Y-87814565D01*
X140755468Y-87923294D01*
X140778038Y-88095184D01*
X140782166Y-88305824D01*
X141340242Y-88305824D01*
X141345361Y-88287698D01*
X141446956Y-88106464D01*
X141574203Y-87936699D01*
X141692675Y-87824078D01*
X141767945Y-87814278D01*
X141769625Y-87816759D01*
X141864824Y-87858657D01*
X141977451Y-87787464D01*
X142016154Y-87718440D01*
X141300445Y-87718440D01*
X141297044Y-87946522D01*
X141176684Y-87725081D01*
X140948746Y-87442353D01*
X140657311Y-87278814D01*
X140346020Y-87258862D01*
X140343608Y-87259339D01*
X140021163Y-87380857D01*
X139835197Y-87598129D01*
X139772057Y-87927375D01*
X139771923Y-87938451D01*
X139769097Y-88286321D01*
X139602023Y-88085773D01*
X139482257Y-87907291D01*
X139434950Y-87771208D01*
X139506964Y-87467217D01*
X139723874Y-87247198D01*
X140086983Y-87110408D01*
X140597594Y-87056104D01*
X140690062Y-87055022D01*
X140957543Y-87063553D01*
X141106584Y-87103826D01*
X141188303Y-87196775D01*
X141220999Y-87272453D01*
X141284964Y-87532199D01*
X141300445Y-87718440D01*
X142016154Y-87718440D01*
X142056902Y-87645770D01*
X142068395Y-87565302D01*
X142013267Y-87369781D01*
X141879218Y-87177898D01*
X141713249Y-87041120D01*
X141562362Y-87010910D01*
X141562152Y-87010977D01*
X141389498Y-86992423D01*
X141305438Y-86929042D01*
X141156806Y-86844678D01*
X140875671Y-86804824D01*
X140677558Y-86800173D01*
X140161999Y-86826372D01*
X139782677Y-86910212D01*
X139512896Y-87061173D01*
X139332217Y-87277986D01*
X139157008Y-87574943D01*
X138902089Y-87265683D01*
X138741262Y-87083703D01*
X138638724Y-87019462D01*
X138552685Y-87053403D01*
X138517765Y-87085828D01*
X138448676Y-87181393D01*
X138463680Y-87288538D01*
X138574924Y-87459201D01*
X138618653Y-87517166D01*
X138789669Y-87724436D01*
X138907389Y-87805476D01*
X139010292Y-87777032D01*
X139078160Y-87717157D01*
X139151594Y-87678470D01*
X139178624Y-87780217D01*
X139180100Y-87848638D01*
X139253852Y-88089253D01*
X139442207Y-88323001D01*
X139695814Y-88498468D01*
X139857202Y-88554067D01*
X140071777Y-88637785D01*
X140301704Y-88781984D01*
X140316480Y-88793606D01*
X140560887Y-88989517D01*
X139891731Y-88992618D01*
X139473671Y-88976923D01*
X139032496Y-88932854D01*
X138680250Y-88873214D01*
X138206827Y-88748552D01*
X137863612Y-88609063D01*
X137611069Y-88432615D01*
X137409662Y-88197079D01*
X137372030Y-88140921D01*
X137184478Y-87697964D01*
X137144235Y-87183785D01*
X137251777Y-86612643D01*
X137314670Y-86427662D01*
X137469031Y-86064720D01*
X137642732Y-85790259D01*
X137872579Y-85567294D01*
X138195378Y-85358835D01*
X138571087Y-85165058D01*
X139073394Y-84950330D01*
X139526711Y-84833865D01*
X139989183Y-84809376D01*
X140518956Y-84870575D01*
X140795438Y-84924530D01*
X141079575Y-84996892D01*
X141302981Y-85094248D01*
X141504560Y-85245754D01*
X141723213Y-85480565D01*
X141993978Y-85822776D01*
X142330183Y-86290814D01*
X142546511Y-86660853D01*
X142650646Y-86947120D01*
X142663043Y-87061786D01*
X143991087Y-87061786D01*
X144031650Y-86793036D01*
X144053316Y-86396568D01*
X144055127Y-85950201D01*
X144049639Y-85759064D01*
X143849315Y-85759064D01*
X143829448Y-85954740D01*
X143746035Y-86029239D01*
X143683782Y-86035151D01*
X143517210Y-86089436D01*
X143306936Y-86224955D01*
X143242835Y-86278528D01*
X142970449Y-86521906D01*
X142777681Y-86257291D01*
X142602140Y-85996299D01*
X142430279Y-85711509D01*
X142414555Y-85683283D01*
X142160489Y-85331033D01*
X141814604Y-84995802D01*
X141427830Y-84718241D01*
X141051096Y-84539001D01*
X140944324Y-84509760D01*
X140674604Y-84457504D01*
X140588795Y-84444771D01*
X139005549Y-84444771D01*
X138951034Y-84501464D01*
X138780448Y-84596364D01*
X138476242Y-84746522D01*
X138437727Y-84765267D01*
X137940076Y-85045539D01*
X137541325Y-85347246D01*
X137422183Y-85464578D01*
X137180656Y-85786726D01*
X136965474Y-86180220D01*
X136803481Y-86585463D01*
X136721523Y-86942855D01*
X136716555Y-87031154D01*
X136716555Y-87256235D01*
X136456784Y-87007358D01*
X136288422Y-86865951D01*
X136119276Y-86790812D01*
X135885575Y-86761692D01*
X135670998Y-86757853D01*
X135345616Y-86743806D01*
X135158944Y-86698340D01*
X135087241Y-86629799D01*
X135060427Y-86490545D01*
X135038707Y-86229002D01*
X135025554Y-85892773D01*
X135023529Y-85756075D01*
X135022273Y-85400454D01*
X135030669Y-85186027D01*
X135056506Y-85084100D01*
X135107573Y-85065975D01*
X135191658Y-85102959D01*
X135199641Y-85107223D01*
X135392019Y-85157720D01*
X135674982Y-85174423D01*
X135830637Y-85167443D01*
X136316153Y-85048339D01*
X136717020Y-84785276D01*
X137017440Y-84389615D01*
X137074318Y-84272854D01*
X137174704Y-84007971D01*
X137197115Y-83791589D01*
X137150293Y-83526105D01*
X137143637Y-83499092D01*
X137058631Y-83219464D01*
X136961191Y-82983105D01*
X136926502Y-82920977D01*
X136856072Y-82774923D01*
X136910533Y-82675461D01*
X136995751Y-82614694D01*
X137225281Y-82476820D01*
X137482229Y-82340044D01*
X137720782Y-82226448D01*
X137895123Y-82158113D01*
X137957749Y-82151038D01*
X137935706Y-82233924D01*
X137834425Y-82388086D01*
X137822093Y-82403976D01*
X137686778Y-82689448D01*
X137651003Y-83028023D01*
X137660207Y-83247256D01*
X137705741Y-83413132D01*
X137814484Y-83575658D01*
X138013319Y-83784842D01*
X138106881Y-83876118D01*
X138398816Y-84128683D01*
X138668746Y-84308449D01*
X138836570Y-84377809D01*
X138961544Y-84409236D01*
X139005549Y-84444771D01*
X140588795Y-84444771D01*
X140459976Y-84425656D01*
X140396235Y-84421104D01*
X140343608Y-84388673D01*
X140435203Y-84285990D01*
X140487736Y-84243174D01*
X140755084Y-83944913D01*
X140953701Y-83556461D01*
X141046419Y-83154568D01*
X141048997Y-83084193D01*
X141016134Y-82813932D01*
X140974255Y-82717382D01*
X140195185Y-82717382D01*
X140123417Y-83006790D01*
X139985693Y-83319580D01*
X139822977Y-83593539D01*
X139666809Y-83717304D01*
X139477741Y-83704239D01*
X139229366Y-83575803D01*
X139016876Y-83393947D01*
X138815434Y-83143444D01*
X138767917Y-83066104D01*
X138654845Y-82857435D01*
X138623720Y-82756732D01*
X138671742Y-82724706D01*
X138743398Y-82722107D01*
X138913512Y-82774706D01*
X139126866Y-82905452D01*
X139182866Y-82949845D01*
X139453517Y-83177583D01*
X139612729Y-82971082D01*
X139745404Y-82771878D01*
X139821545Y-82615920D01*
X139937409Y-82491623D01*
X140035323Y-82467258D01*
X140166121Y-82532372D01*
X140195185Y-82717382D01*
X140974255Y-82717382D01*
X140902445Y-82551831D01*
X140685277Y-82253195D01*
X140547507Y-82094703D01*
X140326923Y-81849573D01*
X140581772Y-81908899D01*
X140803371Y-81977890D01*
X141098011Y-82091155D01*
X141291873Y-82174808D01*
X141548393Y-82301795D01*
X141672463Y-82398571D01*
X141692044Y-82490909D01*
X141677757Y-82530512D01*
X141619822Y-82795529D01*
X141627616Y-83158919D01*
X141699048Y-83563277D01*
X141718025Y-83634293D01*
X141884332Y-83964040D01*
X142151771Y-84217476D01*
X142479329Y-84376823D01*
X142825992Y-84424306D01*
X143150749Y-84342148D01*
X143234741Y-84291698D01*
X143377376Y-84211324D01*
X143462981Y-84254387D01*
X143519744Y-84349612D01*
X143615940Y-84591717D01*
X143712592Y-84933257D01*
X143793418Y-85304593D01*
X143842134Y-85636088D01*
X143849315Y-85759064D01*
X144049639Y-85759064D01*
X144039611Y-85409840D01*
X143994820Y-84986207D01*
X143905241Y-84626687D01*
X143755364Y-84278667D01*
X143529678Y-83889533D01*
X143378671Y-83655683D01*
X142828207Y-82970823D01*
X142152868Y-82386516D01*
X141421595Y-81946457D01*
X141129038Y-81811375D01*
X140876436Y-81724441D01*
X140605083Y-81672639D01*
X140256275Y-81642955D01*
X139998043Y-81630852D01*
X139236010Y-81631361D01*
G36*
X136589130Y-89842436D02*
X136415049Y-89987640D01*
X136398992Y-90193187D01*
X136540983Y-90459924D01*
X136608527Y-90545052D01*
X136840299Y-90820496D01*
X136608527Y-90762325D01*
X136441146Y-90739752D01*
X136381474Y-90807161D01*
X136376756Y-90875673D01*
X136398649Y-90978475D01*
X136492245Y-91029751D01*
X136699413Y-91046409D01*
X136801505Y-91047191D01*
X137085166Y-91028800D01*
X137214811Y-90971527D01*
X137226254Y-90936430D01*
X137169244Y-90816150D01*
X137024448Y-90635970D01*
X136928930Y-90537492D01*
X136754123Y-90344935D01*
X136647228Y-90182612D01*
X136631605Y-90129099D01*
X136674208Y-90053356D01*
X136825691Y-90048021D01*
X136928930Y-90064663D01*
X137149645Y-90076118D01*
X137226079Y-90018740D01*
X137148528Y-89917915D01*
X137013879Y-89842436D01*
X136775987Y-89789034D01*
X136589130Y-89842436D01*
X136589130Y-89842436D01*
G37*
X136589130Y-89842436D02*
X136415049Y-89987640D01*
X136398992Y-90193187D01*
X136540983Y-90459924D01*
X136608527Y-90545052D01*
X136840299Y-90820496D01*
X136608527Y-90762325D01*
X136441146Y-90739752D01*
X136381474Y-90807161D01*
X136376756Y-90875673D01*
X136398649Y-90978475D01*
X136492245Y-91029751D01*
X136699413Y-91046409D01*
X136801505Y-91047191D01*
X137085166Y-91028800D01*
X137214811Y-90971527D01*
X137226254Y-90936430D01*
X137169244Y-90816150D01*
X137024448Y-90635970D01*
X136928930Y-90537492D01*
X136754123Y-90344935D01*
X136647228Y-90182612D01*
X136631605Y-90129099D01*
X136674208Y-90053356D01*
X136825691Y-90048021D01*
X136928930Y-90064663D01*
X137149645Y-90076118D01*
X137226079Y-90018740D01*
X137148528Y-89917915D01*
X137013879Y-89842436D01*
X136775987Y-89789034D01*
X136589130Y-89842436D01*
G36*
X135294975Y-89849893D02*
X135114425Y-90050053D01*
X135022435Y-90327388D01*
X135017558Y-90410067D01*
X135079118Y-90700420D01*
X135239246Y-90926108D01*
X135461114Y-91041095D01*
X135527257Y-91047191D01*
X135712188Y-90989535D01*
X135867057Y-90877291D01*
X136004988Y-90643172D01*
X136032303Y-90368741D01*
X136012000Y-90289746D01*
X135759415Y-90289746D01*
X135754579Y-90546439D01*
X135745684Y-90586098D01*
X135641348Y-90756656D01*
X135527257Y-90792341D01*
X135370321Y-90716200D01*
X135308831Y-90586098D01*
X135290030Y-90323504D01*
X135360638Y-90122230D01*
X135502202Y-90029442D01*
X135527257Y-90027793D01*
X135677490Y-90101142D01*
X135759415Y-90289746D01*
X136012000Y-90289746D01*
X135963627Y-90101537D01*
X135813590Y-89889101D01*
X135596819Y-89778973D01*
X135527257Y-89772943D01*
X135294975Y-89849893D01*
X135294975Y-89849893D01*
G37*
X135294975Y-89849893D02*
X135114425Y-90050053D01*
X135022435Y-90327388D01*
X135017558Y-90410067D01*
X135079118Y-90700420D01*
X135239246Y-90926108D01*
X135461114Y-91041095D01*
X135527257Y-91047191D01*
X135712188Y-90989535D01*
X135867057Y-90877291D01*
X136004988Y-90643172D01*
X136032303Y-90368741D01*
X136012000Y-90289746D01*
X135759415Y-90289746D01*
X135754579Y-90546439D01*
X135745684Y-90586098D01*
X135641348Y-90756656D01*
X135527257Y-90792341D01*
X135370321Y-90716200D01*
X135308831Y-90586098D01*
X135290030Y-90323504D01*
X135360638Y-90122230D01*
X135502202Y-90029442D01*
X135527257Y-90027793D01*
X135677490Y-90101142D01*
X135759415Y-90289746D01*
X136012000Y-90289746D01*
X135963627Y-90101537D01*
X135813590Y-89889101D01*
X135596819Y-89778973D01*
X135527257Y-89772943D01*
X135294975Y-89849893D01*
G36*
X138010525Y-87083369D02*
X137934435Y-87265996D01*
X137956334Y-87510777D01*
X138063822Y-87750714D01*
X138153337Y-87854907D01*
X138283328Y-87944182D01*
X138376771Y-87906060D01*
X138403336Y-87876291D01*
X138457507Y-87738186D01*
X138420820Y-87525412D01*
X138403191Y-87470636D01*
X138286739Y-87176134D01*
X138181221Y-87035464D01*
X138072267Y-87034452D01*
X138010525Y-87083369D01*
X138010525Y-87083369D01*
G37*
X138010525Y-87083369D02*
X137934435Y-87265996D01*
X137956334Y-87510777D01*
X138063822Y-87750714D01*
X138153337Y-87854907D01*
X138283328Y-87944182D01*
X138376771Y-87906060D01*
X138403336Y-87876291D01*
X138457507Y-87738186D01*
X138420820Y-87525412D01*
X138403191Y-87470636D01*
X138286739Y-87176134D01*
X138181221Y-87035464D01*
X138072267Y-87034452D01*
X138010525Y-87083369D01*
G36*
X137443842Y-87221842D02*
X137426555Y-87234468D01*
X137362102Y-87380805D01*
X137377378Y-87592818D01*
X137452745Y-87806036D01*
X137568565Y-87955990D01*
X137656391Y-87988997D01*
X137758503Y-87926962D01*
X137792532Y-87882810D01*
X137838651Y-87702391D01*
X137800896Y-87500123D01*
X137705213Y-87321967D01*
X137577547Y-87213886D01*
X137443842Y-87221842D01*
X137443842Y-87221842D01*
G37*
X137443842Y-87221842D02*
X137426555Y-87234468D01*
X137362102Y-87380805D01*
X137377378Y-87592818D01*
X137452745Y-87806036D01*
X137568565Y-87955990D01*
X137656391Y-87988997D01*
X137758503Y-87926962D01*
X137792532Y-87882810D01*
X137838651Y-87702391D01*
X137800896Y-87500123D01*
X137705213Y-87321967D01*
X137577547Y-87213886D01*
X137443842Y-87221842D01*
G36*
X138401908Y-86487437D02*
X138200009Y-86558146D01*
X138104217Y-86654174D01*
X138133123Y-86743803D01*
X138254367Y-86782354D01*
X138475877Y-86798550D01*
X138735310Y-86794193D01*
X138970324Y-86771087D01*
X139118576Y-86731036D01*
X139137625Y-86714749D01*
X139155700Y-86579036D01*
X139014853Y-86493452D01*
X138719175Y-86460256D01*
X138675789Y-86459900D01*
X138401908Y-86487437D01*
X138401908Y-86487437D01*
G37*
X138401908Y-86487437D02*
X138200009Y-86558146D01*
X138104217Y-86654174D01*
X138133123Y-86743803D01*
X138254367Y-86782354D01*
X138475877Y-86798550D01*
X138735310Y-86794193D01*
X138970324Y-86771087D01*
X139118576Y-86731036D01*
X139137625Y-86714749D01*
X139155700Y-86579036D01*
X139014853Y-86493452D01*
X138719175Y-86460256D01*
X138675789Y-86459900D01*
X138401908Y-86487437D01*
G36*
X141678090Y-86391579D02*
X141383379Y-86417569D01*
X141221238Y-86465106D01*
X141154589Y-86546437D01*
X141149781Y-86566087D01*
X141155341Y-86646646D01*
X141233601Y-86691762D01*
X141418969Y-86711176D01*
X141674878Y-86714749D01*
X141970124Y-86701473D01*
X142190928Y-86666667D01*
X142285344Y-86622398D01*
X142298488Y-86494260D01*
X142154200Y-86415026D01*
X141858415Y-86386952D01*
X141678090Y-86391579D01*
X141678090Y-86391579D01*
G37*
X141678090Y-86391579D02*
X141383379Y-86417569D01*
X141221238Y-86465106D01*
X141154589Y-86546437D01*
X141149781Y-86566087D01*
X141155341Y-86646646D01*
X141233601Y-86691762D01*
X141418969Y-86711176D01*
X141674878Y-86714749D01*
X141970124Y-86701473D01*
X142190928Y-86666667D01*
X142285344Y-86622398D01*
X142298488Y-86494260D01*
X142154200Y-86415026D01*
X141858415Y-86386952D01*
X141678090Y-86391579D01*
D13*
X152961128Y-120678783D02*
X153679370Y-122652138D01*
X151457620Y-121226016D02*
X152175862Y-123199370D01*
X150868000Y-111848000D02*
X149868000Y-111848000D01*
X149868000Y-110148000D02*
X150868000Y-110148000D01*
X158584000Y-104148000D02*
X158584000Y-105148000D01*
X156884000Y-105148000D02*
X156884000Y-104148000D01*
X157506983Y-110295546D02*
X156658454Y-109447017D01*
X155421017Y-110684454D02*
X156269546Y-111532983D01*
X144180000Y-104545000D02*
X145380000Y-104545000D01*
X145380000Y-102795000D02*
X144180000Y-102795000D01*
X140299200Y-137304800D02*
X142299200Y-136304800D01*
X126299200Y-137304800D02*
X140299200Y-137304800D01*
X124299200Y-136304800D02*
X126299200Y-137304800D01*
X144299200Y-133304800D02*
X144299200Y-130304800D01*
X122299200Y-133304800D02*
X122299200Y-130304800D01*
X142299200Y-136304800D02*
X144299200Y-133304800D01*
X122299200Y-133304800D02*
X124299200Y-136304800D01*
X133299200Y-117304800D02*
X142299200Y-116304800D01*
X124299200Y-116304800D02*
X133299200Y-117304800D01*
X122299200Y-130304800D02*
X122299200Y-124304800D01*
X144299200Y-124304800D02*
X144299200Y-130304800D01*
X144299200Y-118304800D02*
X144299200Y-124304800D01*
X142299200Y-116304800D02*
X144299200Y-118304800D01*
X122299200Y-118304800D02*
X124299200Y-116304800D01*
X122299200Y-124304800D02*
X122299200Y-118304800D01*
X143349076Y-127304800D02*
G75*
G03X143349076Y-127304800I-10049876J0D01*
G01*
X155784000Y-98060000D02*
X156784000Y-99060000D01*
X156784000Y-99060000D02*
X156784000Y-105260000D01*
X156784000Y-105260000D02*
X147564000Y-105260000D01*
X147564000Y-105260000D02*
X147564000Y-98060000D01*
X147564000Y-98060000D02*
X155784000Y-98060000D01*
D14*
X167259000Y-116459000D02*
X167259000Y-115824000D01*
X166624000Y-116459000D02*
X167259000Y-116459000D01*
D13*
X130189200Y-86540800D02*
X130189200Y-83740800D01*
X130189200Y-83740800D02*
X128789200Y-83740800D01*
X128789200Y-83740800D02*
X128789200Y-86540800D01*
X128789200Y-86540800D02*
X130189200Y-86540800D01*
X131239200Y-82140800D02*
X130589200Y-82140800D01*
X127739200Y-82140800D02*
X128389200Y-82140800D01*
X128389200Y-88140800D02*
X127739200Y-88140800D01*
X131239200Y-88140800D02*
X130589200Y-88140800D01*
X131239200Y-82140800D02*
X131239200Y-88140800D01*
X127739200Y-88140800D02*
X127739200Y-82140800D01*
D14*
X161550000Y-107450000D02*
X164450000Y-107450000D01*
X164450000Y-107450000D02*
X164450000Y-104550000D01*
X164450000Y-104550000D02*
X161550000Y-104550000D01*
X161550000Y-104550000D02*
X161550000Y-107450000D01*
X166550000Y-107450000D02*
X169450000Y-107450000D01*
X169450000Y-107450000D02*
X169450000Y-104550000D01*
X169450000Y-104550000D02*
X166550000Y-104550000D01*
X166550000Y-104550000D02*
X166550000Y-107450000D01*
X171550000Y-107450000D02*
X174450000Y-107450000D01*
X174450000Y-107450000D02*
X174450000Y-104550000D01*
X174450000Y-104550000D02*
X171550000Y-104550000D01*
X171550000Y-104550000D02*
X171550000Y-107450000D01*
D13*
X153628227Y-136891674D02*
X152214014Y-135477460D01*
X153805004Y-136714897D02*
X153628227Y-136891674D01*
X154512111Y-136007790D02*
X153805004Y-136714897D01*
X153097897Y-134593577D02*
X154512111Y-136007790D01*
X152744344Y-129997383D02*
X155219217Y-132472256D01*
X146380383Y-136361344D02*
X152744344Y-129997383D01*
X148855256Y-138836217D02*
X146380383Y-136361344D01*
X155219217Y-132472256D02*
X148855256Y-138836217D01*
X150905780Y-124102516D02*
X151845473Y-123760496D01*
X151764040Y-123536760D01*
X151670432Y-123418804D01*
X151548364Y-123361883D01*
X151442583Y-123349709D01*
X151247308Y-123370108D01*
X151113065Y-123418968D01*
X150950363Y-123528862D01*
X150877155Y-123606183D01*
X150820234Y-123728251D01*
X150824347Y-123878780D01*
X150905780Y-124102516D01*
X151340586Y-122373330D02*
X151503453Y-122820803D01*
X151072267Y-123028417D01*
X151100728Y-122967383D01*
X151112902Y-122861602D01*
X151031468Y-122637865D01*
X150954147Y-122564657D01*
X150893114Y-122536197D01*
X150787331Y-122524023D01*
X150563595Y-122605456D01*
X150490388Y-122682777D01*
X150461927Y-122743811D01*
X150449753Y-122849592D01*
X150531187Y-123073329D01*
X150608507Y-123146537D01*
X150669541Y-123174997D01*
X151210292Y-122015352D02*
X150998566Y-121433637D01*
X150754595Y-121877162D01*
X150705734Y-121742920D01*
X150628414Y-121669712D01*
X150567380Y-121641251D01*
X150461598Y-121629078D01*
X150237862Y-121710511D01*
X150164654Y-121787832D01*
X150136194Y-121848865D01*
X150124020Y-121954646D01*
X150221740Y-122223131D01*
X150299060Y-122296339D01*
X150360094Y-122324799D01*
X150534666Y-113455143D02*
X150582285Y-113502762D01*
X150725142Y-113550381D01*
X150820380Y-113550381D01*
X150963238Y-113502762D01*
X151058476Y-113407524D01*
X151106095Y-113312286D01*
X151153714Y-113121810D01*
X151153714Y-112978952D01*
X151106095Y-112788476D01*
X151058476Y-112693238D01*
X150963238Y-112598000D01*
X150820380Y-112550381D01*
X150725142Y-112550381D01*
X150582285Y-112598000D01*
X150534666Y-112645619D01*
X149582285Y-113550381D02*
X150153714Y-113550381D01*
X149868000Y-113550381D02*
X149868000Y-112550381D01*
X149963238Y-112693238D01*
X150058476Y-112788476D01*
X150153714Y-112836095D01*
X160191143Y-104481334D02*
X160238762Y-104433715D01*
X160286381Y-104290858D01*
X160286381Y-104195620D01*
X160238762Y-104052762D01*
X160143524Y-103957524D01*
X160048286Y-103909905D01*
X159857810Y-103862286D01*
X159714952Y-103862286D01*
X159524476Y-103909905D01*
X159429238Y-103957524D01*
X159334000Y-104052762D01*
X159286381Y-104195620D01*
X159286381Y-104290858D01*
X159334000Y-104433715D01*
X159381619Y-104481334D01*
X159381619Y-104862286D02*
X159334000Y-104909905D01*
X159286381Y-105005143D01*
X159286381Y-105243239D01*
X159334000Y-105338477D01*
X159381619Y-105386096D01*
X159476857Y-105433715D01*
X159572095Y-105433715D01*
X159714952Y-105386096D01*
X160286381Y-104814667D01*
X160286381Y-105433715D01*
X154777045Y-112412656D02*
X155349466Y-112311641D01*
X155181106Y-112816718D02*
X155888213Y-112109611D01*
X155618839Y-111840236D01*
X155517823Y-111806565D01*
X155450480Y-111806565D01*
X155349465Y-111840236D01*
X155248450Y-111941252D01*
X155214778Y-112042267D01*
X155214778Y-112109610D01*
X155248450Y-112210625D01*
X155517824Y-112480000D01*
X154440328Y-112075939D02*
X154305641Y-111941252D01*
X154271969Y-111840236D01*
X154271969Y-111772893D01*
X154305640Y-111604534D01*
X154406655Y-111436176D01*
X154676030Y-111166801D01*
X154777045Y-111133130D01*
X154844388Y-111133130D01*
X154945404Y-111166801D01*
X155080091Y-111301489D01*
X155113763Y-111402504D01*
X155113763Y-111469848D01*
X155080091Y-111570863D01*
X154911733Y-111739221D01*
X154810717Y-111772893D01*
X154743373Y-111772894D01*
X154642358Y-111739222D01*
X154507671Y-111604534D01*
X154473999Y-111503519D01*
X154474000Y-111436175D01*
X154507671Y-111335160D01*
X144406857Y-102306381D02*
X144740191Y-101830190D01*
X144978286Y-102306381D02*
X144978286Y-101306381D01*
X144597333Y-101306381D01*
X144502095Y-101354000D01*
X144454476Y-101401619D01*
X144406857Y-101496857D01*
X144406857Y-101639714D01*
X144454476Y-101734952D01*
X144502095Y-101782571D01*
X144597333Y-101830190D01*
X144978286Y-101830190D01*
X143454476Y-102306381D02*
X144025905Y-102306381D01*
X143740191Y-102306381D02*
X143740191Y-101306381D01*
X143835429Y-101449238D01*
X143930667Y-101544476D01*
X144025905Y-101592095D01*
X142835429Y-101306381D02*
X142740190Y-101306381D01*
X142644952Y-101354000D01*
X142597333Y-101401619D01*
X142549714Y-101496857D01*
X142502095Y-101687333D01*
X142502095Y-101925429D01*
X142549714Y-102115905D01*
X142597333Y-102211143D01*
X142644952Y-102258762D01*
X142740190Y-102306381D01*
X142835429Y-102306381D01*
X142930667Y-102258762D01*
X142978286Y-102211143D01*
X143025905Y-102115905D01*
X143073524Y-101925429D01*
X143073524Y-101687333D01*
X143025905Y-101496857D01*
X142978286Y-101401619D01*
X142930667Y-101354000D01*
X142835429Y-101306381D01*
X134084914Y-126733372D02*
X133942057Y-126780991D01*
X133894438Y-126828611D01*
X133846819Y-126923849D01*
X133846819Y-127066706D01*
X133894438Y-127161944D01*
X133942057Y-127209563D01*
X134037295Y-127257182D01*
X134418248Y-127257182D01*
X134418248Y-126257182D01*
X134084914Y-126257182D01*
X133989676Y-126304801D01*
X133942057Y-126352420D01*
X133894438Y-126447658D01*
X133894438Y-126542896D01*
X133942057Y-126638134D01*
X133989676Y-126685753D01*
X134084914Y-126733372D01*
X134418248Y-126733372D01*
X133561105Y-126257182D02*
X132989676Y-126257182D01*
X133275391Y-127257182D02*
X133275391Y-126257182D01*
X132132533Y-127257182D02*
X132703962Y-127257182D01*
X132418248Y-127257182D02*
X132418248Y-126257182D01*
X132513486Y-126400039D01*
X132608724Y-126495277D01*
X132703962Y-126542896D01*
X147202857Y-100398571D02*
X146002857Y-100398571D01*
X147088571Y-101655715D02*
X147145714Y-101598572D01*
X147202857Y-101427143D01*
X147202857Y-101312857D01*
X147145714Y-101141429D01*
X147031429Y-101027143D01*
X146917143Y-100970000D01*
X146688571Y-100912857D01*
X146517143Y-100912857D01*
X146288571Y-100970000D01*
X146174286Y-101027143D01*
X146060000Y-101141429D01*
X146002857Y-101312857D01*
X146002857Y-101427143D01*
X146060000Y-101598572D01*
X146117143Y-101655715D01*
X147202857Y-102798572D02*
X147202857Y-102112857D01*
X147202857Y-102455715D02*
X146002857Y-102455715D01*
X146174286Y-102341429D01*
X146288571Y-102227143D01*
X146345714Y-102112857D01*
X132593962Y-84707467D02*
X132641581Y-84850324D01*
X132641581Y-85088420D01*
X132593962Y-85183658D01*
X132546343Y-85231277D01*
X132451105Y-85278896D01*
X132355867Y-85278896D01*
X132260629Y-85231277D01*
X132213010Y-85183658D01*
X132165390Y-85088420D01*
X132117771Y-84897943D01*
X132070152Y-84802705D01*
X132022533Y-84755086D01*
X131927295Y-84707467D01*
X131832057Y-84707467D01*
X131736819Y-84755086D01*
X131689200Y-84802705D01*
X131641581Y-84897943D01*
X131641581Y-85136039D01*
X131689200Y-85278896D01*
X131641581Y-85612229D02*
X132641581Y-85850324D01*
X131927295Y-86040801D01*
X132641581Y-86231277D01*
X131641581Y-86469372D01*
X131736819Y-86802705D02*
X131689200Y-86850324D01*
X131641581Y-86945562D01*
X131641581Y-87183658D01*
X131689200Y-87278896D01*
X131736819Y-87326515D01*
X131832057Y-87374134D01*
X131927295Y-87374134D01*
X132070152Y-87326515D01*
X132641581Y-86755086D01*
X132641581Y-87374134D01*
X165564819Y-108367581D02*
X164993390Y-108367581D01*
X165279105Y-109367581D02*
X165279105Y-108367581D01*
X164660057Y-109367581D02*
X164660057Y-108367581D01*
X164279104Y-108367581D01*
X164183866Y-108415200D01*
X164136247Y-108462819D01*
X164088628Y-108558057D01*
X164088628Y-108700914D01*
X164136247Y-108796152D01*
X164183866Y-108843771D01*
X164279104Y-108891390D01*
X164660057Y-108891390D01*
X163898152Y-109462819D02*
X163136247Y-109462819D01*
X163041009Y-108367581D02*
X162469580Y-108367581D01*
X162755295Y-109367581D02*
X162755295Y-108367581D01*
X161564818Y-109272343D02*
X161612437Y-109319962D01*
X161755294Y-109367581D01*
X161850532Y-109367581D01*
X161993390Y-109319962D01*
X162088628Y-109224724D01*
X162136247Y-109129486D01*
X162183866Y-108939010D01*
X162183866Y-108796152D01*
X162136247Y-108605676D01*
X162088628Y-108510438D01*
X161993390Y-108415200D01*
X161850532Y-108367581D01*
X161755294Y-108367581D01*
X161612437Y-108415200D01*
X161564818Y-108462819D01*
X161136247Y-109367581D02*
X161136247Y-108367581D01*
X160564818Y-109367581D02*
X160993390Y-108796152D01*
X160564818Y-108367581D02*
X161136247Y-108939010D01*
X170285714Y-103202381D02*
X169714285Y-103202381D01*
X170000000Y-104202381D02*
X170000000Y-103202381D01*
X169380952Y-104202381D02*
X169380952Y-103202381D01*
X168999999Y-103202381D01*
X168904761Y-103250000D01*
X168857142Y-103297619D01*
X168809523Y-103392857D01*
X168809523Y-103535714D01*
X168857142Y-103630952D01*
X168904761Y-103678571D01*
X168999999Y-103726190D01*
X169380952Y-103726190D01*
X168619047Y-104297619D02*
X167857142Y-104297619D01*
X167761904Y-103202381D02*
X167190475Y-103202381D01*
X167476190Y-104202381D02*
X167476190Y-103202381D01*
X166857142Y-104202381D02*
X166857142Y-103202381D01*
X166619047Y-103202381D01*
X166476189Y-103250000D01*
X166380951Y-103345238D01*
X166333332Y-103440476D01*
X166285713Y-103630952D01*
X166285713Y-103773810D01*
X166333332Y-103964286D01*
X166380951Y-104059524D01*
X166476189Y-104154762D01*
X166619047Y-104202381D01*
X166857142Y-104202381D01*
X165857142Y-104202381D02*
X165857142Y-103202381D01*
X175523210Y-108240581D02*
X174951781Y-108240581D01*
X175237496Y-109240581D02*
X175237496Y-108240581D01*
X174618448Y-109240581D02*
X174618448Y-108240581D01*
X174237495Y-108240581D01*
X174142257Y-108288200D01*
X174094638Y-108335819D01*
X174047019Y-108431057D01*
X174047019Y-108573914D01*
X174094638Y-108669152D01*
X174142257Y-108716771D01*
X174237495Y-108764390D01*
X174618448Y-108764390D01*
X173856543Y-109335819D02*
X173094638Y-109335819D01*
X172285114Y-109240581D02*
X172618448Y-108764390D01*
X172856543Y-109240581D02*
X172856543Y-108240581D01*
X172475590Y-108240581D01*
X172380352Y-108288200D01*
X172332733Y-108335819D01*
X172285114Y-108431057D01*
X172285114Y-108573914D01*
X172332733Y-108669152D01*
X172380352Y-108716771D01*
X172475590Y-108764390D01*
X172856543Y-108764390D01*
X171904162Y-109192962D02*
X171761305Y-109240581D01*
X171523209Y-109240581D01*
X171427971Y-109192962D01*
X171380352Y-109145343D01*
X171332733Y-109050105D01*
X171332733Y-108954867D01*
X171380352Y-108859629D01*
X171427971Y-108812010D01*
X171523209Y-108764390D01*
X171713686Y-108716771D01*
X171808924Y-108669152D01*
X171856543Y-108621533D01*
X171904162Y-108526295D01*
X171904162Y-108431057D01*
X171856543Y-108335819D01*
X171808924Y-108288200D01*
X171713686Y-108240581D01*
X171475590Y-108240581D01*
X171332733Y-108288200D01*
X171047019Y-108240581D02*
X170475590Y-108240581D01*
X170761305Y-109240581D02*
X170761305Y-108240581D01*
X149352378Y-129400172D02*
X149217690Y-129534859D01*
X149184019Y-129635874D01*
X149184019Y-129770561D01*
X149285034Y-129938920D01*
X149520737Y-130174623D01*
X149689095Y-130275638D01*
X149823782Y-130275638D01*
X149924797Y-130241966D01*
X150059485Y-130107279D01*
X150093157Y-130006263D01*
X150093157Y-129871576D01*
X149992141Y-129703218D01*
X149756439Y-129467515D01*
X149588080Y-129366500D01*
X149453393Y-129366500D01*
X149352378Y-129400172D01*
X149453393Y-130713370D02*
X148746286Y-130006263D01*
X149049332Y-131117431D01*
X148342225Y-130410325D01*
X147466760Y-131218447D02*
X148981988Y-131521492D01*
X147130043Y-131622507D02*
X146995355Y-131757195D01*
X146961683Y-131858210D01*
X146961683Y-131992897D01*
X147062698Y-132161255D01*
X147298401Y-132396958D01*
X147466760Y-132497973D01*
X147601447Y-132497973D01*
X147702462Y-132464302D01*
X147837149Y-132329614D01*
X147870821Y-132228599D01*
X147870821Y-132093912D01*
X147769806Y-131925553D01*
X147534103Y-131689851D01*
X147365745Y-131588836D01*
X147231058Y-131588836D01*
X147130043Y-131622507D01*
X146624965Y-132801019D02*
X146860668Y-132565316D01*
X147231058Y-132935706D02*
X146523951Y-132228599D01*
X146187233Y-132565317D01*
X146018874Y-133407110D02*
X146254576Y-133171408D01*
X146624966Y-133541797D02*
X145917859Y-132834690D01*
X145581141Y-133171408D01*
M02*
