M48
;DRILL file {KiCad 4.0.5+dfsg1-4} date Thu Nov 28 21:25:48 2019
;FORMAT={-:-/ absolute / inch / decimal}
FMAT,2
INCH,TZ
T1C0.016
%
G90
G05
M72
T1
X4.125Y-3.119
X4.3405Y-3.2579
X4.5512Y-3.1055
X4.6646Y-3.087
X4.6646Y-3.25
X4.7087Y-3.0465
X4.7689Y-3.5772
X4.9011Y-4.2931
X4.9211Y-4.1141
X4.9411Y-4.0531
X4.9611Y-3.8741
X4.9811Y-3.7541
X5.0433Y-2.948
X5.15Y-3.7697
X5.2417Y-3.8992
X5.2911Y-4.2341
X5.3111Y-4.1141
X5.3197Y-2.9079
X5.3311Y-3.9941
X5.3511Y-3.8741
X5.3711Y-3.8131
X5.437Y-2.9185
X5.4502Y-3.9845
X5.4502Y-4.0828
X5.5069Y-3.7827
X5.5106Y-3.6961
X5.5402Y-3.8945
X5.5402Y-4.1728
X5.6043Y-2.9283
X5.6583Y-2.9311
X5.668Y-3.863
X5.7711Y-3.7488
X5.8193Y-3.6386
X5.8201Y-2.7287
X5.84Y-4.17
X5.8611Y-2.6631
X5.8611Y-3.7488
X5.8701Y-2.9972
X5.8886Y-3.6669
X5.8911Y-2.7241
X5.8911Y-4.1008
X5.987Y-2.903
X5.989Y-3.0059
X6.0111Y-4.261
X6.028Y-3.5122
X6.038Y-3.6925
X6.0411Y-2.5531
X6.0964Y-3.0465
X6.1Y-3.6925
X6.1011Y-2.4431
X6.1311Y-3.7488
X6.1411Y-4.0811
X6.189Y-2.916
X6.19Y-3.7934
X6.214Y-4.106
X6.2211Y-2.2231
X6.2211Y-3.7488
X6.2539Y-3.1252
X6.3043Y-3.852
X6.313Y-4.096
X6.3524Y-3.1941
X6.46Y-4.51
X6.497Y-4.422
X6.5075Y-4.0201
X6.51Y-4.51
X6.5492Y-3.2925
X6.5756Y-3.8531
X6.6142Y-4.1732
X6.7756Y-3.5091
X6.8051Y-3.637
X6.8916Y-3.7736
T0
M30
